<svg width="25" height="24" viewBox="0 0 25 24" fill="none" xmlns="http://www.w3.org/2000/svg">
    <circle cx="12.6152" cy="12" r="10.5" fill="#FA4778"/>
    <path d="M16.2388 7.30773L15.9127 8.95586C15.8755 9.13141 15.7171 9.28744 15.5215 9.28744H12.6894C12.3726 9.28744 12.1118 9.5605 12.1118 9.89209V10.2529C12.1118 10.5845 12.3726 10.8576 12.6894 10.8576H15.0836C15.3072 10.8576 15.4935 11.0819 15.4469 11.3257C15.4004 11.5792 15.1488 12.8665 15.1209 13.0031C15.1022 13.1493 14.9532 13.3346 14.7296 13.3346H12.7732C12.3633 13.3444 12.2795 13.3541 12.0373 13.6662C11.7951 13.9783 9.61512 16.7497 9.61512 16.7497V7.22971C9.61512 7.00543 9.79211 6.82012 10.0064 6.82012H15.8848C16.0898 6.82012 16.2947 7.03468 16.2388 7.30773ZM16.6673 5.25H9.41015C8.41335 5.25 8.11523 6.03994 8.11523 6.53731V18.6106C8.11523 19.3183 8.85775 19.8618 9.43811 19.2542C9.43811 19.2542 12.885 15.051 12.9409 14.9827C12.9968 14.9145 13.0248 14.9145 13.062 14.9145H15.242C16.1736 14.9145 16.3506 14.2416 16.4531 13.832C16.5369 13.4906 17.4964 8.61452 17.7946 7.07366C18.0182 5.8839 17.7294 5.25 16.6673 5.25Z"
          fill="white"/>
</svg>
