<svg width="25" height="24" viewBox="0 0 25 24" fill="none" xmlns="http://www.w3.org/2000/svg">
    <rect x="1.65381" y="1.5" width="21" height="21" rx="6" fill="url(#paint0_radial_10259_260884)"/>
    <rect x="1.65381" y="1.5" width="21" height="21" rx="6" fill="url(#paint1_radial_10259_260884)"/>
    <rect x="1.65381" y="1.5" width="21" height="21" rx="6" fill="url(#paint2_radial_10259_260884)"/>
    <path d="M17.4038 7.875C17.4038 8.49632 16.9001 9 16.2788 9C15.6575 9 15.1538 8.49632 15.1538 7.875C15.1538 7.25368 15.6575 6.75 16.2788 6.75C16.9001 6.75 17.4038 7.25368 17.4038 7.875Z"
          fill="white"/>
    <path fill-rule="evenodd" clip-rule="evenodd"
          d="M12.1538 15.75C14.2249 15.75 15.9038 14.0711 15.9038 12C15.9038 9.92893 14.2249 8.25 12.1538 8.25C10.0827 8.25 8.40381 9.92893 8.40381 12C8.40381 14.0711 10.0827 15.75 12.1538 15.75ZM12.1538 14.25C13.3965 14.25 14.4038 13.2426 14.4038 12C14.4038 10.7574 13.3965 9.75 12.1538 9.75C10.9112 9.75 9.90381 10.7574 9.90381 12C9.90381 13.2426 10.9112 14.25 12.1538 14.25Z"
          fill="white"/>
    <path fill-rule="evenodd" clip-rule="evenodd"
          d="M4.65381 11.7C4.65381 9.17976 4.65381 7.91965 5.14428 6.95704C5.57571 6.11031 6.26412 5.4219 7.11085 4.99047C8.07345 4.5 9.33357 4.5 11.8538 4.5H12.4538C14.974 4.5 16.2342 4.5 17.1968 4.99047C18.0435 5.4219 18.7319 6.11031 19.1633 6.95704C19.6538 7.91965 19.6538 9.17976 19.6538 11.7V12.3C19.6538 14.8202 19.6538 16.0804 19.1633 17.043C18.7319 17.8897 18.0435 18.5781 17.1968 19.0095C16.2342 19.5 14.974 19.5 12.4538 19.5H11.8538C9.33357 19.5 8.07345 19.5 7.11085 19.0095C6.26412 18.5781 5.57571 17.8897 5.14428 17.043C4.65381 16.0804 4.65381 14.8202 4.65381 12.3V11.7ZM11.8538 6H12.4538C13.7387 6 14.6121 6.00117 15.2873 6.05633C15.9449 6.11006 16.2812 6.20745 16.5158 6.32698C17.0803 6.6146 17.5392 7.07354 17.8268 7.63803C17.9464 7.87263 18.0438 8.20893 18.0975 8.86656C18.1526 9.54169 18.1538 10.4151 18.1538 11.7V12.3C18.1538 13.5849 18.1526 14.4583 18.0975 15.1334C18.0438 15.7911 17.9464 16.1274 17.8268 16.362C17.5392 16.9265 17.0803 17.3854 16.5158 17.673C16.2812 17.7926 15.9449 17.8899 15.2873 17.9437C14.6121 17.9988 13.7387 18 12.4538 18H11.8538C10.5689 18 9.6955 17.9988 9.02037 17.9437C8.36274 17.8899 8.02644 17.7926 7.79184 17.673C7.22735 17.3854 6.76841 16.9265 6.48079 16.362C6.36125 16.1274 6.26387 15.7911 6.21014 15.1334C6.15498 14.4583 6.15381 13.5849 6.15381 12.3V11.7C6.15381 10.4151 6.15498 9.54169 6.21014 8.86656C6.26387 8.20893 6.36125 7.87263 6.48079 7.63803C6.76841 7.07354 7.22735 6.6146 7.79184 6.32698C8.02644 6.20745 8.36274 6.11006 9.02037 6.05633C9.6955 6.00117 10.5689 6 11.8538 6Z"
          fill="white"/>
    <defs>
        <radialGradient id="paint0_radial_10259_260884" cx="0" cy="0" r="1" gradientUnits="userSpaceOnUse"
                        gradientTransform="translate(9.15381 17.25) rotate(-55.3758) scale(19.1397)">
            <stop stop-color="#B13589"/>
            <stop offset="0.79309" stop-color="#C62F94"/>
            <stop offset="1" stop-color="#8A3AC8"/>
        </radialGradient>
        <radialGradient id="paint1_radial_10259_260884" cx="0" cy="0" r="1" gradientUnits="userSpaceOnUse"
                        gradientTransform="translate(8.40381 23.25) rotate(-65.1363) scale(16.9457)">
            <stop stop-color="#E0E8B7"/>
            <stop offset="0.444662" stop-color="#FB8A2E"/>
            <stop offset="0.71474" stop-color="#E2425C"/>
            <stop offset="1" stop-color="#E2425C" stop-opacity="0"/>
        </radialGradient>
        <radialGradient id="paint2_radial_10259_260884" cx="0" cy="0" r="1" gradientUnits="userSpaceOnUse"
                        gradientTransform="translate(0.52881 2.25) rotate(-8.1301) scale(29.1682 6.23877)">
            <stop offset="0.156701" stop-color="#406ADC"/>
            <stop offset="0.467799" stop-color="#6A45BE"/>
            <stop offset="1" stop-color="#6A45BE" stop-opacity="0"/>
        </radialGradient>
    </defs>
</svg>
