<svg width="25" height="24" viewBox="0 0 25 24" fill="none" xmlns="http://www.w3.org/2000/svg">
    <rect x="1.96143" y="1.5" width="21" height="21" rx="10.5" fill="#1275B1"/>
    <path d="M9.92534 7.26911C9.92534 7.97002 9.31781 8.53822 8.56838 8.53822C7.81896 8.53822 7.21143 7.97002 7.21143 7.26911C7.21143 6.5682 7.81896 6 8.56838 6C9.31781 6 9.92534 6.5682 9.92534 7.26911Z"
          fill="white"/>
    <path d="M7.39699 9.47107H9.71658V16.5H7.39699V9.47107Z" fill="white"/>
    <path d="M13.4511 9.47107H11.1315V16.5H13.4511C13.4511 16.5 13.4511 14.2872 13.4511 12.9036C13.4511 12.0732 13.7347 11.2392 14.8661 11.2392C16.1447 11.2392 16.137 12.3259 16.131 13.1678C16.1232 14.2683 16.1418 15.3914 16.1418 16.5H18.4614V12.7903C18.4418 10.4215 17.8245 9.33006 15.7939 9.33006C14.588 9.33006 13.8405 9.87754 13.4511 10.3729V9.47107Z"
          fill="white"/>
</svg>
