<svg width="31" height="30" viewBox="0 0 31 30" fill="none" xmlns="http://www.w3.org/2000/svg">
    <circle cx="16.5386" cy="16" r="14" fill="white"/>
    <path d="M12.5386 22.5C18.3376 22.5 23.0386 17.799 23.0386 12C23.0386 6.20101 18.3376 1.5 12.5386 1.5C6.73958 1.5 2.03857 6.20101 2.03857 12C2.03857 16.2601 4.5756 19.9276 8.22118 21.5742C8.22608 21.4605 8.23158 21.3564 8.2363 21.2671C8.24273 21.1453 8.24771 21.0511 8.24771 20.9982C8.24771 20.6827 8.46225 19.1178 8.46225 19.1178L9.77475 13.729C9.57283 13.4008 9.42139 12.7067 9.42139 12.1767C9.42139 9.72836 10.7844 9.19831 11.6173 9.19831C12.6774 9.19831 12.9172 10.3467 12.9172 11.1923C12.9172 11.6396 12.6852 12.3396 12.4464 13.06C12.1934 13.8236 11.9328 14.61 11.9328 15.1424C11.9328 16.1773 12.955 16.6947 13.6618 16.6947C15.5296 16.6947 17.2459 14.3473 17.2459 12C17.2459 9.65264 16.148 6.81309 12.5512 6.81309C8.95444 6.81309 7.33906 9.55167 7.33906 11.6466C7.33906 13.0601 7.8691 14.0949 8.13413 14.2716C8.20985 14.3389 8.33858 14.5467 8.24771 14.8395C8.15685 15.1323 7.9911 15.786 7.91959 16.0763C7.91117 16.1436 7.83124 16.258 7.57884 16.1773C7.26334 16.0763 5.25673 14.8143 5.25673 11.6466C5.25673 8.47896 7.7429 4.79386 12.5512 4.79386C17.3595 4.79386 19.8204 8.02463 19.8204 12C19.8204 15.9754 16.6023 18.512 14.154 18.512C12.1953 18.512 11.428 17.637 11.2892 17.1995L10.5446 20.0391C10.3688 20.5101 10.0408 21.3568 9.63635 22.0938C10.5581 22.3583 11.5318 22.5 12.5386 22.5Z"
          fill="#BB0F23"/>
</svg>
