<svg width="25" height="24" viewBox="0 0 25 24" fill="none" xmlns="http://www.w3.org/2000/svg">
    <path fill-rule="evenodd" clip-rule="evenodd"
          d="M14.4638 20.6543C13.6586 20.8796 12.8097 21 11.9326 21C6.75495 21 2.55762 16.8027 2.55762 11.625C2.55762 6.44733 6.75495 2.25 11.9326 2.25C17.1103 2.25 21.3076 6.44733 21.3076 11.625C21.3076 14.5831 19.9376 17.2211 17.7975 18.9393C18.387 19.6836 19.071 20.2599 19.8188 20.2599C21.052 20.2599 21.423 19.2673 21.4544 18.7711H22.8076C22.8076 21.3982 21.2367 23.1594 18.6541 23.2432C17.7438 23.2727 16.2186 23.3222 14.4638 20.6543ZM13.6387 19.2193C13.144 19.4023 12.5783 19.5 11.9326 19.5C8.05438 19.5 7.05762 15.9742 7.05762 11.625C7.05762 7.27576 8.05529 3.75 11.9326 3.75C15.8099 3.75 16.8076 7.27576 16.8076 11.625C16.8076 13.3902 16.6434 15.0197 16.189 16.333C15.4544 15.0407 14.2952 13.5 12.1584 13.5C10.3792 13.5 9.01654 14.2284 8.55762 14.5926L9.12244 15.7213C9.27933 15.6693 9.67549 15.5652 10.005 15.5652C10.4168 15.5652 11.8759 15.4331 13.288 18.4949C13.4055 18.7497 13.5224 18.9909 13.6387 19.2193Z"
          fill="#B72D2C"/>
</svg>
