<svg width="25" height="24" viewBox="0 0 25 24" fill="none" xmlns="http://www.w3.org/2000/svg">
    <path d="M12.0771 1.5C6.28574 1.5 1.57715 6.20859 1.57715 12C1.57715 17.7914 6.28574 22.5 12.0771 22.5C17.8686 22.5 22.5771 17.7914 22.5771 12C22.5771 6.20859 17.8686 1.5 12.0771 1.5Z"
          fill="#FC471E"/>
    <path fill-rule="evenodd" clip-rule="evenodd"
          d="M15.0916 6.68213C15.0821 6.74238 15.0771 6.8042 15.0771 6.86719C15.0771 7.50324 15.5808 8.01886 16.2021 8.01886C16.8235 8.01886 17.3271 7.50324 17.3271 6.86719C17.3271 6.23114 16.8235 5.71552 16.2021 5.71552C15.9253 5.71552 15.6718 5.8179 15.4758 5.98769L12.5543 5.25L11.4984 9.57382C10.0937 9.66844 8.83038 10.1039 7.87737 10.7614C7.60679 10.4897 7.23608 10.3222 6.82715 10.3222C5.99872 10.3222 5.32715 11.0097 5.32715 11.8578C5.32715 12.4479 5.65239 12.9604 6.1294 13.2174C6.09494 13.4006 6.07715 13.5874 6.07715 13.7772C6.07715 16.1094 8.76344 18 12.0771 18C15.3909 18 18.0771 16.1094 18.0771 13.7772C18.0771 13.5874 18.0594 13.4006 18.0249 13.2174C18.5019 12.9604 18.8271 12.4479 18.8271 11.8578C18.8271 11.0097 18.1556 10.3222 17.3271 10.3222C16.9182 10.3222 16.5475 10.4897 16.2769 10.7614C15.2387 10.0451 13.8321 9.59229 12.2756 9.55669L13.1 6.18107L15.0916 6.68213ZM9.45215 14.1611C10.0735 14.1611 10.5771 13.6455 10.5771 13.0094C10.5771 12.3734 10.0735 11.8578 9.45215 11.8578C8.83083 11.8578 8.32715 12.3734 8.32715 13.0094C8.32715 13.6455 8.83083 14.1611 9.45215 14.1611ZM14.7021 14.1611C15.3235 14.1611 15.8271 13.6455 15.8271 13.0094C15.8271 12.3734 15.3235 11.8578 14.7021 11.8578C14.0808 11.8578 13.5771 12.3734 13.5771 13.0094C13.5771 13.6455 14.0808 14.1611 14.7021 14.1611ZM9.66016 15.3772C9.48784 15.2596 9.25501 15.3073 9.14013 15.4837C9.02525 15.6601 9.07181 15.8985 9.24414 16.0161C10.0602 16.573 11.0687 16.8515 12.0771 16.8515C13.0856 16.8515 14.0941 16.573 14.9102 16.0161C15.0825 15.8985 15.129 15.6601 15.0142 15.4837C14.8993 15.3073 14.6665 15.2596 14.4941 15.3772C13.804 15.8482 12.9406 16.0837 12.0771 16.0837C11.5651 16.0837 11.053 16.0009 10.5771 15.8352C10.2506 15.7216 9.94101 15.5689 9.66016 15.3772Z"
          fill="white"/>
</svg>
