<svg width="25" height="24" viewBox="0 0 25 24" fill="none" xmlns="http://www.w3.org/2000/svg">
    <circle cx="12.9233" cy="12" r="10.5" fill="#FFFA37"/>
    <path fill-rule="evenodd" clip-rule="evenodd"
          d="M16.6925 6.13913C15.9684 5.2266 14.7738 4.5 12.9322 4.5C11.3552 4.51553 8.20118 5.38834 8.20118 8.75533C8.20118 9.24706 8.2401 9.90561 8.27411 10.3906C8.23403 10.3789 8.18475 10.3571 8.10665 10.3197L8.0958 10.3145C7.9577 10.2482 7.74772 10.1474 7.45569 10.1474C7.16068 10.1474 6.87543 10.2629 6.66366 10.4343C6.45316 10.6046 6.27334 10.8664 6.27334 11.1829C6.27334 11.5788 6.49615 11.8416 6.75667 12.0101C6.98808 12.1598 7.27988 12.2554 7.51086 12.3311L7.5337 12.3386C7.78096 12.4197 7.96216 12.4815 8.08711 12.5594C8.18436 12.62 8.19912 12.6584 8.20095 12.6948C8.19968 12.7 8.19671 12.7112 8.19024 12.7293C8.1769 12.7668 8.15472 12.8174 8.1223 12.8807C8.05764 13.007 7.96335 13.1623 7.85117 13.328C7.62488 13.6621 7.34872 14.0048 7.14243 14.2032C6.93895 14.3989 6.60506 14.6422 6.25596 14.8358C6.08284 14.9318 5.91354 15.0114 5.76209 15.066C5.60576 15.1225 5.49119 15.144 5.4204 15.144C5.36436 15.144 5.31586 15.1555 5.29469 15.1608C5.26494 15.1682 5.23415 15.178 5.20368 15.1895C5.14327 15.2122 5.07126 15.2463 4.99994 15.2942C4.86366 15.386 4.67334 15.5709 4.67334 15.8626C4.67334 16.0149 4.70909 16.1438 4.77088 16.2556C4.82497 16.3535 4.89449 16.4278 4.93451 16.4706L4.94045 16.4769L4.95152 16.4888C5.1716 16.7256 5.5359 16.8903 5.88955 17.0034C6.19343 17.1005 6.53319 17.1729 6.86425 17.2163C6.86893 17.2377 6.87382 17.2607 6.87917 17.2859L6.88089 17.294C6.90173 17.3923 6.92934 17.5225 6.97 17.6425C7.00836 17.7558 7.07783 17.9233 7.22007 18.0426C7.40122 18.1945 7.63815 18.2099 7.79274 18.2092C7.95869 18.2086 8.15245 18.1852 8.3363 18.163L8.35195 18.1612C8.61065 18.13 8.88127 18.0978 9.16157 18.0978C9.6731 18.0978 10.001 18.3115 10.5154 18.6628L10.5189 18.6652C10.6971 18.7869 10.8966 18.9231 11.1233 19.0571C11.8825 19.5057 12.4993 19.5018 12.8489 19.4996C12.8719 19.4995 12.8938 19.4994 12.9145 19.4994C12.9352 19.4994 12.9572 19.4995 12.9804 19.4997C13.3306 19.5019 13.9638 19.506 14.7233 19.0571C14.9501 18.9231 15.1496 18.7869 15.3278 18.6652L15.3313 18.6628C15.8457 18.3115 16.1736 18.0978 16.6851 18.0978C16.9654 18.0978 17.236 18.13 17.4947 18.1612L17.5104 18.163C17.6942 18.1852 17.888 18.2086 18.0539 18.2092C18.2085 18.2099 18.4455 18.1945 18.6266 18.0426C18.7689 17.9233 18.8383 17.7558 18.8767 17.6425C18.9173 17.5225 18.9449 17.3923 18.9658 17.294L18.9675 17.2859C18.9729 17.2607 18.9777 17.2377 18.9824 17.2163C19.3135 17.1729 19.6532 17.1005 19.9571 17.0034C20.3108 16.8903 20.6751 16.7255 20.8952 16.4888L20.9062 16.4769L20.9121 16.4706C20.9522 16.4278 21.0217 16.3535 21.0758 16.2556C21.1376 16.1438 21.1733 16.0149 21.1733 15.8626C21.1733 15.5709 20.983 15.386 20.8467 15.2942C20.7754 15.2463 20.7034 15.2122 20.643 15.1895C20.6125 15.178 20.5817 15.1682 20.552 15.1608C20.5308 15.1555 20.4823 15.144 20.4263 15.144C20.3555 15.144 20.2409 15.1225 20.0846 15.066C19.9331 15.0114 19.7638 14.9318 19.5907 14.8358C19.2416 14.6422 18.9077 14.3989 18.7043 14.2032C18.498 14.0048 18.2218 13.6621 17.9955 13.328C17.8833 13.1623 17.789 13.0071 17.7244 12.8807C17.692 12.8174 17.6698 12.7668 17.6564 12.7293C17.65 12.7112 17.647 12.7 17.6457 12.6948C17.6476 12.6583 17.6623 12.62 17.7596 12.5594C17.8845 12.4815 18.0657 12.4197 18.313 12.3386L18.3358 12.3311C18.5668 12.2554 18.8586 12.1598 19.09 12.0101C19.3505 11.8416 19.5733 11.5788 19.5733 11.1829C19.5733 10.8664 19.3935 10.6046 19.183 10.4343C18.9713 10.2629 18.686 10.1474 18.391 10.1474C18.099 10.1474 17.889 10.2482 17.7509 10.3145L17.74 10.3197C17.6619 10.3571 17.6127 10.3789 17.5726 10.3906C17.6066 9.90561 17.6455 9.24706 17.6455 8.75533C17.6455 8.08777 17.4028 7.03428 16.6925 6.13913ZM9.76076 6.57955C9.15996 7.33162 8.95412 8.22462 8.95412 8.75533C8.95412 9.2474 8.9958 9.93099 9.03097 10.4212C9.04266 10.584 9.00928 10.7737 8.86711 10.9244C8.7232 11.0768 8.52743 11.1263 8.35254 11.1263C8.10001 11.1263 7.90794 11.0339 7.78508 10.9748L7.77081 10.968C7.63372 10.9023 7.56165 10.8717 7.45569 10.8717C7.3593 10.8717 7.24162 10.9131 7.1483 10.9886C7.0537 11.0651 7.02628 11.14 7.02628 11.1829C7.02628 11.2702 7.05848 11.3325 7.1768 11.4091C7.31654 11.4995 7.51566 11.5674 7.77669 11.653L7.79941 11.6605C8.01618 11.7315 8.28467 11.8195 8.49655 11.9515C8.73438 12.0998 8.95412 12.338 8.95412 12.7051C8.95412 12.8013 8.92752 12.8939 8.90254 12.9641C8.87544 13.0402 8.83881 13.1206 8.79777 13.2007C8.71552 13.3614 8.60429 13.5428 8.48203 13.7234C8.23946 14.0815 7.93112 14.4688 7.67484 14.7154C7.41575 14.9646 7.02612 15.2447 6.63203 15.4633C6.43356 15.5734 6.22635 15.6721 6.02655 15.7442C5.8477 15.8087 5.65494 15.8593 5.47002 15.8672C5.46541 15.8691 5.46032 15.8715 5.45499 15.8741C5.44646 15.8784 5.43849 15.8831 5.43153 15.8878L5.42797 15.8902C5.42867 15.8952 5.42947 15.8989 5.43013 15.9015C5.43161 15.9073 5.43337 15.9114 5.43573 15.9157C5.44298 15.9288 5.45441 15.9434 5.50067 15.993L5.5128 16.006C5.59612 16.0957 5.80146 16.212 6.12695 16.316C6.43695 16.4151 6.80352 16.4867 7.14984 16.5195C7.32312 16.5359 7.423 16.6442 7.46527 16.7025C7.50878 16.7626 7.53367 16.826 7.54821 16.8681C7.57634 16.9495 7.59759 17.0499 7.61435 17.129L7.6169 17.141C7.63978 17.2489 7.6598 17.3411 7.6859 17.4182C7.69513 17.4454 7.70364 17.4662 7.71097 17.4814C7.72749 17.4833 7.75283 17.4851 7.78954 17.4849C7.94878 17.4843 8.10822 17.4606 8.266 17.4415C8.51844 17.4111 8.83083 17.3735 9.16157 17.3735C9.92866 17.3735 10.4348 17.7193 10.9238 18.0534L10.9513 18.0722C11.1322 18.1958 11.3135 18.3195 11.5175 18.44C12.0921 18.7795 12.5294 18.7771 12.8488 18.7753C12.8713 18.7752 12.8932 18.7751 12.9145 18.7751C12.9357 18.7751 12.9574 18.7752 12.9798 18.7753C13.3028 18.777 13.7547 18.7795 14.3292 18.44C14.5332 18.3195 14.7145 18.1958 14.8954 18.0722L14.9229 18.0534C15.4118 17.7193 15.918 17.3735 16.6851 17.3735C17.0159 17.3735 17.3282 17.4111 17.5807 17.4415L17.5883 17.4425C17.7924 17.4671 17.9418 17.4845 18.0571 17.4849C18.0938 17.4851 18.1192 17.4833 18.1357 17.4814C18.143 17.4662 18.1516 17.4454 18.1608 17.4182C18.1869 17.3411 18.2069 17.2489 18.2298 17.141L18.2323 17.129C18.2491 17.0499 18.2703 16.9495 18.2985 16.8681C18.313 16.826 18.3379 16.7626 18.3814 16.7025C18.4237 16.6442 18.5236 16.5359 18.6968 16.5195C19.0432 16.4867 19.4097 16.4151 19.7197 16.316C20.0452 16.212 20.2505 16.0957 20.3339 16.006L20.346 15.993C20.3923 15.9435 20.4037 15.9288 20.4109 15.9157C20.4133 15.9114 20.4151 15.9073 20.4165 15.9015C20.4172 15.8989 20.418 15.8952 20.4187 15.8902L20.4151 15.8878C20.4082 15.8831 20.4002 15.8784 20.3917 15.8741C20.3864 15.8715 20.3813 15.8691 20.3767 15.8672C20.1917 15.8593 19.999 15.8087 19.8201 15.7442C19.6203 15.6721 19.4131 15.5734 19.2146 15.4633C18.8206 15.2447 18.4309 14.9646 18.1718 14.7154C17.9156 14.4688 17.6072 14.0815 17.3646 13.7234C17.2424 13.5428 17.1312 13.3614 17.0489 13.2007C17.0079 13.1206 16.9712 13.0402 16.9441 12.9641C16.9192 12.8939 16.8926 12.8013 16.8926 12.7051C16.8926 12.338 17.1123 12.0998 17.3501 11.9515C17.562 11.8195 17.8305 11.7315 18.0473 11.6605L18.07 11.653C18.331 11.5674 18.5301 11.4995 18.6699 11.4091C18.7882 11.3325 18.8204 11.2702 18.8204 11.1829C18.8204 11.14 18.793 11.0651 18.6984 10.9886C18.6051 10.9131 18.4874 10.8717 18.391 10.8717C18.285 10.8717 18.213 10.9023 18.0759 10.968L18.0616 10.9748C17.9387 11.0339 17.7467 11.1263 17.4941 11.1263C17.3193 11.1263 17.1235 11.0768 16.9796 10.9244C16.8374 10.7737 16.804 10.584 16.8157 10.4212C16.8509 9.93099 16.8926 9.2474 16.8926 8.75533C16.8926 8.22324 16.6903 7.33014 16.094 6.57862C15.5114 5.84448 14.5376 5.22431 12.9322 5.22431C11.3266 5.22431 10.3478 5.84466 9.76076 6.57955Z"
          fill="black"/>
    <path fill-rule="evenodd" clip-rule="evenodd"
          d="M9.76053 6.57961C9.15972 7.33167 8.95388 8.22467 8.95388 8.75538C8.95388 9.24746 8.99556 9.93104 9.03074 10.4212C9.04242 10.584 9.00904 10.7738 8.86687 10.9244C8.72297 11.0769 8.52719 11.1264 8.35231 11.1264C8.09977 11.1264 7.9077 11.034 7.78484 10.9749L7.77057 10.968C7.63349 10.9023 7.56141 10.8717 7.45546 10.8717C7.35906 10.8717 7.24138 10.9131 7.14806 10.9887C7.05346 11.0652 7.02604 11.1401 7.02604 11.183C7.02604 11.2702 7.05824 11.3326 7.17656 11.4091C7.3163 11.4995 7.51542 11.5675 7.77645 11.6531L7.79917 11.6605C8.01594 11.7315 8.28443 11.8195 8.49631 11.9516C8.73414 12.0998 8.95388 12.3381 8.95388 12.7051C8.95388 12.8014 8.92728 12.894 8.9023 12.9641C8.8752 13.0402 8.83857 13.1206 8.79753 13.2008C8.71528 13.3615 8.60406 13.5429 8.4818 13.7234C8.23922 14.0816 7.93088 14.4689 7.6746 14.7154C7.41551 14.9647 7.02588 15.2448 6.63179 15.4634C6.43332 15.5734 6.22612 15.6722 6.02631 15.7443C5.84746 15.8088 5.6547 15.8594 5.46978 15.8673C5.46517 15.8692 5.46008 15.8715 5.45475 15.8742C5.44622 15.8785 5.43825 15.8831 5.43129 15.8878L5.42773 15.8903C5.42843 15.8953 5.42923 15.8989 5.42989 15.9015C5.43137 15.9073 5.43313 15.9115 5.43549 15.9157C5.44274 15.9289 5.45418 15.9435 5.50043 15.993L5.51256 16.0061C5.59589 16.0957 5.80122 16.212 6.12672 16.3161C6.43671 16.4151 6.80328 16.4867 7.14961 16.5196C7.32289 16.536 7.42276 16.6443 7.46503 16.7026C7.50854 16.7627 7.53343 16.8261 7.54797 16.8682C7.5761 16.9496 7.59735 17.0499 7.61411 17.1291L7.61666 17.1411C7.63954 17.2489 7.65956 17.3411 7.68566 17.4182C7.69489 17.4455 7.70341 17.4662 7.71073 17.4815C7.72726 17.4833 7.75259 17.4851 7.7893 17.485C7.94855 17.4843 8.10798 17.4606 8.26577 17.4416C8.5182 17.4112 8.83059 17.3735 9.16134 17.3735C9.92843 17.3735 10.4346 17.7194 10.9236 18.0535L10.951 18.0722C11.132 18.1958 11.3133 18.3195 11.5172 18.44C12.0919 18.7796 12.5291 18.7771 12.8486 18.7754C12.8711 18.7752 12.893 18.7751 12.9143 18.7751C12.9354 18.7751 12.9572 18.7752 12.9796 18.7753C13.3025 18.7771 13.7544 18.7795 14.329 18.44C14.5329 18.3195 14.7142 18.1958 14.8952 18.0722L14.9226 18.0535C15.4116 17.7194 15.9178 17.3735 16.6849 17.3735C17.0156 17.3735 17.328 17.4112 17.5804 17.4416L17.5881 17.4425C17.7922 17.4671 17.9416 17.4845 18.0569 17.485C18.0936 17.4851 18.1189 17.4833 18.1355 17.4815C18.1428 17.4662 18.1513 17.4455 18.1605 17.4182C18.1866 17.3411 18.2067 17.2489 18.2295 17.1411L18.2321 17.129C18.2489 17.0499 18.2701 16.9496 18.2982 16.8682C18.3128 16.8261 18.3377 16.7627 18.3812 16.7026C18.4234 16.6443 18.5233 16.536 18.6966 16.5196C19.0429 16.4867 19.4095 16.4151 19.7195 16.3161C20.045 16.212 20.2503 16.0957 20.3336 16.0061L20.3458 15.9931C20.392 15.9435 20.4035 15.9289 20.4107 15.9157C20.4131 15.9115 20.4148 15.9073 20.4163 15.9015C20.417 15.8989 20.4178 15.8952 20.4185 15.8903L20.4149 15.8878C20.408 15.8831 20.4 15.8785 20.3915 15.8742C20.3861 15.8715 20.381 15.8692 20.3764 15.8673C20.1915 15.8594 19.9987 15.8088 19.8199 15.7443C19.6201 15.6722 19.4129 15.5734 19.2144 15.4634C18.8203 15.2448 18.4307 14.9647 18.1716 14.7154C17.9153 14.4689 17.607 14.0816 17.3644 13.7234C17.2422 13.5429 17.1309 13.3615 17.0487 13.2008C17.0076 13.1206 16.971 13.0402 16.9439 12.9641C16.9189 12.894 16.8923 12.8014 16.8923 12.7051C16.8923 12.3381 17.1121 12.0998 17.3499 11.9516C17.5618 11.8195 17.8303 11.7315 18.047 11.6605L18.0698 11.6531C18.3308 11.5675 18.5299 11.4995 18.6696 11.4091C18.788 11.3326 18.8202 11.2702 18.8202 11.183C18.8202 11.1401 18.7927 11.0652 18.6981 10.9887C18.6048 10.9131 18.4871 10.8717 18.3908 10.8717C18.2848 10.8717 18.2127 10.9023 18.0756 10.968L18.0614 10.9749C17.9385 11.034 17.7464 11.1264 17.4939 11.1264C17.319 11.1264 17.1232 11.0769 16.9793 10.9244C16.8372 10.7738 16.8038 10.584 16.8155 10.4212C16.8506 9.93104 16.8923 9.24746 16.8923 8.75538C16.8923 8.22329 16.6901 7.3302 16.0938 6.57867C15.5112 5.84453 14.5374 5.22437 12.9319 5.22437C11.3263 5.22437 10.3476 5.84472 9.76053 6.57961Z"
          fill="white"/>
</svg>
