<svg width="25" height="24" viewBox="0 0 25 24" fill="none" xmlns="http://www.w3.org/2000/svg">
    <path d="M12.231 1.5C6.43955 1.5 1.73096 6.20859 1.73096 12C1.73096 17.7914 6.43955 22.5 12.231 22.5C18.0224 22.5 22.731 17.7914 22.731 12C22.731 6.20859 18.0224 1.5 12.231 1.5Z"
          fill="#F48024"/>
    <path d="M14.8863 13.7719L9.31212 12.9662L9.50533 11.7453L14.9562 12.7936L14.8863 13.7719Z" fill="white"/>
    <path d="M14.985 12.473L10.0521 10.1709L10.5042 9.18433L15.4372 11.4864L14.985 12.473Z" fill="white"/>
    <path d="M15.6427 11.2397L11.4497 7.74557L12.1485 6.92341L16.3415 10.4176L15.6427 11.2397Z" fill="white"/>
    <path d="M13.2585 5.85461L14.1217 5.1969L17.3692 9.5543L16.506 10.212L13.2585 5.85461Z" fill="white"/>
    <path d="M14.9028 15.3916H9.14769V14.1584H14.9028V15.3916Z" fill="white"/>
    <path d="M15.7249 12.925V16.2137H8.32551V12.925H7.09229V17.4469H16.9581V12.925H15.7249Z" fill="white"/>
</svg>
