<svg width="25" height="24" viewBox="0 0 25 24" fill="none" xmlns="http://www.w3.org/2000/svg">
    <path d="M12.6924 1.5C6.90098 1.5 2.19238 6.20859 2.19238 12C2.19238 17.7914 6.90098 22.5 12.6924 22.5C18.4838 22.5 23.1924 17.7914 23.1924 12C23.1924 6.20859 18.4838 1.5 12.6924 1.5Z"
          fill="url(#paint0_radial_10259_260895)"/>
    <path fill-rule="evenodd" clip-rule="evenodd"
          d="M10.5886 10.8449C10.5757 10.8495 10.5604 10.8453 10.5517 10.8347C10.1436 10.2975 10.0411 9.37396 10.0161 9.01922C10.011 8.95092 9.93374 8.91252 9.87188 8.94684C8.61167 9.65055 7.44238 11.3152 7.44238 12.9224C7.44238 15.6836 9.37148 17.9999 12.6924 17.9999C15.8038 17.9999 17.9424 15.6125 17.9424 12.9227C17.9424 9.40318 15.4124 7.06472 13.1589 6.00762C13.1062 5.9829 13.0363 6.0338 13.0441 6.09122C13.3343 7.98795 12.9334 10.0508 10.5886 10.8449Z"
          fill="white"/>
    <defs>
        <radialGradient id="paint0_radial_10259_260895" cx="0" cy="0" r="1" gradientUnits="userSpaceOnUse"
                        gradientTransform="translate(12.6924 22.5) scale(22.4349)">
            <stop stop-color="#FF7854"/>
            <stop offset="1" stop-color="#FD267D"/>
        </radialGradient>
    </defs>
</svg>
