<svg width="25" height="24" viewBox="0 0 25 24" fill="none" xmlns="http://www.w3.org/2000/svg">
    <path d="M12.8462 1.5C7.05478 1.5 2.34619 6.20859 2.34619 12C2.34619 17.7914 7.05478 22.5 12.8462 22.5C18.6376 22.5 23.3462 17.7914 23.3462 12C23.3462 6.20859 18.6376 1.5 12.8462 1.5Z"
          fill="#021B33"/>
    <path d="M11.7212 5.25C11.7212 7.37234 9.09619 9 8.34619 9V11.25H10.5962V15.75C10.5962 17.4069 11.9393 18.75 13.5962 18.75H16.5962V15.7181C16.3 15.7181 15.1337 15.7181 14.3456 15.7181C13.9314 15.7181 13.5962 15.3823 13.5962 14.9681V11.25H16.5962V8.25H13.5962V5.25H11.7212Z"
          fill="white"/>
</svg>
