<svg width="25" height="24" viewBox="0 0 25 24" fill="none" xmlns="http://www.w3.org/2000/svg">
    <path d="M9.22632 21C6.80007 21 4.5384 20.2943 2.63477 19.0767C4.25101 19.1813 7.10332 18.9308 8.87745 17.2386C6.20857 17.1161 5.00496 15.0692 4.84797 14.1945C5.07474 14.2819 6.15624 14.3869 6.76677 14.142C3.69669 13.3722 3.22571 10.678 3.33037 9.85573C3.90601 10.2581 4.88286 10.3981 5.26662 10.3631C2.40586 8.31618 3.43504 5.23707 3.9409 4.57226C5.99388 7.4165 9.07067 9.01393 12.8771 9.10278C12.8053 8.78802 12.7674 8.46032 12.7674 8.12373C12.7674 5.70819 14.7198 3.75 17.1283 3.75C18.3867 3.75 19.5206 4.28457 20.3165 5.13963C21.1574 4.94258 22.423 4.4813 23.0417 4.0824C22.7298 5.20208 21.759 6.13612 21.1717 6.48231C21.1669 6.47048 21.1766 6.49408 21.1717 6.48231C21.6876 6.40428 23.0834 6.13603 23.6348 5.76192C23.3621 6.39094 22.3328 7.4368 21.488 8.02232C21.6452 14.9535 16.3421 21 9.22632 21Z"
          fill="#47ACDF"/>
</svg>
