<svg width="25" height="24" viewBox="0 0 25 24" fill="none" xmlns="http://www.w3.org/2000/svg">
    <rect x="2.26904" y="1.5" width="21" height="21" rx="6" fill="#2789F6"/>
    <path d="M17.9615 13.7506C17.8 13.5313 17.7638 13.3094 17.8521 13.0846C18.0724 12.4847 21.2811 8.67459 19.9444 8.67459C19.0259 8.6868 17.9212 8.67459 17.0406 8.67459C16.8771 8.71439 16.7714 8.80018 16.7052 8.97473C16.1902 10.1621 15.5601 11.6111 14.6366 12.5424C14.5151 12.6403 14.4393 12.6361 14.3009 12.5999C13.6531 11.9179 14.3439 9.58131 13.9499 8.65804C13.8723 8.47731 13.7023 8.39569 13.5285 8.34972C12.649 8.14012 10.6403 8.26488 10.3126 8.6868C10.2189 8.80742 10.2058 8.87324 10.2734 8.88406C10.5857 8.93333 10.8068 9.05118 10.9369 9.2375C11.1823 9.77802 11.3632 12.6573 10.6403 12.6573C9.9174 12.6573 8.75169 9.8316 8.43145 9.04827C8.34623 8.81241 8.12928 8.67719 7.90069 8.63728L5.76201 8.65363C5.38609 8.65363 5.17599 8.83907 5.30923 9.21268C6.42315 11.9777 8.86078 17.3373 12.5995 17.2031C12.974 17.2031 13.6183 17.3469 13.9108 17.0222C14.3128 16.4889 13.8226 15.5391 14.5119 15.1769C14.6857 15.0844 14.8659 15.162 15.0152 15.2757C15.7819 15.8595 16.189 16.8842 17.1345 17.1952C17.3007 17.25 17.4464 17.2637 17.5715 17.2363L19.5696 17.2035C19.9405 17.2035 20.306 17.0384 20.2292 16.5949C19.9379 15.6439 18.7771 14.6662 17.9615 13.7506Z"
          fill="white"/>
</svg>
