<svg width="24" height="24" viewBox="0 0 24 24" fill="none" xmlns="http://www.w3.org/2000/svg">
    <path fill-rule="evenodd" clip-rule="evenodd"
          d="M8.33891 10.563C8.23015 10.4206 8.05492 10.3454 7.87685 10.3648C7.69878 10.3841 7.54377 10.4952 7.46812 10.6577L3.05567 19.486C2.97394 19.6496 2.98268 19.8439 3.07876 19.9995C3.17484 20.1551 3.34457 20.2498 3.52734 20.2498H9.67145C9.8725 20.2545 10.0574 20.1401 10.1431 19.958C11.4685 17.2174 10.6653 13.0503 8.33891 10.563Z"
          fill="url(#paint0_linear_10259_261260)"/>
    <path fill-rule="evenodd" clip-rule="evenodd"
          d="M11.5754 2.53322C9.33866 5.97727 9.08051 10.3458 10.896 14.0296L13.8582 19.9581C13.9475 20.1369 14.1301 20.2498 14.3298 20.2499H20.4728C20.6556 20.2498 20.8253 20.1551 20.9214 19.9995C21.0175 19.844 21.0262 19.6497 20.9445 19.4861C20.9445 19.4861 12.6801 2.94366 12.4724 2.5299C12.3886 2.35804 12.2139 2.2493 12.0229 2.25C11.8318 2.25071 11.6579 2.36074 11.5754 2.53322Z"
          fill="#2684FF"/>
    <defs>
        <linearGradient id="paint0_linear_10259_261260" x1="10.7571" y1="11.9255" x2="4.56809" y2="18.5691"
                        gradientUnits="userSpaceOnUse">
            <stop stop-color="#0052CC"/>
            <stop offset="0.923" stop-color="#2684FF"/>
        </linearGradient>
    </defs>
</svg>
