<svg width="24" height="24" viewBox="0 0 24 24" fill="none" xmlns="http://www.w3.org/2000/svg">
    <path fill-rule="evenodd" clip-rule="evenodd"
          d="M20.4323 13.4366H16.1025C15.8201 13.4333 15.5785 13.6404 15.5362 13.922C15.2902 15.6963 13.7845 17.0161 12.0078 17.0145L13.1802 22.4143C17.4276 21.8548 20.6967 18.3564 20.9986 14.0476C21.0096 13.8894 20.9549 13.7336 20.8474 13.6177C20.74 13.5018 20.5896 13.4362 20.4323 13.4366Z"
          fill="#2684FF"/>
    <path fill-rule="evenodd" clip-rule="evenodd"
          d="M12.9395 13.2995L19.1693 7.89971C19.2912 7.79129 19.3611 7.63529 19.3611 7.47138C19.3611 7.30747 19.2912 7.15146 19.1693 7.04305L12.9395 1.63469C12.7714 1.49161 12.5363 1.45963 12.3366 1.55266C12.1369 1.6457 12.0087 1.84691 12.0078 2.06873V12.8655C12.0087 13.0873 12.1369 13.2885 12.3366 13.3815C12.5363 13.4746 12.7714 13.4426 12.9395 13.2995Z"
          fill="#2684FF"/>
    <path fill-rule="evenodd" clip-rule="evenodd"
          d="M3.08545 14.6159C3.6813 19.1268 7.49543 22.4969 12.0083 22.5V17.0146C10.0473 17.0146 8.4563 15.414 8.45162 13.4366L3.08545 14.6159Z"
          fill="url(#paint0_linear_10259_261296)"/>
    <path fill-rule="evenodd" clip-rule="evenodd"
          d="M3 13.3509V13.4366H8.45112C8.45581 11.4591 10.0468 9.85859 12.0078 9.8586L10.8383 4.4588C6.39505 5.04264 3.05405 8.83282 3 13.3509Z"
          fill="url(#paint1_linear_10259_261296)"/>
    <defs>
        <linearGradient id="paint0_linear_10259_261296" x1="7.54829" y1="4.52735" x2="7.54829" y2="16.9003"
                        gradientUnits="userSpaceOnUse">
            <stop stop-color="#0052CC"/>
            <stop offset="1" stop-color="#2684FF"/>
        </linearGradient>
        <linearGradient id="paint1_linear_10259_261296" x1="7.50532" y1="4.52733" x2="7.50532" y2="16.9003"
                        gradientUnits="userSpaceOnUse">
            <stop stop-color="#0052CC"/>
            <stop offset="1" stop-color="#2684FF"/>
        </linearGradient>
    </defs>
</svg>
