<svg width="24" height="24" viewBox="0 0 24 24" fill="none" xmlns="http://www.w3.org/2000/svg">
    <path d="M12 1.5C6.20859 1.5 1.5 6.20859 1.5 12C1.5 17.7914 6.20859 22.5 12 22.5C17.7914 22.5 22.5 17.7914 22.5 12C22.5 6.20859 17.7914 1.5 12 1.5Z"
          fill="white"/>
    <path d="M12.0017 4.5C7.56026 4.5 4.08394 10.3508 3.75 15.2921C5.14253 17.7956 8.50531 18.75 12.0017 18.75C15.498 18.75 18.8575 17.8095 20.25 15.2921C19.9194 10.3508 16.4397 4.5 12.0017 4.5Z"
          fill="#B3DCFF"/>
    <path d="M17.1412 10.6447C16.1661 9.34111 14.9239 7.95795 14.2026 7.95795C13.4813 7.95795 11.4676 11.651 10.5292 11.651C9.59085 11.651 9.12333 9.97044 7.98794 9.97736C6.43845 9.97736 4.92236 14.6974 4.92236 14.6974C4.92236 14.6974 5.55017 17.5778 12.1154 17.5778C18.6807 17.5778 19.205 14.7458 19.205 14.7458C18.7284 13.2755 18.032 11.8916 17.1412 10.6447Z"
          fill="#5ECC62"/>
    <path d="M8.48193 14.3031C8.48193 14.1328 8.5307 13.9663 8.62207 13.8247C8.71344 13.6831 8.8433 13.5728 8.99524 13.5076C9.14718 13.4425 9.31437 13.4254 9.47567 13.4586C9.63696 13.4918 9.78512 13.5738 9.90141 13.6943C10.0177 13.8147 10.0969 13.9681 10.129 14.1351C10.1611 14.3021 10.1446 14.4753 10.0817 14.6326C10.0187 14.7899 9.91215 14.9244 9.77541 15.019C9.63867 15.1136 9.4779 15.1641 9.31345 15.1641C9.09291 15.1641 8.88142 15.0734 8.72548 14.9119C8.56954 14.7505 8.48193 14.5315 8.48193 14.3031ZM13.855 14.3031C13.855 14.4734 13.9038 14.6399 13.9952 14.7814C14.0865 14.923 14.2164 15.0334 14.3683 15.0986C14.5203 15.1637 14.6875 15.1808 14.8488 15.1476C15.0101 15.1143 15.1582 15.0323 15.2745 14.9119C15.3908 14.7915 15.47 14.6381 15.5021 14.4711C15.5342 14.3041 15.5177 14.1309 15.4548 13.9736C15.3918 13.8163 15.2853 13.6818 15.1485 13.5872C15.0118 13.4926 14.851 13.4421 14.6865 13.4421C14.5774 13.4421 14.4692 13.4643 14.3683 13.5076C14.2675 13.5509 14.1758 13.6143 14.0986 13.6943C14.0214 13.7742 13.9601 13.8691 13.9183 13.9736C13.8765 14.0781 13.855 14.19 13.855 14.3031ZM13.7048 15.5652C13.7295 15.5037 13.731 15.4349 13.7091 15.3722C13.6872 15.3096 13.6434 15.2578 13.5863 15.2269C13.5293 15.1961 13.4632 15.1885 13.4011 15.2057C13.3389 15.2229 13.2852 15.2636 13.2506 15.3197C13.1192 15.5313 12.9358 15.703 12.7193 15.8172C12.5028 15.9314 12.2609 15.9841 12.0184 15.9698C11.769 15.9758 11.522 15.9184 11.2991 15.8027C11.0761 15.6869 10.8839 15.5163 10.7394 15.3059C10.7014 15.2518 10.6451 15.2145 10.5817 15.2014C10.5184 15.1884 10.4526 15.2005 10.3975 15.2353C10.3423 15.2702 10.3019 15.3253 10.2842 15.3896C10.2665 15.4539 10.2728 15.5228 10.3019 15.5825C10.4925 15.8704 10.749 16.1048 11.0486 16.2647C11.3482 16.4246 11.6814 16.5051 12.0184 16.4989C12.3545 16.5144 12.6885 16.4359 12.9853 16.2716C13.282 16.1073 13.5306 15.8633 13.7048 15.5652Z"
          fill="black"/>
    <path d="M10.6459 13.2347C9.62736 13.2347 9.10307 12.1973 8.81922 11.5507C8.56543 10.9732 8.51867 10.0569 7.79736 10.0327C7.86196 10.0047 7.93105 9.98942 8.00107 9.98773C9.13646 9.98773 9.61734 11.6614 10.5424 11.6614C11.4674 11.6614 13.4844 7.95795 14.2023 7.95795C14.3621 7.96673 14.5176 8.0141 14.6565 8.09626C14.5852 8.08236 14.5118 8.08607 14.4421 8.1071C14.3725 8.12813 14.3087 8.16588 14.2558 8.21729C14.0254 8.4628 11.9082 13.2347 10.6459 13.2347Z"
          fill="#00AD45"/>
</svg>
