<svg width="24" height="24" viewBox="0 0 24 24" fill="none" xmlns="http://www.w3.org/2000/svg">
    <path fill-rule="evenodd" clip-rule="evenodd"
          d="M3.65274 16.7412C3.46657 17.0571 3.2575 17.4238 3.07993 17.7159C2.92099 17.9954 3.00631 18.3559 3.27182 18.5266L6.99508 20.9111C7.12577 20.9951 7.2834 21.0209 7.43257 20.9828C7.58174 20.9447 7.70995 20.8459 7.78842 20.7084C7.93735 20.4491 8.12924 20.1123 8.33832 19.7517C9.8133 17.2181 11.2969 17.5281 13.9719 18.8575L17.6637 20.6846C17.8035 20.7539 17.9643 20.7613 18.1094 20.7051C18.2546 20.6489 18.3717 20.534 18.4341 20.3865L20.2069 16.2136C20.3322 15.9156 20.2047 15.5681 19.9205 15.4327C19.1415 15.0512 17.5921 14.2911 16.1973 13.5906C11.1795 11.0541 6.91489 11.218 3.65274 16.7412Z"
          fill="url(#paint0_linear_10259_261264)"/>
    <path fill-rule="evenodd" clip-rule="evenodd"
          d="M20.3472 7.27163C20.5333 6.95568 20.7424 6.58906 20.92 6.29696C21.0789 6.01743 20.9936 5.65693 20.7281 5.48622L17.0048 3.1017C16.8731 3.00934 16.7104 2.97807 16.5556 3.01537C16.4009 3.05267 16.2679 3.15518 16.1886 3.29842C16.0397 3.55774 15.8478 3.89455 15.6387 4.25521C14.1637 6.78876 12.6801 6.47878 10.0051 5.1494L6.32481 3.33121C6.18499 3.26195 6.02418 3.25455 5.87904 3.3107C5.73389 3.36686 5.61678 3.48178 5.55438 3.62927L3.78154 7.80219C3.65628 8.10022 3.78373 8.44773 4.06794 8.58312C4.84696 8.96464 6.39641 9.72471 7.7912 10.4252C12.8205 12.9587 17.085 12.7888 20.3472 7.27163Z"
          fill="url(#paint1_linear_10259_261264)"/>
    <defs>
        <linearGradient id="paint0_linear_10259_261264" x1="20.1067" y1="22.1421" x2="15.6499" y2="12.3177"
                        gradientUnits="userSpaceOnUse">
            <stop offset="0.18" stop-color="#0052CC"/>
            <stop offset="1" stop-color="#2684FF"/>
        </linearGradient>
        <linearGradient id="paint1_linear_10259_261264" x1="3.89323" y1="1.8677" x2="8.35699" y2="11.6967"
                        gradientUnits="userSpaceOnUse">
            <stop offset="0.18" stop-color="#0052CC"/>
            <stop offset="1" stop-color="#2684FF"/>
        </linearGradient>
    </defs>
</svg>
