<svg width="24" height="24" viewBox="0 0 24 24" fill="none" xmlns="http://www.w3.org/2000/svg">
    <circle cx="12" cy="12" r="10.5" fill="#172132"/>
    <path d="M5.925 8.25C5.55221 8.25 5.25 8.55526 5.25 8.93182V15.0682C5.25 15.4447 5.55221 15.75 5.925 15.75H6.2625C6.63529 15.75 6.9375 15.4447 6.9375 15.0682V9.95455H9.975C10.3478 9.95455 10.65 9.64929 10.65 9.27273V8.93182C10.65 8.55526 10.3478 8.25 9.975 8.25H5.925Z"
          fill="white"/>
    <path d="M12.675 8.25H12.3375C11.9647 8.25 11.6625 8.55526 11.6625 8.93182V15.0682C11.6625 15.4447 11.9647 15.75 12.3375 15.75H12.675C13.0478 15.75 13.35 15.4447 13.35 15.0682V8.93182C13.35 8.55526 13.0478 8.25 12.675 8.25Z"
          fill="white"/>
    <path d="M18.075 8.25H17.7375C17.3647 8.25 17.0625 8.55526 17.0625 8.93182V15.0682C17.0625 15.4447 17.3647 15.75 17.7375 15.75H18.075C18.4478 15.75 18.75 15.4447 18.75 15.0682V8.93182C18.75 8.55526 18.4478 8.25 18.075 8.25Z"
          fill="white"/>
    <path d="M15.0375 9.61366H15.375C15.7478 9.61366 16.05 9.91892 16.05 10.2955V14.0455C16.05 14.422 15.7478 14.7273 15.375 14.7273H15.0375C14.6647 14.7273 14.3625 14.422 14.3625 14.0455V10.2955C14.3625 9.91892 14.6647 9.61366 15.0375 9.61366Z"
          fill="white"/>
    <path d="M8.9625 11.6591H8.2875C7.91471 11.6591 7.6125 11.9643 7.6125 12.3409V12.6818C7.6125 13.0584 7.91471 13.3636 8.2875 13.3636H8.9625C9.3353 13.3636 9.63751 13.0584 9.63751 12.6818V12.3409C9.63751 11.9643 9.3353 11.6591 8.9625 11.6591Z"
          fill="white"/>
</svg>
