<svg width="26" height="26" viewBox="0 0 26 26" fill="none" xmlns="http://www.w3.org/2000/svg">
    <g filter="url(#filter0_d_10259_261478)">
        <path d="M2.5 8.96667C2.5 6.35309 2.5 5.0463 3.00864 4.04804C3.45605 3.16995 4.16995 2.45605 5.04804 2.00864C6.0463 1.5 7.35309 1.5 9.96667 1.5H16.0333C18.6469 1.5 19.9537 1.5 20.952 2.00864C21.83 2.45605 22.544 3.16995 22.9914 4.04804C23.5 5.0463 23.5 6.35309 23.5 8.96667V15.0333C23.5 17.6469 23.5 18.9537 22.9914 19.952C22.544 20.83 21.83 21.544 20.952 21.9914C19.9537 22.5 18.6469 22.5 16.0333 22.5H9.96667C7.35309 22.5 6.0463 22.5 5.04804 21.9914C4.16995 21.544 3.45605 20.83 3.00864 19.952C2.5 18.9537 2.5 17.6469 2.5 15.0333V8.96667Z"
              fill="white"/>
        <path d="M19.3694 4.5H16.9309V8.03344H20.499V5.49634C20.5 5.49634 20.3227 4.59636 19.3694 4.5Z" fill="#1967D2"/>
        <path d="M16.9319 19.4835V19.4922V19.4999L20.5 15.9665H20.468L16.9319 19.4835Z" fill="#1967D2"/>
        <path d="M20.4997 15.9664V15.9347L20.468 15.9664H20.4997Z" fill="#FBBC05"/>
        <path d="M20.5 8.03351H16.9319V15.9348H20.5V8.03351Z" fill="#FBBC05"/>
        <path d="M20.468 15.9665H16.9319V19.4835L20.468 15.9665Z" fill="#EA4335"/>
        <path d="M16.9319 15.9664H20.468L20.5 15.9347H16.9319V15.9664Z" fill="#EA4335"/>
        <path d="M16.9231 19.4923H16.9317V19.4836L16.9231 19.4923Z" fill="#34A853"/>
        <path d="M8.98779 15.9347V19.4922H16.9233L16.932 15.9347H8.98779Z" fill="#34A853"/>
        <path d="M16.9317 15.9665V15.9347L16.9231 19.4922L16.9317 19.4835V15.9665Z" fill="#34A853"/>
        <path d="M5.5 15.9347V18.4082C5.53197 19.2109 6.40002 19.4922 6.40002 19.4922H8.9877V15.9347H5.5Z"
              fill="#188038"/>
        <path d="M8.9877 8.03356H16.9319V4.50012H6.50078C6.50078 4.50012 5.56394 4.59648 5.5 5.59185V15.9349H8.9877V8.03356Z"
              fill="#4285F4"/>
        <path d="M11.5866 14.3354C11.4049 14.3354 11.2296 14.3117 11.0609 14.2644C10.8964 14.2171 10.745 14.146 10.6065 14.0514C10.468 13.9524 10.3447 13.8297 10.2365 13.6834C10.1326 13.537 10.0526 13.367 9.99634 13.1733L10.7947 12.857C10.851 13.0722 10.9462 13.2358 11.0803 13.3477C11.2145 13.4553 11.3832 13.5091 11.5866 13.5091C11.6775 13.5091 11.7641 13.4961 11.8463 13.4703C11.9285 13.4402 11.9999 13.3993 12.0605 13.3477C12.1211 13.296 12.1687 13.2358 12.2033 13.1669C12.2422 13.0937 12.2617 13.0119 12.2617 12.9216C12.2617 12.7322 12.1903 12.5837 12.0475 12.4761C11.909 12.3685 11.7165 12.3147 11.4698 12.3147H11.0868V11.5464H11.4373C11.5239 11.5464 11.6083 11.5357 11.6905 11.5142C11.7727 11.4926 11.8441 11.4604 11.9047 11.4173C11.9696 11.37 12.0194 11.3119 12.054 11.243C12.0929 11.1698 12.1124 11.0859 12.1124 10.9912C12.1124 10.8449 12.0605 10.7265 11.9566 10.6362C11.8528 10.5415 11.7121 10.4941 11.5347 10.4941C11.3443 10.4941 11.1972 10.5458 11.0933 10.6491C10.9938 10.7481 10.9245 10.86 10.8856 10.9848L10.1067 10.6684C10.1456 10.5608 10.204 10.4511 10.2819 10.3392C10.3598 10.223 10.4572 10.1197 10.574 10.0293C10.6952 9.93461 10.8358 9.85929 10.996 9.80334C11.1561 9.74308 11.34 9.71295 11.5477 9.71295C11.7597 9.71295 11.9523 9.74308 12.1254 9.80334C12.3028 9.86359 12.4543 9.94752 12.5798 10.0551C12.7052 10.1584 12.8026 10.2832 12.8718 10.4296C12.9411 10.5716 12.9757 10.7265 12.9757 10.8944C12.9757 11.0235 12.9584 11.1397 12.9238 11.243C12.8935 11.3463 12.8524 11.4388 12.8004 11.5206C12.7485 11.6024 12.6879 11.6734 12.6187 11.7337C12.5538 11.7896 12.4867 11.8348 12.4175 11.8692V11.9209C12.6252 12.0027 12.7961 12.1339 12.9303 12.3147C13.0687 12.4955 13.138 12.7236 13.138 12.999C13.138 13.1927 13.1012 13.3713 13.0276 13.5349C12.9541 13.6941 12.848 13.834 12.7096 13.9545C12.5754 14.075 12.4131 14.1676 12.2227 14.2321C12.0323 14.301 11.8203 14.3354 11.5866 14.3354Z"
              fill="#4285F4"/>
        <path d="M14.6881 14.2321V10.8105L13.9026 11.1397L13.5911 10.4231L14.8958 9.81625H15.5384V14.2321H14.6881Z"
              fill="#4285F4"/>
    </g>
    <defs>
        <filter id="filter0_d_10259_261478" x="-1" y="-1" width="28" height="28" filterUnits="userSpaceOnUse"
                color-interpolation-filters="sRGB">
            <feFlood flood-opacity="0" result="BackgroundImageFix"/>
            <feColorMatrix in="SourceAlpha" type="matrix" values="0 0 0 0 0 0 0 0 0 0 0 0 0 0 0 0 0 0 127 0"
                           result="hardAlpha"/>
            <feOffset dy="1"/>
            <feGaussianBlur stdDeviation="1"/>
            <feColorMatrix type="matrix" values="0 0 0 0 0.0627451 0 0 0 0 0.0941176 0 0 0 0 0.156863 0 0 0 0.05 0"/>
            <feBlend mode="normal" in2="BackgroundImageFix" result="effect1_dropShadow_10259_261478"/>
            <feBlend mode="normal" in="SourceGraphic" in2="effect1_dropShadow_10259_261478" result="shape"/>
        </filter>
    </defs>
</svg>
