<svg width="24" height="24" viewBox="0 0 24 24" fill="none" xmlns="http://www.w3.org/2000/svg">
    <path d="M12.0062 22.2487L16.1462 9.5072H7.86621L12.0062 22.2487Z" fill="#E24329"/>
    <path d="M12.0066 22.2487L7.86656 9.5072H2.06445L12.0066 22.2487Z" fill="#FC6D26"/>
    <path d="M2.06425 9.5072L0.806175 13.3792C0.691425 13.7324 0.817103 14.1193 1.11753 14.3375L12.0063 22.2487L2.06425 9.5072Z"
          fill="#FCA326"/>
    <path d="M2.06445 9.50725H7.86656L5.37302 1.83314C5.24477 1.43821 4.68613 1.43832 4.55788 1.83314L2.06445 9.50725Z"
          fill="#E24329"/>
    <path d="M12.0073 22.2487L16.1473 9.5072H21.9494L12.0073 22.2487Z" fill="#FC6D26"/>
    <path d="M21.9494 9.5072L23.2075 13.3792C23.3223 13.7324 23.1966 14.1193 22.8961 14.3375L12.0073 22.2487L21.9494 9.5072Z"
          fill="#FCA326"/>
    <path d="M21.9486 9.50725H16.1465L18.64 1.83314C18.7683 1.43821 19.3269 1.43832 19.4552 1.83314L21.9486 9.50725Z"
          fill="#E24329"/>
</svg>
