<svg width="26" height="26" viewBox="0 0 26 26" fill="none" xmlns="http://www.w3.org/2000/svg">
    <g filter="url(#filter0_d_10259_261457)">
        <path d="M2.5 8.96667C2.5 6.35309 2.5 5.0463 3.00864 4.04804C3.45605 3.16995 4.16995 2.45605 5.04804 2.00864C6.0463 1.5 7.35309 1.5 9.96667 1.5H16.0333C18.6469 1.5 19.9537 1.5 20.952 2.00864C21.83 2.45605 22.544 3.16995 22.9914 4.04804C23.5 5.0463 23.5 6.35309 23.5 8.96667V15.0333C23.5 17.6469 23.5 18.9537 22.9914 19.952C22.544 20.83 21.83 21.544 20.952 21.9914C19.9537 22.5 18.6469 22.5 16.0333 22.5H9.96667C7.35309 22.5 6.0463 22.5 5.04804 21.9914C4.16995 21.544 3.45605 20.83 3.00864 19.952C2.5 18.9537 2.5 17.6469 2.5 15.0333V8.96667Z"
              fill="white"/>
        <path d="M13.0014 9.3382L10.4058 4.75741C10.4919 4.66966 10.5911 4.61211 10.6903 4.57343C9.92481 4.82535 9.5736 5.68489 9.5736 5.68489L4.83171 14.0511C4.76499 14.3134 4.74646 14.5502 4.7548 14.7587H9.93037L13.0014 9.3382Z"
              fill="#34A853"/>
        <path d="M13.0015 9.3382L16.0725 14.7587H21.2481C21.2564 14.5502 21.2379 14.3134 21.1712 14.0511L16.4293 5.68489C16.4293 5.68489 16.0772 4.82535 15.3126 4.57343C15.4109 4.61211 15.5109 4.66966 15.5971 4.75741L13.0015 9.3382Z"
              fill="#FBBC05"/>
        <path d="M13.0014 9.33838L15.5971 4.7576C15.5109 4.66985 15.4108 4.61229 15.3126 4.57361C15.1995 4.53681 15.0781 4.51228 14.9466 4.50568H14.8094H11.1934H11.0563C10.9256 4.51134 10.8033 4.53587 10.6903 4.57361C10.592 4.61229 10.4919 4.66985 10.4058 4.7576L13.0014 9.33838Z"
              fill="#188038"/>
        <path d="M9.93141 14.7587L7.3654 19.2876C7.3654 19.2876 7.28014 19.2461 7.16431 19.1602C7.5285 19.4405 7.88249 19.4999 7.88249 19.4999H17.9603C18.5163 19.4999 18.6321 19.2876 18.6321 19.2876C18.634 19.2867 18.6349 19.2857 18.6368 19.2848L16.0726 14.7587H9.93141Z"
              fill="#4285F4"/>
        <path d="M9.93143 14.7587H4.75586C4.78181 15.3739 5.04869 15.7334 5.04869 15.7334L5.2433 16.0712C5.2572 16.091 5.26554 16.1023 5.26554 16.1023L5.68904 16.8458L6.63982 18.5007C6.66762 18.5677 6.70006 18.629 6.73435 18.6875C6.74732 18.7074 6.75937 18.7291 6.77327 18.7479C6.77697 18.7536 6.78068 18.7593 6.78439 18.7649C6.90208 18.931 7.03367 19.0593 7.16526 19.1602C7.2811 19.2471 7.36635 19.2876 7.36635 19.2876L9.93143 14.7587Z"
              fill="#1967D2"/>
        <path d="M16.0725 14.7587H21.2481C21.2221 15.3739 20.9552 15.7334 20.9552 15.7334L20.7606 16.0712C20.7467 16.091 20.7384 16.1023 20.7384 16.1023L20.3149 16.8458L19.3641 18.5007C19.3363 18.5677 19.3039 18.629 19.2696 18.6875C19.2566 18.7074 19.2446 18.7291 19.2307 18.7479C19.227 18.7536 19.2233 18.7593 19.2196 18.7649C19.1019 18.931 18.9703 19.0593 18.8387 19.1602C18.7228 19.2471 18.6376 19.2876 18.6376 19.2876L16.0725 14.7587Z"
              fill="#EA4335"/>
    </g>
    <defs>
        <filter id="filter0_d_10259_261457" x="-1" y="-1" width="28" height="28" filterUnits="userSpaceOnUse"
                color-interpolation-filters="sRGB">
            <feFlood flood-opacity="0" result="BackgroundImageFix"/>
            <feColorMatrix in="SourceAlpha" type="matrix" values="0 0 0 0 0 0 0 0 0 0 0 0 0 0 0 0 0 0 127 0"
                           result="hardAlpha"/>
            <feOffset dy="1"/>
            <feGaussianBlur stdDeviation="1"/>
            <feColorMatrix type="matrix" values="0 0 0 0 0.0627451 0 0 0 0 0.0941176 0 0 0 0 0.156863 0 0 0 0.05 0"/>
            <feBlend mode="normal" in2="BackgroundImageFix" result="effect1_dropShadow_10259_261457"/>
            <feBlend mode="normal" in="SourceGraphic" in2="effect1_dropShadow_10259_261457" result="shape"/>
        </filter>
    </defs>
</svg>
