<svg width="26" height="26" viewBox="0 0 26 26" fill="none" xmlns="http://www.w3.org/2000/svg">
    <g filter="url(#filter0_d_10259_261494)">
        <path d="M2.5 8.96667C2.5 6.35309 2.5 5.0463 3.00864 4.04804C3.45605 3.16995 4.16995 2.45605 5.04804 2.00864C6.0463 1.5 7.35309 1.5 9.96667 1.5H16.0333C18.6469 1.5 19.9537 1.5 20.952 2.00864C21.83 2.45605 22.544 3.16995 22.9914 4.04804C23.5 5.0463 23.5 6.35309 23.5 8.96667V15.0333C23.5 17.6469 23.5 18.9537 22.9914 19.952C22.544 20.83 21.83 21.544 20.952 21.9914C19.9537 22.5 18.6469 22.5 16.0333 22.5H9.96667C7.35309 22.5 6.0463 22.5 5.04804 21.9914C4.16995 21.544 3.45605 20.83 3.00864 19.952C2.5 18.9537 2.5 17.6469 2.5 15.0333V8.96667Z"
              fill="white"/>
        <path d="M7 16.1465V19.1418C7 19.7525 7.50019 20.2474 8.11624 20.2474H11.0916V16.1465H7Z" fill="#188038"/>
        <path d="M14.9111 20.2483H17.8838C18.4998 20.2483 19 19.7534 19 19.1428V16.1465H14.9111V20.2483Z"
              fill="#1967D2"/>
        <path d="M14.9101 16.1465H11.0916V20.2483H14.9101V16.1465Z" fill="#34A853"/>
        <path d="M8.11624 3.75C7.50019 3.75 7 4.24494 7 4.85558V16.1465H11.0916V7.88216H14.9102V3.75H8.11624Z"
              fill="#FBBC05"/>
        <path d="M19 7.88214H14.9111V16.1465H19V7.88214Z" fill="#4285F4"/>
        <path d="M14.9111 7.88216H18.9991L14.9111 3.75V7.88216Z" fill="#EA4335"/>
    </g>
    <defs>
        <filter id="filter0_d_10259_261494" x="-1" y="-1" width="28" height="28" filterUnits="userSpaceOnUse"
                color-interpolation-filters="sRGB">
            <feFlood flood-opacity="0" result="BackgroundImageFix"/>
            <feColorMatrix in="SourceAlpha" type="matrix" values="0 0 0 0 0 0 0 0 0 0 0 0 0 0 0 0 0 0 127 0"
                           result="hardAlpha"/>
            <feOffset dy="1"/>
            <feGaussianBlur stdDeviation="1"/>
            <feColorMatrix type="matrix" values="0 0 0 0 0.0627451 0 0 0 0 0.0941176 0 0 0 0 0.156863 0 0 0 0.05 0"/>
            <feBlend mode="normal" in2="BackgroundImageFix" result="effect1_dropShadow_10259_261494"/>
            <feBlend mode="normal" in="SourceGraphic" in2="effect1_dropShadow_10259_261494" result="shape"/>
        </filter>
    </defs>
</svg>
