<svg width="26" height="26" viewBox="0 0 26 26" fill="none" xmlns="http://www.w3.org/2000/svg">
    <g filter="url(#filter0_d_10259_261505)">
        <path d="M2.5 8.96667C2.5 6.35309 2.5 5.0463 3.00864 4.04804C3.45605 3.16995 4.16995 2.45605 5.04804 2.00864C6.0463 1.5 7.35309 1.5 9.96667 1.5H16.0333C18.6469 1.5 19.9537 1.5 20.952 2.00864C21.83 2.45605 22.544 3.16995 22.9914 4.04804C23.5 5.0463 23.5 6.35309 23.5 8.96667V15.0333C23.5 17.6469 23.5 18.9537 22.9914 19.952C22.544 20.83 21.83 21.544 20.952 21.9914C19.9537 22.5 18.6469 22.5 16.0333 22.5H9.96667C7.35309 22.5 6.0463 22.5 5.04804 21.9914C4.16995 21.544 3.45605 20.83 3.00864 19.952C2.5 18.9537 2.5 17.6469 2.5 15.0333V8.96667Z"
              fill="white"/>
        <path d="M4.75 17.67C4.75 18.2667 5.23748 18.75 5.83811 18.75H5.85375C5.24393 18.75 4.75 18.2667 4.75 17.67Z"
              fill="#FBBC05"/>
        <path d="M14.1006 9.29998V12.1197L17.9021 9.05338V6.32999C17.9021 5.7333 17.4146 5.25 16.814 5.25H8.57816L8.5708 9.29998H14.1006Z"
              fill="#FBBC05"/>
        <path d="M14.1006 14.9405H8.56161L8.55518 18.7502H16.814C17.4155 18.7502 17.9021 18.2669 17.9021 17.6702V15.2114L14.1006 12.1208V14.9405Z"
              fill="#34A853"/>
        <path d="M8.57816 5.25L4.75 9.29998H8.57172L8.57816 5.25Z" fill="#EA4335"/>
        <path d="M4.75 14.9403V17.67C4.75 18.2667 5.24393 18.75 5.85375 18.75H8.55517L8.56161 14.9403H4.75Z"
              fill="#1967D2"/>
        <path d="M8.57172 9.29999H4.75V14.9403H8.56161L8.57172 9.29999Z" fill="#4285F4"/>
        <path d="M21.2447 16.7099V7.43996C21.0304 6.20966 19.681 7.61996 19.681 7.61996L17.9031 9.05365V15.2105L20.4481 17.2796C21.367 17.4002 21.2447 16.7099 21.2447 16.7099Z"
              fill="#34A853"/>
        <path d="M14.1006 12.1197L17.903 15.2112V9.05432L14.1006 12.1197Z" fill="#188038"/>
    </g>
    <defs>
        <filter id="filter0_d_10259_261505" x="-1" y="-1" width="28" height="28" filterUnits="userSpaceOnUse"
                color-interpolation-filters="sRGB">
            <feFlood flood-opacity="0" result="BackgroundImageFix"/>
            <feColorMatrix in="SourceAlpha" type="matrix" values="0 0 0 0 0 0 0 0 0 0 0 0 0 0 0 0 0 0 127 0"
                           result="hardAlpha"/>
            <feOffset dy="1"/>
            <feGaussianBlur stdDeviation="1"/>
            <feColorMatrix type="matrix" values="0 0 0 0 0.0627451 0 0 0 0 0.0941176 0 0 0 0 0.156863 0 0 0 0.05 0"/>
            <feBlend mode="normal" in2="BackgroundImageFix" result="effect1_dropShadow_10259_261505"/>
            <feBlend mode="normal" in="SourceGraphic" in2="effect1_dropShadow_10259_261505" result="shape"/>
        </filter>
    </defs>
</svg>
