<svg width="25" height="26" viewBox="0 0 25 26" fill="none" xmlns="http://www.w3.org/2000/svg">
    <g filter="url(#filter0_d_10259_261516)">
        <path d="M2 9.46667C2 6.85309 2 5.5463 2.50864 4.54804C2.95605 3.66995 3.66995 2.95605 4.54804 2.50864C5.5463 2 6.85309 2 9.46667 2H15.5333C18.1469 2 19.4537 2 20.452 2.50864C21.33 2.95605 22.044 3.66995 22.4914 4.54804C23 5.5463 23 6.85309 23 9.46667V15.5333C23 18.1469 23 19.4537 22.4914 20.452C22.044 21.33 21.33 22.044 20.452 22.4914C19.4537 23 18.1469 23 15.5333 23H9.46667C6.85309 23 5.5463 23 4.54804 22.4914C3.66995 22.044 2.95605 21.33 2.50864 20.452C2 19.4537 2 18.1469 2 15.5333V9.46667Z"
              fill="white"/>
        <path fill-rule="evenodd" clip-rule="evenodd"
              d="M20 9.74638L19.9999 9.78308C19.9998 9.79854 19.9996 9.81401 19.9994 9.82947C19.9998 9.84752 20 9.86571 20 9.88406C20 12.7654 17.5632 15.3158 15.9325 17.0226C15.4594 17.5178 15.0541 17.942 14.7959 18.2826C13.8776 19.4942 13.3929 20.8068 13.2653 21.3116C13.2653 21.6918 12.9227 22 12.5 22C12.0773 22 11.7347 21.6918 11.7347 21.3116C11.6071 20.8068 11.1224 19.4942 10.2041 18.2826C9.9459 17.942 9.54062 17.5178 9.06746 17.0226C7.43682 15.3158 5 12.7654 5 9.88406C5 9.86571 5.00019 9.84752 5.00056 9.82947C5.00019 9.80181 5 9.77411 5 9.74638C5 6.02045 8.35786 3 12.5 3C16.6421 3 20 6.02045 20 9.74638ZM12.5 12.2246C14.1061 12.2246 15.4082 11.0534 15.4082 9.6087C15.4082 8.16395 14.1061 6.99275 12.5 6.99275C10.8939 6.99275 9.59184 8.16395 9.59184 9.6087C9.59184 11.0534 10.8939 12.2246 12.5 12.2246Z"
              fill="#34A851"/>
        <path d="M19.1612 6.64335C18.2428 5.05158 16.64 3.83067 14.7034 3.29608L10.396 7.80312C10.9256 7.304 11.6724 6.99304 12.5 6.99304C14.1062 6.99304 15.4082 8.16423 15.4082 9.60898C15.4082 10.1984 15.1915 10.7422 14.8259 11.1796L19.1612 6.64335Z"
              fill="#4285F5"/>
        <path d="M9.15333 17.1137C9.12461 17.0836 9.09561 17.0533 9.06635 17.0227C7.99149 15.8977 6.56635 14.4061 5.71973 12.6947L10.1966 8.01038C9.81675 8.45243 9.59073 9.00685 9.59073 9.6088C9.59073 11.0535 10.8928 12.2247 12.4989 12.2247C13.3125 12.2247 14.0481 11.9242 14.5759 11.4398L9.15333 17.1137Z"
              fill="#F9BB0E"/>
        <path d="M6.77457 5.38849C5.66757 6.56409 5 8.08514 5 9.74645C5 9.77418 5.00019 9.80188 5.00056 9.82955C5.00019 9.8476 5 9.86578 5 9.88413C5 10.8662 5.28308 11.8098 5.72084 12.6947L10.1902 8.01825L6.77457 5.38849Z"
              fill="#E74335"/>
        <path d="M14.7036 3.29583C14.007 3.10353 13.2671 3 12.5003 3C10.2051 3 8.15064 3.92743 6.7749 5.38841L10.1905 8.01814L10.1979 8.01037C10.2601 7.93807 10.3263 7.86876 10.3963 7.80274L14.7036 3.29583Z"
              fill="#1A73E6"/>
    </g>
    <defs>
        <filter id="filter0_d_10259_261516" x="-2" y="-1" width="28" height="28" filterUnits="userSpaceOnUse"
                color-interpolation-filters="sRGB">
            <feFlood flood-opacity="0" result="BackgroundImageFix"/>
            <feColorMatrix in="SourceAlpha" type="matrix" values="0 0 0 0 0 0 0 0 0 0 0 0 0 0 0 0 0 0 127 0"
                           result="hardAlpha"/>
            <feOffset dy="1"/>
            <feGaussianBlur stdDeviation="1"/>
            <feColorMatrix type="matrix" values="0 0 0 0 0.0627451 0 0 0 0 0.0941176 0 0 0 0 0.156863 0 0 0 0.05 0"/>
            <feBlend mode="normal" in2="BackgroundImageFix" result="effect1_dropShadow_10259_261516"/>
            <feBlend mode="normal" in="SourceGraphic" in2="effect1_dropShadow_10259_261516" result="shape"/>
        </filter>
    </defs>
</svg>
