<svg width="24" height="24" viewBox="0 0 24 24" fill="none" xmlns="http://www.w3.org/2000/svg">
    <circle cx="12" cy="12" r="10.5" fill="#3290E8"/>
    <path fill-rule="evenodd" clip-rule="evenodd"
          d="M16.5 6H7.5C6.68229 5.99873 6.00144 6.68379 6 7.5V16.5C6 17.3283 6.67176 18 7.5 18H16.5C17.3177 18.0013 17.9986 17.3162 18 16.5V7.5C18 6.67167 17.3286 6 16.5 6ZM13.5997 8.2C13.5997 7.97933 13.7791 7.8 14 7.8C14.2209 7.8 14.4 7.97933 14.4 8.2V13.5443C14.4 13.765 14.2206 13.9443 14 13.9443C13.7882 13.9445 13.6005 13.7568 13.6 13.5443L13.5997 8.2ZM11.5997 7.99767C11.5997 7.77667 11.7791 7.59767 12 7.59767C12.2209 7.59767 12.4003 7.77667 12.4003 7.99767V13.7977C12.4003 14.0187 12.2209 14.1977 12 14.1977C11.7882 14.1978 11.6005 14.0101 11.6 13.7977L11.5997 7.99767ZM9.6 8.2C9.6 7.97933 9.7794 7.8 10 7.8C10.2209 7.8 10.4 7.97933 10.4 8.2V13.5443C10.4 13.765 10.2209 13.9443 10 13.9443C9.78823 13.9445 9.60053 13.7568 9.6 13.5443V8.2ZM7.6 9C7.6 8.779 7.77907 8.6 8 8.6C8.22093 8.6 8.4 8.779 8.4 9V12.5977C8.4 12.8187 8.2206 12.9977 8 12.9977C7.78193 12.998 7.60036 12.8153 7.6 12.5977V9ZM16.2605 15.1013C16.199 15.1547 14.7169 16.3977 12 16.3977C9.28306 16.3977 7.80199 15.1543 7.73953 15.101C7.57427 14.9594 7.55471 14.7025 7.69635 14.5373C7.83442 14.3766 8.09791 14.356 8.25914 14.4933C8.28239 14.513 9.60565 15.5977 11.9997 15.5977C14.4236 15.5977 15.7266 14.505 15.7392 14.4943C15.9002 14.356 16.1647 14.3762 16.303 14.5373C16.4456 14.7022 16.4263 14.9598 16.2605 15.1013ZM16.4 12.598C16.4 12.8187 16.2206 12.998 16 12.998C15.7819 12.9984 15.6004 12.8157 15.6 12.598V9C15.6 8.779 15.7791 8.6 15.9997 8.6C16.2206 8.6 16.4 8.779 16.4 9V12.598Z"
          fill="white"/>
</svg>
