<svg width="24" height="24" viewBox="0 0 24 24" fill="none" xmlns="http://www.w3.org/2000/svg">
    <path fill-rule="evenodd" clip-rule="evenodd"
          d="M13.6087 9.79358L19.3588 9.81575C19.6976 9.81732 20.0064 10.0086 20.1569 10.3101C20.3075 10.6116 20.2739 10.9716 20.0703 11.2405L11.5831 22.5C10.3017 21.5492 9.45305 20.1316 9.22387 18.559C8.99469 16.9864 9.40378 15.3878 10.3611 14.115L13.6087 9.79358Z"
          fill="url(#paint0_linear_10259_261275)"/>
    <path fill-rule="evenodd" clip-rule="evenodd"
          d="M10.3581 14.115L4.64141 14.0789C4.30269 14.0774 3.99385 13.8861 3.84331 13.5846C3.69277 13.2831 3.72631 12.9231 3.92997 12.6542L12.3334 1.5C13.6148 2.45079 14.4635 3.86845 14.6927 5.44102C14.9219 7.01358 14.5128 8.61219 13.5554 9.88503L10.3581 14.115Z"
          fill="#2684FF"/>
    <defs>
        <linearGradient id="paint0_linear_10259_261275" x1="13.3799" y1="10.6369" x2="16.4345" y2="17.6194"
                        gradientUnits="userSpaceOnUse">
            <stop stop-color="#0052CC"/>
            <stop offset="1" stop-color="#2684FF"/>
        </linearGradient>
    </defs>
</svg>
