<svg width="24" height="24" viewBox="0 0 24 24" fill="none" xmlns="http://www.w3.org/2000/svg">
    <path d="M1.5 7.5375C1.5 5.40191 1.5 4.33411 1.9222 3.52135C2.27798 2.83643 2.83643 2.27798 3.52135 1.9222C4.33411 1.5 5.40191 1.5 7.5375 1.5H16.4625C18.5981 1.5 19.6659 1.5 20.4787 1.9222C21.1636 2.27798 21.722 2.83643 22.0778 3.52135C22.5 4.33411 22.5 5.40191 22.5 7.5375V16.4625C22.5 18.5981 22.5 19.6659 22.0778 20.4787C21.722 21.1636 21.1636 21.722 20.4787 22.0778C19.6659 22.5 18.5981 22.5 16.4625 22.5H7.5375C5.40191 22.5 4.33411 22.5 3.52135 22.0778C2.83643 21.722 2.27798 21.1636 1.9222 20.4787C1.5 19.6659 1.5 18.5981 1.5 16.4625V7.5375Z"
          fill="url(#paint0_linear_10259_261526)"/>
    <path d="M10.9657 18.1452L5.85498 13.0345C6.29153 15.6468 8.35337 17.7087 10.9657 18.1452Z" fill="#F2F3F8"/>
    <path d="M5.77881 11.6531L12.347 18.2212C12.7366 18.1998 13.1167 18.1427 13.4841 18.0529L5.94714 10.516C5.85737 10.8834 5.80023 11.2635 5.77881 11.6531Z"
          fill="#F2F3F8"/>
    <path d="M6.27539 9.5381L14.4628 17.7255C14.7606 17.5973 15.0464 17.4465 15.3181 17.2753L6.72558 8.68286C6.55439 8.9545 6.40364 9.2403 6.27539 9.5381Z"
          fill="#F2F3F8"/>
    <path d="M7.27881 7.93249C8.42139 6.60771 10.1122 5.76917 11.9989 5.76917C15.4401 5.76917 18.2297 8.55879 18.2297 11.9999C18.2297 13.8867 17.3911 15.5775 16.0664 16.7201L7.27881 7.93249Z"
          fill="#F2F3F8"/>
    <defs>
        <linearGradient id="paint0_linear_10259_261526" x1="1.5" y1="22.5" x2="22.5" y2="1.5"
                        gradientUnits="userSpaceOnUse">
            <stop stop-color="#29359B"/>
            <stop offset="1" stop-color="#6068CA"/>
        </linearGradient>
    </defs>
</svg>
