<svg width="24" height="24" viewBox="0 0 24 24" fill="none" xmlns="http://www.w3.org/2000/svg">
    <path d="M6 17.25H24V20.5C24 21.6046 23.1046 22.5 22 22.5H8C6.89543 22.5 6 21.6046 6 20.5V17.25Z" fill="#5D29A1"/>
    <rect x="6" y="12" width="18" height="5.25" fill="#7F32CC"/>
    <rect x="6" y="6.75" width="18" height="5.25" fill="#9A40D6"/>
    <path d="M7.5 1.5C6.67157 1.5 6 2.17157 6 3V21C6 21.8284 6.67157 22.5 7.5 22.5H18V6.75H24V3C24 2.17157 23.3284 1.5 22.5 1.5H7.5Z"
          fill="url(#paint0_linear_10259_261343)"/>
    <path d="M6 9.75C6 8.09315 7.34315 6.75 9 6.75H12C13.6569 6.75 15 8.09315 15 9.75V17.25C15 18.9069 13.6569 20.25 12 20.25H6V9.75Z"
          fill="black" fill-opacity="0.3"/>
    <rect y="5.25" width="13.5" height="13.5" rx="2" fill="url(#paint1_linear_10259_261343)"/>
    <path d="M9.75 15.75V8.25H8.16697V12.6214L5.22232 8.25H3.75V15.75H5.31089V11.2179L8.36624 15.75H9.75Z"
          fill="white"/>
    <defs>
        <linearGradient id="paint0_linear_10259_261343" x1="6" y1="12" x2="18.375" y2="12"
                        gradientUnits="userSpaceOnUse">
            <stop stop-color="#8C42AC"/>
            <stop offset="1" stop-color="#C36DEF"/>
        </linearGradient>
        <linearGradient id="paint1_linear_10259_261343" x1="0" y1="12" x2="14.25" y2="12"
                        gradientUnits="userSpaceOnUse">
            <stop stop-color="#44176C"/>
            <stop offset="1" stop-color="#621F9C"/>
        </linearGradient>
    </defs>
</svg>
