<svg width="24" height="24" viewBox="0 0 24 24" fill="none" xmlns="http://www.w3.org/2000/svg">
    <circle cx="12.75" cy="12" r="10.5" fill="url(#paint0_linear_10259_261367)"/>
    <mask id="mask0_10259_261367" style="mask-type:alpha" maskUnits="userSpaceOnUse" x="2" y="1" width="22" height="22">
        <circle cx="12.75" cy="12" r="10.5" fill="#C4C4C4"/>
    </mask>
    <g mask="url(#mask0_10259_261367)">
        <rect x="13.5" width="12.75" height="12.75" fill="url(#paint1_linear_10259_261367)"/>
        <path d="M4.5 9.75C4.5 8.09315 5.84315 6.75 7.5 6.75H12C13.6569 6.75 15 8.09315 15 9.75V17.25C15 18.9069 13.6569 20.25 12 20.25H4.5V9.75Z"
              fill="black" fill-opacity="0.3"/>
        <rect x="0.75" width="12.75" height="12.75" fill="#EB6C4D"/>
    </g>
    <rect y="5.25" width="13.5" height="13.5" rx="2" fill="url(#paint2_linear_10259_261367)"/>
    <path d="M9.75 10.8429C9.75 9.225 8.68494 8.25 6.9959 8.25H4.5V15.75H6.04918V13.4679H6.93135C8.51281 13.4679 9.75 12.5679 9.75 10.8429ZM8.1793 10.875C8.1793 11.6036 7.7167 12.075 6.96363 12.075H6.04918V9.65357H6.95287C7.70594 9.65357 8.1793 10.05 8.1793 10.875Z"
          fill="white"/>
    <defs>
        <linearGradient id="paint0_linear_10259_261367" x1="2.25" y1="13.4483" x2="23.25" y2="13.4483"
                        gradientUnits="userSpaceOnUse">
            <stop stop-color="#A73A24"/>
            <stop offset="1" stop-color="#F75936"/>
        </linearGradient>
        <linearGradient id="paint1_linear_10259_261367" x1="23.625" y1="7.5" x2="13.5" y2="7.5"
                        gradientUnits="userSpaceOnUse">
            <stop stop-color="#FDB8A3"/>
            <stop offset="1" stop-color="#F1876D"/>
        </linearGradient>
        <linearGradient id="paint2_linear_10259_261367" x1="5.53744e-08" y1="12.931" x2="13.5" y2="12.931"
                        gradientUnits="userSpaceOnUse">
            <stop stop-color="#A73A24"/>
            <stop offset="1" stop-color="#F75936"/>
        </linearGradient>
    </defs>
</svg>
