<svg width="24" height="24" viewBox="0 0 24 24" fill="none" xmlns="http://www.w3.org/2000/svg">
    <circle cx="11.625" cy="8.625" r="7.125" fill="url(#paint0_linear_10259_261377)"/>
    <circle cx="18" cy="12.75" r="6" fill="url(#paint1_linear_10259_261377)"/>
    <mask id="mask0_10259_261377" style="mask-type:alpha" maskUnits="userSpaceOnUse" x="7" y="4" width="11" height="19">
        <path d="M17.25 17.625C17.25 20.3174 15.0674 22.5 12.375 22.5C9.68261 22.5 7.5 20.3174 7.5 17.625C7.5 14.9326 7.5 4.5 7.5 4.5H17.25C17.25 4.5 17.25 15.8991 17.25 17.625Z"
              fill="#C4C4C4"/>
    </mask>
    <g mask="url(#mask0_10259_261377)">
        <circle cx="12.375" cy="17.625" r="4.875" fill="url(#paint2_linear_10259_261377)"/>
        <path d="M5.25 9.75C5.25 8.09315 6.59315 6.75 8.25 6.75H12C13.6569 6.75 15 8.09315 15 9.75V17.25C15 18.9069 13.6569 20.25 12 20.25H5.25V9.75Z"
              fill="black" fill-opacity="0.3"/>
    </g>
    <rect y="5.25" width="13.5" height="13.5" rx="2" fill="url(#paint3_linear_10259_261377)"/>
    <path d="M9.75 13.5922C9.75 12.4295 8.97013 11.9162 7.34748 11.3191C6.07704 10.8478 5.77516 10.7116 5.77516 10.2612C5.77516 9.8736 6.15252 9.61173 6.79402 9.61173C7.44811 9.61173 8.06447 9.8317 8.75629 10.2088L9.46069 8.96229C8.71855 8.5014 7.83805 8.25 6.76887 8.25C5.13365 8.25 3.96384 9.08799 3.96384 10.3659C3.96384 11.6753 4.89465 12.0943 6.4544 12.6494C7.69969 13.0894 7.93868 13.3094 7.93868 13.6969C7.93868 14.1578 7.49843 14.3883 6.8066 14.3883C5.98899 14.3883 5.27201 14.1054 4.55503 13.6446L3.75 14.8387C4.6305 15.4462 5.72484 15.75 6.84434 15.75C8.52987 15.75 9.75 14.9539 9.75 13.5922Z"
          fill="white"/>
    <defs>
        <linearGradient id="paint0_linear_10259_261377" x1="4.5" y1="8.625" x2="19.9375" y2="8.625"
                        gradientUnits="userSpaceOnUse">
            <stop stop-color="#103A3B"/>
            <stop offset="1" stop-color="#116B6E"/>
        </linearGradient>
        <linearGradient id="paint1_linear_10259_261377" x1="13.5" y1="9.75" x2="24" y2="15.75"
                        gradientUnits="userSpaceOnUse">
            <stop stop-color="#1D9097"/>
            <stop offset="1" stop-color="#29BBC2"/>
        </linearGradient>
        <linearGradient id="paint2_linear_10259_261377" x1="9" y1="16.125" x2="17.25" y2="19.875"
                        gradientUnits="userSpaceOnUse">
            <stop stop-color="#28A6B5"/>
            <stop offset="1" stop-color="#31D6EC"/>
        </linearGradient>
        <linearGradient id="paint3_linear_10259_261377" x1="0" y1="12" x2="14.625" y2="12"
                        gradientUnits="userSpaceOnUse">
            <stop stop-color="#105557"/>
            <stop offset="1" stop-color="#116B6E"/>
        </linearGradient>
    </defs>
</svg>
