<svg width="24" height="24" viewBox="0 0 24 24" fill="none" xmlns="http://www.w3.org/2000/svg">
    <g clip-path="url(#clip0_10259_261437)">
        <path fill-rule="evenodd" clip-rule="evenodd"
              d="M4.287 21.9133L1.70748 18.6999C1.08685 17.9267 0.75 16.976 0.75 15.9974V4.36124C0.75 2.89548 1.92269 1.67923 3.43553 1.57594L15.3991 0.759137C16.2682 0.699797 17.1321 0.930818 17.8461 1.41353L22.0494 4.25543C22.8018 4.76414 23.25 5.59574 23.25 6.48319V19.7124C23.25 21.1468 22.0969 22.3345 20.6157 22.4256L7.3375 23.243C6.1555 23.3158 5.01299 22.8178 4.287 21.9133Z"
              fill="white"/>
        <path d="M8.43607 10.184V10.0317C8.43607 9.64552 8.74535 9.32525 9.14397 9.29863L12.0475 9.10479L16.0628 15.0176V9.82811L15.0293 9.69033V9.61797C15.0293 9.22727 15.3456 8.90488 15.7493 8.8842L18.3912 8.74887V9.12906C18.3912 9.30753 18.2585 9.46019 18.0766 9.49096L17.4408 9.59848V18.0028L16.6429 18.2772C15.9764 18.5064 15.2343 18.261 14.8527 17.6852L10.9545 11.8029V17.4172L12.1544 17.6468L12.1377 17.7581C12.0853 18.1067 11.7843 18.3704 11.4202 18.3866L8.43607 18.5194C8.39662 18.1446 8.67758 17.8092 9.06518 17.7685L9.45771 17.7272V10.2414L8.43607 10.184Z"
              fill="black"/>
        <path fill-rule="evenodd" clip-rule="evenodd"
              d="M15.5062 2.22509L3.5426 3.04189C2.82599 3.09081 2.27051 3.66693 2.27051 4.36124V15.9974C2.27051 16.6498 2.49507 17.2836 2.90883 17.799L5.48835 21.0125C5.90541 21.5321 6.56174 21.8182 7.24076 21.7764L20.519 20.959C21.1995 20.9171 21.7293 20.3714 21.7293 19.7124V6.48319C21.7293 6.07544 21.5234 5.69336 21.1777 5.45963L16.9743 2.61772C16.546 2.3281 16.0277 2.18948 15.5062 2.22509ZM4.13585 4.54275C3.96946 4.41956 4.04865 4.16291 4.25768 4.14792L15.5866 3.33533C15.9476 3.30944 16.3063 3.40884 16.5982 3.61566L18.8713 5.2261C18.9576 5.28724 18.9171 5.41922 18.8102 5.42503L6.8129 6.07752C6.44983 6.09727 6.09144 5.9906 5.80276 5.77687L4.13585 4.54275ZM6.25018 8.12303C6.25018 7.73327 6.56506 7.41132 6.9677 7.3894L19.6523 6.69859C20.0447 6.67722 20.375 6.979 20.375 7.35886V18.8139C20.375 19.203 20.0613 19.5246 19.6594 19.5475L7.05516 20.2646C6.61845 20.2895 6.25018 19.9539 6.25018 19.5311V8.12303Z"
              fill="black"/>
    </g>
    <defs>
        <clipPath id="clip0_10259_261437">
            <rect width="24" height="24" fill="white"/>
        </clipPath>
    </defs>
</svg>
