<svg width="24" height="24" viewBox="0 0 24 24" fill="none" xmlns="http://www.w3.org/2000/svg">
    <path d="M12 12C14.8995 12 17.25 9.64949 17.25 6.75C17.25 3.8505 14.8995 1.5 12 1.5C9.10051 1.5 6.75 3.8505 6.75 6.75C6.75 9.64949 9.10051 12 12 12Z"
          fill="url(#paint0_linear_10259_261291)"/>
    <path fill-rule="evenodd" clip-rule="evenodd"
          d="M11.582 22.3721C8.3805 20.189 5.71789 17.2139 3.81939 13.6984C3.746 13.5575 3.73004 13.3905 3.77525 13.2367C3.82046 13.0828 3.92287 12.9556 4.05845 12.8848L7.77078 10.9374C8.03046 10.802 8.34385 10.9047 8.48797 11.1724C10.3648 14.5349 13.1401 17.2202 16.4567 18.8826C15.2335 20.2 13.879 21.3701 12.4174 22.3721C12.1618 22.5427 11.8376 22.5427 11.582 22.3721Z"
          fill="url(#paint1_linear_10259_261291)"/>
    <path fill-rule="evenodd" clip-rule="evenodd"
          d="M12.4171 22.372C15.6191 20.1895 18.2818 17.2143 20.1798 13.6983C20.2534 13.5578 20.2697 13.3911 20.2251 13.2373C20.1804 13.0835 20.0786 12.956 19.9435 12.8847L16.2284 10.9373C15.9687 10.802 15.6553 10.9047 15.5112 11.1723C13.6347 14.5352 10.8593 17.2206 7.54248 18.8826C8.7649 20.2008 10.1195 21.371 11.5818 22.372C11.8374 22.5426 12.1616 22.5426 12.4171 22.372Z"
          fill="#2684FF"/>
    <defs>
        <linearGradient id="paint0_linear_10259_261291" x1="12" y1="3.2451" x2="12" y2="14.0247"
                        gradientUnits="userSpaceOnUse">
            <stop stop-color="#2684FF"/>
            <stop offset="0.82" stop-color="#0052CC"/>
        </linearGradient>
        <linearGradient id="paint1_linear_10259_261291" x1="8.98258" y1="13.6984" x2="11.8708" y2="21.422"
                        gradientUnits="userSpaceOnUse">
            <stop stop-color="#2684FF"/>
            <stop offset="0.62" stop-color="#0052CC"/>
        </linearGradient>
    </defs>
</svg>
