<svg width="24" height="24" viewBox="0 0 24 24" fill="none" xmlns="http://www.w3.org/2000/svg">
    <path d="M20.2381 9.82623C20.2381 5.22778 16.5493 1.50001 11.9988 1.50001C7.94311 1.49423 4.48686 4.47287 3.85221 8.52083C3.21756 12.5688 5.59342 16.4812 9.45225 17.7426V21.9145C9.45225 22.2378 9.71166 22.5 10.0317 22.5H13.9427C14.2627 22.5 14.5222 22.2378 14.5222 21.9145V17.7455C17.9256 16.638 20.2343 13.4394 20.2381 9.82623ZM11.9988 12.6397C10.4604 12.6397 9.21324 11.3794 9.21324 9.82476C9.21324 8.27012 10.4604 7.00983 11.9988 7.00983C13.5372 7.00983 14.7843 8.27012 14.7843 9.82476C14.7843 11.3794 13.5372 12.6397 11.9988 12.6397Z"
          fill="#2684FF"/>
    <path fill-rule="evenodd" clip-rule="evenodd"
          d="M11.9985 1.50001V7.01277C13.537 7.01277 14.7841 8.27306 14.7841 9.8277C14.7841 11.3823 13.537 12.6426 11.9985 12.6426C12.6739 12.6426 13.3216 12.9138 13.7992 13.3964C14.2768 13.879 14.5451 14.5335 14.5451 15.216V17.7484C18.4053 16.4868 20.7822 12.5732 20.1476 8.52377C19.5129 4.47435 16.0556 1.49446 11.9985 1.50001Z"
          fill="url(#paint0_linear_10259_261302)"/>
    <defs>
        <linearGradient id="paint0_linear_10259_261302" x1="16.1182" y1="16.2407" x2="16.1182" y2="7.39629"
                        gradientUnits="userSpaceOnUse">
            <stop offset="0.18" stop-color="#0052CC"/>
            <stop offset="1" stop-color="#2684FF"/>
        </linearGradient>
    </defs>
</svg>
