<svg width="24" height="24" viewBox="0 0 24 24" fill="none" xmlns="http://www.w3.org/2000/svg">
    <path d="M11.9999 19.5C14.7151 19.5 16.9162 17.3652 16.9162 14.7318C16.9162 12.0984 14.7151 9.96356 11.9999 9.96356C9.28463 9.96356 7.0835 12.0984 7.0835 14.7318C7.0835 17.3652 9.28463 19.5 11.9999 19.5Z"
          fill="url(#paint0_linear_10259_261287)"/>
    <path fill-rule="evenodd" clip-rule="evenodd"
          d="M1.63256 9.21569L4.27226 12.248C4.36983 12.3593 4.50932 12.428 4.65952 12.4388C4.80972 12.4496 4.95811 12.4015 5.07149 12.3054C9.34623 8.58793 14.6397 8.58793 18.9257 12.3054C19.0391 12.4015 19.1875 12.4496 19.3377 12.4388C19.4879 12.428 19.6274 12.3593 19.7249 12.248L22.3674 9.21569C22.5669 8.98625 22.538 8.64366 22.3027 8.44873C16.0974 3.18376 7.89974 3.18376 1.69729 8.44873C1.462 8.64366 1.43308 8.98625 1.63256 9.21569Z"
          fill="#2684FF"/>
    <defs>
        <linearGradient id="paint0_linear_10259_261287" x1="11.9999" y1="17.8597" x2="11.9999" y2="9.41223"
                        gradientUnits="userSpaceOnUse">
            <stop stop-color="#2684FF"/>
            <stop offset="0.82" stop-color="#0052CC"/>
        </linearGradient>
    </defs>
</svg>
