<svg width="24" height="24" viewBox="0 0 24 24" fill="none" xmlns="http://www.w3.org/2000/svg">
    <path fill-rule="evenodd" clip-rule="evenodd"
          d="M6.08874 1.5H17.8485C19.4189 1.5 20.7031 2.72134 20.7434 4.25317L21 14.0069L20.4399 20.1585C20.3192 21.4839 19.1813 22.5 17.8177 22.5H6.09191C4.71799 22.5 3.5751 21.469 3.46746 20.1324L3 14.328L3.19346 4.27265C3.22308 2.73301 4.51063 1.5 6.08874 1.5ZM5.88834 4.97752H17.985C18.4163 4.97752 18.7678 5.31516 18.7746 5.73597L18.9171 14.5296C18.9226 14.8678 18.6583 15.1522 18.3128 15.1798L16.0001 15.3648C15.3854 15.414 14.9122 15.9151 14.9122 16.5169V19.2344C14.9122 19.8019 14.4408 20.2619 13.8592 20.2619H10.075C9.49339 20.2619 9.02194 19.8019 9.02194 19.2344V16.5169C9.02194 15.9151 8.54875 15.414 7.93407 15.3648L5.61746 15.1795C5.27358 15.152 5.00985 14.87 5.01312 14.5334L5.09861 5.74085C5.10272 5.31811 5.45509 4.97752 5.88834 4.97752Z"
          fill="#2274E5"/>
    <path d="M17.9851 4.97754H5.88843C5.45518 4.97754 5.10281 5.31813 5.0987 5.74087L5.01321 14.5334C5.00994 14.8701 5.27367 15.152 5.61755 15.1796L7.93416 15.3648C8.54884 15.414 9.02203 15.9151 9.02203 16.5169V16.8005H14.9123V16.5169C14.9123 15.9151 15.3855 15.414 16.0002 15.3648L18.3129 15.1799C18.6584 15.1522 18.9227 14.8679 18.9172 14.5297L18.7747 5.736C18.7679 5.31519 18.4164 4.97754 17.9851 4.97754Z"
          fill="white"/>
    <path d="M14.9123 16.8005V19.2344C14.9123 19.8019 14.4408 20.2619 13.8593 20.2619H10.075C9.49342 20.2619 9.02197 19.8019 9.02197 19.2344V16.8005H14.9123Z"
          fill="#BEC2C8"/>
    <path d="M9.58146 10.0253L8.75879 10.812C9.53758 11.4863 11.2827 13.0051 12.033 13.6858C13.0597 12.0931 15.7405 9.16898 16.9526 7.90599C16.8648 7.80966 16.6301 7.55599 16.3932 7.31195C14.5109 8.78902 12.406 10.8066 11.5888 11.6308L9.58146 10.0253Z"
          fill="#2C3B4A"/>
</svg>
