<svg width="24" height="24" viewBox="0 0 24 24" fill="none" xmlns="http://www.w3.org/2000/svg">
    <path d="M1.5 3.76775C1.5 2.51531 2.51531 1.5 3.76775 1.5H20.2322C21.4847 1.5 22.5 2.51531 22.5 3.76775V20.2322C22.5 21.4847 21.4847 22.5 20.2322 22.5H3.76775C2.51531 22.5 1.5 21.4847 1.5 20.2322V3.76775Z"
          fill="#558AAD"/>
    <path d="M9.24889 8.83132C8.94119 9.28146 8.42378 9.57688 7.83737 9.57688C7.55779 9.57688 7.29389 9.50973 7.06092 9.39068L9.32352 11.6533C9.51758 10.9228 10.1834 10.3846 10.9749 10.3846C11.5614 10.3846 12.0788 10.68 12.3865 11.1301H17.0016C17.5334 11.1301 17.9646 11.5613 17.9646 12.0932C17.9646 12.625 17.5334 13.0562 17.0016 13.0562H12.3865C12.0788 13.5063 11.5614 13.8017 10.9749 13.8017C10.7193 13.8017 10.4767 13.7456 10.259 13.6449L11.969 15.355H17.0016C17.5334 15.355 17.9646 15.7861 17.9646 16.318C17.9646 16.8499 17.5334 17.281 17.0016 17.281H9.24889C8.94119 17.7312 8.42378 18.0266 7.83737 18.0266C7.54802 18.0266 7.27547 17.9547 7.03662 17.8277L11.8849 22.5H20.2323C21.4848 22.5 22.5001 21.4847 22.5001 20.2322V12L17.5918 7.09167L17.5747 7.09435C17.8113 7.26982 17.9646 7.55116 17.9646 7.8683C17.9646 8.40016 17.5334 8.83132 17.0016 8.83132H9.24889Z"
          fill="#4C7B9B"/>
    <rect x="6.71875" y="15.355" width="11.2456" height="1.92603" rx="0.963017" fill="#A1BED2"/>
    <rect x="9.5459" y="11.1301" width="8.41864" height="1.92604" rx="0.963018" fill="#A1BED2"/>
    <rect x="6.71875" y="6.9054" width="11.2456" height="1.92604" rx="0.963018" fill="#A1BED2"/>
    <path d="M9.24902 8.83136C9.43646 8.55716 9.54608 8.22555 9.54608 7.86834C9.54608 7.52879 9.44703 7.21238 9.27625 6.94641L11.2236 8.83136H9.24902Z"
          fill="#98B3C6"/>
    <path d="M12.3862 13.0562C12.5737 12.782 12.6833 12.4504 12.6833 12.0932C12.6833 11.7842 12.6013 11.4944 12.4578 11.2443L14.3297 13.0562H12.3862Z"
          fill="#98B3C6"/>
    <path d="M9.24902 17.2811C9.43646 17.0069 9.54608 16.6753 9.54608 16.318C9.54608 15.9785 9.44703 15.6621 9.27625 15.3961L11.2236 17.2811H9.24902Z"
          fill="#98B3C6"/>
    <circle cx="7.83749" cy="7.86837" r="1.70858" fill="white"/>
    <ellipse cx="10.9747" cy="12.0932" rx="1.70858" ry="1.70858" fill="white"/>
    <circle cx="7.83749" cy="16.318" r="1.70858" fill="white"/>
</svg>
