<svg width="24" height="24" viewBox="0 0 24 24" fill="none" xmlns="http://www.w3.org/2000/svg">
    <path d="M14.2163 14.2214C12.7916 14.7575 11.1951 14.7585 9.77031 14.2217C9.23352 12.7986 9.23338 11.2023 9.76949 9.77893C11.1939 9.24189 12.792 9.2418 14.2164 9.77885C14.753 11.2018 14.7528 12.7984 14.2163 14.2214ZM22.354 10.25H16.221L20.5574 5.91608C19.8769 4.96069 19.0367 4.12144 18.0807 3.44128L13.7439 7.77524V1.64619C12.5865 1.45161 11.3995 1.45191 10.2421 1.64619V7.77524L5.90528 3.44128C4.94954 4.12098 4.10908 4.96139 3.42847 5.91608L7.76556 10.25H1.63262C1.48124 11.4414 1.43205 12.5611 1.63262 13.75H7.76565L3.42855 18.0839C4.11081 19.0408 4.94785 19.8773 5.90528 20.5591L10.2421 16.2248V22.3542C11.3996 22.548 12.5863 22.5481 13.7439 22.3542V16.2248L18.081 20.5591C19.0374 19.8782 19.8762 19.0397 20.5574 18.0839L16.2203 13.75H22.354C22.5487 12.5943 22.5487 11.4057 22.354 10.25Z"
          fill="#FF4A00"/>
</svg>
