<svg width="24" height="24" viewBox="0 0 24 24" fill="none" xmlns="http://www.w3.org/2000/svg">
    <g clip-path="url(#clip0_11297_172175)">
        <path d="M23.6229 14.9204C22.0202 21.3491 15.509 25.2614 9.07965 23.6583C2.65295 22.0556 -1.25939 15.5441 0.344001 9.11594C1.94598 2.68661 8.45715 -1.22603 14.8846 0.376659C21.3135 1.97935 25.2256 8.49162 23.6227 14.9206L23.6228 14.9204H23.6229Z"
              fill="#F7931A"/>
        <path d="M17.4512 10.1097C17.69 8.51273 16.4742 7.65432 14.8117 7.08167L15.3511 4.91848L14.0343 4.59036L13.5092 6.6966C13.1631 6.61026 12.8075 6.52891 12.4542 6.44826L12.983 4.32812L11.6671 4L11.1274 6.16249C10.841 6.09726 10.5596 6.0328 10.2866 5.96488L10.2881 5.95808L8.47225 5.50462L8.12196 6.91104C8.12196 6.91104 9.09891 7.13499 9.07833 7.14877C9.61156 7.28186 9.70799 7.63484 9.69197 7.91463L9.07762 10.379C9.11434 10.3883 9.16197 10.4018 9.21452 10.4229C9.17059 10.412 9.12384 10.4001 9.07534 10.3885L8.21422 13.8408C8.14906 14.0028 7.98365 14.2459 7.61084 14.1536C7.62404 14.1727 6.65377 13.9147 6.65377 13.9147L6 15.422L7.7136 15.8492C8.03239 15.9292 8.34479 16.0128 8.65243 16.0915L8.10753 18.2795L9.42281 18.6076L9.96243 16.4428C10.3218 16.5404 10.6705 16.6303 11.0118 16.7151L10.474 18.8697L11.7909 19.1978L12.3357 17.0139C14.5812 17.4389 16.2695 17.2676 16.9802 15.2366C17.5528 13.6014 16.9517 12.6582 15.7704 12.0432C16.6308 11.8447 17.2789 11.2788 17.4517 10.1098L17.4513 10.1096L17.4512 10.1097ZM14.4426 14.3285C14.0357 15.9637 11.2825 15.0797 10.3899 14.8581L11.113 11.9594C12.0056 12.1822 14.8679 12.6231 14.4427 14.3285H14.4426ZM14.8499 10.086C14.4786 11.5733 12.1872 10.8177 11.4438 10.6324L12.0994 8.00343C12.8427 8.18872 15.2366 8.53455 14.85 10.086H14.8499Z"
              fill="white"/>
    </g>
    <defs>
        <clipPath id="clip0_11297_172175">
            <rect width="24" height="24" fill="white"/>
        </clipPath>
    </defs>
</svg>
