<svg width="24" height="24" viewBox="0 0 24 24" fill="none" xmlns="http://www.w3.org/2000/svg">
    <g clip-path="url(#clip0_11297_172169)">
        <path d="M12 24C18.6274 24 24 18.6274 24 12C24 5.37258 18.6274 0 12 0C5.37258 0 0 5.37258 0 12C0 18.6274 5.37258 24 12 24Z"
              fill="black"/>
        <path fill-rule="evenodd" clip-rule="evenodd"
              d="M13.0405 16.8195V19.6247C13.0405 20.0082 12.7298 20.3187 12.3464 20.3187C12.2155 20.3187 12.0892 20.2847 11.9776 20.2168L6.14885 16.6496C5.73626 16.3972 5.48389 15.9459 5.48389 15.4605V12.7572C5.48389 12.4369 5.74597 12.1748 6.06614 12.1748C6.16804 12.1748 6.27017 12.204 6.3574 12.2574L12.4629 15.8148C12.8222 16.0235 13.0405 16.4069 13.0405 16.8195Z"
              fill="#01D494"/>
        <path fill-rule="evenodd" clip-rule="evenodd"
              d="M15.826 12.5194V18.2076C15.826 18.3774 15.7388 18.5328 15.5933 18.6104L14.2537 19.3627C14.2392 19.3724 14.2198 19.3821 14.2003 19.387V16.2275C14.2003 15.8197 13.9868 15.4412 13.6325 15.2276L8.27441 12.0195V8.45725C8.27441 8.13687 8.5365 7.87488 8.85666 7.87488C8.95857 7.87488 9.0607 7.90389 9.14793 7.95249L15.2487 11.5149C15.6078 11.7236 15.826 12.107 15.826 12.5194Z"
              fill="#01D494"/>
        <path fill-rule="evenodd" clip-rule="evenodd"
              d="M18.5004 16.6302C18.5004 16.8002 18.4082 16.9555 18.2577 17.038L16.9911 17.7222V11.9371C16.9911 11.5245 16.7776 11.1509 16.428 10.9373L10.9438 7.65154V4.26877C10.9438 4.16686 10.9727 4.06495 11.0213 3.97764C11.1865 3.70096 11.5408 3.60391 11.8173 3.76413L17.9229 7.31182C18.2822 7.52048 18.5004 7.90393 18.5004 8.3165V16.6302Z"
              fill="#01D494"/>
    </g>
    <defs>
        <clipPath id="clip0_11297_172169">
            <rect width="24" height="24" fill="white"/>
        </clipPath>
    </defs>
</svg>
