<svg width="24" height="24" viewBox="0 0 24 24" fill="none" xmlns="http://www.w3.org/2000/svg">
    <path fill-rule="evenodd" clip-rule="evenodd"
          d="M11.6825 0C16.6349 0.04375 20.3865 3.34935 21.113 7.74288C21.9343 12.7103 18.5634 17.4461 13.6019 18.3016C12.9322 18.4171 12.2477 18.4624 11.5678 18.5012C10.1896 18.5798 8.79565 19.5129 8.4722 21.343C8.37938 21.868 8.25531 22.3877 8.14339 22.9093C7.98074 23.667 7.33869 24.1171 6.62816 23.9734C5.89377 23.8249 5.46938 23.1676 5.6282 22.396C5.83119 21.4097 6.04877 20.4263 6.26 19.4417C6.99832 16.0003 7.73847 12.5592 8.47344 9.117C8.64262 8.32462 9.11049 7.89178 9.81325 7.90543C10.592 7.92057 11.1904 8.63917 11.0298 9.40199C10.6449 11.2295 10.2434 13.0535 9.84939 14.879C9.77321 15.2321 9.70308 15.5865 9.6258 15.9394C9.59466 16.0815 9.61938 16.1529 9.78889 16.1338C10.8341 16.0159 11.8818 15.9182 12.9252 15.7858C15.7027 15.4334 18.0291 13.2224 18.5314 10.476C19.2021 6.80855 16.833 3.37668 13.1611 2.69696C9.49706 2.01861 5.89125 4.64132 5.40092 8.3359C5.26599 9.35271 5.35756 10.3447 5.67824 11.3173C5.92645 12.07 5.58458 12.8169 4.88948 13.0379C4.16311 13.2687 3.45951 12.8783 3.2164 12.1095C1.55547 6.85721 4.61625 1.48244 9.99418 0.238587C10.6459 0.0879004 11.3235 0.0489549 11.6825 0Z"
          fill="black"/>
    <path fill-rule="evenodd" clip-rule="evenodd"
          d="M10.8013 22.4537C10.8041 21.5922 11.4622 20.9365 12.3244 20.9363C13.196 20.9361 13.8715 21.6131 13.8594 22.4746C13.8473 23.3334 13.1814 23.994 12.3274 23.9944C11.4543 23.9949 10.7984 23.3327 10.8013 22.4537Z"
          fill="#E6027A"/>
</svg>
