<svg width="24" height="24" viewBox="0 0 24 24" fill="none" xmlns="http://www.w3.org/2000/svg">
    <path d="M12.3068 0.130072V0.141895C12.3186 0.201008 12.3186 0.271944 12.3186 0.34288V8.86702C12.3068 8.91431 12.2713 8.92613 12.2359 8.94978C11.9876 9.068 11.7511 9.17441 11.5028 9.28081C11.16 9.43451 10.8053 9.60002 10.4625 9.75372L9.22107 10.3212C8.87822 10.4749 8.53536 10.6286 8.20433 10.7823C7.80235 10.9715 7.38856 11.1488 6.98659 11.338C6.64373 11.4916 6.30088 11.6572 5.9462 11.8109C5.66245 11.9409 5.37871 12.0591 5.10679 12.1892C5.08314 12.201 5.0595 12.2128 5.03585 12.2128C5.02403 12.2128 5.02403 12.2128 5.01221 12.201L5.33142 11.669C5.9462 10.6522 6.54915 9.64731 7.16393 8.63057C7.81418 7.54288 8.47625 6.4552 9.12649 5.36751C9.72945 4.36259 10.3442 3.35766 10.9472 2.35273C11.3846 1.61973 11.8339 0.886723 12.2713 0.153718C12.2831 0.130072 12.295 0.11825 12.295 0.0946045H12.3068C12.295 0.106427 12.3068 0.11825 12.3068 0.130072Z"
          fill="#8A92B2"/>
    <path d="M19.5655 12.2011L19.5773 12.2129L17.8394 13.2415L12.3773 16.469C12.3537 16.4809 12.33 16.4927 12.3182 16.5045C12.2827 16.5045 12.2827 16.469 12.2827 16.4572V16.3508V9.04441C12.2827 9.00895 12.2827 8.96166 12.2945 8.92619C12.3064 8.8789 12.3418 8.89072 12.3773 8.90254C12.531 8.97348 12.6965 9.04441 12.8502 9.11535C13.3113 9.32816 13.7724 9.54097 14.2335 9.74195C14.6354 9.91929 15.0256 10.1085 15.4275 10.2858C15.8295 10.4631 16.2315 10.6523 16.6335 10.8296C16.9763 10.9833 17.331 11.1488 17.6738 11.3025C18.0167 11.4562 18.3714 11.6218 18.7142 11.7754C18.9862 11.8937 19.2581 12.0237 19.53 12.142C19.53 12.1774 19.5418 12.1892 19.5655 12.2011Z"
          fill="#454A75"/>
    <path d="M12.3063 23.8464C12.3063 23.8582 12.2945 23.87 12.2945 23.8818H12.2827C12.2827 23.8582 12.259 23.8464 12.2472 23.8227C11.5142 22.7941 10.7812 21.7537 10.0482 20.7252C9.30334 19.673 8.54669 18.6089 7.80187 17.5567C7.08068 16.5399 6.34768 15.5114 5.6265 14.4946C5.43733 14.2227 5.24817 13.9626 5.05901 13.6907C5.04719 13.667 5.03536 13.6552 5.01172 13.6198C5.04719 13.6198 5.07083 13.6434 5.08265 13.6552C6.11123 14.2582 7.12797 14.8611 8.15655 15.4641C9.33881 16.1616 10.5093 16.8592 11.6915 17.5567L12.2945 17.9114C12.3181 17.935 12.3181 17.9587 12.3181 17.9823V23.6808C12.3181 23.7399 12.3181 23.7991 12.3063 23.8464Z"
          fill="#8A92B2"/>
    <path d="M5 12.2246V12.2128C5.37833 12.0473 5.74483 11.8699 6.12315 11.7044C6.60788 11.4798 7.09261 11.267 7.57734 11.0423C7.94384 10.8768 8.32217 10.6995 8.68867 10.534C9.23251 10.2857 9.76453 10.0492 10.3084 9.80097C10.6749 9.63545 11.0414 9.46994 11.4197 9.2926C11.6798 9.17437 11.9517 9.05614 12.2118 8.93792C12.2355 8.92609 12.2709 8.91427 12.2828 8.89062C12.2946 8.89062 12.2946 8.90245 12.2828 8.91427V16.4217C12.2828 16.4571 12.2709 16.4926 12.2946 16.5162C12.2709 16.5517 12.2473 16.5162 12.2355 16.5044C12.1291 16.4453 12.0227 16.3862 11.9163 16.3153C9.63448 14.9675 7.34089 13.6079 5.05911 12.2601C5.04729 12.2483 5.02365 12.2364 5 12.2246Z"
          fill="#62688F"/>
    <path d="M19.542 13.6198H19.5538C19.5538 13.6434 19.5301 13.667 19.5183 13.6907C17.343 16.7528 15.1676 19.8266 12.9922 22.8887C12.7676 23.2079 12.5311 23.5271 12.3065 23.8464C12.2947 23.8345 12.2947 23.8227 12.2947 23.8109V23.74V18.006V17.8996C12.7912 17.604 13.276 17.3202 13.7725 17.0247C15.6878 15.8897 17.6031 14.7665 19.5065 13.6316C19.5183 13.6434 19.5301 13.6316 19.542 13.6198Z"
          fill="#62688F"/>
    <path d="M12.2946 8.91426V8.89061V8.81968V0.236427C12.2946 0.200959 12.2828 0.177314 12.3065 0.141846C14.7065 4.12608 17.1065 8.0985 19.4946 12.0827C19.5183 12.1182 19.5538 12.1655 19.5656 12.2128C19.4001 12.1537 19.2464 12.0709 19.0927 12C18.9035 11.9172 18.7025 11.8226 18.5134 11.7399C18.3951 11.6808 18.2651 11.6335 18.1469 11.5744C17.9459 11.4798 17.7449 11.397 17.5439 11.3024C17.4257 11.2551 17.3074 11.196 17.1892 11.1369L16.4089 10.7822C16.2789 10.7231 16.1488 10.664 16.007 10.6049L15.4395 10.3566C15.3212 10.3093 15.203 10.2502 15.0848 10.1911L14.3045 9.83643C14.1744 9.77731 14.0444 9.7182 13.9025 9.65909L13.335 9.41081C13.205 9.3517 13.0868 9.29259 12.9567 9.23347C12.7321 9.12707 12.5074 9.02066 12.271 8.92608C12.3065 8.91426 12.2946 8.91426 12.2946 8.91426Z"
          fill="#62688F"/>
</svg>
