<svg width="24" height="24" viewBox="0 0 24 24" fill="none" xmlns="http://www.w3.org/2000/svg">
    <g clip-path="url(#clip0_11297_172145)">
        <path d="M12 24C18.6274 24 24 18.6274 24 12C24 5.37258 18.6274 0 12 0C5.37258 0 0 5.37258 0 12C0 18.6274 5.37258 24 12 24Z"
              fill="black"/>
        <path d="M11.9747 22.7184C17.8942 22.7184 22.693 17.9196 22.693 12.0001C22.693 6.0805 17.8942 1.28174 11.9747 1.28174C6.05511 1.28174 1.25635 6.0805 1.25635 12.0001C1.25635 17.9196 6.05511 22.7184 11.9747 22.7184Z"
              fill="#FEF102"/>
        <path d="M17.0512 7.97901C16.7998 7.401 16.5611 6.27011 15.9077 6.0188C15.0658 5.6921 14.5381 7.81566 14.4124 8.35597H14.2868C14.0731 7.43869 13.7841 6.13189 12.7789 5.84288C12.314 7.80309 13.269 9.92665 14.1611 11.623C15.1161 11.1706 15.581 9.73817 15.669 8.73294H15.7946L16.7998 11.7486C17.604 11.5225 17.893 10.7183 18.182 9.98948C18.8103 8.43137 19.3381 6.50885 18.936 4.83765C17.7297 5.17691 17.3653 6.91095 17.0512 7.97901ZM4.98833 12C6.06896 11.4848 6.58414 9.85126 6.74749 8.73294H6.87315C6.9988 9.27325 7.33807 10.668 8.0166 10.756C8.87105 10.8691 9.32341 8.95911 9.38624 8.35597H9.51189C9.78833 9.29838 10.0773 10.5298 11.0197 10.9947C11.3716 9.52456 10.9569 7.96644 10.4166 6.59681C10.2784 6.24498 10.0019 5.29 9.51189 5.29C8.72027 5.29 8.26791 7.38843 8.12969 7.97901H8.00404L6.9988 4.9633C5.22708 5.80519 4.2721 10.3036 4.98833 12ZM3.10352 13.5078C4.41032 19.2377 10.4669 22.4795 15.9203 20.0544C17.9056 19.1748 19.4763 17.6041 20.381 15.6439C20.6197 15.1413 21.0721 14.2115 20.8082 13.5455C20.5444 12.8795 17.9433 13.9727 17.3025 14.2492C17.2145 14.2869 17.1517 14.3748 17.1266 14.4753C17.0889 14.7518 17.2773 15.0157 17.5538 15.0534C17.5663 15.0534 17.5789 15.0534 17.5915 15.0534L18.6847 15.1413C16.7119 18.9612 11.3841 20.645 7.62708 17.5916C6.78519 16.913 6.03126 16.1089 5.52865 15.1413C5.2899 14.6764 5.06372 14.0858 4.64907 13.7591C4.24697 13.4575 3.64383 13.357 3.10352 13.5078Z"
              fill="black"/>
    </g>
    <defs>
        <clipPath id="clip0_11297_172145">
            <rect width="24" height="24" fill="white"/>
        </clipPath>
    </defs>
</svg>
