<svg width="24" height="24" viewBox="0 0 24 24" fill="none" xmlns="http://www.w3.org/2000/svg">
    <g clip-path="url(#clip0_11297_172134)">
        <path d="M12 24C18.6274 24 24 18.6274 24 12C24 5.37258 18.6274 0 12 0C5.37258 0 0 5.37258 0 12C0 18.6274 5.37258 24 12 24Z"
              fill="black"/>
        <path d="M6.50488 16.5053L11.7219 19.7873H12.3534L17.4864 16.5053L16.6869 15.8746L12.0166 18.8618L7.17838 15.8746L6.50488 16.5053ZM9.02938 8.89056L11.9746 4.43031L15.0039 8.93256L15.7194 8.30105L12.3534 3.25281C12.3534 3.25281 12.0586 2.87406 11.5959 3.25281L8.14588 8.42781L9.02938 8.89056Z"
              fill="white" fill-opacity="0.703"/>
        <path d="M12.0586 17.8943C12.2266 17.3048 12.4374 16.7581 12.6061 16.1693C13.3636 13.8128 14.1204 11.4143 14.8779 9.05857C14.9199 8.93257 14.9619 8.76382 15.0039 8.63857C15.0879 8.38507 15.2139 8.25907 15.4666 8.25907C15.5764 8.25618 15.6835 8.29284 15.7685 8.36238C15.8534 8.43191 15.9105 8.52967 15.9294 8.63782C16.1394 9.47932 16.3081 10.3628 16.5181 11.2043C16.8969 12.8033 17.2336 14.4443 17.6124 16.0426C17.6964 16.4213 17.5704 16.6741 17.2756 16.7581C16.9809 16.8421 16.7709 16.6321 16.6869 16.2533C16.2661 14.4443 15.8454 12.6346 15.4666 10.7836C15.4666 10.6996 15.4246 10.6576 15.3826 10.5308C15.3477 10.6459 15.3054 10.7587 15.2559 10.8683C14.4571 13.3081 13.6996 15.7486 12.9001 18.1883C12.7741 18.6511 12.6054 19.0718 12.4794 19.5346C12.3954 19.8293 12.2266 19.9553 11.9746 19.9553C11.7219 19.9553 11.5539 19.8293 11.4699 19.5353C10.5444 16.6321 9.61814 13.7288 8.73464 10.8256C8.69264 10.7416 8.69264 10.6996 8.65064 10.5308C8.57559 10.9115 8.49156 11.2904 8.39864 11.6671C8.06114 13.1821 7.72514 14.7383 7.38839 16.2533C7.30439 16.6733 6.96839 16.8841 6.63089 16.6733C6.42089 16.5473 6.37889 16.3373 6.42089 16.0846C6.88364 13.9808 7.38839 11.8771 7.85114 9.77407C7.93514 9.43657 8.01989 9.10057 8.06114 8.76382C8.14589 8.42782 8.31389 8.25907 8.56664 8.25907C8.81939 8.25907 8.98664 8.42782 9.07139 8.76382C10.0389 11.7938 11.0064 14.8651 11.9326 17.8943H12.0586Z"
              fill="white"/>
    </g>
    <defs>
        <clipPath id="clip0_11297_172134">
            <rect width="24" height="24" fill="white"/>
        </clipPath>
    </defs>
</svg>
