<svg width="24" height="24" viewBox="0 0 24 24" fill="none" xmlns="http://www.w3.org/2000/svg">
    <g clip-path="url(#clip0_11297_172129)">
        <path d="M12 24C18.6274 24 24 18.6274 24 12C24 5.37258 18.6274 0 12 0C5.37258 0 0 5.37258 0 12C0 18.6274 5.37258 24 12 24Z"
              fill="url(#paint0_linear_11297_172129)"/>
        <path d="M6.0936 15.6V9.95197L10.3768 13.1756V15.6H11.47V12.948C11.4698 12.8494 11.4468 12.7523 11.4027 12.6641C11.3586 12.576 11.2947 12.4992 11.216 12.44L6.0216 8.52917C5.92659 8.4586 5.81388 8.41576 5.69598 8.40541C5.57809 8.39505 5.45963 8.41759 5.35378 8.47052C5.24792 8.52345 5.15882 8.60469 5.09636 8.70522C5.03391 8.80574 5.00055 8.92162 5 9.03997V15.6H6.0936ZM17.9392 15.6V9.95197L13.656 13.1756V15.6H12.5628V12.948C12.563 12.8494 12.586 12.7523 12.6301 12.6641C12.6742 12.576 12.7381 12.4992 12.8168 12.44L18.0112 8.53077C18.1061 8.46028 18.2187 8.41745 18.3364 8.40704C18.4542 8.39662 18.5725 8.41902 18.6783 8.47176C18.7841 8.52449 18.8732 8.6055 18.9358 8.70579C18.9984 8.80609 19.032 8.92176 19.0328 9.03997V15.6H17.9392Z"
              fill="white"/>
    </g>
    <defs>
        <linearGradient id="paint0_linear_11297_172129" x1="12" y1="0" x2="12" y2="24" gradientUnits="userSpaceOnUse">
            <stop stop-color="#4FA89B"/>
            <stop offset="1" stop-color="#6ACEBB"/>
        </linearGradient>
        <clipPath id="clip0_11297_172129">
            <rect width="24" height="24" fill="white"/>
        </clipPath>
    </defs>
</svg>
