<svg width="24" height="24" viewBox="0 0 24 24" fill="none" xmlns="http://www.w3.org/2000/svg">
    <g clip-path="url(#clip0_11297_172116)">
        <mask id="mask0_11297_172116" style="mask-type:alpha" maskUnits="userSpaceOnUse" x="5" y="9" width="19"
              height="15">
            <path d="M5.46338 9.90039H23.9338V23.2806H5.46338V9.90039Z" fill="white"/>
        </mask>
        <g mask="url(#mask0_11297_172116)">
            <path fill-rule="evenodd" clip-rule="evenodd"
                  d="M22.8473 9.90039C24.8235 12.8936 24.0723 15.6992 20.8522 17.1528C18.9642 18.005 17.3316 19.2005 15.823 20.5919C15.7693 20.6415 15.7102 20.6857 15.6607 20.7389C12.3702 24.2833 9.1794 24.0416 5.46338 20.5077C5.50235 20.4643 5.54131 20.4209 5.58001 20.3771C6.66992 20.1828 7.75808 20.4054 8.84475 20.4276C12.2741 20.4977 15.1189 19.2422 17.5212 16.8641C19.552 15.2446 20.955 13.1502 22.0972 10.8509C22.2746 10.4939 22.2806 9.96417 22.8473 9.90039Z"
                  fill="#0095D9"/>
        </g>
        <path fill-rule="evenodd" clip-rule="evenodd"
              d="M5.46349 20.5078C4.47045 20.2622 3.46589 20.0609 2.53913 19.5945C0.566003 18.6019 -0.313637 16.8772 0.100093 14.7025C0.215644 14.0951 0.359846 13.4785 0.599644 12.9122C1.41665 10.983 1.9067 8.97266 2.32528 6.92545C3.06949 3.28534 4.01688 2.51916 7.7085 2.29426C7.85385 2.28543 7.99751 2.25017 8.14205 2.22718C8.54418 2.05136 8.94868 1.85599 9.26944 2.3606C9.24713 2.43172 9.21875 2.53183 9.16508 2.54033C7.05861 2.87343 6.17176 4.61066 5.18425 6.13567C3.3467 8.97354 2.44427 12.0693 3.11789 15.4862C3.20985 15.9527 3.35162 16.4027 3.62048 16.8022C4.10843 18.0954 5.04099 19.1553 5.53946 20.4437L5.46349 20.5078Z"
              fill="#B2D134"/>
        <path fill-rule="evenodd" clip-rule="evenodd"
              d="M9.24737 2.42644C8.91724 2.14713 8.50917 2.30064 8.14209 2.22729C9.85061 0.597312 11.7419 0.165447 13.5871 1.33902C15.6791 2.6696 17.9384 3.27493 20.3313 3.66122C22.7964 4.05918 23.5131 5.06462 23.3257 7.57538C23.2743 8.26417 23.1817 8.94843 22.8145 9.55861C22.1338 9.47057 21.9573 8.83504 21.5953 8.41288C20.0093 6.56374 18.1852 5.07405 15.7741 4.43778C15.5075 4.36329 15.2509 4.26183 14.9929 4.16266C13.5059 3.47448 11.9227 3.13012 10.3241 2.83275C9.94715 2.76271 9.51488 2.8014 9.24737 2.42644Z"
              fill="#EBE710"/>
        <path fill-rule="evenodd" clip-rule="evenodd"
              d="M15.7836 4.21399C18.2832 4.70087 20.0238 6.34055 21.6687 8.11264C22.0857 8.56197 22.4342 9.0748 22.8143 9.55851C22.8254 9.67271 22.8365 9.78678 22.8475 9.90057C21.7563 12.2459 20.4935 14.479 18.6091 16.2971C18.3562 16.541 18.1762 16.894 17.7699 16.944C17.5111 16.1913 18.1473 15.7406 18.3921 15.1672C19.7389 12.0145 19.6782 9.00711 17.575 6.17383C17.2657 5.75714 16.8666 5.44588 16.4711 5.12154C16.1757 4.87938 15.7552 4.70976 15.7836 4.21399Z"
              fill="#00845D"/>
        <path fill-rule="evenodd" clip-rule="evenodd"
              d="M15.7836 4.21401C20.4753 7.17188 20.3895 13.1192 17.9234 16.5401C17.8421 16.653 17.8199 16.8085 17.77 16.944C15.7499 19.1869 13.2254 20.4473 10.2275 20.6798C8.66491 20.8009 7.08907 20.7803 5.53959 20.4437C4.54183 19.4884 4.06622 18.2235 3.50316 17.0104C2.38251 13.5065 2.88084 10.2339 5.29426 7.46756C7.86914 4.51617 11.087 2.98395 15.1303 3.99033L15.7836 4.21401Z"
              fill="#005120"/>
        <path fill-rule="evenodd" clip-rule="evenodd"
              d="M15.13 3.99038C11.5923 3.6295 8.49293 4.54292 5.96113 7.12797C3.53484 9.60537 2.96565 12.6242 3.37122 15.9321C3.41524 16.2913 3.459 16.6504 3.50289 17.01C2.2836 15.3702 2.47648 13.4655 2.72693 11.6624C3.16405 8.51559 4.73518 5.86332 6.78765 3.46487C7.4699 2.66761 8.22954 2.30573 9.24697 2.4266C11.2888 2.64395 13.2999 2.97685 15.13 3.99038Z"
              fill="#4CB748"/>
        <path fill-rule="evenodd" clip-rule="evenodd"
              d="M17.5577 12.1545C17.5582 15.6269 14.9112 18.2776 11.4616 18.2592C8.04298 18.241 5.23701 15.433 5.2604 12.0537C5.28474 8.54753 8.37676 5.50425 11.8907 5.52785C15.206 5.55016 17.5572 8.29951 17.5577 12.1545Z"
              fill="#FEFEFE"/>
    </g>
    <defs>
        <clipPath id="clip0_11297_172116">
            <rect width="24" height="24" fill="white"/>
        </clipPath>
    </defs>
</svg>
