<svg width="24" height="24" viewBox="0 0 24 24" fill="none" xmlns="http://www.w3.org/2000/svg">
    <path d="M11.3046 19.4733L5 23.9999L9.00236 5.58195L11.3046 19.4733ZM11.4321 19.4308L15.2715 19.4804L9.15112 5.65279L11.4321 19.4308ZM15.6328 19.1262L18.5726 8.2313L17.4604 6.8712L15.6328 19.1262ZM14.2161 2.04712L9.3778 5.30568L16.4475 3.0176L14.2161 2.04712ZM13.6068 2.04712L10.6033 2.14629L10.1641 3.40013L13.6068 2.04712Z"
          fill="#384182"/>
    <path d="M17.248 6.45336L9.50537 5.39078L16.4829 3.1948L17.248 6.45336ZM15.4133 2.35891L15.8383 1.20425L13.6069 0.233765L15.4133 2.35891ZM16.0579 1.09091L16.5609 2.90436L19.5361 2.11806L16.0579 1.09091Z"
          fill="#F79534"/>
    <path d="M15.4415 19.4097L9.23608 5.52538L17.3258 6.6588L15.4415 19.4097ZM13.9822 2.04723L10.157 3.54191L9.23608 5.24203L13.9822 2.04723ZM11.6092 0.913813L10.6528 1.9693L13.8264 1.89138L11.6092 0.913813ZM13.2809 0.0920897L11.765 0.793388L15.2219 2.31641L13.2809 0.0920897ZM15.0094 0H13.3801L15.902 0.977568L15.0094 0ZM15.9516 1.29634L15.5619 2.45809L16.3412 2.83353L15.9516 1.29634Z"
          fill="#F0513A"/>
</svg>
