<svg width="24" height="24" viewBox="0 0 24 24" fill="none" xmlns="http://www.w3.org/2000/svg">
    <path d="M8.46568 10.8432C8.58112 10.8511 8.71329 10.8359 8.84508 10.8259C8.9836 10.8154 9.12129 10.7892 9.25256 10.7419C9.33356 10.7126 9.40857 10.6651 9.44058 10.5804C9.49944 10.4245 9.51255 10.2604 9.46642 10.1014C9.39463 9.85411 9.21347 9.6873 9.0172 9.53453C8.84649 9.40164 8.65326 9.34827 8.44243 9.38391C8.07873 9.44535 7.70844 9.76762 7.66383 10.1467C7.64417 10.3134 7.63475 10.4727 7.73097 10.623C7.79569 10.7243 7.86318 10.809 7.99648 10.8197C8.14701 10.8318 8.29718 10.845 8.46568 10.8432ZM15.3343 10.8455C15.4161 10.8513 15.5458 10.835 15.6756 10.8266C15.7907 10.8191 15.8996 10.7929 15.9697 10.6835C16.068 10.5299 16.1085 10.3633 16.0836 10.1845C16.0401 9.87118 15.8572 9.65166 15.5924 9.49665C15.3808 9.3728 15.1548 9.33357 14.9174 9.41917C14.7792 9.46902 14.6679 9.56165 14.5634 9.6598C14.3784 9.83354 14.2369 10.0327 14.216 10.2983C14.1968 10.5421 14.2958 10.6892 14.5268 10.7574C14.775 10.8306 15.0298 10.8399 15.3343 10.8455ZM16.5858 11.9046C16.5854 11.7508 16.5876 11.5959 16.5392 11.4486C16.478 11.2622 16.4939 11.2597 16.3105 11.2759C16.0591 11.298 15.8341 11.4041 15.6123 11.5149C15.2972 11.6723 14.9986 11.8581 14.7055 12.0522C14.4683 12.2093 14.2222 12.3554 14.0171 12.5559C13.855 12.7143 13.7101 12.885 13.6735 13.1211C13.6622 13.1942 13.6864 13.237 13.7651 13.256C13.8393 13.2739 13.9138 13.2889 13.9917 13.2887C14.2839 13.2882 14.5691 13.2363 14.8507 13.1676C15.2132 13.0791 15.5653 12.9586 15.8978 12.7863C16.1188 12.6718 16.3275 12.5404 16.4967 12.3538C16.5411 12.3047 16.5739 12.2548 16.5728 12.1831C16.5716 12.0904 16.581 11.9975 16.5858 11.9046ZM7.32791 11.8807C7.33136 11.9463 7.34367 12.0578 7.34112 12.169C7.33874 12.273 7.38935 12.3424 7.45811 12.4087C7.74312 12.6835 8.09284 12.8452 8.45654 12.9823C8.6929 13.0715 8.93509 13.1406 9.18197 13.1951C9.42947 13.2496 9.67867 13.2892 9.93221 13.2962C10.0228 13.2987 10.1128 13.2887 10.1998 13.2593C10.2736 13.2344 10.2967 13.1986 10.2848 13.1253C10.2743 13.0609 10.2548 12.9997 10.2255 12.9413C10.1122 12.7158 9.93711 12.5433 9.73428 12.4031C9.21057 12.0411 8.67917 11.69 8.0917 11.4361C7.91306 11.3589 7.72952 11.2956 7.52911 11.298C7.46108 11.2988 7.43148 11.3267 7.40691 11.3846C7.3455 11.5292 7.34085 11.6821 7.32791 11.8807ZM5.48084 4.35613C5.43774 4.35021 5.42865 4.36266 5.39046 4.44841C5.24765 4.76886 5.20669 5.11004 5.18909 5.45498C5.17819 5.66818 5.19615 5.881 5.21479 6.09369C5.22772 6.24099 5.24523 6.38761 5.2675 6.53354C5.29223 6.69539 5.32111 6.85657 5.35207 7.01755C5.39312 7.23073 5.43964 7.44245 5.49246 7.65259C5.55832 7.91469 5.63119 8.1751 5.70622 8.43474C5.76833 8.64988 5.83779 8.86292 5.90461 9.07668C5.90924 9.09142 5.91478 9.1096 5.93553 9.1096C5.95251 9.1096 5.95663 9.09373 5.9639 9.08227C6.10868 8.85319 6.25426 8.62491 6.41814 8.40832C6.62234 8.13842 6.83238 7.87384 7.06795 7.63051C7.25836 7.43372 7.45156 7.23956 7.66245 7.06447C7.85831 6.90184 8.05848 6.74438 8.26955 6.60171C8.30836 6.57546 8.30602 6.5555 8.27721 6.52503C8.13541 6.37509 7.99862 6.22021 7.85248 6.0747C7.60608 5.82933 7.35592 5.58804 7.08972 5.36336C6.8968 5.20049 6.70134 5.04135 6.49441 4.89704C6.27819 4.74631 6.05251 4.60979 5.81634 4.4932C5.70701 4.43924 5.59377 4.38964 5.48084 4.35613ZM16.1212 7.1433C16.1548 7.20164 16.2168 7.23007 16.262 7.27647C16.4626 7.48258 16.6725 7.67926 16.8594 7.89923C17.0078 8.07404 17.1493 8.25379 17.2856 8.43795C17.429 8.63167 17.5641 8.83118 17.693 9.0348C17.712 9.06482 17.7164 9.11167 17.7561 9.11456C17.7668 9.11532 17.7851 9.05795 17.7946 9.02566C17.8732 8.76001 17.959 8.49653 18.0351 8.23002C18.1215 7.92759 18.2015 7.62365 18.2685 7.3168C18.3418 6.98102 18.4051 6.6433 18.4436 6.30052C18.4692 6.07248 18.4837 5.84434 18.4925 5.61599C18.5002 5.41268 18.4748 5.20955 18.4527 5.00714C18.4484 4.994 18.4414 4.98116 18.4399 4.96771C18.4182 4.77727 18.3592 4.59765 18.2799 4.42447C18.2408 4.339 18.232 4.33814 18.1418 4.37387C17.8288 4.49794 17.5332 4.65614 17.2566 4.84651C16.8226 5.14518 16.4268 5.49106 16.0478 5.85606C15.827 6.06861 15.6165 6.29115 15.4112 6.5187C15.3799 6.55336 15.3723 6.57232 15.4172 6.60517C15.5853 6.7281 15.7544 6.84961 15.9163 6.98112C15.9836 7.03584 16.0399 7.10587 16.1212 7.1433ZM16.0234 4.82497C16.2173 4.63898 16.4051 4.44661 16.6091 4.27118C16.9796 3.95259 17.3746 3.6709 17.822 3.46984C18.1132 3.33907 18.415 3.24381 18.736 3.21894C18.782 3.21538 18.8098 3.22385 18.8371 3.26775C18.9546 3.4568 19.0293 3.66201 19.0863 3.87556C19.2039 4.31559 19.2213 4.76492 19.204 5.21577C19.1899 5.584 19.1529 5.95073 19.0998 6.31591C19.0577 6.60493 19.0051 6.89197 18.953 7.17915C18.9332 7.28831 18.9029 7.39564 18.8885 7.506C18.8819 7.52812 18.8738 7.54996 18.869 7.57245C18.7889 7.94629 18.6942 8.31661 18.597 8.68625C18.4826 9.12136 18.362 9.55499 18.221 9.982C18.1796 10.1072 18.2072 10.2036 18.2557 10.3114C18.3947 10.6201 18.5713 10.9109 18.6896 11.2295C18.7737 11.4558 18.8569 11.6824 18.926 11.9137C19.039 12.2916 19.1244 12.6759 19.1865 13.0654C19.2244 13.3036 19.254 13.5429 19.2753 13.7829C19.2936 13.9909 19.3069 14.1996 19.3129 14.4081C19.3153 14.4882 19.3479 14.5683 19.3181 14.6489C19.2103 14.6326 19.103 14.612 18.9946 14.6006C18.6405 14.5635 18.2872 14.5465 17.9302 14.5824C17.5181 14.624 17.1211 14.7173 16.7401 14.8751C16.2445 15.0804 15.807 15.3773 15.418 15.7457C15.3127 15.8455 15.2113 15.9496 15.1042 16.0556C15.0629 15.9316 15.0237 15.8133 14.984 15.695C14.87 15.3555 14.6983 15.0421 14.543 14.7213C14.4961 14.6246 14.4375 14.5353 14.367 14.454C14.1186 14.1679 13.839 13.9173 13.5161 13.7181C13.0181 13.4111 12.47 13.2779 11.8903 13.2764C11.5897 13.2756 11.2953 13.3365 11.0081 13.4263C10.4407 13.6037 9.98458 13.9424 9.59597 14.3856C9.45418 14.5473 9.36006 14.7355 9.25094 14.916C9.10352 15.1598 8.96814 15.41 8.8555 15.672C8.80102 15.7988 8.7462 15.9255 8.68852 16.0592C8.66126 16.0292 8.6396 16.0053 8.61797 15.9814C7.9496 15.2419 7.15068 14.7348 6.1488 14.5808C5.77601 14.5235 5.40367 14.5203 5.02954 14.5505C4.84435 14.5655 4.66149 14.5976 4.47852 14.6287C4.48152 14.4198 4.49913 14.2119 4.5158 14.0036C4.53769 13.7305 4.57657 13.4598 4.6224 13.1904C4.66124 12.9623 4.71098 12.7359 4.76515 12.5104C4.85193 12.1491 4.95534 11.7933 5.0801 11.4435C5.10372 11.3772 5.13956 11.3108 5.07699 11.2455C5.07495 11.2434 5.08003 11.2345 5.08367 11.2227C5.12451 11.2766 5.14523 11.2673 5.16654 11.2094C5.29188 10.8693 5.43802 10.5377 5.58948 10.2085C5.6046 10.1756 5.61549 10.1438 5.60117 10.1084C5.4615 9.76185 5.34553 9.40726 5.24325 9.04819C5.16522 8.77433 5.09245 8.49905 5.0331 8.22032C4.99017 8.01878 4.94438 7.81781 4.8999 7.61661C4.88911 7.44973 4.84843 7.28741 4.82398 7.12257C4.78624 6.86813 4.75145 6.61344 4.72488 6.35766C4.69756 6.09458 4.67867 5.83106 4.6656 5.5667C4.65284 5.30878 4.64969 5.05107 4.65927 4.79359C4.67114 4.47639 4.69244 4.15897 4.77296 3.85003C4.81668 3.68228 4.87375 3.51837 4.96714 3.36988C5.07447 3.19919 5.16142 3.16702 5.36054 3.19795C5.70988 3.25222 6.01757 3.40395 6.30971 3.59184C6.69937 3.84246 7.04587 4.14649 7.37441 4.47168C7.50613 4.60208 7.6383 4.73199 7.7703 4.86211C7.77841 4.87328 7.78558 4.88536 7.79483 4.89549C7.96743 5.08385 8.14269 5.26983 8.3125 5.46062C8.55331 5.73113 8.79216 6.00348 9.02707 6.27908C9.07471 6.33497 9.11321 6.34379 9.17838 6.31688C9.59156 6.1464 10.0199 6.0261 10.4587 5.94357C10.8381 5.87225 11.2227 5.84752 11.6077 5.8341C12.1591 5.81487 12.7085 5.84036 13.2532 5.93143C13.7414 6.01303 14.2191 6.13588 14.6822 6.31221C14.7866 6.35192 14.7857 6.35365 14.8533 6.25832C15.0574 5.97038 15.2763 5.69392 15.5003 5.42123C15.6682 5.21674 15.847 5.02191 16.0234 4.82497Z"
          fill="#F4A817"/>
    <path d="M19.3181 14.649C19.3479 14.5683 19.3152 14.4882 19.3129 14.4082C19.3068 14.1995 19.2936 13.9909 19.2752 13.7829C19.254 13.5429 19.2244 13.3036 19.1864 13.0654C19.1243 12.6759 19.039 12.2916 18.926 11.9137C18.8568 11.6824 18.7737 11.4558 18.6896 11.2295C18.5712 10.911 18.3946 10.6201 18.2556 10.3113C18.2072 10.2036 18.1796 10.1072 18.2209 9.98201C18.362 9.55501 18.4826 9.12141 18.597 8.68626C18.6941 8.31659 18.7888 7.9463 18.8689 7.57243C18.8738 7.54997 18.8818 7.52813 18.8884 7.50598C19.1088 7.82186 19.2994 8.15513 19.4747 8.49779C19.7012 8.94032 19.8885 9.39906 20.0399 9.87192C20.17 10.2785 20.2701 10.6928 20.3439 11.1141C20.4498 11.7185 20.4969 12.3269 20.4872 12.9396C20.4798 13.405 20.44 13.8685 20.3632 14.3276C20.1689 15.4876 19.7788 16.5779 19.1751 17.5882C18.5613 18.6153 17.7771 19.4903 16.8116 20.201C16.277 20.5945 15.7046 20.9195 15.0931 21.178C14.7355 21.3292 14.3697 21.4552 13.9948 21.5535C13.5877 21.6602 13.1743 21.7336 12.7551 21.776C12.2419 21.8279 11.7282 21.8306 11.2152 21.787C10.7868 21.7506 10.364 21.6764 9.94594 21.5718C9.37393 21.4287 8.82421 21.2265 8.29781 20.9637C7.04187 20.3365 6.00629 19.4467 5.17331 18.3189C4.73473 17.7251 4.37744 17.0857 4.0943 16.4039C3.93219 16.0136 3.79573 15.6148 3.68796 15.2067C3.57589 14.7823 3.49537 14.3516 3.44297 13.9154C3.36639 13.278 3.35588 12.6394 3.40458 12.0001C3.44411 11.4807 3.52716 10.9672 3.65465 10.462C3.91022 9.44923 4.31791 8.502 4.89058 7.62708C4.89311 7.62325 4.89671 7.62011 4.89978 7.61662C4.94433 7.81783 4.99009 8.01876 5.03301 8.22034C5.0924 8.49903 5.16514 8.7743 5.24317 9.04817C5.34545 9.40728 5.46142 9.76187 5.60112 10.1084C5.61541 10.1439 5.60455 10.1756 5.5894 10.2085C5.43794 10.5377 5.2918 10.8693 5.16649 11.2095C5.14515 11.2673 5.12443 11.2766 5.08358 11.2227C5.07995 11.2344 5.0749 11.2434 5.07691 11.2454C5.13951 11.3107 5.10368 11.3772 5.08002 11.4435C4.95526 11.7933 4.85185 12.1492 4.76506 12.5104C4.7109 12.7359 4.66116 12.9623 4.62235 13.1905C4.57649 13.4599 4.53761 13.7305 4.51572 14.0036C4.49904 14.2118 4.48144 14.4198 4.47843 14.6287C4.46162 14.8881 4.48549 15.1433 4.55359 15.3944C4.65438 15.7661 4.81712 16.11 5.01932 16.4362C5.42621 17.0924 5.95053 17.6457 6.53071 18.1486C7.33691 18.8475 8.22708 19.4168 9.19632 19.863C9.387 19.9508 9.57603 20.0405 9.77365 20.1137C9.91913 20.1676 10.065 20.2181 10.2112 20.2686C10.3024 20.3002 10.3949 20.3334 10.4875 20.362C10.8307 20.4677 11.1822 20.5389 11.539 20.5735C11.9451 20.6129 12.3502 20.5892 12.7534 20.5213C13.1142 20.4605 13.468 20.3726 13.8156 20.2606C14.1739 20.1452 14.5235 20.0059 14.8657 19.8481C15.3496 19.625 15.8137 19.3668 16.2582 19.0731C16.6779 18.7958 17.0758 18.4901 17.4458 18.149C17.6037 18.0034 17.7618 17.8574 17.8984 17.6905C17.9163 17.6869 17.9241 17.6734 17.9304 17.6583L17.9348 17.6581L17.9364 17.654C17.9435 17.648 17.9515 17.6429 17.9576 17.636C18.2104 17.3515 18.4473 17.0554 18.6414 16.7263C18.7491 16.5436 18.8639 16.365 18.9537 16.1726C19.1175 15.8216 19.2333 15.4555 19.2906 15.0715C19.3116 14.9312 19.3233 14.7908 19.3181 14.649Z"
          fill="#F00500"/>
    <path d="M16.0231 4.82495C15.8467 5.0219 15.668 5.21673 15.5 5.42122C15.2761 5.69391 15.0572 5.97037 14.8531 6.25832C14.7855 6.35364 14.7864 6.35191 14.682 6.3122C14.2189 6.13587 13.7412 6.01302 13.253 5.93143C12.7082 5.84036 12.1588 5.81486 11.6075 5.83409C11.2225 5.84751 10.8379 5.87224 10.4585 5.94357C10.0197 6.02609 9.59134 6.14639 9.17817 6.31687C9.11297 6.34378 9.0745 6.33496 9.02685 6.27907C8.79194 6.00347 8.5531 5.73112 8.31229 5.46061C8.14245 5.26983 7.96722 5.08385 7.79462 4.89548C7.78537 4.88535 7.7782 4.87328 7.77002 4.86214C8.27341 4.56596 8.8016 4.32339 9.35557 4.13918C9.8188 3.98513 10.2925 3.87472 10.7766 3.80509C11.3945 3.71624 12.0135 3.70296 12.6342 3.75276C13.0607 3.78701 13.4814 3.85957 13.8972 3.96275C14.6312 4.14489 15.3241 4.42813 15.9826 4.79822C15.9966 4.80614 16.0097 4.816 16.0231 4.82495Z"
          fill="#F00500"/>
    <path d="M17.6079 17.9331L17.6102 17.9297L17.6066 17.9293L17.6079 17.9331ZM17.6501 17.8911L17.6522 17.8879L17.6487 17.8875L17.6501 17.8911ZM17.7199 17.8288L17.7173 17.8329L17.7215 17.8333L17.7199 17.8288ZM17.5918 17.9553C17.5898 17.9547 17.5876 17.9531 17.586 17.9536C17.5792 17.9555 17.5789 17.9588 17.5852 17.9617C17.5867 17.9624 17.5896 17.9614 17.5911 17.9603C17.592 17.9596 17.5916 17.9571 17.5918 17.9553ZM12.9924 20.4259H12.9286C12.9531 20.4411 12.9718 20.436 12.9924 20.4259ZM12.7839 20.4564C12.8341 20.4719 12.8666 20.4599 12.9041 20.4411C12.8607 20.4267 12.8303 20.4507 12.7839 20.4564ZM12.0506 17.799V17.7966C11.8529 17.7966 11.6552 17.7966 11.4576 17.7966C11.3388 17.7965 11.3406 17.7964 11.3449 17.9158C11.346 17.9471 11.361 17.9612 11.3828 17.9755C11.4412 18.0139 11.5076 18.0349 11.571 18.0624C11.6152 18.0815 11.639 18.0774 11.6568 18.0247C11.6914 17.922 11.6951 17.9255 11.8037 17.9326C11.8393 17.9349 11.8585 17.951 11.8745 17.9777C11.9113 18.0389 11.9475 18.1005 11.9846 18.1616C12.0421 18.2564 12.1347 18.2621 12.2071 18.1759C12.2383 18.1387 12.2697 18.1018 12.301 18.0646C12.4047 17.9417 12.4046 17.9417 12.5276 18.0466C12.5445 18.0611 12.5565 18.0831 12.5858 18.0762C12.6864 18.0522 12.7613 17.9561 12.7643 17.857C12.7659 17.804 12.7444 17.7977 12.6994 17.7981C12.4832 17.8001 12.2668 17.799 12.0506 17.799ZM14.068 17.1966C13.8695 17.1966 13.6743 17.1969 13.4791 17.1963C13.4506 17.1962 13.4356 17.2139 13.4273 17.2351C13.4074 17.2866 13.3719 17.2972 13.3193 17.2957C13.1659 17.2914 13.0123 17.2937 12.8587 17.2927C12.7799 17.2922 12.6858 17.3163 12.6264 17.2817C12.5646 17.2456 12.5313 17.1546 12.495 17.0829C12.4695 17.0326 12.4397 17.0073 12.3836 17.0169C12.3483 17.0229 12.3357 17.01 12.3361 16.9721C12.3381 16.7976 12.3376 16.6231 12.3363 16.4486C12.3361 16.4187 12.3439 16.404 12.374 16.394C12.5093 16.3494 12.6314 16.2788 12.7443 16.1932C12.9656 16.0252 13.1202 15.8125 13.1718 15.5342C13.2073 15.343 13.189 15.1492 13.1955 14.9567C13.2033 14.7247 12.9684 14.4873 12.7365 14.4872C12.3061 14.4869 11.8756 14.4869 11.4452 14.4871C11.1829 14.4873 11.0098 14.6607 11.0096 14.9231C11.0095 15.0464 11.0158 15.1701 11.0084 15.293C10.9934 15.5455 11.0973 15.7468 11.2663 15.9216C11.4709 16.1331 11.7226 16.273 11.9894 16.3886C12.0153 16.3998 12.0403 16.4041 12.0398 16.443C12.0381 16.6197 12.0389 16.7965 12.0396 16.9733C12.0397 17.0008 12.0337 17.0223 12.0017 17.0144C11.9308 16.997 11.9052 17.0438 11.8778 17.0939C11.8468 17.1504 11.8108 17.2043 11.7794 17.2607C11.7652 17.2863 11.7479 17.2952 11.7186 17.2952C11.4441 17.2946 11.1695 17.2957 10.8953 17.2808C10.8733 17.2796 10.8526 17.2808 10.852 17.2505C10.8513 17.2062 10.8221 17.2007 10.7865 17.2005C10.5957 17.1998 10.4049 17.198 10.2141 17.1974C10.2003 17.1974 10.1783 17.1872 10.1745 17.2116C10.1709 17.234 10.1666 17.2582 10.1864 17.2772C10.22 17.3093 10.2513 17.3442 10.2875 17.373C10.3325 17.409 10.3507 17.4519 10.3546 17.5098C10.36 17.5903 10.3741 17.6703 10.3899 17.7501C10.4029 17.816 10.4229 17.8358 10.4885 17.8156C10.5318 17.8024 10.5808 17.7963 10.5883 17.8676C10.5986 17.9648 10.6304 18.0573 10.6615 18.1491C10.7034 18.2728 10.7519 18.3942 10.8294 18.4984C10.9192 18.4065 10.9277 18.2986 10.9236 18.1806C10.916 17.9625 10.9214 17.744 10.9214 17.5243C10.9529 17.5279 10.9878 17.5293 11.0217 17.5363C11.3116 17.5958 11.606 17.6173 11.9006 17.6285C12.3759 17.6466 12.8479 17.6062 13.3162 17.5244C13.3691 17.5152 13.3779 17.5266 13.3768 17.5773C13.3721 17.8005 13.3731 18.024 13.3695 18.2473C13.3678 18.3504 13.44 18.4138 13.4869 18.5023C13.563 18.3043 13.6343 18.1191 13.7053 17.9339C13.746 17.8274 13.7458 17.8264 13.8583 17.8268C13.8904 17.8269 13.9164 17.8268 13.9257 17.7878C13.9721 17.5924 14.0196 17.3973 14.068 17.1966ZM17.8392 17.7144C17.8429 17.7098 17.8467 17.7052 17.8504 17.7007C17.8479 17.6989 17.8454 17.697 17.8429 17.6952C17.841 17.7009 17.839 17.7067 17.8371 17.7125C17.8329 17.7174 17.8286 17.7224 17.8243 17.7274C17.8048 17.7264 17.796 17.7363 17.7963 17.7553C17.7906 17.7568 17.7848 17.7582 17.7791 17.7596C17.7807 17.7621 17.7823 17.7645 17.7838 17.7669C17.7881 17.7632 17.7924 17.7593 17.7966 17.7556C17.8103 17.7506 17.8196 17.7413 17.8246 17.7276C17.8295 17.7232 17.8343 17.7188 17.8392 17.7144ZM17.7556 17.7984C17.7599 17.7959 17.7685 17.795 17.7599 17.7874C17.7577 17.7904 17.7555 17.7933 17.7534 17.7963C17.7514 17.7988 17.7494 17.8014 17.7475 17.804C17.7501 17.8021 17.7528 17.8003 17.7556 17.7984ZM17.6863 17.8689C17.689 17.8662 17.6942 17.8616 17.6939 17.8613C17.6874 17.8529 17.6851 17.8599 17.6823 17.8649C17.6807 17.8679 17.6791 17.8709 17.6775 17.8739C17.6804 17.8722 17.6833 17.8706 17.6863 17.8689ZM17.8983 17.6904C17.7617 17.8574 17.6036 18.0034 17.4457 18.149C17.0757 18.4901 16.6778 18.7958 16.2581 19.0731C15.8136 19.3667 15.3495 19.6249 14.8656 19.8481C14.5234 20.0059 14.1738 20.1451 13.8155 20.2606C13.4679 20.3726 13.1141 20.4605 12.7533 20.5213C12.3501 20.5891 11.945 20.6129 11.5389 20.5735C11.1821 20.5389 10.8306 20.4677 10.4874 20.3619C10.3948 20.3334 10.3023 20.3002 10.2111 20.2686C10.0649 20.2181 9.91902 20.1676 9.77354 20.1137C9.57592 20.0405 9.38689 19.9508 9.19618 19.8629C8.22697 19.4167 7.3368 18.8475 6.53057 18.1486C5.95042 17.6457 5.4261 17.0924 5.01921 16.4361C4.81698 16.11 4.65427 15.7661 4.55348 15.3944C4.48538 15.1433 4.46151 14.888 4.47832 14.6287C4.66129 14.5976 4.84416 14.5654 5.02934 14.5505C5.40348 14.5203 5.77582 14.5235 6.14861 14.5808C7.1505 14.7347 7.94938 15.2418 8.61778 15.9813C8.63938 16.0053 8.66108 16.0291 8.68834 16.0592C8.74602 15.9255 8.80081 15.7988 8.85532 15.672C8.96799 15.41 9.10337 15.1598 9.25072 14.916C9.35985 14.7354 9.45396 14.5473 9.59579 14.3856C9.9844 13.9424 10.4405 13.6036 11.0079 13.4262C11.2951 13.3364 11.5896 13.2756 11.8901 13.2764C12.4698 13.2779 13.018 13.4111 13.5159 13.7181C13.8389 13.9173 14.1184 14.1679 14.3668 14.454C14.4373 14.5352 14.496 14.6246 14.5428 14.7213C14.6982 15.042 14.8698 15.3555 14.9838 15.695C15.0235 15.8132 15.0627 15.9316 15.1041 16.0556C15.2112 15.9496 15.3125 15.8455 15.4178 15.7457C15.8069 15.3773 16.2443 15.0803 16.7399 14.8751C17.1209 14.7172 17.518 14.6239 17.93 14.5824C18.287 14.5465 18.6403 14.5635 18.9945 14.6006C19.1028 14.612 19.2101 14.6326 19.318 14.6489C19.3232 14.7908 19.3115 14.9311 19.2905 15.0714C19.2332 15.4555 19.1174 15.8215 18.9536 16.1725C18.8638 16.365 18.749 16.5436 18.6413 16.7262C18.4472 17.0554 18.2103 17.3515 17.9575 17.636C17.9514 17.6429 17.9434 17.648 17.9363 17.654C17.9248 17.625 17.9622 17.6092 17.9586 17.5763C17.9299 17.6027 17.8972 17.6184 17.8941 17.6579L17.8946 17.6575C17.8867 17.6608 17.8734 17.6627 17.8722 17.6677C17.868 17.6848 17.8849 17.6816 17.8942 17.6855L17.8983 17.6904Z"
          fill="#FFFEFE"/>
    <path d="M5.48061 4.35611C5.59357 4.38966 5.70678 4.43926 5.81611 4.49322C6.05231 4.60978 6.27796 4.7463 6.49417 4.89703C6.70115 5.04134 6.89656 5.20051 7.08952 5.36338C7.35569 5.58803 7.60585 5.82935 7.85228 6.07468C7.99839 6.22023 8.13518 6.37508 8.27701 6.52505C8.30579 6.55549 8.30813 6.57548 8.26932 6.6017C8.05825 6.7444 7.85808 6.90182 7.66222 7.06445C7.45136 7.23958 7.25812 7.43374 7.06772 7.6305C6.83219 7.87386 6.62211 8.1384 6.4179 8.4083C6.25403 8.62492 6.10845 8.85318 5.96366 9.08229C5.95643 9.09374 5.95228 9.10958 5.9353 9.10958C5.91455 9.10958 5.90901 9.09143 5.90441 9.0767C5.83756 8.86294 5.76813 8.6499 5.70598 8.43476C5.63099 8.17511 5.55808 7.91467 5.49223 7.65258C5.43941 7.44247 5.39289 7.23071 5.35187 7.0176C5.32088 6.85663 5.292 6.69541 5.26727 6.53353C5.24499 6.38764 5.22749 6.24098 5.21455 6.09367C5.19591 5.88103 5.17796 5.66821 5.18885 5.45498C5.20646 5.11006 5.24742 4.76889 5.39023 4.44839C5.42845 4.36268 5.43751 4.3502 5.48061 4.35611Z"
          fill="#F28F1F"/>
    <path d="M18.4526 5.00708C18.4747 5.20949 18.5001 5.41262 18.4924 5.61593C18.4836 5.84428 18.4691 6.07242 18.4435 6.30046C18.405 6.64323 18.3416 6.98095 18.2684 7.31677C18.2014 7.62358 18.1214 7.92756 18.035 8.22995C17.9589 8.49653 17.8731 8.75994 17.7945 9.02563C17.785 9.05788 17.7667 9.11529 17.756 9.1145C17.7163 9.1116 17.7119 9.06478 17.6929 9.03477C17.564 8.83112 17.4289 8.63167 17.2855 8.43788C17.1492 8.25376 17.0077 8.07401 16.8593 7.8992C16.6724 7.67919 16.4625 7.48254 16.2619 7.27648C16.2167 7.23004 16.1547 7.20161 16.1211 7.14324C16.1336 7.12675 16.1494 7.11181 16.1581 7.09345C16.246 6.9075 16.3457 6.72793 16.4517 6.55178C16.6121 6.28555 16.7897 6.0312 16.998 5.80063C17.2166 5.55865 17.4635 5.34936 17.7573 5.2015C17.9762 5.09134 18.2051 5.01555 18.4526 5.00708Z"
          fill="#F28B20"/>
    <path d="M7.32764 11.8807C7.34057 11.6821 7.3452 11.5292 7.40661 11.3846C7.43121 11.3267 7.46081 11.2987 7.52884 11.2979C7.72925 11.2956 7.91276 11.3588 8.09143 11.4361C8.6789 11.69 9.21027 12.041 9.73401 12.4031C9.93684 12.5433 10.1119 12.7158 10.2252 12.9413C10.2545 12.9997 10.274 13.0609 10.2845 13.1252C10.2965 13.1986 10.2732 13.2344 10.1995 13.2593C10.1125 13.2886 10.0225 13.2987 9.9319 13.2962C9.6784 13.2891 9.4292 13.2496 9.18167 13.195C8.93482 13.1406 8.69263 13.0714 8.45624 12.9823C8.09257 12.8452 7.74281 12.6835 7.45784 12.4086C7.38912 12.3424 7.33847 12.273 7.34085 12.169C7.3434 12.0578 7.33105 11.9462 7.32764 11.8807Z"
          fill="#1F1712"/>
    <path d="M16.5859 11.9046C16.581 11.9974 16.5716 12.0903 16.5729 12.1831C16.5739 12.2547 16.541 12.3047 16.4967 12.3537C16.3276 12.5404 16.1188 12.6718 15.8978 12.7863C15.5653 12.9586 15.2132 13.0791 14.8507 13.1675C14.5691 13.2362 14.2839 13.2882 13.9917 13.2887C13.9139 13.2888 13.8393 13.2739 13.7651 13.256C13.6864 13.237 13.6622 13.1941 13.6735 13.1211C13.7101 12.885 13.855 12.7143 14.0171 12.5558C14.2222 12.3553 14.4684 12.2093 14.7055 12.0522C14.9987 11.858 15.2972 11.6723 15.6123 11.5149C15.8341 11.4041 16.0591 11.298 16.3105 11.2758C16.4939 11.2597 16.4781 11.2622 16.5392 11.4486C16.5876 11.5959 16.5855 11.7507 16.5859 11.9046Z"
          fill="#1F1713"/>
    <path d="M18.4528 5.00708C18.2053 5.01555 17.9764 5.09133 17.7575 5.20149C17.4637 5.34936 17.2168 5.55865 16.9982 5.80063C16.7899 6.03119 16.6123 6.28555 16.452 6.55177C16.3459 6.72793 16.2462 6.9075 16.1583 7.09345C16.1496 7.11177 16.1338 7.12675 16.1213 7.14324C16.0401 7.10584 15.9837 7.03577 15.9164 6.98105C15.7545 6.84954 15.5854 6.72803 15.4173 6.60514C15.3724 6.57225 15.38 6.55329 15.4113 6.51864C15.6166 6.29112 15.8272 6.06854 16.0479 5.856C16.4269 5.49099 16.8228 5.14515 17.2567 4.84648C17.5334 4.65608 17.8289 4.49787 18.1419 4.37384C18.2321 4.33807 18.2409 4.33897 18.28 4.42441C18.3593 4.59762 18.4183 4.7772 18.44 4.96765C18.4415 4.9811 18.4485 4.99393 18.4528 5.00708Z"
          fill="#F2991D"/>
    <path d="M15.334 10.8455C15.0294 10.8399 14.7746 10.8306 14.5265 10.7574C14.2955 10.6892 14.1965 10.5422 14.2157 10.2983C14.2366 10.0327 14.378 9.83357 14.5631 9.65983C14.6676 9.56168 14.7789 9.46905 14.9171 9.4192C15.1545 9.3336 15.3805 9.37286 15.5921 9.49672C15.8568 9.65169 16.0398 9.87118 16.0834 10.1845C16.1082 10.3634 16.0677 10.53 15.9694 10.6834C15.8993 10.7928 15.7904 10.8192 15.6753 10.8266C15.5455 10.835 15.4158 10.8513 15.334 10.8455Z"
          fill="#FFFEFE"/>
    <path d="M8.46552 10.8431C8.29705 10.845 8.14687 10.8317 7.99635 10.8196C7.86304 10.8089 7.79556 10.7242 7.7308 10.623C7.63458 10.4727 7.64404 10.3133 7.66367 10.1466C7.70831 9.76755 8.0786 9.44529 8.4423 9.38381C8.65309 9.34821 8.84636 9.40158 9.01707 9.53447C9.21334 9.68724 9.3945 9.85404 9.46626 10.1013C9.51242 10.2604 9.49931 10.4244 9.44042 10.5803C9.40844 10.6651 9.3334 10.7125 9.25239 10.7418C9.12115 10.7891 8.98347 10.8154 8.84491 10.8259C8.71316 10.8358 8.58099 10.851 8.46552 10.8431Z"
          fill="#FFFEFE"/>
    <path d="M17.894 17.6579C17.8972 17.6183 17.9298 17.6028 17.9585 17.5763C17.9621 17.6092 17.9247 17.625 17.9362 17.654C17.9362 17.654 17.9346 17.658 17.9346 17.658L17.9302 17.6583C17.9182 17.6582 17.9061 17.658 17.894 17.6579Z"
          fill="#F6D9A7"/>
    <path d="M17.894 17.6579C17.9061 17.6581 17.9182 17.6582 17.9302 17.6583C17.924 17.6734 17.9161 17.6869 17.8983 17.6905C17.8983 17.6905 17.8941 17.6856 17.8941 17.6856C17.8943 17.6762 17.8944 17.6668 17.8945 17.6575L17.894 17.6579Z"
          fill="#FFFEFE"/>
    <path d="M14.0679 17.1966C14.0195 17.3973 13.972 17.5924 13.9257 17.7878C13.9164 17.8268 13.8904 17.8269 13.8583 17.8268C13.7457 17.8264 13.746 17.8274 13.7052 17.9339C13.6342 18.1191 13.5629 18.3043 13.4869 18.5022C13.4399 18.4138 13.3678 18.3504 13.3695 18.2472C13.373 18.024 13.3721 17.8006 13.3767 17.5773C13.3778 17.5265 13.3691 17.5152 13.3162 17.5244C12.8479 17.6062 12.3759 17.6466 11.9006 17.6285C11.606 17.6173 11.3116 17.5958 11.0216 17.5363C10.9878 17.5293 10.9528 17.5279 10.9214 17.5243C10.9214 17.744 10.916 17.9625 10.9235 18.1806C10.9276 18.2986 10.9191 18.4065 10.8293 18.4984C10.7518 18.3942 10.7034 18.2728 10.6614 18.1491C10.6304 18.0573 10.5985 17.9648 10.5883 17.8676C10.5808 17.7963 10.5317 17.8024 10.4885 17.8157C10.4228 17.8358 10.4029 17.816 10.3898 17.7501C10.3741 17.6703 10.36 17.5903 10.3545 17.5098C10.3506 17.4519 10.3325 17.409 10.2874 17.373C10.2513 17.3442 10.22 17.3093 10.1863 17.2772C10.1665 17.2582 10.1709 17.234 10.1744 17.2116C10.1783 17.1872 10.2003 17.1973 10.2141 17.1974C10.4048 17.1979 10.5957 17.1998 10.7864 17.2005C10.822 17.2007 10.8513 17.2062 10.852 17.2505C10.8525 17.2807 10.8732 17.2796 10.8952 17.2808C11.1695 17.2957 11.444 17.2946 11.7185 17.2952C11.7478 17.2952 11.7651 17.2863 11.7794 17.2607C11.8107 17.2043 11.8468 17.1505 11.8777 17.0938C11.9052 17.0438 11.9308 16.997 12.0016 17.0144C12.0337 17.0222 12.0397 17.0008 12.0395 16.9733C12.0388 16.7965 12.038 16.6197 12.0398 16.443C12.0402 16.4041 12.0153 16.3998 11.9894 16.3886C11.7226 16.273 11.4708 16.1332 11.2662 15.9216C11.0972 15.7468 10.9933 15.5455 11.0084 15.293C11.0157 15.1701 11.0094 15.0464 11.0095 14.9231C11.0097 14.6607 11.1828 14.4873 11.4451 14.4871C11.8756 14.4869 12.306 14.4868 12.7364 14.4871C12.9684 14.4873 13.2033 14.7247 13.1954 14.9567C13.189 15.1492 13.2072 15.343 13.1717 15.5342C13.1202 15.8125 12.9655 16.0252 12.7442 16.1931C12.6314 16.2788 12.5092 16.3494 12.374 16.394C12.3438 16.404 12.336 16.4187 12.3362 16.4486C12.3376 16.6231 12.338 16.7977 12.336 16.9721C12.3356 17.0099 12.3482 17.0228 12.3835 17.0169C12.4396 17.0073 12.4694 17.0326 12.4949 17.0829C12.5313 17.1546 12.5645 17.2456 12.6263 17.2816C12.6858 17.3163 12.7799 17.2922 12.8587 17.2927C13.0122 17.2937 13.1659 17.2914 13.3193 17.2957C13.3718 17.2971 13.4074 17.2866 13.4273 17.2351C13.4355 17.2139 13.4505 17.1962 13.4791 17.1963C13.6743 17.1969 13.8695 17.1966 14.0679 17.1966Z"
          fill="#1D1919"/>
    <path d="M12.0508 17.799C12.2671 17.799 12.4834 17.8002 12.6997 17.7982C12.7446 17.7977 12.7662 17.8041 12.7646 17.8571C12.7616 17.9561 12.6866 18.0523 12.5861 18.0762C12.5568 18.0831 12.5448 18.0611 12.5279 18.0467C12.4049 17.9417 12.4049 17.9417 12.3013 18.0647C12.27 18.1018 12.2385 18.1387 12.2074 18.1759C12.135 18.2621 12.0424 18.2564 11.9849 18.1616C11.9478 18.1006 11.9116 18.039 11.8747 17.9777C11.8587 17.9511 11.8396 17.9349 11.8039 17.9326C11.6953 17.9256 11.6917 17.9221 11.657 18.0248C11.6393 18.0774 11.6154 18.0816 11.5712 18.0624C11.5078 18.0349 11.4415 18.014 11.3831 17.9756C11.3612 17.9613 11.3463 17.9471 11.3451 17.9158C11.3409 17.7964 11.3391 17.7966 11.4579 17.7966C11.6555 17.7967 11.8532 17.7966 12.0508 17.7966V17.799Z"
          fill="#171413"/>
    <path d="M12.7842 20.4564C12.8307 20.4507 12.861 20.4267 12.9044 20.441C12.8669 20.4598 12.8344 20.4718 12.7842 20.4564Z"
          fill="#F6D9A7"/>
    <path d="M12.9924 20.4259C12.9719 20.436 12.9532 20.4412 12.9287 20.4259H12.9924Z" fill="#F6D9A7"/>
    <path d="M17.8946 17.6575C17.8944 17.6669 17.8943 17.6762 17.8942 17.6856C17.8849 17.6816 17.8681 17.6848 17.8722 17.6677C17.8734 17.6628 17.8868 17.6608 17.8946 17.6575Z"
          fill="#F6D9A7"/>
    <path d="M17.7964 17.7553C17.796 17.7362 17.8049 17.7264 17.8244 17.7274L17.8247 17.7276C17.8197 17.7413 17.8104 17.7506 17.7967 17.7555L17.7964 17.7553Z"
          fill="#F6D9A7"/>
    <path d="M17.7968 17.7556C17.7925 17.7594 17.7883 17.7632 17.7841 17.767C17.7825 17.7646 17.7809 17.7621 17.7793 17.7597C17.785 17.7583 17.7908 17.7568 17.7965 17.7554L17.7968 17.7556Z"
          fill="#F7DDB0"/>
    <path d="M17.5925 17.9553C17.5923 17.9571 17.5928 17.9598 17.5918 17.9606C17.5902 17.9619 17.5871 17.9629 17.5854 17.9621C17.5786 17.959 17.579 17.9554 17.5863 17.9533C17.588 17.9529 17.5904 17.9546 17.5925 17.9553Z"
          fill="#F7DDB0"/>
    <path d="M17.8374 17.7124C17.8393 17.7066 17.8413 17.7009 17.8432 17.6952C17.8457 17.697 17.8482 17.6988 17.8507 17.7006C17.847 17.7052 17.8432 17.7098 17.8394 17.7144L17.8374 17.7124Z"
          fill="#F6D9A7"/>
    <path d="M17.8242 17.7281C17.8288 17.7227 17.8334 17.7174 17.838 17.712C17.838 17.712 17.8402 17.7142 17.8402 17.7142C17.8349 17.7189 17.8297 17.7236 17.8245 17.7283L17.8242 17.7281Z"
          fill="#F6D9A7"/>
    <path d="M17.7534 17.7966C17.7558 17.7934 17.7581 17.7903 17.7605 17.7871C17.7697 17.7953 17.7604 17.7962 17.7558 17.799L17.7534 17.7966Z"
          fill="#F7DDB0"/>
    <path d="M17.7563 17.7984C17.7534 17.8003 17.7505 17.8024 17.7476 17.8043C17.7497 17.8016 17.7518 17.7988 17.754 17.796C17.7539 17.796 17.7563 17.7984 17.7563 17.7984Z"
          fill="#F7DDB0"/>
    <path d="M17.7199 17.8289L17.7217 17.8335L17.7173 17.8331L17.7199 17.8289Z" fill="#F7DDB0"/>
    <path d="M17.6821 17.8651C17.6852 17.8598 17.6877 17.8522 17.6947 17.8612C17.695 17.8616 17.6894 17.8666 17.6866 17.8694L17.6821 17.8651Z"
          fill="#F7DDB0"/>
    <path d="M17.6873 17.8689C17.6841 17.8707 17.6809 17.8725 17.6777 17.8743C17.6795 17.8711 17.6812 17.8679 17.6829 17.8646C17.6829 17.8646 17.6873 17.8689 17.6873 17.8689Z"
          fill="#F7DDB0"/>
    <path d="M17.6504 17.8914L17.6489 17.8872L17.6529 17.8877L17.6504 17.8914Z" fill="#F7DDB0"/>
    <path d="M17.608 17.9332L17.6064 17.929L17.6104 17.9294L17.608 17.9332Z" fill="#F7DDB0"/>
</svg>
