<svg width="24" height="24" viewBox="0 0 24 24" fill="none" xmlns="http://www.w3.org/2000/svg">
    <g clip-path="url(#clip0_11297_172093)">
        <path d="M16.9512 8.95196C16.8672 9.03596 16.7544 9.08396 16.6368 9.08396H5.48881C5.09521 9.08396 4.89601 8.60396 5.16961 8.31836L6.99841 6.42476C7.08241 6.33836 7.19761 6.28796 7.31761 6.28796H18.5064C18.9024 6.28796 19.1016 6.77276 18.8208 7.05836L16.9512 8.95196ZM16.9512 17.4144C16.8672 17.496 16.7544 17.544 16.6368 17.544H5.48881C5.09521 17.544 4.89601 17.076 5.16961 16.7976L6.99841 14.9496C7.08241 14.8656 7.19761 14.8176 7.31761 14.8176H18.5064C18.9024 14.8176 19.1016 15.2904 18.8208 15.5688L16.9512 17.4144ZM16.6368 10.5528C16.7544 10.5528 16.8672 10.5984 16.9512 10.6824L18.8208 12.5304C19.1016 12.8064 18.9024 13.2816 18.5064 13.2816H7.31761C7.19761 13.2816 7.08241 13.2336 6.99841 13.1496L5.16961 11.3016C4.89361 11.0232 5.09281 10.5552 5.48881 10.5552L16.6368 10.5528Z"
              fill="#00FFAD"/>
        <path d="M12 0C18.6264 0 24 5.3736 24 12C24 18.6264 18.6264 24 12 24C5.3736 24 0 18.6264 0 12C0 5.3736 5.3736 0 12 0Z"
              fill="black"/>
        <path fill-rule="evenodd" clip-rule="evenodd"
              d="M5.51962 10.2672H16.6244C16.7636 10.2672 16.8956 10.3224 16.9916 10.4208L18.7484 12.1896C19.0724 12.516 18.842 13.0728 18.3812 13.0728H7.27642C7.13722 13.0728 7.00522 13.0176 6.90922 12.9192L5.15242 11.1504C4.82602 10.824 5.05882 10.2672 5.51962 10.2672ZM5.15242 7.9224L6.90922 6.1536C7.00762 6.0552 7.13962 6 7.27642 6H18.3788C18.8396 6 19.0724 6.5568 18.746 6.8832L16.9916 8.652C16.8932 8.7504 16.7612 8.8056 16.6244 8.8056H5.51962C5.05882 8.8056 4.82602 8.2488 5.15242 7.9224ZM18.746 15.4176L16.9892 17.1864C16.8908 17.2848 16.7588 17.34 16.622 17.34H5.51962C5.05882 17.34 4.82602 16.7832 5.15242 16.4568L6.90922 14.688C7.00762 14.5896 7.13962 14.5344 7.27642 14.5344H18.3788C18.8396 14.5344 19.0724 15.0912 18.746 15.4176Z"
              fill="url(#paint0_linear_11297_172093)"/>
    </g>
    <defs>
        <linearGradient id="paint0_linear_11297_172093" x1="5.7913" y1="17.8279" x2="18.1071" y2="5.51207"
                        gradientUnits="userSpaceOnUse">
            <stop stop-color="#CB4EE8"/>
            <stop offset="1" stop-color="#10F4B1"/>
        </linearGradient>
        <clipPath id="clip0_11297_172093">
            <rect width="24" height="24" fill="white"/>
        </clipPath>
    </defs>
</svg>
