<svg width="24" height="24" viewBox="0 0 24 24" fill="none" xmlns="http://www.w3.org/2000/svg">
    <circle cx="12" cy="12" r="12" fill="url(#paint0_linear_11301_119976)"/>
    <path fill-rule="evenodd" clip-rule="evenodd"
          d="M19.1553 14.227L16.3074 18.1967C15.8595 18.8272 14.9904 19.1307 13.8606 19.0377C12.4032 18.9174 10.4712 18.1472 8.61937 16.8189C6.76756 15.4899 5.41719 13.9068 4.82889 12.5664C4.38098 11.5275 4.38761 10.6104 4.84221 9.97927L7.68343 6.00956C8.13803 5.37914 9.00708 5.07562 10.1302 5.16855C11.5876 5.28888 13.5263 6.0597 15.3781 7.38806C17.2299 8.71641 18.5803 10.2995 19.1619 11.6399C19.6165 12.6787 19.6032 13.5966 19.1553 14.227ZM8.44558 6.55508C8.73973 6.14728 9.328 6.04167 10.0567 6.10184C11.3871 6.21147 13.1386 6.93613 14.83 8.14883C16.5213 9.36086 17.7715 10.7895 18.3063 12.0129C18.5938 12.6834 18.6873 13.2744 18.3931 13.6822L18.7743 13.9543L18.3931 13.6822L15.5452 17.6519C15.2578 18.059 14.6695 18.1653 13.9408 18.1045C12.6104 17.9955 10.8522 17.2701 9.16084 16.0581C7.46948 14.8454 6.21932 13.4168 5.69118 12.1941C5.39703 11.5229 5.3102 10.9319 5.60435 10.5248L8.44558 6.55508Z"
          fill="white"/>
    <path fill-rule="evenodd" clip-rule="evenodd"
          d="M8.0694 6.37856C8.99865 5.08163 12.1473 5.74749 15.1022 7.86403C18.0571 9.98124 19.7017 12.7536 18.7724 14.0505L15.9312 18.0202C15.002 19.3171 11.8465 18.6513 8.89161 16.5341C5.93674 14.4169 4.29227 11.6452 5.22152 10.3482L8.0694 6.37856Z"
          fill="white"/>
    <path fill-rule="evenodd" clip-rule="evenodd"
          d="M7.86442 6.13821C8.2778 5.55948 9.07697 5.30461 10.1104 5.38728C11.5366 5.50441 13.4243 6.26913 15.2432 7.56438C17.0552 8.86652 18.3849 10.4167 18.9499 11.7257C19.3633 12.6765 19.377 13.517 18.9636 14.0957L16.1251 18.0642C15.7117 18.6429 14.9057 18.8978 13.8791 18.8151C12.453 18.6911 10.5583 17.9333 8.74634 16.6312C6.92748 15.3359 5.60464 13.7857 5.0328 12.4767C4.61942 11.5259 4.6057 10.6854 5.01908 10.1067L7.86442 6.13821ZM18.5709 13.8133V13.8064C18.9016 13.3517 18.8327 12.6765 18.5089 11.9186C17.9646 10.6716 16.6901 9.2041 14.9539 7.96397C13.2246 6.72383 11.4264 5.98665 10.0691 5.87642C9.24234 5.80752 8.58791 5.95912 8.25721 6.42073L8.24335 6.44825C7.93331 6.90985 8.00229 7.56437 8.3261 8.30845C8.87039 9.56236 10.145 11.0299 11.8743 12.27C13.6036 13.5101 15.4017 14.2474 16.7589 14.3576C17.5719 14.4196 18.2126 14.2749 18.5502 13.8409L18.5709 13.8064V13.8133ZM14.1478 9.08703C15.0159 9.7071 15.6566 10.4443 15.9253 11.0712C16.0838 11.4226 16.1251 11.7327 15.9666 11.9462C15.815 12.1598 15.5051 12.2218 15.1261 12.1874C14.444 12.1323 13.5484 11.7602 12.6803 11.1401C11.8122 10.5201 11.1714 9.78975 10.9027 9.16279C10.7511 8.81142 10.7098 8.50137 10.8614 8.28779C11.013 8.07421 11.3231 8.01223 11.7089 8.03979C12.3841 8.1018 13.2866 8.46696 14.1478 9.08703Z"
          fill="#0E0F23"/>
    <path fill-rule="evenodd" clip-rule="evenodd"
          d="M19.0798 12.0585C19.0421 11.9493 18.9988 11.8383 18.9499 11.7257C18.3849 10.4167 17.0552 8.86652 15.2432 7.56438C13.4243 6.26913 11.5366 5.50441 10.1104 5.38728C9.07697 5.30461 8.2778 5.55948 7.86442 6.13821L5.01908 10.1067C4.6057 10.6854 4.61942 11.5259 5.0328 12.4767C5.41074 13.3418 6.11674 14.3124 7.07717 15.245C7.16172 15.2367 7.24623 15.2234 7.33066 15.2049C7.84217 15.0907 8.33266 14.6368 8.82106 14.1848C9.45098 13.6018 10.0774 13.0221 10.741 13.1786C11.2057 13.2819 11.5752 13.7725 11.9546 14.2761C12.1152 14.4893 12.2776 14.7049 12.4497 14.8945C13.0009 15.5318 13.6071 15.8096 14.2203 15.6788C14.9217 15.5407 15.4554 14.925 15.9517 14.2302C14.7293 13.953 13.2791 13.2774 11.8743 12.27C10.145 11.0299 8.87038 9.56236 8.3261 8.30845C8.00229 7.56437 7.93331 6.90985 8.24335 6.44825L8.25721 6.42073C8.58791 5.95912 9.24234 5.80752 10.0691 5.87642C11.4264 5.98665 13.2246 6.72383 14.9539 7.96397C16.6879 9.20257 17.9615 10.668 18.5069 11.914C18.5338 11.9153 18.5609 11.9174 18.5884 11.9203C18.7839 11.9411 18.9448 11.9891 19.0798 12.0585ZM15.9253 11.0712C15.6566 10.4443 15.0159 9.7071 14.1478 9.08703C13.2866 8.46696 12.3841 8.1018 11.7089 8.03979C11.3231 8.01223 11.013 8.07421 10.8614 8.28779C10.7098 8.50137 10.7511 8.81142 10.9027 9.16279C11.1714 9.78975 11.8122 10.5201 12.6803 11.1401C13.5484 11.7602 14.444 12.1323 15.1261 12.1874C15.5051 12.2218 15.815 12.1598 15.9666 11.9462C16.1251 11.7327 16.0838 11.4226 15.9253 11.0712Z"
          fill="url(#paint1_linear_11301_119976)"/>
    <path fill-rule="evenodd" clip-rule="evenodd"
          d="M16.0759 14.9029C16.6133 14.9924 17.1093 15.0131 17.5227 14.9442C17.5778 14.9374 17.6192 14.8822 17.6123 14.8271C17.5985 14.772 17.5502 14.7307 17.4951 14.7376C17.0955 14.8065 16.627 14.7857 16.1103 14.6962C16.0552 14.6893 16.0001 14.7306 15.9932 14.7857C15.9864 14.8408 16.0207 14.896 16.0759 14.9029ZM15.2628 14.7238C15.4006 14.7582 15.5316 14.7926 15.6693 14.8202C15.7245 14.834 15.7797 14.7995 15.7866 14.7444C15.8003 14.6893 15.7658 14.6342 15.7107 14.6204C15.5798 14.5929 15.4489 14.5584 15.318 14.5239C15.2629 14.5033 15.2009 14.5377 15.1871 14.5928C15.1733 14.648 15.2077 14.7031 15.2628 14.7238ZM7.56716 8.19927C7.95298 9.77699 9.46875 11.2514 10.6882 12.2986C10.7296 12.3399 10.7984 12.3331 10.8329 12.2917C10.8673 12.2435 10.8672 12.1815 10.819 12.147C9.634 11.1205 8.14589 9.68742 7.77385 8.15103C7.76007 8.09591 7.69803 8.06149 7.64292 8.07527C7.5878 8.08905 7.55338 8.14415 7.56716 8.19927ZM7.47754 7.56541C7.47754 7.6343 7.48451 7.71013 7.4914 7.77903C7.49829 7.83414 7.55335 7.87547 7.60847 7.86858C7.66359 7.86169 7.70498 7.81342 7.69809 7.7583C7.6912 7.68941 7.68423 7.62055 7.68423 7.55854C7.68423 7.49654 7.63603 7.4552 7.57402 7.4552C7.5189 7.46209 7.47754 7.51029 7.47754 7.56541Z"
          fill="white"/>
    <defs>
        <linearGradient id="paint0_linear_11301_119976" x1="0" y1="0" x2="24" y2="24" gradientUnits="userSpaceOnUse">
            <stop stop-color="#C361B8"/>
            <stop offset="1" stop-color="#52A1EE"/>
        </linearGradient>
        <linearGradient id="paint1_linear_11301_119976" x1="10.3965" y1="5.3673" x2="12.3192" y2="15.0472"
                        gradientUnits="userSpaceOnUse">
            <stop stop-color="#27B0E6"/>
            <stop offset="0.52" stop-color="#C26BB3"/>
            <stop offset="1" stop-color="#FA52A0"/>
        </linearGradient>
    </defs>
</svg>
