<svg width="24" height="24" viewBox="0 0 24 24" fill="none" xmlns="http://www.w3.org/2000/svg">
    <g clip-path="url(#clip0_11297_172109)">
        <path d="M23.9787 11.9958C23.9787 18.5905 18.6331 23.9361 12.0384 23.9361C5.44405 23.9361 0.0981445 18.5905 0.0981445 11.9958C0.0981445 5.40133 5.44405 0.055542 12.0384 0.055542C18.6331 0.055542 23.9787 5.40133 23.9787 11.9958Z"
              fill="#1BA27A"/>
        <path d="M17.6422 6.07654H6.33594V8.80609H10.6243V12.818H13.3538V8.80609H17.6422V6.07654Z" fill="white"/>
        <path d="M12.0154 13.2453C8.46793 13.2453 5.59187 12.6839 5.59187 11.9913C5.59187 11.2987 8.46781 10.7372 12.0154 10.7372C15.5629 10.7372 18.4388 11.2987 18.4388 11.9913C18.4388 12.6839 15.5629 13.2453 12.0154 13.2453ZM19.2279 12.2003C19.2279 11.3072 15.9988 10.5833 12.0154 10.5833C8.03211 10.5833 4.80273 11.3072 4.80273 12.2003C4.80273 12.9868 7.30673 13.6421 10.6248 13.7873V19.5466H13.3541V13.7896C16.6978 13.6489 19.2279 12.9909 19.2279 12.2003Z"
              fill="white"/>
    </g>
    <defs>
        <clipPath id="clip0_11297_172109">
            <rect width="24" height="24" fill="white"/>
        </clipPath>
    </defs>
</svg>
