<svg width="24" height="24" viewBox="0 0 24 24" fill="none" xmlns="http://www.w3.org/2000/svg">
    <g clip-path="url(#clip0_11297_172100)">
        <path d="M23.9994 11.9988C23.9994 18.6254 18.6274 23.9976 11.9997 23.9976C5.37201 23.9976 0 18.6254 0 11.9988C0 5.37227 5.37214 0 11.9997 0C18.6273 0 23.9994 5.37176 23.9994 11.9988Z"
              fill="white"/>
        <path d="M11.9999 0C5.37457 0 -0.00695956 5.37987 0.00147474 11.9984C0.00313605 13.3226 0.214313 14.5964 0.610661 15.7878H4.20086V5.69415L11.9999 13.4923L19.7986 5.69415V15.788H23.3895C23.7865 14.5966 23.9966 13.3229 23.9989 11.9986C24.0102 5.37317 18.6259 0.00159724 11.9999 0.00159724V0Z"
              fill="#F26822"/>
        <path d="M10.2063 15.2849L6.80273 11.8816V18.233H4.20057L1.74512 18.2334C3.85132 21.6885 7.65772 23.9997 11.9998 23.9997C16.3419 23.9997 20.1485 21.688 22.2551 18.2329H17.1962V11.8816L13.7924 15.2849L11.9994 17.0777L10.2064 15.2849H10.2063Z"
              fill="#4D4D4D"/>
    </g>
    <defs>
        <clipPath id="clip0_11297_172100">
            <rect width="24" height="24" fill="white"/>
        </clipPath>
    </defs>
</svg>
