<svg width="48" height="48" viewBox="0 0 48 48" fill="none" xmlns="http://www.w3.org/2000/svg">
    <rect width="48" height="48" rx="8" fill="#5C62F6"/>
    <g clip-path="url(#clip0_840_130332)">
        <path d="M43 24C43 34.4934 34.4934 43 24 43C13.5066 43 5 34.4934 5 24C5 13.5066 13.5066 5 24 5C34.4934 5 43 13.5066 43 24Z"
              stroke="white" stroke-width="2"/>
        <path d="M14.8333 10H33.1666C35.3757 10 37.1666 11.7909 37.1666 14V34C37.1666 36.2091 35.3757 38 33.1666 38H14.8333C12.6241 38 10.8333 36.2091 10.8333 34V14C10.8333 11.7909 12.6241 10 14.8333 10Z"
              stroke="white" stroke-width="2"/>
        <mask id="path-4-inside-1_840_130332" fill="white">
            <path fill-rule="evenodd" clip-rule="evenodd"
                  d="M38.1666 9.8335L26.75 36.0245C25.7031 38.4261 22.2967 38.4261 21.2498 36.0245L9.83325 9.8335"/>
        </mask>
        <path d="M26.75 36.0245L24.9166 35.2253L26.75 36.0245ZM36.3332 9.03433L24.9166 35.2253L28.5834 36.8236L40 10.6327L36.3332 9.03433ZM23.0832 35.2253L11.6666 9.03433L7.99986 10.6327L19.4164 36.8236L23.0832 35.2253ZM24.9166 35.2253C24.5677 36.0259 23.4322 36.0258 23.0832 35.2253L19.4164 36.8236C21.1612 40.8264 26.8386 40.8264 28.5834 36.8236L24.9166 35.2253Z"
              fill="white" mask="url(#path-4-inside-1_840_130332)"/>
    </g>
    <defs>
        <clipPath id="clip0_840_130332">
            <rect width="40" height="40" fill="white" transform="translate(4 4)"/>
        </clipPath>
    </defs>
</svg>
