<svg width="92" height="24" viewBox="0 0 92 24" fill="none" xmlns="http://www.w3.org/2000/svg">
<g clip-path="url(#clip0_1320_11343)">
<path d="M10.0282 0.00866699H0V23.9913L10.0282 0.00866699Z" fill="#FA0C00"/>
<path d="M17.0839 0.00866699H27.099V23.9913L17.0839 0.00866699Z" fill="#FA0C00"/>
<path d="M13.556 8.84784L19.9388 23.9914H15.7511L13.8435 19.17H9.17236L13.556 8.84784Z" fill="#FA0C00"/>
<path d="M43.4592 15.2601L44.6417 18.6507C44.6809 18.7357 44.7396 18.7749 44.8442 18.7749H47.1177C47.2418 18.7749 47.2614 18.7161 47.2418 18.5919L42.5446 5.54551C42.525 5.44099 42.5054 5.42139 42.4008 5.42139H39.5786C39.5002 5.42139 39.4544 5.48018 39.4544 5.56511C39.4152 6.25108 39.3565 6.46014 39.2715 6.66266L35.0839 18.5723C35.0643 18.7161 35.11 18.7749 35.2276 18.7749H37.2594C37.3835 18.7749 37.4423 18.7357 37.488 18.6115L38.6052 15.2601H43.4592ZM39.2519 13.0454C39.866 11.19 40.6761 8.81202 41.0028 7.45315H41.0224C41.4274 8.87735 42.3812 11.6996 42.8124 13.0454H39.2519Z" fill="#FA0C00"/>
<path d="M53.2805 18.9774C54.5021 18.9774 55.8022 18.7553 57.1219 18.1869C57.2264 18.1477 57.246 18.102 57.246 18.004C57.2068 17.6381 57.1611 17.109 57.1611 16.7039V4.42186C57.1611 4.34346 57.1611 4.30426 57.0631 4.30426H54.8484C54.7635 4.30426 54.7243 4.34346 54.7243 4.44799V8.60952C54.378 8.57032 54.1363 8.55072 53.8488 8.55072C50.2753 8.55072 48.0802 10.9091 48.0802 13.8555C48.0802 17.2723 50.3341 18.9774 53.2805 18.9774ZM54.7243 16.7039C54.3584 16.8215 53.9534 16.8672 53.5418 16.8672C51.9216 16.8672 50.5954 15.9526 50.5954 13.7314C50.5954 11.765 51.9608 10.6021 53.7705 10.6021C54.1363 10.6021 54.4564 10.6413 54.7243 10.7458V16.7039Z" fill="#FA0C00"/>
<path d="M64.3113 8.55072C61.2604 8.55072 59.3723 10.8895 59.3723 13.7771C59.3723 16.3577 60.8749 18.9774 64.2655 18.9774C67.1335 18.9774 69.1457 16.8672 69.1457 13.7118C69.1457 10.9287 67.4406 8.55072 64.3113 8.55072ZM64.1871 10.6021C65.9119 10.6021 66.6436 12.0851 66.6436 13.7771C66.6436 15.8677 65.5656 16.9064 64.3113 16.9064C62.7629 16.9064 61.8483 15.6064 61.8483 13.7314C61.8483 11.8042 62.8217 10.6021 64.1871 10.6021Z" fill="#FA0C00"/>
<path d="M71.4354 4.30426C71.3504 4.30426 71.2916 4.34346 71.2916 4.44799V18.3502C71.2916 18.409 71.3504 18.5136 71.4354 18.5332C72.4088 18.8337 73.4279 18.9774 74.4797 18.9774C77.4915 18.9774 80.4182 17.109 80.4182 13.3459C80.4182 10.6217 78.5498 8.55072 75.623 8.55072C74.9501 8.55072 74.3229 8.65525 73.7742 8.83817L73.748 4.46759C73.748 4.32386 73.7088 4.30426 73.5651 4.30426H71.4354ZM77.9161 13.5942C77.9161 15.8481 76.3743 16.9064 74.7084 16.9064C74.3621 16.9064 74.0551 16.8868 73.7742 16.8019V10.8699C74.0943 10.7458 74.4797 10.6413 75.1918 10.6413C76.799 10.6413 77.9161 11.6604 77.9161 13.5942Z" fill="#FA0C00"/>
<path d="M88.6835 14.3259C89.6765 14.3259 90.4931 14.3063 90.774 14.241C90.8786 14.2214 90.9178 14.1822 90.9374 14.0972C90.9962 13.8751 91.0223 13.4113 91.0223 12.8429C91.0223 10.9091 89.8594 8.55072 86.8542 8.55072C83.7837 8.55072 82.0786 11.0529 82.0786 13.8751C82.0786 16.3773 83.3983 18.9774 87.096 18.9774C88.481 18.9774 89.376 18.7553 90.1469 18.3894C90.2253 18.3502 90.2645 18.2849 90.2645 18.1673V16.4753C90.2645 16.3773 90.2057 16.3577 90.1469 16.3969C89.376 16.7235 88.5398 16.8868 87.6251 16.8868C85.5542 16.8868 84.6134 15.7436 84.5546 14.3259H88.6835ZM84.5546 12.5751C84.7179 11.582 85.3451 10.5041 86.7497 10.5041C88.298 10.5041 88.7031 11.8042 88.7031 12.3921C88.7031 12.4117 88.7031 12.4967 88.7031 12.5555C88.6182 12.5751 88.3568 12.5751 87.5859 12.5751H84.5546Z" fill="#FA0C00"/>
</g>
<defs>
<clipPath id="clip0_1320_11343">
<rect width="91.0222" height="24" fill="white"/>
</clipPath>
</defs>
</svg>
