<svg width="96" height="24" viewBox="0 0 96 24" fill="none" xmlns="http://www.w3.org/2000/svg">
<g clip-path="url(#clip0_1320_11621)">
<path d="M1.62699 9.34961H10.8597V11.9374L7.37918 12.2087C1.77288 12.6261 0.0222168 14.1079 0.0222168 18.2818V19.1166C0.0222168 22.1635 2.14803 24 5.44094 24C8.02526 24 9.52583 23.3948 11.3599 21.5166H11.6725V23.4992H15.3822V5.28003H1.62699V9.34961ZM10.8597 18.1357C9.71342 19.2835 8.00443 20.0348 6.58723 20.0348C5.06582 20.0348 4.41972 19.4713 4.4614 18.1983C4.50308 16.4453 5.14915 16.0279 8.0878 15.7566L10.8805 15.4853V18.1357H10.8597Z" fill="#F18618"/>
<path fill-rule="evenodd" clip-rule="evenodd" d="M23.3091 5.42539H30.4738V9.11131H34.3913V23.503H29.8243V9.48403H23.3091V23.503H18.7422V0H23.3091V5.42539ZM90.0116 12.7144L87.2464 12.4452C85.7171 12.3002 85.3398 11.9068 85.3398 10.7058C85.3398 9.33907 85.8846 9.00778 88.0216 9.00778C89.9276 9.00778 90.4724 9.31838 90.7446 10.6022H95.0396C94.9345 6.27437 93.5728 5.1769 88.252 5.1769C82.4281 5.1769 80.9617 6.27437 80.9617 10.7058C80.9617 14.7645 82.0297 15.8619 86.3665 16.2761L88.6288 16.4832C90.6611 16.6695 91.1636 17.0423 91.1636 18.264C91.1636 19.7342 90.5564 20.1277 88.0633 20.1277C85.8846 20.1277 85.298 19.7964 85.1934 18.3883H80.8566C80.9617 22.8611 82.3441 24 87.8747 24C94.0129 24 95.5422 22.7783 95.5422 17.8499C95.5422 14.1846 94.432 13.1286 90.0116 12.7144ZM66.5276 13.0457C66.5276 7.20619 64.4953 5.15616 58.6715 5.15616C52.9105 5.15616 50.6689 7.80672 50.6689 14.4124C50.6689 21.6186 52.659 24 59.1116 24C63.7412 24 65.7107 22.5919 66.3596 18.6575H61.9604C61.4579 19.8792 60.9342 20.1484 59.0488 20.1484C56.2206 20.1484 55.4872 19.3615 55.3196 15.9862H66.255C66.4225 14.9922 66.5065 14.019 66.5276 13.0457ZM55.3408 12.4038C55.3825 9.85675 56.4088 8.92493 58.8601 8.92493C61.2064 8.92493 62.1491 9.87749 62.2331 12.4038H55.3408ZM69.1878 6.23294V23.5237H73.755V9.31838H79.2438V5.44608H73.755V4.94909C73.7968 3.89301 74.0694 3.5824 74.9492 3.5824H79.935V0.0207088H74.572C70.9057 1.26243e-06 69.1878 1.11821 69.1878 6.23294ZM42.2892 23.503H37.7222V5.42539H49.0768V9.67042H42.2892V23.503Z" fill="#1F49D2"/>
</g>
<defs>
<clipPath id="clip0_1320_11621">
<rect width="95.52" height="24" fill="white" transform="translate(0.0222168)"/>
</clipPath>
</defs>
</svg>
