<svg width="114" height="24" viewBox="0 0 114 24" fill="none" xmlns="http://www.w3.org/2000/svg">
<g clip-path="url(#clip0_1320_11624)">
<path d="M45.3502 12.571L43.4054 7.39451C43.3874 7.34787 43.3557 7.30776 43.3145 7.27947C43.2733 7.25119 43.2245 7.23604 43.1745 7.23604C43.1245 7.23604 43.0757 7.25119 43.0344 7.27947C42.9932 7.30776 42.9616 7.34787 42.9436 7.39451L40.9987 12.5719C40.9853 12.6086 40.981 12.6481 40.9862 12.6868C40.9915 12.7256 41.0061 12.7625 41.0289 12.7943C41.0516 12.8262 41.0818 12.8519 41.1168 12.8695C41.1519 12.8869 41.1906 12.8955 41.2296 12.8946H45.1359C45.194 12.8953 45.2502 12.8739 45.2933 12.8347C45.3362 12.7956 45.3628 12.7415 45.3676 12.6836C45.3712 12.6455 45.3653 12.6071 45.3502 12.5719V12.571ZM46.2564 15.4759H40.0925C40.0423 15.4762 39.9932 15.4918 39.952 15.5206C39.9108 15.5494 39.8793 15.5902 39.8616 15.6372L38.6418 18.8665C38.6242 18.9135 38.5929 18.954 38.5518 18.9828C38.5108 19.0117 38.4619 19.0274 38.4117 19.0279H35.7394C35.6986 19.0284 35.6583 19.0188 35.6222 19C35.586 18.981 35.5551 18.9535 35.5323 18.9196C35.5094 18.8858 35.4954 18.8468 35.4914 18.8062C35.4874 18.7655 35.4936 18.7246 35.5094 18.6869L41.6567 3.59754C41.6751 3.55189 41.7073 3.51315 41.7489 3.48686C41.7905 3.46057 41.8393 3.44804 41.8884 3.45106H44.4423C44.4908 3.45136 44.5383 3.46525 44.5792 3.49114C44.6202 3.51704 44.653 3.5539 44.6741 3.59754L50.8205 18.6869C50.8363 18.7246 50.8426 18.7658 50.8385 18.8065C50.8344 18.8472 50.8203 18.8863 50.7975 18.9202C50.7745 18.954 50.7436 18.9818 50.7072 19.0007C50.671 19.0197 50.6306 19.0293 50.5896 19.0287H47.9215C47.8711 19.0283 47.822 19.0126 47.7808 18.9836C47.7396 18.9546 47.7082 18.9138 47.6906 18.8665L46.4707 15.6372C46.4592 15.5897 46.4315 15.5475 46.3925 15.518C46.3534 15.4884 46.3054 15.4733 46.2564 15.475V15.4759ZM52.0909 8.74097H54.3825C54.4472 8.74222 54.5089 8.76829 54.5549 8.81372C54.601 8.85907 54.6279 8.92048 54.6299 8.98511V18.7862C54.6279 18.8508 54.601 18.9119 54.5549 18.9571C54.5088 19.0022 54.447 19.0279 54.3825 19.0287H52.0917C52.0271 19.0281 51.9652 19.0025 51.9189 18.9574C51.8727 18.9122 51.8456 18.8508 51.8434 18.7862V8.98511C51.8431 8.95259 51.8493 8.9204 51.8617 8.89035C51.8741 8.86031 51.8925 8.83309 51.9157 8.81024C51.9389 8.78749 51.9664 8.76961 51.9966 8.75769C52.0269 8.74577 52.0593 8.74006 52.0917 8.74097H52.0909ZM62.9703 11.1261C62.9684 11.1909 62.9417 11.2524 62.8956 11.298C62.8496 11.3436 62.7878 11.3698 62.7229 11.371H62.6567C61.5196 11.371 60.6953 11.6292 60.1681 12.1655C59.641 12.7018 59.377 13.5774 59.377 14.8088V18.7688C59.3749 18.8334 59.3482 18.8946 59.3023 18.9401C59.2565 18.9854 59.1949 19.0116 59.1303 19.013H56.871C56.8066 19.0116 56.745 18.9854 56.6991 18.9401C56.6533 18.8946 56.6266 18.8334 56.6244 18.7688V8.98511C56.6266 8.92048 56.6534 8.85907 56.6995 8.81372C56.7455 8.76829 56.8072 8.74222 56.8719 8.74097H59.113C59.1778 8.74205 59.2397 8.76795 59.286 8.81339C59.3322 8.85882 59.3592 8.92031 59.3612 8.98511V10.9159H59.4101C59.639 10.1825 60.0876 9.53711 60.6953 9.06704C61.3306 8.61899 62.095 8.39107 62.8719 8.41822H62.9869V11.1269H62.9703V11.1261ZM69.217 11.0301C69.1527 11.0312 69.0913 11.0567 69.0455 11.1017C68.9995 11.1467 68.9727 11.2075 68.9703 11.2717V15.3451C68.9397 15.6637 69.0274 15.9815 69.217 16.2389C69.3825 16.416 69.6622 16.4971 70.0743 16.4971H70.3052C70.3698 16.4986 70.4313 16.5247 70.4772 16.5701C70.5231 16.6155 70.5498 16.6768 70.5519 16.7412V18.7854C70.5498 18.8498 70.523 18.9108 70.477 18.956C70.4312 19.0011 70.3696 19.0269 70.3052 19.0279H69.3336C68.3273 19.0279 67.5535 18.768 67.0098 18.2648C66.4652 17.7468 66.2021 16.9995 66.2021 15.9782V11.2717C66.1997 11.2073 66.1727 11.1462 66.1264 11.1012C66.0802 11.0561 66.0183 11.0307 65.9538 11.0301H64.5204C64.4558 11.0287 64.3941 11.0024 64.3483 10.9568C64.3023 10.9112 64.2757 10.8497 64.2738 10.7851V8.98511C64.2757 8.92056 64.3024 8.85915 64.3483 8.81372C64.3942 8.76829 64.4559 8.74222 64.5204 8.74097H65.9546C66.0192 8.74015 66.0809 8.71449 66.127 8.66939C66.1731 8.6242 66.2 8.56304 66.2021 8.49849V4.86292C66.2042 4.79844 66.2311 4.73725 66.2772 4.69208C66.3233 4.64691 66.385 4.62126 66.4495 4.62044H68.7403C68.8048 4.62126 68.8666 4.64691 68.9127 4.69208C68.9587 4.73725 68.9856 4.79844 68.9877 4.86292V8.49849C68.9899 8.56304 69.0168 8.6242 69.0629 8.66939C69.109 8.71449 69.1707 8.74015 69.2352 8.74097H70.8829C70.9476 8.74222 71.0093 8.76829 71.0554 8.81372C71.1015 8.85907 71.1283 8.92048 71.1303 8.98511V10.7851C71.1284 10.8499 71.1017 10.9115 71.0556 10.9571C71.0096 11.0027 70.9478 11.0288 70.8829 11.0301H69.217ZM79.6834 15.9625C79.947 15.6837 80.1514 15.3545 80.2846 14.9947C80.4177 14.6349 80.4767 14.2519 80.4581 13.8687C80.4728 13.4859 80.412 13.104 80.2791 12.7448C80.1461 12.3855 79.9438 12.056 79.6834 11.7749C79.1255 11.264 78.3963 10.9807 77.6397 10.9807C76.8831 10.9807 76.154 11.264 75.596 11.7749C75.3325 12.0537 75.128 12.3829 74.9949 12.7427C74.8618 13.1025 74.8027 13.4855 74.8214 13.8687C74.8067 14.2515 74.8675 14.6334 75.0005 14.9926C75.1334 15.3519 75.3357 15.6814 75.596 15.9625C75.8635 16.2288 76.1832 16.4369 76.535 16.5736C76.8868 16.7103 77.2631 16.7728 77.6401 16.757C78.0178 16.778 78.3956 16.718 78.7482 16.581C79.1008 16.444 79.4199 16.2331 79.6843 15.9625H79.6834ZM74.4084 18.7051C73.6344 18.2663 73.0047 17.6119 72.596 16.8215C72.1618 15.8976 71.9367 14.8892 71.9367 13.8683C71.9367 12.8474 72.1618 11.839 72.596 10.915C73.0097 10.1285 73.6382 9.47562 74.4084 9.03228C75.1824 8.59673 76.0577 8.37295 76.9458 8.38346C77.672 8.36566 78.3912 8.52771 79.0396 8.85518C79.6127 9.15866 80.0916 9.6135 80.4241 10.1702H80.4738V8.96691C80.4761 8.9026 80.503 8.84169 80.5488 8.79659C80.5947 8.75148 80.6561 8.72566 80.7204 8.72442H82.9789C83.0434 8.7255 83.105 8.75115 83.151 8.79634C83.197 8.84144 83.224 8.90252 83.2263 8.96691V18.7672C83.2244 18.8321 83.1976 18.8938 83.1514 18.9395C83.1051 18.9851 83.043 19.0112 82.9781 19.0121H80.7221C80.6573 19.0109 80.5954 18.9848 80.5493 18.9392C80.5033 18.8936 80.4765 18.832 80.4746 18.7672V17.5672H80.425C80.0924 18.1245 79.6133 18.5796 79.0396 18.883C78.3908 19.2093 77.6718 19.371 76.9458 19.3539C76.0577 19.3645 75.1824 19.1408 74.4084 18.7051ZM92.6386 15.9625C92.9017 15.6837 93.1062 15.3545 93.2394 14.9946C93.3726 14.6349 93.4314 14.2519 93.4132 13.8687C93.4281 13.4859 93.3668 13.104 93.2344 12.7448C93.1012 12.3855 92.8984 12.056 92.6386 11.7749C92.0808 11.2638 91.3508 10.9803 90.5944 10.9803C89.838 10.9803 89.1081 11.2638 88.5503 11.7749C88.2871 12.0539 88.0827 12.3831 87.9495 12.7428C87.817 13.1027 87.7575 13.4856 87.7765 13.8687C87.7616 14.2515 87.8228 14.6334 87.9552 14.9926C88.0885 15.3519 88.2904 15.6814 88.5511 15.9625C88.8184 16.2288 89.1379 16.4369 89.4904 16.5736C89.8421 16.7103 90.2179 16.7728 90.5953 16.757C90.9726 16.7779 91.3508 16.7178 91.7034 16.5809C92.0559 16.4438 92.3746 16.233 92.6394 15.9625H92.6386ZM89.2107 18.8822C88.6372 18.5787 88.158 18.1235 87.8253 17.5664H87.7757V18.768C87.7732 18.8326 87.7467 18.8938 87.7012 18.9392C87.6548 18.9846 87.5936 19.0107 87.529 19.0121H85.2375C85.1729 19.0107 85.1117 18.9846 85.0653 18.9392C85.0198 18.8938 84.9925 18.8326 84.9908 18.768V3.67782C84.9925 3.61339 85.0198 3.55223 85.0653 3.50696C85.1117 3.46168 85.1729 3.43575 85.2375 3.43451H87.529C87.5936 3.43553 87.6548 3.46126 87.7012 3.50638C87.7475 3.5515 87.774 3.61257 87.7765 3.67699V10.1851H87.8261C88.1588 9.62864 88.638 9.17364 89.2107 8.86925C89.8595 8.54318 90.5779 8.38147 91.3037 8.39835C92.1917 8.38768 93.0673 8.61237 93.841 9.04966C94.6148 9.48762 95.2446 10.1412 95.6535 10.9308C96.1169 11.8443 96.3437 12.8596 96.3139 13.8836C96.3346 14.9069 96.1086 15.92 95.6543 16.8372C95.2405 17.6243 94.6115 18.2772 93.8419 18.72C93.0673 19.1556 92.1917 19.3795 91.3037 19.3688C90.577 19.3748 89.8587 19.2075 89.2099 18.8806L89.2107 18.8822ZM100.171 19.0138H97.8813C97.8168 19.0128 97.7547 18.9867 97.7084 18.9411C97.662 18.8954 97.6355 18.8337 97.6339 18.7688V3.67865C97.6364 3.61394 97.6628 3.55254 97.7092 3.50722C97.7555 3.4619 97.8176 3.43616 97.8822 3.43534H100.172C100.237 3.43677 100.298 3.46265 100.343 3.5077C100.389 3.55276 100.416 3.61361 100.419 3.67782V18.768C100.42 18.8156 100.406 18.8623 100.381 18.9022C100.355 18.9422 100.318 18.9736 100.274 18.9923C100.242 19.0063 100.207 19.0131 100.172 19.0121V19.0138H100.171ZM105.561 11.1112C105.162 11.4296 104.888 11.8777 104.787 12.3774C104.779 12.4135 104.781 12.4507 104.79 12.4863C104.799 12.5219 104.816 12.555 104.84 12.583C104.864 12.6111 104.893 12.6334 104.927 12.6484C104.96 12.6634 104.998 12.6706 105.034 12.6695H109.386C109.42 12.6697 109.455 12.6623 109.487 12.6481C109.52 12.6339 109.548 12.613 109.571 12.5869C109.595 12.5608 109.612 12.53 109.623 12.4966C109.634 12.4632 109.637 12.428 109.633 12.3931C109.567 11.9081 109.326 11.4637 108.956 11.1435C108.479 10.7644 107.884 10.5683 107.275 10.5906C106.663 10.5741 106.061 10.7561 105.561 11.1104L105.561 11.1112H105.561ZM111.133 9.8458C112.022 10.8017 112.468 12.1531 112.467 13.901V14.1948C112.464 14.2592 112.438 14.3203 112.391 14.3654C112.345 14.4105 112.284 14.4363 112.219 14.4372H104.952C104.916 14.438 104.88 14.4464 104.848 14.4618C104.815 14.4773 104.786 14.4996 104.763 14.527C104.739 14.5546 104.721 14.5868 104.711 14.6216C104.701 14.6563 104.699 14.6927 104.704 14.7286C104.798 15.3363 105.109 15.8897 105.579 16.2869C106.156 16.7382 106.875 16.9681 107.606 16.9349C108.699 16.9197 109.744 16.484 110.524 15.7184C110.549 15.6948 110.58 15.6773 110.613 15.667C110.647 15.6566 110.682 15.6537 110.716 15.6584C110.751 15.6632 110.784 15.6754 110.813 15.6944C110.843 15.7133 110.868 15.7385 110.886 15.768L111.99 17.3412C112.021 17.3915 112.036 17.4507 112.029 17.5096C112.023 17.5684 111.997 17.6237 111.957 17.6665C111.409 18.1336 110.806 18.5316 110.161 18.8516C109.357 19.2099 108.485 19.387 107.605 19.3705C106.575 19.3939 105.555 19.1592 104.639 18.6877C103.813 18.2538 103.131 17.5887 102.677 16.7735C102.197 15.8994 101.953 14.9154 101.969 13.9184C101.951 12.9196 102.183 11.9323 102.645 11.0466C103.078 10.2342 103.736 9.56393 104.54 9.1167C105.414 8.64009 106.396 8.39935 107.392 8.41822C109.007 8.39918 110.243 8.88663 111.133 9.84497V9.8458ZM54.9262 5.10872C54.9309 5.44123 54.837 5.76768 54.6562 6.04679C54.4753 6.3259 54.2159 6.54514 53.9105 6.67679C53.6051 6.80844 53.2675 6.8466 52.9405 6.78644C52.6134 6.72627 52.3115 6.57049 52.073 6.33877C51.8345 6.10707 51.67 5.80983 51.6004 5.48466C51.5307 5.15948 51.5591 4.82096 51.6818 4.51189C51.8045 4.20281 52.0162 3.93707 52.2899 3.74825C52.5637 3.55942 52.8873 3.45601 53.2197 3.45106H53.228C53.6717 3.44901 54.0983 3.62139 54.416 3.93101C54.7336 4.24064 54.9169 4.66272 54.9262 5.10623V5.10789V5.10872Z" fill="#181D26"/>
<path d="M13.642 0.294393L3.24436 4.59676C2.66631 4.83622 2.67214 5.6575 3.25414 5.88813L13.6952 10.0286C14.6126 10.3924 15.6342 10.3924 16.5516 10.0286L26.9927 5.88813C27.5745 5.6575 27.5806 4.83622 27.0023 4.59692L16.6048 0.294393C15.6562 -0.0981308 14.5906 -0.0981308 13.642 0.294393Z" fill="#FCB400"/>
<path d="M16.0498 12.2894V22.6331C16.0498 23.1248 16.5459 23.4619 17.0032 23.2806L28.6377 18.7646C28.7675 18.7132 28.8788 18.624 28.9572 18.5085C29.0356 18.393 29.0775 18.2566 29.0775 18.1171V7.77358C29.0775 7.2816 28.5814 6.94473 28.1241 7.12601L16.4896 11.642C16.3598 11.6935 16.2486 11.7827 16.1701 11.8982C16.0918 12.0136 16.0498 12.1499 16.0498 12.2896" fill="#18BFFF"/>
<path d="M13.333 12.823L9.88011 14.4902L9.52955 14.6597L2.24072 18.1521C1.77884 18.375 1.18896 18.0383 1.18896 17.525V7.81681C1.18896 7.63111 1.28418 7.47079 1.41186 7.35021C1.46424 7.29804 1.52367 7.25347 1.58841 7.21779C1.76245 7.11328 2.01088 7.08538 2.22211 7.16892L13.275 11.5484C13.8368 11.7712 13.8809 12.5585 13.333 12.8232" fill="#F82B60"/>
<path d="M13.3329 12.823L9.88008 14.4902L1.41187 7.35005C1.46426 7.29794 1.52369 7.25342 1.58842 7.21779C1.76245 7.11328 2.01089 7.08538 2.22212 7.16892L13.275 11.5484C13.8368 11.7712 13.8809 12.5585 13.3329 12.8232" fill="black" fill-opacity="0.25"/>
</g>
<defs>
<clipPath id="clip0_1320_11624">
<rect width="112.552" height="24" fill="white" transform="translate(0.542236)"/>
</clipPath>
</defs>
</svg>
