<svg width="160" height="24" viewBox="0 0 160 24" fill="none" xmlns="http://www.w3.org/2000/svg">
<g clip-path="url(#clip0_1320_11889)">
<path d="M1.60391 2.69317C1.49994 2.69183 1.39694 2.71327 1.30214 2.75597C1.20734 2.79867 1.12303 2.86161 1.05514 2.94036C0.987255 3.01911 0.937427 3.11177 0.909159 3.21183C0.88089 3.31189 0.874867 3.41692 0.891512 3.51955L3.91563 21.878C3.95331 22.1026 4.06894 22.3068 4.24222 22.4547C4.41549 22.6026 4.63533 22.6847 4.86312 22.6866H19.3711C19.5418 22.6888 19.7077 22.6295 19.8385 22.5197C19.9692 22.4099 20.0562 22.2567 20.0835 22.0881L23.1147 3.52668C23.1314 3.42404 23.1253 3.31901 23.0971 3.21895C23.0688 3.11889 23.019 3.02624 22.9511 2.94748C22.8832 2.86873 22.7989 2.8058 22.7041 2.76309C22.6093 2.72039 22.5063 2.69896 22.4023 2.7003L1.60391 2.69317ZM14.338 15.9615H9.70741L8.45359 9.41463H15.46L14.338 15.9615Z" fill="#2684FF"/>
<path d="M22.1458 9.41455H15.46L14.338 15.9615H9.70738L4.23975 22.455C4.41305 22.6048 4.634 22.6881 4.86309 22.69H19.3746C19.5454 22.6922 19.7112 22.633 19.842 22.5232C19.9727 22.4134 20.0597 22.2602 20.087 22.0916L22.1458 9.41455Z" fill="url(#paint0_linear_1320_11889)"/>
<path d="M42.5203 2.09497C46.7199 2.09497 48.7574 4.16448 48.7574 7.48781C48.7574 9.98119 47.6282 11.4986 45.3094 12.0649C48.3513 12.5672 49.8545 14.2271 49.8545 17.1443C49.8545 20.4356 47.6282 22.6939 43.0226 22.6939H34.5273V2.09497H42.5203ZM37.3484 4.79139V10.9322H42.1428C44.8071 10.9322 45.9042 9.71048 45.9042 7.72646C45.9042 5.74244 44.7145 4.7807 42.1428 4.7807L37.3484 4.79139ZM37.3484 13.4434V19.855H43.1152C45.8116 19.855 47.0334 18.8826 47.0334 16.8131C47.0334 14.6189 45.8722 13.4292 43.0546 13.4292L37.3484 13.4434Z" fill="#253858"/>
<path d="M54.4638 0.997896C54.7155 0.979892 54.968 1.01619 55.2043 1.10434C55.4407 1.19249 55.6553 1.33042 55.8337 1.50879C56.0121 1.68716 56.15 1.90179 56.2381 2.13813C56.3263 2.37448 56.3626 2.62701 56.3446 2.87862C56.3446 3.37742 56.1464 3.85579 55.7937 4.20849C55.441 4.5612 54.9626 4.75934 54.4638 4.75934C53.965 4.75934 53.4867 4.5612 53.134 4.20849C52.7813 3.85579 52.5831 3.37742 52.5831 2.87862C52.5651 2.62701 52.6014 2.37448 52.6896 2.13813C52.7777 1.90179 52.9156 1.68716 53.094 1.50879C53.2724 1.33042 53.487 1.19249 53.7234 1.10434C53.9597 1.01619 54.2122 0.979892 54.4638 0.997896ZM53.0854 7.01408H55.7818V22.6868H53.0854V7.01408Z" fill="#253858"/>
<path d="M66.076 20.0578C66.6459 20.0408 67.2127 19.9668 67.7679 19.837V22.4372C67.1772 22.606 66.5656 22.69 65.9513 22.6866C62.5959 22.6866 60.9645 20.7132 60.9645 17.796V9.52149H58.4248V7.0281H60.9645V3.69409H63.5826V7.01742H67.7501V9.5108H63.5826V17.7354C63.5826 19.1139 64.3983 20.0578 66.076 20.0578Z" fill="#253858"/>
<path d="M78.881 23.0001C76.5942 23.0001 74.8381 21.9671 73.8942 19.9297V22.6867H71.1978V0.467041H73.912V9.83504C74.9165 7.76553 76.7972 6.7005 79.2087 6.7005C83.3762 6.7005 85.4777 10.2411 85.4777 14.8503C85.4635 19.2707 83.2693 23.0001 78.881 23.0001ZM78.4713 9.20814C76.0492 9.20814 73.912 10.7469 73.912 14.2234V15.4772C73.912 18.9573 75.8853 20.4925 78.1864 20.4925C81.2283 20.4925 82.7956 18.4871 82.7956 14.8503C82.7671 11.0889 81.2639 9.20814 78.4713 9.20814Z" fill="#253858"/>
<path d="M88.2847 7.01392H90.9811V16.4959C90.9811 19.317 92.1102 20.5708 94.6784 20.5708C97.1718 20.5708 98.9101 18.9109 98.9101 15.7443V7.01392H101.607V22.6866H98.9101V20.1184C98.43 21.0082 97.7138 21.7483 96.8403 22.2574C95.9667 22.7664 94.9697 23.0246 93.9589 23.0036C90.3542 23.0036 88.2847 20.5103 88.2847 16.2003V7.01392Z" fill="#253858"/>
<path d="M116.745 22.2807C115.805 22.7829 114.362 22.9931 112.92 22.9931C107.342 22.9931 104.727 19.6092 104.727 14.8005C104.727 10.0667 107.327 6.68278 112.92 6.68278C114.208 6.64621 115.488 6.91088 116.656 7.45573V9.94911C115.543 9.4284 114.323 9.17471 113.094 9.20822C109.019 9.20822 107.359 11.78 107.359 14.8183C107.359 17.8567 109.066 20.4142 113.173 20.4142C114.384 20.4462 115.592 20.2554 116.735 19.8514L116.745 22.2807Z" fill="#253858"/>
<path d="M119.819 22.6867V0.467041H122.515V14.3588L129.255 7.02464H132.767L125.397 14.715L133.077 22.6867H129.408L122.512 15.3525V22.6867H119.819Z" fill="#253858"/>
<path d="M142.01 23C136.147 23 133.579 19.6161 133.579 14.8074C133.579 10.0736 136.211 6.6897 140.977 6.6897C145.803 6.6897 147.745 10.0451 147.745 14.8074V16.0292H136.304C136.681 18.6936 138.405 20.4176 142.103 20.4176C143.729 20.4161 145.342 20.1291 146.868 19.5698V22.0632C145.583 22.7507 143.609 23 142.01 23ZM136.275 13.7389H145.02C144.863 10.8252 143.545 9.16171 140.852 9.16171C137.996 9.14746 136.557 10.9961 136.275 13.7246V13.7389Z" fill="#253858"/>
<path d="M157.149 20.0578C157.719 20.0408 158.286 19.9668 158.841 19.837V22.4372C158.25 22.606 157.638 22.69 157.024 22.6866C153.669 22.6866 152.037 20.7132 152.037 17.796V9.52149H149.498V7.0281H152.037V3.69409H154.67V7.01742H158.837V9.5108H154.67V17.7354C154.673 19.1139 155.482 20.0578 157.149 20.0578Z" fill="#253858"/>
</g>
<defs>
<linearGradient id="paint0_linear_1320_11889" x1="23.6917" y1="11.2454" x2="12.6425" y2="19.8725" gradientUnits="userSpaceOnUse">
<stop offset="0.18" stop-color="#0052CC"/>
<stop offset="1" stop-color="#2684FF"/>
</linearGradient>
<clipPath id="clip0_1320_11889">
<rect width="159" height="24" fill="white" transform="translate(0.275879)"/>
</clipPath>
</defs>
</svg>
