<svg width="100" height="24" viewBox="0 0 100 24" fill="none" xmlns="http://www.w3.org/2000/svg">
<g clip-path="url(#clip0_1320_11726)">
<path d="M59.2318 9.45802C60.7724 9.45802 62.2312 10.4004 62.5391 12.4367H55.6783C55.9655 10.6499 57.3012 9.45802 59.2318 9.45802ZM62.3198 15.4492C61.7958 16.266 60.783 16.8942 59.3964 16.8942C57.4859 16.8942 56.027 15.8469 55.6783 13.9979H64.2857C64.3271 13.7329 64.3485 13.4651 64.3485 13.1969C64.3485 10.3213 62.338 7.77362 59.2331 7.77362C56.0289 7.77362 53.8513 10.1359 53.8513 13.1768C53.8513 16.2553 56.0503 18.5799 59.3562 18.5799C61.4107 18.5799 62.9719 17.6551 63.8754 16.2553L62.3198 15.4492Z" fill="#006BFF"/>
<path d="M53.0056 3.31598H51.2188V18.3122H53.0056V3.31598Z" fill="#006BFF"/>
<path d="M74.291 12.0056V18.3116H72.5035V12.108C72.5035 10.4236 71.5385 9.47872 69.9565 9.47872C68.3129 9.47872 66.9779 10.4444 66.9779 12.8682V18.3116H65.1904V8.04186H66.9779V9.52081C67.7381 8.30887 68.8677 7.77484 70.3077 7.77484C72.7108 7.77484 74.2928 9.37694 74.2928 12.0069" fill="#006BFF"/>
<path d="M84.1455 13.1761C84.1455 11.0808 82.5635 9.49881 80.4889 9.49881C78.4345 9.49881 76.8531 11.0808 76.8531 13.1761C76.8531 15.2714 78.4345 16.8534 80.4889 16.8534C82.5622 16.8534 84.1455 15.2714 84.1455 13.1761ZM85.9323 3.31598V18.3122H84.1455V16.5449C83.3237 17.8014 82.0093 18.5792 80.2627 18.5792C77.4072 18.5792 75.0657 16.2163 75.0657 13.1761C75.0657 10.1359 77.4072 7.77294 80.2627 7.77294C82.0087 7.77294 83.3237 8.55326 84.1455 9.80666V3.31598H85.9323Z" fill="#006BFF"/>
<path d="M89.1603 3.31598H87.3735V18.3122H89.1603V3.31598Z" fill="#006BFF"/>
<path d="M48.0334 13.1761C48.0334 11.0808 46.452 9.49881 44.3769 9.49881C42.323 9.49881 40.741 11.0808 40.741 13.1761C40.741 15.2714 42.323 16.8534 44.3769 16.8534C46.4502 16.8534 48.0334 15.2714 48.0334 13.1761ZM49.8208 8.04185V18.3116H48.0334V16.5449C47.2116 17.8014 45.8973 18.5792 44.1513 18.5792C41.2958 18.5792 38.9536 16.2163 38.9536 13.1761C38.9536 10.1359 41.2958 7.77295 44.1513 7.77295C45.8973 7.77295 47.2116 8.55326 48.0334 9.80667V8.04185H49.8208Z" fill="#006BFF"/>
<path d="M36.303 16.3351C35.3882 16.6726 34.4007 16.7638 33.4395 16.5994C32.4784 16.4349 31.5773 16.0207 30.8268 15.3982C30.0762 14.7757 29.5025 13.9669 29.1631 13.0527C28.8238 12.1385 28.7306 11.1512 28.8932 10.1897C29.0558 9.22824 29.4682 8.32641 30.0892 7.57462C30.7103 6.82277 31.518 6.24749 32.4315 5.90633C33.3451 5.56518 34.3321 5.47017 35.294 5.63084C36.2558 5.79152 37.1584 6.20222 37.9114 6.82176C38.2254 7.08086 38.5095 7.3742 38.7583 7.69632L40.3045 6.56543C39.4037 5.38786 38.1736 4.50422 36.7701 4.02653C35.3665 3.54884 33.8528 3.4986 32.4207 3.88218C30.9885 4.26576 29.7025 5.06588 28.7257 6.18114C27.7488 7.29642 27.125 8.67661 26.9334 10.1468C26.7418 11.6169 26.991 13.1108 27.6493 14.4393C28.3078 15.7677 29.3457 16.8707 30.6317 17.6085C31.9176 18.3464 33.3937 18.6857 34.8728 18.5838C36.3518 18.4817 37.7673 17.9429 38.9399 17.0356L37.9108 15.4084C37.43 15.8044 36.8867 16.1176 36.303 16.3351Z" fill="#006BFF"/>
<path d="M97.7864 8.04187V13.871C97.7864 15.7558 96.6901 16.9495 95.0163 16.9495C93.3426 16.9495 92.1307 15.7558 92.1307 13.871V8.04187H90.3225V13.6963C90.3225 16.6593 92.169 18.583 95.0163 18.583C97.4792 18.583 97.8637 17.0249 97.8637 16.986V19.0831C97.8637 21.1608 96.9596 22.3344 95.0741 22.3344C94.4006 22.3378 93.7491 22.0961 93.2402 21.6546C92.7319 21.2131 92.4008 20.6017 92.3097 19.9344L90.6932 20.4999C90.9244 21.4885 91.4836 22.3696 92.2802 22.9996C93.0762 23.6297 94.062 23.9717 95.0773 23.9698C98.0013 23.9698 99.6008 22.0454 99.6008 19.0831V8.04187H97.7864Z" fill="#006BFF"/>
<path d="M14.8205 14.0249C14.1338 14.6343 13.2762 15.3927 11.7212 15.3927H10.7914C9.66613 15.3927 8.64268 14.9837 7.91011 14.2423C7.19451 13.5179 6.80058 12.5265 6.80058 11.4503V10.178C6.80058 9.10177 7.19451 8.11036 7.91011 7.38596C8.64268 6.6446 9.66613 6.23622 10.7914 6.23622H11.7212C13.2781 6.23622 14.1338 6.99392 14.8205 7.60334C15.5336 8.23162 16.1486 8.78073 17.7891 8.78073C18.0392 8.78066 18.289 8.76068 18.5361 8.72104L18.5304 8.70659C18.4322 8.46257 18.3169 8.22577 18.1855 7.9979L17.0892 6.09863C16.5948 5.24244 15.8837 4.53147 15.0275 4.03718C14.1712 3.54288 13.1999 3.28267 12.2113 3.28271H10.018C9.02925 3.28267 8.05801 3.54288 7.20173 4.03718C6.34551 4.53147 5.63445 5.24244 5.14006 6.09863L4.04372 7.9979C3.54949 8.85417 3.28931 9.82548 3.28931 10.8141C3.28931 11.8028 3.54949 12.7741 4.04372 13.6304L5.14006 15.5296C5.63445 16.3858 6.34551 17.0968 7.20173 17.5911C8.05801 18.0854 9.02925 18.3456 10.018 18.3455H12.2113C13.1999 18.3456 14.1712 18.0854 15.0275 17.5911C15.8837 17.0968 16.5948 16.3858 17.0892 15.5296L18.1855 13.6335C18.3169 13.4056 18.4322 13.1688 18.5304 12.9248L18.5361 12.911C18.2892 12.87 18.0394 12.849 17.7891 12.8482C16.1486 12.8482 15.5336 13.3941 14.8205 14.0255" fill="#006BFF"/>
<path d="M11.7214 7.3891H10.7915C9.07885 7.3891 7.95361 8.61234 7.95361 10.178V11.4503C7.95361 13.0159 9.07885 14.2392 10.7915 14.2392H11.7214C14.2169 14.2392 14.0208 11.6946 17.7892 11.6946C18.1463 11.6943 18.5026 11.7271 18.8535 11.7927C18.9679 11.1453 18.9679 10.483 18.8535 9.83559C18.5025 9.90087 18.1463 9.93366 17.7892 9.9336C14.0196 9.9336 14.2169 7.3891 11.7214 7.3891Z" fill="#006BFF"/>
<path d="M21.0186 12.7225C20.3768 12.2525 19.6367 11.9343 18.8542 11.792C18.8542 11.7989 18.8542 11.8046 18.8542 11.8109C18.7868 12.186 18.6815 12.5533 18.54 12.9072C19.1865 13.0073 19.7999 13.2599 20.3293 13.6442C20.3293 13.6492 20.3262 13.6555 20.3243 13.6611C19.6428 15.8677 18.1925 17.7567 16.2367 18.9849C14.281 20.2131 11.9495 20.6991 9.66593 20.3545C7.38235 20.0099 5.29809 18.8576 3.79182 17.107C2.28555 15.3564 1.45717 13.1236 1.45717 10.8141C1.45717 8.50464 2.28555 6.27183 3.79182 4.52121C5.29809 2.77059 7.38235 1.61833 9.66593 1.27374C11.9495 0.929148 14.281 1.41509 16.2367 2.64329C18.1925 3.8715 19.6428 5.76048 20.3243 7.96709C20.3243 7.97275 20.3275 7.97903 20.3293 7.98405C19.8 8.36831 19.1865 8.62075 18.54 8.72039C18.6814 9.07474 18.7866 9.44246 18.8542 9.81798C18.8538 9.82382 18.8538 9.82973 18.8542 9.83557C19.6367 9.69352 20.3768 9.37555 21.0186 8.90573C21.6355 8.44898 21.5161 7.93316 21.4225 7.62782C20.6598 5.15376 19.0347 3.03544 16.8426 1.65781C14.6506 0.280172 12.0371 -0.26536 9.47701 0.120344C6.91692 0.506047 4.58014 1.79739 2.89131 3.75972C1.20248 5.72204 0.273682 8.22512 0.273682 10.8141C0.273682 13.4031 1.20248 15.9062 2.89131 17.8685C4.58014 19.8308 6.91692 21.1222 9.47701 21.5079C12.0371 21.8936 14.6506 21.348 16.8426 19.9704C19.0347 18.5927 20.6598 16.4745 21.4225 14.0004C21.5161 13.695 21.6355 13.1792 21.0186 12.7225Z" fill="#006BFF"/>
<path d="M18.536 8.7204C18.2891 8.76143 18.0393 8.78241 17.789 8.78323C16.1486 8.78323 15.5335 8.23726 14.8211 7.60585C14.1337 6.99642 13.278 6.2381 11.7212 6.2381H10.7913C9.66546 6.2381 8.64263 6.6471 7.91007 7.38846C7.19446 8.11286 6.80054 9.10428 6.80054 10.1805V11.4528C6.80054 12.529 7.19446 13.5204 7.91007 14.2448C8.64263 14.9862 9.66546 15.3945 10.7913 15.3945H11.7212C13.278 15.3945 14.1337 14.6368 14.8211 14.0274C15.5335 13.3991 16.1486 12.85 17.789 12.85C18.0392 12.8501 18.289 12.8701 18.536 12.9097C18.6778 12.5559 18.7831 12.1886 18.8502 11.8134C18.8505 11.8071 18.8505 11.8008 18.8502 11.7945C18.4992 11.7294 18.1429 11.6968 17.7859 11.6972C14.0162 11.6972 14.2135 14.2423 11.718 14.2423H10.7882C9.07551 14.2423 7.95028 13.0184 7.95028 11.4528V10.178C7.95028 8.61234 9.07551 7.38909 10.7882 7.38909H11.718C14.2135 7.38909 14.0175 9.93297 17.7859 9.93297C18.1429 9.9336 18.4992 9.90099 18.8502 9.83559C18.8502 9.82993 18.8502 9.82428 18.8502 9.81799C18.7826 9.44248 18.6774 9.07475 18.536 8.7204Z" fill="#0AE8F0"/>
<path d="M18.536 8.7204C18.2891 8.76143 18.0393 8.78241 17.789 8.78323C16.1486 8.78323 15.5335 8.23726 14.8211 7.60585C14.1337 6.99642 13.278 6.2381 11.7212 6.2381H10.7913C9.66546 6.2381 8.64263 6.6471 7.91007 7.38846C7.19446 8.11286 6.80054 9.10428 6.80054 10.1805V11.4528C6.80054 12.529 7.19446 13.5204 7.91007 14.2448C8.64263 14.9862 9.66546 15.3945 10.7913 15.3945H11.7212C13.278 15.3945 14.1337 14.6368 14.8211 14.0274C15.5335 13.3991 16.1486 12.85 17.789 12.85C18.0392 12.8501 18.289 12.8701 18.536 12.9097C18.6778 12.5559 18.7831 12.1886 18.8502 11.8134C18.8505 11.8071 18.8505 11.8008 18.8502 11.7945C18.4992 11.7294 18.1429 11.6968 17.7859 11.6972C14.0162 11.6972 14.2135 14.2423 11.718 14.2423H10.7882C9.07551 14.2423 7.95028 13.0184 7.95028 11.4528V10.178C7.95028 8.61234 9.07551 7.38909 10.7882 7.38909H11.718C14.2135 7.38909 14.0175 9.93297 17.7859 9.93297C18.1429 9.9336 18.4992 9.90099 18.8502 9.83559C18.8502 9.82993 18.8502 9.82428 18.8502 9.81799C18.7826 9.44248 18.6774 9.07475 18.536 8.7204Z" fill="#0AE8F0"/>
</g>
<defs>
<clipPath id="clip0_1320_11726">
<rect width="99.3298" height="24" fill="white" transform="translate(0.270996)"/>
</clipPath>
</defs>
</svg>
