<svg width="76" height="24" viewBox="0 0 76 24" fill="none" xmlns="http://www.w3.org/2000/svg">
<g clip-path="url(#clip0_1320_11718)">
<path d="M75.4004 16.4041C75.2722 16.4041 75.1555 16.4865 75.0954 16.6585C74.3233 18.8475 73.2802 20.1497 72.4214 20.1497C71.9281 20.1497 71.7283 19.6034 71.7283 18.7465C71.7283 16.6024 73.0203 12.0561 73.6716 9.98315C73.7469 9.73244 73.796 9.50795 73.796 9.31713C73.796 8.7147 73.4645 8.41909 72.6437 8.41909C71.7586 8.41909 70.8056 8.76332 69.8792 10.376C69.5591 8.95418 68.5914 8.33302 67.2392 8.33302C65.6763 8.33302 64.1661 9.33209 62.9233 10.9523C61.6805 12.5725 60.2191 13.1039 59.1195 12.8419C59.9104 10.9186 60.2039 9.48177 60.2039 8.41532C60.2039 6.74274 59.3717 5.73246 58.0273 5.73246C55.9821 5.73246 54.8032 7.67073 54.8032 9.70999C54.8032 11.2853 55.5228 12.9055 57.1046 13.6913C55.7787 16.6698 53.8428 19.3639 53.1084 19.3639C52.1595 19.3639 51.8807 14.7503 51.9335 11.45C51.9675 9.55658 52.1255 9.45932 52.1255 8.88679C52.1255 8.55751 51.911 8.33302 51.0485 8.33302C49.0373 8.33302 48.4159 10.0243 48.3217 11.9663C48.2914 12.7043 48.1751 13.4363 47.9754 14.1478C47.1354 17.1263 45.4029 19.3864 44.2731 19.3864C43.7495 19.3864 43.6066 18.8662 43.6066 18.1852C43.6066 16.0412 44.8155 13.362 44.8155 11.0758C44.8155 9.39571 44.0737 8.33302 42.6762 8.33302C41.0305 8.33302 38.8535 10.2788 36.7936 13.9233C37.4715 11.1319 37.7503 8.43031 35.7428 8.43031C35.3073 8.43678 34.8798 8.54714 34.4962 8.7521C34.3674 8.81191 34.2598 8.90887 34.1872 9.03035C34.1147 9.15179 34.0806 9.29214 34.0895 9.43311C34.2816 12.4041 31.6791 20.015 29.2123 20.015C28.7641 20.015 28.5457 19.5323 28.5457 18.754C28.5457 16.6062 29.8337 12.0711 30.4815 9.99438C30.5644 9.72499 30.6095 9.493 30.6095 9.29092C30.6095 8.72215 30.2555 8.43031 29.4533 8.43031C28.5721 8.43031 27.6155 8.76332 26.6928 10.376C26.3689 8.95418 25.401 8.33302 24.0489 8.33302C21.8306 8.33302 19.3525 10.6642 18.2641 13.7025C16.8066 17.7587 13.869 21.6763 9.91453 21.6763C6.32539 21.6763 4.43101 18.7091 4.43101 14.0206C4.43101 7.25166 9.43246 1.72124 13.1421 1.72124C14.916 1.72124 15.7634 2.84378 15.7634 4.56502C15.7634 6.64922 14.5921 7.61834 14.5921 8.41159C14.5921 8.65481 14.7955 8.89429 15.1984 8.89429C16.8104 8.89429 18.7085 7.01217 18.7085 4.44528C18.7085 1.87839 16.6108 0 12.9011 0C6.76979 0 0.60083 6.12908 0.60083 13.9832C0.60083 20.232 3.70414 24 9.07091 24C12.7316 24 15.9291 21.1712 17.654 17.8709C17.8498 20.6062 19.1002 22.0355 21.0059 22.0355C22.7006 22.0355 24.0715 21.0328 25.1185 19.2703C25.5215 21.1151 26.5911 22.0168 27.9808 22.0168C29.5739 22.0168 30.9071 21.014 32.1763 19.1506C32.1574 20.6137 32.4926 21.9906 33.7694 21.9906C34.3719 21.9906 35.0913 21.8522 35.2193 21.3284C36.5638 15.8054 39.8855 11.2965 40.9024 11.2965C41.2037 11.2965 41.2867 11.5847 41.2867 11.9252C41.2867 13.4256 40.2208 16.5014 40.2208 18.4659C40.2208 20.5875 41.1283 21.9906 43.004 21.9906C45.0828 21.9906 47.1955 19.4612 48.6042 15.7643C49.045 19.2179 49.9976 22.0056 51.489 22.0056C53.3196 22.0056 56.5696 18.1777 58.5394 14.1254C59.3115 14.2226 60.4712 14.1964 61.5863 13.4144C61.1115 14.6081 60.8331 15.914 60.8331 17.2198C60.8331 20.9804 62.6408 22.0355 64.196 22.0355C65.8871 22.0355 67.2581 21.0328 68.3089 19.2703C68.6552 20.8606 69.5403 22.0131 71.1671 22.0131C73.7133 22.0131 75.9239 19.4275 75.9239 17.3059C75.9239 16.7446 75.6828 16.4041 75.4004 16.4041ZM22.5575 19.9513C21.5294 19.9513 21.1264 18.9224 21.1264 17.3882C21.1264 14.724 22.9605 10.275 24.9001 10.275C25.7474 10.275 26.0676 11.2666 26.0676 12.479C26.0676 15.1843 24.3238 19.9513 22.5575 19.9513ZM57.7747 12C57.1611 11.2741 56.9388 10.2863 56.9388 9.40693C56.9388 8.3218 57.3379 7.40503 57.8161 7.40503C58.2946 7.40503 58.4416 7.87278 58.4416 8.52384C58.4416 9.61274 58.0498 11.203 57.7747 12ZM65.7479 19.9513C64.7196 19.9513 64.3168 18.769 64.3168 17.3882C64.3168 14.8176 66.1507 10.275 68.1055 10.275C68.9528 10.275 69.2541 11.2591 69.2541 12.479C69.2541 15.1843 67.5405 19.9513 65.7479 19.9513Z" fill="url(#paint0_linear_1320_11718)"/>
</g>
<defs>
<linearGradient id="paint0_linear_1320_11718" x1="7.80083" y1="2.81146e-06" x2="75.9239" y2="19.3846" gradientUnits="userSpaceOnUse">
<stop stop-color="#00BBC6"/>
<stop offset="0.489354" stop-color="#355AE4"/>
<stop offset="1" stop-color="#7225E3"/>
</linearGradient>
<clipPath id="clip0_1320_11718">
<rect width="75.3231" height="24" fill="white" transform="translate(0.60083)"/>
</clipPath>
</defs>
</svg>
