<svg width="74" height="24" viewBox="0 0 74 24" fill="none" xmlns="http://www.w3.org/2000/svg">
<path d="M70.4733 18.8009V17.3545C70.0742 17.917 69.6054 18.3375 69.0617 18.6107C68.5206 18.8866 67.9715 19.0232 67.4224 19.0232C66.3001 19.0232 65.3411 18.5679 64.5402 17.6545C63.742 16.7411 63.3402 15.4687 63.3402 13.8375C63.3402 12.1687 63.7286 10.8991 64.5081 10.0286C65.2849 9.16071 66.2706 8.72411 67.4572 8.72411C68.5474 8.72411 69.4902 9.18214 70.2884 10.0982V5.19911H72.8706V18.7982L70.4733 18.8009ZM69.6911 11.467C69.2867 10.9688 68.7697 10.7196 68.1376 10.7196C67.5242 10.7196 67.0126 10.9661 66.5974 11.4563C66.1849 11.9491 65.9759 12.683 65.9759 13.6607C65.9759 14.7134 66.1206 15.4741 66.4072 15.9429C66.8251 16.6232 67.4063 16.9634 68.1536 16.9634C68.7483 16.9634 69.2545 16.7089 69.6697 16.1973C70.0876 15.6884 70.2938 14.925 70.2938 13.9098C70.2965 12.7795 70.0956 11.9652 69.6911 11.467ZM61.9259 11.0625C61.5643 11.0625 61.259 11.1643 61.0072 11.3652C60.7554 11.5661 60.5572 11.9304 60.4152 12.4554C60.2706 12.9804 60.1983 14.0813 60.1983 15.758V18.8009H57.6161V8.94911H60.0134V10.35C60.4233 9.68839 60.7929 9.25179 61.1197 9.04286C61.4465 8.83393 61.8188 8.72679 62.2367 8.72679C62.8259 8.72679 63.3911 8.89018 63.9375 9.21964L63.1393 11.4911C62.7027 11.2045 62.2983 11.0625 61.9259 11.0625ZM55.2938 11.0625C54.9322 11.0625 54.6268 11.1643 54.375 11.3652C54.1233 11.5661 53.925 11.9304 53.7831 12.4554C53.6384 12.9804 53.5661 14.0813 53.5661 15.758V18.8009H50.984V8.94911H53.3813V10.35C53.7911 9.68839 54.1608 9.25179 54.4875 9.04286C54.8143 8.83393 55.1867 8.72679 55.6045 8.72679C56.1938 8.72679 56.759 8.89018 57.3054 9.21964L56.5072 11.4911C56.0706 11.2045 55.6661 11.0625 55.2938 11.0625ZM47.5125 18.0295C47.4697 17.8741 47.4402 17.7723 47.4215 17.7241C46.9795 18.158 46.5081 18.4821 46.0072 18.6991C45.5036 18.9161 44.9679 19.0232 44.4 19.0232C43.3956 19.0232 42.6027 18.7473 42.0242 18.1982C41.4456 17.6491 41.1563 16.9527 41.1563 16.1116C41.1563 15.5545 41.2875 15.0589 41.5527 14.6223C41.8152 14.1857 42.1849 13.8536 42.659 13.6205C43.1331 13.3875 43.8188 13.1866 44.7134 13.0125C45.9215 12.7848 46.7572 12.5705 47.2233 12.3723V12.1125C47.2233 11.6116 47.1 11.2554 46.8563 11.0411C46.6099 10.8268 46.1492 10.7223 45.4688 10.7223C45.0081 10.7223 44.6518 10.8134 44.3947 10.9955C44.1375 11.1777 43.9286 11.4991 43.7706 11.9545L41.4268 11.5286C41.6893 10.575 42.1447 9.87054 42.7875 9.4125C43.4304 8.95446 44.3867 8.72679 45.6536 8.72679C46.8054 8.72679 47.6625 8.86339 48.2277 9.13929C48.7902 9.41518 49.1893 9.76339 49.417 10.1866C49.6474 10.6098 49.7625 11.3866 49.7625 12.5196L49.7358 15.5625C49.7358 16.4277 49.7759 17.0679 49.859 17.4777C49.942 17.8902 50.0974 18.3295 50.3224 18.8009H47.767C47.6947 18.6268 47.6117 18.3696 47.5125 18.0295ZM47.2206 14.0679C46.8884 14.1804 46.3661 14.3116 45.6483 14.467C44.9304 14.6223 44.4617 14.7723 44.242 14.9223C43.9045 15.1634 43.7358 15.4688 43.7358 15.8411C43.7358 16.2054 43.8697 16.5214 44.1402 16.7866C44.4108 17.0518 44.7536 17.1857 45.1688 17.1857C45.6349 17.1857 46.0795 17.0304 46.5 16.7223C46.8134 16.4866 47.017 16.2 47.1161 15.8598C47.1831 15.6375 47.2179 15.2143 47.2179 14.5902L47.2206 14.0679ZM35.2367 16.6848C35.9599 16.6848 36.5813 16.4518 37.1009 15.9884C37.6206 15.525 37.9956 14.7938 38.2233 13.8L40.8617 14.6438C40.4572 16.1277 39.7849 17.2313 38.8447 17.9518C37.9045 18.6723 36.7099 19.0312 35.2661 19.0312C33.4768 19.0312 32.0063 18.4152 30.8545 17.1804C29.7027 15.9455 29.1268 14.2607 29.1268 12.1205C29.1268 9.85714 29.7054 8.1 30.8625 6.84643C32.0197 5.59286 33.5438 4.96875 35.4295 4.96875C37.0768 4.96875 38.4161 5.46161 39.4447 6.44464C40.0581 7.02589 40.5161 7.86161 40.8242 8.94911L38.1322 9.59732C37.9715 8.89286 37.6393 8.33571 37.1358 7.92857C36.6295 7.52143 36.0161 7.31518 35.2929 7.31518C34.2938 7.31518 33.4849 7.67679 32.8634 8.4C32.242 9.12321 31.9313 10.2964 31.9313 11.917C31.9313 13.6366 32.2367 14.8607 32.85 15.5893C33.4608 16.3205 34.2563 16.6848 35.2367 16.6848Z" fill="black"/>
<path d="M12.45 23.6062C6.03749 23.6062 0.841064 18.4098 0.841064 12C0.841064 5.59017 6.03749 0.393738 12.45 0.393738C18.8625 0.393738 24.0589 5.59017 24.0589 12C24.0589 18.4098 18.8625 23.6062 12.45 23.6062Z" fill="url(#paint0_linear_1320_12404)"/>
<path d="M18.1608 16.4223L11.1938 19.7679C11.1509 19.7893 11.1027 19.8 11.0545 19.8C10.9956 19.8 10.9367 19.7839 10.8831 19.7518C10.7893 19.6929 10.7331 19.5911 10.7331 19.4786V16.1652L6.9697 14.5902C6.84916 14.5393 6.77148 14.4241 6.77148 14.2929V5.59285C6.77148 5.48303 6.82773 5.37857 6.92148 5.31964C7.01523 5.26071 7.13309 5.25535 7.2322 5.30089L14.4751 8.77768L17.8849 7.14107C17.984 7.09285 18.1018 7.10089 18.1956 7.15982C18.2893 7.21875 18.3456 7.32053 18.3456 7.43303V16.133C18.3429 16.2562 18.2733 16.3687 18.1608 16.4223ZM7.41434 6.10446V14.0786L10.7331 15.4687V13.867L8.64648 13.0259C8.48309 12.9589 8.40273 12.7714 8.46702 12.608C8.53398 12.442 8.72148 12.3643 8.88488 12.4286L10.7331 13.1732V11.858L8.64648 11.017C8.48309 10.95 8.40273 10.7625 8.46702 10.5991C8.53398 10.433 8.72148 10.3554 8.88488 10.4196L10.7331 11.1643V10.7812C10.7331 10.658 10.8027 10.5455 10.9152 10.492L11.392 10.2616L8.63041 9.00536C8.4697 8.93303 8.39738 8.74018 8.4697 8.57946C8.54202 8.41875 8.73488 8.34643 8.89559 8.41875L12.1447 9.9L13.7277 9.13928L7.41434 6.10446ZM17.7001 7.94464L11.3759 10.9821V11.633C11.3759 11.633 11.3759 11.633 11.3759 11.6357V13.642C11.3759 13.642 11.3759 13.642 11.3759 13.6446V18.9696L17.7001 15.9295V7.94464ZM12.584 12.1018L16.2081 10.35C16.3688 10.2723 16.559 10.3393 16.6367 10.5C16.7143 10.6607 16.6474 10.8536 16.4867 10.9286L12.8626 12.6804C12.817 12.7018 12.7688 12.7125 12.7233 12.7125C12.6027 12.7125 12.4902 12.6455 12.434 12.5304C12.359 12.3723 12.4259 12.1795 12.584 12.1018ZM12.584 14.1107L16.2081 12.3589C16.3688 12.2812 16.559 12.3482 16.6367 12.5089C16.7143 12.6696 16.6474 12.8625 16.4867 12.9375L12.8626 14.6893C12.817 14.7107 12.7688 14.7214 12.7233 14.7214C12.6027 14.7214 12.4902 14.6545 12.434 14.5393C12.359 14.3786 12.4259 14.1884 12.584 14.1107ZM12.584 16.117L16.2081 14.3652C16.3688 14.2875 16.559 14.3545 16.6367 14.5152C16.7143 14.6759 16.6474 14.8687 16.4867 14.9437L12.8626 16.6955C12.817 16.717 12.7688 16.7277 12.7233 16.7277C12.6027 16.7277 12.4902 16.6607 12.434 16.5455C12.359 16.3875 12.4259 16.1946 12.584 16.117Z" fill="white"/>
<defs>
<linearGradient id="paint0_linear_1320_12404" x1="3.79201" y1="20.208" x2="20.208" y2="3.79201" gradientUnits="userSpaceOnUse">
<stop stop-color="#7366A7"/>
<stop offset="0.2677" stop-color="#6B68AA"/>
<stop offset="0.6906" stop-color="#546DB1"/>
<stop offset="1" stop-color="#3F71B7"/>
</linearGradient>
</defs>
</svg>
