<svg width="85" height="24" viewBox="0 0 85 24" fill="none" xmlns="http://www.w3.org/2000/svg">
<g clip-path="url(#clip0_1320_12411)">
<path d="M12.2366 23.7474C15.805 23.7474 18.1735 22.6105 20.2577 20.7789C20.605 20.4632 20.8892 19.9895 20.8892 19.3895C20.8892 18.4105 20.0366 17.5895 19.0577 17.5895C18.584 17.5895 18.1735 17.7789 17.8892 18.0316C16.2787 19.3895 14.6998 20.1474 12.3629 20.1474C8.13135 20.1474 5.06818 16.6421 5.06818 12.3158V12.2526C5.06818 7.92632 8.16293 4.45263 12.3629 4.45263C14.4787 4.45263 16.1208 5.21053 17.6366 6.44211C17.8892 6.63158 18.2682 6.82105 18.805 6.82105C19.8787 6.82105 20.7313 6 20.7313 4.92632C20.7313 4.23158 20.384 3.69474 19.9734 3.37895C18.0471 1.89474 15.805 0.884213 12.3945 0.884213C5.69976 0.884213 0.994507 6.03158 0.994507 12.3158V12.3789C0.994507 18.7263 5.7945 23.7474 12.2366 23.7474ZM26.0064 4.29474C27.238 4.29474 28.1853 3.53684 28.1853 2.4V2.21053C28.1853 1.07369 27.238 0.347371 26.0064 0.347371C24.7748 0.347371 23.8274 1.07369 23.8274 2.21053V2.4C23.8274 3.53684 24.7748 4.29474 26.0064 4.29474ZM26.0064 23.5263C27.0801 23.5263 27.9327 22.7053 27.9327 21.6316V8.43158C27.9327 7.3579 27.0801 6.50527 26.0064 6.50527C24.9327 6.50527 24.1117 7.3579 24.1117 8.43158V21.6316C24.1117 22.7053 24.9643 23.5263 26.0064 23.5263ZM33.8709 23.5263C34.9446 23.5263 35.7972 22.6737 35.7972 21.6316V16.7053C35.7972 12.7579 37.6604 10.6737 40.3762 10.2C41.2288 10.0421 41.892 9.37895 41.892 8.36842C41.892 7.26316 41.1972 6.47369 39.9972 6.47369C38.3236 6.47369 36.6814 8.05263 35.7972 10.1368V8.43158C35.7972 7.3579 34.9446 6.50527 33.8709 6.50527C32.7972 6.50527 31.9762 7.3579 31.9762 8.43158V21.6316C31.9762 22.7053 32.8288 23.5263 33.8709 23.5263ZM51.2091 23.7474C53.9881 23.7474 55.7881 22.8 57.2723 21.3789C57.6196 21.0947 57.8091 20.6842 57.8091 20.1789C57.8091 19.2632 57.0828 18.5053 56.167 18.5053C55.7249 18.5053 55.346 18.7263 55.1249 18.9158C54.0828 19.8 52.9144 20.4 51.3986 20.4C48.4618 20.4 46.4091 18.0316 46.4091 15.0632V15C46.4091 12.0947 48.4618 9.69474 51.2407 9.69474C52.7565 9.69474 53.8302 10.2947 54.8091 11.1158C55.0618 11.3053 55.4723 11.4947 55.946 11.4947C56.9249 11.4947 57.7144 10.7368 57.7144 9.7579C57.7144 9.12632 57.367 8.65263 57.1144 8.43158C55.6933 7.2 53.8933 6.34737 51.2723 6.34737C46.2512 6.34737 42.5881 10.3263 42.5881 15.0632V15.1263C42.5881 19.8632 46.2512 23.7474 51.2091 23.7474ZM62.7052 23.5263C63.7789 23.5263 64.6316 22.7053 64.6316 21.6316V2.05263C64.6316 1.01053 63.7789 0.157898 62.7052 0.157898C61.6315 0.157898 60.8105 1.01053 60.8105 2.05263V21.6316C60.8105 22.7053 61.6631 23.5263 62.7052 23.5263ZM76.3171 23.7474C78.9066 23.7474 80.8013 22.8947 82.3171 21.5368C82.6013 21.2526 82.8224 20.8421 82.8224 20.3684C82.8224 19.4842 82.1592 18.8211 81.3066 18.8211C80.8645 18.8211 80.6119 18.9474 80.3276 19.1684C79.254 20.0526 77.9908 20.6211 76.3803 20.6211C73.9171 20.6211 71.9908 19.1053 71.5803 16.3895H82.0329C83.0119 16.3895 83.8329 15.6316 83.8329 14.5579C83.8329 10.7053 81.2119 6.34737 75.9066 6.34737C71.1382 6.34737 67.7592 10.2632 67.7592 15.0316V15.0947C67.7592 20.2421 71.4855 23.7474 76.3171 23.7474ZM80.1066 13.8632H71.5487C71.8961 11.2737 73.5382 9.47369 75.875 9.47369C78.4013 9.47369 79.854 11.4 80.1066 13.8632Z" fill="#506BF0"/>
</g>
<defs>
<clipPath id="clip0_1320_12411">
<rect width="83.3684" height="24" fill="white" transform="translate(0.714355)"/>
</clipPath>
</defs>
</svg>
