<svg width="112" height="30" viewBox="0 0 112 30" fill="none" xmlns="http://www.w3.org/2000/svg">
<path d="M49.253 11.5229C48.8829 11.0148 48.371 10.6273 47.7815 10.4092C47.1762 10.1662 46.5845 10.0447 46.0062 10.0447C45.2675 10.0447 44.5947 10.1797 43.9902 10.4497C43.3963 10.7117 42.8611 11.0904 42.4167 11.5634C41.979 12.0485 41.637 12.6119 41.4087 13.2239C41.1753 13.8873 41.0593 14.5863 41.0659 15.2894C41.0659 16.0725 41.1799 16.788 41.4087 17.436C41.6196 18.0533 41.9482 18.6238 42.3762 19.116C42.8075 19.5761 43.3294 19.9418 43.9092 20.19C44.501 20.4465 45.1662 20.5747 45.9057 20.5747C46.6722 20.5747 47.351 20.4262 47.9427 20.1292C48.5337 19.8187 49.0115 19.4137 49.3745 18.9142L51.4115 20.352C50.7893 21.1407 49.9961 21.7777 49.0917 22.215C48.1775 22.647 47.1087 22.863 45.8855 22.863C44.7695 22.863 43.7412 22.6807 42.7999 22.3155C41.905 21.9593 41.0893 21.4296 40.3999 20.757C39.7222 20.073 39.1878 19.2606 38.8279 18.3675C38.4514 17.436 38.2632 16.41 38.2632 15.2894C38.2632 14.1419 38.4582 13.1092 38.8482 12.1912C39.2517 11.2597 39.7962 10.4699 40.4817 9.82118C41.195 9.16478 42.031 8.65575 42.9417 8.32343C43.883 7.97246 44.9052 7.79695 46.007 7.79695C46.4645 7.79695 46.9415 7.8442 47.4395 7.93871C47.9367 8.01971 48.4145 8.15471 48.8712 8.34368C49.3287 8.51918 49.7585 8.74118 50.1612 9.01118C50.5647 9.28118 50.9075 9.60593 51.1902 9.98393L49.253 11.5229ZM52.9092 7.18945H55.3295V22.4985H52.9092V7.18945ZM65.081 16.6665C65.081 16.356 65.0345 16.059 64.94 15.7754C64.8631 15.4985 64.7252 15.2423 64.5365 15.0254C64.3375 14.8023 64.0888 14.6291 63.8105 14.5199C63.5285 14.3849 63.1925 14.3174 62.8025 14.3174C62.0765 14.3174 61.4578 14.5402 60.947 14.9849C60.4498 15.4177 60.1745 15.978 60.1205 16.6665H65.081ZM67.5013 17.76V18.084C67.5013 18.192 67.4945 18.3 67.481 18.408H60.1205C60.1475 18.759 60.2345 19.083 60.383 19.38C60.5435 19.6635 60.752 19.9125 61.0078 20.1292C61.2628 20.3317 61.5523 20.4937 61.8748 20.6152C62.1973 20.7367 62.5333 20.7975 62.8835 20.7975C63.488 20.7975 63.9988 20.6895 64.4158 20.4735C64.8273 20.2486 65.1797 19.9294 65.444 19.542L67.0573 20.838C66.1033 22.134 64.718 22.782 62.903 22.782C62.1508 22.782 61.4578 22.6672 60.8255 22.437C60.2154 22.2071 59.6545 21.8635 59.1725 21.4245C58.7054 20.9782 58.3347 20.4409 58.0835 19.8457C57.8285 19.2112 57.701 18.4957 57.701 17.6992C57.701 16.9162 57.8285 16.2067 58.0835 15.573C58.3527 14.9249 58.7157 14.3782 59.1725 13.9327C59.6308 13.4729 60.1803 13.1142 60.7858 12.8797C61.4332 12.6202 62.1252 12.4895 62.8228 12.4949C63.4948 12.4949 64.1128 12.6097 64.6783 12.8392C65.2465 13.0486 65.7577 13.3885 66.1708 13.8314C66.587 14.2634 66.9095 14.8102 67.1383 15.4717C67.3805 16.1197 67.5013 16.8817 67.5013 17.7592V17.76ZM75.7363 21.2625H75.6763C75.4341 21.6952 75.0441 22.053 74.5063 22.3365C73.9685 22.6065 73.3565 22.7415 72.671 22.7415C72.281 22.7415 71.8715 22.6875 71.441 22.5795C71.0261 22.4858 70.6303 22.3214 70.271 22.0935C69.9164 21.845 69.6147 21.5283 69.3838 21.162C69.155 20.7705 69.041 20.2912 69.041 19.7242C69.041 18.9952 69.2428 18.4147 69.6463 17.9827C70.0633 17.5507 70.5943 17.22 71.2393 16.9905C71.8843 16.761 72.5968 16.6125 73.3768 16.545C74.1472 16.4652 74.9212 16.4246 75.6958 16.4235V16.1805C75.6958 15.5729 75.4746 15.1274 75.0305 14.8439C74.6 14.5469 74.0825 14.3984 73.478 14.3984C72.9695 14.3978 72.467 14.5084 72.0058 14.7224C71.5348 14.9384 71.1448 15.2017 70.8358 15.5122L69.5855 14.0339C70.1321 13.5236 70.7773 13.1305 71.4815 12.8789C72.1867 12.6264 72.9299 12.4965 73.679 12.4949C74.54 12.4949 75.2458 12.6164 75.7971 12.8594C76.3618 13.1024 76.8051 13.4197 77.1276 13.8112C77.4501 14.2027 77.6721 14.6414 77.7936 15.1274C77.9278 15.6135 77.9953 16.0995 77.9953 16.5855V22.4985H75.7356V21.2625H75.7363ZM75.6958 18.0637H75.1513C74.7613 18.0637 74.3518 18.084 73.9213 18.1237C73.5167 18.1461 73.1168 18.2213 72.7318 18.3472C72.3688 18.4552 72.0658 18.6172 71.8243 18.8332C71.582 19.0357 71.4613 19.3192 71.4613 19.6837C71.4613 19.9132 71.5085 20.109 71.6023 20.271C71.7095 20.4195 71.8445 20.541 72.0058 20.6355C72.167 20.73 72.3485 20.7975 72.5503 20.838C72.752 20.8785 72.9538 20.898 73.1548 20.898C73.9888 20.898 74.6203 20.676 75.0508 20.2305C75.4813 19.785 75.6958 19.1775 75.6958 18.408V18.063V18.0637ZM80.8146 12.7784H83.1336V14.3984H83.1741C83.4268 13.8507 83.8161 13.3768 84.3036 13.0214C84.7873 12.6704 85.3521 12.4949 85.9971 12.4949C86.0916 12.4949 86.1921 12.5017 86.2993 12.5152C86.4073 12.5152 86.5018 12.5287 86.5821 12.5557V14.7832C86.4426 14.7469 86.3008 14.7198 86.1583 14.7022C86.0511 14.6888 85.9438 14.682 85.8358 14.6819C85.2846 14.6819 84.8406 14.7832 84.5046 14.9857C84.1911 15.167 83.9226 15.416 83.7186 15.7147C83.5386 15.9789 83.4088 16.2738 83.3353 16.5847C83.2678 16.8825 83.2341 17.1187 83.2341 17.2942V22.4985H80.8146V12.7784ZM90.6201 7.18945V14.0137H90.6809C90.8023 13.8517 90.9569 13.6829 91.1451 13.5074C91.3326 13.3319 91.5546 13.1699 91.8104 13.0214C92.1036 12.863 92.4156 12.7406 92.7381 12.6569C93.1244 12.5438 93.5249 12.4892 93.9276 12.4949C94.6131 12.4949 95.2454 12.6299 95.8236 12.8999C96.4011 13.1564 96.8991 13.5142 97.3161 13.9724C97.7406 14.4446 98.0691 14.9948 98.2836 15.5924C98.5161 16.2354 98.6324 16.9144 98.6264 17.598C98.6309 18.2878 98.5146 18.9731 98.2836 19.623C98.0781 20.2267 97.7564 20.7841 97.3356 21.2632C96.9194 21.7321 96.4109 22.1111 95.8431 22.377C95.2656 22.647 94.6064 22.782 93.8669 22.782C93.1964 22.7852 92.5334 22.6327 91.9319 22.3365C91.3514 22.0498 90.8668 21.5992 90.5398 21.0405H90.4993V22.4985H88.2006V7.18945H90.6208H90.6201ZM96.1664 17.598C96.1664 17.22 96.1064 16.848 95.9849 16.4842C95.8829 16.1177 95.7119 15.774 95.4809 15.4717C95.2491 15.1724 94.9529 14.93 94.6131 14.7629C94.2636 14.5739 93.8541 14.4794 93.3831 14.4794C92.9399 14.4794 92.5431 14.5739 92.1936 14.7629C91.8441 14.9519 91.5411 15.1949 91.2861 15.4919C91.0408 15.7945 90.8496 16.137 90.7214 16.5045C90.6021 16.8708 90.5413 17.2533 90.5398 17.6385C90.5398 18.0165 90.5998 18.3945 90.7214 18.7725C90.8563 19.137 91.0438 19.4677 91.2861 19.7647C91.5411 20.0617 91.8441 20.3047 92.1936 20.4937C92.5431 20.6692 92.9399 20.7562 93.3831 20.7562C93.8541 20.7562 94.2636 20.6625 94.6131 20.4735C94.9506 20.2947 95.2469 20.0463 95.4809 19.7445C95.7089 19.4475 95.8769 19.11 95.9849 18.732C96.1041 18.3657 96.1649 17.9832 96.1664 17.598ZM101.002 12.7784H103.421V22.4985H101.002V12.7784ZM100.658 9.47768C100.658 9.08618 100.799 8.74868 101.081 8.46518C101.377 8.16821 101.747 8.01971 102.191 8.01971C102.634 8.01971 103.004 8.16146 103.3 8.44493C103.609 8.71493 103.763 9.05918 103.763 9.47768C103.763 9.89618 103.609 10.2472 103.3 10.5307C103.004 10.8007 102.634 10.9357 102.19 10.9357C101.747 10.9357 101.377 10.7932 101.081 10.5104C100.946 10.3747 100.839 10.2135 100.767 10.0363C100.694 9.85906 100.657 9.66923 100.658 9.47768ZM104.965 14.7224V12.7784H106.66V9.96368H109.039V12.7784H111.458V14.7224H109.039V19.2375C109.039 19.6702 109.113 20.028 109.261 20.3115C109.422 20.595 109.771 20.7367 110.309 20.7367C110.47 20.7367 110.645 20.7232 110.833 20.6962C111.021 20.6557 111.19 20.6017 111.337 20.5342L111.418 22.4377C111.17 22.5267 110.914 22.5878 110.652 22.62C110.356 22.674 110.074 22.701 109.804 22.701C109.159 22.701 108.635 22.6132 108.232 22.4377C107.829 22.2487 107.506 21.999 107.264 21.6877C107.033 21.3585 106.868 20.9873 106.78 20.595C106.697 20.1543 106.657 19.7068 106.66 19.2585V14.7224H104.965H104.965Z" fill="black"/>
<g filter="url(#filter0_f_1320_12128)">
<path d="M20.6006 27H9.46603L9.01153 26.9964C7.13143 26.9658 6.3836 26.7367 5.6301 26.3321C4.81865 25.8964 4.18182 25.2569 3.74784 24.4421L3.65796 24.2671C3.29649 23.5339 3.09836 22.7247 3.08365 20.8237L3.08276 9.40974C3.08276 7.18091 3.31387 6.37269 3.74784 5.55788C4.18182 4.74307 4.81865 4.1036 5.6301 3.66783L5.8044 3.57758C6.53455 3.21461 7.3404 3.01565 9.23361 3.00088L20.6006 3C22.8201 3 23.625 3.23207 24.4365 3.66783C25.248 4.1036 25.8848 4.74307 26.3187 5.55788L26.4086 5.7329C26.7701 6.46608 26.9682 7.27525 26.9829 9.17627L26.9838 20.5903L26.9803 21.0466C26.9498 22.9345 26.7217 23.6855 26.3187 24.4421C25.8848 25.2569 25.248 25.8964 24.4365 26.3321L24.2622 26.4224C23.5028 26.7999 22.6616 27 20.6006 27Z" fill="#C4D3E0" fill-opacity="0.2"/>
</g>
<path d="M26.9835 15V20.5903C26.9835 22.8191 26.7523 23.6273 26.3184 24.4421C25.8844 25.257 25.2476 25.8964 24.4361 26.3322C23.6247 26.7679 22.8198 27 20.6002 27H15.033V15H26.9835Z" fill="url(#paint0_linear_1320_12128)"/>
<path d="M15.033 3H20.6002C22.8198 3 23.6247 3.23207 24.4361 3.66783C25.2476 4.1036 25.8844 4.74307 26.3184 5.55788C26.7523 6.37269 26.9835 7.18091 26.9835 9.40967V15H15.033V3Z" fill="url(#paint1_linear_1320_12128)"/>
<path d="M9.46603 3H15.0333V27H9.46603C7.24645 27 6.44156 26.7679 5.6301 26.3321C4.81865 25.8964 4.18182 25.2569 3.74784 24.4421C3.31387 23.6272 3.08276 22.819 3.08276 20.5903V9.40974C3.08276 7.18091 3.31387 6.37269 3.74784 5.55788C4.18182 4.74307 4.81865 4.1036 5.6301 3.66783C6.44156 3.23207 7.24645 3 9.46603 3Z" fill="url(#paint2_linear_1320_12128)"/>
<defs>
<filter id="filter0_f_1320_12128" x="0.368524" y="0.28576" width="29.3296" height="29.4285" filterUnits="userSpaceOnUse" color-interpolation-filters="sRGB">
<feFlood flood-opacity="0" result="BackgroundImageFix"/>
<feBlend mode="normal" in="SourceGraphic" in2="BackgroundImageFix" result="shape"/>
<feGaussianBlur stdDeviation="1.35712" result="effect1_foregroundBlur_1320_12128"/>
</filter>
<linearGradient id="paint0_linear_1320_12128" x1="21.0082" y1="15" x2="27.023" y2="26.9801" gradientUnits="userSpaceOnUse">
<stop stop-color="#DEF2FE"/>
<stop offset="1" stop-color="#DBF1FE"/>
</linearGradient>
<linearGradient id="paint1_linear_1320_12128" x1="15.033" y1="3" x2="21.0478" y2="14.9801" gradientUnits="userSpaceOnUse">
<stop stop-color="#57BCFD"/>
<stop offset="1" stop-color="#51B5FD"/>
</linearGradient>
<linearGradient id="paint2_linear_1320_12128" x1="7.56422" y1="3" x2="17.7894" y2="23.3662" gradientUnits="userSpaceOnUse">
<stop stop-color="#1CA7FD"/>
<stop offset="1" stop-color="#148CFC"/>
</linearGradient>
</defs>
</svg>
