<svg width="100" height="24" viewBox="0 0 100 24" fill="none" xmlns="http://www.w3.org/2000/svg">
<g clip-path="url(#clip0_1320_11766)">
<path d="M0.517334 17.6474L4.04474 14.9452C5.91882 17.3911 7.90993 18.5185 10.1262 18.5185C12.3307 18.5185 14.2655 17.4044 16.0551 14.9778L19.6329 17.6148C17.0507 21.1141 13.8418 22.963 10.1262 22.963C6.42252 22.963 3.18252 21.1259 0.517334 17.6474Z" fill="url(#paint0_linear_1320_11766)"/>
<path d="M10.1143 5.9022L3.83582 11.3126L0.933594 7.94664L10.1277 0.0236816L19.2491 7.95257L16.3336 11.3066L10.1143 5.9022Z" fill="url(#paint1_linear_1320_11766)"/>
<path d="M33.1601 19.6252C31.0164 19.6252 29.2298 18.9304 27.7809 17.5407C26.332 16.1318 25.6179 14.3259 25.6179 12.1215C25.6179 9.89924 26.3513 8.07257 27.8001 6.64294C29.2698 5.19405 31.0564 4.47998 33.1809 4.47998C35.8016 4.47998 38.1231 5.61035 39.4742 7.37776L37.1098 9.85924C35.9779 8.64738 34.7468 8.03257 33.4179 8.03257C32.2861 8.03257 31.3527 8.40887 30.5779 9.18368C29.8238 9.9585 29.4475 10.9318 29.4475 12.1022C29.4475 13.2341 29.8238 14.1866 30.5779 14.9615C31.3527 15.7155 32.2861 16.0918 33.3972 16.0918C34.8461 16.0918 36.1172 15.4563 37.169 14.2059L39.6313 16.5689C38.9557 17.4622 38.0431 18.197 36.9113 18.7718C35.7794 19.3481 34.529 19.6252 33.1587 19.6252H33.1601ZM43.7972 4.26072V19.4074H40.3038V4.26072H43.7972ZM47.1083 7.47553C45.9379 7.47553 45.0846 6.6222 45.0846 5.45183C45.0846 4.31998 45.9779 3.46664 47.1083 3.46664C48.2401 3.46664 49.1142 4.31998 49.1142 5.45183C49.1142 6.6222 48.2401 7.47701 47.1083 7.47701V7.47553ZM48.8757 8.44887V19.4074H45.3616V8.44887H48.8757ZM55.6016 19.6459C53.8742 19.6459 52.4846 19.1096 51.3942 18.037C50.3216 16.9659 49.7853 15.5955 49.7853 13.9081C49.7853 12.2207 50.3216 10.8518 51.4135 9.77924C52.5053 8.70664 53.9142 8.17183 55.6609 8.17183C57.9438 8.17183 59.9498 9.28294 60.8816 11.3674L58.0831 12.837C57.5275 11.9037 56.7527 11.4266 55.7409 11.4266C55.0061 11.4266 54.4105 11.6652 53.9335 12.1422C53.7071 12.3763 53.5293 12.6529 53.4101 12.9559C53.2908 13.2589 53.2326 13.5825 53.2387 13.9081C53.2387 15.357 54.2905 16.4296 55.7009 16.4296C56.7127 16.4296 57.6461 15.8741 58.0431 15.0207L60.8431 16.6874C59.889 18.5141 57.9246 19.6459 55.6016 19.6459ZM73.0283 19.4074H68.8579L65.6209 15.0593L65.1053 15.5363V19.4074H61.6135V4.26072H65.1068V11.6252L68.4016 8.44887H72.6698L67.9661 12.8563L73.0283 19.4074ZM73.2624 13.7096V4.73627H76.9942V13.6503C76.9942 15.2978 77.9468 16.0918 79.3172 16.0918C80.6668 16.0918 81.6194 15.2578 81.6194 13.6503V4.73627H85.372V13.7096C85.372 18.037 82.3735 19.6652 79.3172 19.6652C76.2801 19.6652 73.2624 18.037 73.2624 13.7096ZM93.6653 8.17183C95.2342 8.17183 96.5053 8.72738 97.5172 9.8385C98.529 10.9303 99.0253 12.3007 99.0253 13.9081C99.0253 15.517 98.5098 16.8859 97.4979 18.0178C96.4846 19.1289 95.2149 19.6859 93.6861 19.6859C92.4742 19.6859 91.4223 19.2889 90.569 18.4948V23.9141H87.0549V8.44887H90.5098V9.4622C91.3631 8.60739 92.4149 8.17183 93.6653 8.17183ZM95.452 13.9481C95.452 12.5185 94.4209 11.4266 92.9912 11.4266C91.5616 11.4266 90.5098 12.5185 90.5098 13.9481C90.5098 14.6429 90.7468 15.2385 91.2046 15.7348C91.6801 16.2311 92.2757 16.4696 92.9912 16.4696C93.7053 16.4696 94.3009 16.2311 94.7572 15.7348C95.2124 15.2521 95.4621 14.6115 95.4535 13.9481H95.452Z" fill="#111111"/>
</g>
<defs>
<linearGradient id="paint0_linear_1320_11766" x1="0.517334" y1="20.3981" x2="19.6329" y2="20.3981" gradientUnits="userSpaceOnUse">
<stop stop-color="#8930FD"/>
<stop offset="1" stop-color="#49CCF9"/>
</linearGradient>
<linearGradient id="paint1_linear_1320_11766" x1="0.933594" y1="7.70125" x2="19.2491" y2="7.70125" gradientUnits="userSpaceOnUse">
<stop stop-color="#FF02F0"/>
<stop offset="1" stop-color="#FFC800"/>
</linearGradient>
<clipPath id="clip0_1320_11766">
<rect width="98.6667" height="24" fill="white" transform="translate(0.458008)"/>
</clipPath>
</defs>
</svg>
