<svg width="72" height="24" viewBox="0 0 72 24" fill="none" xmlns="http://www.w3.org/2000/svg">
<g clip-path="url(#clip0_1320_11750)">
<path d="M60.46 15.1528L60.634 14.5514C60.8412 13.8362 60.7641 13.1749 60.4164 12.6891C60.0964 12.2417 59.5632 11.9781 58.9155 11.9475L46.65 11.7923C46.6119 11.7916 46.5746 11.7819 46.541 11.764C46.5073 11.7462 46.4784 11.7207 46.4565 11.6896C46.4351 11.6574 46.4213 11.6207 46.4165 11.5824C46.4118 11.544 46.416 11.505 46.4289 11.4686C46.45 11.4085 46.4881 11.3559 46.5387 11.3173C46.5895 11.2787 46.6502 11.2557 46.7138 11.2512L59.093 11.0944C60.5615 11.027 62.1514 9.83631 62.708 8.38437L63.4139 6.54106C63.4429 6.46312 63.4495 6.37867 63.4331 6.29719C62.6315 2.69425 59.4136 0 55.5662 0C52.0213 0 49.0113 2.28633 47.9317 5.46419C47.2021 4.91699 46.2925 4.66543 45.3852 4.7599C43.6845 4.92865 42.3171 6.2969 42.1488 7.9966C42.1056 8.42101 42.1372 8.84971 42.2423 9.26321C39.4641 9.34414 37.2361 11.6186 37.2361 14.4144C37.2364 14.664 37.2549 14.9132 37.2913 15.1602C37.2993 15.2172 37.3276 15.2694 37.371 15.3074C37.4144 15.3453 37.4701 15.3664 37.5276 15.3667L60.172 15.3696C60.1742 15.3697 60.1763 15.3697 60.1784 15.3696C60.2425 15.3684 60.3045 15.3468 60.3552 15.3077C60.4059 15.2686 60.4427 15.2143 60.46 15.1528Z" fill="#F6821F"/>
<path d="M64.546 6.67471C64.4324 6.67471 64.3191 6.67757 64.2063 6.68327C64.1881 6.68457 64.1703 6.68849 64.1532 6.69488C64.1237 6.70498 64.097 6.72209 64.0754 6.74474C64.0539 6.76739 64.0382 6.79493 64.0297 6.82497L63.5474 8.48957C63.3401 9.20492 63.4171 9.86557 63.7652 10.3514C64.085 10.7994 64.6182 11.0623 65.2657 11.093L67.8806 11.2498C67.9173 11.2511 67.9533 11.2608 67.9857 11.2784C68.0179 11.2959 68.0457 11.3208 68.0668 11.3509C68.0885 11.3832 68.1024 11.4202 68.1071 11.4588C68.1119 11.4974 68.1076 11.5366 68.0944 11.5733C68.0734 11.6332 68.0352 11.6857 67.9847 11.7243C67.9342 11.763 67.8735 11.786 67.8101 11.7906L65.0933 11.9475C63.6181 12.0155 62.0286 13.2056 61.4724 14.6575L61.2762 15.1701C61.268 15.1915 61.265 15.2146 61.2674 15.2374C61.2699 15.2602 61.2777 15.2822 61.2904 15.3014C61.303 15.3205 61.3199 15.3365 61.3399 15.3478C61.3599 15.359 61.3824 15.3656 61.4053 15.3665C61.4078 15.3665 61.41 15.3665 61.4125 15.3665H70.7609C70.8153 15.367 70.8683 15.3497 70.9119 15.3172C70.9554 15.2847 70.9872 15.2389 71.0022 15.1867C71.1678 14.5961 71.2516 13.9857 71.251 13.3724C71.2499 9.67361 68.2484 6.67471 64.546 6.67471Z" fill="#FBAD41"/>
<path d="M8.04102 18.1348H9.63584V22.4883H12.4228V23.8846H8.04102V18.1348Z" fill="#222222"/>
<path d="M14.0745 21.0262V21.0099C14.0745 19.3589 15.4062 18.0196 17.1818 18.0196C18.9575 18.0196 20.2725 19.3423 20.2725 20.9934V21.0099C20.2725 22.661 18.9406 23.9994 17.1655 23.9994C15.3904 23.9994 14.0745 22.6773 14.0745 21.0262ZM18.6447 21.0262V21.0099C18.6447 20.1814 18.045 19.4571 17.1655 19.4571C16.294 19.4571 15.7102 20.1637 15.7102 20.9934V21.0099C15.7102 21.8386 16.3104 22.5625 17.1818 22.5625C18.0613 22.5625 18.6447 21.856 18.6447 21.0262Z" fill="#222222"/>
<path d="M22.2244 21.363V18.1346H23.8438V21.3303C23.8438 22.1589 24.2632 22.5541 24.9041 22.5541C25.5451 22.5541 25.9643 22.1764 25.9643 21.3712V18.1346H27.5841V21.321C27.5841 23.1775 26.5238 23.9903 24.8878 23.9903C23.2518 23.9903 22.2244 23.1618 22.2244 21.3621" fill="#222222"/>
<path d="M30.0247 18.135H32.2441C34.2995 18.135 35.4913 19.3177 35.4913 20.9768V20.9936C35.4913 22.6524 34.2829 23.8848 32.2115 23.8848H30.0247V18.135ZM32.2691 22.4713C33.2229 22.4713 33.8553 21.9465 33.8553 21.0171V21.0008C33.8553 20.0811 33.2229 19.547 32.2691 19.547H31.6195V22.4718L32.2691 22.4713Z" fill="#222222"/>
<path d="M37.8093 18.1348H42.4126V19.5315H39.4042V20.5086H42.1251V21.831H39.4042V23.8846H37.8093V18.1348Z" fill="#222222"/>
<path d="M44.6318 18.1348H46.2266V22.4883H49.0136V23.8846H44.6318V18.1348Z" fill="#222222"/>
<path d="M53.1807 18.0936H54.7174L57.1674 23.8846H55.4576L55.0381 22.8577H52.8184L52.4076 23.8846H50.7307L53.1807 18.0936ZM54.5779 21.6176L53.9367 19.9828L53.2871 21.6176H54.5779Z" fill="#222222"/>
<path d="M59.2219 18.1346H61.9428C62.8229 18.1346 63.4307 18.3649 63.817 18.759C64.1546 19.0877 64.3269 19.5323 64.3269 20.0983V20.1145C64.3269 20.9932 63.8571 21.5765 63.1431 21.8802L64.5161 23.8849H62.6741L61.5152 22.1431H60.8167V23.8849H59.2219V18.1346ZM61.869 20.8948C62.4116 20.8948 62.7241 20.6319 62.7241 20.2129V20.1965C62.7241 19.7447 62.3952 19.515 61.8604 19.515H60.8167V20.8959L61.869 20.8948Z" fill="#222222"/>
<path d="M66.6279 18.1348H71.2558V19.4904H68.2065V20.3606H70.9686V21.6176H68.2065V22.5295H71.2969V23.8846H66.6279V18.1348Z" fill="#222222"/>
<path d="M4.54914 21.7001C4.32581 22.2047 3.85592 22.5621 3.23153 22.5621C2.35976 22.5621 1.75998 21.8393 1.75998 21.0097V20.9931C1.75998 20.1645 2.34346 19.4569 3.21496 19.4569C3.87195 19.4569 4.37224 19.8608 4.58342 20.4101H6.26448C5.99527 19.0416 4.79181 18.0199 3.23153 18.0199C1.45566 18.0199 0.124512 19.36 0.124512 21.0097V21.026C0.124512 22.6771 1.43936 24 3.21496 24C4.73378 24 5.92091 23.0173 6.23408 21.7004L4.54914 21.7001Z" fill="#222222"/>
</g>
<defs>
<clipPath id="clip0_1320_11750">
<rect width="71.1724" height="24" fill="white" transform="translate(0.124512)"/>
</clipPath>
</defs>
</svg>
