<svg width="71" height="24" viewBox="0 0 71 24" fill="none" xmlns="http://www.w3.org/2000/svg">
<g clip-path="url(#clip0_1320_11741)">
<path d="M0.297119 14.6529C0.297119 20.4172 4.28712 24 9.33569 24C11.11 24 12.8843 23.5714 14.1785 22.6029V18.0986C13.0057 19.1458 11.4866 19.7214 9.91426 19.7143C7.29141 19.7143 5.19998 17.8372 5.19998 14.6657C5.19998 11.4943 7.28283 9.65144 9.91426 9.65144C11.4947 9.62123 13.0273 10.1944 14.2 11.2543V6.74144C12.9143 5.75144 11.1314 5.3743 9.35712 5.3743C4.28712 5.3743 0.297119 8.95715 0.297119 14.6529Z" fill="#101010"/>
<path d="M24.4643 5.3743C19.3214 5.3743 15.73 9.19715 15.73 14.6529C15.73 20.1086 19.3128 24 24.4643 24C29.6157 24 33.2285 20.1429 33.2285 14.6529C33.2285 9.16287 29.65 5.3743 24.4643 5.3743ZM24.4643 19.8043C22.0086 19.8043 20.6414 17.6614 20.6414 14.6614C20.6414 11.6614 22.0086 9.5443 24.4643 9.5443C26.92 9.5443 28.2828 11.6872 28.2828 14.6614C28.2828 17.6357 26.9543 19.8043 24.4643 19.8043Z" fill="#101010"/>
<path d="M47.2984 7.25143C46.7134 6.65061 46.0127 6.17451 45.2383 5.85189C44.4643 5.52926 43.6329 5.36679 42.7941 5.37429C37.6084 5.37429 34.677 9.57 34.677 14.6529C34.677 19.7957 37.6084 24 42.7941 24C43.6316 23.9997 44.4609 23.8338 45.234 23.5116C46.0071 23.1894 46.7087 22.7175 47.2984 22.1229V23.5929H52.2441V0H47.2984V7.25143ZM47.2984 17.6229C46.9779 18.2411 46.4931 18.759 45.897 19.1196C45.3013 19.4803 44.6177 19.6697 43.9213 19.6671C41.2256 19.6671 39.6356 17.5243 39.6356 14.6529C39.6356 11.7814 41.2384 9.67286 43.9213 9.67286C44.6216 9.6744 45.3077 9.86983 45.9039 10.2375C46.5 10.6051 46.9826 11.1306 47.2984 11.7557V17.6229Z" fill="#101010"/>
<path d="M62.1399 5.3743C59.7528 5.3743 57.4685 6.02573 56.1699 6.8443V11.13C57.6181 10.1758 59.3131 9.66498 61.0471 9.66001C63.5713 9.66001 65.0413 10.7529 65.0413 12.4929V13.4829C64.3213 12.9686 62.5813 12.4243 61.0471 12.4243C57.1256 12.4243 54.1599 14.7429 54.1599 18.1543C54.1599 21.84 57.1256 23.9186 60.7428 23.9186C62.6842 23.9186 64.4585 23.2372 65.0285 22.6586V23.6143H69.8028V12.1972C69.8156 7.8643 67.0171 5.3743 62.1399 5.3743ZM65.0413 18.7457C64.6128 19.7014 63.3013 20.2843 61.8999 20.2843C60.3313 20.2843 58.7285 19.6329 58.7285 18.0986C58.7285 16.5643 60.3313 15.9172 61.8999 15.9172C63.3013 15.9172 64.5956 16.4957 65.0413 17.4514V18.7457Z" fill="#101010"/>
</g>
<defs>
<clipPath id="clip0_1320_11741">
<rect width="69.8571" height="24" fill="white" transform="translate(0.297119)"/>
</clipPath>
</defs>
</svg>
