<svg width="73" height="24" viewBox="0 0 73 24" fill="none" xmlns="http://www.w3.org/2000/svg">
<g clip-path="url(#clip0_1320_11917)">
<path fill-rule="evenodd" clip-rule="evenodd" d="M12.5864 22.3301C12.5864 22.7002 12.8864 23.0002 13.2565 23.0002H22.5036C22.8736 23.0002 23.1759 22.6994 23.1528 22.33C22.8209 17.0168 18.57 12.7657 13.2566 12.4339C12.8873 12.4108 12.5864 12.713 12.5864 13.0831V22.3301Z" fill="#254078"/>
<path fill-rule="evenodd" clip-rule="evenodd" d="M10.7219 13.1027C10.7219 12.7326 10.4219 12.4326 10.0518 12.4326H0.804741C0.434658 12.4326 0.132453 12.7335 0.155537 13.1028C0.487426 18.4161 4.73839 22.6671 10.0517 22.999C10.421 23.022 10.7219 22.7198 10.7219 22.3498V13.1027Z" fill="#254078"/>
<path fill-rule="evenodd" clip-rule="evenodd" d="M10.7219 9.89751C10.7219 10.2676 10.4219 10.5676 10.0518 10.5676H0.804741C0.434658 10.5676 0.132453 10.2667 0.155537 9.89736C0.487426 4.58409 4.73839 0.333129 10.0517 0.00124037C10.421 -0.0218437 10.7219 0.280361 10.7219 0.650444V9.89751Z" fill="#FF62FD"/>
<path fill-rule="evenodd" clip-rule="evenodd" d="M12.5864 0.670076C12.5864 0.300003 12.8864 0 13.2565 0H22.5036C22.8736 0 23.1759 0.300851 23.1528 0.670203C22.8209 5.98347 18.57 10.2345 13.2566 10.5664C12.8873 10.5894 12.5864 10.2872 12.5864 9.91714V0.670076Z" fill="#0078FF"/>
<path d="M40.0314 12.9644C39.7254 14.265 39.056 15.3233 38.0232 16.1393C36.9904 16.9426 35.8046 17.3443 34.4658 17.3443C32.8847 17.3443 31.5395 16.796 30.4302 15.6994C29.3336 14.6029 28.7854 13.2577 28.7854 11.6639C28.7854 10.0955 29.3273 8.76309 30.4111 7.66653C31.4949 6.56998 32.8209 6.0217 34.3893 6.0217C35.7663 6.0217 36.9776 6.42972 38.0232 7.24576C39.0687 8.0618 39.7318 9.13923 40.0123 10.4781H36.7991C36.3401 9.4835 35.5496 8.98622 34.4275 8.98622C33.688 8.98622 33.0951 9.24761 32.6488 9.77038C32.2025 10.2932 31.9794 10.9307 31.9794 11.683C31.9794 12.448 32.2089 13.0919 32.6679 13.6147C33.1397 14.1247 33.7517 14.3797 34.504 14.3797C35.5368 14.3797 36.3019 13.908 36.7991 12.9644H40.0314ZM47.0572 9.21573C46.2412 9.24123 45.6164 9.38787 45.1829 9.65563C44.7621 9.91064 44.5517 10.4143 44.5517 11.1666V17H41.3768V6.38509H44.3604V7.51352H44.3987C44.9087 6.51898 45.7949 6.0217 47.0572 6.0217V9.21573ZM58.9625 17H55.7876V15.8524H55.7493C55.4816 16.3625 55.0544 16.745 54.4679 17C53.8941 17.2423 53.2885 17.3634 52.6509 17.3634C51.0571 17.3634 49.7693 16.8215 48.7875 15.7377C47.8057 14.6539 47.3148 13.3023 47.3148 11.683C47.3148 10.1019 47.8121 8.76309 48.8066 7.66653C49.8012 6.56998 51.0826 6.0217 52.6509 6.0217C53.2885 6.0217 53.8878 6.14921 54.4488 6.40422C55.0226 6.64648 55.4561 7.01625 55.7493 7.51352H55.7876V6.38509H58.9625V17ZM55.7876 11.683C55.7876 10.9052 55.5326 10.2613 55.0226 9.75126C54.5253 9.24123 53.8878 8.98622 53.11 8.98622C52.3449 8.98622 51.7138 9.25398 51.2165 9.78951C50.732 10.3123 50.4897 10.9562 50.4897 11.7212C50.4897 12.4608 50.7447 13.0919 51.2547 13.6147C51.7648 14.1375 52.3896 14.3989 53.1291 14.3989C53.8941 14.3989 54.5253 14.1375 55.0226 13.6147C55.5326 13.0919 55.7876 12.448 55.7876 11.683ZM71.6258 8.79496H70.0957V17H66.9208V8.79496H64.1858V17H61.0109V8.79496H59.8251V6.38509H61.0109V6.0982C61.0109 3.9306 62.3625 2.8468 65.0656 2.8468H65.5438V5.23754H65.1804C65.0401 5.23754 64.9062 5.25666 64.7787 5.29491C64.6512 5.32042 64.5173 5.41605 64.3771 5.5818C64.2496 5.74756 64.1858 5.96432 64.1858 6.23209V6.38509H66.9208V2.8468H70.0957V6.38509H71.6258V8.79496Z" fill="#121212"/>
</g>
<defs>
<clipPath id="clip0_1320_11917">
<rect width="72" height="24" fill="white" transform="translate(0.154297)"/>
</clipPath>
</defs>
</svg>
