<svg width="68" height="24" viewBox="0 0 68 24" fill="none" xmlns="http://www.w3.org/2000/svg">
<g clip-path="url(#clip0_1320_11362)">
<path d="M24.0971 5.71341C23.75 5.71341 23.4685 5.99486 23.4685 6.34196V15.1734C23.4685 15.5202 23.75 15.8017 24.0971 15.8017H26.094C27.2271 15.8017 28.2549 15.6839 28.9149 15.4783C29.39 15.3311 29.8684 15.0199 30.4202 14.4981C30.8875 14.0568 31.255 13.5038 31.5119 12.8543C31.7774 12.1819 31.9069 11.4728 31.9069 10.6865C31.9069 9.58948 31.6759 8.64558 31.1999 7.8024C30.768 7.03565 30.1975 6.49041 29.4032 6.08515C28.6736 5.71347 27.5888 5.71341 26.2159 5.71341H24.0971ZM61.7619 5.71341C61.6222 5.71341 61.5085 5.82663 61.5085 5.96661V15.5484C61.5085 15.6883 61.6222 15.8019 61.7619 15.8019H66.5527C66.692 15.8019 66.8069 15.6883 66.8069 15.5484V14.4215C66.8069 14.2809 66.692 14.1677 66.5527 14.1677H63.4246V5.96661C63.4246 5.82663 63.3106 5.71341 63.1713 5.71341H61.7619ZM25.3848 7.34767H26.3502C27.6331 7.34767 28.5123 7.59975 29.0393 8.11861C29.6657 8.73578 29.9697 9.56151 29.9697 10.643C29.9697 11.3699 29.831 12.0329 29.5801 12.5092C29.2776 13.0802 28.9287 13.4786 28.5711 13.6612C28.0793 13.9114 27.4599 14.1677 26.597 14.1677H25.3848V7.34767ZM37.1894 7.84415C36.051 7.84415 35.1299 8.22027 34.3749 8.99392C33.6192 9.76846 33.2523 10.7148 33.2523 11.8868C33.2523 13.0307 33.6201 13.9562 34.3785 14.7161C35.1356 15.4759 36.0897 15.845 37.295 15.845C38.0695 15.845 38.741 15.7089 39.2902 15.4409C39.753 15.2155 40.1638 14.8885 40.5127 14.4686C40.5631 14.408 40.582 14.3273 40.5643 14.2503C40.5475 14.1735 40.495 14.1091 40.4237 14.0758L39.2902 13.5546C39.2008 13.5132 39.0938 13.5279 39.0183 13.593C38.5123 14.0303 37.9275 14.2525 37.2807 14.2525C36.6344 14.2525 36.1437 14.1058 35.7804 13.8046C35.3937 13.4835 35.1791 13.1484 35.0805 12.7021H40.9843C41.1237 12.7021 41.2373 12.5897 41.2382 12.45L41.2393 12.1998C41.2393 10.8935 40.8289 9.72559 40.1132 8.99392C39.356 8.22027 38.4001 7.84415 37.1894 7.84415ZM46.522 7.84415C45.3827 7.84415 44.4625 8.22027 43.7074 8.99392C42.9521 9.76846 42.5848 10.7148 42.5848 11.8868C42.5848 13.0304 42.953 13.9556 43.711 14.7161C44.4682 15.4759 45.4222 15.845 46.6275 15.845C47.4021 15.845 48.0734 15.7089 48.6226 15.4409C49.0851 15.2155 49.4964 14.8885 49.8453 14.4688C49.8953 14.408 49.9151 14.3274 49.8968 14.2507C49.88 14.1736 49.8279 14.1091 49.7562 14.0758L48.6226 13.5546C48.5326 13.5132 48.4259 13.5279 48.3507 13.593C47.8438 14.0303 47.2593 14.2525 46.6131 14.2525C45.9668 14.2525 45.4761 14.1059 45.1119 13.805C44.7253 13.4836 44.5116 13.1481 44.413 12.7021H50.3167C50.4564 12.7021 50.5692 12.5897 50.5698 12.45L50.5719 12.1998C50.5719 10.8932 50.1615 9.725 49.4457 8.99392C48.6876 8.22027 47.7318 7.84415 46.522 7.84415H46.522ZM56.5073 7.84415C56.0469 7.84415 55.5807 7.93554 55.1929 8.1025C54.7408 8.29614 54.3254 8.56798 54.023 8.86802L53.8428 9.01195L53.0311 8.24965H52.179C52.0396 8.24965 51.9265 8.3627 51.9265 8.50208V18.3669C51.9265 18.5069 52.0399 18.6202 52.1799 18.6202H53.589C53.729 18.6202 53.8428 18.5067 53.8428 18.3664V14.7197L54.0221 14.856C54.4079 15.2169 54.9064 15.4657 55.2586 15.6114C55.633 15.766 56.0441 15.8452 56.4802 15.8452C57.4712 15.8452 58.3042 15.4711 59.0278 14.7026C59.7496 13.9361 60.1012 13.0057 60.1012 11.8586C60.1012 10.6938 59.7487 9.72141 59.0506 8.96905C58.3606 8.22238 57.5049 7.84415 56.5073 7.84415ZM37.2851 9.41488C37.7473 9.41488 38.191 9.5647 38.6028 9.85995C38.9649 10.1192 39.2287 10.4984 39.3621 10.9435L39.3917 11.0673H35.0976L35.1419 10.9516C35.3979 10.3908 35.6321 10.0374 35.8575 9.87103C36.2651 9.56858 36.7455 9.41488 37.2851 9.41488ZM46.617 9.41488C47.0795 9.41488 47.5235 9.5644 47.9347 9.85995C48.2971 10.1192 48.5612 10.4984 48.694 10.9439L48.7242 11.0673H44.4304L44.475 10.9513C44.7289 10.392 44.9627 10.0386 45.1887 9.87103C45.5976 9.56858 46.0774 9.41488 46.617 9.41488ZM56.1362 9.56281C56.7435 9.56281 57.2524 9.77748 57.6499 10.2019C58.0473 10.6252 58.2497 11.1757 58.2497 11.8379C58.2497 12.5048 58.0444 13.0609 57.6401 13.4913C57.2354 13.9221 56.7291 14.1409 56.1362 14.1409C55.5253 14.1409 55.0118 13.9256 54.6086 13.5024C54.207 13.0783 54.0026 12.516 54.0026 11.831C54.0026 11.159 54.207 10.6077 54.6093 10.1911C55.0118 9.77416 55.5253 9.56281 56.1362 9.56281Z" fill="#042B48"/>
<path d="M13.1117 12.2575C12.2734 12.2575 11.5941 11.5783 11.5941 10.7399C11.5941 10.6515 11.6016 10.5649 11.6166 10.4806L7.98729 8.39081C7.72321 8.61382 7.3818 8.74841 7.00921 8.74841C6.17083 8.74841 5.4913 8.06889 5.4913 7.2308C5.4913 6.39271 6.17083 5.71318 7.00921 5.71318C7.8476 5.71318 8.52713 6.39271 8.52713 7.2308C8.52713 7.32731 8.51724 7.42173 8.49985 7.51346L12.116 9.59549C12.3825 9.36319 12.7308 9.22231 13.1117 9.22231C13.9495 9.22231 14.6291 9.90183 14.6291 10.7399C14.6291 11.5783 13.9495 12.2575 13.1117 12.2575ZM8.50854 14.273C8.50854 15.1111 7.82932 15.7906 6.99093 15.7906C6.15314 15.7906 5.47362 15.1111 5.47362 14.273C5.47362 13.4346 6.15314 12.7551 6.99093 12.7551C7.36771 12.7551 7.71182 12.8927 7.97709 13.1199L10.623 11.5993C10.736 11.9257 10.9116 12.2231 11.1349 12.4772L8.48426 14.0009C8.49985 14.0893 8.50854 14.1801 8.50854 14.273ZM17.634 5.01118L10.4275 0.893271C9.93683 0.613009 9.33434 0.613009 8.84366 0.893271L1.63777 5.01118C1.14019 5.29534 0.833252 5.82469 0.833252 6.3972V14.7739C0.833252 15.344 1.13749 15.8713 1.63147 16.1563L14.0371 23.317L14.0392 18.2309L17.6391 16.1563C18.1337 15.8713 18.4382 15.344 18.4382 14.7733V6.3972C18.4382 5.82469 18.1313 5.29534 17.634 5.01118Z" fill="#042B48"/>
</g>
<defs>
<clipPath id="clip0_1320_11362">
<rect width="67.3315" height="24" fill="white" transform="translate(0.154297)"/>
</clipPath>
</defs>
</svg>
