<svg width="80" height="24" viewBox="0 0 80 24" fill="none" xmlns="http://www.w3.org/2000/svg">
<g clip-path="url(#clip0_1320_11381)">
<path fill-rule="evenodd" clip-rule="evenodd" d="M7.42056 15.6637C5.28114 15.6637 3.72336 14.1485 3.72336 11.9497C3.72336 9.75097 5.28114 8.25954 7.42056 8.25954C9.55999 8.25954 11.1439 9.77473 11.1439 11.9497C11.1439 14.1247 9.58615 15.6637 7.42056 15.6637ZM11.0111 5.91272C11 6.27894 11.0175 6.6454 11.0634 7.00937H10.9588C10.2644 5.93831 8.60802 5.2785 6.78659 5.2785C2.8519 5.2785 0 8.04204 0 11.9973C0 15.9525 2.74523 18.7178 6.62759 18.7178C8.64022 18.7178 10.351 17.9593 11.2224 16.6159H11.3291C11.2879 16.9974 11.2684 17.3805 11.2707 17.7638V18.3267H14.6519V0H11.0111V5.91272Z" fill="#2C2A3E"/>
<path fill-rule="evenodd" clip-rule="evenodd" d="M23.3465 15.6875C21.2091 15.6875 19.7238 14.1485 19.7238 11.9497C19.7238 9.75097 21.203 8.25954 23.3465 8.25954C25.4899 8.25954 26.9692 9.77473 26.9692 11.9497C26.9692 14.1247 25.5161 15.6875 23.3465 15.6875ZM23.3465 5.2785C19.0958 5.2785 16.0326 8.08773 16.0326 11.9973C16.0326 15.9068 19.0898 18.7178 23.3465 18.7178C27.6032 18.7178 30.6886 15.883 30.6886 11.9973C30.6886 8.11149 27.5931 5.2785 23.3465 5.2785Z" fill="#2C2A3E"/>
<path fill-rule="evenodd" clip-rule="evenodd" d="M43.6458 7.11172C43.65 6.63006 43.6238 6.14858 43.5674 5.66964H40.0271C40.0815 6.32945 40.0815 6.67124 40.0815 7.06237C40.0815 9.2849 38.4975 10.5808 36.3843 10.5808C36.1726 10.585 35.9608 10.5765 35.7503 10.5552V0H32.0531V18.3267H35.7503V13.4393C36.014 13.4631 36.2796 13.4631 36.5171 13.4631C36.8069 13.4631 37.0968 13.4631 37.3624 13.4393L40.2928 18.3267H44.4388L40.7416 12.4871C42.8549 11.2899 43.6458 9.16427 43.6458 7.11172Z" fill="#2C2A3E"/>
<path fill-rule="evenodd" clip-rule="evenodd" d="M48.0817 10.8988C48.4501 9.25383 49.6657 8.25954 51.4609 8.25954C53.1777 8.25954 54.3652 9.31049 54.6308 10.8988H48.0817ZM51.5415 5.2785C47.2888 5.2785 44.2517 8.06397 44.2517 11.9973C44.2517 15.883 47.2707 18.7178 51.5938 18.7178C53.9164 18.7178 55.7921 17.9593 57.1909 16.2742L55.0535 14.1979C54.1538 15.247 53.1516 15.6875 51.6199 15.6875C49.718 15.6875 48.4762 14.7352 48.0817 13.0738H58.1449C58.2215 12.7193 58.2572 12.3585 58.2516 11.9973C58.2516 8.08773 55.5587 5.2785 51.5455 5.2785H51.5415Z" fill="#2C2A3E"/>
<path fill-rule="evenodd" clip-rule="evenodd" d="M67.7311 5.66599V13.4448C67.7311 14.6182 66.8073 15.3987 65.6198 15.3987C64.378 15.3987 63.4804 14.6182 63.4804 13.4448V5.66599H59.7751V13.4448C59.7751 16.329 61.8622 18.4291 64.7141 18.4291H64.8792H64.9033H64.9879H65.0724C67.4674 18.3688 68.19 17.0491 68.2926 16.8389C68.3047 16.9906 68.3087 17.1405 68.3087 17.2904C68.3087 19.2461 66.9099 20.7119 64.5068 20.7119C64.0842 20.7119 63.7139 20.7119 63.0014 20.6626V23.936C63.5186 23.9889 64.0388 24.0133 64.5592 24.0091C66.7731 24.0091 69.0735 23.278 70.3676 21.3224C70.8969 20.531 71.3981 19.6975 71.3981 18.1951C71.4242 17.9502 71.4242 17.6815 71.4242 17.4128V5.66599H67.7311Z" fill="#2C2A3E"/>
<path d="M77.8566 18.164C79.0404 18.164 80 17.2925 80 16.2175C80 15.1425 79.0404 14.271 77.8566 14.271C76.6728 14.271 75.7131 15.1425 75.7131 16.2175C75.7131 17.2925 76.6728 18.164 77.8566 18.164Z" fill="#FB5F7F"/>
</g>
<defs>
<clipPath id="clip0_1320_11381">
<rect width="80" height="24" fill="white"/>
</clipPath>
</defs>
</svg>
