<svg width="72" height="24" viewBox="0 0 72 24" fill="none" xmlns="http://www.w3.org/2000/svg">
<g clip-path="url(#clip0_1320_12415)">
<path d="M27.9051 6.89084C30.3051 6.89084 32.3308 7.67186 33.9823 9.24203C35.6339 10.8041 36.4556 12.781 36.4556 15.1566C36.4556 17.5159 35.6176 19.501 33.9498 21.1037C32.2983 22.6902 30.2888 23.4875 27.9051 23.4875C25.5295 23.4875 23.5118 22.6983 21.8603 21.1037C20.2088 19.5173 19.3871 17.5322 19.3871 15.1566C19.3871 12.7729 20.2088 10.8041 21.8603 9.24203C23.5281 7.67186 25.5457 6.89084 27.9051 6.89084ZM27.9051 20.8515C29.4264 20.8515 30.7118 20.3227 31.7532 19.2569C32.8189 18.1749 33.3478 16.8081 33.3478 15.1566C33.3478 13.5295 32.8189 12.179 31.7532 11.1213C30.7118 10.0474 29.4264 9.51864 27.9051 9.51864C26.4 9.51864 25.1145 10.0474 24.0569 11.1132C22.9993 12.179 22.4542 13.5295 22.4542 15.1566C22.4542 16.7837 22.983 18.1424 24.0488 19.2244C25.1227 20.3064 26.4 20.8515 27.9051 20.8515Z" fill="#181C24"/>
<path d="M39.7993 22.56V8.78644C39.7993 8.09491 40.141 7.75322 40.8325 7.75322H41.7112C42.4027 7.75322 42.7444 8.09491 42.7444 8.78644V10.6007L42.6468 11.7885H42.7119C43.1105 10.6007 43.7451 9.60813 44.6237 8.81084C45.5024 8.02169 46.4786 7.62305 47.5688 7.62305C48.2359 7.62305 48.5695 7.96474 48.5695 8.65627V9.53491C48.5695 10.2264 48.1952 10.5681 47.4386 10.5681C45.9742 10.5681 44.8434 11.2271 44.0298 12.5369C43.2325 13.8305 42.842 15.3356 42.842 17.0441V22.5519C42.842 23.2434 42.5003 23.5851 41.8088 23.5851H40.8407C40.1491 23.5932 39.7993 23.2515 39.7993 22.56Z" fill="#181C24"/>
<path d="M53.0116 4.58848H51.9458C51.2543 4.58848 50.9126 4.24678 50.9126 3.55526V2.52204C50.9126 1.83051 51.2543 1.48882 51.9458 1.48882H53.0116C53.7031 1.48882 54.0448 1.83051 54.0448 2.52204V3.55526C54.0448 4.24678 53.7031 4.58848 53.0116 4.58848ZM50.9451 22.56V8.78644C50.9451 8.09492 51.2868 7.75322 51.9784 7.75322H52.9465C53.638 7.75322 53.9797 8.09492 53.9797 8.78644V22.56C53.9797 23.2515 53.638 23.5932 52.9465 23.5932H51.9784C51.295 23.5932 50.9451 23.2515 50.9451 22.56Z" fill="#181C24"/>
<path d="M58.3973 22.56V2.52204C58.3973 1.83051 58.739 1.48882 59.4306 1.48882H60.3987C61.0658 1.48882 61.3994 1.83051 61.3994 2.52204V13.5458H63.6855L67.5336 8.41221C67.8021 7.97288 68.2089 7.75322 68.7539 7.75322H69.9092C70.3241 7.75322 70.6007 7.87526 70.7228 8.12746C70.8448 8.37966 70.7878 8.67254 70.5356 9.0061L66.1506 14.7336V14.7986L71.219 22.3403C71.4468 22.6983 71.4956 22.9912 71.3573 23.2353C71.219 23.4793 70.9424 23.5932 70.5275 23.5932H69.2746C68.754 23.5932 68.3472 23.3573 68.0543 22.8692L63.7343 16.1654H61.3831V22.5519C61.3831 23.2434 61.0495 23.5851 60.3824 23.5851H59.4143C58.7472 23.5932 58.3973 23.2515 58.3973 22.56Z" fill="#181C24"/>
<path d="M16.2387 12.8949H15.1159C14.6278 12.8949 14.2373 12.4963 14.2373 12.0163V2.34305C14.2373 1.85491 14.6359 1.4644 15.1159 1.4644H16.2387C16.7268 1.4644 17.1173 1.86305 17.1173 2.34305V12.0081C17.1173 12.4963 16.7268 12.8949 16.2387 12.8949Z" fill="#3A30BA"/>
<path d="M8.50983 23.4793C3.81559 23.4793 0 19.7207 0 15.1078C0 10.4868 3.81559 6.72813 8.50983 6.72813H9.13627C9.62441 6.72813 10.0231 7.12678 10.0231 7.61491V8.59932C10.0231 9.08746 9.62441 9.4861 9.13627 9.4861H8.50983C5.33695 9.4861 2.74983 12.0081 2.74983 15.1159C2.74983 18.2237 5.33695 20.7458 8.50983 20.7458C11.4224 20.7458 13.8386 18.6224 14.221 15.8807C14.278 15.4495 14.6441 15.1241 15.0834 15.1241H16.0922C16.621 15.1241 17.0359 15.5878 16.9708 16.1085C16.4746 20.2495 12.8705 23.4793 8.50983 23.4793Z" fill="#181C24"/>
</g>
<defs>
<clipPath id="clip0_1320_12415">
<rect width="71.5119" height="24" fill="white"/>
</clipPath>
</defs>
</svg>
