<svg width="99" height="24" viewBox="0 0 99 24" fill="none" xmlns="http://www.w3.org/2000/svg">
<g clip-path="url(#clip0_1320_11337)">
<path fill-rule="evenodd" clip-rule="evenodd" d="M97.7069 16.6199C97.4024 16.3994 97.1609 16.3679 96.9615 16.7878C93.5393 24.1884 87.7762 20.4934 88.3536 20.8188C89.6343 20.2309 92.9936 17.5436 92.4896 13.8171C92.1852 11.5391 90.2326 10.5314 88.1542 10.8988C84.5326 11.5286 83.21 15.4337 83.8817 18.8873C83.9972 19.4856 84.2072 19.9685 84.4277 20.4514C80.3441 23.7791 78.7172 17.4806 78.528 16.7248C78.5177 16.6828 81.6879 14.048 82.5696 7.76009C83.4934 1.17823 81.3939 -0.0289627 79.242 0.0130267C75.2636 0.0865082 74.1927 8.38992 75.6308 15.3077C75.5153 15.3392 74.9484 15.6541 74.0458 15.6856C73.3949 13.6386 70.6131 11.8436 69.8888 12.5364C68.0727 14.2685 70.3296 17.6486 71.9254 17.911C70.97 23.8001 64.9865 22.3409 66.0992 14.9613C68.0412 11.3502 69.5319 5.96503 69.259 2.72134C69.1644 1.57713 68.3141 0.0340214 66.3932 0.107503C62.6981 0.254467 62.2992 8.55787 62.7296 14.4574C62.7087 14.3104 62.4987 15.1712 60.9869 15.6016C60.63 13.6176 57.4284 11.6126 56.6727 12.5784C55.266 14.3734 57.7119 17.5751 58.8665 17.7956C57.9113 23.6846 51.9279 22.2254 53.0405 14.8458C54.9932 11.2347 56.4732 5.86005 56.2107 2.61638C56.1164 1.47216 55.266 -0.0709521 53.3448 0.00252936C49.6498 0.149492 49.2509 8.4529 49.6815 14.3524C49.6604 14.2055 49.4504 15.0977 47.8757 15.5176C47.8234 12.9353 44.6112 11.7596 43.8344 12.5784C42.4592 14.048 44.1492 17.0607 45.7133 17.7956C44.7581 23.6846 38.7747 22.2254 39.8873 14.8458C41.8294 11.2347 43.32 5.84957 43.0472 2.60587C42.9632 1.47216 42.1128 -0.0709521 40.1916 0.00252936C36.4966 0.149492 36.2028 8.8728 36.6332 14.7723C35.4154 19.9895 31.332 26.4979 31.8672 13.4496C31.9198 12.5364 31.9724 12.19 31.5209 11.8436C31.1746 11.5811 30.3977 11.7071 29.9777 11.7176C29.4634 11.7386 29.3271 12.043 29.222 12.4944C28.9596 13.6701 28.9071 14.8143 28.8651 16.3784C28.8442 17.1132 28.7811 17.4492 28.4976 18.4464C28.2142 19.4436 26.6187 21.2597 25.7369 20.9553C24.5192 20.5354 24.918 17.1027 25.1489 14.7408C25.338 12.8723 24.7292 12.043 23.1755 11.7386C22.2622 11.5496 21.7059 11.5811 20.7611 11.2767C19.8584 10.9933 19.6589 9.2927 17.7484 9.85956C16.6987 10.1745 17.3705 12.3894 17.1185 14.0375C15.8799 22.131 13.308 22.3514 12.1113 18.4254C17.486 5.24071 13.6544 0.0445188 11.4185 0.0445188C9.08807 0.0445188 6.42174 1.65061 7.54494 11.938C6.99909 11.7806 6.83114 11.6966 6.22228 11.6966C2.83164 11.6861 0.511719 14.4364 0.511719 17.8271C0.511719 21.2177 2.83164 23.968 6.23279 23.968C8.23777 23.968 9.64442 23.0547 10.7152 21.6481C11.408 22.6453 12.2583 23.989 13.8119 23.926C18.4307 23.7476 19.7744 14.2685 19.9318 13.7331C20.4252 13.8066 20.8976 13.9535 21.349 14.027C22.1048 14.1425 22.1678 14.4469 22.1468 15.2027C21.9473 21.6481 23.1335 23.905 25.8315 23.905C27.3324 23.905 28.6762 22.4249 29.6 21.3752C30.2928 22.8028 31.3844 23.863 32.8647 23.905C36.4337 23.989 37.8089 18.2994 37.6829 19.0447C37.5884 19.6326 38.8376 23.863 42.5223 23.884C47.078 23.905 47.9283 18.8978 48.0228 18.058C48.0334 17.89 48.0437 17.911 48.0228 18.058C48.0228 18.0685 48.0228 18.0895 48.0228 18.1105C49.4715 17.8375 50.2167 17.0712 50.2167 17.0712C50.2167 17.0712 51.3819 23.968 55.6755 23.8945C60.1368 23.8105 60.9869 19.2862 61.092 18.4044C61.1026 18.1945 61.1129 18.2154 61.092 18.4044C61.092 18.4149 61.092 18.4254 61.092 18.4254C62.8136 17.7956 63.265 17.1762 63.265 17.1762C63.265 17.1762 64.1888 23.9365 68.7236 23.9995C72.7652 24.0521 74.2661 19.9055 74.2767 18.1735C74.959 18.184 76.2188 17.7641 76.1873 17.7431C76.1873 17.7431 77.6674 23.6531 81.8033 23.9575C83.7454 24.1044 85.2044 22.8658 86.0338 22.2989C87.9862 23.884 94.4842 25.8996 98.5887 18.9398C99.1764 17.953 97.9272 16.7668 97.7069 16.6199ZM6.06482 21.6691C4.08083 21.6691 2.81064 19.8321 2.81064 17.8585C2.81064 15.885 3.97585 14.048 5.95986 14.048C6.85213 14.048 7.3455 14.1425 8.04882 14.7513C8.1748 15.2447 8.5317 16.3889 8.71017 16.9138C8.94109 17.6066 9.22453 18.205 9.49746 18.8453C9.08807 20.5039 7.78638 21.6691 6.06482 21.6691ZM10.8936 14.8038C10.8096 14.6674 10.8306 14.7513 10.7362 14.6254C10.3792 13.6386 9.67593 11.4342 9.59195 8.92529C9.49746 6.09101 9.96986 2.76334 11.366 2.76334C12.3108 2.76334 13.3185 9.50265 10.8936 14.8038ZM38.827 11.8541C38.6067 10.1745 38.5961 2.66887 40.3913 2.8788C41.3885 3.2777 39.7613 10.3529 38.827 11.8541ZM51.9802 11.8541C51.7599 10.1745 51.7493 2.66887 53.5445 2.8788C54.5417 3.2777 52.9145 10.3529 51.9802 11.8541ZM65.0285 11.959C64.808 10.2794 64.7976 2.77382 66.5926 2.98378C67.5898 3.37219 65.9628 10.4579 65.0285 11.959ZM79.4309 2.42743C81.079 2.25946 81.0056 9.45017 77.7094 13.985C77.2788 12.3474 76.6282 2.99429 79.4309 2.42743ZM86.3592 17.911C85.8344 15.2342 87.199 13.4811 88.6056 13.2922C89.0991 13.2187 89.8128 13.5336 89.9492 14.132C90.1803 15.2552 89.9177 16.9243 86.7581 19.0343C86.7687 19.0447 86.4747 18.4989 86.3592 17.911ZM30.5237 9.66009C31.6469 9.66009 32.5601 8.74682 32.5601 7.62362C32.5601 6.5004 31.6469 5.58713 30.5237 5.58713C29.4005 5.58713 28.4871 6.5004 28.4871 7.62362C28.4871 8.74682 29.4005 9.66009 30.5237 9.66009Z" fill="#444444"/>
</g>
<defs>
<clipPath id="clip0_1320_11337">
<rect width="98.4" height="24" fill="white" transform="translate(0.511719)"/>
</clipPath>
</defs>
</svg>
