<svg width="127" height="24" viewBox="0 0 127 24" fill="none" xmlns="http://www.w3.org/2000/svg">
<g clip-path="url(#clip0_1320_11556)">
<path fill-rule="evenodd" clip-rule="evenodd" d="M113.235 18.4278L117.874 12.1873L113.595 6.29086H117.259L119.737 9.96979L122.237 6.29086H125.88L121.538 12.1662L126.112 18.4278H122.512L119.695 14.4681L116.963 18.4278H113.235Z" fill="black"/>
<path fill-rule="evenodd" clip-rule="evenodd" d="M101.572 12.6018C101.572 16.6075 103.76 18.737 107.635 18.737C111.262 18.737 113.721 16.6075 113.721 12.6018V12.2645C113.721 8.21652 111.22 5.98172 107.635 5.98172C104.135 5.98172 101.572 8.17436 101.572 12.2645V12.6018ZM110.562 12.6027C110.562 14.8249 109.454 16.0313 107.635 16.0313C105.838 16.0313 104.73 14.8038 104.73 12.6027V12.3064C104.73 9.93609 105.9 8.68738 107.656 8.68738C109.433 8.68738 110.562 10.0208 110.562 12.3064V12.6027Z" fill="black"/>
<path fill-rule="evenodd" clip-rule="evenodd" d="M90.9746 16.2081C91.6319 17.7676 92.9465 18.737 94.9608 18.737C98.0773 18.737 100.113 16.4609 100.113 12.4147V12.0564C100.113 8.01022 97.9506 6.00817 95.0456 5.9871C93.1161 5.9871 91.7591 6.85114 91.0807 8.4317V2.19376H87.9639V18.4209H90.7202L90.9746 16.2081ZM96.9541 12.4437C96.9541 14.8495 95.8425 16.0313 94.0174 16.0313C92.2764 16.0313 91.1226 14.7228 91.1226 12.4437V12.1905C91.1226 10.1013 92.3183 8.68735 94.0594 8.68735C95.7376 8.68735 96.9541 9.91133 96.9541 12.1483V12.4437Z" fill="black"/>
<path fill-rule="evenodd" clip-rule="evenodd" d="M74.1138 6.30523V22.6022H77.2251V16.499C77.8813 17.917 79.1725 18.7845 81.1198 18.7845C83.9983 18.7845 86.2631 16.6895 86.2631 12.6688V12.3302C86.2631 8.22487 84.2311 5.98172 81.1198 5.98172C79.1089 5.98172 77.7543 7.01865 77.0982 8.58462L76.7806 6.30523H74.1138ZM83.1043 12.5915C83.1043 14.8284 81.9504 16.0313 80.1464 16.0313C78.4054 16.0313 77.2726 14.6807 77.2726 12.5282V12.296C77.2726 10.038 78.4473 8.68738 80.2094 8.68738C81.8665 8.68738 83.1043 9.8903 83.1043 12.3171V12.5915Z" fill="black"/>
<path fill-rule="evenodd" clip-rule="evenodd" d="M60.2637 12.6018C60.2637 16.6075 62.4726 18.737 66.3487 18.737C69.9747 18.737 72.4129 16.6075 72.4129 12.6018V12.2645C72.4129 8.21652 69.933 5.98172 66.3487 5.98172C62.8477 5.98172 60.2637 8.17436 60.2637 12.2645V12.6018ZM69.2541 12.6027C69.2541 14.8249 68.1254 16.0313 66.3278 16.0313C64.5303 16.0313 63.4225 14.8038 63.4225 12.6027V12.3064C63.4225 9.93609 64.593 8.68738 66.3487 8.68738C68.1254 8.68738 69.2541 10.0208 69.2541 12.3064V12.6027Z" fill="black"/>
<path fill-rule="evenodd" clip-rule="evenodd" d="M51.759 18.4279H54.9458V12.8523C54.9458 10.2758 55.5831 9.36767 58.2174 9.36767H59.5346V6.13641H58.7485C56.4754 6.13641 55.2219 7.12902 54.7333 9.072L54.3296 6.29031H51.759V18.4279Z" fill="black"/>
<path fill-rule="evenodd" clip-rule="evenodd" d="M37.666 3.43056V18.4277H43.452C47.221 18.4277 50.0584 16.2384 50.0584 11.3969V10.3654C50.0584 5.54494 47.0516 3.43056 43.3674 3.43056H37.666ZM40.8249 6.13622H43.2353C45.4123 6.13622 46.8995 7.51166 46.8995 10.5376V11.3206C46.8995 14.3465 45.4554 15.722 43.3431 15.722H40.8249V6.13622Z" fill="black"/>
<path d="M8.30469 0.307495L1.37134 4.71678L8.30469 9.12607L15.2392 4.71678L22.1726 9.12607L29.1059 4.71678L22.1726 0.307495L15.2392 4.71678L8.30469 0.307495Z" fill="#0056FE"/>
<path d="M8.30469 17.9448L1.37134 13.5354L8.30469 9.1261L15.2392 13.5354L8.30469 17.9448Z" fill="#0056FE"/>
<path d="M15.2393 13.5354L22.1727 9.1261L29.106 13.5354L22.1727 17.9448L15.2393 13.5354Z" fill="#0056FE"/>
<path d="M15.2389 23.8238L8.30444 19.4145L15.2389 15.0052L22.1723 19.4145L15.2389 23.8238Z" fill="#0056FE"/>
</g>
<defs>
<clipPath id="clip0_1320_11556">
<rect width="125.76" height="24" fill="white" transform="translate(0.911865)"/>
</clipPath>
</defs>
</svg>
