<svg width="84" height="24" viewBox="0 0 84 24" fill="none" xmlns="http://www.w3.org/2000/svg">
<g clip-path="url(#clip0_1320_11677)">
<path fill-rule="evenodd" clip-rule="evenodd" d="M11.2423 0.81796C12.312 -0.272653 14.0614 -0.272653 15.1305 0.81796L24.9049 10.7828C25.9734 11.8722 25.9734 13.6571 24.9049 14.7477L18.0686 21.7168C17.5686 22.2266 16.8775 22.5416 16.115 22.5416H10.259C9.56434 22.5416 8.93042 22.2806 8.44409 21.8497L1.47322 14.7422C0.40476 13.6522 0.40476 11.8685 1.47322 10.7779L11.2423 0.81796ZM14.8584 19.0094L13.8834 20.0035C13.812 20.0763 13.7132 20.1213 13.6043 20.1213H12.7691C12.6697 20.1213 12.5798 20.0842 12.5096 20.0223L11.5155 19.0082C11.3638 18.8534 11.3638 18.5991 11.5155 18.4432L12.909 17.0224C13.062 16.8664 13.312 16.8664 13.4638 17.0224L14.8584 18.4438C15.0114 18.5991 15.0114 18.8534 14.8584 19.0094ZM14.8584 13.0478L10.9596 17.023C10.8876 17.0958 10.7894 17.1407 10.681 17.1407H9.84531C9.74648 17.1407 9.65542 17.1037 9.58637 17.0418L8.59173 16.0283C8.43934 15.8723 8.43934 15.6174 8.59173 15.4626L12.909 11.0607C13.062 10.9054 13.312 10.9054 13.4644 11.0607L14.8584 12.4821C15.0114 12.6375 15.0114 12.8924 14.8584 13.0478ZM14.8584 7.0861L8.03635 14.0419C7.96374 14.1147 7.86551 14.1596 7.7572 14.1596H6.92205C6.82325 14.1596 6.73219 14.1226 6.66314 14.0607L5.66789 13.0465C5.51551 12.8918 5.51551 12.6369 5.66789 12.4809L12.909 5.09847C13.062 4.9425 13.3108 4.9425 13.4638 5.09847L14.8584 6.52045C15.0114 6.67582 15.0114 6.93074 14.8584 7.0861Z" fill="#26A943"/>
<path d="M72.1854 9.15625V4.97224H69.2271V20.1352H72.1854V9.59991L75.8123 19.4555C75.8962 19.6673 75.9366 19.9009 75.9366 20.1352C75.9366 20.815 75.5622 21.4297 74.7916 21.5147C74.2086 21.5366 73.626 21.4722 73.0636 21.4085V23.8944C73.667 23.9581 74.2705 24 74.8754 24C76.8943 24 77.9362 23.2778 78.5824 21.5147L83.0814 9.15625H80.0195L77.6658 16.674H77.6247L75.1869 9.15625H72.1854Z" fill="#2E2E2E"/>
<path d="M37.5224 5.0572C37.023 5.03597 36.4814 4.97224 35.9609 4.97224C33.5445 4.97224 32.3575 6.35294 32.3575 8.30599V9.15625H30.5867V11.173H32.3575V20.1352H35.3147V11.173H37.3564V9.15625H35.3147V8.49715C35.3147 7.58437 35.6272 7.24389 36.4389 7.24389C36.7937 7.24389 37.1682 7.26636 37.5224 7.30883V5.0572Z" fill="#2E2E2E"/>
<path fill-rule="evenodd" clip-rule="evenodd" d="M68.5809 4.97224V20.1352H65.7683V18.7327H65.7272C65.0396 19.9228 63.8523 20.432 62.4569 20.432C59.504 20.432 57.9272 18.099 57.6647 15.3783H49.9182C50.002 17.3107 50.8967 18.1597 52.564 18.1597C53.7498 18.1597 54.7092 17.4157 54.8963 16.7377H57.5004C56.6659 19.3499 54.8963 20.432 52.4593 20.432C49.311 20.432 47.2736 18.3867 46.9945 15.3783H39.3781C39.4617 17.3107 40.3569 18.1597 42.023 18.1597C43.2097 18.1597 44.1683 17.4157 44.3551 16.7377H46.9587C46.1265 19.3499 44.3551 20.432 41.9192 20.432C38.5228 20.432 36.4192 18.0535 36.4192 14.6554C36.4192 11.3642 38.648 8.85888 41.9192 8.85888C44.886 8.85888 46.6247 10.9175 47.0581 13.4926C47.5188 10.7919 49.588 8.85888 52.4593 8.85888C55.5729 8.85888 57.3339 11.1257 57.6528 13.8774C57.8795 11.1949 59.4713 8.85888 62.395 8.85888C63.6647 8.85888 64.9147 9.41054 65.5809 10.4933H65.6237V4.97224H68.5809ZM41.836 11.1305C39.9189 11.1305 39.4409 12.6175 39.3781 13.4671H44.1891C43.9182 11.9371 43.2731 11.1305 41.836 11.1305ZM49.9182 13.4671C49.9812 12.6175 50.4598 11.1305 52.376 11.1305C53.8128 11.1305 54.4594 11.9371 54.7295 13.4671H49.9182ZM65.7272 14.6136C65.7272 12.8299 65.1024 11.1305 63.1855 11.1305C61.2499 11.1305 60.5826 12.8511 60.5826 14.6348C60.5826 16.3554 61.3529 18.1597 63.1855 18.1597C65.1238 18.1597 65.7272 16.4185 65.7272 14.6136Z" fill="#2E2E2E"/>
</g>
<defs>
<clipPath id="clip0_1320_11677">
<rect width="82.4096" height="24" fill="white" transform="translate(0.671875)"/>
</clipPath>
</defs>
</svg>
