<svg width="51" height="24" viewBox="0 0 51 24" fill="none" xmlns="http://www.w3.org/2000/svg">
<path d="M4.08429 24C6.29129 24 8.0829 22.2084 8.0829 20.0014V16.0028H4.08429C1.8773 16.0028 0.0856934 17.7944 0.0856934 20.0014C0.0856934 22.2084 1.8773 24 4.08429 24Z" fill="#0ACF83"/>
<path d="M0.081543 12C0.081543 9.793 1.87315 8.00139 4.08014 8.00139H8.07874V16.0028H4.08014C1.87315 16.0028 0.081543 14.2112 0.081543 12.0042V12Z" fill="#A259FF"/>
<path d="M0.081543 3.9986C0.081543 1.79161 1.87315 0 4.08014 0H8.07874V8.0014H4.08014C1.87315 8.0014 0.081543 6.20979 0.081543 4.0028V3.9986Z" fill="#F24E1E"/>
<path d="M8.04517 0H12.0438C14.2508 0 16.0424 1.79161 16.0424 3.9986C16.0424 6.20559 14.2508 7.9972 12.0438 7.9972H8.04517V0Z" fill="#FF7262"/>
<path d="M16.0843 12C16.0843 14.207 14.2927 15.9986 12.0857 15.9986C9.87873 15.9986 8.04517 14.207 8.04517 12C8.04517 9.793 9.83677 8.00139 12.0438 8.00139C14.2508 8.00139 16.0424 9.793 16.0424 12H16.0843Z" fill="#1ABCFE"/>
<path d="M20.4563 6.62936V15.0126H21.5346V11.0098H24.1276V9.96922H21.5346V7.67832H24.9039V6.62936H20.4563ZM26.8549 8.33286C27.2451 8.33286 27.5598 8.01818 27.5598 7.62797C27.5598 7.23776 27.2409 6.96503 26.8549 6.96503C26.4689 6.96503 26.15 7.27971 26.15 7.66992C26.15 7.85874 26.2255 8.03496 26.3598 8.17342C26.4941 8.31188 26.6703 8.38321 26.8633 8.38321L26.8549 8.33286ZM26.3094 9.3902V15.0126H27.3458V9.3902H26.2759H26.3094ZM31.3948 9.22237C29.9598 9.22237 28.9612 10.4811 28.9612 11.8741C28.9612 13.2671 29.9682 14.5175 31.3948 14.5175C31.6916 14.5227 31.9863 14.466 32.26 14.3512C32.5338 14.2363 32.7807 14.0658 32.985 13.8503V14.5972C32.982 15.0459 32.8079 15.4766 32.4983 15.8014C32.3418 15.961 32.1551 16.0877 31.949 16.1742C31.743 16.2606 31.5217 16.3051 31.2983 16.3049C30.9551 16.294 30.6226 16.1832 30.3416 15.986L29.7962 16.9217C30.215 17.1911 30.6988 17.3425 31.1965 17.36C31.6943 17.3776 32.1875 17.2606 32.6243 17.0213C33.0611 16.7821 33.4253 16.4295 33.6786 16.0007C33.9318 15.5718 34.0647 15.0826 34.0633 14.5846V9.38181H32.985V9.88531C32.7807 9.66988 32.5338 9.49931 32.26 9.38446C31.9863 9.26961 31.6916 9.21298 31.3948 9.21818V9.22237ZM30.0437 11.8741C30.0191 11.6013 30.0713 11.3271 30.1944 11.0824C30.3175 10.8378 30.5065 10.6324 30.7402 10.4895C31.2185 10.1958 31.8185 10.1958 32.2927 10.4895C32.7668 10.7832 33.0353 11.3203 32.9892 11.8741C33.0137 12.1469 32.9615 12.4211 32.8385 12.6658C32.7154 12.9105 32.5263 13.1159 32.2927 13.2587C31.8143 13.5524 31.2143 13.5524 30.7402 13.2587C30.2661 12.965 29.9976 12.428 30.0437 11.8741Z" fill="black"/>
<path d="M37.9528 10.3217C37.6427 10.3228 37.3456 10.4465 37.1263 10.6658C36.907 10.8851 36.7833 11.1822 36.7822 11.4923V15.0504H35.7039V9.42798H36.7822V9.9021C37.1095 9.46574 37.6297 9.21399 38.1752 9.22238C38.8633 9.2056 39.5053 9.57483 39.8451 10.1748C40.2647 9.58742 40.8689 9.23077 41.5234 9.22238C42.7528 9.22238 43.5164 10.2126 43.5206 11.4378V15.0168H42.4423V11.4504C42.4739 11.2282 42.4412 11.0016 42.3481 10.7975C42.255 10.5933 42.1054 10.42 41.9169 10.2982C41.7285 10.1764 41.5091 10.1111 41.2847 10.1101C41.0603 10.109 40.8403 10.1723 40.6507 10.2923C40.4622 10.4152 40.3129 10.5897 40.2207 10.795C40.1284 11.0003 40.0971 11.2278 40.1304 11.4504V15.0084H39.0941V11.4545C39.093 11.1444 38.9693 10.8473 38.75 10.628C38.5307 10.4087 38.2336 10.285 37.9234 10.2839L37.9528 10.3217ZM49.2815 10.028C49.036 9.77186 48.7408 9.56865 48.414 9.43084C48.0871 9.29302 47.7355 9.22351 47.3808 9.22658C45.7738 9.22658 44.6535 10.586 44.6535 12.1636C44.6535 13.7413 45.7864 15.1007 47.3808 15.1007C47.7355 15.1038 48.0871 15.0343 48.414 14.8964C48.7408 14.7586 49.036 14.5554 49.2815 14.2993V14.9371H50.3598V9.31469H49.2815V10.028ZM45.715 12.2098C45.6605 11.5385 45.9878 10.8923 46.5626 10.5399C47.1374 10.1874 47.8213 10.1874 48.4339 10.5399C48.7145 10.714 48.9419 10.9618 49.0913 11.2563C49.2408 11.5507 49.3066 11.8805 49.2815 12.2098C49.336 12.8811 49.0087 13.5273 48.4339 13.8797C47.8591 14.2322 47.1752 14.2322 46.5626 13.8797C46.282 13.7056 46.0546 13.4578 45.9052 13.1633C45.7557 12.8689 45.69 12.5391 45.715 12.2098Z" fill="black"/>
</svg>
