<svg width="88" height="24" viewBox="0 0 88 24" fill="none" xmlns="http://www.w3.org/2000/svg">
<g clip-path="url(#clip0_1320_12214)">
<path d="M8.05307 24.0117C5.83374 24.0117 1.65151 24.0117 1.65151 18.6498V14.9665C1.26515 14.8348 0.931313 14.5825 0.699209 14.2467C0.467105 13.9109 0.349014 13.5095 0.362344 13.1015V10.8892C0.36064 10.4838 0.483328 10.0876 0.713855 9.75409C0.944381 9.4206 1.27165 9.16584 1.65151 9.02419V5.36183C1.64918 0 5.78012 0 8.05307 0C8.31042 -1.82366e-07 8.56525 0.0507282 8.80299 0.149284C9.04072 0.24784 9.2567 0.392291 9.43857 0.574377C9.62044 0.756463 9.76463 0.972612 9.86291 1.21046C9.96118 1.44832 10.0116 1.70321 10.0113 1.96056V3.40593C11.1979 2.58067 12.6433 2.47343 13.4172 2.47343H15.4827C15.7486 2.46985 16.0123 2.52227 16.2567 2.6273C16.4751 2.5643 16.7008 2.52982 16.9281 2.52472H20.1755C20.433 2.52441 20.6881 2.57492 20.9261 2.67334C21.1641 2.77175 21.3804 2.91616 21.5625 3.09827C21.7446 3.28039 21.889 3.49664 21.9874 3.73465C22.0858 3.97265 22.1363 4.22773 22.136 4.48529V7.17319H25.078C25.3987 7.18667 25.7144 7.25691 26.0105 7.38067C26.6596 7.09086 27.3653 6.94987 28.076 6.96804C28.8058 6.95426 29.5299 7.09931 30.1981 7.39316C30.8664 7.68702 31.4627 8.12264 31.9458 8.66984C32.1463 8.88945 32.32 9.13204 32.4634 9.39252C32.7274 9.04201 33.0206 8.71446 33.3399 8.41341C34.4239 7.48092 35.9206 6.96804 37.7273 6.96804C39.2752 6.96804 40.5667 7.2781 41.6507 7.94716L41.702 7.89587C41.8875 7.66498 42.1235 7.47975 42.3919 7.35445C42.6603 7.22916 42.9538 7.16715 43.25 7.17319H46.2433C46.7879 7.18145 47.3073 7.40429 47.6886 7.7933C48.0699 7.40429 48.5893 7.18145 49.134 7.17319H51.1971C51.4618 7.1653 51.7249 7.21692 51.967 7.32424C52.2091 7.43157 52.424 7.59186 52.5959 7.7933C52.9645 7.41376 53.4658 7.19155 53.9946 7.17319H56.9366C57.2327 7.16715 57.5263 7.22916 57.7946 7.35445C58.063 7.47975 58.299 7.66498 58.4845 7.89587C58.5358 7.94716 58.5871 8.05207 58.6407 8.10335C59.7812 7.33169 61.1339 6.93483 62.5106 6.96804C64.4711 6.96804 66.0727 7.58815 67.2593 8.83303C67.5105 9.08464 67.7354 9.36115 67.9307 9.65828C68.0332 9.50442 68.1871 9.34823 68.292 9.19204C69.1173 8.1593 70.6652 6.97271 73.3484 6.97271C74.5911 6.95678 75.8172 7.25849 76.9106 7.84925C77.1799 7.50422 77.562 7.26491 77.9899 7.17319V4.42934C77.9896 4.17178 78.0401 3.9167 78.1385 3.6787C78.237 3.44069 78.3814 3.22444 78.5635 3.04232C78.7456 2.86021 78.9618 2.71581 79.1998 2.61739C79.4379 2.51897 79.6929 2.46847 79.9505 2.46877H83.2025C83.4597 2.46908 83.7143 2.52003 83.9518 2.61873C84.1892 2.71742 84.4049 2.86192 84.5865 3.04397C84.7682 3.22603 84.9122 3.44207 85.0103 3.67977C85.1084 3.91748 85.1588 4.17218 85.1584 4.42934V7.17319C85.6206 7.25422 86.0395 7.4953 86.3417 7.8542C86.6439 8.2131 86.8101 8.6669 86.8113 9.13609V11.4067C86.81 11.8756 86.6437 12.3291 86.3415 12.6876C86.0392 13.0461 85.6204 13.2867 85.1584 13.3673V14.9199H85.6247C86.1453 14.9199 86.6446 15.1267 87.0127 15.4948C87.3808 15.8629 87.5876 16.3622 87.5876 16.8828V19.5613C87.5876 19.819 87.5368 20.0741 87.4381 20.3122C87.3395 20.5502 87.1948 20.7664 87.0125 20.9485C86.8302 21.1306 86.6138 21.275 86.3757 21.3733C86.1376 21.4717 85.8824 21.5222 85.6247 21.5219H83.5616C81.9623 21.5219 80.6196 21.0557 79.6894 20.1815C79.5434 20.0676 79.4208 19.9267 79.328 19.7665C79.2201 19.9291 79.0825 20.0699 78.9224 20.1815C78.2171 20.6923 77.4283 21.0765 76.5912 21.3168C75.6243 21.6294 74.614 21.7868 73.5979 21.783C71.5324 21.783 69.7793 21.0603 68.4878 19.7175C68.365 19.8854 68.2269 20.0415 68.0752 20.1838C67.3696 20.6942 66.5809 21.0783 65.744 21.3191C64.7603 21.6353 63.7326 21.7927 62.6994 21.7853C60.6339 21.7853 58.8785 21.0627 57.5893 19.7199C57.2683 19.364 56.9745 18.9845 56.7105 18.5846L56.4027 19.9833C56.3016 20.4129 56.0571 20.7951 55.7097 21.0672C55.3622 21.3392 54.9324 21.4848 54.4911 21.4799H51.7659C51.4088 21.4729 51.0597 21.3731 50.7528 21.1904C50.4459 21.0077 50.1917 20.7484 50.0152 20.4379C49.8473 20.756 49.5942 21.0212 49.2841 21.2036C48.9741 21.386 48.6194 21.4784 48.2598 21.4706H45.5206C45.0796 21.4754 44.6501 21.3297 44.3031 21.0576C43.956 20.7856 43.712 20.4033 43.6113 19.974L43.4038 18.9925C43.067 19.5378 42.6081 19.9975 42.0634 20.3353C40.9281 21.1606 39.4314 21.6245 37.634 21.6245C35.769 21.6245 34.2794 21.1093 33.0905 20.1278C32.962 20.5204 32.7122 20.862 32.3769 21.1034C32.0417 21.3447 31.6385 21.4733 31.2255 21.4706H28.0783C27.8136 21.4785 27.5505 21.4269 27.3085 21.3196C27.0664 21.2122 26.8515 21.052 26.6796 20.8505C26.5007 21.0593 26.2792 21.2273 26.0298 21.3432C25.7805 21.459 25.5092 21.52 25.2342 21.5219H22.0404C21.7117 21.5236 21.3888 21.434 21.1079 21.2631C20.8243 21.4276 20.5033 21.5166 20.1755 21.5219H16.9117C16.4302 21.5075 15.9692 21.3235 15.61 21.0023C15.2509 20.6811 15.0167 20.2435 14.9488 19.7665C14.8611 20.2113 14.6239 20.6126 14.2766 20.904C13.9293 21.1953 13.4928 21.3591 13.0396 21.368H10.5265C10.3726 21.4193 10.1675 21.4706 9.96001 21.5219V22.0394C9.97491 22.2968 9.93629 22.5544 9.8466 22.7961C9.7569 23.0378 9.61808 23.2583 9.43889 23.4436C9.2597 23.6289 9.04403 23.7751 8.80551 23.8729C8.56698 23.9706 8.31078 24.0179 8.05307 24.0117Z" fill="#240C2E"/>
<path d="M83.2492 4.48994V9.18737H84.9021V11.458H83.2492V15.6892C83.2251 15.8574 83.2405 16.029 83.2942 16.1903C83.3478 16.3516 83.4383 16.4982 83.5584 16.6185C83.6784 16.7388 83.8249 16.8295 83.9861 16.8835C84.1473 16.9374 84.3188 16.9532 84.4871 16.9294H85.683V19.6126H83.6176C82.7923 19.6126 81.7526 19.4588 81.0369 18.7874C80.3212 18.116 80.0042 17.2394 80.0042 15.9899V11.4067H78.5075V9.13608H80.0042V4.48994H83.2492ZM73.5979 19.8154C72.1013 19.8154 70.8005 19.2979 69.9333 18.3701C69.0008 17.4376 68.5905 16.202 68.5905 14.7567V14.4C68.5905 12.8008 69.0054 11.5093 69.8307 10.4765C70.6559 9.49742 71.8425 8.97989 73.3905 8.97989C74.7892 8.97989 75.9199 9.39251 76.6938 10.2201C77.5214 11.0966 77.8828 12.2319 77.8828 13.6773V15.3861H71.9474V15.4374C72.0023 15.9367 72.2458 16.3962 72.6282 16.7219C72.8229 16.8994 73.0509 17.0366 73.299 17.1254C73.5471 17.2142 73.8104 17.253 74.0735 17.2394C74.5602 17.2532 75.0464 17.2007 75.5189 17.0832C76.0001 16.9552 76.4684 16.7828 76.9176 16.568L77.6916 18.5799C77.1569 18.9643 76.5643 19.2609 75.9362 19.4588C75.1822 19.7077 74.3918 19.8282 73.5979 19.8154ZM73.3392 11.4533C73.1361 11.4343 72.9318 11.4725 72.7493 11.5636C72.5668 11.6546 72.4134 11.7949 72.3064 11.9685C72.0795 12.3836 71.9391 12.8404 71.8938 13.3113L71.9474 13.3626H74.7263V13.1085C74.7263 12.542 74.6237 12.176 74.4162 11.9219C74.2882 11.7625 74.1231 11.6369 73.9354 11.556C73.7476 11.4752 73.5429 11.4415 73.3392 11.458V11.4533ZM62.7088 19.8154C61.2098 19.8154 59.9113 19.2979 59.0441 18.3701C58.1473 17.3861 57.6683 16.092 57.7083 14.7613V14.4C57.7083 12.8008 58.1209 11.5093 58.9462 10.4765C59.7738 9.49742 60.9604 8.97989 62.5083 8.97989C63.907 8.97989 65.0377 9.39251 65.8116 10.2201C66.5856 11.0477 66.9982 12.2319 66.9982 13.6773V15.3861H61.0559V15.4374C61.1149 15.951 61.3658 16.4233 61.7584 16.7596C62.151 17.096 62.6561 17.2715 63.1727 17.2511C63.6593 17.2647 64.1456 17.2121 64.6181 17.0949C65.0993 16.967 65.5676 16.7945 66.0168 16.5797L66.7931 18.5915C66.2581 18.9754 65.6656 19.2721 65.0377 19.4704C64.2879 19.7222 63.4994 19.839 62.7088 19.8154ZM62.5013 11.4533C62.2982 11.4343 62.0939 11.4725 61.9114 11.5636C61.7289 11.6546 61.5755 11.7949 61.4686 11.9685C61.2403 12.3831 61.0999 12.8401 61.0559 13.3113L61.1072 13.3626H63.9047V13.1085C63.9047 12.542 63.7998 12.176 63.5946 11.9219C63.4649 11.7603 63.2972 11.6333 63.1064 11.5523C62.9156 11.4714 62.7077 11.4389 62.5013 11.458V11.4533ZM52.85 15.1693L53.9783 9.09178H56.9203L54.5518 19.5613H51.8173L50.1131 13.9874H50.0619L48.3601 19.5613H45.6232L43.1987 9.13608H46.192L47.3273 15.2765H47.3786L49.0315 9.13608H51.0946L52.85 15.1693ZM39.1727 16.6147C39.1617 16.4648 39.1132 16.3201 39.0318 16.1938C38.9503 16.0676 38.8384 15.9638 38.7064 15.892C38.2125 15.6047 37.6694 15.4118 37.1049 15.3232C35.9183 15.0667 34.9905 14.7054 34.3704 14.2415C34.0651 13.9933 33.822 13.6774 33.6601 13.3189C33.4982 12.9604 33.4221 12.5691 33.4379 12.176C33.4379 11.2435 33.8528 10.4719 34.5755 9.80281C35.3495 9.13142 36.3799 8.87032 37.6714 8.87032C39.0142 8.87032 40.1495 9.18037 40.9351 9.80281C41.3228 10.0695 41.6324 10.4347 41.832 10.8609C42.0316 11.287 42.1139 11.7587 42.0704 12.2273V12.2786H38.9652C38.9789 12.1105 38.9587 11.9413 38.9058 11.7812C38.853 11.621 38.7685 11.473 38.6575 11.3461C38.3816 11.1217 38.0307 11.0109 37.676 11.036C37.3555 11.027 37.0431 11.1375 36.7995 11.3461C36.683 11.4261 36.5887 11.5344 36.5255 11.6608C36.4623 11.7872 36.4323 11.9276 36.4382 12.0688C36.4429 12.2137 36.4829 12.3553 36.5549 12.4813C36.6268 12.6072 36.7284 12.7137 36.8508 12.7914C37.1072 12.9966 37.676 13.1528 38.45 13.3066C39.6879 13.5654 40.6693 13.9268 41.2475 14.3907C41.5579 14.6458 41.804 14.9703 41.9659 15.3379C42.1279 15.7056 42.2012 16.1062 42.18 16.5074C42.18 17.4399 41.7673 18.217 40.9421 18.8387C40.1145 19.4588 39.0328 19.7711 37.6784 19.7711C36.2796 19.7711 35.149 19.4098 34.3237 18.6895C33.4985 17.9691 33.1371 17.1905 33.1884 16.2626V16.2114H36.1304C36.1304 16.7266 36.2843 17.0879 36.5967 17.2441C36.9588 17.4551 37.365 17.5788 37.7833 17.6054C38.1298 17.6274 38.4741 17.5366 38.7647 17.3467C38.8987 17.2814 39.0095 17.1767 39.0824 17.0468C39.1553 16.9168 39.1868 16.7677 39.1727 16.6193V16.6147ZM25.134 9.09178L25.2366 10.5348C25.5527 10.0493 25.9742 9.64126 26.4698 9.34123C26.9643 9.03158 27.537 8.8698 28.1203 8.87498C28.5627 8.86194 29.0029 8.94265 29.4119 9.1118C29.8209 9.28095 30.1895 9.53471 30.4935 9.85643C31.0623 10.4742 31.3724 11.5582 31.3724 13.0036V19.5613H28.2299V13.0549C28.2299 12.4371 28.1273 12.0758 27.8686 11.817C27.7218 11.6864 27.5501 11.587 27.3637 11.5248C27.1773 11.4627 26.9803 11.4392 26.7845 11.4557C26.502 11.4524 26.2216 11.5047 25.9593 11.6095C25.7141 11.7046 25.5002 11.866 25.3415 12.0758V19.6126H22.1407V9.13608H25.134V9.09178ZM20.1755 7.1219H16.9118V4.48994H20.1755V7.1219ZM20.1755 19.6126H16.9118V9.13608H20.1755V19.6126ZM9.80153 19.6126V11.3554H8.30722V9.09178H9.8062V8.00077C9.8062 6.81184 10.1675 5.88401 10.8366 5.2033C11.55 4.54123 12.6433 4.38737 13.4149 4.38737H15.4804V7.01932H14.2961C14.1279 7.0061 13.9587 7.02673 13.7985 7.07998C13.6384 7.13323 13.4905 7.21803 13.3637 7.32938C13.2523 7.45622 13.1675 7.60409 13.1143 7.76424C13.061 7.9244 13.0404 8.09361 13.0536 8.26187V9.03584H15.0701V11.3088H13.0559V19.5147H9.8062V19.6173L9.80153 19.6126ZM3.62378 5.36182C3.62378 2.21932 5.25564 1.96056 8.05311 1.96056V4.42933C6.76161 4.42933 6.24641 4.63681 6.24641 5.41077V9.49742C6.24641 10.4299 6.2977 11.4067 5.52373 12.0268C6.2977 12.6446 6.24641 13.5747 6.24641 14.5539V18.6312C6.24641 19.4588 6.76161 19.6126 8.05311 19.6126V22.0907C5.25564 22.0907 3.62378 21.832 3.62378 18.6848V14.5539C3.62378 13.8848 3.62378 13.1551 2.33228 13.1551V10.9871C3.62378 10.9871 3.62378 10.2131 3.62378 9.58834V5.36182Z" fill="white"/>
</g>
<defs>
<clipPath id="clip0_1320_12214">
<rect width="87.2253" height="24" fill="white" transform="translate(0.359863)"/>
</clipPath>
</defs>
</svg>
