<svg width="74" height="24" viewBox="0 0 74 24" fill="none" xmlns="http://www.w3.org/2000/svg">
<g clip-path="url(#clip0_1320_11549)">
<path d="M0.681152 3.97824C0.681152 1.78121 2.46223 0 4.6594 0H17.4163V5.66126C17.4163 6.75977 16.5258 7.65038 15.4272 7.65038H10.2441C9.18784 7.65038 8.33154 8.5067 8.33154 9.56297V21.9183C8.33154 23.0168 7.44093 23.9073 6.34242 23.9073H0.681152V3.97824Z" fill="#001B38"/>
<path d="M5.12817 9.6107C5.12817 12.4627 7.44017 14.7747 10.2921 14.7747C13.1442 14.7747 15.4561 12.4627 15.4561 9.6107C15.4561 6.75871 13.1442 4.44673 10.2921 4.44673C7.44017 4.44673 5.12817 6.75871 5.12817 9.6107Z" fill="url(#paint0_linear_1320_11549)"/>
<path opacity="0.5" d="M5.12817 9.6107C5.12817 12.4627 7.44017 14.7747 10.2921 14.7747C13.1442 14.7747 15.4561 12.4627 15.4561 9.6107C15.4561 6.75871 13.1442 4.44673 10.2921 4.44673C7.44017 4.44673 5.12817 6.75871 5.12817 9.6107Z" fill="url(#paint1_linear_1320_11549)"/>
<path d="M38.2848 11.6677V9.82315H35.7412V20.269H37.4566C37.6763 20.269 37.8868 20.1818 38.0422 20.026C38.1974 19.8705 38.2846 19.6596 38.2848 19.4394V15.336C38.2848 13.3463 38.9255 11.9573 40.5394 11.9573H42.173V9.82236H40.9525C39.6085 9.82315 38.8022 10.3408 38.2848 11.6677ZM48.0672 9.65742C44.8818 9.65742 42.6072 11.9376 42.6072 15.0458C42.6072 18.1541 44.8826 20.4343 48.0672 20.4343C51.2317 20.4343 53.5063 18.1541 53.5063 15.0458C53.5063 11.9376 51.2317 9.65742 48.0672 9.65742ZM48.0672 18.2378C46.33 18.2378 45.1718 16.9319 45.1718 15.0458C45.1718 13.1597 46.33 11.8537 48.0672 11.8537C49.7837 11.8537 50.942 13.1597 50.942 15.0458C50.942 16.9319 49.7837 18.2378 48.0672 18.2378ZM60.8488 9.65742C59.3602 9.65742 58.181 10.2995 57.6015 11.4396V9.82341H55.0579V20.269H56.7736C56.993 20.269 57.2035 20.1815 57.3589 20.026C57.514 19.8705 57.6015 19.6593 57.6015 19.4394V14.5695C57.6015 13.0361 58.5943 11.9168 60.0208 11.9168C61.3241 11.9168 62.1925 12.9117 62.1925 14.3421V20.2698H63.9081C64.1276 20.2698 64.3384 20.1822 64.4935 20.0268C64.6488 19.8713 64.7361 19.6604 64.7363 19.4401V13.8029C64.737 11.3568 63.206 9.65742 60.8488 9.65742ZM73.1337 11.1287V9.82341H70.2384V6.6728H67.6949V9.13895C67.6949 9.63612 67.4463 9.82262 67.0331 9.82262H65.6471V11.9576H67.6949V16.621C67.6949 18.9424 69.1843 20.2686 71.4588 20.2686H73.1337V17.9676H71.7478C70.7965 17.9676 70.2377 17.4291 70.2377 16.372V11.9576H72.305C72.4137 11.9579 72.5215 11.9365 72.6222 11.895C72.7227 11.8534 72.8141 11.7924 72.891 11.7153C72.9678 11.6385 73.029 11.547 73.0708 11.4462C73.1122 11.3457 73.1337 11.2376 73.1337 11.1287ZM25.5452 8.39292V20.2693H27.4472C27.6668 20.2693 27.8773 20.1818 28.0325 20.026C28.1878 19.8705 28.275 19.6596 28.2751 19.4394V14.1754H33.8176V11.8124H28.2751V8.84853C28.275 8.7533 28.2936 8.65887 28.33 8.571C28.3663 8.48288 28.4197 8.40292 28.4869 8.33557C28.5541 8.26823 28.6339 8.21482 28.7218 8.17826C28.8096 8.14196 28.9038 8.12328 28.9988 8.12328H34.3549C34.5745 8.12328 34.7852 8.03569 34.9404 7.87996C35.0955 7.72448 35.1829 7.51352 35.1829 7.29335V5.75999H28.1717C26.7217 5.76079 25.5452 6.93901 25.5452 8.39292Z" fill="#061B36"/>
</g>
<defs>
<linearGradient id="paint0_linear_1320_11549" x1="6.65526" y1="5.73958" x2="14.421" y2="13.5589" gradientUnits="userSpaceOnUse">
<stop stop-color="#FF0057" stop-opacity="0.16"/>
<stop offset="0.861" stop-color="#FF0057"/>
</linearGradient>
<linearGradient id="paint1_linear_1320_11549" x1="6.65526" y1="5.73958" x2="14.421" y2="13.5589" gradientUnits="userSpaceOnUse">
<stop stop-color="#FF0057" stop-opacity="0.16"/>
<stop offset="0.861" stop-color="#FF0057"/>
</linearGradient>
<clipPath id="clip0_1320_11549">
<rect width="72.5486" height="24" fill="white" transform="translate(0.585205)"/>
</clipPath>
</defs>
</svg>
