<svg width="89" height="24" viewBox="0 0 89 24" fill="none" xmlns="http://www.w3.org/2000/svg">
<g clip-path="url(#clip0_1320_11570)">
<path d="M17.1579 10.2308H9.73023C9.53862 10.2308 9.3832 10.3863 9.3832 10.5781V14.2095C9.3832 14.401 9.53862 14.5571 9.73023 14.5571H12.6278V19.0688C12.6278 19.0688 11.9771 19.2906 10.1785 19.2906C8.05638 19.2906 5.09198 18.5152 5.09198 11.9965C5.09198 5.47639 8.17874 4.61853 11.0768 4.61853C13.5853 4.61853 14.6661 5.06025 15.3538 5.27301C15.5698 5.33926 15.7697 5.1241 15.7697 4.93232L16.5982 1.42362C16.5982 1.33399 16.5679 1.22595 16.4656 1.15252C16.1863 0.953374 14.4826 0 10.1785 0C5.21995 0 0.133789 2.10957 0.133789 12.2507C0.133789 22.3921 5.95702 23.9034 10.8642 23.9034C14.9272 23.9034 17.3921 22.167 17.3921 22.167C17.4937 22.1109 17.5046 21.969 17.5046 21.9039V10.5781C17.5046 10.3863 17.3494 10.2308 17.1579 10.2308Z" fill="#161312"/>
<path d="M55.436 1.21509C55.436 1.02184 55.2828 0.865952 55.0911 0.865952H50.9091C50.718 0.865952 50.5626 1.02184 50.5626 1.21509C50.5626 1.21601 50.5638 9.29714 50.5638 9.29714H44.045V1.21509C44.045 1.02184 43.8911 0.865952 43.6998 0.865952H39.5179C39.3276 0.865952 39.1724 1.02184 39.1724 1.21509V23.099C39.1724 23.2921 39.3276 23.4493 39.5179 23.4493H43.6998C43.8911 23.4493 44.045 23.2921 44.045 23.099V13.7385H50.5638C50.5638 13.7385 50.5523 23.0983 50.5523 23.099C50.5523 23.2921 50.7075 23.4493 50.8988 23.4493H55.0908C55.2824 23.4493 55.4355 23.2921 55.436 23.099V1.21509Z" fill="#161312"/>
<path d="M25.0497 4.08681C25.0497 2.58092 23.8424 1.36398 22.3529 1.36398C20.8649 1.36398 19.6565 2.58092 19.6565 4.08681C19.6565 5.59113 20.8649 6.81133 22.3529 6.81133C23.8424 6.81133 25.0497 5.59113 25.0497 4.08681Z" fill="#161312"/>
<path d="M24.7506 18.4828C24.7506 17.9221 24.7506 8.38106 24.7506 8.38106C24.7506 8.18924 24.5957 8.03246 24.4046 8.03246H20.2356C20.0444 8.03246 19.8733 8.22971 19.8733 8.42146C19.8733 8.42146 19.8733 20.5771 19.8733 22.8942C19.8733 23.3196 20.1383 23.4459 20.4814 23.4459C20.4814 23.4459 22.2608 23.4459 24.2375 23.4459C24.6494 23.4459 24.7506 23.2438 24.7506 22.8875C24.7506 22.1116 24.7506 19.0726 24.7506 18.4828Z" fill="#161312"/>
<path d="M71.3299 8.06538H67.1798C66.9894 8.06538 66.8345 8.22224 66.8345 8.41527V19.1457C66.8345 19.1457 65.7803 19.9171 64.2837 19.9171C62.7875 19.9171 62.3902 19.2381 62.3902 17.773C62.3902 16.3059 62.3902 8.41527 62.3902 8.41527C62.3902 8.22224 62.2356 8.06538 62.0451 8.06538H57.8332C57.6431 8.06538 57.4873 8.22224 57.4873 8.41527C57.4873 8.41527 57.4873 14.1297 57.4873 18.4815C57.4873 22.8336 59.9129 23.8983 63.2498 23.8983C65.9871 23.8983 68.1943 22.386 68.1943 22.386C68.1943 22.386 68.2994 23.1828 68.3468 23.2773C68.3945 23.3716 68.5183 23.4668 68.6522 23.4668L71.3318 23.4551C71.5219 23.4551 71.6775 23.2978 71.6775 23.1057L71.6763 8.41527C71.6763 8.22224 71.5211 8.06538 71.3299 8.06538Z" fill="#161312"/>
<path d="M81.0357 19.9038C79.5962 19.8599 78.6198 19.2068 78.6198 19.2068V12.2766C78.6198 12.2766 79.5832 11.6862 80.765 11.5806C82.2594 11.4468 83.6994 11.8982 83.6994 15.4632C83.6994 19.2227 83.0495 19.9645 81.0357 19.9038ZM82.6726 7.57376C80.3154 7.57376 78.7123 8.62542 78.7123 8.62542V1.21509C78.7123 1.02184 78.5578 0.865952 78.3672 0.865952H74.1732C73.9825 0.865952 73.8276 1.02184 73.8276 1.21509V23.099C73.8276 23.2921 73.9825 23.4493 74.1738 23.4493C74.1741 23.4493 77.0827 23.4493 77.0835 23.4493C77.2146 23.4493 77.3138 23.3817 77.3871 23.2635C77.4594 23.1459 77.5638 22.2545 77.5638 22.2545C77.5638 22.2545 79.2787 23.8797 82.5252 23.8797C86.3365 23.8797 88.5223 21.9463 88.5223 15.2008C88.5223 8.45526 85.0314 7.57376 82.6726 7.57376Z" fill="#161312"/>
<path d="M36.7702 8.03051H33.6331C33.6331 8.03051 33.6284 3.88694 33.6284 3.88602C33.6284 3.72921 33.5476 3.6508 33.3663 3.6508H29.0912C28.925 3.6508 28.8358 3.72388 28.8358 3.88363V8.1664C28.8358 8.1664 26.6934 8.6836 26.5485 8.72537C26.4043 8.76722 26.2981 8.90022 26.2981 9.05896V11.7502C26.2981 11.9438 26.4527 12.0999 26.6438 12.0999H28.8358C28.8358 12.0999 28.8358 14.9148 28.8358 18.5744C28.8358 23.3834 32.209 23.8559 34.4853 23.8559C35.5253 23.8559 36.7695 23.5218 36.9749 23.4459C37.0991 23.4003 37.1713 23.2718 37.1713 23.1322L37.1748 20.1716C37.1748 19.9786 37.0117 19.8222 36.8281 19.8222C36.6453 19.8222 36.1776 19.8966 35.6961 19.8966C34.1552 19.8966 33.6331 19.1801 33.6331 18.2528C33.6331 17.3261 33.633 12.0999 33.633 12.0999H36.7702C36.9615 12.0999 37.1162 11.9438 37.1162 11.7502V8.37922C37.1162 8.18601 36.9615 8.03051 36.7702 8.03051Z" fill="#161312"/>
</g>
<defs>
<clipPath id="clip0_1320_11570">
<rect width="88.4908" height="24" fill="white" transform="translate(0.133789)"/>
</clipPath>
</defs>
</svg>
