<svg width="111" height="24" viewBox="0 0 111 24" fill="none" xmlns="http://www.w3.org/2000/svg">
<g clip-path="url(#clip0_1320_11596)">
<path d="M44.6495 9.14073H48.2702C47.6662 5.29119 44.3333 2.60987 39.9958 2.60987C34.8636 2.60987 31.0125 6.38311 31.0125 12.7026C31.0125 18.9091 34.6903 22.7587 40.1007 22.7587C44.9563 22.7587 48.4323 19.6355 48.4323 14.5797V12.2242H40.4742V15.0009H44.9944C44.9372 17.7981 43.0697 19.5687 40.1197 19.5687C36.836 19.5687 34.5854 17.1083 34.5854 12.6644C34.5854 8.24907 36.8742 5.79821 40.0434 5.79821C42.4085 5.79821 44.0265 7.06178 44.6495 9.14073Z" fill="#171321"/>
<path d="M50.826 22.4901H54.2925V7.7881H50.826V22.4901ZM52.5743 5.45167C53.6758 5.45167 54.5754 4.6077 54.5754 3.57459C54.5754 2.54147 53.6758 1.68796 52.5743 1.68796C51.4729 1.68796 50.5637 2.53035 50.5637 3.57459C50.5637 4.61882 51.457 5.45167 52.568 5.45167H52.5743Z" fill="#171321"/>
<path d="M64.6729 7.78813H61.7707V4.25647H58.3042V7.78813H56.2173V10.4695H58.3042V18.6485C58.2851 21.4156 60.2973 22.7809 62.9007 22.6999C63.5942 22.6862 64.2819 22.5699 64.9415 22.355L64.3566 19.6434C64.0254 19.7294 63.6848 19.7749 63.3426 19.7785C62.47 19.7785 61.7707 19.4718 61.7707 18.0731V10.4615H64.6729V7.78813Z" fill="#171321"/>
<path d="M67.3558 22.4901H79.5466V19.5115H70.9097V2.87684H67.3558V22.4901Z" fill="#171321"/>
<path d="M86.1871 22.7873C88.4949 22.7873 89.8729 21.7049 90.5055 20.4699H90.6199V22.4901H93.9576V12.6453C93.9576 8.75761 90.7884 7.5894 87.9815 7.5894C84.8885 7.5894 82.5139 8.96742 81.7478 11.6487L84.9855 12.1097C85.3288 11.1036 86.3063 10.2421 88.0053 10.2421C89.6154 10.2421 90.4959 11.0654 90.4959 12.5118V12.569C90.4959 13.564 89.4517 13.6132 86.8562 13.8898C84.0032 14.1966 81.2742 15.0485 81.2742 18.3624C81.2647 21.2551 83.3802 22.7873 86.1871 22.7873ZM87.3267 20.2442C85.8803 20.2442 84.8456 19.583 84.8456 18.3099C84.8456 16.978 86.0043 16.4233 87.5476 16.2024C88.4583 16.0784 90.2782 15.8479 90.7264 15.4856V17.218C90.7359 18.8503 89.4135 20.2395 87.3267 20.2395V20.2442Z" fill="#171321"/>
<path d="M96.5103 22.4901H99.9195V20.1727H100.12C100.667 21.2456 101.806 22.7491 104.335 22.7491C107.801 22.7491 110.397 19.9995 110.397 15.155C110.397 10.2517 107.725 7.58942 104.325 7.58942C101.73 7.58942 100.647 9.15021 100.12 10.2135H99.9736V2.87684H96.5103V22.4901ZM99.91 15.1359C99.91 12.275 101.135 10.4329 103.367 10.4329C105.675 10.4329 106.864 12.3958 106.864 15.1359C106.864 17.876 105.657 19.9041 103.367 19.9041C101.154 19.9041 99.91 17.9889 99.91 15.1359Z" fill="#171321"/>
<path d="M24.4769 9.59526L24.4435 9.50626L21.0739 0.716852C21.0058 0.544269 20.8843 0.397868 20.7274 0.298838C20.6103 0.223877 20.4773 0.177392 20.339 0.163108C20.2007 0.148823 20.061 0.167137 19.931 0.216582C19.8011 0.266028 19.6845 0.345228 19.5907 0.447837C19.4969 0.550444 19.4284 0.673606 19.3908 0.807448L17.1163 7.77063H7.90573L5.63127 0.807448C5.59333 0.673806 5.5247 0.550877 5.43083 0.448465C5.33696 0.346053 5.22046 0.266993 5.09061 0.217588C4.96077 0.168183 4.82119 0.149801 4.68297 0.163908C4.54477 0.178015 4.41177 0.224219 4.29458 0.298838C4.13766 0.397868 4.0163 0.544269 3.94809 0.716852L0.580153 9.50785L0.545187 9.59526C0.0603006 10.8625 0.000564486 12.253 0.374984 13.5572C0.749401 14.8614 1.53768 16.0085 2.62096 16.8254L2.63367 16.835L2.66227 16.8572L7.78809 20.6988L10.3311 22.6204L11.876 23.7886C12.0573 23.9256 12.2783 23.9997 12.5054 23.9997C12.7326 23.9997 12.9536 23.9256 13.1348 23.7886L14.6797 22.6204L17.2228 20.6988L22.3852 16.835L22.3995 16.8238C23.4827 16.0072 24.271 14.8604 24.6458 13.5566C25.0204 12.2528 24.9611 10.8625 24.4769 9.59526Z" fill="#E24329"/>
<path d="M24.4769 9.59525L24.4435 9.50624C22.8018 9.84312 21.2548 10.5389 19.9137 11.5439L12.515 17.1385L17.226 20.6988L22.3884 16.835L22.4027 16.8238C23.4854 16.0067 24.2731 14.8598 24.6473 13.556C25.0212 12.2522 24.9615 10.8621 24.4769 9.59525Z" fill="#FC6D26"/>
<path d="M7.78809 20.6988L10.3311 22.6204L11.876 23.7886C12.0573 23.9256 12.2783 23.9997 12.5054 23.9997C12.7326 23.9997 12.9536 23.9256 13.1348 23.7886L14.6797 22.6204L17.2228 20.6988L12.5118 17.1385L7.78809 20.6988Z" fill="#FCA326"/>
<path d="M5.10836 11.5439C3.76763 10.5395 2.22127 9.8442 0.580154 9.50786L0.545187 9.59528C0.0603006 10.8625 0.000564456 12.2531 0.374984 13.5572C0.749401 14.8614 1.53768 16.0085 2.62096 16.8254L2.63367 16.835L2.66227 16.8572L7.7881 20.6988L12.5023 17.1385L5.10836 11.5439Z" fill="#FC6D26"/>
</g>
<defs>
<clipPath id="clip0_1320_11596">
<rect width="110.464" height="24" fill="white"/>
</clipPath>
</defs>
</svg>
