<svg width="79" height="24" viewBox="0 0 79 24" fill="none" xmlns="http://www.w3.org/2000/svg">
<g clip-path="url(#clip0_1320_12426)">
<path fill-rule="evenodd" clip-rule="evenodd" d="M37.4957 0.726083C36.9151 1.20607 36.5245 1.87723 36.394 2.61917C36.1677 4.17009 37.2344 5.36647 38.7868 5.36647C40.3709 5.36647 41.697 4.29983 41.9233 2.81228C42.1813 1.22817 41.1147 0.000107686 39.5623 0.000107686C38.809 -0.0112802 38.0764 0.246103 37.4957 0.726083ZM24.0774 13.7291C24.1149 13.0045 24.1038 12.2782 24.0442 11.5551H12.1981L10.1916 15.6813H19.0128C18.3414 18.0635 15.8249 19.5722 12.8076 19.5722C8.24386 19.5722 5.22651 16.5202 5.22651 12.1933C5.22651 7.96594 8.31326 4.88071 12.438 4.88071C15.5579 4.88071 17.403 6.48744 18.3444 8.36876H23.4739C22.2323 3.60588 18.2418 0.384851 12.438 0.384851C5.52824 0.384851 0.463623 5.41628 0.463623 12.1933C0.463623 19.0351 5.46186 24.0002 12.8076 23.9881C19.5514 23.9881 23.8088 19.1965 24.0774 13.7291ZM28.5046 0.754435L24.8822 23.6305H29.5124L33.1332 0.754435H28.5046ZM33.5667 23.6305L36.0485 7.86479H40.6771L38.1953 23.6305H33.5667ZM61.3367 0.754435H56.708L55.2974 9.57566C54.4601 8.33553 52.9514 7.49671 50.7714 7.49671C47.0812 7.49671 43.1586 9.97848 42.3515 15.0778C41.3784 21.2483 45.4035 24.0001 48.5235 24.0001C50.6039 24.0001 52.3148 23.1598 53.5217 21.6511L54.5205 23.6305H59.659L58.5034 19.4228L61.3367 0.754435ZM51.2074 11.5219C52.9846 11.5219 54.8961 13.1316 54.4601 15.9498C53.9909 18.9687 51.7098 19.975 50.0985 19.975C47.9864 19.975 46.4445 18.1631 46.8458 15.5802C47.2155 13.1316 48.9927 11.5219 51.2074 11.5219ZM77.9747 17.2579H66.1332C66.6371 19.2704 68.0462 20.2752 69.9908 20.2752C71.7696 20.2752 72.7065 19.8392 73.3461 18.8661H77.5387C76.5324 22.5216 73.2119 23.9956 70.0919 23.9956C65.0937 23.9956 61.841 20.4729 61.841 15.7432C61.841 11.0482 65.1948 7.49219 69.9576 7.49219C74.7205 7.49219 78.0094 11.0527 78.0094 15.7477C78.0094 16.3859 78.0094 16.6197 77.9747 17.2579ZM66.1 14.1711H73.7852C73.4834 12.4603 71.8722 11.2533 69.9607 11.2533C67.9451 11.2533 66.5435 12.4271 66.1 14.1711Z" fill="black"/>
</g>
<defs>
<clipPath id="clip0_1320_12426">
<rect width="78" height="24" fill="white" transform="translate(0.463623)"/>
</clipPath>
</defs>
</svg>
