<svg width="152" height="24" viewBox="0 0 152 24" fill="none" xmlns="http://www.w3.org/2000/svg">
<g clip-path="url(#clip0_1320_11228)">
<path d="M91.0039 8.40511L93.1057 13.9231H89.0329L91.0039 8.40511ZM90.2155 6.56579L85.6172 18.6526H87.3253L88.5079 15.3682H93.6317L94.8143 18.6526H96.5224L91.9241 6.56579H90.216H90.2155ZM115.045 18.6526H116.621V6.56579H115.045V18.6526ZM98.8805 11.5578C99.4065 10.7694 100.457 10.1127 101.508 10.1127C103.61 10.1127 104.661 11.5578 104.661 13.6601V18.7838H103.085V13.9226C103.085 12.2145 102.166 11.5583 100.983 11.5583C99.6694 11.5583 98.7498 12.8722 98.7498 14.0543V18.6526H97.1735V10.2444H98.7498L98.881 11.5583L98.8805 11.5578ZM105.976 16.1566C105.976 14.3173 107.684 13.2664 109.654 13.2664C110.837 13.2664 111.626 13.5294 111.888 13.7923V13.5294C111.888 12.2155 110.837 11.5583 109.786 11.5583C108.867 11.5583 108.078 11.9525 107.815 12.7409L106.374 12.0832C106.637 11.2948 107.688 10.1122 109.795 10.1122C111.766 10.1122 113.474 11.2948 113.474 13.6596V18.6521H112.029V17.4638H111.898C111.503 18.1205 110.584 18.9089 109.139 18.9089C107.431 18.9089 105.986 17.858 105.986 16.15L105.976 16.1566ZM111.898 15.0991C111.898 15.0991 111.241 14.5731 109.927 14.5731C108.35 14.5731 107.693 15.4923 107.693 16.1494C107.693 17.0686 108.612 17.4633 109.401 17.4633C110.584 17.4633 111.897 16.4124 111.897 15.0991" fill="#757575"/>
<path fill-rule="evenodd" clip-rule="evenodd" d="M118.85 22.3303L120.689 17.9898L117.405 10.3701H118.981L121.477 16.1505L123.973 10.3701H125.55L120.427 22.3303H118.851H118.85ZM141.972 13.1347C141.577 12.0828 140.658 11.4266 139.739 11.4266C138.425 11.4266 137.243 12.6092 137.243 14.3168C137.243 16.0244 138.425 17.207 139.739 17.207C140.658 17.207 141.578 16.5504 141.972 15.6307L143.286 16.4191C142.63 17.8642 141.315 18.7834 139.739 18.7834C137.505 18.7834 135.666 16.8123 135.666 14.3168C135.666 11.6891 137.505 9.84975 139.739 9.84975C141.315 9.84975 142.629 10.7689 143.286 12.214L141.972 13.1332L141.972 13.1347Z" fill="#757575"/>
<path d="M147.622 18.9151C149.723 18.9151 150.775 17.7325 150.775 16.2874C150.775 13.1342 146.176 14.3163 146.176 12.478C146.176 11.8213 146.702 11.4271 147.622 11.4271C148.541 11.4271 149.461 11.8213 149.855 12.478L150.774 11.5589C150.248 10.9022 148.803 9.98252 147.49 9.98252C145.519 9.98252 144.468 11.1652 144.468 12.6103C144.468 15.6317 149.198 14.5813 149.198 16.1577C149.198 16.9461 148.672 17.4715 147.622 17.4715C146.571 17.4715 146.045 16.8149 145.52 16.1577L144.337 17.0768C145.126 17.8652 146.308 18.9161 147.622 18.9161V18.9151ZM132.645 18.6521H134.221V10.2445H132.645V18.6526V18.6521Z" fill="#757575"/>
<path fill-rule="evenodd" clip-rule="evenodd" d="M133.302 6.17163C133.958 6.17163 134.353 6.69758 134.353 7.22252C134.353 7.8792 133.827 8.27341 133.302 8.27341C132.777 8.27341 132.251 7.74746 132.251 7.22252C132.251 6.69758 132.777 6.17163 133.302 6.17163ZM131.069 17.3393L131.332 18.5219H129.755C128.31 18.5219 127.653 17.471 127.653 15.8942V11.8213H126.077V10.245H127.653V7.74899H129.23V10.245H131.069V11.8213H129.23V16.1618C129.23 17.3444 130.149 17.3444 131.069 17.3444L131.069 17.3393Z" fill="#757575"/>
<path d="M34.2435 11.4266V13.3976H38.8418C38.7105 14.4485 38.3158 15.2369 37.7909 15.7619C37.1342 16.4186 36.0828 17.207 34.2435 17.207C31.4845 17.207 29.251 14.9734 29.251 12.0832C29.251 9.32425 31.4845 6.95949 34.2435 6.95949C35.8198 6.95949 36.8712 7.61617 37.6647 8.27336L38.9786 6.95949C37.796 5.90859 36.3509 4.98845 34.2491 4.98845C30.4397 4.98845 27.1548 8.14162 27.1548 11.9515C27.1548 15.7614 30.4341 18.914 34.244 18.914C36.3458 18.914 37.9226 18.2574 39.1053 16.943C40.4191 15.6291 40.8133 13.9215 40.8133 12.4759C40.8133 12.0817 40.8133 11.5568 40.6821 11.2933H34.2481L34.2435 11.4266ZM45.9361 9.85532C43.4401 9.85532 41.469 11.6946 41.469 14.3224C41.469 16.9501 43.4401 18.7889 45.9361 18.7889C48.4321 18.7889 50.4031 16.8179 50.4031 14.3224C50.4031 11.6946 48.4321 9.85532 45.9361 9.85532ZM45.9361 17.0809C44.6222 17.0809 43.4401 15.8982 43.4401 14.3219C43.4401 12.7455 44.6227 11.5629 45.9361 11.5629C47.2494 11.5629 48.4321 12.6138 48.4321 14.3219C48.4321 16.03 47.2494 17.0809 45.9361 17.0809ZM67.4819 10.7745C66.956 10.2485 66.1681 9.72357 64.9859 9.72357C62.7524 9.72357 60.7819 11.6946 60.7819 14.1906C60.7819 16.6866 62.7529 18.6572 64.9859 18.6572C66.0368 18.6572 66.957 18.1312 67.3502 17.6063H67.4814V18.263C67.4814 19.9711 66.5623 20.8907 65.1172 20.8907C63.9345 20.8907 63.1461 19.9716 62.8836 19.3144L61.1756 19.9711C61.7015 21.1537 63.0149 22.5988 65.1167 22.5988C67.4809 22.5988 69.4571 21.2849 69.4571 17.8693V9.7246H67.6178V10.7755L67.4819 10.7745ZM65.2484 17.0809C63.9345 17.0809 62.8842 15.8982 62.8842 14.3219C62.8842 12.7455 63.935 11.5629 65.2484 11.5629C66.5618 11.5629 67.6127 12.7455 67.6127 14.3219C67.6127 15.8982 66.5618 17.0809 65.2484 17.0809ZM55.6576 9.85532C53.1616 9.85532 51.1905 11.6946 51.1905 14.3224C51.1905 16.9501 53.1616 18.7889 55.6576 18.7889C58.1536 18.7889 60.1247 16.8179 60.1247 14.3224C60.2559 11.6946 58.1536 9.85532 55.6576 9.85532ZM55.6576 17.0809C54.3437 17.0809 53.1616 15.8982 53.1616 14.3219C53.1616 12.7455 54.3442 11.5629 55.6576 11.5629C56.971 11.5629 58.1536 12.6138 58.1536 14.3219C58.1536 16.03 56.971 17.0809 55.6576 17.0809ZM70.8976 5.12068H72.8687V18.7838H70.8976V5.12068ZM78.2549 17.0757C77.204 17.0757 76.5468 16.5498 76.0213 15.7619L82.0647 13.2659L81.8018 12.7399C81.4076 11.689 80.2254 9.8497 77.9924 9.8497C75.6282 9.8497 73.7883 11.689 73.7883 14.3168C73.7883 16.8128 75.7594 18.7833 78.2554 18.7833C80.3572 18.7833 81.5398 17.4694 82.0647 16.8123L80.4884 15.7614C79.9625 16.5498 79.3058 17.0752 78.2549 17.0752V17.0757ZM78.1236 11.5578C78.9121 11.5578 79.5687 11.952 79.8317 12.6087L75.7589 14.3168C75.7589 12.3457 77.0728 11.5578 78.1231 11.5578H78.1236Z" fill="#757575"/>
<path d="M15.3743 2.87651V20.7337C15.3743 22.7318 16.7542 23.8452 18.2152 23.8452C19.568 23.8452 21.0561 22.8982 21.0561 20.7337V3.0118C21.0561 1.18008 19.7033 0.035593 18.2152 0.035593C16.7271 0.035593 15.3743 1.29777 15.3743 2.87651Z" fill="#F9AB00"/>
<path d="M7.93384 11.9404V20.7337C7.93384 22.7318 9.31369 23.8452 10.7747 23.8452C12.1276 23.8452 13.6157 22.8982 13.6157 20.7337V12.0757C13.6157 10.244 12.2629 9.09947 10.7747 9.09947C9.28662 9.09947 7.93384 10.3617 7.93384 11.9404Z" fill="#E37400"/>
<path d="M3.3341 23.8452C4.9031 23.8452 6.17503 22.5733 6.17503 21.0043C6.17503 19.4353 4.9031 18.1634 3.3341 18.1634C1.76509 18.1634 0.493164 19.4353 0.493164 21.0043C0.493164 22.5733 1.76509 23.8452 3.3341 23.8452Z" fill="#E37400"/>
</g>
<defs>
<clipPath id="clip0_1320_11228">
<rect width="151.149" height="24" fill="white" transform="translate(0.0593262)"/>
</clipPath>
</defs>
</svg>
