<svg width="78" height="24" viewBox="0 0 78 24" fill="none" xmlns="http://www.w3.org/2000/svg">
<g clip-path="url(#clip0_1320_11410)">
<path d="M10.0449 8.56364V11.1273H16.2317C16.0675 12.5455 15.5747 13.6364 14.8082 14.3455C13.9322 15.2182 12.5087 16.2 10.0449 16.2C6.26716 16.2 3.31064 13.1455 3.31064 9.38182C3.31064 5.61818 6.21241 2.56364 10.0449 2.56364C12.0707 2.56364 13.6037 3.38182 14.6987 4.41818L16.5055 2.61818C14.9725 1.14545 12.892 0 10.0449 0C4.84365 0 0.463623 4.2 0.463623 9.38182C0.463623 14.5636 4.84365 18.7636 10.0449 18.7636C12.8372 18.7636 14.9725 17.8364 16.615 16.1455C18.3122 14.4545 18.8597 12.0545 18.8597 10.1455C18.8597 9.54545 18.805 9 18.7502 8.56364H10.0449Z" fill="#4285F4"/>
<path d="M26.5249 6.43636C23.1851 6.43636 20.3928 9 20.3928 12.4909C20.3928 15.9818 23.1303 18.5455 26.5249 18.5455C29.9194 18.5455 32.6569 16.0364 32.6569 12.5455C32.6569 9 29.9194 6.43636 26.5249 6.43636ZM26.5249 16.2C24.6633 16.2 23.0756 14.6727 23.0756 12.5455C23.0756 10.3636 24.6633 8.89091 26.5249 8.89091C28.3864 8.89091 29.9741 10.3636 29.9741 12.5455C29.9741 14.6727 28.3864 16.2 26.5249 16.2Z" fill="#EA4335"/>
<path d="M56.4733 7.8H56.3638C55.7615 7.09091 54.6117 6.43636 53.1335 6.43636C50.0675 6.43636 47.4395 9.05454 47.4395 12.4909C47.4395 15.8727 50.0675 18.5455 53.1335 18.5455C54.6117 18.5455 55.7615 17.8909 56.3638 17.1818H56.4733V18.0545C56.4733 20.3455 55.214 21.6 53.243 21.6C51.6005 21.6 50.615 20.4545 50.177 19.4182L47.8775 20.4C48.5345 21.9818 50.3412 24 53.2977 24C56.4185 24 59.1013 22.1455 59.1013 17.6727V6.76364H56.5828V7.8H56.4733ZM53.4072 16.2C51.5457 16.2 50.177 14.6182 50.177 12.5455C50.177 10.4182 51.6005 8.89091 53.4072 8.89091C55.214 8.89091 56.6375 10.4727 56.6375 12.6C56.6923 14.6727 55.2688 16.2 53.4072 16.2Z" fill="#4285F4"/>
<path d="M40.1577 6.43636C36.8179 6.43636 34.0256 9 34.0256 12.4909C34.0256 15.9818 36.7632 18.5455 40.1577 18.5455C43.5522 18.5455 46.2897 16.0364 46.2897 12.5455C46.2897 9 43.5522 6.43636 40.1577 6.43636ZM40.1577 16.2C38.2962 16.2 36.7084 14.6727 36.7084 12.5455C36.7084 10.3636 38.2962 8.89091 40.1577 8.89091C42.0192 8.89091 43.6069 10.3636 43.6069 12.5455C43.6069 14.6727 42.0192 16.2 40.1577 16.2Z" fill="#FBBC05"/>
<path d="M61.127 0.272727H63.755V18.6H61.127V0.272727Z" fill="#34A853"/>
<path d="M71.858 16.2C70.4892 16.2 69.5585 15.6 68.9015 14.3455L77.0593 11.0182L76.7855 10.3091C76.2928 8.94545 74.705 6.43636 71.5842 6.43636C68.4635 6.43636 65.8354 8.89091 65.8354 12.4909C65.8354 15.8727 68.4087 18.5455 71.858 18.5455C74.6503 18.5455 76.238 16.8545 76.9498 15.8727L74.8693 14.5091C74.1575 15.5455 73.2267 16.2 71.858 16.2ZM71.6937 8.72727C72.7887 8.72727 73.7195 9.27273 73.9933 10.0364L68.5182 12.3273C68.4635 9.81818 70.325 8.72727 71.6937 8.72727Z" fill="#EA4335"/>
</g>
<defs>
<clipPath id="clip0_1320_11410">
<rect width="76.5957" height="24" fill="white" transform="translate(0.463623)"/>
</clipPath>
</defs>
</svg>
