<svg width="225" height="24" viewBox="0 0 225 24" fill="none" xmlns="http://www.w3.org/2000/svg">
<g clip-path="url(#clip0_1320_11304)">
<path d="M84.5914 18.5294C83.409 18.5294 82.262 18.1412 81.1502 17.3823C80.0208 16.6059 79.2973 15.5294 78.9443 14.1529L80.8502 13.3765C81.0796 14.2588 81.5385 15.0176 82.2443 15.6176C82.9502 16.2353 83.7267 16.5353 84.609 16.5353C85.509 16.5353 86.2855 16.3059 86.9208 15.8294C87.5561 15.3529 87.8737 14.7176 87.8737 13.9059C87.8737 13.0059 87.5561 12.3 86.9208 11.8235C86.2855 11.3294 85.262 10.8706 83.8855 10.4647C82.4561 10.0059 81.362 9.42353 80.6385 8.71764C79.8973 7.99412 79.5267 7.09412 79.5267 5.9647C79.5267 4.8 79.9855 3.79412 80.9032 2.92941C81.8208 2.06471 83.0208 1.64118 84.5032 1.64118C85.8796 1.64118 86.9914 1.97647 87.8385 2.66471C88.7032 3.35294 89.2502 4.09412 89.5149 4.90588L87.609 5.7C87.4679 5.18823 87.1326 4.71176 86.6032 4.27059C86.0737 3.82941 85.3855 3.61765 84.5385 3.61765C83.7443 3.61765 83.0561 3.84706 82.4914 4.28823C81.9267 4.72941 81.6443 5.29412 81.6443 5.94706C81.6443 6.54706 81.909 7.05882 82.4208 7.4647C82.9326 7.87059 83.709 8.25882 84.7149 8.57647C85.509 8.84117 86.1796 9.08823 86.709 9.31764C87.2385 9.5647 87.7855 9.88235 88.3326 10.2706C88.8796 10.6765 89.3032 11.1706 89.5679 11.7529C89.8502 12.3529 89.9914 13.0412 89.9914 13.8176C89.9914 14.5941 89.8326 15.3 89.4973 15.9176C89.1796 16.5353 88.7385 17.0294 88.209 17.3823C87.6796 17.7353 87.0973 18.0176 86.4796 18.2118C85.862 18.4412 85.2267 18.5294 84.5914 18.5294Z" fill="#616161"/>
<path d="M96.7855 18.5294C95.109 18.5294 93.7502 17.9647 92.709 16.8529C91.6678 15.7412 91.1384 14.3294 91.1384 12.6353C91.1384 11.0294 91.6502 9.63529 92.6561 8.47059C93.6796 7.30588 94.9678 6.72353 96.5561 6.72353C98.1973 6.72353 99.5031 7.25294 100.491 8.32941C101.48 9.40588 101.974 10.8353 101.974 12.6176L101.956 13.0059H93.2208C93.2737 14.1176 93.662 15 94.3325 15.6529C95.0208 16.3059 95.8149 16.6235 96.7325 16.6235C98.2149 16.6235 99.2384 15.9882 99.7678 14.7176L101.621 15.4941C101.268 16.3588 100.668 17.0647 99.8384 17.6471C99.009 18.2471 98.0031 18.5294 96.7855 18.5294ZM99.7678 11.3118C99.7149 10.6765 99.4325 10.0765 98.9031 9.51177C98.3737 8.94706 97.5796 8.64706 96.5208 8.64706C95.7443 8.64706 95.0914 8.89412 94.5267 9.37059C93.962 9.84706 93.5737 10.5 93.362 11.3118H99.7678Z" fill="#616161"/>
<path d="M106.897 18.5294C105.715 18.5294 104.744 18.1941 103.95 17.5059C103.156 16.8353 102.768 15.9353 102.768 14.8235C102.768 13.6235 103.227 12.6706 104.162 11.9824C105.097 11.2941 106.244 10.9588 107.621 10.9588C108.838 10.9588 109.844 11.1882 110.621 11.6294V11.3118C110.621 10.5 110.338 9.84706 109.791 9.35294C109.227 8.85882 108.556 8.61177 107.744 8.61177C107.144 8.61177 106.597 8.75294 106.103 9.03529C105.609 9.31765 105.274 9.70588 105.097 10.2176L103.191 9.40588C103.438 8.73529 103.95 8.13529 104.709 7.57059C105.468 7.00588 106.456 6.72353 107.691 6.72353C109.103 6.72353 110.285 7.12941 111.221 7.95882C112.156 8.78824 112.615 9.95294 112.615 11.4529V18.1765H110.621V16.6412H110.533C109.703 17.9118 108.485 18.5294 106.897 18.5294ZM107.233 16.6412C108.097 16.6412 108.874 16.3235 109.562 15.6882C110.268 15.0529 110.621 14.2941 110.621 13.4118C110.038 12.9353 109.156 12.6882 107.974 12.6882C106.968 12.6882 106.209 12.9 105.697 13.3412C105.185 13.7824 104.921 14.2941 104.921 14.8765C104.921 15.4235 105.15 15.8471 105.627 16.1647C106.103 16.4824 106.633 16.6412 107.233 16.6412Z" fill="#616161"/>
<path d="M116.674 18.1765H114.591V7.11176H116.585V8.91176H116.674C116.885 8.31176 117.309 7.81765 117.98 7.42941C118.632 7.04118 119.268 6.84706 119.885 6.84706C120.503 6.84706 121.015 6.93529 121.438 7.11176L120.644 9.05294C120.38 8.94706 120.009 8.89412 119.532 8.89412C118.774 8.89412 118.121 9.19412 117.538 9.79412C116.956 10.3941 116.674 11.1706 116.674 12.1235V18.1765Z" fill="#616161"/>
<path d="M126.927 18.5294C125.268 18.5294 123.909 17.9647 122.833 16.8529C121.756 15.7235 121.227 14.3294 121.227 12.6353C121.227 10.9412 121.756 9.54706 122.833 8.41765C123.909 7.28824 125.268 6.74118 126.927 6.74118C128.162 6.74118 129.186 7.04118 129.997 7.64118C130.809 8.24118 131.409 9 131.78 9.91765L129.874 10.7118C129.309 9.31765 128.268 8.62941 126.786 8.62941C125.868 8.62941 125.056 9 124.35 9.75882C123.644 10.5176 123.292 11.4706 123.292 12.6353C123.292 13.8 123.644 14.7529 124.35 15.5118C125.056 16.2706 125.868 16.6412 126.786 16.6412C128.339 16.6412 129.397 15.9529 129.997 14.5588L131.85 15.3529C131.48 16.2529 130.862 17.0118 130.033 17.6294C129.186 18.2294 128.162 18.5294 126.927 18.5294Z" fill="#616161"/>
<path d="M135.186 2.01176V7.11176L135.097 8.64706H135.186C135.486 8.11765 135.962 7.67647 136.615 7.30588C137.268 6.93529 137.956 6.75882 138.697 6.75882C140.074 6.75882 141.115 7.18235 141.839 8.02941C142.562 8.87647 142.915 10.0059 142.915 11.4176V18.1765H140.833V11.7176C140.833 9.67059 139.915 8.64706 138.097 8.64706C137.233 8.64706 136.544 8.98235 135.997 9.67059C135.45 10.3588 135.186 11.1529 135.186 12.0529V18.1765H133.103V2.01176H135.186Z" fill="#616161"/>
<path d="M155.374 18.5294C152.992 18.5294 150.997 17.7176 149.392 16.1118C147.786 14.5059 146.974 12.4941 146.974 10.0765C146.974 7.65882 147.786 5.66471 149.392 4.04118C150.997 2.43529 152.992 1.62353 155.374 1.62353C157.809 1.62353 159.786 2.50588 161.321 4.27059L159.874 5.66471C158.78 4.28824 157.28 3.61765 155.374 3.61765C153.609 3.61765 152.127 4.21765 150.909 5.4C149.692 6.58235 149.092 8.15294 149.092 10.0765C149.092 12 149.692 13.5706 150.909 14.7529C152.127 15.9353 153.609 16.5353 155.374 16.5353C157.315 16.5353 158.974 15.7588 160.35 14.1882L161.797 15.6353C161.056 16.5177 160.139 17.2235 159.027 17.7529C157.897 18.2824 156.68 18.5294 155.374 18.5294Z" fill="#616161"/>
<path d="M164.197 8.43529C165.274 7.30588 166.633 6.75882 168.292 6.75882C169.95 6.75882 171.309 7.32353 172.386 8.43529C173.462 9.56471 173.992 10.9588 173.992 12.6529C173.992 14.3471 173.462 15.7412 172.386 16.8706C171.309 18 169.95 18.5471 168.292 18.5471C166.633 18.5471 165.274 17.9824 164.197 16.8706C163.121 15.7412 162.592 14.3471 162.592 12.6529C162.592 10.9588 163.121 9.54706 164.197 8.43529ZM165.733 15.5471C166.456 16.2706 167.303 16.6412 168.274 16.6412C169.244 16.6412 170.092 16.2706 170.815 15.5471C171.539 14.8235 171.892 13.8529 171.892 12.6529C171.892 11.4529 171.539 10.4824 170.815 9.75882C170.092 9.03529 169.244 8.66471 168.274 8.66471C167.303 8.66471 166.456 9.03529 165.733 9.75882C165.009 10.4824 164.656 11.4529 164.656 12.6529C164.674 13.8529 165.027 14.8059 165.733 15.5471Z" fill="#616161"/>
<path d="M177.433 7.11176V8.64706H177.521C177.821 8.11765 178.297 7.67647 178.95 7.30588C179.603 6.93529 180.291 6.75882 181.033 6.75882C182.409 6.75882 183.45 7.18235 184.174 8.02941C184.897 8.87647 185.25 10.0059 185.25 11.4176V18.1765H183.168V11.7176C183.168 9.67059 182.25 8.64706 180.433 8.64706C179.568 8.64706 178.88 8.98235 178.333 9.67059C177.786 10.3588 177.521 11.1529 177.521 12.0529V18.1765H175.438V7.11176H177.433Z" fill="#616161"/>
<path d="M191.303 18.5294C190.068 18.5294 189.044 18.2294 188.25 17.6294C187.439 17.0294 186.856 16.2706 186.486 15.3706L188.339 14.5941C188.921 15.9882 189.927 16.6765 191.339 16.6765C191.991 16.6765 192.521 16.5353 192.927 16.2529C193.333 15.9706 193.544 15.5824 193.544 15.1235C193.544 14.4 193.033 13.9059 192.027 13.6588L189.786 13.1118C189.08 12.9353 188.409 12.5824 187.774 12.0882C187.139 11.5765 186.821 10.9059 186.821 10.0412C186.821 9.07059 187.262 8.27647 188.127 7.65882C188.991 7.04118 190.015 6.74118 191.215 6.74118C192.186 6.74118 193.068 6.97059 193.827 7.41176C194.603 7.85294 195.15 8.48823 195.468 9.31765L193.668 10.0588C193.262 9.08824 192.415 8.59412 191.144 8.59412C190.527 8.59412 190.015 8.71765 189.591 8.98235C189.168 9.24706 188.956 9.58235 188.956 10.0235C188.956 10.6588 189.45 11.0824 190.421 11.3118L192.609 11.8235C193.65 12.0706 194.409 12.4765 194.921 13.0588C195.415 13.6412 195.662 14.3118 195.662 15.0529C195.662 16.0412 195.256 16.8706 194.444 17.5412C193.633 18.2118 192.574 18.5294 191.303 18.5294Z" fill="#616161"/>
<path d="M198.044 8.43529C199.121 7.30588 200.48 6.75882 202.138 6.75882C203.797 6.75882 205.156 7.32353 206.233 8.43529C207.309 9.56471 207.838 10.9588 207.838 12.6529C207.838 14.3471 207.309 15.7412 206.233 16.8706C205.156 18 203.797 18.5471 202.138 18.5471C200.48 18.5471 199.121 17.9824 198.044 16.8706C196.968 15.7412 196.438 14.3471 196.438 12.6529C196.438 10.9588 196.968 9.54706 198.044 8.43529ZM199.597 15.5471C200.321 16.2706 201.168 16.6412 202.138 16.6412C203.109 16.6412 203.956 16.2706 204.68 15.5471C205.403 14.8235 205.756 13.8529 205.756 12.6529C205.756 11.4529 205.403 10.4824 204.68 9.75882C203.956 9.03529 203.109 8.66471 202.138 8.66471C201.168 8.66471 200.321 9.03529 199.597 9.75882C198.874 10.4824 198.521 11.4529 198.521 12.6529C198.521 13.8529 198.874 14.8059 199.597 15.5471Z" fill="#616161"/>
<path d="M211.403 18.1765H209.321V2.01176H211.403V18.1765Z" fill="#616161"/>
<path d="M218.55 18.5294C216.874 18.5294 215.515 17.9647 214.474 16.8529C213.433 15.7412 212.903 14.3294 212.903 12.6353C212.903 11.0294 213.415 9.63529 214.421 8.47059C215.444 7.30588 216.733 6.72353 218.321 6.72353C219.962 6.72353 221.268 7.25294 222.256 8.32941C223.245 9.40588 223.739 10.8353 223.739 12.6176L223.721 13.0059H214.986C215.039 14.1176 215.427 15 216.097 15.6529C216.786 16.3059 217.58 16.6235 218.497 16.6235C219.98 16.6235 221.003 15.9882 221.533 14.7176L223.386 15.4941C223.033 16.3588 222.433 17.0647 221.603 17.6471C220.774 18.2471 219.75 18.5294 218.55 18.5294ZM221.533 11.3118C221.48 10.6765 221.197 10.0765 220.668 9.51177C220.139 8.94706 219.344 8.64706 218.286 8.64706C217.509 8.64706 216.856 8.89412 216.292 9.37059C215.727 9.84706 215.339 10.5 215.127 11.3118H221.533Z" fill="#616161"/>
<path d="M0.485596 9.28235C0.485596 4.18235 4.77383 0.0176468 9.89148 0.0176468C12.715 0.0176468 14.7268 1.12941 16.2444 2.57647L14.4621 4.35882C13.3856 3.33529 11.9032 2.55882 9.89148 2.55882C6.16795 2.55882 3.25618 5.55882 3.25618 9.28235C3.25618 13.0059 6.16795 16.0059 9.89148 16.0059C12.3091 16.0059 13.6856 15.0353 14.568 14.1529C15.2915 13.4294 15.768 12.3882 15.9444 10.9765H9.89148V8.45294H18.415C18.5032 8.91176 18.5562 9.44118 18.5562 10.0412C18.5562 11.9471 18.0444 14.2941 16.368 15.9529C14.7444 17.6471 12.6621 18.5471 9.90913 18.5471C4.77383 18.5294 0.485596 14.3824 0.485596 9.28235Z" fill="#4285F4"/>
<path d="M25.4208 6.61765C22.1208 6.61765 19.4385 9.12353 19.4385 12.5824C19.4385 16.0235 22.1208 18.5471 25.4208 18.5471C28.7208 18.5471 31.4032 16.0235 31.4032 12.5824C31.4032 9.12353 28.7208 6.61765 25.4208 6.61765ZM25.4208 16.1824C23.6208 16.1824 22.0502 14.7 22.0502 12.5647C22.0502 10.4118 23.6032 8.94706 25.4208 8.94706C27.2208 8.94706 28.7914 10.4118 28.7914 12.5647C28.7914 14.7 27.2208 16.1824 25.4208 16.1824Z" fill="#DB4437"/>
<path d="M38.4797 6.61765C35.1797 6.61765 32.4973 9.12353 32.4973 12.5824C32.4973 16.0235 35.1797 18.5471 38.4797 18.5471C41.7797 18.5471 44.462 16.0235 44.462 12.5824C44.462 9.12353 41.7797 6.61765 38.4797 6.61765ZM38.4797 16.1824C36.6797 16.1824 35.1091 14.7 35.1091 12.5647C35.1091 10.4118 36.662 8.94706 38.4797 8.94706C40.2973 8.94706 41.8503 10.4118 41.8503 12.5647C41.8503 14.7 40.2797 16.1824 38.4797 16.1824Z" fill="#F4B400"/>
<path d="M54.5032 6.97059V7.94117H54.415C53.8326 7.23529 52.7032 6.6 51.2738 6.6C48.2914 6.6 45.5562 9.21176 45.5562 12.5824C45.5562 15.9176 48.2914 18.5294 51.2738 18.5294C52.7032 18.5294 53.8326 17.8941 54.415 17.1706H54.5032V18.0353C54.5032 20.3118 53.2856 21.5294 51.3267 21.5294C49.7209 21.5294 48.7326 20.3824 48.3267 19.4118L46.0503 20.3647C46.7032 21.9529 48.4503 23.8941 51.3444 23.8941C54.415 23.8941 57.0091 22.0941 57.0091 17.6824V6.97059H54.5032ZM51.5032 16.1824C49.7032 16.1824 48.1856 14.6647 48.1856 12.5824C48.1856 10.4824 49.7032 8.94706 51.5032 8.94706C53.2856 8.94706 54.6797 10.4824 54.6797 12.5824C54.6973 14.6824 53.2856 16.1824 51.5032 16.1824Z" fill="#4285F4"/>
<path d="M61.4208 0.652941H58.8091V18.1765H61.4208V0.652941Z" fill="#0F9D58"/>
<path d="M68.6032 16.1824C67.262 16.1824 66.3267 15.5647 65.7091 14.3824L73.6855 11.0824L73.4208 10.4118C72.9267 9.07059 71.4091 6.61765 68.3208 6.61765C65.2502 6.61765 62.6914 9.03529 62.6914 12.5824C62.6914 15.9176 65.2149 18.5471 68.6032 18.5471C71.3385 18.5471 72.9091 16.8706 73.5796 15.9L71.5502 14.5412C70.862 15.5294 69.9443 16.1824 68.6032 16.1824ZM68.4091 8.91176C69.4502 8.91176 70.3326 9.42353 70.6149 10.1824L65.2855 12.3882C65.2149 10.0941 67.0679 8.91176 68.4091 8.91176Z" fill="#DB4437"/>
</g>
<defs>
<clipPath id="clip0_1320_11304">
<rect width="224" height="24" fill="white" transform="translate(0.362061)"/>
</clipPath>
</defs>
</svg>
