<svg width="167" height="24" viewBox="0 0 167 24" fill="none" xmlns="http://www.w3.org/2000/svg">
<g clip-path="url(#clip0_1320_11237)">
<path d="M119.393 12.1801V18.6979H117.44V3.4967H126.314V5.36408H119.393V10.3533H125.636V12.1801H119.393Z" fill="#5F6368"/>
<path d="M127.2 13.4965C127.2 11.8977 127.702 10.574 128.707 9.52634C129.726 8.47861 131.007 7.95522 132.55 7.95522C134.093 7.95522 135.366 8.47861 136.371 9.52634C137.39 10.574 137.9 11.8977 137.9 13.4965C137.9 15.11 137.39 16.4337 136.371 17.4666C135.366 18.5143 134.093 19.0377 132.55 19.0377C131.007 19.0377 129.726 18.5143 128.707 17.4666C127.702 16.419 127.2 15.0953 127.2 13.4965ZM129.153 13.4965C129.153 14.6143 129.479 15.5199 130.13 16.2131C130.78 16.9073 131.587 17.2534 132.55 17.2534C133.513 17.2534 134.319 16.9073 134.97 16.2131C135.621 15.5199 135.947 14.6143 135.947 13.4965C135.947 12.3925 135.621 11.4934 134.97 10.8002C134.305 10.0922 133.498 9.73865 132.55 9.73865C131.601 9.73865 130.794 10.0922 130.13 10.8002C129.479 11.4934 129.153 12.3925 129.153 13.4965Z" fill="#5F6368"/>
<path d="M139.561 8.29492H141.429V9.73772H141.514C141.811 9.22907 142.268 8.80446 142.884 8.46476C143.499 8.12415 144.139 7.95522 144.805 7.95522C146.079 7.95522 147.059 8.31892 147.745 9.04815C148.431 9.77649 148.775 10.814 148.775 12.159V18.698H146.821V12.2854C146.779 10.587 145.923 9.73772 144.253 9.73772C143.473 9.73772 142.823 10.0534 142.299 10.683C141.775 11.3134 141.514 12.0666 141.514 12.9436V18.698H139.561V8.29492Z" fill="#5F6368"/>
<path d="M154.785 18.8678C153.936 18.8678 153.231 18.6056 152.672 18.0813C152.113 17.5579 151.827 16.8296 151.812 15.8955V10.0782H149.987V8.29581H151.812V5.11027H153.766V8.29581H156.313V10.0782H153.766V15.2586C153.766 15.9518 153.9 16.4235 154.169 16.6709C154.438 16.9192 154.743 17.041 155.081 17.041C155.237 17.041 155.39 17.0244 155.538 16.9893C155.688 16.9542 155.825 16.9072 155.953 16.8499L156.568 18.5909C156.059 18.7746 155.463 18.8678 154.785 18.8678Z" fill="#5F6368"/>
<path d="M165.903 15.8106C165.903 16.7162 165.506 17.4814 164.714 18.1036C163.921 18.7257 162.923 19.0377 161.721 19.0377C160.673 19.0377 159.752 18.7645 158.96 18.2199C158.167 17.6762 157.601 16.9571 157.261 16.0654L159.001 15.3223C159.257 15.9454 159.628 16.43 160.117 16.7771C160.605 17.1233 161.14 17.2968 161.721 17.2968C162.344 17.2968 162.864 17.163 163.281 16.8934C163.698 16.6248 163.907 16.3063 163.907 15.938C163.907 15.2725 163.398 14.7851 162.379 14.4731L160.595 14.0273C158.57 13.5177 157.559 12.5411 157.559 11.0974C157.559 10.1494 157.944 9.38788 158.715 8.81553C159.487 8.2423 160.475 7.95522 161.678 7.95522C162.598 7.95522 163.429 8.17492 164.173 8.61338C164.916 9.05276 165.435 9.63895 165.732 10.3756L163.992 11.0974C163.793 10.659 163.472 10.3156 163.026 10.0673C162.58 9.8208 162.08 9.69618 161.529 9.69618C161.019 9.69618 160.562 9.82357 160.159 10.0783C159.756 10.3331 159.554 10.6442 159.554 11.0125C159.554 11.607 160.114 12.0316 161.231 12.2863L162.804 12.6897C164.869 13.1993 165.903 14.2396 165.903 15.8106Z" fill="#5F6368"/>
<path d="M50.5041 19.032C45.7474 19.032 41.7468 15.1763 41.7468 10.4391C41.7468 5.70277 45.7474 1.84615 50.5041 1.84615C53.1367 1.84615 55.0096 2.87354 56.421 4.21477L54.7557 5.86985C53.7459 4.92738 52.3779 4.19354 50.5041 4.19354C47.0305 4.19354 44.3148 6.98123 44.3148 10.4391C44.3148 13.8978 47.0305 16.6855 50.5041 16.6855C52.7564 16.6855 54.0413 15.7837 54.8628 14.9668C55.5357 14.2957 55.9788 13.332 56.1459 12.0111H50.5041V9.66369H58.4416C58.5256 10.0828 58.5671 10.5868 58.5671 11.1314C58.5671 12.8917 58.0825 15.0711 56.5244 16.6228C55.0087 18.1938 53.073 19.032 50.5041 19.032Z" fill="#5F6368"/>
<path d="M70.8449 13.499C70.8449 16.6845 68.3839 19.0319 65.3655 19.0319C62.3479 19.0319 59.8879 16.6845 59.8879 13.499C59.8879 10.2922 62.3479 7.96604 65.3655 7.96604C68.3839 7.96604 70.8449 10.2922 70.8449 13.499ZM68.4467 13.499C68.4467 11.5079 67.0187 10.1454 65.3655 10.1454C63.7122 10.1454 62.2852 11.5079 62.2852 13.499C62.2852 15.4688 63.7122 16.8525 65.3655 16.8525C67.0187 16.8525 68.4467 15.4688 68.4467 13.499Z" fill="#5F6368"/>
<path d="M83.1246 13.499C83.1246 16.6845 80.6637 19.0319 77.6453 19.0319C74.6286 19.0319 72.1677 16.6845 72.1677 13.499C72.1677 10.2922 74.6286 7.96604 77.6453 7.96604C80.6637 7.96604 83.1246 10.2922 83.1246 13.499ZM80.7265 13.499C80.7265 11.5079 79.2994 10.1454 77.6453 10.1454C75.992 10.1454 74.5659 11.5079 74.5659 13.499C74.5659 15.4688 75.992 16.8525 77.6453 16.8525C79.2994 16.8525 80.7265 15.4688 80.7265 13.499Z" fill="#5F6368"/>
<path d="M95.0959 8.30112V18.2362C95.0959 22.3236 92.6756 23.9999 89.8122 23.9999C87.1178 23.9999 85.4968 22.1971 84.8867 20.7304L87.0116 19.8498C87.391 20.7507 88.3168 21.8196 89.8122 21.8196C91.6436 21.8196 92.7808 20.6888 92.7808 18.5713V17.7747H92.6968C92.1494 18.4458 91.0962 19.0319 89.7707 19.0319C86.9913 19.0319 84.4436 16.6227 84.4436 13.5202C84.4436 10.3974 86.9913 7.96604 89.7707 7.96604C91.0962 7.96604 92.1494 8.55312 92.6968 9.20296H92.7808V8.30112H95.0959ZM92.9488 13.5202C92.9488 11.5716 91.6436 10.1454 89.9811 10.1454C88.2965 10.1454 86.8861 11.5716 86.8861 13.5202C86.8861 15.4485 88.2965 16.8525 89.9811 16.8525C91.6436 16.8525 92.9488 15.4485 92.9488 13.5202Z" fill="#5F6368"/>
<path d="M99.3773 18.696H96.9348V2.43322H99.3773V18.696Z" fill="#5F6368"/>
<path d="M108.976 15.3222L110.871 16.5795C110.262 17.4813 108.787 19.0312 106.24 19.0312C103.083 19.0312 100.802 16.6016 100.802 13.5001C100.802 10.2093 103.103 7.96717 105.967 7.96717C108.852 7.96717 110.262 10.2509 110.725 11.4869L110.977 12.1155L103.546 15.1755C104.114 16.2859 104.998 16.8527 106.24 16.8527C107.482 16.8527 108.346 16.2444 108.976 15.3222ZM103.145 13.3312L108.114 11.2782C107.84 10.5869 107.019 10.1041 106.05 10.1041C104.809 10.1041 103.083 11.1933 103.145 13.3312Z" fill="#5F6368"/>
<path d="M0.669678 21.2308L14.0543 0H22.362V2.95385L10.8235 21.2308" fill="#FBBC04"/>
<path d="M22.3621 21.2308H14.0544V0H22.3621V21.2308Z" fill="#1A73E8"/>
<path d="M28.3621 15.2308C28.3621 18.5446 25.6759 21.2308 22.3621 21.2308V9.23077C25.6759 9.23077 28.3621 11.9169 28.3621 15.2308Z" fill="#34A853"/>
<path d="M22.3621 21.2308C19.0482 21.2308 16.3621 18.5446 16.3621 15.2308C16.3621 11.9169 19.0482 9.23077 22.3621 9.23077V21.2308Z" fill="#0D652D"/>
<path d="M26.9774 4.61538C26.9774 7.16399 24.9116 9.23076 22.3621 9.23076V0C24.9116 0 26.9774 2.06677 26.9774 4.61538Z" fill="#1A73E8"/>
<path d="M22.3622 9.23076C19.8127 9.23076 17.7468 7.16399 17.7468 4.61538C17.7468 2.06677 19.8127 0 22.3622 0V9.23076Z" fill="#174EA6"/>
<path d="M1.13135 4.15383C1.13135 1.85999 2.99134 0 5.28518 0C7.57901 0 9.43901 1.85999 9.43901 4.15383C9.43901 6.44766 7.57901 8.30767 5.28518 8.30767C2.99134 8.30767 1.13135 6.44766 1.13135 4.15383Z" fill="#EA4335"/>
</g>
<defs>
<clipPath id="clip0_1320_11237">
<rect width="166.154" height="24" fill="white" transform="translate(0.208252)"/>
</clipPath>
</defs>
</svg>
