<svg width="108" height="24" viewBox="0 0 108 24" fill="none" xmlns="http://www.w3.org/2000/svg">
<g clip-path="url(#clip0_1320_12197)">
<path d="M29.0479 5.0286H30.8764V10.1143C31.6193 9.02857 32.6478 8.45714 33.8478 8.45714C35.5049 8.45714 36.4764 9.37143 36.4764 11.2V17.4286H34.6479V11.7143C34.6479 10.4571 34.1907 10.1143 33.2764 10.1143C32.7049 10.1143 32.1907 10.4571 31.6764 11.0857C31.1621 11.7714 30.9336 12.6286 30.9336 13.7143V17.4286H29.1049L29.0479 5.0286Z" fill="#3A3938"/>
<path d="M45.6192 13.4857H39.3906C39.3906 14.8571 40.1906 15.9429 41.5621 15.9429C42.5335 15.9429 43.4478 15.3714 43.8478 14.4571L45.3906 15.0857C44.4763 16.8 43.4478 17.5429 41.5049 17.5429C38.5906 17.5429 37.3906 15.0857 37.3906 12.9714C37.3906 10.8571 38.5906 8.4 41.5049 8.4C44.3049 8.4 45.5621 10.6857 45.5621 12.6857V13.4857H45.6192ZM39.4478 12H43.7335C43.5621 10.9143 42.8192 10.0571 41.6192 10.0571C40.4192 10.0571 39.6763 10.8571 39.4478 12Z" fill="#3A3938"/>
<path d="M59.905 8.45714C60.3622 8.45714 60.7622 8.57143 61.2764 8.8C61.7336 9.02857 62.0764 9.25714 62.305 9.54286V4.9714H64.1336V17.3714H62.305V16.3429C61.9622 16.9143 60.9907 17.4857 59.905 17.4857C57.3336 17.4857 55.9622 15.8286 55.9622 12.9143C55.9622 10.1714 57.3336 8.45714 59.905 8.45714ZM57.8479 12.9714C57.8479 13.8857 58.0764 14.5714 58.4764 15.1429C58.8764 15.6571 59.4479 15.9429 60.0764 15.9429C60.7622 15.9429 61.2764 15.6571 61.6764 15.1429C62.0764 14.6286 62.305 13.8857 62.305 12.9714C62.305 12.0571 62.0764 11.3714 61.6764 10.8571C61.2764 10.3429 60.705 10.0571 60.0764 10.0571C59.3907 10.0571 58.8764 10.3429 58.4764 10.8571C58.0764 11.3714 57.8479 12.1143 57.8479 12.9714Z" fill="#3A3938"/>
<path d="M71.0479 9.82857L69.905 10.8571C69.505 10.3429 68.9907 10.0571 68.3621 10.0571C67.8479 10.0571 67.505 10.4 67.505 10.9143C67.505 11.0857 67.5621 11.3143 67.7336 11.4286C68.0193 11.7143 68.305 11.8857 69.105 12.1714C69.7336 12.4 69.9621 12.5143 70.4764 12.8C71.1621 13.2 71.505 13.7714 71.5621 14.6857C71.5621 15.4857 71.2764 16.1143 70.705 16.6857C70.1336 17.2 69.3907 17.4857 68.4764 17.4857C66.8193 17.4857 65.6193 16.4 65.0479 15.1429L66.5907 14.2857C67.0479 15.3714 67.7336 15.8857 68.5336 15.8857C69.3336 15.8857 69.7336 15.4857 69.7336 14.7429C69.7336 14.4571 69.6193 14.2286 69.2764 14.0571C69.105 13.9429 68.9907 13.8857 68.8193 13.8286C68.5336 13.7143 67.905 13.4857 67.6193 13.3714C66.3621 12.8571 65.7336 12.0571 65.7336 10.9714C65.7336 10.2857 66.0193 9.65714 66.4764 9.2C66.9907 8.68571 67.6193 8.45714 68.4193 8.45714C69.505 8.45714 70.4764 8.97143 71.0479 9.82857Z" fill="#3A3938"/>
<path d="M76.8763 17.5429C75.8477 17.5429 74.9334 17.0286 74.5334 16.4V20.9715H72.7048V8.57143H74.5334V9.6C74.8763 9.02857 75.8477 8.45714 76.9334 8.45714C79.5048 8.45714 80.8763 10.1143 80.8763 13.0286C80.8191 15.7714 79.4477 17.5429 76.8763 17.5429ZM78.9334 12.9714C78.9334 12.0571 78.7048 11.3714 78.3048 10.8571C77.9048 10.3429 77.3334 10.0571 76.7048 10.0571C76.0191 10.0571 75.5048 10.3429 75.1048 10.8571C74.7048 11.3714 74.4763 12.1143 74.4763 12.9714C74.4763 13.8857 74.7048 14.5714 75.1048 15.1429C75.5048 15.6571 76.0763 15.9429 76.7048 15.9429C77.3906 15.9429 77.9048 15.6571 78.3048 15.1429C78.7048 14.6286 78.9334 13.8857 78.9334 12.9714Z" fill="#3A3938"/>
<path d="M98.8191 15.0857C98.0762 16.6857 96.8191 17.5429 94.9905 17.5429C93.6762 17.5429 92.6477 17.0857 91.9048 16.2286C91.1619 15.3714 90.8191 14.2857 90.8191 12.9714C90.8191 11.6571 91.1619 10.5714 91.9048 9.71429C92.6477 8.85714 93.6762 8.4 94.9905 8.4C96.8191 8.4 98.0762 9.2 98.8191 10.8571L97.2191 11.5429C96.7619 10.5143 96.0191 10 95.0477 10C93.5619 10 92.8191 11.2 92.8191 12.9143C92.8191 14.6857 93.5619 15.8286 95.0477 15.8286C96.0191 15.8286 96.7619 15.3143 97.2191 14.2857L98.8191 15.0857Z" fill="#3A3938"/>
<path d="M107.619 13.4857H101.391C101.391 14.8571 102.191 15.9429 103.562 15.9429C104.533 15.9429 105.448 15.3714 105.848 14.4571L107.391 15.0857C106.476 16.8 105.448 17.5429 103.505 17.5429C100.591 17.5429 99.3906 15.0857 99.3906 12.9714C99.3906 10.8571 100.591 8.4 103.505 8.4C106.305 8.4 107.562 10.6857 107.562 12.6857V13.4857H107.619ZM101.448 12H105.733C105.562 10.9143 104.819 10.0571 103.619 10.0571C102.419 10.0571 101.619 10.8571 101.448 12Z" fill="#3A3938"/>
<path d="M50.6477 8.45714C51.1048 8.45714 51.5049 8.57143 52.0192 8.8C52.4763 9.02857 52.8191 9.25714 53.0477 9.54286V8.57143H54.8763V17.4286H53.3334L53.0477 16.4C52.7048 16.9714 51.7334 17.5429 50.6477 17.5429C48.0763 17.5429 46.7048 15.8857 46.7048 12.9714C46.6477 10.2286 48.0191 8.45714 50.6477 8.45714ZM48.5906 13.0286C48.5906 13.9429 48.8191 14.6286 49.2191 15.2C49.6191 15.7143 50.1906 16 50.8192 16C51.5049 16 52.0191 15.7143 52.4191 15.2C52.8191 14.6857 53.0477 13.9429 53.0477 13.0286C53.0477 12.1143 52.8191 11.4286 52.4191 10.9143C52.0191 10.4 51.4478 10.1143 50.8192 10.1143C50.1335 10.1143 49.6191 10.4 49.2191 10.9143C48.8191 11.3714 48.5906 12.1143 48.5906 13.0286Z" fill="#3A3938"/>
<path d="M85.6763 8.45714C86.1334 8.45714 86.5334 8.57143 87.0477 8.8C87.5048 9.02857 87.8477 9.25714 88.0763 9.54286V8.57143H89.9048V17.4286H88.362L88.0763 16.4C87.7334 16.9714 86.762 17.5429 85.6763 17.5429C83.1048 17.5429 81.7334 15.8857 81.7334 12.9714C81.6763 10.2286 83.0477 8.45714 85.6763 8.45714ZM83.6191 13.0286C83.6191 13.9429 83.8477 14.6286 84.2477 15.2C84.6477 15.7143 85.2191 16 85.8477 16C86.5334 16 87.0477 15.7143 87.4477 15.2C87.8477 14.6857 88.0763 13.9429 88.0763 13.0286C88.0763 12.1143 87.8477 11.4286 87.4477 10.9143C87.0477 10.4 86.4763 10.1143 85.8477 10.1143C85.162 10.1143 84.6477 10.4 84.2477 10.9143C83.7906 11.3714 83.6191 12.1143 83.6191 13.0286Z" fill="#3A3938"/>
<path d="M23.3906 11.8857C23.6763 15.6571 21.9049 17.7714 20.8763 19.2571C19.2763 20.9714 17.1621 23.3142 11.9621 23.4285C7.50492 23.5999 5.33349 21.6571 3.50492 19.9428C1.10492 17.3142 0.476346 15.7142 0.362061 11.8857C0.362061 9.48566 1.27635 7.1428 2.87635 5.02854C5.10492 1.88568 8.64777 0.799966 11.9621 0.571396C15.3906 0.457111 18.1335 2.17139 20.0192 4.05711C22.4192 6.62851 23.1621 8.79994 23.3906 11.8857Z" fill="#FF7E1D"/>
</g>
<defs>
<clipPath id="clip0_1320_12197">
<rect width="107.429" height="24" fill="white" transform="translate(0.362061)"/>
</clipPath>
</defs>
</svg>
