<svg width="176" height="24" viewBox="0 0 176 24" fill="none" xmlns="http://www.w3.org/2000/svg">
<g clip-path="url(#clip0_1320_11686)">
<path d="M105.777 1.969C102.966 1.969 101.599 3.62589 101.599 6.06645V7.49971H99.4713V9.58837H101.607V20.6304H103.813V9.58837H107.2V7.49971H103.813L103.792 6.13218C103.792 4.95062 104.491 4.13562 105.881 4.13562C106.357 4.13371 106.832 4.17856 107.299 4.26745V2.17806C106.804 2.0369 106.292 1.96615 105.777 1.969ZM39.8129 2.45617C39.4425 2.46967 39.0886 2.62237 38.8248 2.88727C38.5221 3.18883 38.3662 3.60817 38.3959 4.03425C38.3959 4.5977 38.6957 5.11883 39.184 5.39994C39.6713 5.68226 40.2727 5.68226 40.7601 5.39994C41.2474 5.11883 41.5486 4.5977 41.5476 4.03425C41.5781 3.60817 41.4221 3.18883 41.1196 2.88727C40.8178 2.58451 40.3984 2.42848 39.9722 2.45915C39.9189 2.45534 39.8657 2.45421 39.8129 2.45611V2.45617ZM77.4795 3.11563C73.4592 3.11563 71.412 5.10302 71.412 7.78861C71.412 10.6244 73.152 11.9637 77.0321 12.9097C80.3145 13.6978 81.2602 14.5092 81.2602 16.0343C81.2602 17.5594 80.2781 18.5834 77.6789 18.5834C75.3962 18.5834 72.9279 17.9799 71.3258 17.139V19.5537C72.6655 20.2368 74.2143 20.893 77.5509 20.893C81.833 20.893 83.6184 18.8693 83.6359 15.8765C83.6359 12.7668 81.5863 11.5969 77.9364 10.677C74.8924 9.91684 73.7877 9.20611 73.7877 7.78861C73.7877 6.21328 75.1279 5.42519 77.3865 5.42519C79.2616 5.37955 81.1155 5.8324 82.7585 6.73852V4.37438C81.5767 3.71255 79.9749 3.11563 77.4795 3.11563ZM33.3022 3.38075L33.3082 15.5357C33.3082 17.2579 32.6182 18.4515 30.6225 18.4515C29.7869 18.4581 28.9589 18.306 28.1812 18.0041V20.3014C29.0933 20.6126 30.0525 20.7638 31.0161 20.7501C34.2753 20.7501 35.6661 18.5563 35.6661 15.3779V3.38075H33.3022ZM110.552 4.71487V7.51086H108.424V9.60061H110.561V16.53C110.561 18.9742 111.928 20.6275 114.739 20.6275C115.254 20.6304 115.766 20.5596 116.261 20.4185V18.24C115.796 18.3485 115.321 18.4107 114.844 18.4248C113.452 18.4248 112.769 17.6374 112.757 16.4818V9.58837H116.249V7.49971H112.757V4.71487H110.552ZM169.206 7.22791C165.213 7.22791 163.008 10.0626 163.008 14.0292C163.008 18.0579 165.159 20.893 170.072 20.893C171.411 20.893 173.069 20.6897 174.146 20.1087V18.019C172.865 18.4877 171.514 18.7284 170.153 18.7293C167.054 18.7293 165.61 17.2848 165.294 15.0522H174.876V14.0292C174.876 10.0386 173.251 7.22791 169.206 7.22791ZM57.7495 7.23722C54.0727 7.23722 52.2348 10.3617 52.2348 14.0646C52.2348 17.9263 53.9956 20.893 57.487 20.893C59.5078 20.893 61.0834 20.0011 61.9253 18.2671L61.9279 20.6304H64.1875V7.49975H61.9279V9.8093C61.1371 8.1021 59.6657 7.23722 57.7497 7.23722H57.7495ZM91.8643 7.23722C87.9247 7.23722 85.6147 10.0992 85.6147 14.0378C85.6147 17.9774 87.9514 20.9023 91.8643 20.9023C95.777 20.9023 98.0621 17.9774 98.0621 14.0378C98.0621 10.0992 95.8029 7.23722 91.8643 7.23722ZM145.412 7.23722C141.735 7.23722 139.897 10.3617 139.897 14.0646C139.897 17.9263 141.658 20.893 145.149 20.893C147.17 20.893 148.745 20.0011 149.587 18.2671L149.59 20.6304H151.85V7.49975H149.59V9.8093C148.799 8.1021 147.328 7.23722 145.412 7.23722ZM50.8769 7.29923C48.618 7.29619 47.4065 8.35674 46.693 9.8093V7.49975H44.4874V20.6393H46.693V12.8801C46.693 10.099 48.4538 9.22168 51.3425 9.51969V7.31409C51.1824 7.3042 51.0274 7.29945 50.8769 7.29926V7.29923ZM161.649 7.29923C159.391 7.29619 158.18 8.35674 157.466 9.8093V7.49975H155.26V20.6393H157.466V12.8801C157.466 10.099 159.227 9.22168 162.116 9.51969V7.31409C161.955 7.3042 161.8 7.29945 161.649 7.29926V7.29923ZM116.893 7.49975L121.725 20.6304H124.614L126.903 14.2773L128.097 10.2326L129.29 14.2773L131.55 20.6304H134.439L139.27 7.49975H136.775L132.991 18.6336L129.156 7.49975H127.001L123.169 18.6336L119.389 7.49975H116.893ZM38.8174 7.50278V20.6331H41.0757V7.50278H38.8174ZM169.095 9.29884C171.352 9.29884 172.455 10.6921 172.587 13.1334H165.267V13.1189C165.503 10.8419 166.711 9.28698 169.095 9.29886V9.29884ZM58.3437 9.32594C60.2719 9.32594 61.9253 10.6125 61.9253 13.5281V14.59C61.9253 17.5044 60.1149 18.7913 58.0934 18.7925C55.753 18.7925 54.4941 17.2161 54.4821 14.0524C54.4821 11.0058 55.7947 9.32594 58.3437 9.32594ZM146.006 9.32594C147.934 9.32594 149.587 10.6125 149.587 13.5281V14.59C149.587 17.5041 147.777 18.791 145.755 18.7925C143.415 18.7925 142.147 17.2162 142.147 14.0646C142.147 11.0181 143.469 9.34994 146.006 9.32594ZM91.8643 9.3497C94.6483 9.3497 95.8567 11.5436 95.8567 14.0379C95.8567 16.5331 94.6723 18.7925 91.8643 18.7925C89.0563 18.7925 87.8203 16.5331 87.8203 14.0379H87.8314C87.8314 11.5436 89.0794 9.3497 91.8643 9.3497Z" fill="#253858"/>
<path d="M22.2959 11.3671L12.5665 1.6376L11.6235 0.695343L0.951827 11.3671C0.602972 11.7169 0.602972 12.2832 0.951827 12.6322L7.64304 19.3233L11.6235 23.3047L22.2959 12.6322C22.6451 12.2832 22.6451 11.7169 22.2959 11.3671ZM11.6235 15.3418L8.2816 12.0001L11.6235 8.65723L14.9662 12.0001L11.6235 15.3418Z" fill="#2684FF"/>
<path d="M11.6235 8.65721C9.43553 6.46832 9.42435 2.92319 11.6002 0.721451L4.2854 8.03341L8.26681 12.0148L11.6235 8.65721Z" fill="url(#paint0_linear_1320_11686)"/>
<path d="M14.9755 11.9906L11.6235 15.3418C12.6798 16.3972 13.2739 17.8296 13.2739 19.3233C13.2739 20.8167 12.6798 22.2483 11.6235 23.3047L18.956 15.972L14.9755 11.9906Z" fill="url(#paint1_linear_1320_11686)"/>
</g>
<defs>
<linearGradient id="paint0_linear_1320_11686" x1="10.1869" y1="6.11632" x2="6.35943" y2="9.94288" gradientUnits="userSpaceOnUse">
<stop stop-color="#0052CC"/>
<stop offset="1" stop-color="#2684FF"/>
</linearGradient>
<linearGradient id="paint1_linear_1320_11686" x1="13.1014" y1="17.8464" x2="16.9213" y2="14.0266" gradientUnits="userSpaceOnUse">
<stop stop-color="#0052CC"/>
<stop offset="1" stop-color="#2684FF"/>
</linearGradient>
<clipPath id="clip0_1320_11686">
<rect width="175.543" height="24" fill="white" transform="translate(0.0119629)"/>
</clipPath>
</defs>
</svg>
