<svg width="135" height="24" viewBox="0 0 135 24" fill="none" xmlns="http://www.w3.org/2000/svg">
<g clip-path="url(#clip0_1320_11612)">
<path fill-rule="evenodd" clip-rule="evenodd" d="M93.9292 18.4254C93.5219 18.4305 93.1179 18.3547 92.7401 18.2024C92.3627 18.0501 92.019 17.8243 91.7292 17.5381C91.1474 16.9563 90.7547 16.0727 90.7547 14.88C90.7547 13.6727 91.1474 12.7927 91.7292 12.2109C92.0201 11.9275 92.3645 11.7045 92.7419 11.5548C93.1198 11.405 93.523 11.3314 93.9292 11.3382C94.7583 11.3382 95.5474 11.6291 96.1292 12.2109C96.711 12.7927 97.1001 13.6727 97.1001 14.88C97.1001 16.0872 96.711 16.9672 96.1292 17.5491C95.8383 17.8324 95.4939 18.0554 95.1165 18.2052C94.7387 18.355 94.3354 18.4286 93.9292 18.4218V18.4254ZM93.9292 7.48C89.7183 7.48 86.5292 10.5781 86.5292 14.88C86.5292 19.1527 89.7183 22.28 93.9292 22.28C98.1401 22.28 101.329 19.1527 101.329 14.88C101.329 10.5781 98.1401 7.48 93.9292 7.48ZM58.9183 18.5273C58.511 18.5323 58.107 18.4565 57.7292 18.3042C57.3518 18.1519 57.0081 17.9261 56.7183 17.64C56.1365 17.0581 55.7474 16.1781 55.7474 14.9854C55.7474 13.7781 56.1401 12.8945 56.7183 12.3163C57.0096 12.0319 57.3543 11.808 57.7325 11.6576C58.1107 11.5072 58.515 11.4332 58.9219 11.44C59.751 11.44 60.5401 11.7345 61.1219 12.3127C61.7038 12.8945 62.0929 13.7782 62.0929 14.9818C62.0929 16.1891 61.7001 17.0727 61.1219 17.6509C60.8307 17.9353 60.4859 18.1592 60.1078 18.3097C59.7296 18.4601 59.3252 18.534 58.9183 18.5273ZM58.9183 7.58182C54.711 7.58182 51.5219 10.6836 51.5219 14.9818C51.5219 19.2582 54.711 22.3818 58.9183 22.3818C63.1292 22.3818 66.3183 19.2545 66.3183 14.9818C66.3183 10.6836 63.1292 7.58545 58.9219 7.58545L58.9183 7.58182ZM112.835 22.2327H117.035V13.8909C117.035 13.2 117.253 12.6 117.631 12.1782C117.841 11.95 118.098 11.7701 118.384 11.6508C118.671 11.5315 118.979 11.4757 119.289 11.4873C120.046 11.4873 120.562 11.7418 120.893 12.1272C121.231 12.52 121.402 13.0909 121.402 13.7818V22.2327H125.576V13.8909C125.576 13.2182 125.795 12.6181 126.173 12.1854C126.377 11.9575 126.629 11.7768 126.91 11.6562C127.192 11.5356 127.496 11.478 127.802 11.4873C128.576 11.4873 129.089 11.7418 129.416 12.1272C129.751 12.52 129.918 13.0909 129.918 13.7818V22.2327H134.009V13.0327C134.009 11.1527 133.391 9.78182 132.413 8.88727C131.442 7.99636 130.147 7.6 128.849 7.6C127.922 7.6 127.075 7.75996 126.315 8.14178C125.664 8.46905 125.093 8.94909 124.591 9.61818C123.78 8.29818 122.3 7.6 120.555 7.6C119.275 7.6 117.802 8.10909 116.871 9.09091V7.94182H112.835V22.2327ZM111.253 7.95273V12.2327L110.926 12.1672C110.536 12.0909 110.198 12.0618 109.886 12.0618C108.995 12.0618 108.202 12.28 107.635 12.8109C107.071 13.3381 106.682 14.2145 106.682 15.6255V22.2327H102.493V7.94182H106.573V9.3236C107.58 8.10905 109.147 7.86905 110.133 7.86905C110.446 7.86905 110.733 7.90178 111.006 7.92724L111.253 7.95273ZM35.7256 15.3455H39.8201L39.8674 15.3927C39.8965 15.4218 39.9183 15.4655 39.9219 15.5127C39.9398 15.8971 40.0336 16.2741 40.1983 16.6219C40.3634 16.9696 40.5958 17.2811 40.8819 17.5381C41.4209 17.978 42.0994 18.2102 42.7947 18.1927C43.1798 18.2056 43.563 18.1345 43.9176 17.9845C44.2725 17.8344 44.5903 17.6089 44.8492 17.3236C45.3525 16.7132 45.615 15.9397 45.5874 15.1491V3.17816H50.0165V15.2727C50.0165 19.1455 47.0529 22.3818 42.8238 22.3818C40.7147 22.3818 38.9401 21.68 37.6965 20.4618C36.4819 19.2727 35.7583 17.5745 35.7256 15.5091V15.3455ZM85.9365 5.11636L86.1692 5.18545V1.9418L86.0601 1.89453C85.8252 1.80107 85.5798 1.73636 85.3292 1.7018C85.0201 1.65089 84.6565 1.61816 84.2856 1.61816C82.8419 1.61816 81.2201 2.09816 80.3801 2.95998C79.5401 3.81818 79.0747 5.04364 79.0747 6.51273V7.19636H76.9656V10.92H79.0747V22.2327H83.311V10.92H86.1692V7.19636H83.311V6.56364C83.311 5.90545 83.5401 5.52364 83.8347 5.30545C84.1492 5.09138 84.5238 4.98309 84.9038 4.99636C85.4492 4.99636 85.7692 5.06909 85.9365 5.11636ZM75.4492 18.8909L75.6674 18.8218V22.0763L75.5656 22.1272C75.4129 22.2 75.1656 22.2691 74.8783 22.32C74.5874 22.3673 74.2492 22.4 73.8965 22.4C72.5438 22.4 71.0238 21.92 70.2347 21.0545C69.4456 20.1927 69.0092 18.9636 69.0092 17.4909V10.92H67.0274V7.21455H69.0092V3.19998H72.9838V7.21818H75.6674V10.9272H72.9838V17.44C72.9838 18.1018 73.2019 18.4836 73.4783 18.7054C73.7619 18.9345 74.1365 19.0145 74.4819 19.0145C74.9947 19.0145 75.2929 18.9418 75.4492 18.8945V18.8909Z" fill="#0A1551"/>
<path d="M6.52923 22.8109C6.98014 23.2473 6.66014 24 6.02014 24H1.99105C1.61554 24.0049 1.25343 23.8606 0.984157 23.5988C0.714883 23.337 0.560434 22.9792 0.554688 22.6036V18.7054C0.554688 18.08 1.32923 17.7709 1.78378 18.2109L6.52923 22.8109Z" fill="#0A1551"/>
<path d="M12.8165 23.1128C12.5339 22.8322 12.3097 22.4985 12.1566 22.1309C12.0036 21.7633 11.9248 21.3691 11.9248 20.9709C11.9248 20.5728 12.0036 20.1785 12.1566 19.8109C12.3097 19.4433 12.5339 19.1097 12.8165 18.8291L17.1147 14.56C17.6882 13.9911 18.4632 13.6719 19.271 13.6719C20.0788 13.6719 20.8539 13.9911 21.4274 14.56C21.71 14.8406 21.9342 15.1743 22.0872 15.5419C22.2403 15.9094 22.3191 16.3037 22.3191 16.7019C22.3191 17.1 22.2403 17.4943 22.0872 17.8619C21.9342 18.2295 21.71 18.5631 21.4274 18.8437L17.1292 23.1128C16.5557 23.6817 15.7807 24.0009 14.9728 24.0009C14.1651 24.0009 13.39 23.6817 12.8165 23.1128Z" fill="#FFB629"/>
<path d="M1.46369 12.3818C1.18113 12.1013 0.956879 11.7676 0.803843 11.4C0.650808 11.0324 0.572021 10.6382 0.572021 10.24C0.572021 9.84185 0.650808 9.4476 0.803843 9.08C0.956879 8.7124 1.18113 8.37873 1.46369 8.09818L8.69644 0.9091C9.26989 0.340184 10.045 0.0209503 10.8528 0.0209503C11.6606 0.0209503 12.4357 0.340184 13.0092 0.9091C13.2917 1.18964 13.516 1.52332 13.669 1.89091C13.822 2.2585 13.9008 2.65274 13.9008 3.05092C13.9008 3.4491 13.822 3.84334 13.669 4.21094C13.516 4.57851 13.2917 4.91218 13.0092 5.19273L5.7728 12.3818C5.19946 12.9496 4.42517 13.2682 3.61824 13.2682C2.81132 13.2682 2.03702 12.9496 1.46369 12.3818Z" fill="#0099FF"/>
<path d="M7.37654 17.5091C7.09395 17.2285 6.8697 16.8949 6.71668 16.5273C6.56363 16.1597 6.48486 15.7654 6.48486 15.3673C6.48486 14.9691 6.56363 14.5748 6.71668 14.2072C6.8697 13.8397 7.09395 13.506 7.37654 13.2254L17.1474 3.51634C17.7209 2.94742 18.496 2.62819 19.3038 2.62819C20.1116 2.62819 20.8867 2.94742 21.4602 3.51634C21.7427 3.79687 21.967 4.13057 22.12 4.49814C22.273 4.86574 22.3518 5.25999 22.3518 5.65817C22.3518 6.05632 22.273 6.45057 22.12 6.81817C21.967 7.18577 21.7427 7.51945 21.4602 7.79999L11.6893 17.5091C11.1158 18.078 10.3407 18.3972 9.5329 18.3972C8.72508 18.3972 7.94999 18.078 7.37654 17.5091Z" fill="#FF6100"/>
</g>
<defs>
<clipPath id="clip0_1320_11612">
<rect width="133.455" height="24" fill="white" transform="translate(0.554688)"/>
</clipPath>
</defs>
</svg>
