<svg width="121" height="24" viewBox="0 0 121 24" fill="none" xmlns="http://www.w3.org/2000/svg">
<g clip-path="url(#clip0_1320_12431)">
<path d="M12.8142 23.2418C10.5955 23.2418 8.42636 22.5861 6.57969 21.3573C4.73304 20.1285 3.2913 18.3814 2.43586 16.3359C1.58043 14.2903 1.3495 12.0376 1.77213 9.86123C2.19476 7.68485 3.25208 5.68197 4.81107 4.10456C5.84558 3.04818 7.07977 2.2076 8.44194 1.63161C9.80417 1.05561 11.2672 0.755657 12.7464 0.749161H12.8164C14.8583 0.74863 16.862 1.30298 18.6129 2.35288C20.3637 3.40277 21.7959 4.90868 22.7562 6.70939C23.7163 8.51014 24.1684 10.5379 24.0639 12.5756C23.9594 14.6133 23.3024 16.5843 22.1631 18.2776C22.0287 18.4759 21.9762 18.7184 22.0163 18.9545C22.1643 19.7848 22.4441 20.5862 22.8451 21.3283L23.1093 21.8157C23.1384 21.8701 23.1543 21.9305 23.1554 21.9921C23.1566 22.0538 23.143 22.1148 23.1159 22.1702C23.0887 22.2255 23.0488 22.2736 22.9993 22.3105C22.9499 22.3473 22.8924 22.3719 22.8315 22.3821L22.2828 22.4701C21.8624 22.5385 21.4373 22.5739 21.0114 22.5762H20.9504C20.053 22.5728 19.1624 22.4203 18.3151 22.1249C18.217 22.0908 18.1141 22.0733 18.0103 22.073C17.8765 22.0728 17.7445 22.1028 17.6241 22.1609C16.1407 22.8601 14.522 23.226 12.8819 23.2328L12.8142 23.2418Z" fill="white"/>
<path d="M14.8308 10.2309C14.8353 10.6304 14.7209 11.0222 14.502 11.3565C14.2832 11.6908 13.9698 11.9526 13.6018 12.1086C13.2337 12.2646 12.8275 12.3077 12.4349 12.2325C12.0423 12.1573 11.6808 11.9672 11.3965 11.6863C11.1123 11.4054 10.9179 11.0465 10.8383 10.655C10.7586 10.2635 10.7972 9.8572 10.9492 9.48768C11.1011 9.11816 11.3595 8.80212 11.6916 8.57966C12.0237 8.35725 12.4145 8.23847 12.8143 8.23847C13.0776 8.23697 13.3387 8.28733 13.5825 8.38662C13.8264 8.48597 14.0483 8.63233 14.2356 8.81735C14.4228 9.00237 14.5717 9.22241 14.6739 9.46495C14.776 9.70749 14.8294 9.96779 14.8308 10.2309Z" fill="#33405E"/>
<path d="M14.9596 17.4065C14.8307 17.244 14.6427 17.1391 14.4367 17.1146C14.2307 17.0901 14.0233 17.148 13.8598 17.2757C13.5652 17.5019 13.2025 17.6217 12.831 17.6156C12.4594 17.6094 12.1009 17.4776 11.8139 17.2418C11.664 17.1144 11.4727 17.046 11.276 17.0498C11.0792 17.0535 10.8907 17.1291 10.7458 17.2621C10.6382 17.3638 10.5618 17.494 10.5254 17.6374C10.489 17.7808 10.4942 17.9316 10.5402 18.0722C10.5932 18.2233 10.6889 18.3558 10.8158 18.4536C11.3802 18.9135 12.084 19.1688 12.8124 19.1778C13.5407 19.1868 14.2506 18.949 14.8263 18.5032C14.9076 18.4405 14.9756 18.3624 15.0264 18.2732C15.0772 18.184 15.1097 18.0857 15.1221 17.9838C15.1345 17.882 15.1265 17.7787 15.0986 17.68C15.0707 17.5813 15.0235 17.4891 14.9596 17.4088V17.4065Z" fill="#34405F"/>
<path d="M12.8143 5.13802C11.8082 5.1496 10.8282 5.45829 9.99732 6.02527C9.1665 6.59221 8.52207 7.39206 8.14523 8.32419C7.76832 9.25627 7.67584 10.279 7.87932 11.2635C8.08286 12.248 8.5733 13.1504 9.28892 13.857C10.0045 14.5636 10.9134 15.0429 11.901 15.2346C12.8886 15.4262 13.9109 15.3216 14.8391 14.9339C15.7674 14.5463 16.5602 13.8929 17.1177 13.0561C17.6751 12.2192 17.9724 11.2362 17.972 10.2309C17.9636 8.87221 17.4156 7.5724 16.4484 6.61736C15.4812 5.66234 14.174 5.13022 12.8143 5.13802ZM12.8143 13.7849C12.1131 13.7769 11.4301 13.5618 10.8509 13.1668C10.2718 12.7718 9.82257 12.2145 9.55973 11.5649C9.29688 10.9154 9.23209 10.2028 9.37361 9.51652C9.51513 8.83033 9.85661 8.20125 10.3551 7.7085C10.8535 7.21575 11.4867 6.88131 12.1749 6.74729C12.8631 6.61327 13.5756 6.68561 14.2228 6.95521C14.8699 7.22486 15.4228 7.67971 15.8119 8.26258C16.2009 8.84544 16.4088 9.53031 16.4093 10.2309C16.4039 11.1785 16.0222 12.0852 15.3481 12.7516C14.6739 13.418 13.7626 13.7897 12.8143 13.7849Z" fill="#ED4078"/>
<path d="M23.8703 21.5788C23.3774 20.8315 23.0261 20.0001 22.8338 19.126C22.8095 19.0203 22.8063 18.9109 22.8246 18.804C22.8428 18.6971 22.882 18.5949 22.9399 18.5032C24.1784 16.538 24.8324 14.2615 24.8256 11.9391C24.8112 8.76652 23.5394 5.72884 21.2886 3.49118C19.0379 1.25352 15.9914 -0.00182111 12.8164 1.98294e-06H12.7419C10.4453 0.0122945 8.20042 0.682356 6.27338 1.93074C4.34632 3.17913 2.8179 4.95349 1.86933 7.04348C0.920766 9.13344 0.591824 11.4513 0.921509 13.7225C1.25119 15.9936 2.22568 18.1226 3.72943 19.8571C4.8545 21.1636 6.24917 22.2114 7.81769 22.9284C9.38629 23.6455 11.0915 24.0149 12.8164 24.0113H12.8797C14.5561 24.0021 16.2126 23.648 17.7461 22.9711C17.9107 22.8985 18.096 22.888 18.2677 22.9417C19.1419 23.2026 20.0494 23.3349 20.9617 23.3343H21.0092C21.7974 23.3321 22.5818 23.2251 23.3419 23.0162C23.5803 22.9496 23.7832 22.7923 23.9069 22.578C24.0306 22.3637 24.0653 22.1095 24.0036 21.8699C23.9768 21.7657 23.9317 21.6671 23.8703 21.5788ZM21.8786 21.748C20.7648 21.8867 19.6341 21.7694 18.5726 21.4051C18.1534 21.2586 17.6935 21.2829 17.2922 21.4727C15.9094 22.1252 14.3999 22.4657 12.8706 22.4701H12.8164C10.7477 22.4747 8.72404 21.8665 7.001 20.7226C5.27796 19.5786 3.93281 17.95 3.13544 16.0426C2.33807 14.1352 2.12424 12.0344 2.52094 10.0056C2.91765 7.97689 3.90711 6.11106 5.36437 4.64386C6.32878 3.66247 7.4784 2.88194 8.74665 2.34744C10.015 1.81293 11.3767 1.53506 12.7532 1.5299H12.8164C14.7162 1.52945 16.5803 2.04511 18.2095 3.02172C19.8385 3.99834 21.1713 5.39915 22.065 7.07429C22.9588 8.74944 23.38 10.6359 23.2834 12.5318C23.187 14.4276 22.5765 16.2616 21.5173 17.8375C21.2643 18.2076 21.1677 18.6625 21.2485 19.1034C21.399 19.9211 21.6643 20.7134 22.0367 21.4569C22.0521 21.4859 22.0601 21.5183 22.06 21.551C22.0598 21.5838 22.0515 21.6161 22.0359 21.6449C22.0202 21.6737 21.9977 21.6983 21.9702 21.7163C21.9428 21.7343 21.9113 21.7452 21.8786 21.748Z" fill="#34405F"/>
<path d="M33.9531 17.7698H42.1346V20.9853H30.5771V3.01466H33.9644L33.9531 17.7698Z" fill="#33405E"/>
<path d="M52.6487 8.60175H55.4963V20.9853H52.5426L52.3326 19.0876C51.619 20.4596 50.1692 21.2764 48.2452 21.2764C45.3705 21.2764 42.4958 19.0628 42.4958 14.7935C42.4958 10.5242 45.3705 8.349 48.2452 8.349C50.1963 8.349 51.6461 9.16586 52.3574 10.5626L52.6487 8.60175ZM52.2783 14.7935C52.2783 12.5371 50.6434 11.2621 49.1168 11.2621C47.2448 11.2621 45.795 12.6318 45.795 14.7935C45.795 17.0072 47.2719 18.3497 49.1168 18.3497C50.6976 18.3497 52.2783 17.1922 52.2783 14.7935Z" fill="#33405E"/>
<path d="M56.7881 20.9853V13.9496C56.7881 10.6822 58.8723 8.33775 62.5894 8.33775C66.3065 8.33775 68.3661 10.6822 68.3661 13.9496V20.9853H65.0419V14.2158C65.0419 12.3972 64.2244 11.2644 62.5894 11.2644C60.9544 11.2644 60.1369 12.3927 60.1369 14.2158V20.9853H56.7881Z" fill="#33405E"/>
<path d="M79.0605 3.01466H82.3824V20.9853H79.3495L79.1395 19.0876C78.4282 20.4595 77.0032 21.2764 75.0751 21.2764C72.2522 21.2764 69.4045 19.0628 69.4045 14.7935C69.4045 10.5242 72.2568 8.349 75.0797 8.349C76.9242 8.349 78.322 9.11394 79.0605 10.3798V3.01466ZM79.0853 14.7935C79.0853 12.3949 77.5045 11.2621 75.9492 11.2621C74.129 11.2621 72.7063 12.5799 72.7063 14.7935C72.7063 17.0071 74.129 18.3497 75.9492 18.3497C77.5045 18.3497 79.0853 17.1922 79.0853 14.7935Z" fill="#33405E"/>
<path d="M96.6747 14.7935C96.6747 19.0628 93.827 21.2764 91.0047 21.2764C89.0806 21.2764 87.6556 20.4595 86.9397 19.0876L86.7343 20.9853H83.7014V3.01466H87.0233V10.3663C87.7618 9.10269 89.1597 8.33544 91.0047 8.33544C93.827 8.349 96.6747 10.5242 96.6747 14.7935ZM93.3776 14.7935C93.3776 12.5799 91.9803 11.2621 90.1353 11.2621C88.5793 11.2621 86.9962 12.3903 86.9962 14.7935C86.9962 17.1967 88.577 18.3497 90.1353 18.3497C91.9803 18.3497 93.3776 17.0071 93.3776 14.7935Z" fill="#33405E"/>
<path d="M97.4604 14.7935C97.4604 11.1313 100.227 8.349 104.075 8.349C107.923 8.349 110.694 11.1313 110.694 14.7935C110.694 18.4558 107.925 21.2764 104.075 21.2764C100.224 21.2764 97.4604 18.4558 97.4604 14.7935ZM107.397 14.7935C107.397 12.7108 105.999 11.2373 104.073 11.2373C102.146 11.2373 100.751 12.7108 100.751 14.7935C100.751 16.8763 102.149 18.3497 104.073 18.3497C105.997 18.3497 107.397 16.9011 107.397 14.7935Z" fill="#33405E"/>
<path d="M120.002 11.2621H116.389V15.8744C116.389 17.481 116.967 18.2189 118.629 18.2189C118.787 18.2189 119.182 18.2189 119.683 18.1918V20.8996C119.049 21.0842 118.393 21.1814 117.732 21.1884C114.936 21.1884 113.04 19.5028 113.04 16.3144V11.2621H110.798V8.60176H113.042V4.41144H116.391V8.60176H120.004L120.002 11.2621Z" fill="#33405E"/>
</g>
<defs>
<clipPath id="clip0_1320_12431">
<rect width="119.192" height="24" fill="white" transform="translate(0.80957)"/>
</clipPath>
</defs>
</svg>
