<svg width="130" height="24" viewBox="0 0 130 24" fill="none" xmlns="http://www.w3.org/2000/svg">
<g clip-path="url(#clip0_1320_11959)">
<path fill-rule="evenodd" clip-rule="evenodd" d="M9.99642 17.1364L4.26168 11.3754C3.28721 10.3964 1.70732 10.3964 0.73255 11.3754C-0.241905 12.3543 -0.241905 13.9414 0.73255 14.9206L8.23186 22.4544C9.20631 23.4333 10.7866 23.4333 11.761 22.4544L18.8196 15.3631L15.2908 11.8178L9.99642 17.1364Z" fill="#16B8A2"/>
<path fill-rule="evenodd" clip-rule="evenodd" d="M31.6123 6.05804L20.5848 17.1361L9.55611 6.05679C8.58134 5.07755 7.00143 5.07755 6.02698 6.05679C5.05253 7.03572 5.05253 8.62287 6.02698 9.60211L18.8202 22.4541C19.7947 23.4331 21.3747 23.4331 22.3494 22.4541L35.1415 9.60336C36.1159 8.62412 36.1159 7.03697 35.1415 6.05804C34.1667 5.07911 32.5867 5.07911 31.6123 6.05804Z" fill="#FFB41F"/>
<path fill-rule="evenodd" clip-rule="evenodd" d="M40.4352 14.9216L32.9371 22.4541C31.9627 23.4331 30.3828 23.4331 29.4083 22.4541L11.3207 4.28352C10.3462 3.30459 10.3462 1.71744 11.3207 0.738505C12.2954 -0.240736 13.8754 -0.240736 14.8498 0.738505L31.1726 17.1361L36.9061 11.3763C37.8808 10.3974 39.4607 10.3974 40.4352 11.3763C41.4096 12.3556 41.4096 13.9427 40.4352 14.9216Z" fill="#F56358"/>
<path fill-rule="evenodd" clip-rule="evenodd" d="M29.8473 0.739796C28.8728 -0.239132 27.293 -0.239132 26.3181 0.739796L15.2908 11.8178L18.8196 15.3631L29.8473 4.28511C30.8218 3.30587 30.8218 1.71872 29.8473 0.739796Z" fill="#16B8A2"/>
<path fill-rule="evenodd" clip-rule="evenodd" d="M54.0848 2.47108H51.0161V20.5798H62.2598V17.845H54.0848V2.47108ZM68.9012 7.91601C70.7671 7.91601 72.019 8.67977 72.7065 9.61601L72.8537 8.16238H75.5051V20.5798H72.8537L72.7065 19.1262C72.019 20.0624 70.7671 20.8261 68.9012 20.8261C65.5379 20.8261 63.2549 18.0914 63.2549 14.3711C63.2549 10.6261 65.5379 7.91601 68.9012 7.91601ZM69.5395 10.5276C67.6246 10.5276 66.2499 12.0306 66.2499 14.3711C66.2499 16.7117 67.6246 18.2146 69.5395 18.2146C71.0125 18.2146 71.8963 17.4262 72.5591 16.3667V12.3754C71.8963 11.3161 71.0125 10.5276 69.5395 10.5276ZM82.9321 3.99861H79.9862V8.16238H77.6539V10.6755H79.9862V16.1944C79.9862 19.2001 81.7783 20.8261 84.6015 20.8261C85.8289 20.8261 86.7373 20.4813 87.3511 20.0871L86.5654 17.7712C86.1972 17.9929 85.6571 18.1653 84.8716 18.1653C83.7177 18.1653 82.9321 17.4262 82.9321 16.1696V10.6755H86.6636V8.16238H82.9321V3.99861ZM93.0842 3.99861H90.1382V8.16238H87.8059V10.6755H90.1382V16.1944C90.1382 19.2001 91.9303 20.8261 94.7535 20.8261C95.981 20.8261 96.8893 20.4813 97.5031 20.0871L96.7174 17.7712C96.3492 17.9929 95.8092 18.1653 95.0236 18.1653C93.8697 18.1653 93.0842 17.4262 93.0842 16.1696V10.6755H96.8157V8.16238H93.0842V3.99861ZM102.426 8.16238H99.48V20.5798H102.426V8.16238ZM100.953 2.37253C99.922 2.37253 99.1363 3.13629 99.1363 4.19571C99.1363 5.25514 99.922 6.0189 100.953 6.0189C102.009 6.0189 102.794 5.25514 102.794 4.19571C102.794 3.13629 102.009 2.37253 100.953 2.37253ZM111.326 7.91601C107.521 7.91601 104.992 10.6261 104.992 14.3711C104.992 18.0914 107.546 20.8261 111.35 20.8261C113.584 20.8261 115.278 19.8161 116.383 18.0914L114.272 16.4407C113.683 17.4262 112.726 18.2393 111.375 18.2393C109.19 18.2393 107.987 16.5392 107.987 14.3711C107.987 12.1783 109.141 10.503 111.35 10.503C112.726 10.503 113.633 11.2914 114.198 12.2769L116.334 10.6509C115.229 8.92616 113.584 7.91601 111.326 7.91601ZM123.589 7.91601C127.395 7.91601 129.261 10.774 129.261 14.248V15.2827H120.52C120.595 17.2537 121.773 18.3378 123.835 18.3378C125.283 18.3378 126.339 17.6972 126.903 16.9088L128.941 18.5841C127.713 20.0624 126.094 20.8261 123.811 20.8261C119.981 20.8261 117.526 18.116 117.526 14.3957C117.526 10.6509 120.03 7.91601 123.589 7.91601ZM123.54 10.2812C121.798 10.2812 120.619 11.4392 120.52 13.1639H126.364C126.29 11.4639 125.308 10.2812 123.54 10.2812Z" fill="#0E0E29"/>
</g>
<defs>
<clipPath id="clip0_1320_11959">
<rect width="129.391" height="24" fill="white" transform="translate(0.00170898)"/>
</clipPath>
</defs>
</svg>
