<svg width="104" height="24" viewBox="0 0 104 24" fill="none" xmlns="http://www.w3.org/2000/svg">
<path d="M29.2526 7.04866H31.867V17.754H29.2526V7.04866ZM32.9095 13.7272C32.9095 11.0755 34.5384 9.48618 36.9818 9.48618C39.4251 9.48618 41.0541 11.0755 41.0541 13.7272C41.0541 16.3788 39.4822 17.9846 36.9818 17.9846C34.4814 17.9846 32.9095 16.4364 32.9095 13.7272ZM38.4641 13.7272C38.4641 12.2696 37.9021 11.4132 37.0062 11.4132C36.1103 11.4132 35.5565 12.2366 35.5565 13.7272C35.5565 15.2177 36.1103 16.0329 37.0062 16.0329C37.9021 16.0329 38.4804 15.2177 38.4804 13.7354L38.4641 13.7272ZM42.0966 18.3057H44.6214C44.7363 18.5806 44.9371 18.8099 45.193 18.9585C45.4488 19.1072 45.7458 19.1672 46.0385 19.1292C47.0403 19.1292 47.5616 18.5857 47.5616 17.7787V16.2964H47.5697C47.354 16.758 47.0051 17.1427 46.569 17.3999C46.1328 17.6572 45.6299 17.7748 45.1263 17.7376C43.2124 17.7376 41.9418 16.2635 41.9418 13.7272C41.9418 11.1908 43.1554 9.60971 45.1997 9.60971C45.7161 9.5818 46.2285 9.71645 46.666 9.99523C47.1036 10.2739 47.445 10.683 47.6431 11.1661H47.5697V9.67559H50.1597V17.6964C50.1597 19.6315 48.4656 20.8421 45.9734 20.8421C43.7092 20.8339 42.2595 19.788 42.1129 18.314L42.0966 18.3057ZM47.5697 13.7272C47.5697 12.4343 46.9833 11.619 46.0548 11.619C45.1263 11.619 44.5562 12.4425 44.5562 13.7272C44.5562 15.0118 45.1182 15.7694 46.0548 15.7694C46.9915 15.7694 47.5697 15.0695 47.5697 13.7272ZM51.1941 13.7272C51.1941 11.0755 52.823 9.48618 55.2663 9.48618C57.7097 9.48618 59.3386 11.0755 59.3386 13.7272C59.3386 16.3788 57.7586 17.9846 55.2663 17.9846C52.7741 17.9846 51.2103 16.4364 51.2103 13.7272H51.1941ZM56.7487 13.7272C56.7487 12.2696 56.1785 11.4132 55.2908 11.4132C54.403 11.4132 53.8411 12.2366 53.8411 13.7272C53.8411 15.2177 54.3949 16.0329 55.2908 16.0329C56.1867 16.0329 56.765 15.2177 56.765 13.7354L56.7487 13.7272ZM60.3976 7.72395C60.3862 7.4547 60.4544 7.18811 60.594 6.9586C60.7342 6.72902 60.9382 6.547 61.1814 6.4359C61.4239 6.32481 61.6942 6.28969 61.957 6.33511C62.2197 6.38052 62.4629 6.50437 62.6555 6.69075C62.8481 6.87713 62.9814 7.1175 63.0376 7.38087C63.0938 7.6443 63.0711 7.91879 62.9719 8.16889C62.8728 8.41906 62.7016 8.63348 62.4806 8.78462C62.2601 8.93569 61.9999 9.0166 61.7334 9.01679C61.5629 9.02121 61.3936 8.99134 61.2344 8.92894C61.0759 8.86654 60.9307 8.77287 60.8081 8.65331C60.685 8.53382 60.5871 8.39089 60.5195 8.23274C60.4519 8.0746 60.4159 7.90445 60.414 7.73216L60.3976 7.72395ZM60.3976 9.66738H63.0446V17.787H60.438L60.3976 9.66738ZM72.5656 13.7272C72.5656 16.3706 71.3928 17.9022 69.397 17.9022C68.8867 17.9341 68.3782 17.8067 67.9412 17.5372C67.5041 17.2677 67.1599 16.8691 66.954 16.3953H66.9048V20.3974H64.2907V9.69207H66.889V11.1414H66.9376C67.1366 10.6583 67.4776 10.2487 67.9147 9.96877C68.3517 9.68879 68.8639 9.55192 69.3812 9.57681C71.4332 9.56032 72.6142 11.0838 72.6142 13.7354L72.5656 13.7272ZM69.9022 13.7272C69.9022 12.4425 69.3079 11.6108 68.3871 11.6108C67.4669 11.6108 66.889 12.4343 66.8808 13.7272C66.8726 15.02 67.4669 15.8353 68.3871 15.8353C69.3079 15.8353 69.9509 15.0695 69.9509 13.7354L69.9022 13.7272ZM77.029 9.47797C79.2193 9.47797 80.5797 10.5238 80.5961 12.2037H78.2094C78.2094 11.619 77.7294 11.2567 77.0126 11.2567C76.2957 11.2567 75.9534 11.5367 75.9534 11.9567C75.9534 12.3767 76.2547 12.5084 76.8578 12.6319L78.5353 12.9778C80.1641 13.3236 80.8159 13.9825 80.8159 15.2094C80.8159 16.8564 79.309 17.9764 77.0694 17.9764C74.8298 17.9764 73.3715 16.8894 73.266 15.2342H75.7987C75.8719 15.8353 76.3443 16.1894 77.1104 16.1894C77.8759 16.1894 78.234 15.9424 78.234 15.5059C78.234 15.0695 77.9896 14.9953 77.3624 14.8636L75.8479 14.5424C74.2759 14.2048 73.453 13.373 73.453 12.1296C73.5022 10.5156 74.8702 9.48618 77.0776 9.48618L77.029 9.47797ZM89.5715 17.7787H87.0382V16.2552H86.9896C86.8475 16.7634 86.5387 17.2075 86.1142 17.5144C85.6892 17.8213 85.1732 17.9726 84.6521 17.9434C84.2587 17.9563 83.8664 17.885 83.502 17.734C83.1376 17.5831 82.8085 17.3558 82.537 17.0673C82.266 16.7788 82.0576 16.4356 81.9269 16.06C81.7955 15.6845 81.7443 15.2851 81.7772 14.8883V9.67559H84.3913V14.3201C84.3913 15.2753 84.8883 15.7941 85.7024 15.7941C85.8938 15.7927 86.082 15.7498 86.2557 15.6683C86.4288 15.5869 86.5829 15.4688 86.7073 15.3221C86.8317 15.1753 86.9233 15.0033 86.9763 14.8177C87.0288 14.632 87.042 14.4371 87.0142 14.2459V9.67559H89.6201L89.5715 17.7787ZM90.834 9.66738H93.3749V11.232H93.4317C93.5725 10.7308 93.8732 10.2907 94.2875 9.98083C94.7012 9.67091 95.2052 9.50853 95.7205 9.51914C96.2378 9.47367 96.7532 9.62487 97.1656 9.94319C97.5787 10.2614 97.8591 10.7239 97.9519 11.2403H98.0662C98.2292 10.7212 98.557 10.2711 98.9984 9.95986C99.4405 9.64862 99.9717 9.49369 100.51 9.51914C100.867 9.50538 101.223 9.56809 101.555 9.70325C101.887 9.83834 102.187 10.0429 102.435 10.3033C102.684 10.5637 102.875 10.8741 102.996 11.2144C103.118 11.5547 103.167 11.9171 103.14 12.2778V17.787H100.51V12.9531C100.51 12.1296 100.126 11.6685 99.3856 11.6685C99.2214 11.6657 99.0584 11.699 98.9075 11.7659C98.7572 11.8328 98.6227 11.9319 98.514 12.0563C98.4048 12.1806 98.3233 12.3273 98.2759 12.4864C98.2279 12.6455 98.2146 12.8131 98.2374 12.9778V17.787H95.7452V12.9284C95.7452 12.1049 95.346 11.6685 94.6292 11.6685C94.4631 11.6671 94.2989 11.7017 94.1466 11.7699C93.9951 11.8382 93.8593 11.9384 93.7494 12.064C93.6389 12.1896 93.5561 12.3376 93.5075 12.498C93.4582 12.6584 93.4437 12.8277 93.4645 12.9943V17.787H90.8498L90.834 9.66738Z" fill="#4A5568"/>
<path d="M24.1999 8.02737C24.2 6.41034 23.7134 4.83101 22.8037 3.49617C21.894 2.16139 20.6039 1.13337 19.102 0.546762C17.6002 -0.0397857 15.9568 -0.157638 14.3872 0.208804C12.8175 0.575183 11.3947 1.40874 10.3052 2.60021H0.199951V24H21.536V13.9988C22.3734 13.2472 23.0435 12.327 23.5025 11.2981C23.9615 10.2692 24.1992 9.15467 24.1999 8.02737ZM20.0947 8.02737C20.0963 8.80219 19.8688 9.56009 19.4409 10.2052C19.013 10.8502 18.404 11.3534 17.691 11.6511C16.978 11.9487 16.193 12.0273 15.4354 11.8772C14.6778 11.727 13.9816 11.3547 13.435 10.8074C12.8884 10.26 12.5159 9.56229 12.3646 8.80244C12.2133 8.04259 12.2902 7.25482 12.5853 6.5388C12.8805 5.82272 13.3807 5.21066 14.0227 4.78005C14.6647 4.34937 15.4196 4.11948 16.1918 4.11948C17.2255 4.11948 18.217 4.53095 18.9487 5.26358C19.6804 5.99621 20.0925 6.99019 20.0947 8.02737ZM17.4307 19.8809H4.30521V6.71931H8.30519C8.22795 7.15112 8.18734 7.58868 8.18374 8.02737C8.18589 10.1577 9.03031 12.2002 10.5316 13.7067C12.033 15.213 14.0686 16.0603 16.1918 16.0624C16.6069 16.0602 17.0212 16.0249 17.4307 15.9568V19.8809Z" fill="#007DFC"/>
</svg>
