<svg width="81" height="24" viewBox="0 0 81 24" fill="none" xmlns="http://www.w3.org/2000/svg">
<g clip-path="url(#clip0_1320_11793)">
<path d="M24.1555 10.744H16.8419L23.1755 7.088L21.9195 4.912L15.5851 8.568L19.2411 2.236L17.0651 0.98L13.4083 7.3104V0H10.8947V7.3112L7.23786 0.98L5.06106 2.236L8.71706 8.5664L2.38426 4.912L1.12746 7.088L7.46106 10.744H0.147461V13.2568H7.46026L1.12746 16.9128L2.38346 19.0888L8.71786 15.4328L5.06106 21.7648L7.23706 23.0208L10.8947 16.6896V24H13.4083V16.5328L17.1323 22.9808L19.1731 21.8032L15.4483 15.3536L21.9179 19.088L23.1747 16.912L16.8419 13.256H24.1547V10.744H24.1555ZM12.1515 15.416C11.7027 15.4161 11.2584 15.3278 10.8439 15.1561C10.4293 14.9844 10.0526 14.7328 9.7353 14.4155C9.41802 14.0983 9.16626 13.7217 8.9945 13.3071C8.82274 12.8926 8.73434 12.4483 8.73426 11.9996C8.73418 11.5509 8.8225 11.1066 8.99418 10.692C9.16586 10.2774 9.41746 9.90072 9.73474 9.58344C10.0519 9.26616 10.4286 9.0144 10.8431 8.84264C11.2577 8.67088 11.7019 8.58248 12.1507 8.5824C13.0568 8.58232 13.9259 8.94216 14.5668 9.58288C15.2077 10.2236 15.5678 11.0926 15.5679 11.9988C15.5679 12.905 15.2081 13.7741 14.5674 14.415C13.9267 15.0558 13.0576 15.4159 12.1515 15.416Z" fill="#5753F3"/>
<path d="M30.6345 20.7785V3.22168H33.8569V20.7785H30.6345ZM61.5409 8.84728H64.6177V10.3033C65.2721 9.13928 66.7993 8.50808 68.1073 8.50808C69.7313 8.50808 71.0393 9.21208 71.6449 10.4961C72.5889 9.04008 73.8497 8.50808 75.4249 8.50808C77.6297 8.50808 79.7369 9.84168 79.7369 13.0425V20.7785H76.6121V13.6977C76.6121 12.4121 75.9817 11.4417 74.5033 11.4417C73.1217 11.4417 72.2977 12.5097 72.2977 13.7953V20.7793H69.1009V13.6977C69.1009 12.4121 68.4465 11.4417 66.9921 11.4417C65.5865 11.4417 64.7625 12.4857 64.7625 13.7953V20.7793H61.5409V8.84728ZM41.1393 21.1241C37.5089 21.1241 34.8801 18.4305 34.8801 14.8129C34.8801 11.2529 37.5009 8.49608 41.1393 8.49608C44.7953 8.49608 47.3985 11.2785 47.3985 14.8129C47.3985 18.4049 44.7681 21.1241 41.1393 21.1241ZM41.1393 11.4161C40.2388 11.4174 39.3756 11.7758 38.7391 12.4128C38.1026 13.0498 37.7448 13.9132 37.7441 14.8137C37.7448 15.7142 38.1026 16.5776 38.7391 17.2146C39.3756 17.8516 40.2388 18.21 41.1393 18.2113C42.0396 18.2098 42.9027 17.8513 43.539 17.2143C44.1753 16.5774 44.5331 15.714 44.5337 14.8137C44.5331 13.9134 44.1753 13.05 43.539 12.413C42.9027 11.7761 42.0396 11.4176 41.1393 11.4161ZM54.2809 21.1241C50.6505 21.1241 48.0217 18.4305 48.0217 14.8129C48.0217 11.2529 50.6425 8.49608 54.2809 8.49608C57.9369 8.49608 60.5401 11.2785 60.5401 14.8129C60.5401 18.4049 57.9081 21.1241 54.2809 21.1241ZM54.2809 11.3753C53.3701 11.3768 52.497 11.7394 51.8532 12.3837C51.2094 13.0279 50.8473 13.9013 50.8465 14.8121C50.8473 15.7229 51.2094 16.5962 51.8532 17.2405C52.497 17.8847 53.3701 18.2474 54.2809 18.2489C55.1917 18.2474 56.0648 17.8847 56.7086 17.2405C57.3524 16.5962 57.7144 15.7229 57.7153 14.8121C57.7144 13.9013 57.3524 13.0279 56.7086 12.3837C56.0648 11.7394 55.1917 11.3768 54.2809 11.3753Z" fill="#1E1E1E"/>
</g>
<defs>
<clipPath id="clip0_1320_11793">
<rect width="80" height="24" fill="white" transform="translate(0.147461)"/>
</clipPath>
</defs>
</svg>
