<svg width="108" height="24" viewBox="0 0 108 24" fill="none" xmlns="http://www.w3.org/2000/svg">
<g clip-path="url(#clip0_1320_12013)">
<path d="M17.0152 19.9864C12.6084 24.3932 0.965598 23.976 0.965598 23.976C0.965598 23.976 0.567596 12.3572 4.97919 7.95045C9.39077 3.54366 13.6106 4.6993 16.9672 8.02238C20.3238 11.3455 21.4219 15.5748 17.0152 19.9864Z" fill="#4F88F7"/>
<path d="M17.4515 14.7884C14.7854 17.4545 7.75563 17.21 7.75563 17.21C7.75563 17.21 7.51108 10.1802 10.1772 7.51407C12.8433 4.84794 15.3992 5.54804 17.4084 7.55723C19.4176 9.56642 20.1177 12.1223 17.4515 14.7884Z" fill="#F58127"/>
<path d="M21.2269 9.38353C24.7924 5.81801 26.3834 1.62812 24.7804 0.0251328C23.1774 -1.57785 18.9875 0.0130957 15.422 3.57861C11.8565 7.14412 10.2655 11.334 11.8685 12.937C13.4715 14.54 17.6614 12.949 21.2269 9.38353Z" fill="#B7CDE5"/>
<path d="M21.8493 13.0817C22.1789 10.11 21.3622 7.58067 20.0251 7.43234C18.6879 7.28401 17.3367 9.57282 17.0071 12.5445C16.6774 15.5163 17.4941 18.0456 18.8313 18.1939C20.1684 18.3422 21.5196 16.0534 21.8493 13.0817Z" fill="#B7CDE5"/>
<path d="M12.2934 7.8295C15.2651 7.49984 17.554 6.14863 17.4056 4.81149C17.2573 3.47435 14.728 2.65762 11.7563 2.98727C8.78455 3.31693 6.49573 4.66814 6.64406 6.00528C6.7924 7.34242 9.3217 8.15915 12.2934 7.8295Z" fill="#B7CDE5"/>
<path d="M20.8705 5.82136C21.8265 5.82136 22.6015 5.04633 22.6015 4.09029C22.6015 3.13425 21.8265 2.35922 20.8705 2.35922C19.9144 2.35922 19.1394 3.13425 19.1394 4.09029C19.1394 5.04633 19.9144 5.82136 20.8705 5.82136Z" fill="#F0F5FC"/>
<path d="M62.7087 8.73687C61.0879 9.87333 60.546 11.5085 60.7906 13.4122C60.845 14.2622 61.1462 15.0778 61.6573 15.7592C62.1683 16.4406 62.867 16.9581 63.6677 17.2484C64.5 17.598 65.414 17.7057 66.3047 17.5589C67.1954 17.4122 68.0266 17.017 68.7027 16.4188C69.127 16.0665 69.4677 15.6242 69.7001 15.1241L68.2232 14.5439C67.8117 15.1577 67.2073 15.6169 66.5056 15.8488C65.8039 16.0806 65.0449 16.072 64.3486 15.8242C63.8488 15.6643 63.4084 15.358 63.0844 14.9452C62.7604 14.5323 62.5677 14.0317 62.5313 13.5081H70.0166C70.1663 12.3863 69.9759 11.2454 69.4699 10.233C68.0985 7.61479 64.6939 7.34146 62.7087 8.73687ZM62.5456 11.9976C62.6511 10.5207 63.8547 9.52328 65.4947 9.53287C66.1872 9.50309 66.8645 9.7418 67.3854 10.1992C67.9062 10.6566 68.2304 11.2974 68.2903 11.988L62.5456 11.9976Z" fill="#424242"/>
<path d="M38.3682 7.97922C37.7295 7.96582 37.0948 8.08278 36.5029 8.32296C35.9109 8.56313 35.3741 8.92148 34.9253 9.37611C34.4765 9.83074 34.1251 10.3721 33.8926 10.9671C33.6601 11.5621 33.5514 12.1983 33.573 12.8368C33.5752 13.4715 33.7024 14.0996 33.9474 14.6852C34.1923 15.2708 34.5502 15.8024 35.0006 16.2497C35.451 16.697 35.9851 17.0512 36.5724 17.292C37.1596 17.5329 37.7886 17.6558 38.4234 17.6535C39.0581 17.6513 39.6862 17.5241 40.2718 17.2792C40.8574 17.0342 41.389 16.6764 41.8363 16.226C42.2836 15.7756 42.6378 15.2415 42.8786 14.6542C43.1195 14.0669 43.2424 13.438 43.2401 12.8032C43.2562 12.1612 43.1408 11.5228 42.9011 10.9271C42.6613 10.3313 42.3022 9.79095 41.8459 9.33912C41.3896 8.8873 40.8457 8.53358 40.2476 8.29972C39.6496 8.06586 39.01 7.95679 38.3682 7.97922ZM38.3682 16.0543C37.9502 16.0509 37.5372 15.9633 37.1537 15.7969C36.7702 15.6305 36.4241 15.3887 36.136 15.0858C35.8479 14.7829 35.6236 14.4252 35.4766 14.0339C35.3295 13.6426 35.2627 13.2257 35.2801 12.808C35.282 12.3987 35.3645 11.9937 35.5229 11.6163C35.6813 11.2389 35.9124 10.8963 36.2032 10.6082C36.7904 10.0264 37.5847 9.70168 38.4114 9.7055C38.8207 9.70739 39.2256 9.78988 39.6031 9.94826C39.9805 10.1066 40.323 10.3378 40.6111 10.6286C40.8992 10.9193 41.1272 11.264 41.2821 11.6429C41.437 12.0218 41.5158 12.4275 41.5139 12.8368C41.5254 13.2564 41.4525 13.6741 41.2995 14.0649C41.1464 14.4558 40.9163 14.8119 40.6228 15.1121C40.3294 15.4123 39.9785 15.6504 39.5912 15.8122C39.2039 15.9741 38.788 16.0564 38.3682 16.0543Z" fill="#424242"/>
<path d="M46.9517 4.68491H45.2302V8.15184V9.62876V17.3586H46.9517V9.62876H49.0376V8.15184H46.9517V4.68491Z" fill="#424242"/>
<path d="M106.268 8.15183C106.196 8.15183 106.091 8.27651 106.057 8.36282C105.861 8.8807 105.679 9.40338 105.492 9.92606L103.789 14.6781C103.727 14.5247 103.684 14.424 103.645 14.3233C102.936 12.3636 102.229 10.4008 101.526 8.43475C101.449 8.22376 101.358 8.11826 101.114 8.13745C100.753 8.15662 100.391 8.15662 100.03 8.13745C99.7949 8.13745 99.6942 8.21417 99.6175 8.43475C98.9893 10.2234 98.3419 12.012 97.6994 13.8006C97.6035 14.0787 97.498 14.3568 97.3781 14.6781C97.3158 14.5103 97.2678 14.3952 97.2247 14.2801C96.5246 12.3285 95.8293 10.372 95.1196 8.42036C95.0812 8.31487 94.9757 8.16142 94.8942 8.15663C94.3427 8.13265 93.7865 8.15663 93.1919 8.15663C93.1919 8.24774 93.2207 8.2861 93.235 8.32446C94.3635 11.2815 95.4824 14.2385 96.5917 17.1956C96.6066 17.2589 96.6453 17.3141 96.6997 17.3498C96.7541 17.3855 96.8202 17.399 96.8842 17.3874C97.1829 17.3706 97.4822 17.3706 97.7809 17.3874C97.8269 17.3971 97.8745 17.3974 97.9206 17.3884C97.9668 17.3793 98.0107 17.361 98.0496 17.3346C98.0886 17.3082 98.1218 17.2742 98.1473 17.2347C98.1728 17.1951 98.1901 17.1508 98.1981 17.1045C98.9222 15.0377 99.6654 12.9806 100.404 10.9187C100.437 10.818 100.481 10.7173 100.538 10.559C100.6 10.7077 100.639 10.794 100.672 10.8851L102.715 16.3037C102.845 16.6489 102.883 17.1333 103.132 17.3011C103.382 17.4689 103.866 17.3442 104.245 17.373C104.291 17.3827 104.338 17.3831 104.385 17.374C104.431 17.3649 104.475 17.3466 104.514 17.3202C104.552 17.2938 104.586 17.2598 104.611 17.2203C104.637 17.1807 104.654 17.1365 104.662 17.0901C105.73 14.213 106.804 11.3247 107.884 8.42516C107.917 8.33241 107.944 8.23796 107.966 8.14224C107.376 8.15183 106.82 8.15183 106.268 8.15183Z" fill="#424242"/>
<path d="M87.2793 7.91689C86.6404 7.90415 86.0056 8.02172 85.4136 8.26243C84.8217 8.50315 84.2849 8.86195 83.8362 9.31696C83.3875 9.77196 83.0362 10.3136 82.8037 10.9089C82.5713 11.5042 82.4625 12.1405 82.4841 12.7792C82.4886 14.0612 83.0021 15.2888 83.9117 16.1922C84.8213 17.0955 86.0526 17.6005 87.3345 17.596C88.6164 17.5916 89.8441 17.078 90.7474 16.1684C91.6507 15.2588 92.1557 14.0276 92.1513 12.7457C92.1673 12.1035 92.052 11.4648 91.8122 10.8688C91.5725 10.2729 91.2135 9.7322 90.7573 9.28C90.301 8.8278 89.7572 8.47362 89.1591 8.23922C88.561 8.00481 87.9213 7.89513 87.2793 7.91689ZM87.2793 15.9968C86.8613 15.9933 86.4483 15.9058 86.0648 15.7394C85.6813 15.573 85.3352 15.3312 85.0471 15.0283C84.759 14.7254 84.5347 14.3677 84.3877 13.9763C84.2407 13.585 84.1739 13.1681 84.1912 12.7505C84.1928 12.3411 84.275 11.9361 84.4331 11.5586C84.5912 11.181 84.8221 10.8383 85.1126 10.55C85.4032 10.2617 85.7477 10.0334 86.1264 9.87823C86.5052 9.72305 86.9108 9.64399 87.3201 9.64556C87.7294 9.64714 88.1344 9.72932 88.512 9.88741C88.8895 10.0455 89.2322 10.2764 89.5206 10.567C89.8089 10.8575 90.0371 11.202 90.1923 11.5807C90.3475 11.9595 90.4266 12.3651 90.425 12.7744C90.4359 13.1941 90.3625 13.6117 90.2093 14.0026C90.056 14.3934 89.826 14.7496 89.5327 15.05C89.2395 15.3504 88.8889 15.5889 88.5019 15.7516C88.1149 15.9142 87.6992 15.9976 87.2793 15.9968Z" fill="#424242"/>
<path d="M56.6667 8.15186V17.3587H58.3499V8.15186H56.9497H56.6667Z" fill="#424242"/>
<path d="M57.5058 3.60599C57.3559 3.60599 57.2075 3.63551 57.069 3.69287C56.9306 3.75022 56.8047 3.83428 56.6988 3.94026C56.5928 4.04624 56.5087 4.17205 56.4514 4.31051C56.394 4.44897 56.3645 4.59738 56.3645 4.74725C56.3645 4.89712 56.394 5.04553 56.4514 5.18399C56.5087 5.32246 56.5928 5.44827 56.6988 5.55424C56.8047 5.66022 56.9306 5.74428 57.069 5.80164C57.2075 5.85899 57.3559 5.88851 57.5058 5.88851C57.6624 5.89558 57.8189 5.87122 57.966 5.81685C58.1131 5.76248 58.2478 5.67922 58.3622 5.57196C58.4766 5.4647 58.5684 5.33563 58.6322 5.19234C58.6959 5.04905 58.7303 4.89445 58.7333 4.73766C58.7196 4.42516 58.5828 4.13077 58.3529 3.91875C58.1229 3.70673 57.8183 3.59429 57.5058 3.60599Z" fill="#424242"/>
<path d="M52.7346 4.68011H51.0083V8.15184V9.62877V17.3586H52.7346V9.62877H54.8157V8.15184H52.7346V4.68011Z" fill="#424242"/>
<path d="M31.5735 3.78342H29.8088V17.3538H31.5735V3.78342Z" fill="#424242"/>
<path d="M78.4131 3.13605V17.3538H80.0866V3.16482C80.053 3.16482 80.0483 3.13126 80.0387 3.13126L78.4131 3.13605Z" fill="#424242"/>
<path d="M72.8506 5.03977C72.5714 5.79378 72.4443 6.59561 72.4766 7.39901V8.15185V9.62878V17.3634H74.1933C74.1933 15.8194 74.1933 12.3189 74.1933 9.62878H76.2696V8.15185H74.2077C74.2077 7.09211 74.2412 6.32968 74.2652 6.14746C74.2938 5.80695 74.4427 5.48775 74.6852 5.24701C74.9277 5.00627 75.248 4.85971 75.5887 4.83357C75.9819 4.79042 76.3751 4.77123 76.7731 4.76164V3.14566C76.2936 3.14566 75.8141 3.14566 75.3345 3.18882C74.7826 3.21242 74.2505 3.40158 73.8075 3.73169C73.3645 4.06181 73.0311 4.51759 72.8506 5.03977Z" fill="#424242"/>
</g>
<defs>
<clipPath id="clip0_1320_12013">
<rect width="107" height="24" fill="white" transform="translate(0.965576)"/>
</clipPath>
</defs>
</svg>
