<svg width="118" height="24" viewBox="0 0 118 24" fill="none" xmlns="http://www.w3.org/2000/svg">
<g clip-path="url(#clip0_1320_12009)">
<path fill-rule="evenodd" clip-rule="evenodd" d="M1.92128 0C1.45083 0 0.999656 0.186884 0.667 0.519539C0.334345 0.852195 0.147461 1.30337 0.147461 1.77382L0.147461 22.2262C0.147461 22.6966 0.334345 23.1478 0.667 23.4805C0.999656 23.8131 1.45083 24 1.92128 24H22.0415C22.5119 24 22.9631 23.8131 23.2957 23.4805C23.6284 23.1478 23.8153 22.6966 23.8153 22.2262V1.77382C23.8153 1.30337 23.6284 0.852195 23.2957 0.519539C22.9631 0.186884 22.5119 0 22.0415 0L1.92128 0ZM19.1838 6.09C19.2798 5.43109 18.8315 4.81909 18.1818 4.72145C15.73 4.35382 13.4069 6.56291 10.9289 11.3476C8.98328 15.1047 7.23346 16.9931 6.04164 16.9036C5.3871 16.8545 4.8171 17.3531 4.76855 18.0164C4.72055 18.6802 5.21201 19.2584 5.86655 19.3075C8.2791 19.488 10.5711 17.2227 13.0338 12.468C14.962 8.74418 16.6845 6.93327 17.8344 7.10618C18.4835 7.20273 19.0878 6.74836 19.1838 6.08945V6.09Z" fill="url(#paint0_linear_1320_12009)"/>
<path fill-rule="evenodd" clip-rule="evenodd" d="M29.4334 18.9273V5.07272H32.1852V16.4874H38.2272V18.9262H29.4329L29.4334 18.9273ZM44.3461 19.1024C41.3445 19.1024 39.3432 17.0149 39.3432 14.166C39.3432 11.3171 41.3445 9.24872 44.3461 9.24872C47.2709 9.24872 49.3299 11.2396 49.3299 14.166C49.3299 17.0733 47.2709 19.1024 44.3461 19.1024ZM44.3461 16.8005C45.6934 16.8005 46.7707 15.7271 46.7707 14.166C46.7707 12.6049 45.7316 11.5314 44.3461 11.5314C42.8838 11.5314 41.9025 12.6638 41.9025 14.166C41.9025 15.6491 42.9029 16.8005 44.3461 16.8005ZM53.7361 19.1024C52.1199 19.1024 51.0618 18.0682 51.0618 15.9224V11.5124H49.9452V9.38508H51.0618V6.28363L53.5818 6.0109V9.38618H56.122V11.5129H53.5823V15.552C53.5823 16.3909 53.7939 16.7814 54.3901 16.7814C54.6983 16.7814 55.1603 16.6642 55.5836 16.4493L56.2185 18.498C55.6218 18.8302 55.0059 19.1034 53.7367 19.1034L53.7361 19.1024ZM60.8363 19.1024C59.2201 19.1024 58.1619 18.0682 58.1619 15.9224V11.5124H57.0459V9.38508H58.1619V6.28363L60.6825 6.0109V9.38618H63.2221V11.5129H60.6825V15.552C60.6825 16.3909 60.8941 16.7814 61.4909 16.7814C61.7985 16.7814 62.2605 16.6642 62.6838 16.4493L63.3187 18.498C62.7219 18.8302 62.1061 19.1034 60.8363 19.1034V19.1024ZM66.4359 8.09781C65.5119 8.09781 64.8389 7.39527 64.8389 6.51708C64.8389 5.65854 65.5119 4.95599 66.4359 4.95599C67.3403 4.95599 68.033 5.65854 68.033 6.51708C68.033 7.39527 67.3403 8.09781 66.4359 8.09781ZM65.1465 18.9267V9.38563H67.667V18.9267H65.1465ZM78.4621 14.0684C78.4621 14.3804 78.4234 14.8293 78.4043 14.9853H71.8043C72.1119 16.1367 73.0163 16.8196 74.2867 16.8196C75.3448 16.8196 76.0758 16.3707 76.5765 15.7467L78.2118 17.2882C77.423 18.3218 76.2105 19.1024 74.1132 19.1024C71.2272 19.1024 69.1872 17.1316 69.1872 14.1464C69.1872 11.2391 71.1694 9.24872 73.9594 9.24872C76.6147 9.24872 78.4621 11.2778 78.4621 14.0684ZM73.9403 11.4731C72.9203 11.4731 72.1119 12.0589 71.8234 13.1514H75.9607C75.7103 12.1369 75.0367 11.4731 73.9403 11.4731Z" fill="#18C8CA"/>
<path fill-rule="evenodd" clip-rule="evenodd" d="M96.0112 18.9273V4.56546H98.5317V18.9273H96.0112ZM92.7204 8.09782C91.797 8.09782 91.1234 7.39528 91.1234 6.5171C91.1234 5.65855 91.797 4.95655 92.7204 4.95655C93.6248 4.95655 94.3175 5.65855 94.3175 6.5171C94.3175 7.39528 93.6248 8.09782 92.7204 8.09782ZM80.271 18.9273V5.07273H89.3337V7.51201H82.9459V11.2195H88.2755V13.6778H82.9459V18.9273H80.271ZM91.4315 9.38564V18.9267H93.9521V9.38564H91.4315ZM109.268 14.9858C109.303 14.6811 109.322 14.3749 109.326 14.0684C109.326 11.2784 107.479 9.24873 104.824 9.24873C102.034 9.24873 100.052 11.2396 100.052 14.1469C100.052 17.1322 102.091 19.1029 104.978 19.1029C107.075 19.1029 108.287 18.3224 109.076 17.2882L107.441 15.7467C106.94 16.3707 106.209 16.8196 105.151 16.8196C103.881 16.8196 102.977 16.1367 102.668 14.9858H109.268ZM104.804 11.4731C103.784 11.4731 102.977 12.0589 102.688 13.1515H106.825C106.574 12.1369 105.901 11.4736 104.804 11.4736V11.4731ZM110.519 17.6978C111.539 18.5951 112.828 19.1029 114.329 19.1029C116.792 19.1029 117.966 17.8151 117.966 16.1367C117.966 14.244 116.773 13.7951 114.733 13.0342C113.81 12.6829 113.348 12.4096 113.348 12.0196C113.348 11.5124 113.848 11.3171 114.233 11.3171C114.926 11.3171 115.772 11.6296 116.484 12.3316L117.716 10.4389C116.638 9.60001 115.58 9.24873 114.291 9.24873C112.348 9.24873 110.885 10.3615 110.885 12.078C110.885 13.932 112.232 14.6733 113.79 15.2002C115.003 15.6098 115.484 15.8247 115.484 16.2344C115.484 16.7024 115.08 17.0144 114.348 17.0144C113.309 17.0144 112.501 16.644 111.732 15.9224L110.519 17.6978Z" fill="#006B78"/>
</g>
<defs>
<linearGradient id="paint0_linear_1320_12009" x1="-7.20799" y1="13.9489" x2="15.6122" y2="28.5758" gradientUnits="userSpaceOnUse">
<stop stop-color="#2BEAED"/>
<stop offset="1" stop-color="#0FCCCE"/>
</linearGradient>
<clipPath id="clip0_1320_12009">
<rect width="117.818" height="24" fill="white" transform="translate(0.147461)"/>
</clipPath>
</defs>
</svg>
