<svg width="96" height="24" viewBox="0 0 96 24" fill="none" xmlns="http://www.w3.org/2000/svg">
<g clip-path="url(#clip0_1320_11138)">
<path d="M13.2386 12.7675C11.6805 12.7675 10.4425 13.3814 9.56743 14.5879C9.05517 13.6566 8.03066 12.7675 6.47254 12.7675C4.87173 12.7675 3.93259 13.4661 3.27092 14.2069V13.9953C3.27092 13.3814 2.75866 12.8734 2.13968 12.8734C1.5207 12.8734 1.02979 13.3814 1.02979 13.9953V22.5257C1.02979 23.1395 1.5207 23.6264 2.13968 23.6264C2.75866 23.6264 3.27092 23.1395 3.27092 22.5257V16.62C3.78318 15.7945 4.55156 14.8631 5.93893 14.8631C7.26227 14.8631 7.77453 15.4981 7.77453 17.1492V22.5257C7.77453 23.1395 8.26544 23.6264 8.88442 23.6264C9.5034 23.6264 10.0157 23.1395 10.0157 22.5257V16.62C10.5279 15.7945 11.2963 14.8631 12.6837 14.8631C14.007 14.8631 14.5193 15.4981 14.5193 17.1492V22.5257C14.5193 23.1395 15.0102 23.6264 15.6292 23.6264C16.2481 23.6264 16.7604 23.1395 16.7604 22.5257V16.7893C16.8031 14.8419 15.6932 12.7675 13.2386 12.7675ZM23.9961 12.7675C22.7581 12.7675 21.6269 13.0004 20.4529 13.5084C20.0474 13.6777 19.7913 14.0164 19.7913 14.4609C19.7913 15.0113 20.2181 15.4346 20.7517 15.4346C20.8371 15.4346 20.9438 15.4135 21.0719 15.3923C21.8616 15.1383 22.6087 14.9266 23.6759 14.9266C25.4048 14.9266 26.1305 15.5616 26.1518 17.128H23.932C20.9012 17.128 19.1083 18.4192 19.1083 20.5571C19.1083 22.6527 20.8585 23.7534 22.5873 23.7534C23.9747 23.7534 25.17 23.33 26.1518 22.5257V22.5469C26.1518 23.1607 26.6427 23.6476 27.2617 23.6476C27.8807 23.6476 28.3929 23.1607 28.3929 22.5469V16.9163C28.3929 14.8419 27.0269 12.7675 23.9961 12.7675ZM23.2704 21.7002C22.0111 21.7002 21.3494 21.2345 21.3494 20.3243C21.3494 19.9856 21.3494 18.9696 24.1668 18.9696H26.1305V20.3455C25.5542 20.9805 24.4656 21.7002 23.2704 21.7002ZM32.7898 8.78809C33.4728 8.78809 34.0278 9.33844 34.0278 10.0158V10.1005C34.0278 10.7778 33.4728 11.3282 32.7898 11.3282H32.6618C31.9788 11.3282 31.4238 10.7778 31.4238 10.1005V10.0158C31.4238 9.33844 31.9788 8.78809 32.6618 8.78809H32.7898ZM32.7258 12.8522C33.3661 12.8522 33.857 13.3602 33.857 13.9741V22.5045C33.857 23.1184 33.3661 23.6052 32.7258 23.6052C32.1068 23.6052 31.6159 23.1184 31.6159 22.5045V13.9741C31.6159 13.3391 32.1068 12.8522 32.7258 12.8522ZM38.4247 8.47058C39.065 8.47058 39.5559 8.9786 39.5559 9.59245V22.5045C39.5559 23.1184 39.065 23.6052 38.4247 23.6052C37.8057 23.6052 37.3148 23.1184 37.3148 22.5045V9.59245C37.3148 8.95743 37.8057 8.47058 38.4247 8.47058ZM47.3252 12.7675C45.7244 12.7675 44.401 13.3602 43.5046 14.4821C42.7362 15.4558 42.3093 16.7893 42.3093 18.2499C42.3093 21.679 44.337 23.7322 47.7094 23.7322C49.5663 23.7322 50.4841 23.3089 51.3165 22.822C51.7221 22.5892 51.9355 22.2505 51.9355 21.9118C51.9355 21.3615 51.4873 20.917 50.911 20.917C50.7402 20.917 50.5908 20.9381 50.4628 21.0228C49.8651 21.3403 49.1181 21.6155 47.8588 21.6155C45.9805 21.6155 44.8706 20.7476 44.5931 19.0966H51.1458C51.8074 19.0966 52.277 18.6309 52.277 17.9959C52.3197 14.3974 49.7371 12.7675 47.3252 12.7675ZM47.3252 14.7149C48.2643 14.7149 49.8438 15.2441 50.0572 17.1915H44.5931C44.8066 15.477 46.0872 14.7149 47.3252 14.7149ZM60.1103 12.7675C60.7293 12.7675 61.1989 13.2332 61.1989 13.8471C61.1989 14.4609 60.7293 14.9054 60.0676 14.9054H59.9609C58.8083 14.9054 57.7838 15.477 57.0581 16.5142V22.5045C57.0581 23.1184 56.5458 23.6052 55.9269 23.6052C55.3079 23.6052 54.817 23.1184 54.817 22.5045V13.9741C54.817 13.3602 55.3079 12.8522 55.9269 12.8522C56.5458 12.8522 57.0581 13.3602 57.0581 13.9741V14.2493C57.9545 13.2756 58.9364 12.7675 60.0036 12.7675H60.1103Z" fill="#292C31"/>
<path d="M92.9658 3.52939H68.9658V16.9412H92.9658V3.52939Z" fill="white"/>
<path d="M91.7724 0.171417H68.7472C66.9728 0.171417 65.5012 1.62856 65.5012 3.3857V14.1V16.2V23.8071L69.9807 19.4143H91.794C93.5685 19.4143 95.0401 17.9571 95.0401 16.2V3.3857C95.0184 1.60713 93.5685 0.171417 91.7724 0.171417ZM72.4044 14.5714C72.4044 15.0428 72.0149 15.4071 71.5388 15.4071C71.0627 15.4071 70.6949 15.0214 70.6949 14.5714V5.46427C70.6949 4.99285 71.0627 4.60713 71.5388 4.60713C72.0149 4.60713 72.4044 4.99285 72.4044 5.46427V14.5714ZM76.4295 14.5714C76.4295 15.0428 76.04 15.4071 75.5639 15.4071C75.0878 15.4071 74.7199 15.0214 74.7199 14.5714V8.54999C74.7199 8.07856 75.0878 7.69285 75.5639 7.69285C76.04 7.69285 76.4295 8.07856 76.4295 8.54999V14.5714ZM76.5377 5.80713C76.5377 6.32142 76.1266 6.72856 75.6072 6.72856H75.5206C75.0013 6.72856 74.5901 6.32142 74.5901 5.80713V5.74285C74.5901 5.22856 75.0013 4.82142 75.5206 4.82142H75.6072C76.1266 4.82142 76.5377 5.22856 76.5377 5.74285V5.80713ZM82.6402 15.2143C82.2291 15.4071 81.8179 15.4928 81.3635 15.4928C79.8703 15.4928 79.0696 14.7857 79.0696 13.4357V9.29999H78.2906C78.0092 9.29999 77.8145 9.0857 77.8145 8.82856C77.8145 8.67856 77.8794 8.52856 78.0092 8.42142L79.9136 6.55713C79.9569 6.51427 80.1083 6.36427 80.3031 6.36427C80.5844 6.36427 80.7792 6.57856 80.7792 6.85713V7.75713H82.1642C82.597 7.75713 82.9432 8.09999 82.9432 8.52856C82.9432 8.95713 82.597 9.29999 82.1642 9.29999H80.8008V13.3286C80.8008 13.9071 81.1038 13.95 81.515 13.95C81.753 13.95 81.8828 13.9071 82.0127 13.8857C82.1209 13.8643 82.2291 13.8214 82.3589 13.8214C82.7052 13.8214 83.0947 14.1 83.0947 14.55C83.0731 14.8286 82.9216 15.0857 82.6402 15.2143ZM87.9421 13.8857C88.8293 13.8857 89.3271 13.6928 89.7599 13.4786C89.8681 13.4143 89.9763 13.3928 90.1061 13.3928C90.5389 13.3928 90.8852 13.7357 90.8852 14.1643C90.8852 14.4428 90.712 14.7 90.4091 14.8714C89.8032 15.2143 89.1539 15.5143 87.8123 15.5143C85.3886 15.5143 83.917 14.0357 83.917 11.5714C83.917 8.67856 85.8646 7.62856 87.5309 7.62856C89.9979 7.62856 91.1232 9.57856 91.1232 11.3786C91.1232 11.8714 90.7553 12.2143 90.2576 12.2143H85.7132C85.9296 13.3071 86.7086 13.8857 87.9421 13.8857ZM87.5526 9.14999C86.7302 9.14999 85.8646 9.64285 85.7132 10.7786H89.4136C89.2405 9.64285 88.3749 9.14999 87.5526 9.14999Z" fill="#09C269"/>
</g>
<defs>
<clipPath id="clip0_1320_11138">
<rect width="94.1176" height="24" fill="white" transform="translate(0.96582)"/>
</clipPath>
</defs>
</svg>
