<svg width="101" height="24" viewBox="0 0 101 24" fill="none" xmlns="http://www.w3.org/2000/svg">
<g clip-path="url(#clip0_1320_11265)">
<path d="M5.58399 12.3921C5.42568 12.3842 5.26699 12.3949 5.11119 12.4241C4.85129 12.4661 4.60233 12.5593 4.37882 12.6984C4.15531 12.8375 3.96171 13.0197 3.80932 13.2344C3.65693 13.4491 3.54878 13.6919 3.49118 13.9488C3.43359 14.2057 3.42769 14.4715 3.47383 14.7307C3.5871 15.7996 4.72674 16.701 5.78174 16.7278C5.89002 16.7306 5.99832 16.7234 6.10529 16.7064C7.24692 16.5216 7.54583 15.3451 7.35765 14.1896C7.14508 12.8848 6.21517 12.4249 5.58399 12.3921ZM6.70263 15.4833C6.65444 15.5555 6.58754 15.6132 6.5091 15.6503C6.43066 15.6873 6.34361 15.7024 6.25727 15.6938C6.10549 15.6818 5.96395 15.6126 5.86132 15.5001C5.75869 15.3876 5.70265 15.2404 5.70454 15.0881C5.7019 14.8852 5.74102 14.684 5.81945 14.4969C5.86843 14.378 5.87314 14.2455 5.83272 14.1235C5.7923 14.0014 5.70943 13.8979 5.59918 13.8318C5.4637 13.7478 5.30116 13.719 5.14509 13.7514C4.99392 13.7804 4.86035 13.868 4.77345 13.995C4.71479 14.0899 4.669 14.1921 4.63727 14.299C4.63109 14.3177 4.62618 14.3324 4.62245 14.3419C4.57072 14.4739 4.48818 14.5124 4.43236 14.5053C4.41181 14.5015 4.39277 14.4919 4.37752 14.4776C4.36227 14.4633 4.35146 14.4449 4.34636 14.4247C4.31741 14.2486 4.33098 14.0681 4.38593 13.8983C4.44088 13.7285 4.53563 13.5743 4.66227 13.4486C4.77256 13.3385 4.90653 13.255 5.05396 13.2046C5.20139 13.1541 5.35839 13.138 5.513 13.1574C5.67536 13.1769 5.83053 13.2356 5.96511 13.3285C6.09969 13.4214 6.20964 13.5457 6.28545 13.6906C6.3584 13.8649 6.3879 14.0544 6.37143 14.2427C6.35497 14.431 6.29301 14.6125 6.19091 14.7716C6.178 14.7991 6.16618 14.8243 6.15609 14.8468C6.11936 14.9091 6.09909 14.9798 6.09718 15.0521C6.09528 15.1244 6.11179 15.196 6.14518 15.2602C6.17455 15.2993 6.2129 15.3308 6.257 15.352C6.30109 15.3732 6.34963 15.3835 6.39854 15.3821C6.44524 15.3815 6.49169 15.3753 6.53691 15.3636C6.59554 15.3507 6.65618 15.3373 6.69309 15.3812C6.70533 15.395 6.71286 15.4123 6.71458 15.4307C6.71629 15.4491 6.71211 15.4675 6.70263 15.4833V15.4833Z" fill="white"/>
<path d="M20.1729 17.6754C20.4111 17.0709 20.5488 16.4316 20.5806 15.7827C20.5806 14.9849 20.1289 14.6543 19.8412 14.6543C19.8324 14.6235 19.7756 14.4154 19.6972 14.165C19.6524 14.0198 19.5992 13.8773 19.538 13.7382C19.7734 13.413 19.873 13.009 19.8157 12.6117C19.7686 12.3053 19.623 12.0226 19.4008 11.8065C18.9791 11.4485 18.4759 11.1997 17.9354 11.0818C17.854 11.059 17.5856 10.9854 17.5621 10.9782C17.5602 10.9629 17.5425 10.0994 17.5263 9.72869C17.5193 9.35697 17.4639 8.98774 17.3615 8.63034C17.2342 8.11744 16.971 7.64833 16.5997 7.27234C17.5294 6.30991 18.1099 5.24976 18.1085 4.34027C18.1058 2.5912 15.9547 2.06191 13.3038 3.15807C13.3009 3.1593 12.7461 3.39418 12.7421 3.3962C12.7396 3.39374 11.7267 2.40137 11.7115 2.38802C8.68914 -0.244392 -0.760718 10.2443 2.26059 12.7917L2.92087 13.3502C2.74269 13.8276 2.67978 14.3404 2.73727 14.8467C2.82676 15.5834 3.1909 16.2591 3.75692 16.739C4.30632 17.2376 5.01613 17.523 5.75779 17.5435C6.93351 20.249 9.61981 21.9087 12.7696 22.0021C16.1483 22.1023 18.9845 20.5192 20.1729 17.6754ZM20.8664 14.4736C21.1559 14.8471 21.3048 15.3105 21.2872 15.7827C21.2568 16.5193 21.1027 17.2455 20.8315 17.9311L20.8251 17.9471C20.212 19.4214 19.1416 20.6598 17.7715 21.4799C16.3456 22.3093 14.7209 22.7353 13.0714 22.7123H13.071C12.9643 22.7123 12.8558 22.7106 12.7487 22.7075C11.1207 22.6735 9.53148 22.2044 8.14599 21.3489C6.92643 20.5846 5.93952 19.5009 5.29237 18.2154C4.54679 18.0996 3.85072 17.7703 3.28833 17.2672C2.5891 16.6699 2.14118 15.8306 2.03417 14.9171C1.98647 14.4733 2.0122 14.0247 2.11032 13.5893L1.80379 13.3301C1.55568 13.1158 1.35404 12.853 1.2113 12.5578C1.06856 12.2627 0.987731 11.9415 0.97379 11.6139C0.94864 10.934 1.06615 10.2564 1.31875 9.62463C1.94798 7.90672 3.3955 5.86113 5.19115 4.15254C5.99246 3.37495 6.88135 2.69306 7.83998 2.12056C8.63953 1.60917 9.55782 1.31339 10.5055 1.26201C11.1168 1.24607 11.7121 1.45786 12.176 1.85626C12.2024 1.87936 12.5993 2.26746 12.9002 2.5623C12.9758 2.53043 13.0301 2.5075 13.0317 2.5069C13.9221 2.11904 14.8791 1.90668 15.85 1.88146C17.649 1.88146 18.8128 2.84617 18.8151 4.33921C18.8165 5.26046 18.3642 6.29321 17.5303 7.29296C17.7572 7.64375 17.9288 8.0273 18.0392 8.43021C18.1576 8.84267 18.2225 9.26866 18.2322 9.69768C18.2403 9.88224 18.2486 10.1784 18.2552 10.4398C18.8704 10.5955 19.4389 10.8974 19.9125 11.3199C20.2335 11.6384 20.4441 12.0514 20.5132 12.4983C20.5828 12.9394 20.5146 13.3913 20.318 13.7923C20.3355 13.8425 20.3537 13.8971 20.3718 13.9548C20.3876 14.0052 20.4024 14.0538 20.4163 14.0999C20.5895 14.1936 20.7425 14.3206 20.8664 14.4736H20.8664Z" fill="white"/>
<path d="M18.7246 13.6001C18.8392 13.4924 18.9286 13.3607 18.9864 13.2144C19.0441 13.0682 19.0689 12.9109 19.0588 12.754C19.0359 12.5958 18.9621 12.4494 18.8485 12.3369C18.5155 12.0605 18.1192 11.8707 17.695 11.7846C17.5013 11.7296 17.3698 11.6944 17.2282 11.6473C16.9764 11.5635 16.8519 11.496 16.8237 11.0172C16.8114 10.8078 16.7753 10.0784 16.7623 9.77696C16.7393 9.24878 16.6764 8.52684 16.2334 8.22878C16.1207 8.15402 15.9897 8.11168 15.8546 8.10638C15.7789 8.10172 15.703 8.10923 15.6298 8.12862C15.4049 8.18115 15.2002 8.2981 15.0408 8.46515C14.8345 8.6536 14.5912 8.79707 14.3264 8.88645C14.0616 8.97583 13.7811 9.00916 13.5027 8.98432C13.1927 8.97118 12.8641 8.92238 12.4874 8.89979C12.4141 8.89547 12.3406 8.89088 12.2672 8.88699C11.7805 8.90137 11.3151 9.09022 10.9561 9.4191C10.597 9.74799 10.3681 10.195 10.3111 10.6786C10.0954 12.1786 11.1699 12.9537 11.48 13.4086C11.528 13.4666 11.5577 13.5376 11.5654 13.6125C11.5573 13.6956 11.5178 13.7725 11.455 13.8274L11.4551 13.8278C11.0255 14.3113 10.724 14.8947 10.5779 15.5248C10.4318 16.1548 10.4459 16.8114 10.6189 17.4346C10.6599 17.5843 10.7124 17.7305 10.7761 17.8721C11.56 19.7243 13.9921 20.5869 16.3681 19.8024C16.6793 19.6996 16.9813 19.5706 17.2707 19.4168C17.7917 19.1564 18.2602 18.8024 18.653 18.3724C19.2659 17.7508 19.6684 16.9528 19.8039 16.0905C19.8755 15.6131 19.7707 15.4284 19.628 15.3395C19.5272 15.2828 19.4104 15.2613 19.2961 15.2783C19.2356 14.9035 19.1294 14.5376 18.98 14.1887L18.7246 13.6001Z" fill="white"/>
<path d="M14.8309 6.44636C14.8693 6.45516 14.8936 6.38893 14.8593 6.3697C14.2917 6.07555 13.6656 5.91171 13.0267 5.8901C13.0205 5.89001 13.0145 5.88822 13.0093 5.88493C13.0042 5.88165 13 5.87699 12.9973 5.87148C12.9946 5.86596 12.9934 5.85981 12.994 5.85369C12.9946 5.84757 12.9968 5.84173 13.0005 5.83681C13.0998 5.70699 13.2157 5.59079 13.3453 5.49121C13.3511 5.4867 13.3554 5.48046 13.3574 5.47339C13.3594 5.46631 13.359 5.45879 13.3565 5.45191C13.3539 5.44503 13.3492 5.43916 13.343 5.43515C13.3368 5.43115 13.3296 5.42922 13.3222 5.42966C12.5399 5.5065 11.7878 5.77165 11.1302 6.20244C11.1246 6.20622 11.118 6.20823 11.1112 6.20822C11.1044 6.2082 11.0978 6.20615 11.0923 6.20234C11.0867 6.19853 11.0824 6.19313 11.0799 6.18684C11.0774 6.18055 11.0768 6.17365 11.0783 6.16705C11.1313 5.96953 11.2092 5.77956 11.3103 5.60176C11.3136 5.59566 11.3149 5.58865 11.3139 5.58176C11.313 5.57488 11.3098 5.56848 11.305 5.56351C11.3001 5.55855 11.2938 5.55527 11.2869 5.55418C11.2801 5.55308 11.273 5.55422 11.2668 5.55742C10.3173 6.07895 9.47099 6.76954 8.7696 7.5952C8.76412 7.60148 8.76114 7.60956 8.76123 7.6179C8.76132 7.62624 8.76447 7.63425 8.77008 7.64042C8.7757 7.64659 8.78338 7.65048 8.79167 7.65135C8.79997 7.65223 8.80829 7.65002 8.81506 7.64516C9.62787 7.07718 10.5435 6.673 11.5109 6.45522C12.6029 6.20332 13.7376 6.20029 14.8309 6.44635" fill="white"/>
<path d="M12.0342 3.76708C12.0342 3.76708 11.2116 2.81475 10.9633 2.7445C9.43554 2.33226 6.13549 4.6049 4.0284 7.60749C3.17582 8.82236 1.95534 10.9738 2.53894 12.0803C2.74637 12.3287 2.9802 12.5539 3.23632 12.7517C3.62734 12.2036 4.21583 11.8287 4.87782 11.706C5.70861 9.38331 7.16697 7.33639 9.09093 5.79256C10.0142 5.03697 10.9986 4.35948 12.0342 3.76708Z" fill="white"/>
<path d="M6.64718 15.442C6.65903 15.4564 6.66625 15.474 6.66791 15.4925C6.66957 15.5111 6.66557 15.5297 6.65645 15.5459C6.61211 15.6179 6.54854 15.676 6.47292 15.7138C6.3973 15.7515 6.31263 15.7674 6.22845 15.7597C6.07844 15.7435 5.94016 15.671 5.84156 15.5568C5.74295 15.4426 5.69138 15.2952 5.69725 15.1445C5.69471 14.939 5.73222 14.735 5.80769 14.5439C5.85533 14.4242 5.8603 14.2917 5.82177 14.1687C5.78324 14.0457 5.70355 13.9397 5.59609 13.8686C5.5325 13.8265 5.46112 13.7976 5.38616 13.7835C5.31121 13.7695 5.2342 13.7706 5.15969 13.7868C5.08669 13.8022 5.0175 13.832 4.95618 13.8745C4.89487 13.917 4.84267 13.9713 4.80266 14.0343C4.74606 14.1312 4.70205 14.2349 4.67171 14.3429C4.66585 14.362 4.66112 14.3769 4.65754 14.3865C4.60782 14.5207 4.52855 14.5598 4.47484 14.5526C4.44944 14.5491 4.41453 14.5321 4.39215 14.4707C4.36406 14.2932 4.37681 14.1117 4.42942 13.9399C4.48204 13.7681 4.57314 13.6106 4.6958 13.4793C4.79881 13.3687 4.92667 13.2841 5.06881 13.2327C5.21096 13.1813 5.36329 13.1645 5.51323 13.1837C5.67207 13.2055 5.82301 13.2664 5.95255 13.3609C6.08208 13.4553 6.18616 13.5805 6.25547 13.7251C6.32565 13.9027 6.35398 14.0942 6.33824 14.2846C6.3225 14.475 6.26313 14.6593 6.16472 14.823C6.15227 14.8508 6.14087 14.8764 6.13127 14.8995C6.09588 14.9635 6.07645 15.035 6.07462 15.1081C6.0728 15.1812 6.08863 15.2536 6.12077 15.3193C6.14795 15.3584 6.18441 15.3902 6.22689 15.4118C6.26937 15.4334 6.31655 15.4441 6.36419 15.443C6.40911 15.4424 6.45376 15.4361 6.4971 15.4242C6.5535 15.411 6.61177 15.3975 6.64717 15.442M20.5501 15.7891C20.5185 16.4365 20.3818 17.0745 20.1451 17.6779C18.9644 20.5157 16.1468 22.0955 12.7902 21.9955C9.66112 21.9023 6.99233 20.246 5.82429 17.5462C5.08691 17.5256 4.3815 17.2407 3.83662 16.7434C3.27374 16.2636 2.9121 15.5895 2.8236 14.8551C2.76649 14.3499 2.82897 13.8383 3.006 13.3617L2.35003 12.8043C-0.651455 10.2623 8.7364 -0.204319 11.739 2.42262C11.7542 2.43585 12.7604 3.42622 12.763 3.42866C12.767 3.42662 13.3182 3.19217 13.321 3.19103C15.9545 2.09715 18.0915 2.62532 18.0942 4.37063C18.0956 5.2783 17.519 6.33626 16.5953 7.29659C16.9645 7.6723 17.2258 8.14033 17.352 8.65169C17.4539 9.00844 17.5089 9.37691 17.5158 9.74785C17.5318 10.1177 17.5496 10.9795 17.5514 10.9948C17.5748 11.0019 17.8414 11.0753 17.9222 11.0981C18.4595 11.2159 18.9596 11.4643 19.378 11.8213C19.599 12.0373 19.7437 12.3193 19.7903 12.6248C19.8472 13.0211 19.7483 13.424 19.5144 13.7489C19.5752 13.8877 19.6281 14.03 19.6726 14.1749C19.7503 14.4248 19.8069 14.6323 19.8156 14.663C20.1013 14.663 20.5501 14.993 20.5501 15.7892L20.5501 15.7891ZM7.28573 14.2319C7.08161 12.9068 6.18792 12.4398 5.58152 12.4065C5.4293 12.3984 5.27667 12.4093 5.12714 12.4389C4.0448 12.6579 3.43352 13.5814 3.5538 14.7814C3.6414 15.3197 3.90795 15.8127 4.31036 16.1807C4.71277 16.5488 5.22754 16.7704 5.77147 16.8098C5.87556 16.8126 5.97968 16.8052 6.08236 16.7879C7.17935 16.6003 7.46656 15.4055 7.28573 14.2319ZM9.13569 5.81993C10.0525 5.06618 11.0305 4.3901 12.0596 3.7987C12.0596 3.7987 11.2425 2.84841 10.9958 2.77838C9.47808 2.36687 6.19956 4.63478 4.10633 7.63103C3.25935 8.84336 2.04687 10.9903 2.62658 12.0945C2.83252 12.3423 3.06484 12.567 3.31941 12.7645C3.70699 12.2182 4.29179 11.844 4.95021 11.721C5.77396 9.40535 7.2226 7.36292 9.13569 5.81993ZM12.4342 16.3064C12.4745 16.4825 12.5615 16.6445 12.6862 16.7752C12.8109 16.9059 12.9685 17.0005 13.1425 17.0491C13.3235 17.1165 13.5103 17.1674 13.7005 17.2011C16.1012 17.6153 18.3456 16.2385 18.8509 15.8917C18.8889 15.8656 18.9139 15.891 18.8835 15.937C18.8683 15.9614 18.8518 15.9851 18.834 16.0078C18.2156 16.8079 16.5529 17.7345 14.3898 17.7342C13.4464 17.734 12.5035 17.4007 12.1572 16.8884C11.6201 16.0936 12.1306 14.9334 13.0256 15.0543C13.0267 15.0545 13.3319 15.0892 13.4177 15.0987C14.8089 15.2325 16.2113 15.0074 17.4908 14.4449C18.7119 13.8763 19.1732 13.2506 19.104 12.7441C19.0809 12.5868 19.0069 12.4414 18.8935 12.33C18.5595 12.0551 18.163 11.8667 17.739 11.7815C17.5451 11.7269 17.4135 11.692 17.2717 11.6452C17.0196 11.5619 16.8951 11.4949 16.8668 11.0195C16.8545 10.8115 16.8184 10.0872 16.8053 9.78785C16.7823 9.26336 16.7194 8.54646 16.2759 8.25046C16.1629 8.17615 16.0319 8.13412 15.8968 8.12891C15.821 8.1243 15.7451 8.13177 15.6717 8.15104C15.447 8.20303 15.2422 8.31913 15.0823 8.48524C14.875 8.67259 14.6312 8.81509 14.3663 8.9038C14.1013 8.99251 13.8209 9.02552 13.5426 9.00075C13.2323 8.98777 12.9034 8.93928 12.5264 8.91683C12.4531 8.91251 12.3795 8.90794 12.306 8.90418C11.8206 8.91691 11.3559 9.10353 10.9966 9.43006C10.6372 9.7566 10.407 10.2013 10.348 10.6833C10.1322 12.1728 11.2076 12.9425 11.5181 13.3942C11.5661 13.4517 11.5958 13.5222 11.6035 13.5967C11.5953 13.6794 11.5558 13.7557 11.493 13.81V13.8105C11.0636 14.289 10.7617 14.868 10.6154 15.4941C10.4692 16.1201 10.4832 16.773 10.6561 17.3922C10.6972 17.5409 10.7498 17.6861 10.8134 17.8266C11.5982 19.666 14.0325 20.5225 16.4107 19.7434C16.7221 19.6414 17.0244 19.5134 17.3143 19.3607C17.8351 19.1025 18.304 18.7509 18.6979 18.3234C19.3104 17.7079 19.7134 16.915 19.8498 16.0574C19.9214 15.5833 19.8166 15.3999 19.6737 15.3117C19.5727 15.2554 19.4559 15.234 19.3415 15.2508C19.2809 14.8785 19.1747 14.515 19.0251 14.1687C18.3459 14.6813 17.5781 15.0643 16.7601 15.2987C15.7759 15.5768 14.7521 15.6878 13.7312 15.6272C13.0744 15.574 12.6399 15.3817 12.4765 15.9144C13.47 16.2466 14.5248 16.3543 15.5649 16.2295C15.5722 16.2288 15.5796 16.2295 15.5866 16.2316C15.5937 16.2337 15.6003 16.2372 15.6059 16.2418C15.6116 16.2465 15.6164 16.2522 15.6198 16.2587C15.6233 16.2652 15.6255 16.2723 15.6262 16.2796C15.6273 16.2919 15.6245 16.3043 15.6183 16.3149C15.6121 16.3256 15.6027 16.3341 15.5915 16.3392C15.5915 16.3392 14.3716 16.9074 12.4342 16.3064ZM8.86151 7.66858C9.66838 7.10212 10.5782 6.69878 11.5397 6.48123C12.6245 6.22986 13.752 6.22682 14.838 6.47234C14.876 6.48107 14.9003 6.41503 14.8663 6.39594C14.3027 6.10249 13.6806 5.93892 13.0455 5.91724C13.0394 5.91713 13.0334 5.91533 13.0283 5.91205C13.0231 5.90877 13.019 5.90412 13.0163 5.89863C13.0136 5.89313 13.0124 5.887 13.013 5.88091C13.0136 5.87482 13.0158 5.869 13.0195 5.8641C13.1181 5.73462 13.2333 5.61866 13.3622 5.5192C13.368 5.5147 13.3722 5.50847 13.3741 5.50142C13.3761 5.49437 13.3758 5.48687 13.3732 5.48001C13.3707 5.47315 13.366 5.4673 13.3599 5.46329C13.3537 5.45928 13.3465 5.45734 13.3392 5.45773C12.5615 5.53462 11.8142 5.79927 11.1615 6.22893C11.1559 6.23271 11.1493 6.23472 11.1426 6.2347C11.1358 6.23469 11.1292 6.23265 11.1237 6.22884C11.1181 6.22504 11.1138 6.21965 11.1114 6.21337C11.1089 6.2071 11.1084 6.20023 11.1099 6.19367C11.1625 5.99663 11.2399 5.80708 11.3403 5.62959C11.3437 5.62352 11.345 5.61654 11.344 5.60968C11.3431 5.60282 11.34 5.59644 11.3352 5.59147C11.3303 5.58651 11.324 5.58323 11.3172 5.58211C11.3104 5.58099 11.3034 5.5821 11.2972 5.58526C10.3532 6.1063 9.51246 6.79551 8.81633 7.61889C8.81088 7.62514 8.80791 7.63317 8.80799 7.64146C8.80808 7.64975 8.81121 7.65773 8.81678 7.66386C8.82236 7.67 8.83 7.67387 8.83825 7.67474C8.84649 7.67561 8.85477 7.67342 8.86151 7.66858ZM15.1835 12.7248C15.2492 12.7664 15.3279 12.7824 15.4046 12.7696C15.4813 12.7569 15.5507 12.7163 15.5994 12.6557C15.6599 12.5385 15.572 12.3795 15.4029 12.3006C15.3372 12.259 15.2584 12.2431 15.1817 12.2558C15.105 12.2686 15.0357 12.3092 14.987 12.3698C14.9264 12.487 15.0144 12.6459 15.1835 12.7248ZM15.7021 10.8242C15.7427 11.0353 15.8302 11.2345 15.9582 11.407C16.0904 11.3908 16.2242 11.3908 16.3564 11.407C16.4337 11.1754 16.4405 10.926 16.3759 10.6906C16.2803 10.2561 16.151 9.99313 15.8837 10.034C15.6165 10.075 15.6066 10.3898 15.7021 10.8242ZM16.2707 11.8223C16.2033 11.803 16.1315 11.8053 16.0655 11.8288C15.9994 11.8523 15.9424 11.896 15.9024 11.9536C15.8625 12.0112 15.8416 12.0799 15.8427 12.1501C15.8437 12.2202 15.8668 12.2882 15.9085 12.3445C15.9502 12.4009 16.0086 12.4428 16.0753 12.4642C16.1421 12.4857 16.2139 12.4858 16.2807 12.4644C16.3474 12.4429 16.4058 12.4011 16.4476 12.3448C16.4894 12.2885 16.5125 12.2205 16.5136 12.1504C16.5233 12.0749 16.5035 11.9986 16.4582 11.9375C16.4129 11.8763 16.3457 11.8351 16.2707 11.8223Z" fill="black"/>
<path d="M11.8334 11.7835C11.7907 11.7775 11.7726 11.7593 11.7672 11.7351C11.7507 11.6601 11.8659 11.5368 11.9875 11.4477C12.1648 11.3181 12.3725 11.2362 12.5907 11.21C12.8088 11.1838 13.03 11.2142 13.233 11.2982C13.4227 11.3765 13.5858 11.5077 13.7027 11.6763C13.7462 11.7472 13.7546 11.8021 13.7265 11.8309C13.6827 11.8771 13.5711 11.8242 13.3895 11.7445C13.1712 11.6374 12.93 11.5855 12.6871 11.5933C12.3992 11.6406 12.1141 11.7041 11.8334 11.7835ZM13.6442 12.1563C13.5657 12.0738 13.4679 12.012 13.3597 11.9765C13.2515 11.941 13.1361 11.933 13.024 11.953C12.8587 11.9706 12.702 12.0359 12.5731 12.1409C12.5131 12.184 12.4718 12.2485 12.4578 12.3211C12.4574 12.3292 12.4589 12.3372 12.462 12.3447C12.4651 12.3521 12.4699 12.3588 12.4759 12.3642C12.4865 12.3739 12.5004 12.3792 12.5148 12.379C12.5743 12.3703 12.6325 12.3542 12.6879 12.331C12.9308 12.2395 13.1933 12.2122 13.4498 12.2519C13.5687 12.2653 13.6248 12.2727 13.6509 12.2319C13.6576 12.2201 13.6605 12.2065 13.6593 12.193C13.6581 12.1795 13.6528 12.1667 13.6442 12.1563Z" fill="black"/>
<path d="M33.8739 10.825C32.5685 10.825 31.9239 11.8563 31.6263 12.5218C31.4622 12.8922 31.4153 13.1851 31.2817 13.1851C31.0896 13.1851 31.2278 12.932 31.0732 12.3648C30.8692 11.6195 30.2552 10.8297 28.952 10.8297C27.5833 10.8297 26.995 11.9922 26.7184 12.632C26.5262 13.0679 26.5262 13.1898 26.3809 13.1898C26.17 13.1898 26.3458 12.8429 26.4395 12.4351C26.5544 11.9687 26.5708 11.4836 26.4864 11.0101H24.3137V19.2181H27.2739V15.14C27.2739 14.3337 27.6114 13.3142 28.1856 13.3142C28.8536 13.3142 28.9824 13.8275 28.9824 14.7767V19.2275H31.959V15.14C31.959 14.4228 32.2496 13.3142 32.873 13.3142C33.548 13.3142 33.6652 14.0361 33.6652 14.7767V19.2252H36.5902V14.3947C36.5925 12.2525 35.8402 10.8252 33.8738 10.8252L33.8739 10.825Z" fill="black"/>
<path d="M84.196 10.825C82.8928 10.825 82.246 11.8563 81.9506 12.5218C81.7842 12.8922 81.7397 13.1851 81.6038 13.1851C81.4139 13.1851 81.5428 12.8617 81.3975 12.3648C81.1795 11.6242 80.6381 10.8297 79.2764 10.8297C77.9123 10.8297 77.3194 11.9922 77.0404 12.632C76.8506 13.0679 76.8506 13.1898 76.7053 13.1898C76.492 13.1898 76.6678 12.8429 76.7639 12.4351C76.8787 11.9687 76.8928 11.4836 76.8084 11.0101H74.6357V19.2181H77.5982V15.14C77.5982 14.3337 77.9334 13.3142 78.5076 13.3142C79.1709 13.3142 79.3068 13.8275 79.3068 14.7767V19.2275H82.281V15.14C82.281 14.4228 82.574 13.3142 83.1974 13.3142C83.8654 13.3142 83.9896 14.0361 83.9896 14.7767V19.2252H86.9122V14.3947C86.9146 12.2525 86.1646 10.8252 84.1958 10.8252L84.196 10.825Z" fill="black"/>
<path d="M41.6546 10.8274C40.3093 10.8204 38.9781 11.1063 37.7523 11.6641V14.1321C37.7523 14.1321 39.5523 13.0914 41.0124 13.0914C42.1773 13.0914 42.3203 13.7243 42.2687 14.2446C42.2687 14.2446 41.9336 14.1555 40.907 14.1555C38.4907 14.1555 37.2695 15.2594 37.2695 17.029C37.2695 18.7071 38.6407 19.4079 39.7961 19.4079C41.4812 19.4079 42.2219 18.2712 42.4515 17.7297C42.6086 17.3547 42.6367 17.1039 42.7797 17.1039C42.9414 17.1039 42.8851 17.2844 42.8758 17.657C42.8617 18.3109 42.8922 18.8032 42.993 19.2203H45.2313V15.1844C45.2313 12.6625 44.3453 10.8274 41.6547 10.8274L41.6546 10.8274ZM40.9304 17.3032C40.2203 17.4673 39.8546 17.2469 39.8546 16.7759C39.8546 16.129 40.5226 15.8688 41.4695 15.8688C41.889 15.8688 42.2828 15.9063 42.2828 15.9063C42.2851 16.1829 41.6875 17.1274 40.9304 17.3032V17.3032Z" fill="black"/>
<path d="M50.116 8.5282H53.0831V19.2226H50.116V8.5282Z" fill="black"/>
<path d="M56.3457 15.1186C56.3457 14.3803 57.0277 13.71 58.2793 13.71C59.6457 13.71 60.7426 14.3709 60.9887 14.5186V11.6639C60.9887 11.6639 60.1215 10.8272 57.991 10.8272C55.7434 10.8272 53.873 12.1491 53.873 14.9921C53.873 17.835 55.5699 19.4077 57.9817 19.4077C59.866 19.4077 60.991 18.3671 60.991 18.3671V15.66C60.6348 15.8592 59.6457 16.5507 58.291 16.5507C56.8613 16.5507 56.3457 15.8874 56.3457 15.1186V15.1186Z" fill="black"/>
<path d="M66.9939 10.8274C65.2736 10.8274 64.6244 12.4587 64.4932 12.7469C64.3596 13.0352 64.2939 13.1946 64.1861 13.1899C63.9963 13.1852 64.1299 12.843 64.2049 12.6203C64.4908 11.6922 64.6338 10.7266 64.6338 9.75396C64.6338 8.83758 64.5096 8.53284 64.5096 8.53284H61.9502V19.2224H64.9127V15.1396C64.9127 14.474 65.1775 13.3138 65.9252 13.3138C66.5439 13.3138 66.7362 13.7755 66.7362 14.7037V19.2248H69.6987V14.8795C69.7057 12.7701 69.3565 10.8271 66.994 10.8271L66.9939 10.8274Z" fill="black"/>
<path d="M70.6719 11.0242V19.2226H73.6344V11.0242C73.6344 11.0242 73.1352 11.3125 72.1532 11.3125C71.1735 11.3125 70.6719 11.0242 70.6719 11.0242H70.6719Z" fill="black"/>
<path d="M73.96 9.63699C73.96 8.97837 73.1467 8.44635 72.1436 8.44635C71.1428 8.44635 70.3296 8.97838 70.3296 9.63699C70.3296 10.2933 71.1429 10.8276 72.1436 10.8276C73.1468 10.8276 73.96 10.2933 73.96 9.63699Z" fill="black"/>
<path d="M46.1926 11.0242V19.2226H49.1551V11.0242C49.1551 11.0242 48.6559 11.3125 47.6762 11.3125C46.6966 11.3125 46.1926 11.0242 46.1926 11.0242Z" fill="black"/>
<path d="M49.4806 9.63699C49.4806 8.97837 48.6673 8.44635 47.6666 8.44635C46.6634 8.44635 45.8525 8.97838 45.8525 9.63699C45.8525 10.2933 46.6635 10.8276 47.6666 10.8276C48.6674 10.8276 49.4806 10.2933 49.4806 9.63699Z" fill="black"/>
<path d="M92.8058 10.825C91.2824 10.825 90.584 11.9781 90.2816 12.6273C90.0801 13.0586 90.0895 13.1851 89.9441 13.1851C89.7332 13.1851 89.909 12.8383 90.0027 12.4305C90.1176 11.9664 90.1316 11.4813 90.0473 11.0101H87.877V21.4891H90.8395V18.1657C91.191 18.7657 91.8403 19.4055 92.8457 19.4055C94.9903 19.4055 96.0684 17.5797 96.0684 15.1188C96.066 12.3274 94.7747 10.8251 92.8059 10.8251L92.8058 10.825ZM91.9925 17.4604C91.3129 17.4604 90.8137 16.5955 90.8137 15.3862C90.8137 14.212 91.3269 13.312 91.9691 13.312C92.7941 13.312 93.1457 14.0737 93.1457 15.3862C93.1457 16.7526 92.8222 17.4604 91.9925 17.4604Z" fill="black"/>
</g>
<defs>
<clipPath id="clip0_1320_11265">
<rect width="100" height="24" fill="white" transform="translate(0.96582)"/>
</clipPath>
</defs>
</svg>
