<svg width="117" height="24" viewBox="0 0 117 24" fill="none" xmlns="http://www.w3.org/2000/svg">
<g clip-path="url(#clip0_1320_11800)">
<path d="M39.854 12.459V22.8852C39.8542 22.9659 39.8384 23.0458 39.8076 23.1204C39.7769 23.1949 39.7317 23.2626 39.6746 23.3196C39.6176 23.3767 39.5499 23.4219 39.4754 23.4526C39.4008 23.4834 39.3209 23.4991 39.2403 23.499H34.7354C34.6547 23.499 34.575 23.4831 34.5005 23.4523C34.426 23.4215 34.3583 23.3763 34.3014 23.3192C34.2443 23.2623 34.1991 23.1946 34.1683 23.1201C34.1374 23.0456 34.1216 22.9659 34.1216 22.8852V6.41836C34.1216 6.33776 34.1374 6.25794 34.1683 6.18348C34.1991 6.10901 34.2443 6.04135 34.3014 5.98435C34.3583 5.92737 34.426 5.88215 34.5005 5.8513C34.575 5.82047 34.6547 5.80459 34.7354 5.80459H39.2403C39.3209 5.80442 39.4008 5.82017 39.4754 5.85096C39.5499 5.88174 39.6176 5.92695 39.6746 5.98397C39.7317 6.041 39.7769 6.10873 39.8076 6.18328C39.8384 6.25782 39.8542 6.3377 39.854 6.41836V7.71541C40.9872 6.29508 42.5754 5.41508 44.8049 5.41508C46.8914 5.41508 48.696 6.26361 49.7885 7.85705C51.1327 6.26361 53.0436 5.41508 55.3793 5.41508C59.3426 5.41508 62.0678 7.75082 62.0678 12.2085V22.8826C62.0679 22.9633 62.0522 23.0431 62.0214 23.1178C61.9907 23.1923 61.9454 23.2599 61.8884 23.317C61.8314 23.374 61.7637 23.4193 61.6892 23.45C61.6146 23.4808 61.5347 23.4965 61.454 23.4964H56.957C56.7942 23.4964 56.638 23.4317 56.523 23.3166C56.4079 23.2016 56.3432 23.0454 56.3432 22.8826V13.4125C56.3432 11.4662 55.2468 10.5102 53.7609 10.5102C52.5216 10.5102 51.5314 11.2892 50.9649 12.4564V22.8826C50.965 22.9633 50.9493 23.0431 50.9184 23.1178C50.8877 23.1923 50.8425 23.2599 50.7854 23.317C50.7284 23.374 50.6607 23.4193 50.5862 23.45C50.5116 23.4808 50.4317 23.4965 50.3511 23.4964H45.8462C45.6834 23.4964 45.5272 23.4317 45.4122 23.3166C45.2971 23.2016 45.2324 23.0454 45.2324 22.8826V13.4125C45.2324 11.4662 44.136 10.5102 42.6501 10.5102C41.3754 10.5102 40.4206 11.2892 39.854 12.459ZM69.6088 23.8505C66.2829 23.8505 63.4868 21.6564 63.4868 18.2597C63.4868 15.1462 65.5393 13.6944 69.3609 12.7043L74.2449 11.4308C74.1032 10.2623 73.1826 9.69705 71.6967 9.69705C70.3852 9.69705 69.4331 10.2007 68.9963 11.2079C68.9411 11.3453 68.8387 11.4586 68.7074 11.5273C68.5761 11.5961 68.4248 11.6158 68.2803 11.583L64.4088 10.6649C64.3243 10.6448 64.2451 10.607 64.1763 10.5542C64.1074 10.5013 64.0505 10.4345 64.0093 10.3581C63.9681 10.2817 63.9435 10.1975 63.9371 10.1109C63.9306 10.0243 63.9426 9.93738 63.9721 9.85574C65.0829 6.84984 68.1688 5.27475 71.9052 5.27475C76.9295 5.27475 79.8317 7.6459 79.8317 11.8203V22.8839C79.8317 23.0467 79.7671 23.2029 79.6519 23.3179C79.5369 23.433 79.3807 23.4977 79.218 23.4977H74.9504C74.7902 23.4977 74.6362 23.435 74.5215 23.323C74.4068 23.211 74.3405 23.0586 74.3367 22.8984L74.3157 21.9803L74.2803 22.0157C72.8285 23.2485 71.4134 23.8505 69.6088 23.8505ZM71.0593 19.4269C71.8029 19.4269 72.3708 19.2157 73.218 18.72L74.2095 18.118L74.2449 15.2525L71.6967 15.9593C69.9629 16.4551 69.1839 16.8774 69.1839 17.8702C69.1839 18.9679 70.1399 19.4269 71.0593 19.4269ZM88.9872 15.1462L87.2534 16.7384V22.8826C87.2535 22.9633 87.2378 23.0431 87.207 23.1178C87.1763 23.1923 87.131 23.2599 87.074 23.317C87.0169 23.374 86.9493 23.4193 86.8748 23.45C86.8001 23.4808 86.7203 23.4965 86.6396 23.4964H82.2409C82.0782 23.4964 81.922 23.4317 81.807 23.3166C81.6918 23.2016 81.6272 23.0454 81.6272 22.8826V0.61377C81.6276 0.451095 81.6923 0.295182 81.8074 0.180152C81.9224 0.0651226 82.0783 0.000346488 82.2409 0H86.6409C86.8037 0 86.9599 0.0646649 87.0749 0.179769C87.19 0.294873 87.2547 0.450989 87.2547 0.61377V10.6872L92.3865 5.9659C92.5009 5.86174 92.6501 5.80418 92.8049 5.80459H98.2357C98.3595 5.80463 98.4804 5.84211 98.5826 5.91212C98.6846 5.98212 98.7633 6.08138 98.8079 6.19685C98.8526 6.31233 98.8613 6.43861 98.8329 6.55913C98.8045 6.67965 98.7403 6.78876 98.6488 6.87213L93.3754 11.6787L99.3845 22.5862C99.4361 22.6797 99.4623 22.785 99.4607 22.8917C99.4592 22.9984 99.4298 23.1029 99.3755 23.1948C99.3212 23.2867 99.2439 23.3629 99.1512 23.4157C99.0585 23.4686 98.9536 23.4964 98.8468 23.4964H93.7124C93.6001 23.4963 93.4901 23.4653 93.3942 23.4071C93.2982 23.3489 93.2201 23.2654 93.1681 23.1659L88.9872 15.1462Z" fill="black"/>
<path d="M107.653 23.8859C102.735 23.8859 98.241 20.8079 98.241 14.5744C98.241 8.70037 102.558 5.30365 107.299 5.30365C112.219 5.30365 115.792 8.73578 115.934 14.1495C115.95 14.7213 115.959 15.12 115.964 15.4033C115.965 15.4846 115.95 15.5654 115.92 15.6408C115.89 15.7163 115.845 15.7849 115.788 15.8429C115.731 15.9007 115.662 15.9466 115.587 15.9778C115.512 16.0092 115.432 16.0252 115.35 16.0249H103.903C104.08 18.1482 105.778 19.4924 107.937 19.4924C109.472 19.4924 110.731 18.8538 111.609 17.6997C111.703 17.5772 111.841 17.4953 111.994 17.4709C112.147 17.4467 112.303 17.4816 112.431 17.5685L115.291 19.4833C115.359 19.5293 115.417 19.5881 115.462 19.6565C115.506 19.7248 115.537 19.8013 115.552 19.8817C115.568 19.962 115.567 20.0444 115.55 20.1244C115.533 20.2044 115.5 20.2802 115.454 20.3475C113.929 22.6033 111.402 23.8859 107.653 23.8859ZM104.009 12.5627H110.202C110.166 10.5456 108.68 9.66168 107.124 9.66168C105.672 9.66168 104.186 10.5102 104.009 12.5627Z" fill="black"/>
<path d="M25.1182 23.4452H20.6736C20.5108 23.4452 20.3546 23.3806 20.2396 23.2654C20.1245 23.1503 20.0598 22.9942 20.0598 22.8315V6.42621C20.0609 6.26398 20.1259 6.10874 20.2409 5.99428C20.3558 5.87981 20.5114 5.81541 20.6736 5.81506H25.1169C25.2794 5.81471 25.4354 5.87886 25.5508 5.99344C25.6661 6.10801 25.7313 6.26365 25.7319 6.42621V22.8315C25.7321 22.9121 25.7163 22.992 25.6855 23.0665C25.6548 23.1411 25.6096 23.2088 25.5525 23.2658C25.4955 23.3229 25.4278 23.3681 25.3533 23.3988C25.2787 23.4296 25.1988 23.4454 25.1182 23.4452Z" fill="url(#paint0_linear_1320_11800)"/>
<path d="M4.519 23.5069L0.549167 21.5082C0.403829 21.4351 0.293459 21.3073 0.242309 21.1528C0.191158 20.9984 0.203413 20.83 0.27638 20.6846L7.64162 6.03278C7.71472 5.88744 7.84254 5.77707 7.99697 5.72592C8.1514 5.67477 8.31982 5.68702 8.46523 5.75999L12.4364 7.75475C12.5817 7.82785 12.6921 7.95565 12.7432 8.11009C12.7944 8.26452 12.7821 8.43295 12.7092 8.57835L5.3426 23.2341C5.26952 23.3794 5.1417 23.4898 4.98726 23.541C4.83283 23.5921 4.6644 23.5798 4.519 23.5069Z" fill="url(#paint1_linear_1320_11800)"/>
<path d="M16.2449 23.1764L19.3925 7.20135C19.4238 7.04228 19.3909 6.87728 19.3009 6.74238C19.211 6.60748 19.0713 6.51364 18.9125 6.48135L14.5571 5.60135C14.4778 5.5855 14.3963 5.58539 14.3171 5.60107C14.2377 5.61674 14.1623 5.64787 14.0952 5.69268C14.0279 5.73751 13.9702 5.79514 13.9252 5.86227C13.8802 5.92941 13.849 6.00475 13.8331 6.08398L10.6856 22.0603C10.6543 22.2197 10.6874 22.3848 10.7776 22.5197C10.8678 22.6547 11.0078 22.7484 11.1669 22.7803L15.521 23.659C15.6002 23.6753 15.6819 23.6757 15.7613 23.6602C15.8407 23.6446 15.9163 23.6135 15.9835 23.5686C16.0508 23.5238 16.1087 23.466 16.1535 23.3987C16.1984 23.3314 16.2294 23.2559 16.2449 23.1764Z" fill="url(#paint2_linear_1320_11800)"/>
</g>
<defs>
<linearGradient id="paint0_linear_1320_11800" x1="14.6696" y1="17.6643" x2="26.6605" y2="13.2433" gradientUnits="userSpaceOnUse">
<stop offset="0.02" stop-color="#B02DE9"/>
<stop offset="0.8" stop-color="#6D00CC"/>
</linearGradient>
<linearGradient id="paint1_linear_1320_11800" x1="4.14523" y1="15.6472" x2="17.0357" y2="10.0734" gradientUnits="userSpaceOnUse">
<stop stop-color="#FF00FF"/>
<stop offset="0.18" stop-color="#E80DF9"/>
<stop offset="0.54" stop-color="#C024ED"/>
<stop offset="0.73" stop-color="#B02DE9"/>
</linearGradient>
<linearGradient id="paint2_linear_1320_11800" x1="1.13803" y1="19.7495" x2="27.5616" y2="10.021" gradientUnits="userSpaceOnUse">
<stop offset="0.02" stop-color="#FF00FF"/>
<stop offset="0.09" stop-color="#E80DF9"/>
<stop offset="0.23" stop-color="#C024ED"/>
<stop offset="0.3" stop-color="#B02DE9"/>
<stop offset="0.42" stop-color="#A42BE3"/>
<stop offset="0.63" stop-color="#8527D5"/>
<stop offset="0.85" stop-color="#6021C3"/>
</linearGradient>
<clipPath id="clip0_1320_11800">
<rect width="115.934" height="24" fill="white" transform="translate(0.0834961)"/>
</clipPath>
</defs>
</svg>
