<svg width="79" height="24" viewBox="0 0 79 24" fill="none" xmlns="http://www.w3.org/2000/svg">
<g clip-path="url(#clip0_1320_11329)">
<path d="M21.1005 0H4.8424C2.70453 0 0.971436 1.73309 0.971436 3.87097V20.129C0.971436 22.267 2.70453 24 4.8424 24H21.1005C23.2384 24 24.9714 22.267 24.9714 20.129V3.87097C24.9714 1.73309 23.2384 0 21.1005 0Z" fill="#FFD02F"/>
<path fill-rule="evenodd" clip-rule="evenodd" d="M17.2295 3.87097H14.9069L16.8424 7.35484L12.5843 3.87097H10.2617L12.3908 8.12904L7.93916 3.87097H5.61658L7.93916 9.29033L5.61658 20.129H7.93916L12.3908 8.51613L10.2617 20.129H12.5843L16.8424 7.74194L14.9069 20.129H17.2295L21.4875 6.58065L17.2295 3.87097Z" fill="#050038"/>
<path fill-rule="evenodd" clip-rule="evenodd" d="M72.1973 5.41938C76.0682 5.41938 78.3908 8.30896 78.3908 12C78.3908 15.6774 76.0682 18.5807 72.1973 18.5807C68.3263 18.5807 66.0037 15.6911 66.0037 12C66.0037 8.30896 68.3263 5.41938 72.1973 5.41938ZM54.7779 6.19357V18.1936H52.0682V12.3871V9.4839V6.58067L54.7779 6.19357ZM64.8424 5.80648V8.51615L63.2941 8.7097C61.9392 8.90325 60.9715 9.67744 60.9715 11.2181V18.1936H58.2618V11.2181C58.2618 7.90456 60.1973 6.38712 63.2941 6.00003L64.8424 5.80648ZM37.7457 5.80648C38.907 5.80648 40.1077 6.28638 40.8424 7.35486C41.5799 6.38186 42.7779 5.80648 44.3263 5.80648C46.2618 5.80648 48.5844 6.96777 48.5844 10.8387V18.1936H45.8747V10.8387C45.8747 9.4839 45.0308 8.51615 43.7457 8.51615C42.4605 8.51615 41.6166 9.4839 41.6166 10.8387V18.1936H38.907V10.8387C38.907 9.4839 38.0629 8.51615 36.7779 8.51615C35.4699 8.51615 34.6489 9.4839 34.6489 10.8387V18.1936H31.9392V10.8387V6.58067L34.6489 6.19357V7.35486C35.406 6.42399 36.1973 5.80648 37.7457 5.80648ZM72.1973 8.12906C69.8747 8.12906 68.7134 9.86251 68.7134 12C68.7134 14.1376 69.8747 15.871 72.1973 15.871C74.5199 15.871 75.6812 14.1291 75.6812 12C75.6812 9.86519 74.5199 8.12906 72.1973 8.12906ZM53.4231 1.16132C54.3908 1.16132 55.165 1.74196 55.165 2.90325C55.165 4.06454 54.3908 4.64519 53.4231 4.64519C52.4553 4.64519 51.6811 4.06454 51.6811 2.90325C51.6811 1.74196 52.4553 1.16132 53.4231 1.16132Z" fill="#050038"/>
</g>
<defs>
<clipPath id="clip0_1320_11329">
<rect width="77.4194" height="24" fill="white" transform="translate(0.971436)"/>
</clipPath>
</defs>
</svg>
