<svg width="72" height="24" viewBox="0 0 72 24" fill="none" xmlns="http://www.w3.org/2000/svg">
<g clip-path="url(#clip0_1320_11928)">
<path d="M6.66351 20.5091C6.66351 22.2 5.2999 23.5636 3.60899 23.5636C1.91808 23.5636 0.554443 22.2 0.554443 20.5091C0.554443 18.8182 1.91808 17.4545 3.60899 17.4545C5.2999 17.4545 6.66351 18.8182 6.66351 20.5091Z" fill="black"/>
<path d="M16.8636 20.5637C16.8636 21.7637 15.8818 22.7455 14.6818 22.7455C13.4818 22.7455 12.5 21.7637 12.5 20.5637C12.5 19.3637 13.4818 18.3819 14.6818 18.3819C15.8818 18.3819 16.8636 19.3637 16.8636 20.5637Z" fill="black"/>
<path d="M24.7727 20.5636C24.7727 21.1091 24.3364 21.5454 23.7909 21.5454C23.2454 21.5454 22.8091 21.1091 22.8091 20.5636C22.8091 20.0182 23.2454 19.5818 23.7909 19.5818C24.3364 19.5818 24.7727 20.0182 24.7727 20.5636Z" fill="black"/>
<path d="M14.0819 14.0728C13.5365 14.0728 13.1547 13.6364 13.1547 13.1455V9.10914C13.1547 7.7455 12.5001 6.65459 11.0274 6.65459C9.55465 6.65459 8.62738 7.80005 8.62738 9.10914V13.091C8.62738 13.6364 8.24556 14.0182 7.70011 14.0182C7.15465 14.0182 6.77283 13.5819 6.77283 13.091V9.05459C6.77283 7.69096 6.06374 6.60005 4.59101 6.60005C3.06374 6.60005 2.3001 7.7455 2.3001 9.05459V13.0364C2.3001 13.5819 1.91829 13.9637 1.37283 13.9637C0.827375 13.9637 0.445557 13.5273 0.445557 13.0364V6.00005C0.445557 5.45459 0.827375 5.01823 1.37283 5.01823C2.02738 5.01823 2.3001 5.45459 2.3001 6.00005V6.65459C2.84556 5.61823 3.93647 4.96368 5.13647 4.96368C6.55465 4.96368 7.64556 5.67278 8.19101 6.76368C8.95465 5.56368 10.1001 4.96368 11.5183 4.96368C13.9183 4.96368 15.1183 6.65459 15.1183 9.00005V13.1455C15.0637 13.6364 14.6819 14.0728 14.0819 14.0728Z" fill="black"/>
<path d="M17.6817 14.0728C17.1363 14.0728 16.7545 13.6365 16.7545 13.1456V6.00011C16.7545 5.45466 17.1363 5.07284 17.6817 5.07284C18.2272 5.07284 18.609 5.5092 18.609 6.00011V13.1456C18.609 13.6365 18.2272 14.0728 17.6817 14.0728ZM17.6817 1.47284C18.2817 1.47284 18.7726 1.96375 18.7726 2.56375C18.7726 3.16375 18.2817 3.65466 17.6817 3.65466C17.0817 3.65466 16.5908 3.16375 16.5908 2.56375C16.5908 1.96375 17.0817 1.47284 17.6817 1.47284Z" fill="black"/>
<path d="M23.9 8.29081L26.3 5.34536C26.4636 5.18172 26.6818 5.07263 26.9 5.07263C27.4454 5.07263 27.7727 5.3999 27.7727 5.89081C27.7727 6.05445 27.7182 6.27263 27.5545 6.43627L24.9363 9.54536L27.6091 12.709C27.7727 12.8726 27.8272 13.0363 27.8272 13.2545C27.8272 13.6908 27.4454 14.0726 27.0091 14.0726C26.7363 14.0726 26.5182 13.9635 26.3545 13.7454L23.9545 10.7454L21.5545 13.7454C21.3909 13.9635 21.1727 14.0726 20.9 14.0726C20.4636 14.0726 20.0818 13.6908 20.0818 13.2545C20.0818 13.0363 20.1363 12.8726 20.3 12.709L22.9727 9.54536L20.3545 6.43627C20.1909 6.27263 20.1363 6.05445 20.1363 5.89081C20.1363 5.3999 20.4636 5.07263 21.0091 5.07263C21.2818 5.07263 21.4454 5.18172 21.6091 5.34536L23.9 8.29081Z" fill="black"/>
<path d="M33.7726 6.54558C32.1363 6.54558 31.0999 7.96377 31.0999 9.60013C31.0999 11.1819 32.1908 12.6547 33.7726 12.6547C35.409 12.6547 36.4454 11.4547 36.4454 9.60013C36.4454 7.74558 35.409 6.54558 33.7726 6.54558ZM34.1545 14.1819C32.7908 14.1819 31.6999 13.4729 31.0999 12.4365V16.9092C31.0999 17.4547 30.7181 17.8365 30.1726 17.8365C29.6272 17.8365 29.2454 17.4001 29.2454 16.9092V6.00013C29.2454 5.45467 29.5726 5.07286 30.1181 5.07286C30.6635 5.07286 31.0454 5.50922 31.0454 6.05467V6.76377C31.6454 5.7274 32.8454 5.01831 34.1545 5.01831C36.4454 5.01831 38.2999 6.9274 38.2999 9.60013C38.2999 12.3274 36.4454 14.1819 34.1545 14.1819Z" fill="black"/>
<path d="M43.6453 6.60013C42.0635 6.60013 40.918 7.96377 40.918 9.60013C40.918 11.3456 41.8453 12.6001 43.6453 12.6001C45.2817 12.6001 46.3726 11.1819 46.3726 9.60013C46.318 7.69104 45.2271 6.60013 43.6453 6.60013ZM48.2271 13.1456C48.2271 13.691 47.8453 14.0729 47.2998 14.0729C46.7544 14.0729 46.3726 13.6365 46.3726 13.1456V12.7092C45.8271 13.5274 44.7362 14.1819 43.4817 14.1819C40.6998 14.1819 39.0635 12.1092 39.0635 9.60013C39.0635 7.09104 40.8635 5.01831 43.6998 5.01831C46.5908 5.01831 48.2817 6.9274 48.2817 9.60013V13.1456H48.2271Z" fill="black"/>
<path d="M53.8456 4.96368C56.2455 4.96368 58.0455 6.81823 58.0455 9.16368V13.1455C58.0455 13.691 57.6092 14.0728 57.1182 14.0728C56.5728 14.0728 56.191 13.6364 56.191 13.1455V8.9455C56.191 7.69096 55.2092 6.70914 53.9001 6.70914C52.591 6.70914 51.6092 7.69096 51.6092 8.9455V13.1455C51.6092 13.691 51.1728 14.0728 50.6819 14.0728C50.1365 14.0728 49.7547 13.6364 49.7547 13.1455V9.16368C49.7001 6.81823 51.4456 4.96368 53.8456 4.96368Z" fill="black"/>
<path d="M63.6636 6.49096C62.3 6.49096 61.3727 7.47277 61.1546 8.72732H66.0636C65.9 7.47277 65.0273 6.49096 63.6636 6.49096ZM67.8091 9.60005C67.8091 9.92732 67.6455 10.2546 67.1 10.2546H61.1546C61.2636 11.6182 62.1909 12.6546 63.8273 12.6546C64.8636 12.6546 65.4636 12.2728 66.1182 11.6728C66.2818 11.5091 66.5 11.3455 66.7182 11.3455C67.1546 11.3455 67.4818 11.6728 67.4818 12.1091C67.4818 12.3273 67.3727 12.491 67.2636 12.6546C66.5 13.5273 65.1364 14.1273 63.7182 14.1273C60.7182 14.1273 59.1909 12.0546 59.1909 9.5455C59.1909 6.92732 61.1 4.96368 63.6636 4.96368C66.1727 4.96368 67.8091 7.03641 67.8091 9.60005Z" fill="black"/>
<path d="M70.0454 14.0726C69.5 14.0726 69.1182 13.6363 69.1182 13.1454V1.36355C69.1182 0.818095 69.5 0.436279 70.0454 0.436279C70.5909 0.436279 70.9727 0.87264 70.9727 1.36355V13.1454C70.9727 13.6363 70.5909 14.0726 70.0454 14.0726Z" fill="black"/>
</g>
<defs>
<clipPath id="clip0_1320_11928">
<rect width="70.9091" height="24" fill="white" transform="translate(0.390869)"/>
</clipPath>
</defs>
</svg>
