<svg width="133" height="24" viewBox="0 0 133 24" fill="none" xmlns="http://www.w3.org/2000/svg">
<g clip-path="url(#clip0_1320_11828)">
<path d="M3.03361 18.9694C2.5478 18.9705 2.07041 18.8426 1.65022 18.5987C1.23003 18.3549 0.882096 18.0039 0.64196 17.5816C0.405502 17.1623 0.287573 16.6865 0.300808 16.2053C0.314043 15.7241 0.457942 15.2555 0.717091 14.8498L5.64232 7.11551C5.8944 6.69983 6.25229 6.35852 6.67943 6.12643C7.1066 5.89433 7.5877 5.77978 8.0736 5.79447C8.55917 5.8061 9.0329 5.94654 9.44635 6.20139C9.8598 6.45625 10.1981 6.81636 10.4266 7.24491C10.8858 8.11309 10.8284 9.1576 10.2785 9.97256L5.35641 17.7068C5.10678 18.0958 4.76304 18.4154 4.35699 18.6361C3.95094 18.8568 3.49576 18.9715 3.03361 18.9694Z" fill="#F62B54"/>
<path d="M11.4815 18.9694C10.4881 18.9694 9.57404 18.4383 9.09404 17.5847C8.85811 17.1665 8.74045 16.692 8.75369 16.212C8.76691 15.732 8.91054 15.2647 9.16917 14.8602L14.085 7.14366C14.3334 6.72213 14.69 6.37475 15.1178 6.13752C15.5457 5.90026 16.0293 5.78181 16.5184 5.79443C17.5201 5.81634 18.428 6.3767 18.8871 7.25324C19.3431 8.12974 19.2763 9.18052 18.7097 9.99339L13.7949 17.7099C13.5461 18.0972 13.2037 18.4156 12.7994 18.6357C12.3951 18.8559 11.9419 18.9706 11.4815 18.9694Z" fill="#FFCC00"/>
<path d="M19.7407 19.0341C21.1411 19.0341 22.2764 17.9227 22.2764 16.5517C22.2764 15.1807 21.1411 14.0693 19.7407 14.0693C18.3403 14.0693 17.2051 15.1807 17.2051 16.5517C17.2051 17.9227 18.3403 19.0341 19.7407 19.0341Z" fill="#00CA72"/>
<path d="M129.897 14.2133C130.662 14.2133 131.121 14.758 131.121 15.6501V18.7075H132.161V15.5802C132.161 14.063 131.446 13.1834 130.102 13.1834C129.576 13.1834 128.741 13.3274 128.244 14.2947C128.128 14.0094 127.937 13.7607 127.691 13.5751C127.446 13.3896 127.155 13.274 126.849 13.2407C126.656 13.2055 126.46 13.1939 126.264 13.2063C125.836 13.2407 125.075 13.5068 124.79 14.11V13.2992H123.748V18.7075H124.79V15.7889C124.79 14.6536 125.533 14.2133 126.277 14.2133C126.974 14.2133 127.432 14.7465 127.432 15.6387V18.7075H128.467V15.7889C128.467 14.8853 129.01 14.2028 129.897 14.2133ZM119.926 17.8039C120.402 17.8143 120.861 17.6244 121.194 17.28C121.528 16.9357 121.705 16.4672 121.688 15.9861C121.688 14.8967 120.886 14.2133 119.926 14.2133C118.965 14.2133 118.165 14.8967 118.165 15.9861C118.146 16.4661 118.323 16.9336 118.655 17.2769C118.987 17.6213 119.444 17.8122 119.918 17.8039H119.926ZM119.926 18.8181C118.405 18.8181 117.135 17.6943 117.135 15.9799C117.135 14.2654 118.405 13.1771 119.926 13.1771C121.448 13.1771 122.728 14.2654 122.728 15.9799C122.728 17.6943 121.44 18.8234 119.919 18.8234L119.926 18.8181ZM111.777 15.9799L111.766 15.9861C111.766 14.2717 113.069 13.1834 114.601 13.1771C114.986 13.1696 115.368 13.2431 115.723 13.3926C116.077 13.5422 116.397 13.7645 116.66 14.0453L115.871 14.7173C115.704 14.5527 115.505 14.423 115.287 14.3356C115.069 14.2482 114.836 14.2049 114.601 14.208C113.641 14.208 112.806 14.8915 112.806 15.9799C112.806 16.7155 113.244 17.3781 113.915 17.6599C114.586 17.9416 115.358 17.7851 115.871 17.2654L116.672 17.9374C116.407 18.2211 116.087 18.446 115.73 18.5978C115.373 18.7495 114.989 18.8246 114.601 18.8181C113.081 18.8181 111.777 17.6943 111.777 15.9799ZM108.445 17.6693C108.444 17.5747 108.461 17.4809 108.496 17.3931C108.532 17.3053 108.584 17.2253 108.65 17.1577C108.716 17.09 108.794 17.0361 108.881 16.9989C108.968 16.9617 109.062 16.942 109.156 16.9409C109.251 16.942 109.344 16.9617 109.431 16.9989C109.518 17.0361 109.597 17.09 109.663 17.1577C109.729 17.2253 109.781 17.3053 109.816 17.3931C109.852 17.4809 109.869 17.5747 109.868 17.6693C109.859 17.8524 109.78 18.0251 109.648 18.1521C109.515 18.2791 109.34 18.3509 109.156 18.3527C108.973 18.3509 108.797 18.2791 108.665 18.1521C108.533 18.0251 108.454 17.8524 108.445 17.6693Z" fill="#333333"/>
<path fill-rule="evenodd" clip-rule="evenodd" d="M111.291 6.42364H107.586L104.989 13.1196L102.405 6.42364H98.6998L103.204 17.0045L100.403 24H104.081L111.291 6.42364ZM88.7564 12.3089C88.7564 13.9993 90.234 15.1116 91.6853 15.1116C93.1117 15.1116 94.5133 14.0765 94.5133 12.3078C94.5133 10.5391 93.1117 9.50296 91.6853 9.50296C90.234 9.50296 88.7564 10.6164 88.7564 12.3078V12.3089ZM94.5133 18.217V16.8783C93.762 18.0156 92.0089 18.4456 91.1093 18.4456C88.1313 18.4456 85.1522 16.0977 85.1522 12.3078C85.1522 8.51896 88.1302 6.17113 91.1093 6.17113C91.8598 6.17113 93.6126 6.42155 94.5133 7.73636V6.42782H97.9671V18.2191L94.5133 18.2181V18.217ZM84.1693 18.217H80.7153V16.752C80.1382 17.8372 78.7388 18.4696 77.2864 18.4696C74.2822 18.4696 71.6286 16.0706 71.6286 12.3558C71.6286 8.57113 74.2822 6.16904 77.2864 6.16904C78.7369 6.16904 80.1404 6.77427 80.7153 7.86051V0H84.1693V18.217ZM80.6402 12.2817C80.6402 10.5141 79.364 9.47791 77.9375 9.47791C76.46 9.47791 75.2329 10.5892 75.2329 12.2817C75.2329 14.0285 76.46 15.1346 77.9364 15.1346C79.3902 15.1367 80.6402 13.9743 80.6402 12.2817ZM63.0889 11.977C63.0889 10.1844 64.0156 9.57809 65.2415 9.57809C66.4175 9.57809 67.2691 10.3607 67.2691 11.9259V18.215H70.748V11.1694C70.748 7.81149 69.0951 6.16904 66.4667 6.16904C65.0902 6.16904 63.714 6.95164 63.0877 8.13913V6.42364H59.6108V18.215H63.0889V11.977ZM52.5467 18.4174C49.2428 18.4174 46.4871 15.9934 46.4871 12.2807C46.4871 8.56591 49.2397 6.16591 52.5467 6.16591C55.8533 6.16591 58.6302 8.56591 58.6302 12.2807C58.6302 15.9955 55.8502 18.4184 52.5467 18.4184V18.4174ZM52.5467 14.9844C53.9971 14.9844 55.2002 13.9221 55.2002 12.2817C55.2002 10.6904 53.9982 9.60418 52.5467 9.60418C52.1971 9.5987 51.8501 9.66443 51.5268 9.79737C51.2035 9.9303 50.9107 10.1277 50.6662 10.3774C50.4203 10.6285 50.2274 10.9264 50.0987 11.2536C49.9702 11.5807 49.9089 11.9304 49.9182 12.2817C49.9191 13.9242 51.1202 14.9844 52.5467 14.9844ZM40.2502 9.57913C41.276 9.57913 42.1775 10.3878 42.1775 11.927V18.217H45.6316V11.52C45.6316 7.95964 43.9004 6.16696 41.1258 6.16696C40.3013 6.16696 38.7486 6.4174 37.6218 8.26227C36.9707 6.89845 35.7196 6.19096 33.8704 6.19096C33.2284 6.18768 32.5993 6.36937 32.0577 6.7143C31.5162 7.05925 31.0856 7.5528 30.8173 8.136V6.42469H27.3362V18.216H30.8142V11.977C30.8142 10.1844 31.7909 9.57809 32.8415 9.57809C33.8433 9.57809 34.7429 10.3607 34.7689 11.8508V18.216H38.2477V11.977C38.2477 10.2626 39.1493 9.58018 40.2502 9.58018V9.57913Z" fill="#333333"/>
</g>
<defs>
<clipPath id="clip0_1320_11828">
<rect width="132.141" height="24" fill="white" transform="translate(0.299805)"/>
</clipPath>
</defs>
</svg>
