<svg width="71" height="24" viewBox="0 0 71 24" fill="none" xmlns="http://www.w3.org/2000/svg">
<g clip-path="url(#clip0_1320_11630)">
<path d="M1.88516 1.035L15.1652 0.0541947C16.7964 -0.0858053 17.2156 0.00859475 18.2412 0.754195L22.4804 3.7406C23.1796 4.2542 23.4124 4.3942 23.4124 4.9534V21.3318C23.4124 22.3582 23.0396 22.9654 21.7348 23.0582L6.31316 23.9918C5.33396 24.0382 4.86756 23.8982 4.35476 23.2446L1.23316 19.1854C0.673162 18.4382 0.441162 17.879 0.441162 17.2254V2.667C0.441162 1.8278 0.813962 1.1278 1.88516 1.035Z" fill="white"/>
<path fill-rule="evenodd" clip-rule="evenodd" d="M15.1652 0.0541947L1.88516 1.035C0.813962 1.1278 0.441162 1.8278 0.441162 2.667V17.2254C0.441162 17.879 0.673162 18.4382 1.23316 19.1854L4.35476 23.2446C4.86756 23.8982 5.33396 24.0382 6.31316 23.9918L21.7348 23.0582C23.0388 22.9654 23.4124 22.3582 23.4124 21.3318V4.9534C23.4124 4.423 23.2028 4.2702 22.586 3.8174C22.5504 3.79183 22.515 3.76623 22.4796 3.7406L18.2412 0.754195C17.2156 0.00859475 16.7964 -0.0858053 15.1652 0.0541947ZM6.66196 4.6854C5.40276 4.7702 5.11716 4.7894 4.40196 4.2078L2.58356 2.7614C2.39876 2.5742 2.49156 2.3406 2.95716 2.2942L15.7236 1.3614C16.7956 1.2678 17.354 1.6414 17.7732 1.9678L19.9628 3.5542C20.0564 3.6014 20.2892 3.8806 20.0092 3.8806L6.82516 4.6742L6.66196 4.6854ZM5.19396 21.1918V7.2878C5.19396 6.6806 5.38036 6.4006 5.93876 6.3534L21.0812 5.467C21.5948 5.4206 21.8268 5.747 21.8268 6.3534V20.1646C21.8268 20.7718 21.7332 21.2854 20.8948 21.3318L6.40436 22.1718C5.56596 22.2182 5.19396 21.939 5.19396 21.1918ZM19.498 8.03343C19.5908 8.45343 19.498 8.87343 19.078 8.92143L18.3796 9.05983V19.3254C17.7732 19.6518 17.2148 19.8382 16.7484 19.8382C16.0028 19.8382 15.8164 19.6046 15.258 18.9054L10.6908 11.7198V18.6718L12.1356 18.999C12.1356 18.999 12.1356 19.839 10.97 19.839L7.75636 20.0254C7.66276 19.8382 7.75636 19.3718 8.08196 19.279L8.92116 19.0462V9.85423L7.75636 9.75983C7.66276 9.33983 7.89556 8.73343 8.54836 8.68623L11.9964 8.45423L16.7484 15.7326V9.29343L15.5372 9.15423C15.4436 8.63983 15.8164 8.26623 16.282 8.22063L19.498 8.03343Z" fill="black"/>
<path d="M33.5886 17.0008V10.6728H33.6982L38.2614 17.0008H39.6982V7.70161H38.1006V14.0232H37.991L33.4278 7.70161H31.9854V17H33.5894L33.5886 17.0008ZM44.2134 17.1432C46.3214 17.1432 47.6038 15.764 47.6038 13.476C47.6038 11.1944 46.315 9.80878 44.2134 9.80878C42.119 9.80878 40.8238 11.2008 40.8238 13.476C40.8238 15.764 42.0998 17.1432 44.2134 17.1432ZM44.2134 15.8024C43.099 15.8024 42.4614 14.952 42.4614 13.476C42.4614 12.0064 43.099 11.1496 44.2134 11.1496C45.3222 11.1496 45.9598 12.0064 45.9598 13.476C45.9598 14.952 45.3286 15.8024 44.2134 15.8024ZM49.0638 8.22398V9.99598H47.9494V11.272H49.0638V15.1192C49.0638 16.4856 49.7086 17.0336 51.3262 17.0336C51.635 17.0336 51.9318 17.0016 52.1638 16.956V15.7056C51.9702 15.7248 51.8478 15.7376 51.6222 15.7376C50.9526 15.7376 50.6558 15.4288 50.6558 14.7328V11.272H52.1638V9.99598H50.6558V8.22318H49.0638V8.22398ZM53.1214 17.0008H54.7134V9.95038H53.1214V17.0008ZM53.9142 8.78478C54.4422 8.78478 54.8678 8.35838 54.8678 7.82401C54.8678 7.28881 54.443 6.85681 53.9142 6.85681C53.3926 6.85681 52.9606 7.28881 52.9606 7.82401C52.9606 8.35838 53.3926 8.78398 53.9142 8.78398V8.78478ZM59.0806 17.1432C61.1878 17.1432 62.4702 15.764 62.4702 13.476C62.4702 11.1944 61.1814 9.80878 59.0806 9.80878C56.9854 9.80878 55.6902 11.2008 55.6902 13.476C55.6902 15.764 56.9662 17.1432 59.0806 17.1432ZM59.0806 15.8024C57.9654 15.8024 57.327 14.952 57.327 13.476C57.327 12.0064 57.9654 11.1496 59.0806 11.1496C60.1886 11.1496 60.827 12.0064 60.827 13.476C60.827 14.952 60.195 15.8024 59.0806 15.8024ZM63.4214 17.0008H65.0198V12.896C65.0198 11.8584 65.6198 11.2008 66.5726 11.2008C67.5462 11.2008 67.9966 11.7424 67.9966 12.8184V17.0008H69.5958V12.4384C69.5958 10.756 68.7382 9.80878 67.1662 9.80878C66.115 9.80878 65.4062 10.292 65.071 11.0784H64.9614V9.95038H63.4214V17.0008Z" fill="black"/>
</g>
<defs>
<clipPath id="clip0_1320_11630">
<rect width="69.6" height="24" fill="white" transform="translate(0.441162)"/>
</clipPath>
</defs>
</svg>
