<svg width="99" height="24" viewBox="0 0 99 24" fill="none" xmlns="http://www.w3.org/2000/svg">
<g clip-path="url(#clip0_1320_11423)">
<path fill-rule="evenodd" clip-rule="evenodd" d="M76.2093 10.5729C75.9145 12.5091 74.4357 12.5091 73.0057 12.5091H72.1917L72.7625 8.89408C72.7969 8.67568 72.9853 8.51468 73.2069 8.51468H73.5797C74.5533 8.51468 75.4729 8.51468 75.9473 9.06936C76.2309 9.40124 76.3165 9.89312 76.2093 10.5729ZM75.5869 5.52148H70.1929C69.8241 5.52148 69.5101 5.78984 69.4525 6.1542L67.2717 19.9852C67.2285 20.258 67.4393 20.5048 67.7157 20.5048H70.4833C70.7413 20.5048 70.9613 20.3169 71.0013 20.0618L71.6198 16.1409C71.6774 15.7765 71.9913 15.5082 72.3601 15.5082H74.0669C77.6197 15.5082 79.6705 13.7886 80.2065 10.3809C80.4477 8.89044 80.2161 7.71932 79.5181 6.89944C78.7509 5.99808 77.3917 5.52148 75.5869 5.52148Z" fill="#2790C3"/>
<path fill-rule="evenodd" clip-rule="evenodd" d="M37.7377 10.5729C37.4429 12.5091 35.9641 12.5091 34.5341 12.5091H33.7202L34.2909 8.89408C34.3256 8.67568 34.514 8.51468 34.735 8.51468H35.1081C36.0817 8.51468 37.0015 8.51468 37.4754 9.06936C37.7593 9.40124 37.8451 9.89312 37.7377 10.5729ZM37.1154 5.52148H31.7212C31.3525 5.52148 31.0386 5.78984 30.9811 6.1542L28.7998 19.9852C28.7568 20.258 28.9678 20.5048 29.2439 20.5048H31.8194C32.1881 20.5048 32.5023 20.2364 32.5598 19.8723L33.1484 16.1409C33.2056 15.7765 33.5198 15.5082 33.8885 15.5082H35.5954C39.1481 15.5082 41.1987 13.7886 41.7347 10.3809C41.9759 8.89044 41.7447 7.71932 41.0467 6.89944C40.2791 5.99808 38.9198 5.52148 37.1154 5.52148Z" fill="#27346A"/>
<path fill-rule="evenodd" clip-rule="evenodd" d="M49.6378 15.5382C49.3882 17.014 48.2166 18.0048 46.7222 18.0048C45.9734 18.0048 45.3734 17.7639 44.9882 17.3076C44.6062 16.8553 44.4622 16.2109 44.5834 15.4933C44.8158 14.0308 46.0062 13.008 47.4778 13.008C48.2114 13.008 48.8066 13.2514 49.1998 13.7118C49.5958 14.1755 49.751 14.8242 49.6378 15.5382ZM53.2374 10.511H50.6546C50.433 10.511 50.245 10.6718 50.2102 10.8906L50.0966 11.6128L49.9162 11.351C49.357 10.5392 48.1102 10.2679 46.8654 10.2679C44.0118 10.2679 41.5742 12.4303 41.0998 15.4633C40.853 16.9762 41.2034 18.422 42.0614 19.4313C42.8494 20.3585 43.9742 20.7445 45.3142 20.7445C47.6146 20.7445 48.8902 19.2669 48.8902 19.2669L48.7746 19.9847C48.7318 20.2577 48.9426 20.5047 49.219 20.5047H51.545C51.9138 20.5047 52.2278 20.2366 52.285 19.8722L53.6814 11.0305C53.7246 10.7576 53.5138 10.511 53.2374 10.511Z" fill="#27346A"/>
<path fill-rule="evenodd" clip-rule="evenodd" d="M88.1093 15.5382C87.8601 17.014 86.6885 18.0048 85.1941 18.0048C84.4449 18.0048 83.8453 17.7639 83.4597 17.3076C83.0777 16.8553 82.9341 16.2109 83.0553 15.4933C83.2877 14.0308 84.4781 13.008 85.9497 13.008C86.6829 13.008 87.2785 13.2514 87.6717 13.7118C88.0673 14.1755 88.2225 14.8242 88.1093 15.5382ZM91.7089 10.511H89.1261C88.9049 10.511 88.7165 10.6718 88.6821 10.8906L88.5685 11.6128L88.3881 11.351C87.8285 10.5392 86.5821 10.2679 85.3369 10.2679C82.4837 10.2679 80.0461 12.4303 79.5717 15.4633C79.3249 16.9762 79.6753 18.422 80.5329 19.4313C81.3213 20.3585 82.4461 20.7445 83.7861 20.7445C86.0861 20.7445 87.3617 19.2669 87.3617 19.2669L87.2465 19.9847C87.2033 20.2577 87.4141 20.5047 87.6909 20.5047H90.0165C90.3853 20.5047 90.6993 20.2366 90.7569 19.8722L92.1529 11.0305C92.1961 10.7576 91.9853 10.511 91.7089 10.511Z" fill="#2790C3"/>
<mask id="mask0_1320_11423" style="mask-type:alpha" maskUnits="userSpaceOnUse" x="0" y="0" width="99" height="24">
<path d="M0.0554199 24H98.139V0.199036H0.0554199V24Z" fill="white"/>
</mask>
<g mask="url(#mask0_1320_11423)">
<path fill-rule="evenodd" clip-rule="evenodd" d="M66.9934 10.511H64.3975C64.1495 10.511 63.917 10.6342 63.7774 10.8395L60.1967 16.114L58.6786 11.0456C58.5838 10.7285 58.2918 10.511 57.961 10.511H55.409C55.1006 10.511 54.8838 10.8141 54.983 11.1057L57.8418 19.4965L55.153 23.2904C54.9418 23.5881 55.155 24 55.5198 24H58.1134C58.3594 24 58.5894 23.8795 58.7294 23.6773L67.3634 11.217C67.5698 10.9188 67.3566 10.511 66.9934 10.511Z" fill="#27346A"/>
<path fill-rule="evenodd" clip-rule="evenodd" d="M94.7535 5.90136L92.5395 19.9852C92.4967 20.2582 92.7075 20.5048 92.9839 20.5048H95.2103C95.5791 20.5048 95.8931 20.2364 95.9507 19.8723L98.1335 6.04124C98.1763 5.76828 97.9655 5.52148 97.6891 5.52148H95.1975C94.9763 5.52148 94.7879 5.68268 94.7535 5.90136Z" fill="#2790C3"/>
<path fill-rule="evenodd" clip-rule="evenodd" d="M10.2596 23.0194L10.9847 18.4216L11.0315 18.1668C11.0664 17.9452 11.1799 17.7426 11.3508 17.5966C11.5217 17.4507 11.7396 17.3702 11.9643 17.3702H12.5401C13.4999 17.3702 14.3815 17.2676 15.1609 17.0655C15.9925 16.85 16.7321 16.5142 17.359 16.0684C18.0237 15.5956 18.582 14.9845 19.0186 14.2524C19.4793 13.48 19.8174 12.5501 20.024 11.4888C20.2065 10.5515 20.2407 9.71252 20.126 8.99468C20.0046 8.2364 19.7125 7.58936 19.2579 7.07104C18.9823 6.75712 18.6295 6.48512 18.2097 6.26256L18.1997 6.25724L18.1995 6.24512C18.3461 5.3096 18.3406 4.52924 18.1828 3.85747C18.0242 3.18426 17.7033 2.57844 17.2007 2.00583C16.1595 0.819409 14.2657 0.217712 11.5721 0.217712H4.1745C3.92725 0.217712 3.68725 0.306198 3.49913 0.466925C3.31101 0.627653 3.1864 0.850925 3.14761 1.09529L0.0673709 20.6282C0.0392497 20.8063 0.0904013 20.9874 0.207734 21.1241C0.325068 21.2616 0.495736 21.3404 0.676096 21.3404H5.26542L5.2613 21.3622L4.94614 23.3608C4.9219 23.5161 4.9665 23.6737 5.06858 23.793C5.17062 23.9125 5.31926 23.9814 5.47634 23.9814H9.32554C9.54154 23.9814 9.75078 23.904 9.9149 23.7636C10.079 23.6233 10.1881 23.4286 10.2218 23.2155L10.2596 23.0194Z" fill="#27346A"/>
<path fill-rule="evenodd" clip-rule="evenodd" d="M7.6225 6.27053C7.67122 5.96097 7.86978 5.70765 8.13718 5.57941C8.25886 5.52121 8.39462 5.48873 8.53694 5.48873H14.3355C15.0225 5.48873 15.663 5.53381 16.2487 5.62813C16.416 5.65505 16.5786 5.68605 16.7369 5.72121C16.8952 5.75637 17.0487 5.79541 17.1973 5.83905C17.2717 5.86061 17.3447 5.88341 17.4167 5.90741C17.7042 6.00293 17.9718 6.11541 18.2181 6.24581C18.5086 4.39441 18.2162 3.13455 17.2147 1.99346C16.1122 0.737216 14.1205 0.199036 11.5721 0.199036H4.1745C3.65378 0.199036 3.21038 0.577944 3.12917 1.09237L0.0489261 20.6252C-0.0119224 21.0107 0.286017 21.3591 0.67608 21.3591H5.24286L7.6225 6.27053Z" fill="#27346A"/>
<path fill-rule="evenodd" clip-rule="evenodd" d="M18.2182 6.24579C18.1961 6.38711 18.1717 6.53087 18.1426 6.67899C17.1673 11.6877 13.8296 13.4193 9.56682 13.4193H7.39614C6.87542 13.4193 6.43566 13.7985 6.35446 14.3129L4.92778 23.358C4.8747 23.695 5.1353 24 5.47638 24H9.32586C9.78138 24 10.1693 23.6686 10.2403 23.2184L10.2781 23.0227L11.0032 18.4245L11.05 18.1704C11.121 17.7202 11.5089 17.3888 11.9644 17.3888H12.5401C16.2694 17.3888 19.1894 15.8737 20.0427 11.4921C20.3991 9.66131 20.2148 8.13307 19.272 7.05863C18.9869 6.73379 18.632 6.46495 18.2182 6.24579Z" fill="#2790C3"/>
<path fill-rule="evenodd" clip-rule="evenodd" d="M17.1972 5.83899C17.0486 5.79535 16.8951 5.75635 16.7368 5.72119C16.5785 5.68603 16.4158 5.65499 16.2486 5.62811C15.6629 5.53379 15.0224 5.48871 14.3353 5.48871H8.53681C8.39449 5.48871 8.25873 5.52119 8.13705 5.57935C7.86965 5.70763 7.67109 5.96095 7.62237 6.27051L6.38989 14.0848L6.35425 14.3129C6.43545 13.7985 6.87521 13.4193 7.39593 13.4193H9.56661C13.8294 13.4193 17.1671 11.6877 18.1424 6.67899C18.1715 6.53087 18.1959 6.38711 18.218 6.24579C17.9717 6.11535 17.7041 6.00287 17.4166 5.90735C17.3446 5.88335 17.2716 5.86059 17.1972 5.83899Z" fill="#1F264F"/>
</g>
</g>
<defs>
<clipPath id="clip0_1320_11423">
<rect width="98.4" height="24" fill="white" transform="translate(0.0410156)"/>
</clipPath>
</defs>
</svg>
