<svg width="105" height="24" viewBox="0 0 105 24" fill="none" xmlns="http://www.w3.org/2000/svg">
<g clip-path="url(#clip0_1320_11440)">
<path fill-rule="evenodd" clip-rule="evenodd" d="M81.1104 16.5502C83.7825 16.5502 85.956 14.4199 85.956 11.8015C85.956 9.18297 83.7825 7.05273 81.1104 7.05273C78.4387 7.05273 76.2648 9.18297 76.2648 11.8015C76.2648 14.4199 78.4387 16.5502 81.1104 16.5502ZM85.956 0H86.0875H88.2518V18.816H85.956V16.9373C84.6312 18.1407 82.9228 18.7999 81.1104 18.7999C77.1729 18.7999 73.9694 15.6604 73.9694 11.8015C73.9694 7.94237 77.1729 4.80298 81.1104 4.80298C82.9228 4.80298 84.6312 5.46211 85.956 6.66562V0ZM33.5024 16.4673C36.1742 16.4673 38.3479 14.3371 38.3479 11.7186C38.3479 9.10017 36.1742 6.96994 33.5024 6.96994C30.8304 6.96994 28.6567 9.10017 28.6567 11.7186C28.6567 14.3371 30.8304 16.4673 33.5024 16.4673ZM28.6567 6.58296C29.9816 5.37946 31.6903 4.72022 33.5024 4.72022C37.44 4.72022 40.6435 7.85971 40.6435 11.7186C40.6435 15.5775 37.44 18.717 33.5024 18.717C31.6903 18.717 29.9816 18.0579 28.6567 16.8543V23.52H26.3611V4.704H28.6567V6.58296ZM45.0236 10.6259C45.5403 8.49931 47.4654 6.97233 49.6612 6.97233C51.8284 6.97233 53.6438 8.46672 54.1276 10.6259H45.0236ZM49.6612 4.704C45.7826 4.704 42.6272 7.86945 42.6272 11.76C42.6272 15.6507 45.7826 18.816 49.6612 18.816C51.8332 18.816 53.8267 18.0003 55.1313 16.578L55.8091 15.8387L55.8964 15.7434L55.8014 15.6554L54.3278 14.2957L54.2328 14.2078L54.1449 14.3032L53.4672 15.0426C52.6027 15.9851 51.18 16.5478 49.6612 16.5478C47.4654 16.5478 45.5404 15.0208 45.0236 12.8941H56.5128V11.76C56.5128 7.80336 53.5032 4.704 49.6612 4.704ZM101.825 11.76C101.825 14.4 99.6518 16.5478 96.9796 16.5478C94.308 16.5478 92.134 14.4 92.134 11.76C92.134 9.12 94.308 6.97224 96.9796 6.97224C99.6518 6.97224 101.825 9.12 101.825 11.76ZM96.9796 4.704C93.0422 4.704 89.8387 7.86931 89.8387 11.76C89.8387 15.6507 93.0422 18.816 96.9796 18.816C100.918 18.816 104.121 15.6507 104.121 11.76C104.121 7.86931 100.918 4.704 96.9796 4.704ZM65.0424 4.704C63.4473 4.704 61.9276 5.31144 60.7315 6.42086V4.704H58.4966V18.816H60.7315V11.6144C60.7315 9.04507 62.6654 6.95462 65.0424 6.95462C67.4198 6.95462 69.3542 9.04507 69.3542 11.6144V18.816H71.5886V11.6144C71.5886 7.80403 68.652 4.704 65.0424 4.704Z" fill="#1A2022"/>
<path fill-rule="evenodd" clip-rule="evenodd" d="M0.441162 13.44H11.2411V24L22.0412 13.44V2.88H11.2411L0.441162 13.44Z" fill="#FF4876"/>
</g>
<defs>
<clipPath id="clip0_1320_11440">
<rect width="103.68" height="24" fill="white" transform="translate(0.441162)"/>
</clipPath>
</defs>
</svg>
