<svg width="117" height="24" viewBox="0 0 117 24" fill="none" xmlns="http://www.w3.org/2000/svg">
<g clip-path="url(#clip0_1320_11397)">
<path fill-rule="evenodd" clip-rule="evenodd" d="M10.9643 10.9108L11.1625 10.8554C12.6395 10.4126 14.0884 9.88084 15.5012 9.26307C16.9344 8.70039 18.2792 7.93407 19.4941 6.98769C20.784 5.96069 21.7548 4.58706 22.2928 3.02769C22.4089 2.771 22.494 2.50142 22.5464 2.22461C20.6053 4.87846 12.91 5.15538 12.91 5.15538L14.7266 3.48922C9.43985 3.50745 4.29094 5.17923 0 8.27076C2.90626 8.58241 5.63987 9.80522 7.81056 11.7646C8.85258 11.4415 9.91766 11.2108 10.9643 10.92V10.9108ZM23.0305 10.6477C18.1343 10.4206 13.2359 11.0452 8.55288 12.4938C9.53658 13.5213 10.3575 14.6933 10.9873 15.9692C14.865 13.8092 20.2411 11.0492 23.0305 10.6569V10.6477ZM11.4761 17.0723C11.936 18.257 12.2308 19.4994 12.3521 20.7646L19.116 13.8092L11.4761 17.0723ZM15.0263 20.4831V20.4092C15.0252 20.3795 15.0156 20.3507 14.9987 20.3261C14.9832 20.303 14.9573 20.2892 14.9295 20.2892H14.9894C15.0262 20.2647 15.0473 20.2226 15.0448 20.1785C15.0512 20.1189 15.0173 20.0624 14.9618 20.04C14.9146 20.0309 14.8661 20.0309 14.8188 20.04H14.6298V20.5615H14.7312V20.3723H14.805C14.8368 20.3645 14.87 20.3645 14.9018 20.3723C14.9334 20.3979 14.9492 20.4382 14.9433 20.4785V20.5569H15.0448L15.0263 20.4831ZM14.7266 20.0769H14.7912C14.8261 20.0688 14.8623 20.0688 14.8972 20.0769C14.9175 20.0918 14.9281 20.1166 14.9249 20.1415C14.9289 20.174 14.9096 20.2047 14.8788 20.2154C14.8513 20.2198 14.8233 20.2198 14.7958 20.2154H14.7266V20.04V20.0769Z" fill="#282828"/>
<path fill-rule="evenodd" clip-rule="evenodd" d="M15.1508 19.9246C15.0636 19.8314 14.9417 19.7785 14.8142 19.7785C14.6866 19.7785 14.5648 19.8314 14.4776 19.9246C14.3873 20.0132 14.3373 20.135 14.3393 20.2615C14.3373 20.3881 14.3873 20.5099 14.4776 20.5985C14.5648 20.6917 14.6866 20.7446 14.8142 20.7446C14.9417 20.7446 15.0636 20.6917 15.1508 20.5985C15.2439 20.5112 15.2967 20.3892 15.2967 20.2615C15.2967 20.1338 15.2439 20.0119 15.1508 19.9246ZM14.8142 20.6538C14.71 20.6552 14.6099 20.6134 14.5376 20.5385C14.3876 20.3843 14.3876 20.1387 14.5376 19.9846C14.6104 19.9102 14.7101 19.8682 14.8142 19.8682C14.9183 19.8682 15.018 19.9102 15.0908 19.9846C15.2408 20.1387 15.2408 20.3843 15.0908 20.5385C15.0184 20.6134 14.9183 20.6552 14.8142 20.6538Z" fill="#282828"/>
<path fill-rule="evenodd" clip-rule="evenodd" d="M64.1166 14.0446C63.0096 14.0446 61.9868 13.4535 61.4333 12.4938C60.8798 11.5342 60.8798 10.3519 61.4333 9.3923C61.9868 8.43268 63.0096 7.84153 64.1166 7.84153C65.8278 7.84153 67.215 9.23014 67.215 10.9431C67.215 12.656 65.8278 14.0446 64.1166 14.0446ZM64.1166 4.45846C61.4411 4.49016 59.0625 6.17088 58.1367 8.68385C57.2109 11.1968 57.9299 14.021 59.9442 15.784C61.9586 17.547 64.8506 17.8832 67.215 16.6292V17.4138C67.2125 19.1257 65.8267 20.5128 64.1166 20.5154C63.1846 20.5154 62.4291 21.2717 62.4291 22.2046C62.4291 23.1376 63.1846 23.8938 64.1166 23.8938C67.6761 23.8814 70.5592 20.9954 70.5716 17.4323V10.9708C70.5592 7.40769 67.6761 4.52169 64.1166 4.50923V4.45846ZM32.2197 14.0446C30.5085 14.0472 29.1192 12.6606 29.1166 10.9477C29.1141 9.23476 30.4992 7.84408 32.2104 7.84153C33.9216 7.83899 35.3109 9.22553 35.3134 10.9385C35.316 12.6514 33.9309 14.0421 32.2197 14.0446ZM32.2197 4.45846C28.6602 4.47092 25.7771 7.35692 25.7646 10.92V20.1508C25.7646 20.7543 26.0863 21.3119 26.6084 21.6137C27.1305 21.9154 27.7738 21.9154 28.2959 21.6137C28.8181 21.3119 29.1397 20.7543 29.1397 20.1508V16.6154C30.088 17.1353 31.1522 17.4068 32.2335 17.4046C35.81 17.4046 38.7092 14.5025 38.7092 10.9223C38.7092 7.34215 35.81 4.44 32.2335 4.44L32.2197 4.45846ZM50.3767 4.45846C46.8172 4.47092 43.9341 7.35692 43.9217 10.92V15.7108C43.9217 16.6437 44.6772 17.4 45.6092 17.4C46.5412 17.4 47.2967 16.6437 47.2967 15.7108V10.9431C47.2967 9.23269 48.6818 7.84615 50.3905 7.84615C52.0991 7.84615 53.4843 9.23269 53.4843 10.9431V15.7338C53.4517 16.3576 53.7656 16.9484 54.3004 17.2701C54.8352 17.5918 55.5038 17.5918 56.0386 17.2701C56.5734 16.9484 56.8873 16.3576 56.8547 15.7338V10.9431C56.8423 7.38 53.9592 4.494 50.3997 4.48153L50.3767 4.45846ZM91.6057 13.9892C89.8945 13.9918 88.5052 12.6052 88.5027 10.8923C88.5001 9.17937 89.8853 7.7887 91.5965 7.78615C93.3077 7.7836 94.6969 9.17014 94.6995 10.8831C94.702 12.596 93.3169 13.9867 91.6057 13.9892ZM91.6057 4.40307C88.0407 4.40307 85.1507 7.296 85.1507 10.8646C85.1507 14.4332 88.0407 17.3262 91.6057 17.3262C95.1707 17.3262 98.0607 14.4332 98.0607 10.8646C98.0483 7.30153 95.1652 4.41553 91.6057 4.40307ZM77.8611 14.0446C76.1499 14.0446 74.7627 12.656 74.7627 10.9431C74.7627 9.23014 76.1499 7.84153 77.8611 7.84153C79.5723 7.84153 80.9596 9.23014 80.9596 10.9431C80.957 12.655 79.5713 14.0421 77.8611 14.0446ZM82.6425 0.0276867C81.7105 0.0276867 80.9549 0.783981 80.9549 1.71692V5.2523C78.4031 3.86274 75.2383 4.3507 73.2225 6.44455C71.2066 8.53839 70.8364 11.7222 72.3179 14.2236C73.7993 16.725 76.7675 17.9276 79.57 17.1619C82.3725 16.3963 84.3188 13.851 84.3254 10.9431V1.7123C84.3254 0.779366 83.5699 0.0230713 82.6379 0.0230713L82.6425 0.0276867ZM41.1783 4.45846C40.2463 4.45846 39.4908 5.21475 39.4908 6.14769V15.7292C39.4908 16.6622 40.2463 17.4185 41.1783 17.4185C42.1103 17.4185 42.8658 16.6622 42.8658 15.7292V6.1523C42.8658 5.21937 42.1103 4.46307 41.1783 4.46307V4.45846ZM39.4908 1.71692C39.4908 2.64985 40.2463 3.40615 41.1783 3.40615C42.1103 3.40615 42.8658 2.64985 42.8658 1.71692C42.8658 0.783981 42.1103 0.0276867 41.1783 0.0276867C40.2463 0.0276867 39.4908 0.783981 39.4908 1.71692ZM107.734 17.3677C108.182 17.3677 108.612 17.1891 108.929 16.8713C109.245 16.5535 109.423 16.1227 109.422 15.6738V8.4923C109.422 8.1023 109.737 7.78615 110.127 7.78615C111.836 7.7887 113.221 9.17656 113.221 10.8877V15.6554C113.221 16.5883 113.976 17.3446 114.908 17.3446C115.84 17.3446 116.596 16.5883 116.596 15.6554V10.8877C116.583 7.32461 113.7 4.43861 110.141 4.42615C109.321 4.42399 108.508 4.58072 107.748 4.88769C106.987 4.58083 106.175 4.42411 105.355 4.42615C101.796 4.44138 98.9151 7.32554 98.8999 10.8877V15.6554C98.8999 16.5883 99.6554 17.3446 100.587 17.3446C101.519 17.3446 102.275 16.5883 102.275 15.6554V10.8877C102.275 9.17656 103.659 7.7887 105.369 7.78615C105.758 7.78615 106.074 8.1023 106.074 8.4923V15.6554C106.073 16.1042 106.25 16.535 106.567 16.8528C106.883 17.1706 107.313 17.3492 107.762 17.3492L107.734 17.3677Z" fill="#282828"/>
</g>
<defs>
<clipPath id="clip0_1320_11397">
<rect width="116.651" height="24" fill="white"/>
</clipPath>
</defs>
</svg>
