<svg width="99" height="24" viewBox="0 0 99 24" fill="none" xmlns="http://www.w3.org/2000/svg">
<g clip-path="url(#clip0_1320_11532)">
<path d="M39.277 8.63702H42.374V18.3648H39.277V8.63702Z" fill="#E60023"/>
<path d="M43.0205 8.63698H46.0035V9.96695H46.0604C46.7825 8.92192 47.7134 8.35205 49.0625 8.35205C51.1903 8.35205 52.4443 9.87195 52.4443 12.0379V18.3647H49.3474V12.6649C49.3474 11.6389 48.8344 10.9358 47.8274 10.9358C46.8015 10.9358 46.1174 11.791 46.1174 12.9879V18.3647H43.0205V8.63698Z" fill="#E60023"/>
<path d="M42.683 6.03446C42.683 5.00842 41.8513 4.17676 40.8253 4.17676C39.7994 4.17676 38.9677 5.00842 38.9677 6.03446C38.9677 7.0604 39.7994 7.89209 40.8253 7.89209C41.8513 7.89209 42.683 7.0604 42.683 6.03446Z" fill="#E60023"/>
<path d="M74.2256 8.49655C74.1372 8.48857 74.0359 8.48505 73.9173 8.48505C72.7393 8.48505 71.9414 8.99802 71.2574 10.157H71.2004V8.63702H68.2365V18.3647H71.3334V13.9948C71.3334 11.9701 72.4547 11.0319 74.2256 11.1956V8.49655Z" fill="#E60023"/>
<path d="M89.4236 12.2278C88.1883 11.9999 87.0865 11.9049 87.0865 11.2209C87.0865 10.6129 87.6753 10.328 88.4352 10.328C89.2902 10.328 89.8791 10.594 89.9933 11.4679H92.8434C92.6916 9.549 91.2094 8.35199 88.4544 8.35199C86.1556 8.35199 84.2555 9.41596 84.2555 11.4679C84.2555 13.7478 86.0605 14.2038 87.7513 14.4889C89.0433 14.7169 90.221 14.8118 90.221 15.6858C90.221 16.3128 89.6321 16.6548 88.7013 16.6548C87.7674 16.6548 87.1493 16.2596 86.9599 15.4578H84.0094C84.2264 17.4576 85.9815 18.6687 88.7204 18.6687C91.2661 18.6687 93.147 17.5668 93.147 15.4389C93.147 12.9499 91.1335 12.5129 89.4236 12.2278Z" fill="#E60023"/>
<path d="M79.0299 10.5559C80.0367 10.5559 80.7582 11.2969 80.8724 12.456H77.0347C77.2436 11.2969 77.8514 10.5559 79.0299 10.5559ZM79.2009 16.4267C77.9273 16.4267 77.2057 15.6098 77.0156 14.2988H84.0078C84.0262 12.323 83.4565 10.6319 82.2979 9.56801C81.4613 8.80807 80.3595 8.35199 78.9724 8.35199C76.0087 8.35199 73.9757 10.5749 73.9757 13.4819C73.9757 16.4267 75.9517 18.6498 79.1625 18.6498C80.3978 18.6498 81.3854 18.3268 82.2028 17.7568C83.0577 17.1678 83.6275 16.3318 83.8368 15.4579H80.8157C80.5496 16.0658 80.0175 16.4267 79.2009 16.4267Z" fill="#E60023"/>
<path d="M98.6018 16.0709C98.4585 16.0765 98.2652 16.0849 98.0881 16.0849C97.4233 16.0849 97.0054 15.8948 97.0054 15.1349V10.5749H98.6018V8.63699H97.0054V5.55908H93.9843V8.63699H93.0343V10.5749H93.9843V15.7998C93.9843 17.8899 95.2763 18.4788 97.0813 18.4788C97.7699 18.4788 98.2905 18.4272 98.6018 18.3665V16.0709Z" fill="#E60023"/>
<path d="M57.975 16.0753C57.8515 16.0801 57.7089 16.0849 57.5756 16.0849C56.9107 16.0849 56.4926 15.8948 56.4926 15.1349V10.5749H57.975V8.637H56.4926V5.55908H53.4717V8.637H52.4644V10.5749H53.4717V15.7998C53.4717 17.8899 54.7637 18.4788 56.5687 18.4788C57.1794 18.4788 57.6576 18.4381 57.975 18.3866V16.0753Z" fill="#E60023"/>
<path d="M64.7206 12.4559C64.6066 11.2969 63.8845 10.5558 62.8775 10.5558C61.6996 10.5558 61.0916 11.2969 60.8826 12.4559H64.7206ZM57.8237 13.4818C57.8237 10.5749 59.8567 8.35205 62.8206 8.35205C64.2075 8.35205 65.3096 8.80797 66.1455 9.568C67.3045 10.632 67.8744 12.3229 67.8554 14.2988H60.8638C61.0536 15.6098 61.7756 16.4268 63.0487 16.4268C63.8655 16.4268 64.3976 16.0658 64.6635 15.4578H67.6844C67.4754 16.3318 66.9056 17.1677 66.0504 17.7568C65.2336 18.3267 64.2456 18.6497 63.0106 18.6497C59.7996 18.6497 57.8237 16.4268 57.8237 13.4818Z" fill="#E60023"/>
<path d="M33.8986 11.164C35.1146 11.164 35.7986 10.442 35.7986 9.3589C35.7986 8.27599 35.0955 7.61102 33.8986 7.61102H31.5235V11.164H33.8986ZM28.3882 4.78009H33.7662C35.419 4.78009 36.6351 5.23604 37.471 6.03406C38.345 6.85095 38.8391 8.00999 38.8391 9.37791C38.8391 11.9809 37.0341 13.8239 34.2411 13.8239H31.5235V18.3647H28.3882V4.78009Z" fill="#E60023"/>
<path d="M24.1369 11.9808C24.1369 18.4385 18.9019 23.6734 12.4444 23.6734C5.98678 23.6734 0.751831 18.4385 0.751831 11.9808C0.751831 5.52319 5.98678 0.28833 12.4444 0.28833C18.9019 0.28833 24.1369 5.52319 24.1369 11.9808Z" fill="white"/>
<path d="M12.4444 0.288269C5.98678 0.288269 0.751831 5.52322 0.751831 11.9808C0.751831 16.9343 3.83378 21.169 8.1833 22.8726C8.08113 21.9475 7.98873 20.5247 8.22384 19.5148C8.4363 18.6023 9.59489 13.7029 9.59489 13.7029C9.59489 13.7029 9.24517 13.0024 9.24517 11.9669C9.24517 10.3411 10.1875 9.12726 11.3609 9.12726C12.3585 9.12726 12.8403 9.87616 12.8403 10.7743C12.8403 11.7775 12.2015 13.2774 11.872 14.6673C11.5965 15.8312 12.4556 16.7802 13.6034 16.7802C15.6815 16.7802 17.279 14.589 17.279 11.426C17.279 8.62632 15.2674 6.66897 12.395 6.66897C9.06804 6.66897 7.11528 9.16437 7.11528 11.7432C7.11528 12.7481 7.50241 13.8257 7.98547 14.4116C8.08103 14.5273 8.09502 14.6288 8.06656 14.7469C7.97781 15.1162 7.78055 15.9104 7.74183 16.073C7.69084 16.287 7.57238 16.3324 7.35078 16.2293C5.89046 15.5495 4.97742 13.4144 4.97742 11.6995C4.97742 8.01122 7.65729 4.62389 12.7032 4.62389C16.7592 4.62389 19.9114 7.51424 19.9114 11.377C19.9114 15.4067 17.3706 18.6497 13.844 18.6497C12.6591 18.6497 11.5453 18.0342 11.164 17.3071C11.164 17.3071 10.5777 19.5396 10.4356 20.0867C10.1717 21.1023 9.45902 22.3753 8.9824 23.1519C10.0764 23.4906 11.239 23.6733 12.4444 23.6733C18.902 23.6733 24.137 18.4383 24.137 11.9808C24.137 5.52322 18.902 0.288269 12.4444 0.288269Z" fill="#E60023"/>
</g>
<defs>
<clipPath id="clip0_1320_11532">
<rect width="98.0703" height="24" fill="white" transform="translate(0.651123)"/>
</clipPath>
</defs>
</svg>
