<svg width="80" height="24" viewBox="0 0 80 24" fill="none" xmlns="http://www.w3.org/2000/svg">
<g clip-path="url(#clip0_1320_11456)">
<path d="M28.2742 15.398V8.51885C28.2742 8.43568 28.3098 8.36439 28.3692 8.30499C28.4405 8.24558 28.5237 8.20994 28.6187 8.22182H30.5554C31.1257 8.19806 31.696 8.38816 32.1356 8.75647C32.5276 9.11291 32.7296 9.67132 32.7296 10.4317V10.5268C32.7296 11.2872 32.5276 11.8575 32.1237 12.2139C31.6722 12.5822 31.1019 12.7842 30.5197 12.7485H29.1415V15.398C29.1415 15.4931 29.094 15.5763 29.0108 15.6238C28.8207 15.7307 28.595 15.7307 28.4049 15.6238C28.3217 15.5763 28.2742 15.4931 28.2742 15.398ZM29.1296 12.0357H30.5197C30.888 12.0594 31.2563 11.9287 31.5177 11.6674C31.7791 11.3703 31.9098 10.9783 31.8742 10.5743V10.4555C31.9098 10.0634 31.7791 9.67132 31.5177 9.36241C31.2445 9.11291 30.888 8.98222 30.5197 9.00598H29.1415L29.1296 12.0357Z" fill="#FF6C37"/>
<path d="M35.7236 13.5327V10.4554C35.7236 9.68315 35.9256 9.12473 36.3177 8.7683C37.2682 8.05542 38.5751 8.05542 39.5256 8.7683C39.9296 9.12473 40.1316 9.69503 40.1316 10.4554V13.5327C40.1316 14.3049 39.9296 14.8633 39.5256 15.2198C38.5751 15.9445 37.2682 15.9445 36.3177 15.2198C35.9256 14.8633 35.7236 14.3049 35.7236 13.5327ZM36.591 13.5327C36.591 14.495 37.0306 14.9822 37.9335 14.9822C38.3018 15.0059 38.6583 14.8752 38.9316 14.6257C39.1929 14.3287 39.3118 13.9366 39.288 13.5327V10.4435C39.3236 10.0515 39.1929 9.65938 38.9316 9.35047C38.6583 9.10097 38.3018 8.97028 37.9335 8.99404C37.0424 8.99404 36.6028 9.46929 36.6028 10.4435L36.591 13.5327Z" fill="#FF6C37"/>
<path d="M43.1733 14.6495C43.1733 14.5307 43.2209 14.4238 43.2922 14.3287C43.3516 14.2456 43.4347 14.1862 43.5417 14.1743C43.6367 14.1862 43.7199 14.2337 43.7793 14.305C43.8743 14.3881 43.9694 14.4832 44.0763 14.5901C44.2189 14.7208 44.3852 14.8159 44.5634 14.8753C44.8011 14.9703 45.0624 15.006 45.312 15.006C45.6922 15.0297 46.0605 14.9109 46.3575 14.6852C46.6189 14.4475 46.7615 14.0911 46.7377 13.7347C46.7496 13.3901 46.6308 13.0693 46.3931 12.8198C46.1555 12.5822 45.8704 12.404 45.5496 12.2852C45.2169 12.1663 44.8961 12.0357 44.5516 11.8931C44.2189 11.7505 43.9337 11.5366 43.708 11.2515C43.4704 10.9307 43.3397 10.5386 43.3634 10.1347C43.3516 9.81386 43.4228 9.49307 43.5654 9.19604C43.6842 8.94653 43.8743 8.74455 44.112 8.60198C44.3377 8.47129 44.5753 8.37624 44.8248 8.30495C45.0862 8.24554 45.3476 8.2099 45.609 8.2099C46.0248 8.2099 46.4288 8.26931 46.8209 8.38812C47.2011 8.51881 47.403 8.68515 47.403 8.88713C47.403 8.99406 47.3674 9.10099 47.2961 9.19604C47.2486 9.29109 47.1417 9.36237 47.0347 9.36237C46.8803 9.31485 46.7258 9.25544 46.5714 9.18416C46.2743 9.05346 45.9535 8.98218 45.6209 8.99406C45.2763 8.98218 44.9199 9.06535 44.6228 9.24356C44.3615 9.42178 44.2189 9.73069 44.2426 10.0515C44.2308 10.3485 44.3496 10.6337 44.5753 10.8238C44.8248 11.0257 45.11 11.1921 45.4189 11.2871C45.7516 11.4059 46.0842 11.5366 46.4169 11.6911C46.7496 11.8574 47.0347 12.1069 47.2486 12.4159C47.4862 12.7961 47.605 13.2357 47.5931 13.6871C47.5931 14.3881 47.3912 14.9228 46.9753 15.2792C46.5238 15.6594 45.9417 15.8495 45.3476 15.8139C44.8129 15.8258 44.2783 15.6951 43.8149 15.4337C43.3872 15.1485 43.1733 14.899 43.1733 14.6495Z" fill="#FF6C37"/>
<path d="M50.1475 8.602C50.1475 8.50695 50.1712 8.4119 50.2306 8.34061C50.2782 8.25745 50.3613 8.2218 50.4564 8.2218H54.6148C54.7098 8.2218 54.793 8.25745 54.8405 8.34061C54.8999 8.4119 54.9237 8.50695 54.9237 8.602C54.9237 8.69705 54.8999 8.80398 54.8405 8.88715C54.793 8.97032 54.7098 9.00596 54.6148 9.00596H52.9871V15.398C52.9871 15.4931 52.9395 15.5763 52.8564 15.6238C52.6663 15.7307 52.4405 15.7307 52.2504 15.6238C52.1673 15.5763 52.1197 15.4931 52.1197 15.398V9.00596H50.4683C50.3732 9.00596 50.29 8.97032 50.2425 8.88715C50.1831 8.80398 50.1475 8.70893 50.1475 8.602Z" fill="#FF6C37"/>
<path d="M57.8465 15.398V8.66137C57.8109 8.45939 57.9535 8.26929 58.1554 8.23364C58.203 8.22176 58.2505 8.22176 58.2861 8.23364C58.5594 8.23364 58.7852 8.41186 58.9752 8.78018L60.5792 11.8574L62.1951 8.78018C62.397 8.42374 62.6228 8.23364 62.8842 8.23364C63.0861 8.198 63.2762 8.34057 63.3119 8.54255C63.3238 8.5782 63.3238 8.61384 63.3119 8.64948V15.3861C63.3119 15.4812 63.2644 15.5643 63.1812 15.6119C62.9911 15.7188 62.7654 15.7188 62.5753 15.6119C62.4921 15.5643 62.4446 15.4812 62.4446 15.3861V10.0277L60.9 12.9267C60.8525 13.0693 60.7218 13.1762 60.5673 13.1762C60.4248 13.1643 60.2941 13.0693 60.2465 12.9267L58.702 9.9683V15.3861C58.702 15.4812 58.6545 15.5643 58.5713 15.6119C58.4881 15.6713 58.3812 15.7069 58.2861 15.7069C58.1792 15.7069 58.0723 15.6832 57.9891 15.6238C57.8941 15.5881 57.8347 15.4931 57.8465 15.398Z" fill="#FF6C37"/>
<path d="M66.2466 15.3505C66.2466 15.3267 66.2585 15.2911 66.2703 15.2673L68.3614 8.53067C68.4208 8.32869 68.5991 8.23364 68.8842 8.23364C69.1694 8.23364 69.3476 8.32869 69.407 8.53067L71.51 15.3029V15.3386V15.3624C71.51 15.4693 71.4387 15.5643 71.3436 15.6119C71.2367 15.6831 71.106 15.7188 70.9634 15.7069C70.8327 15.7188 70.702 15.6475 70.6545 15.5168L70.203 14.0198H67.5179L67.0664 15.5168C67.0307 15.6475 66.8882 15.7307 66.7575 15.7188C66.6387 15.7188 66.5199 15.6831 66.4129 15.6119C66.306 15.5643 66.2466 15.4693 66.2466 15.3505ZM67.7317 13.3069H70.0248L68.8842 9.48117L67.7317 13.3069Z" fill="#FF6C37"/>
<path d="M74.4683 15.398V8.51883C74.4683 8.31685 74.6108 8.2218 74.896 8.2218C75.0267 8.2218 75.1574 8.26933 75.2643 8.3525C75.3831 8.47131 75.49 8.61388 75.5495 8.76834L78.1039 13.7584V8.51883C78.1039 8.42378 78.1514 8.34061 78.2346 8.30497C78.4247 8.19804 78.6504 8.19804 78.8405 8.30497C78.9237 8.3525 78.9712 8.43566 78.9712 8.51883V15.398C78.9712 15.4931 78.9237 15.5763 78.8405 15.6238C78.7455 15.6832 78.6504 15.7069 78.5435 15.7069C78.3059 15.6951 78.092 15.5406 78.0089 15.3149L75.3237 10.1703V15.398C75.3237 15.4931 75.2762 15.5763 75.2049 15.6238C75.0148 15.7307 74.7891 15.7307 74.599 15.6238C74.5158 15.5763 74.4683 15.4931 74.4683 15.398Z" fill="#FF6C37"/>
<path d="M24.3179 13.5089C25.1496 6.99799 20.5516 1.04551 14.0526 0.213829C7.55355 -0.617854 1.57731 3.98017 0.745628 10.4792C-0.0860548 16.9782 4.51197 22.9426 11.011 23.7861C17.5219 24.6178 23.4743 20.0198 24.3179 13.5089Z" fill="#FF6C37"/>
<path d="M16.8208 7.74656L11.8069 12.7604L10.3931 11.3466C15.3238 6.41587 15.8109 6.84359 16.8208 7.74656Z" fill="white"/>
<path d="M11.807 12.8792C11.7714 12.8792 11.7476 12.8673 11.7238 12.8436L10.2981 11.4297C10.2506 11.3822 10.2506 11.3109 10.2981 11.2634C15.312 6.24949 15.8347 6.72474 16.8922 7.67523C16.9159 7.699 16.9278 7.72276 16.9278 7.7584C16.9278 7.79405 16.9159 7.81781 16.8922 7.84157L11.8783 12.8436C11.8664 12.8673 11.8308 12.8792 11.807 12.8792ZM10.5595 11.3465L11.807 12.594L16.6427 7.7584C15.7635 6.97425 15.1694 6.73662 10.5595 11.3465Z" fill="#FF6C37"/>
<path d="M13.2445 14.198L11.8782 12.8317L16.892 7.81781C18.2346 9.17227 16.2267 11.3703 13.2445 14.198Z" fill="white"/>
<path d="M13.2445 14.3169C13.2089 14.3169 13.1851 14.305 13.1613 14.2812L11.795 12.9149C11.7712 12.8911 11.7712 12.8674 11.7712 12.8317C11.7712 12.7961 11.7831 12.7723 11.8069 12.7485L16.8207 7.73468C16.8683 7.68715 16.9395 7.68715 16.9871 7.73468C17.296 8.01983 17.4623 8.4238 17.4504 8.83964C17.4267 10.1585 15.9296 11.8337 13.3395 14.2812C13.3039 14.305 13.2683 14.3169 13.2445 14.3169ZM12.0445 12.8317C12.8049 13.604 13.1257 13.9129 13.2445 14.0317C15.2405 12.1307 17.1772 10.1822 17.1891 8.83964C17.2009 8.53073 17.0821 8.22181 16.8801 7.98418L12.0445 12.8317Z" fill="#FF6C37"/>
<path d="M10.4168 11.3822L11.4267 12.3921C11.4505 12.4158 11.4505 12.4396 11.4267 12.4634C11.4148 12.4752 11.4148 12.4752 11.4029 12.4752L9.31184 12.9267C9.20491 12.9386 9.10986 12.8673 9.0861 12.7604C9.07422 12.701 9.09798 12.6416 9.13362 12.6059L10.3455 11.394C10.3693 11.3703 10.4049 11.3584 10.4168 11.3822Z" fill="white"/>
<path d="M9.2762 13.0455C9.09798 13.0455 8.96729 12.9029 8.96729 12.7247C8.96729 12.6416 9.00293 12.5584 9.06234 12.499L10.2742 11.2871C10.3455 11.2277 10.4406 11.2277 10.5118 11.2871L11.5217 12.297C11.593 12.3564 11.593 12.4633 11.5217 12.5346C11.498 12.5584 11.4742 12.5703 11.4386 12.5822L9.34748 13.0336C9.32372 13.0336 9.29996 13.0455 9.2762 13.0455ZM10.3811 11.5129L9.21679 12.6772C9.19303 12.701 9.18115 12.7366 9.20491 12.7723C9.21679 12.8079 9.25243 12.8198 9.28808 12.8079L11.2485 12.3802L10.3811 11.5129Z" fill="#FF6C37"/>
<path d="M19.4703 4.96638C18.7099 4.22974 17.4861 4.25351 16.7495 5.02578C16.0128 5.79806 16.0366 7.00993 16.8089 7.74656C17.4386 8.3525 18.3891 8.45945 19.1376 8.00796L17.7831 6.65349L19.4703 4.96638Z" fill="white"/>
<path d="M18.1395 8.39999C17.0108 8.39999 16.0959 7.48514 16.0959 6.35643C16.0959 5.22772 17.0108 4.31287 18.1395 4.31287C18.6623 4.31287 19.1732 4.51485 19.5534 4.88316C19.5771 4.90693 19.589 4.93069 19.589 4.96633C19.589 5.00198 19.5771 5.02574 19.5534 5.0495L17.9494 6.65346L19.2088 7.91287C19.2563 7.96039 19.2563 8.03168 19.2088 8.0792C19.1969 8.09108 19.1969 8.09108 19.1851 8.10296C18.8761 8.29306 18.5078 8.39999 18.1395 8.39999ZM18.1395 4.56237C17.1415 4.56237 16.3336 5.37029 16.3455 6.36831C16.3455 7.36633 17.1534 8.17425 18.1514 8.16237C18.4247 8.16237 18.6979 8.10296 18.9474 7.97227L17.6999 6.73663C17.6761 6.71287 17.6643 6.6891 17.6643 6.65346C17.6643 6.61782 17.6761 6.59405 17.6999 6.57029L19.292 4.97821C18.9712 4.70495 18.5672 4.56237 18.1395 4.56237Z" fill="#FF6C37"/>
<path d="M19.506 5.00197L19.4822 4.97821L17.7832 6.65346L19.1258 7.99603C19.2565 7.91286 19.3872 7.81782 19.4941 7.71088C20.2545 6.96237 20.2545 5.75049 19.506 5.00197Z" fill="white"/>
<path d="M19.1376 8.12675C19.1019 8.12675 19.0782 8.11486 19.0544 8.0911L17.7 6.73664C17.6762 6.71288 17.6643 6.68913 17.6643 6.65349C17.6643 6.61784 17.6762 6.59408 17.7 6.57032L19.3871 4.88318C19.4346 4.83565 19.5059 4.83565 19.5534 4.88318L19.5891 4.90695C20.3851 5.70299 20.3851 6.98615 19.6009 7.79407C19.4821 7.91288 19.3514 8.01981 19.2089 8.10298C19.1732 8.11486 19.1495 8.12675 19.1376 8.12675ZM17.9495 6.65349L19.1495 7.85347C19.2445 7.79407 19.3396 7.71091 19.4108 7.63963C20.0881 6.9624 20.1237 5.85745 19.4702 5.14458L17.9495 6.65349Z" fill="#FF6C37"/>
<path d="M17.0226 7.96038C16.7375 7.67523 16.2741 7.67523 15.989 7.96038L11.5098 12.4396L12.2583 13.1881L16.9989 9.02969C17.3078 8.7683 17.3316 8.30494 17.0702 7.99603C17.0464 7.98415 17.0345 7.97226 17.0226 7.96038Z" fill="white"/>
<path d="M12.2465 13.307C12.2108 13.307 12.1871 13.2951 12.1633 13.2713L11.4148 12.5228C11.3673 12.4753 11.3673 12.404 11.4148 12.3565L15.894 7.87725C16.2267 7.54458 16.7613 7.54458 17.094 7.87725C17.4267 8.20992 17.4267 8.74458 17.094 9.07725C17.0821 9.08913 17.0702 9.101 17.0584 9.11288L12.3178 13.2713C12.3059 13.2951 12.2821 13.307 12.2465 13.307ZM11.6762 12.4396L12.2584 13.0218L16.9158 8.93466C17.1772 8.7208 17.2009 8.32872 16.9871 8.06734C16.7732 7.80595 16.3811 7.7822 16.1197 7.99606C16.1079 8.00794 16.096 8.01981 16.0722 8.03169L11.6762 12.4396Z" fill="#FF6C37"/>
<path d="M8.07629 17.5366C8.02877 17.5604 8.005 17.6079 8.01689 17.6554L8.21887 18.5109C8.26639 18.6297 8.1951 18.7722 8.06441 18.8079C7.96936 18.8435 7.86243 18.8079 7.80302 18.7366L6.49609 17.4416L10.7614 13.1762L12.2347 13.2L13.2327 14.198C12.9951 14.4 11.5575 15.7901 8.07629 17.5366Z" fill="white"/>
<path d="M7.98108 18.9267C7.88603 18.9267 7.79098 18.8911 7.73157 18.8198L6.43652 17.5248C6.41276 17.501 6.40088 17.4772 6.40088 17.4416C6.40088 17.4059 6.41276 17.3822 6.43652 17.3584L10.7019 13.0931C10.7256 13.0693 10.7613 13.0574 10.785 13.0574L12.2583 13.0812C12.2939 13.0812 12.3177 13.0931 12.3415 13.1168L13.3395 14.1149C13.3633 14.1386 13.3751 14.1743 13.3751 14.2099C13.3751 14.2456 13.3633 14.2693 13.3276 14.2931L13.2445 14.3644C11.985 15.4693 10.2741 16.5743 8.14741 17.6317L8.34939 18.4753C8.38504 18.6297 8.31375 18.796 8.17118 18.8792C8.09989 18.9149 8.04048 18.9267 7.98108 18.9267ZM6.67415 17.4416L7.89791 18.6535C7.93355 18.7129 8.00484 18.7366 8.06425 18.701C8.12365 18.6654 8.14741 18.5941 8.11177 18.5347L7.90979 17.6792C7.88603 17.5723 7.93355 17.4772 8.0286 17.4297C10.1316 16.3723 11.8306 15.2792 13.0781 14.198L12.1989 13.3188L10.8326 13.2951L6.67415 17.4416Z" fill="#FF6C37"/>
<path d="M5.48607 18.4634L6.50785 17.4416L8.02865 18.9624L5.60488 18.796C5.49795 18.7842 5.42667 18.6891 5.43855 18.5822C5.43855 18.5347 5.45043 18.4871 5.48607 18.4634Z" fill="white"/>
<path d="M8.02874 19.0693L5.59309 18.903C5.41488 18.8911 5.29606 18.7367 5.30795 18.5584C5.31983 18.4872 5.34359 18.4159 5.403 18.3683L6.42478 17.3466C6.4723 17.299 6.54359 17.299 6.59111 17.3466L8.11191 18.8673C8.14755 18.903 8.15943 18.9505 8.13567 18.998C8.11191 19.0456 8.07626 19.0693 8.02874 19.0693ZM6.50795 17.6079L5.56933 18.5466C5.53369 18.5703 5.53369 18.6297 5.56933 18.6535C5.58121 18.6654 5.59309 18.6772 5.61686 18.6772L7.71983 18.8198L6.50795 17.6079Z" fill="#FF6C37"/>
<path d="M10.3456 13.7228C10.2743 13.7228 10.2268 13.6634 10.2268 13.604C10.2268 13.5683 10.2387 13.5446 10.2625 13.5208L11.4149 12.3683C11.4625 12.3208 11.5337 12.3208 11.5813 12.3683L12.3298 13.1169C12.3654 13.1525 12.3773 13.1881 12.3654 13.2357C12.3535 13.2713 12.3179 13.307 12.2704 13.3188L10.3694 13.7228C10.3575 13.7228 10.3456 13.7228 10.3456 13.7228ZM11.4981 12.6179L10.7139 13.402L11.9971 13.1287L11.4981 12.6179Z" fill="#FF6C37"/>
<path d="M12.2346 13.2L10.9276 13.4852C10.8326 13.5089 10.7375 13.4495 10.7138 13.3545C10.7019 13.2951 10.7138 13.2357 10.7613 13.1881L11.486 12.4634L12.2346 13.2Z" fill="white"/>
<path d="M10.904 13.604C10.7376 13.604 10.6069 13.4733 10.6069 13.307C10.6069 13.2238 10.6426 13.1525 10.6901 13.0931L11.4149 12.3683C11.4624 12.3208 11.5337 12.3208 11.5812 12.3683L12.3297 13.1169C12.3653 13.1525 12.3772 13.1881 12.3654 13.2357C12.3535 13.2713 12.3178 13.307 12.2703 13.3188L10.9634 13.604C10.9396 13.604 10.9158 13.604 10.904 13.604ZM11.498 12.6179L10.8564 13.2594C10.8327 13.2832 10.8327 13.307 10.8446 13.3307C10.8564 13.3545 10.8802 13.3664 10.9158 13.3664L12.0089 13.1287L11.498 12.6179Z" fill="#FF6C37"/>
<path d="M19.5177 6.14256C19.494 6.07128 19.4108 6.03563 19.3395 6.05939C19.2682 6.08316 19.2326 6.16632 19.2563 6.23761C19.2563 6.24949 19.2682 6.26137 19.2682 6.27326C19.3395 6.41583 19.3157 6.59405 19.2207 6.72474C19.1732 6.78415 19.185 6.86732 19.2326 6.91484C19.292 6.96236 19.3751 6.95048 19.4227 6.89108C19.6009 6.66533 19.6365 6.38019 19.5177 6.14256Z" fill="#FF6C37"/>
</g>
<defs>
<clipPath id="clip0_1320_11456">
<rect width="78.4158" height="24" fill="white" transform="translate(0.591064)"/>
</clipPath>
</defs>
</svg>
