<svg width="93" height="24" viewBox="0 0 93 24" fill="none" xmlns="http://www.w3.org/2000/svg">
<g clip-path="url(#clip0_1320_11494)">
<path fill-rule="evenodd" clip-rule="evenodd" d="M30.3845 6.82576H30.9557C31.3456 6.82576 31.6615 7.14176 31.6615 7.53155V8.1998C31.6615 8.22052 31.6783 8.23732 31.699 8.23732C32.0242 7.66224 32.4618 7.24401 33.012 6.98261C33.5623 6.72121 34.1562 6.59051 34.7941 6.59051C35.4818 6.59051 36.1008 6.71794 36.651 6.97281C37.2013 7.22767 37.6702 7.57729 38.0579 8.02167C38.4455 8.46605 38.7394 8.98883 38.9394 9.59005C39.1395 10.1913 39.2395 10.8382 39.2395 11.531C39.2395 12.2236 39.1333 12.8706 38.9207 13.4718C38.7081 14.0731 38.4112 14.5959 38.0298 15.0403C37.6483 15.4845 37.1888 15.8342 36.651 16.0891C36.1133 16.3439 35.5256 16.4713 34.8879 16.4713C34.4627 16.4713 34.0875 16.4256 33.7624 16.3341C33.4372 16.2427 33.1496 16.1251 32.8995 15.9812C32.6494 15.8374 32.4368 15.6839 32.2618 15.5205C32.0867 15.3572 31.9429 15.197 31.8304 15.0403C31.7993 15.0403 31.7741 15.0654 31.7741 15.0965V19.8447C31.7741 20.3203 31.3885 20.706 30.9127 20.706H30.3845C29.9088 20.706 29.5232 20.3203 29.5232 19.8447V7.68711C29.5232 7.2114 29.9088 6.82576 30.3845 6.82576ZM36.9886 11.531C36.9886 11.165 36.9293 10.8121 36.8105 10.4723C36.6917 10.1324 36.5166 9.83187 36.2852 9.57044C36.0539 9.30904 35.7757 9.09994 35.4505 8.94309C35.1255 8.78626 34.7565 8.70783 34.3438 8.70783C33.9312 8.70783 33.5623 8.78626 33.2371 8.94309C32.912 9.09994 32.6338 9.30904 32.4024 9.57044C32.1711 9.83187 31.9961 10.1324 31.8772 10.4723C31.7585 10.8121 31.699 11.165 31.699 11.531C31.699 11.8969 31.7585 12.2498 31.8772 12.5896C31.9961 12.9294 32.1711 13.23 32.4024 13.4914C32.6338 13.7528 32.912 13.962 33.2371 14.1187C33.5623 14.2756 33.9312 14.354 34.3438 14.354C34.7565 14.354 35.1255 14.2756 35.4505 14.1187C35.7757 13.962 36.0539 13.7528 36.2852 13.4914C36.5166 13.23 36.6917 12.9294 36.8105 12.5896C36.9293 12.2498 36.9886 11.8969 36.9886 11.531ZM42.4831 6.82576H43.1277C43.5392 6.82576 43.8727 7.15931 43.8727 7.57075V8.27823C43.8727 8.29894 43.8895 8.31574 43.9102 8.31574C44.1603 7.76679 44.5167 7.34203 44.9794 7.04142C45.4421 6.74081 45.9736 6.59051 46.5738 6.59051C46.7113 6.59051 46.8457 6.60358 46.9771 6.62972C47.2115 6.6764 47.3803 6.88216 47.3803 7.1212V8.41192C47.3803 8.6715 47.1699 8.88193 46.9103 8.88193C46.8824 8.88193 46.8546 8.87943 46.827 8.87448C46.6457 8.8418 46.4675 8.82546 46.2924 8.82546C45.7672 8.82546 45.3451 8.92675 45.0262 9.12934C44.7074 9.33192 44.4636 9.56391 44.2947 9.82534C44.1259 10.0868 44.0133 10.3481 43.9571 10.6095C43.9008 10.8709 43.8727 11.0669 43.8727 11.1977V15.3747C43.8727 15.8505 43.4871 16.2361 43.0114 16.2361H42.4831C42.0074 16.2361 41.6218 15.8505 41.6218 15.3747V7.68711C41.6218 7.2114 42.0074 6.82576 42.4831 6.82576ZM50.0987 6.82576H50.6269C51.1026 6.82576 51.4883 7.2114 51.4883 7.68711V15.3747C51.4883 15.8505 51.1026 16.2361 50.6269 16.2361H50.0987C49.623 16.2361 49.2374 15.8505 49.2374 15.3747V7.68711C49.2374 7.2114 49.623 6.82576 50.0987 6.82576ZM48.9185 3.63017C48.9185 3.25115 49.0529 2.92114 49.3218 2.64013C49.5906 2.35912 49.9314 2.21863 50.3441 2.21863C50.7568 2.21863 51.1037 2.35259 51.3851 2.62052C51.6665 2.88846 51.8071 3.22501 51.8071 3.63017C51.8071 4.03534 51.6665 4.37189 51.3851 4.63982C51.1037 4.90776 50.7568 5.04173 50.3441 5.04173C49.9314 5.04173 49.5906 4.90122 49.3218 4.62022C49.0529 4.33922 48.9185 4.0092 48.9185 3.63017ZM58.6162 8.97629C58.1595 8.64048 57.7531 8.47258 57.3969 8.47258C57.0968 8.47258 56.8029 8.551 56.5153 8.70783C56.2277 8.86468 56.0839 9.11953 56.0839 9.47242C56.0839 9.75997 56.2027 9.96905 56.4403 10.0998C56.6778 10.2305 56.9779 10.3415 57.3406 10.433C57.7032 10.5245 58.094 10.6194 58.513 10.7174C58.9318 10.8154 59.3227 10.9656 59.6853 11.1683C60.0479 11.3708 60.348 11.6486 60.5856 12.0015C60.8232 12.3544 60.9421 12.8379 60.9421 13.4522C60.9421 14.0142 60.8264 14.488 60.595 14.8736C60.3637 15.2591 60.0636 15.5695 59.6947 15.8048C59.3258 16.0401 58.91 16.2099 58.4473 16.3146C57.9846 16.4191 57.522 16.4713 57.0593 16.4713C56.3589 16.4713 55.715 16.3668 55.1273 16.1577C54.8971 16.0758 54.6209 15.9113 54.2987 15.664C53.9213 15.3744 53.8502 14.8337 54.1397 14.4563C54.1644 14.4241 54.1913 14.3938 54.2202 14.3655L54.4537 14.1367C54.7759 13.821 55.2872 13.8073 55.6257 14.1054C55.7622 14.2256 55.8806 14.3183 55.9807 14.3834C56.3121 14.5991 56.7154 14.7069 57.1906 14.7069C57.3531 14.7069 57.522 14.6874 57.697 14.6481C57.8721 14.6089 58.0346 14.5436 58.1847 14.4521C58.3348 14.3606 58.4567 14.2462 58.5505 14.109C58.6442 13.9718 58.6912 13.8116 58.6912 13.6287C58.6912 13.3019 58.5723 13.0602 58.3347 12.9033C58.0972 12.7464 57.797 12.619 57.4344 12.521C57.0717 12.423 56.681 12.3315 56.2621 12.2466C55.8431 12.1616 55.4523 12.0243 55.0897 11.8348C54.727 11.6453 54.4269 11.3806 54.1893 11.0408C53.9517 10.701 53.833 10.2305 53.833 9.62931C53.833 9.10647 53.9361 8.65229 54.1425 8.26672C54.3488 7.88116 54.6208 7.56422 54.9584 7.31589C55.296 7.06756 55.6837 6.88458 56.1213 6.76695C56.559 6.64933 57.003 6.59051 57.4531 6.59051C58.0534 6.59051 58.6474 6.69833 59.2351 6.91399C59.4479 6.99207 59.6853 7.13667 59.9473 7.34778C60.3178 7.64625 60.3762 8.18849 60.0777 8.55892C60.0528 8.58973 60.0259 8.61878 59.9971 8.64588L59.7166 8.90973C59.4139 9.19448 58.951 9.22247 58.6162 8.97629ZM63.7354 6.82576H64.1511C64.6268 6.82576 65.0125 7.2114 65.0125 7.68711V8.29613C65.2501 7.85176 65.5721 7.4564 66.016 7.11004C66.4599 6.76368 67.057 6.59051 67.8073 6.59051C69.2204 6.59051 70.1583 7.17211 70.621 8.33535C70.946 7.73413 71.3525 7.29302 71.8402 7.01201C72.3279 6.73101 72.9093 6.59051 73.5846 6.59051C74.1849 6.59051 74.6914 6.69507 75.104 6.90419C75.5167 7.1133 75.8512 7.40084 76.1076 7.7668C76.3639 8.13277 76.5483 8.5608 76.6609 9.05092C76.7734 9.54105 76.8297 10.0671 76.8297 10.6291V15.3747C76.8297 15.8505 76.4441 16.2361 75.9684 16.2361H75.4402C74.9644 16.2361 74.5788 15.8505 74.5788 15.3747V10.9036C74.5788 10.616 74.5538 10.3383 74.5038 10.0703C74.4538 9.8024 74.3662 9.56719 74.2411 9.3646C74.1162 9.16201 73.9473 9.00191 73.7347 8.88428C73.5221 8.76665 73.247 8.70783 72.9093 8.70783C72.5592 8.70783 72.2622 8.77646 72.0184 8.91369C71.7745 9.05092 71.5745 9.23389 71.4182 9.46262C71.2619 9.69133 71.1493 9.95273 71.0805 10.2468C71.0117 10.5409 70.9773 10.8382 70.9773 11.1388V15.3747C70.9773 15.8505 70.5917 16.2361 70.116 16.2361H69.5878C69.1121 16.2361 68.7264 15.8505 68.7264 15.3747V10.6291C68.7264 10.041 68.6077 9.57371 68.3701 9.22736C68.1325 8.881 67.7386 8.70783 67.1883 8.70783C66.8131 8.70783 66.4974 8.77318 66.2411 8.90389C65.9847 9.03458 65.7721 9.21102 65.6034 9.43321C65.4345 9.65542 65.3126 9.9103 65.2375 10.1978C65.1625 10.4853 65.125 10.7859 65.125 11.0996V15.3747C65.125 15.8505 64.7393 16.2361 64.2637 16.2361H63.7354C63.2597 16.2361 62.8741 15.8505 62.8741 15.3747V7.68711C62.8741 7.2114 63.2597 6.82576 63.7354 6.82576ZM80.4671 6.82576H80.9954C81.4711 6.82576 81.8567 7.2114 81.8567 7.68711V15.3747C81.8567 15.8505 81.4711 16.2361 80.9954 16.2361H80.4671C79.9914 16.2361 79.6058 15.8505 79.6058 15.3747V7.68711C79.6058 7.2114 79.9914 6.82576 80.4671 6.82576ZM79.2869 3.63017C79.2869 3.25115 79.4214 2.92114 79.6902 2.64013C79.9591 2.35912 80.2998 2.21863 80.7125 2.21863C81.1252 2.21863 81.4722 2.35259 81.7535 2.62052C82.0349 2.88846 82.1756 3.22501 82.1756 3.63017C82.1756 4.03534 82.0349 4.37189 81.7535 4.63982C81.4722 4.90776 81.1252 5.04173 80.7125 5.04173C80.2998 5.04173 79.9591 4.90122 79.6902 4.62022C79.4214 4.33922 79.2869 4.0092 79.2869 3.63017ZM90.2981 9.13368C90.2055 9.06119 90.1241 9.0042 90.0538 8.9627C89.7662 8.79279 89.4723 8.70783 89.1721 8.70783C88.7595 8.70783 88.3906 8.78626 88.0654 8.94309C87.7404 9.09994 87.4621 9.30904 87.2308 9.57044C86.9995 9.83187 86.8243 10.1324 86.7056 10.4723C86.5867 10.8121 86.5273 11.165 86.5273 11.531C86.5273 11.8969 86.5867 12.2498 86.7056 12.5896C86.8243 12.9294 86.9995 13.23 87.2308 13.4914C87.4621 13.7528 87.7404 13.962 88.0654 14.1187C88.3906 14.2756 88.7595 14.354 89.1721 14.354C89.5223 14.354 89.8475 14.2789 90.1476 14.1285C90.2083 14.0982 90.2741 14.0569 90.3451 14.0046C90.7033 13.7413 91.2032 13.7938 91.4988 14.126L91.8409 14.5103C92.1421 14.8486 92.1119 15.367 91.7735 15.6682C91.7321 15.7051 91.6868 15.7378 91.6387 15.7656C91.3449 15.9355 91.048 16.0727 90.7478 16.1773C90.4477 16.2818 90.1601 16.357 89.8849 16.4028C89.6099 16.4485 89.3723 16.4713 89.1721 16.4713C88.4969 16.4713 87.8591 16.3537 87.2589 16.1184C86.6586 15.8832 86.1397 15.5499 85.702 15.1186C85.2643 14.6874 84.9173 14.1678 84.661 13.56C84.4047 12.9523 84.2764 12.2759 84.2764 11.531C84.2764 10.7859 84.4047 10.1096 84.661 9.50183C84.9173 8.89408 85.2643 8.37455 85.702 7.94324C86.1397 7.51193 86.6586 7.17866 87.2589 6.94339C87.8591 6.70814 88.4969 6.59051 89.1721 6.59051C89.7475 6.59051 90.3258 6.70487 90.9072 6.93359C91.1288 7.02076 91.3903 7.17661 91.6915 7.40114C92.073 7.68541 92.1518 8.22507 91.8674 8.6065C91.8464 8.63478 91.8235 8.66174 91.7992 8.68722L91.4513 9.05083C91.1453 9.37067 90.6467 9.40648 90.2981 9.13368Z" fill="black"/>
<path fill-rule="evenodd" clip-rule="evenodd" d="M23.3671 12.3183L21.622 10.5694C21.4837 10.4308 21.406 10.2429 21.406 10.0471V7.90644C21.406 5.92862 21.2006 5.21141 20.8146 4.48835C20.4288 3.76528 19.8625 3.19782 19.1411 2.81112C18.4195 2.42442 17.7039 2.21848 15.7303 2.21848H12.9077C12.826 2.21848 12.7598 2.15227 12.7598 2.07059C12.7598 2.03142 12.7753 1.99385 12.803 1.96612L14.5481 0.217157C14.6869 0.0781297 14.8752 0 15.0716 0H16.0521C18.6835 0 19.6378 0.274576 20.5998 0.790174C21.5618 1.30577 22.3168 2.06239 22.8312 3.02648C23.3458 3.99056 23.6198 4.94683 23.6198 7.58393V12.2138C23.6198 12.2955 23.5535 12.3617 23.4718 12.3617C23.4326 12.3617 23.3948 12.3461 23.3671 12.3183Z" fill="black"/>
<path fill-rule="evenodd" clip-rule="evenodd" d="M11.3271 23.4118L13.0723 21.6628C13.211 21.5238 13.3994 21.4456 13.5958 21.4456H15.7303C17.7038 21.4456 18.4195 21.2397 19.141 20.853C19.8625 20.4663 20.4287 19.8989 20.8146 19.1758C21.2004 18.4527 21.406 17.7355 21.406 15.7577V12.9293C21.406 12.8476 21.4722 12.7814 21.5538 12.7814C21.5932 12.7814 21.6308 12.797 21.6586 12.8248L23.4036 14.5737C23.542 14.7123 23.6196 14.9002 23.6196 15.096V16.0802C23.6196 18.7173 23.3457 19.6736 22.8312 20.6377C22.3167 21.6017 21.5617 22.3584 20.5997 22.874C19.6377 23.3895 18.6835 23.6642 16.0521 23.6642H11.4318C11.3501 23.6642 11.2839 23.5979 11.2839 23.5162C11.2839 23.4771 11.2995 23.4395 11.3271 23.4118Z" fill="black"/>
<path fill-rule="evenodd" clip-rule="evenodd" d="M0.259428 11.3456L2.00452 13.0946C2.14287 13.2332 2.22056 13.4211 2.22056 13.6169V15.7575C2.22056 17.7354 2.42605 18.4525 2.81191 19.1756C3.19778 19.8987 3.76402 20.4661 4.48552 20.8528C5.20704 21.2396 5.9227 21.4455 7.89627 21.4455H10.7189C10.8006 21.4455 10.8668 21.5117 10.8668 21.5934C10.8668 21.6325 10.8513 21.6702 10.8236 21.6978L9.0784 23.4468C8.93967 23.5858 8.75133 23.664 8.55494 23.664H7.57446C4.94303 23.664 3.98881 23.3894 3.0268 22.8738C2.06479 22.3582 1.3098 21.6016 0.795311 20.6375C0.280822 19.6734 0.00683594 18.7171 0.00683594 16.0801V11.4502C0.00683594 11.3685 0.0730527 11.3022 0.154735 11.3022C0.194016 11.3022 0.231682 11.3179 0.259428 11.3456Z" fill="black"/>
<path fill-rule="evenodd" clip-rule="evenodd" d="M12.2994 0.252368L10.5542 2.00133C10.4154 2.14036 10.2272 2.21849 10.0308 2.21849H7.89627C5.9227 2.21849 5.20703 2.42442 4.48552 2.81112C3.76402 3.19782 3.19778 3.76528 2.81191 4.48835C2.42605 5.21141 2.22056 5.92862 2.22056 7.90645V10.7348C2.22056 10.8165 2.15434 10.8828 2.07265 10.8828C2.03338 10.8828 1.99571 10.8671 1.96796 10.8394L0.222867 9.09046C0.0845285 8.95183 0.00683594 8.76398 0.00683594 8.56812V7.58394C0.00683594 4.94684 0.280822 3.99057 0.795311 3.02648C1.3098 2.0624 2.06479 1.30577 3.0268 0.790175C3.98881 0.274577 4.94303 0 7.57446 0H12.1947C12.2764 0 12.3426 0.0662168 12.3426 0.1479C12.3426 0.187069 12.3271 0.22464 12.2994 0.252368Z" fill="black"/>
<path fill-rule="evenodd" clip-rule="evenodd" d="M19.68 8.6341L17.3004 6.35487C17.1429 6.19713 16.9588 6.08247 16.7626 6.01088C16.6003 5.94941 16.4245 5.91575 16.2407 5.91575H9.2165C9.13482 5.91575 9.0686 5.84954 9.0686 5.76785C9.0686 5.72866 9.08416 5.69107 9.11185 5.66335L10.8587 3.9142C10.9974 3.7753 11.1856 3.69727 11.382 3.69727H16.9786C18.6087 3.69727 19.9302 5.0216 19.9302 6.65525V8.52728C19.9302 8.60897 19.864 8.67519 19.7823 8.67519C19.7442 8.67519 19.7076 8.66047 19.68 8.6341Z" fill="black"/>
<path fill-rule="evenodd" clip-rule="evenodd" d="M15.0035 19.7181L17.2786 17.3325C17.436 17.1748 17.5504 16.9903 17.6218 16.7936C17.6832 16.6309 17.7167 16.4547 17.7167 16.2706V9.23158C17.7167 9.14989 17.7829 9.08368 17.8646 9.08368C17.9039 9.08368 17.9416 9.09932 17.9694 9.12716L19.7146 10.8777C19.8529 11.0163 19.9305 11.2041 19.9305 11.3998V17.0101C19.9305 18.6438 18.609 19.9681 16.9788 19.9681H15.1106C15.0289 19.9681 14.9626 19.9019 14.9626 19.8202C14.9626 19.7821 14.9772 19.7456 15.0035 19.7181Z" fill="black"/>
<path fill-rule="evenodd" clip-rule="evenodd" d="M3.94649 15.0299L6.32619 17.3091C6.48359 17.4668 6.66771 17.5814 6.86394 17.6531C7.02619 17.7145 7.20208 17.7482 7.38583 17.7482H14.41C14.4917 17.7482 14.558 17.8144 14.558 17.8961C14.558 17.9353 14.5424 17.9728 14.5147 18.0006L12.7678 19.7497C12.6291 19.8886 12.4409 19.9667 12.2445 19.9667H6.64791C5.01778 19.9667 3.69629 18.6423 3.69629 17.0087V15.1366C3.69629 15.055 3.76251 14.9888 3.8442 14.9888C3.88232 14.9888 3.91896 15.0035 3.94649 15.0299Z" fill="black"/>
<path fill-rule="evenodd" clip-rule="evenodd" d="M8.62325 3.94723L6.34818 6.33283C6.19078 6.49057 6.07637 6.67508 6.00495 6.87174C5.94359 7.03434 5.91001 7.21062 5.91001 7.39474V14.4338C5.91001 14.5155 5.84379 14.5816 5.76211 14.5816C5.72281 14.5816 5.68512 14.566 5.65738 14.5381L3.91211 12.7877C3.7739 12.6491 3.69629 12.4613 3.69629 12.2655V6.65525C3.69629 5.0216 5.01778 3.69727 6.64791 3.69727H8.51622C8.5979 3.69727 8.66412 3.76348 8.66412 3.84516C8.66412 3.88318 8.64948 3.91973 8.62325 3.94723Z" fill="black"/>
</g>
<defs>
<clipPath id="clip0_1320_11494">
<rect width="92.16" height="24" fill="white" transform="translate(0.00683594)"/>
</clipPath>
</defs>
</svg>
