<svg width="70" height="24" viewBox="0 0 70 24" fill="none" xmlns="http://www.w3.org/2000/svg">
<g clip-path="url(#clip0_1320_11875)">
<path d="M62.9384 9.75715C63.7746 9.75715 64.4526 9.07918 64.4526 8.24286C64.4526 7.40653 63.7746 6.72858 62.9384 6.72858C62.1021 6.72858 61.4241 7.40653 61.4241 8.24286C61.4241 9.07918 62.1021 9.75715 62.9384 9.75715Z" fill="#FF4500"/>
<path d="M41.3098 14.7C42.0527 14.7 42.4812 14.1428 42.4527 13.6C42.4384 13.3143 42.4098 13.1286 42.3812 12.9857C41.9241 11.0143 40.3241 9.55713 38.4241 9.55713C36.1669 9.55713 34.3384 11.6 34.3384 14.1143C34.3384 16.6286 36.1669 18.6714 38.4241 18.6714C39.8384 18.6714 40.8527 18.1571 41.5812 17.3429C41.9384 16.9429 41.867 16.3286 41.4384 16.0286C41.0812 15.7857 40.6384 15.8714 40.3098 16.1429C39.9955 16.4143 39.3955 16.9571 38.4241 16.9571C37.2812 16.9571 36.3098 15.9714 36.0955 14.6714H41.3098V14.7ZM38.4098 11.2857C39.4384 11.2857 40.3241 12.0857 40.6527 13.1857H36.167C36.4955 12.0714 37.3812 11.2857 38.4098 11.2857Z" fill="#222222"/>
<path d="M34.2054 10.6239C34.2054 10.1953 33.8912 9.85247 33.4912 9.78104C32.2483 9.59532 31.0769 10.0525 30.4054 10.8953V10.781C30.4054 10.2525 29.9769 9.9239 29.5483 9.9239C29.0769 9.9239 28.6912 10.3096 28.6912 10.781V17.7811C28.6912 18.2382 29.034 18.6382 29.4912 18.6668C29.9912 18.6954 30.4054 18.3096 30.4054 17.8096V14.1953C30.4054 12.5953 31.6054 11.281 33.2626 11.4668C33.3197 11.4668 33.3769 11.4668 33.434 11.4668C33.8626 11.4382 34.2054 11.0668 34.2054 10.6239Z" fill="#222222"/>
<path d="M63.7956 11.3714C63.7956 10.9 63.4099 10.5143 62.9384 10.5143C62.467 10.5143 62.0813 10.9 62.0813 11.3714C62.0813 11.4 62.0813 17.3714 62.0813 17.6429C62.0813 18.1143 62.467 18.5 62.9384 18.5C63.4099 18.5 63.7956 18.1143 63.7956 17.6429C63.7956 17.3857 63.7956 11.4143 63.7956 11.3714Z" fill="#222222"/>
<path d="M51.0526 6.62857C51.0526 6.15714 50.6669 5.77142 50.1955 5.77142C49.724 5.77142 49.3383 6.15714 49.3383 6.62857V10.4429C48.7526 9.85714 48.024 9.57142 47.1526 9.57142C44.8955 9.57142 43.0669 11.6143 43.0669 14.1286C43.0669 16.6429 44.8955 18.6857 47.1526 18.6857C48.024 18.6857 48.7669 18.3857 49.3526 17.8C49.424 18.2 49.7812 18.5 50.1955 18.5C50.6669 18.5 51.0526 18.1143 51.0526 17.6429V6.62857ZM47.1669 16.9857C45.8526 16.9857 44.7955 15.7143 44.7955 14.1286C44.7955 12.5571 45.8526 11.2714 47.1669 11.2714C48.4812 11.2714 49.5383 12.5429 49.5383 14.1286C49.5383 15.7143 48.4669 16.9857 47.1669 16.9857Z" fill="#222222"/>
<path d="M59.9955 6.62857C59.9955 6.15714 59.6098 5.77142 59.1383 5.77142C58.6669 5.77142 58.2812 6.15714 58.2812 6.62857V10.4429C57.6955 9.85714 56.9669 9.57142 56.0955 9.57142C53.8383 9.57142 52.0098 11.6143 52.0098 14.1286C52.0098 16.6429 53.8383 18.6857 56.0955 18.6857C56.9669 18.6857 57.7098 18.3857 58.2955 17.8C58.3669 18.2 58.7241 18.5 59.1383 18.5C59.6098 18.5 59.9955 18.1143 59.9955 17.6429V6.62857ZM56.0955 16.9857C54.7812 16.9857 53.7241 15.7143 53.7241 14.1286C53.7241 12.5571 54.7812 11.2714 56.0955 11.2714C57.4098 11.2714 58.4669 12.5429 58.4669 14.1286C58.4669 15.7143 57.4098 16.9857 56.0955 16.9857Z" fill="#222222"/>
<path d="M68.1385 17.6571V11.2857H68.8956C69.2956 11.2857 69.6528 10.9857 69.6814 10.5714C69.7099 10.1286 69.3528 9.75713 68.9242 9.75713H68.1385V8.55713C68.1385 8.09998 67.7956 7.69998 67.3385 7.67141C66.8385 7.64284 66.4242 8.02856 66.4242 8.52856V9.77141H65.7099C65.3099 9.77141 64.9528 10.0714 64.9242 10.4857C64.8956 10.9286 65.2528 11.3 65.6814 11.3H66.4099V17.6714C66.4099 18.1429 66.7956 18.5286 67.2671 18.5286C67.7671 18.5 68.1385 18.1286 68.1385 17.6571Z" fill="#222222"/>
<path d="M12.1384 23.9429C18.75 23.9429 24.1099 18.583 24.1099 11.9714C24.1099 5.35979 18.75 0 12.1384 0C5.52678 0 0.166992 5.35979 0.166992 11.9714C0.166992 18.583 5.52678 23.9429 12.1384 23.9429Z" fill="#FF4500"/>
<path d="M20.1242 11.9714C20.1242 11 19.3385 10.2286 18.3814 10.2286C17.91 10.2286 17.4814 10.4143 17.1671 10.7143C15.9671 9.85714 14.3243 9.3 12.4957 9.22857L13.2957 5.48572L15.8957 6.04286C15.9242 6.7 16.4671 7.22857 17.1385 7.22857C17.8242 7.22857 18.3814 6.67143 18.3814 5.98572C18.3814 5.3 17.8242 4.74286 17.1385 4.74286C16.6528 4.74286 16.2242 5.02857 16.0242 5.44286L13.1243 4.82857C13.0385 4.81429 12.9528 4.82857 12.8957 4.87143C12.8243 4.91429 12.7814 4.98572 12.7671 5.07143L11.8814 9.24286C10.0243 9.3 8.35282 9.85714 7.13854 10.7286C6.82425 10.4286 6.39568 10.2429 5.92425 10.2429C4.95282 10.2429 4.1814 11.0286 4.1814 11.9857C4.1814 12.7 4.60997 13.3 5.20997 13.5714C5.1814 13.7429 5.16711 13.9143 5.16711 14.1C5.16711 16.7857 8.29568 18.9714 12.1528 18.9714C16.01 18.9714 19.1385 16.8 19.1385 14.1C19.1385 13.9286 19.1242 13.7429 19.0957 13.5714C19.6957 13.3 20.1242 12.6857 20.1242 11.9714ZM8.15282 13.2143C8.15282 12.5286 8.70997 11.9714 9.39568 11.9714C10.0814 11.9714 10.6385 12.5286 10.6385 13.2143C10.6385 13.9 10.0814 14.4571 9.39568 14.4571C8.70997 14.4714 8.15282 13.9 8.15282 13.2143ZM15.11 16.5143C14.2528 17.3714 12.6243 17.4286 12.1528 17.4286C11.6671 17.4286 10.0385 17.3571 9.19568 16.5143C9.06711 16.3857 9.06711 16.1857 9.19568 16.0571C9.32425 15.9286 9.52425 15.9286 9.65282 16.0571C10.1957 16.6 11.3385 16.7857 12.1528 16.7857C12.9671 16.7857 14.1243 16.6 14.6528 16.0571C14.7814 15.9286 14.9814 15.9286 15.11 16.0571C15.2242 16.1857 15.2242 16.3857 15.11 16.5143ZM14.8814 14.4714C14.1957 14.4714 13.6385 13.9143 13.6385 13.2286C13.6385 12.5429 14.1957 11.9857 14.8814 11.9857C15.5671 11.9857 16.1242 12.5429 16.1242 13.2286C16.1242 13.9 15.5671 14.4714 14.8814 14.4714Z" fill="white"/>
</g>
<defs>
<clipPath id="clip0_1320_11875">
<rect width="69.5714" height="24" fill="white" transform="translate(0.166992)"/>
</clipPath>
</defs>
</svg>
