<svg width="106" height="24" viewBox="0 0 106 24" fill="none" xmlns="http://www.w3.org/2000/svg">
<g clip-path="url(#clip0_1320_11510)">
<path fill-rule="evenodd" clip-rule="evenodd" d="M0.94247 16.4879C0.855151 16.7156 0.973618 16.7631 1.0017 16.8034C1.26264 16.9924 1.52766 17.1292 1.79319 17.2829C3.21277 18.0336 4.55064 18.2531 5.9498 18.2531C8.79916 18.2531 10.5711 16.7365 10.5711 14.2957V14.2477C10.5711 11.9907 8.56937 11.1686 6.70044 10.5813L6.45584 10.5022C5.04136 10.0436 3.82094 9.64429 3.82094 8.71493V8.66744C3.82094 7.87085 4.53583 7.28361 5.63881 7.28361C6.86435 7.28361 8.32478 7.69161 9.25924 8.20787C9.25924 8.20787 9.53601 8.38659 9.63661 8.11953C9.69125 7.97502 10.1677 6.69996 10.2187 6.55698C10.2729 6.40736 10.1779 6.29451 10.0804 6.2363C9.00801 5.58268 7.52716 5.13842 5.99524 5.13842L5.71081 5.13944C3.10145 5.13944 1.27847 6.71732 1.27847 8.97434V9.02285C1.27847 11.4024 3.29038 12.1786 5.16953 12.7148L5.47183 12.8087C6.84035 13.2295 8.02503 13.5951 8.02503 14.5551V14.6031C8.02503 15.4865 7.25397 16.1452 6.01822 16.1452C5.5377 16.1452 4.0063 16.1371 2.34672 15.0882C2.14604 14.9713 2.03166 14.887 1.87694 14.7926C1.79524 14.743 1.59098 14.6537 1.50213 14.9212L0.940427 16.4838L0.94247 16.4879ZM42.6596 16.4838C42.5723 16.7115 42.6907 16.759 42.7198 16.7994C42.9797 16.9883 43.2458 17.1251 43.5113 17.2788C44.9309 18.0295 46.2688 18.2491 47.6679 18.2491C50.5173 18.2491 52.2892 16.7325 52.2892 14.2916V14.2436C52.2892 11.9866 50.2926 11.1645 48.4186 10.5772L48.174 10.4981C46.7595 10.0395 45.5391 9.64021 45.5391 8.71085V8.66336C45.5391 7.86676 46.254 7.27953 47.3569 7.27953C48.5825 7.27953 50.0378 7.68753 50.9774 8.20378C50.9774 8.20378 51.2541 8.38251 51.3552 8.11544C51.4094 7.97093 51.8863 6.69587 51.9323 6.55289C51.9869 6.40327 51.8914 6.29042 51.7944 6.23221C50.722 5.57859 49.2412 5.13434 47.7093 5.13434L47.4243 5.13536C44.815 5.13536 42.992 6.71323 42.992 8.97025V9.01876C42.992 11.3983 45.0039 12.1745 46.8831 12.7107L47.1849 12.8046C48.5585 13.2254 49.738 13.591 49.738 14.551V14.599C49.738 15.4824 48.967 16.1411 47.7312 16.1411C47.2497 16.1411 45.7142 16.133 44.0597 15.0841C43.8591 14.9672 43.7416 14.8865 43.5895 14.7885C43.5379 14.7558 43.2974 14.6618 43.2152 14.9171L42.6535 16.4797L42.6596 16.4838ZM71.1471 11.7001C71.1471 13.0788 70.8897 14.1665 70.3862 14.9376C69.8837 15.6984 69.1249 16.0712 68.0679 16.0712C67.0109 16.0712 66.2551 15.7015 65.7598 14.9427C65.2609 14.1767 65.0092 13.084 65.0092 11.7052C65.0092 10.3265 65.2625 9.24395 65.7598 8.4831C66.2541 7.72736 67.0058 7.36481 68.0679 7.36481C69.1301 7.36481 69.8858 7.73093 70.3862 8.4831C70.8928 9.24395 71.1471 10.3265 71.1471 11.7052V11.7001ZM73.5266 9.14693C73.2923 8.35544 72.9292 7.66098 72.4441 7.07885C71.9585 6.49672 71.3462 6.02693 70.616 5.68991C69.8909 5.35034 69.033 5.17927 68.0628 5.17927C67.0926 5.17927 66.2398 5.35136 65.5096 5.68991C64.7845 6.02898 64.1666 6.49672 63.6815 7.07885C63.1975 7.66098 62.8339 8.35544 62.599 9.14693C62.3666 9.93332 62.2487 10.7912 62.2487 11.7052C62.2487 12.6193 62.3666 13.4771 62.599 14.2635C62.8323 15.055 63.1964 15.7495 63.6815 16.3316C64.1672 16.9137 64.7845 17.3784 65.5096 17.7103C66.2398 18.0412 67.0977 18.2097 68.0628 18.2097C69.0279 18.2097 69.8858 18.0412 70.6109 17.7103C71.336 17.3794 71.9539 16.9137 72.439 16.3316C72.9236 15.7495 73.2866 15.055 73.5215 14.2635C73.7534 13.4771 73.8713 12.6193 73.8713 11.7052C73.8713 10.7963 73.7534 9.93332 73.5215 9.14693H73.5266ZM93.079 15.6831C93.0009 15.4518 92.7751 15.5391 92.7751 15.5391C92.4294 15.6714 92.0603 15.7939 91.6671 15.8552C91.2708 15.9175 90.8296 15.9486 90.3649 15.9486C89.216 15.9486 88.2969 15.606 87.6432 14.9274C86.9845 14.2482 86.6169 13.1554 86.622 11.6746C86.6255 10.3265 86.9513 9.31544 87.536 8.53927C88.113 7.77332 89.0015 7.37502 90.176 7.37502C91.1564 7.37502 91.9071 7.48889 92.6934 7.73502C92.6934 7.73502 92.8798 7.81621 92.9692 7.57059C93.178 6.99357 93.3323 6.57996 93.5564 5.94676C93.6197 5.76549 93.4645 5.68889 93.4078 5.66693C93.0994 5.54642 92.3712 5.34881 91.8197 5.26557C91.304 5.18693 90.7066 5.14608 90.0325 5.14608C89.0317 5.14608 88.1432 5.31715 87.3823 5.65621C86.6214 5.99476 85.978 6.46302 85.4674 7.04515C84.9568 7.62727 84.5687 8.32174 84.3083 9.11323C84.0504 9.89961 83.9202 10.7626 83.9202 11.6766C83.9202 13.6477 84.4512 15.246 85.5032 16.4154C86.5551 17.5898 88.138 18.1822 90.201 18.1822C91.4214 18.1822 92.6725 17.9355 93.5712 17.5796C93.5712 17.5796 93.7428 17.4969 93.6683 17.2967L93.081 15.6831H93.079ZM97.2427 10.3725C97.3566 9.60651 97.5665 8.96821 97.8963 8.47289C98.3901 7.71715 99.1423 7.30353 100.199 7.30353C101.256 7.30353 101.956 7.71919 102.456 8.47289C102.788 8.97076 102.933 9.63204 102.987 10.3725L97.2172 10.3714L97.2427 10.3725ZM105.26 8.68736C105.057 7.92651 104.555 7.15544 104.228 6.8031C103.707 6.24651 103.202 5.85332 102.696 5.63885C101.967 5.32848 101.181 5.16922 100.388 5.17059C99.3823 5.17059 98.4683 5.34064 97.7278 5.68634C96.9874 6.03459 96.3644 6.50847 95.8742 7.10081C95.3845 7.69315 95.0163 8.39272 94.7814 9.19442C94.5466 9.98591 94.4281 10.854 94.4281 11.7629C94.4281 12.6923 94.5511 13.5553 94.7932 14.3365C95.0378 15.1229 95.4315 15.8123 95.9626 16.3842C96.4936 16.9612 97.1728 17.4106 97.9898 17.7272C98.8017 18.0412 99.7872 18.2041 100.916 18.2005C103.244 18.1929 104.47 17.6746 104.97 17.3937C105.06 17.3437 105.144 17.2574 105.039 17.0087L104.513 15.533C104.432 15.3129 104.209 15.3925 104.209 15.3925C103.632 15.608 102.815 15.9951 100.9 15.99C99.6494 15.988 98.7251 15.6188 98.143 15.0402C97.5506 14.4479 97.2545 13.5849 97.2085 12.3594L105.277 12.3655C105.277 12.3655 105.489 12.3634 105.511 12.1561C105.52 12.0703 105.787 10.5017 105.27 8.68889L105.26 8.68736ZM32.7491 10.3725C32.863 9.60651 33.0734 8.96821 33.4027 8.47289C33.897 7.71715 34.6487 7.30353 35.7057 7.30353C36.7627 7.30353 37.4623 7.71919 37.9627 8.47289C38.2941 8.97076 38.4392 9.63204 38.4938 10.3725L32.7236 10.3714L32.7491 10.3725ZM40.7661 8.68736C40.5639 7.92651 40.0615 7.15544 39.7346 6.8031C39.2138 6.24651 38.7083 5.85332 38.2027 5.63885C37.4729 5.32848 36.6877 5.16922 35.8946 5.17059C34.8887 5.17059 33.9746 5.34064 33.2342 5.68634C32.4938 6.03459 31.8708 6.50847 31.3806 7.10081C30.8919 7.69315 30.5227 8.39272 30.2878 9.19442C30.0535 9.98591 29.9355 10.854 29.9355 11.7629C29.9355 12.6923 30.0575 13.5553 30.3011 14.3365C30.5452 15.1229 30.9394 15.8123 31.4654 16.3842C31.9964 16.9612 32.6756 17.4106 33.4926 17.7272C34.3045 18.0412 35.2849 18.2041 36.4186 18.2005C38.7471 18.1929 39.9726 17.6746 40.473 17.3937C40.5619 17.3437 40.6466 17.2574 40.5409 17.0087L40.015 15.533C39.9338 15.3129 39.7112 15.3925 39.7112 15.3925C39.1341 15.608 38.3171 15.9951 36.4022 15.99C35.1563 15.988 34.2269 15.6188 33.6448 15.0402C33.0524 14.4479 32.7563 13.5849 32.7103 12.3594L40.7784 12.3655C40.7784 12.3655 40.9908 12.3634 41.0128 12.1561C41.0215 12.0703 41.289 10.5017 40.7718 8.68889L40.7661 8.68736ZM15.3363 15.632C15.0203 15.3798 14.9763 15.318 14.8717 15.1541C14.7118 14.9074 14.6301 14.5566 14.6301 14.1073C14.6301 13.4026 14.865 12.892 15.3501 12.5498C15.345 12.5508 16.0446 11.9473 17.6889 11.9677C18.4207 11.9808 19.1509 12.0431 19.8744 12.1541V15.8154H19.8754C19.8754 15.8154 18.8541 16.0354 17.7001 16.1049C16.0609 16.2034 15.3358 15.6331 15.3409 15.6346L15.3363 15.632ZM18.5432 9.96395C18.2164 9.93995 17.7925 9.92821 17.287 9.92821C16.5976 9.92821 15.9287 10.014 15.3057 10.1825C14.6776 10.352 14.1108 10.6145 13.6257 10.9638C13.1393 11.3108 12.7391 11.7651 12.4564 12.2914C12.1709 12.8225 12.0254 13.4455 12.0254 14.1502C12.0254 14.8651 12.1495 15.4829 12.3946 15.9885C12.6347 16.4899 12.9963 16.9234 13.4465 17.2497C13.8943 17.5755 14.4473 17.8165 15.0856 17.9595C15.7188 18.104 16.4337 18.1771 17.2201 18.1771C18.0473 18.1771 18.8695 18.1076 19.6661 17.9733C20.3445 17.8563 21.0204 17.7248 21.6933 17.5791C21.9619 17.5173 22.2601 17.4361 22.2601 17.4361C22.4592 17.3856 22.4439 17.1726 22.4439 17.1726L22.4393 9.81944C22.4393 8.20583 22.0083 7.00583 21.1576 6.2654C20.31 5.52498 19.0691 5.15221 17.4606 5.15221C16.8581 5.15221 15.8827 5.23391 15.3006 5.35085C15.3006 5.35085 13.544 5.69196 12.8189 6.25979C12.8189 6.25979 12.6596 6.35783 12.7464 6.57996L13.3183 8.11187C13.3893 8.31051 13.5828 8.24259 13.5828 8.24259C13.5828 8.24259 13.6436 8.21859 13.7151 8.17621C15.2623 7.33366 17.2232 7.35919 17.2232 7.35919C18.0912 7.35919 18.7653 7.53536 19.2146 7.88004C19.6543 8.21757 19.8785 8.7277 19.8785 9.80004V10.1406C19.1891 10.0405 18.5508 9.98285 18.5508 9.98285L18.5432 9.96395ZM83.3942 5.81247C83.406 5.7855 83.4121 5.75655 83.4121 5.72724C83.4121 5.69788 83.4065 5.66882 83.3952 5.64176C83.384 5.6147 83.3671 5.59019 83.3462 5.56971C83.3253 5.54918 83.3003 5.5331 83.2732 5.52242C83.1358 5.47034 82.4511 5.32583 81.9251 5.29315C80.914 5.22983 80.3523 5.40038 79.8468 5.6271C79.3474 5.8523 78.7949 6.21434 78.4885 6.63306L78.4875 5.65264C78.4875 5.51783 78.392 5.40906 78.2562 5.40906H76.1932C76.0594 5.40906 75.9624 5.51783 75.9624 5.65264V17.6526C75.9624 17.7174 75.9884 17.7796 76.0344 17.8254C76.0798 17.8713 76.1421 17.8971 76.207 17.8972H78.321C78.3859 17.8971 78.4477 17.8712 78.4936 17.8254C78.5396 17.7795 78.5651 17.7174 78.5651 17.6526V11.6271C78.5651 10.8203 78.654 10.0186 78.8312 9.51306C79.0058 9.01315 79.2432 8.61434 79.5358 8.32838C79.8151 8.05218 80.1563 7.84726 80.5316 7.73093C80.8834 7.62993 81.248 7.57871 81.6141 7.57876C82.0354 7.57876 82.4975 7.68702 82.4975 7.68702C82.6528 7.70438 82.7391 7.6094 82.7917 7.46949C82.93 7.10132 83.3227 5.99885 83.3993 5.77927" fill="#00A1E0"/>
<path fill-rule="evenodd" clip-rule="evenodd" d="M63.6494 0.274067C63.388 0.195096 63.1225 0.132005 62.8534 0.0851336C62.4918 0.0247529 62.1252 -0.00361245 61.7586 0.000367334C60.3017 0.000367334 59.1533 0.411943 58.347 1.22488C57.5463 2.03169 57.0014 3.26079 56.7283 4.87798L56.6297 5.42385H54.8011C54.8011 5.42385 54.578 5.41466 54.531 5.65823L54.2307 7.33312C54.2098 7.49346 54.2787 7.59355 54.4932 7.59253H56.2733L54.4671 17.6741C54.3257 18.486 54.1638 19.1539 53.9846 19.6599C53.8079 20.1593 53.6353 20.5336 53.4229 20.8053C53.2171 21.0683 53.022 21.2618 52.6855 21.3747C52.4077 21.4681 52.0881 21.511 51.7379 21.511C51.5428 21.511 51.2834 21.4783 51.0919 21.44C50.9004 21.4022 50.8009 21.3593 50.6574 21.2991C50.6574 21.2991 50.4485 21.2194 50.3663 21.4288C50.2994 21.5998 49.825 22.9045 49.7689 23.0659C49.7117 23.2252 49.7918 23.3508 49.893 23.3871C50.1299 23.4718 50.3061 23.526 50.6288 23.6021C51.0771 23.7078 51.455 23.7144 51.8088 23.7144C52.5502 23.7144 53.2258 23.6102 53.786 23.408C54.3497 23.2043 54.8404 22.8494 55.2745 22.3689C55.7437 21.8506 56.0389 21.3078 56.3213 20.5673C56.6006 19.8335 56.8386 18.9226 57.029 17.861L58.8438 7.59253H61.4971C61.4971 7.59253 61.7208 7.6007 61.7672 7.35814L62.0675 5.68325C62.0884 5.52291 62.02 5.42283 61.8045 5.42385H59.2294C59.2421 5.36563 59.3591 4.45977 59.6547 3.60701C59.7808 3.24292 60.0183 2.9493 60.2195 2.7476C60.4074 2.5555 60.6387 2.41151 60.894 2.32786C61.1739 2.24133 61.466 2.19928 61.7586 2.20326C62.0011 2.20326 62.2391 2.23237 62.4203 2.27015C62.67 2.32326 62.7671 2.35135 62.8324 2.37075C63.0949 2.45092 63.1301 2.3733 63.1817 2.24615L63.7975 0.554921C63.8609 0.373133 63.7066 0.296535 63.6494 0.274067ZM27.6628 17.6955C27.6628 17.8303 27.5668 17.9401 27.432 17.9401H25.296C25.1607 17.9401 25.0647 17.8303 25.0647 17.6955V0.503346C25.0647 0.369049 25.1607 0.260284 25.296 0.260284H27.432C27.5668 0.260284 27.6628 0.369049 27.6628 0.503346V17.6955Z" fill="#00A1E0"/>
</g>
<defs>
<clipPath id="clip0_1320_11510">
<rect width="105.191" height="24" fill="white" transform="translate(0.738281)"/>
</clipPath>
</defs>
</svg>
