<svg width="97" height="24" viewBox="0 0 97 24" fill="none" xmlns="http://www.w3.org/2000/svg">
<g clip-path="url(#clip0_1320_12573)">
<path d="M31.7799 19.6511C29.9731 19.5479 27.7034 18.3244 26.7925 17.4103L28.7935 14.8894C29.2863 15.4348 31.6455 16.7764 33.2583 16.4816C33.6912 16.3932 34.184 16.0245 34.184 15.4496C34.2139 15.0663 33.8854 14.7125 33.6016 14.5798C33.3328 14.3882 32.4817 14.3588 31.9293 14.3292C31.3021 14.2997 30.5854 14.226 29.8238 13.9164C28.4201 13.2383 27.4346 11.8379 27.3898 10.3489C27.3898 8.59459 28.1065 7.62161 28.8383 7.0172C30.3166 5.88206 32.3772 5.77887 33.7958 6.14742C34.9157 6.41277 36.1551 7.0172 36.8868 7.71007L35.0501 10.2457C34.7813 10.054 33.4822 9.46435 32.9895 9.33173C32.2279 9.11057 31.2573 9.22853 30.8242 9.49386C30.6898 9.56755 30.4958 9.87715 30.5555 10.2457C30.5555 10.511 30.8093 10.8943 30.9885 10.9975C31.3767 11.1892 31.7351 11.2924 32.2428 11.3219C32.9596 11.3219 34.1542 11.3219 35.065 11.7494C36.5732 12.5602 37.4542 13.946 37.3347 15.538C37.2451 16.9238 36.2895 18.2653 35.0351 18.914C34.1094 19.5184 32.8551 19.7396 31.7799 19.6511Z" fill="#2A3137"/>
<path d="M45.0994 19.5184C43.3224 19.5184 41.65 18.8403 40.3658 17.6315C39.0518 16.3932 38.3052 14.7125 38.2902 12.8993C38.2604 11.086 38.9472 9.39067 40.2015 8.07863C41.4558 6.81082 43.1582 6.04423 44.9949 6.02949C46.8315 6 48.5338 6.67814 49.8478 7.91646L47.5782 10.2457C46.9211 9.62658 46.0401 9.27271 45.1143 9.27271H45.0546C44.0989 9.27271 43.2179 9.656 42.5609 10.3341C41.9038 11.0123 41.5454 11.8968 41.5753 12.855C41.5753 13.7985 41.9636 14.6683 42.6504 15.317C43.3374 15.9656 44.2333 16.3194 45.2039 16.29C46.0849 16.29 46.9062 15.9361 47.5632 15.3464L49.7881 17.7199C48.5487 18.855 46.936 19.5036 45.2636 19.5332H45.0994V19.5184Z" fill="#2A3137"/>
<path d="M63.5408 6.07368V19.5479H60.8082V18.3242C59.6883 19.0762 58.3444 19.5479 56.8959 19.5479C53.1181 19.5479 50.042 16.4962 50.042 12.7813C50.042 9.05154 53.1031 6.01471 56.8959 6.01471C58.3444 6.01471 59.6883 6.47171 60.8082 7.2383V6.07368H63.5408ZM60.4349 12.7813C60.4349 10.8354 58.852 9.27269 56.8661 9.27269C54.9248 9.27269 53.3271 10.8354 53.3271 12.7813C53.3271 14.6978 54.9099 16.2752 56.8661 16.2752C58.852 16.2752 60.4349 14.6978 60.4349 12.7813Z" fill="#2A3137"/>
<path d="M79.2795 13.0467C79.2795 16.7469 76.2333 19.7543 72.5152 19.7543C71.1115 19.7543 69.8273 19.3268 68.7672 18.6192V24H65.512V6.16217H68.7672V7.51844C69.8423 6.78133 71.1265 6.38331 72.5152 6.38331C76.2482 6.36856 79.2795 9.37592 79.2795 13.0467ZM76.0243 13.0467C76.0243 11.1302 74.4564 9.58232 72.5152 9.58232C70.574 9.58232 68.9762 11.1302 68.9762 13.0467C68.9762 14.9631 70.5591 16.5405 72.5152 16.5405C74.4564 16.5405 76.0243 14.9779 76.0243 13.0467Z" fill="#2A3137"/>
<path d="M82.2362 4.55528C81.0117 4.55528 80.0261 3.58231 80.0261 2.32924V2.18182C80.0261 0.972969 81.0117 0 82.2362 0C83.4905 0 84.5208 0.972969 84.5208 2.18182V2.32924C84.5208 3.56756 83.4905 4.55528 82.2362 4.55528ZM83.9385 19.4595H80.7131V6.02949H83.9385V19.4595Z" fill="#2A3137"/>
<path d="M92.1813 19.5184C90.4044 19.5184 88.7319 18.8403 87.4477 17.6315C86.1336 16.3932 85.387 14.7125 85.372 12.8993C85.3422 11.086 86.0291 9.39067 87.2834 8.07863C88.5377 6.81082 90.2399 6.04423 92.0764 6.02949C93.9137 6 95.6159 6.67814 96.9297 7.91646L94.6604 10.2457C94.0026 9.62658 93.1217 9.27271 92.1964 9.27271H92.1368C91.1804 9.27271 90.2995 9.656 89.6427 10.3341C88.9857 11.0123 88.6273 11.8968 88.6572 12.855C88.6572 13.7985 89.0455 14.6683 89.7323 15.317C90.4195 15.9656 91.3155 16.3194 92.2862 16.29C93.1671 16.29 93.9884 15.9361 94.6453 15.3464L96.8702 17.7199C95.6302 18.855 94.0177 19.5036 92.3457 19.5332H92.1813V19.5184Z" fill="#2A3137"/>
<path d="M11.5766 17.8526C11.3078 17.8821 11.2331 17.5135 11.487 17.4399C11.5019 17.4399 11.5019 17.4399 11.5168 17.4251C16.8178 15.9509 20.7002 13.2826 20.1925 11.4693C19.6698 9.65603 14.9512 9.37594 9.65025 10.8502C4.34927 12.3243 0.466859 14.9927 0.974559 16.8059C2.46779 22.0393 7.97782 25.1056 13.2788 23.6315C17.5942 22.4374 20.4463 18.6045 20.5509 14.403C16.7133 17.6609 11.5766 17.8526 11.5766 17.8526Z" fill="#F54547"/>
<path d="M16.8327 4.48154C15.9069 1.22356 12.4725 -0.678163 9.15747 0.235843C6.64884 0.943455 4.91669 3.08106 4.66284 5.51348C5.11081 5.21865 7.09681 4.03929 10.1132 3.84763C10.1878 3.84763 10.2326 3.8329 10.2326 3.8329C10.3968 3.80341 10.4416 4.05402 10.2923 4.09826H10.2774C6.96242 5.01226 4.54338 6.6781 4.85696 7.81324C5.18547 8.94834 8.11221 9.11056 11.4272 8.19653C14.7422 7.26779 17.1612 5.61668 16.8327 4.48154Z" fill="#F54547"/>
</g>
<defs>
<clipPath id="clip0_1320_12573">
<rect width="96" height="24" fill="white" transform="translate(0.929688)"/>
</clipPath>
</defs>
</svg>
