<svg width="87" height="24" viewBox="0 0 87 24" fill="none" xmlns="http://www.w3.org/2000/svg">
<path fill-rule="evenodd" clip-rule="evenodd" d="M44.7836 17.71C45.6156 17.7535 46.4455 17.5932 47.2012 17.2429C47.9568 16.8925 48.6152 16.3628 49.1187 15.6999L47.4968 14.1799C47.2119 14.6058 46.8239 14.9528 46.3688 15.1888C45.9137 15.4248 45.4064 15.5422 44.8937 15.5299C42.8613 15.5299 41.4796 13.9699 41.4796 11.7599C41.4796 9.55995 42.8613 8.01994 44.8937 8.01994C45.4023 7.99853 45.9081 8.1066 46.3634 8.33401C46.8188 8.5614 47.2087 8.90067 47.4968 9.31995L49.1187 7.84995C48.6177 7.18498 47.9595 6.65432 47.203 6.30533C46.4465 5.95633 45.6153 5.79988 44.7836 5.84995C41.3595 5.84995 38.9465 8.34994 38.9465 11.7599C38.9465 15.18 41.3495 17.71 44.7836 17.71ZM53.4339 17.4299V9.72994C53.9345 8.90995 55.3061 8.20995 56.3674 8.20995C56.6678 8.20995 56.9081 8.22994 57.1184 8.27995V5.83995C56.401 5.87115 55.6992 6.05928 55.0625 6.39104C54.4259 6.72279 53.87 7.1901 53.4339 7.75995V6.11995H50.971V17.4299H53.4339ZM60.0217 4.73995C60.4254 4.73995 60.8125 4.5798 61.0979 4.29475C61.3833 4.00969 61.5436 3.62307 61.5436 3.21994C61.5436 2.81682 61.3833 2.43019 61.0979 2.14514C60.8125 1.86008 60.4254 1.69995 60.0217 1.69995C59.6182 1.69995 59.2311 1.86008 58.9457 2.14514C58.6603 2.43019 58.5 2.81682 58.5 3.21994C58.5 3.62307 58.6603 4.00969 58.9457 4.29475C59.2311 4.5798 59.6182 4.73995 60.0217 4.73995ZM61.2433 17.4399V6.10995H58.7703V17.4199L61.2433 17.4399ZM68.0014 17.71C71.045 17.71 72.707 16.1899 72.707 14.1799C72.707 9.67995 65.8588 11.18 65.8588 9.17995C65.8588 8.38995 66.6597 7.77994 67.9513 7.77994C69.383 7.77994 70.6246 8.38995 71.3053 9.13995L72.3366 7.40995C71.1208 6.36074 69.5575 5.80107 67.9513 5.83995C65.0879 5.83995 63.4959 7.40995 63.4959 9.25995C63.4959 13.61 70.3442 12.0199 70.3442 14.2499C70.3442 15.1399 69.5632 15.7499 68.0914 15.7499C66.6669 15.713 65.3057 15.1542 64.2669 14.1799L63.1456 15.9299C64.4695 17.1335 66.2121 17.7723 68.0014 17.71ZM80.9369 17.71C79.5052 17.71 78.2437 17.0599 77.3025 15.8599V21.7399H74.8495V6.11995H77.3025V7.66995C77.7226 7.10205 78.2703 6.64061 78.9016 6.32276C79.5328 6.00491 80.2299 5.83953 80.9369 5.83995C83.8703 5.83995 85.9529 8.03995 85.9529 11.7599C85.9529 15.49 83.8703 17.71 80.9469 17.71H80.9369ZM80.216 15.5299C82.1583 15.5299 83.4198 13.9699 83.4198 11.7599C83.4198 9.55995 82.1583 8.01994 80.216 8.01994C79.0646 8.01994 77.8732 8.66995 77.3125 9.51994V13.99C77.6447 14.453 78.0795 14.8331 78.5833 15.1003C79.087 15.3675 79.6458 15.5145 80.216 15.5299Z" fill="#1972F5"/>
<path fill-rule="evenodd" clip-rule="evenodd" d="M11.5838 18.99L16.2194 23.91L19.8438 18.0701L29.4553 17.02L27.9033 0.160034L0.140137 3.22003L1.702 20.08L11.5838 18.99Z" fill="#1972F5"/>
</svg>
