<svg width="181" height="24" viewBox="0 0 181 24" fill="none" xmlns="http://www.w3.org/2000/svg">
<g clip-path="url(#clip0_1320_11256)">
<path d="M124.442 9.41542C124.442 6.46158 122.595 4.3385 119.18 4.3385H107.918V19.6616H111.611V14.4H115.949L120.195 19.6616H124.349V19.2923L120.195 14.3077C122.872 13.7539 124.442 11.8154 124.442 9.41542ZM118.718 11.2616H111.611V7.47696H118.718C120.011 7.47696 120.842 8.21542 120.842 9.41542C120.934 10.6154 120.103 11.2616 118.718 11.2616Z" fill="black"/>
<path d="M180.195 4.24609H176.78V10.0615H167.457V4.24609H163.765V19.5692H167.457V13.5692H176.78V19.5692H180.195V4.24609Z" fill="black"/>
<path d="M98.0415 4.24609L93.9799 17.0769H93.7953L89.6415 4.24609H83.0876V19.5692H86.5953V7.01532H86.78L90.8415 19.5692H96.4723L100.626 7.01532H100.811V19.5692H104.411V4.24609H98.0415Z" fill="black"/>
<path d="M57.8876 10.5231C56.5953 10.4308 54.1953 10.1539 52.8107 10.0616C51.5184 9.96926 50.7799 9.50772 50.7799 8.67695C50.7799 7.84618 51.6107 7.20003 54.7492 7.20003C57.5184 7.20003 60.103 7.84618 62.4107 8.86157V5.44618C60.1953 4.33849 57.703 3.87695 54.5645 3.87695C50.2261 3.87695 47.1799 5.72311 47.1799 8.76926C47.1799 11.3539 48.9338 12.8308 52.5338 13.2C53.8261 13.3846 56.0415 13.5693 57.5184 13.6616C59.1799 13.7539 59.6415 14.3077 59.6415 15.0462C59.6415 16.0616 58.4415 16.7077 55.5799 16.7077C52.6261 16.7077 49.5799 15.6923 47.3645 14.4V17.9077C49.1184 19.1077 52.0722 20.0308 55.4876 20.0308C60.1953 20.0308 63.2415 18.1846 63.2415 14.9539C63.2415 12.4616 61.6722 10.8923 57.8876 10.5231Z" fill="black"/>
<path d="M65.7338 4.24609V19.5692H79.9492V16.4307H69.2415V13.2922H79.7645V10.1538H69.2415V7.38456H79.9492V4.24609H65.7338Z" fill="black"/>
<path d="M156.103 10.5231C154.811 10.4308 152.411 10.1539 151.026 10.0616C149.734 9.96926 148.995 9.50772 148.995 8.67695C148.995 7.84618 149.826 7.20003 152.965 7.20003C155.734 7.20003 158.318 7.75388 160.626 8.86157V5.44618C158.411 4.33849 155.918 3.87695 152.78 3.87695C148.441 3.87695 145.395 5.72311 145.395 8.76926C145.395 11.3539 147.149 12.8308 150.749 13.2C152.041 13.3846 154.257 13.5693 155.734 13.6616C157.395 13.7539 157.857 14.3077 157.857 15.0462C157.857 16.0616 156.657 16.7077 153.795 16.7077C150.841 16.7077 147.795 15.6923 145.58 14.4V17.9077C147.334 19.1077 150.288 20.0308 153.703 20.0308C158.411 20.0308 161.457 18.1846 161.457 14.9539C161.457 12.4616 159.795 10.8923 156.103 10.5231Z" fill="black"/>
<path d="M139.211 4.24609V12.0922C139.211 15.0461 137.365 16.7076 134.688 16.7076C131.918 16.7076 130.165 15.1384 130.165 12.0922V4.24609H126.472V11.723C126.472 17.2615 129.98 20.0307 134.688 20.0307C139.303 20.0307 142.811 17.3538 142.811 11.9076V4.24609H139.211Z" fill="black"/>
<path d="M34.6261 11.8154C34.6261 12.5538 34.2569 12.6462 33.3338 12.6462C32.3184 12.6462 32.1338 12.4615 32.0415 11.7231C31.8569 9.78462 30.5646 8.12308 28.3492 8.03077C27.703 7.93846 27.5184 7.75385 27.5184 6.83077C27.5184 6 27.6107 5.63077 28.2569 5.63077C31.9492 5.72308 34.6261 8.76923 34.6261 11.8154ZM40.0723 11.8154C40.0723 6.09231 36.1953 0 27.1492 0H9.3338C8.96457 0 8.68764 0.184615 8.68764 0.553846C8.68764 0.738462 8.77995 0.923077 8.96457 1.01538C9.61072 1.56923 10.5338 2.12308 11.8261 2.76923C13.0261 3.41538 14.0415 3.78462 14.9646 4.15385C15.3338 4.33846 15.5184 4.52308 15.5184 4.70769C15.5184 4.98462 15.3338 5.26154 14.8723 5.26154H0.749181C0.287643 5.16923 0.103027 5.44615 0.103027 5.72308C0.103027 6 0.195335 6.18462 0.37995 6.36923C1.48764 7.56923 3.3338 9.04615 6.01072 10.7077C8.31841 12.1846 11.2723 13.7538 13.58 14.8615C13.9492 15.0462 14.1338 15.2308 14.1338 15.5077C14.1338 15.7846 13.9492 15.9692 13.4876 15.9692H6.9338C6.56457 15.9692 6.37995 16.1538 6.37995 16.4308C6.37995 16.6154 6.47226 16.8 6.65687 16.9846C8.1338 18.3692 10.5338 19.7538 13.6723 21.1385C17.9184 22.8923 22.1646 24 26.9646 24C36.103 24 40.0723 17.1692 40.0723 11.8154ZM28.1646 20.0308C23.7338 20.0308 19.9492 16.4308 19.9492 11.8154C19.9492 7.38462 23.6415 3.78462 28.1646 3.78462C32.78 3.78462 36.38 7.38462 36.38 11.8154C36.38 16.3385 32.78 20.0308 28.1646 20.0308Z" fill="#FF642D"/>
</g>
<defs>
<clipPath id="clip0_1320_11256">
<rect width="180.092" height="24" fill="white" transform="translate(0.103027)"/>
</clipPath>
</defs>
</svg>
