<svg width="137" height="24" viewBox="0 0 137 24" fill="none" xmlns="http://www.w3.org/2000/svg">
<g clip-path="url(#clip0_1320_11643)">
<path fill-rule="evenodd" clip-rule="evenodd" d="M47.4337 15.2969C48.0009 14.0272 49.19 13.1627 50.7577 13.1627C52.3254 13.1627 53.4876 13.892 53.974 15.2969H47.4337ZM57.7035 16.918C57.7035 13.0274 54.8656 9.92061 50.7308 9.92061C46.8389 9.92061 43.7039 13.0544 43.7039 16.9451C43.7039 20.8355 46.6229 23.9693 50.839 23.9693C53.7589 23.9693 55.859 22.5614 57.0406 20.543L54.1039 18.7924C53.4808 19.9874 52.2849 20.7274 50.8659 20.7274C48.92 20.7274 47.704 19.7546 47.2714 18.2688H57.7035V16.918ZM133.082 16.918C133.082 14.9188 131.623 13.2977 129.623 13.2977C127.569 13.2977 126.002 14.8377 126.002 16.918C126.002 18.9981 127.569 20.5653 129.623 20.5653C131.623 20.5653 133.082 18.9173 133.082 16.918ZM122.38 16.9451C122.38 12.1633 125.894 9.92061 128.947 9.92061C130.704 9.92061 132.082 10.569 132.974 11.5145V3.97697H136.677V23.6991H132.974V22.1864C132.082 23.2401 130.65 23.9693 128.893 23.9693C126.029 23.9693 122.38 21.6999 122.38 16.9451ZM119.66 8.13484C120.883 8.13484 121.875 7.14361 121.875 5.92075C121.875 4.69789 120.883 3.70667 119.66 3.70667C118.437 3.70667 117.446 4.69789 117.446 5.92075C117.446 7.14361 118.437 8.13484 119.66 8.13484ZM117.809 10.1909H121.511V23.6991H117.809V13.7842L116.465 13.784L117.809 10.1909ZM107.946 10.1909H111.621V12.4063C112.297 11.0014 113.513 10.1909 115.351 10.1909H116.837L115.495 13.784H114.486C112.513 13.784 111.648 14.8107 111.648 17.3233V23.6991H107.946V10.1909ZM87.1162 13.8381C87.1162 8.2185 91.3593 3.70667 97.1968 3.70667C100.117 3.70667 102.572 4.75775 104.35 6.43272C105.074 7.11424 105.685 7.8993 106.169 8.75891L102.872 10.7581C101.656 8.51557 99.7914 7.35387 97.2239 7.35387C93.6294 7.35387 90.8457 10.2989 90.8457 13.8381C90.8457 17.4584 93.5755 20.322 97.3589 20.322C100.224 20.322 102.251 18.7012 102.953 16.1885H96.7644V12.5954H107.007V14.1082C107.007 19.4037 103.224 23.9693 97.3589 23.9693C91.1972 23.9693 87.1162 19.2956 87.1162 13.8381ZM82.653 16.918C82.653 14.9188 81.1937 13.2977 79.1939 13.2977C77.1399 13.2977 75.5722 14.8377 75.5722 16.918C75.5722 18.9981 77.1399 20.5653 79.1939 20.5653C81.1937 20.5653 82.653 18.9173 82.653 16.918ZM71.9507 16.9451C71.9507 12.1633 75.464 9.92061 78.518 9.92061C80.2746 9.92061 81.653 10.569 82.545 11.5145V3.97697H86.2476V23.6991H82.545V22.1864C81.653 23.2401 80.2207 23.9693 78.4641 23.9693C75.5994 23.9693 71.9507 21.6999 71.9507 16.9451ZM58.569 10.1909H62.2449V11.7038C63.1095 10.596 64.434 9.92061 65.9744 9.92061C69.1633 9.92061 71.0823 11.9739 71.0823 15.459V23.6991H67.3256V15.9453C67.3256 14.1353 66.4877 13.0816 64.8394 13.0816C63.4338 13.0816 62.2718 14.0541 62.2718 16.3235V23.6991H58.569V10.1909ZM28.3379 20.4302L31.7705 17.7283C32.7432 19.4037 34.2839 20.3762 36.0402 20.3762C37.9594 20.3762 38.9864 19.1335 38.9864 17.7824C38.9864 16.1615 37.0132 15.6484 34.9053 14.9996C32.2569 14.1893 29.311 13.1627 29.311 9.3802C29.311 6.21931 32.0679 3.70667 35.8783 3.70667C39.0945 3.70667 40.9322 4.92246 42.5269 6.57066L39.4187 8.92102C38.6081 7.70541 37.446 7.0568 35.9052 7.0568C34.1486 7.0568 33.203 8.00248 33.203 9.24524C33.203 10.7581 35.0946 11.2717 37.2025 11.9739C39.8784 12.8384 42.9051 14.0272 42.9051 17.8097C42.9051 20.9434 40.4186 23.9693 36.0674 23.9693C32.5003 23.9693 30.122 22.4567 28.3379 20.4302Z" fill="#212F38"/>
<path fill-rule="evenodd" clip-rule="evenodd" d="M8.12622 23.699H16.0175V15.8104H8.12622V23.699Z" fill="#9DD6E3"/>
<path fill-rule="evenodd" clip-rule="evenodd" d="M0.234863 15.8108H8.12612V7.92212H0.234863V15.8108Z" fill="#9DD6E3"/>
<path fill-rule="evenodd" clip-rule="evenodd" d="M0.235107 23.699H8.12636V15.8104H0.235107V23.699Z" fill="#3F72AB"/>
<path fill-rule="evenodd" clip-rule="evenodd" d="M16.0176 15.8108H23.9088V7.92212H16.0176V15.8108Z" fill="#00A9D1"/>
<path fill-rule="evenodd" clip-rule="evenodd" d="M8.12622 7.92237H16.0175V0.0338135H8.12622V7.92237Z" fill="#00A9D1"/>
<path fill-rule="evenodd" clip-rule="evenodd" d="M8.12622 15.8107H16.0175V7.92212H8.12622V15.8107Z" fill="#2191C4"/>
<path fill-rule="evenodd" clip-rule="evenodd" d="M16.0176 7.92237H23.9088V0.0338135H16.0176V7.92237Z" fill="#3F72AB"/>
</g>
<defs>
<clipPath id="clip0_1320_11643">
<rect width="136.556" height="24" fill="white" transform="translate(0.195312)"/>
</clipPath>
</defs>
</svg>
