<svg width="85" height="24" viewBox="0 0 85 24" fill="none" xmlns="http://www.w3.org/2000/svg">
<g clip-path="url(#clip0_1320_11859)">
<path d="M18.413 4.5456C18.3966 4.42639 18.2925 4.36025 18.206 4.35305C18.1202 4.34585 16.4397 4.32031 16.4397 4.32031C16.4397 4.32031 15.0342 2.95544 14.8954 2.8166C14.7565 2.67775 14.4854 2.71967 14.3799 2.7511C14.3786 2.75176 14.116 2.83297 13.6739 2.96985C13.5999 2.73015 13.4912 2.43543 13.336 2.1394C12.8356 1.18452 12.1028 0.679574 11.2173 0.678267C11.216 0.678267 11.2153 0.678267 11.214 0.678267C11.1525 0.678267 11.0915 0.684161 11.03 0.689398C11.0038 0.657962 10.9776 0.627183 10.9501 0.597053C10.5643 0.184452 10.0699 -0.0166104 9.47717 0.00107257C8.33367 0.0338189 7.19477 0.85968 6.27133 2.32671C5.62163 3.35887 5.12715 4.65565 4.98701 5.65963C3.67388 6.06633 2.75567 6.35056 2.73537 6.35713C2.07258 6.56538 2.05163 6.58568 1.96517 7.2105C1.90099 7.68267 0.166748 21.093 0.166748 21.093L14.7002 23.6066L20.9993 22.0406C20.9993 22.0406 18.4293 4.66481 18.413 4.5456ZM12.9463 3.19514C12.6117 3.29862 12.2311 3.41651 11.8185 3.54422C11.81 2.96527 11.7412 2.15971 11.4714 1.46352C12.3392 1.62791 12.7662 2.60964 12.9463 3.19514ZM11.0581 3.77999C10.2965 4.01575 9.46537 4.27314 8.63167 4.5312C8.86612 3.63329 9.31083 2.73932 9.85704 2.15316C10.0601 1.93507 10.3443 1.69209 10.6809 1.55324C10.9972 2.21341 11.066 3.14799 11.0581 3.77999ZM9.50007 0.762094C9.7686 0.756201 9.99455 0.815146 10.1878 0.942201C9.87864 1.10266 9.57998 1.33319 9.29969 1.6338C8.57336 2.41316 8.01668 3.62281 7.79466 4.78989C7.10239 5.00404 6.4252 5.21429 5.80171 5.40685C6.19535 3.56976 7.73505 0.813179 9.50007 0.762094Z" fill="#95BF47"/>
<path d="M18.2067 4.35371C18.121 4.34651 16.4404 4.32097 16.4404 4.32097C16.4404 4.32097 15.035 2.95611 14.8961 2.81726C14.8444 2.76552 14.7743 2.73867 14.7009 2.72754L14.7016 23.6059L21 22.0406C21 22.0406 18.4301 4.66547 18.4137 4.54626C18.3973 4.42705 18.2925 4.36091 18.2067 4.35371Z" fill="#5E8E3E"/>
<path d="M11.2094 7.59229L10.4778 10.3292C10.4778 10.3292 9.66179 9.95786 8.69447 10.0188C7.27588 10.1085 7.26081 11.0031 7.27525 11.2278C7.35252 12.4518 10.5728 12.719 10.7536 15.5863C10.8957 17.8419 9.55698 19.3849 7.62824 19.5067C5.31307 19.6527 4.03857 18.2872 4.03857 18.2872L4.52913 16.2006C4.52913 16.2006 5.81211 17.1686 6.83904 17.1038C7.5097 17.0612 7.74938 16.5156 7.72515 16.1299C7.62431 14.5332 5.00197 14.6275 4.83629 12.0038C4.69678 9.79612 6.14681 7.55889 9.34609 7.35717C10.5787 7.27793 11.2094 7.59229 11.2094 7.59229Z" fill="white"/>
<path d="M29.2941 13.3234C28.5698 12.9304 28.1975 12.5991 28.1975 12.1437C28.1975 11.5643 28.7146 11.1921 29.5221 11.1921C30.462 11.1921 31.3013 11.5851 31.3013 11.5851L31.9632 9.55708C31.9632 9.55708 31.3545 9.08093 29.563 9.08093C27.0699 9.08093 25.342 10.5087 25.342 12.5159C25.342 13.654 26.1488 14.5231 27.2251 15.1435C28.0943 15.6398 28.4048 15.9919 28.4048 16.5089C28.4048 17.0468 27.9702 17.4814 27.1634 17.4814C25.961 17.4814 24.8255 16.8604 24.8255 16.8604L24.1221 18.8884C24.1221 18.8884 25.1711 19.5919 26.9361 19.5919C29.5019 19.5919 31.3435 18.3297 31.3435 16.0536C31.3428 14.8337 30.412 13.9645 29.2941 13.3234Z" fill="black"/>
<path d="M39.5161 9.06075C38.2539 9.06075 37.2607 9.66099 36.4955 10.5711L36.4539 10.5502L37.5504 4.81897H34.6948L31.9224 19.4061H34.7779L35.7296 14.4198C36.1018 12.5367 37.0742 11.3785 37.985 11.3785C38.6261 11.3785 38.8749 11.813 38.8749 12.4341C38.8749 12.8271 38.8333 13.3032 38.7508 13.6962L37.6751 19.4067H40.5308L41.6478 13.5098C41.7721 12.8888 41.8551 12.1444 41.8551 11.6474C41.854 10.0332 41.0057 9.06075 39.5161 9.06075Z" fill="black"/>
<path d="M48.3095 9.06079C44.8744 9.06079 42.5991 12.1645 42.5991 15.6197C42.5991 17.8335 43.9644 19.6127 46.5304 19.6127C49.903 19.6127 52.1791 16.5921 52.1791 13.0538C52.1791 11.0057 50.9787 9.06079 48.3095 9.06079ZM46.9026 17.4203C45.93 17.4203 45.5161 16.5927 45.5161 15.5579C45.5161 13.9236 46.3648 11.2545 47.9165 11.2545C48.9304 11.2545 49.2609 12.1236 49.2609 12.972C49.2609 14.7304 48.4134 17.4203 46.9026 17.4203Z" fill="black"/>
<path d="M59.4828 9.06079C57.5554 9.06079 56.4616 10.7575 56.4616 10.7575H56.4207L56.5863 9.22643H54.062C53.938 10.2612 53.7098 11.8332 53.4828 13.0129L51.4963 23.4615H54.3519L55.1377 19.2404H55.2002C55.2002 19.2404 55.786 19.6127 56.8763 19.6127C60.228 19.6127 62.4211 16.1783 62.4211 12.7017C62.4211 10.7783 61.5724 9.06079 59.4828 9.06079ZM56.7516 17.4612C56.0103 17.4612 55.5716 17.0474 55.5716 17.0474L56.0477 14.3783C56.379 12.5991 57.3098 11.4194 58.3033 11.4194C59.1724 11.4194 59.4411 12.2262 59.4411 12.9921C59.4411 14.8337 58.3446 17.4612 56.7516 17.4612Z" fill="black"/>
<path d="M66.4972 4.96399C65.5871 4.96399 64.8628 5.68828 64.8628 6.61912C64.8628 7.4675 65.4006 8.04693 66.2076 8.04693H66.2489C67.1389 8.04693 67.9041 7.44669 67.925 6.39179C67.925 5.56419 67.3663 4.96399 66.4972 4.96399Z" fill="black"/>
<path d="M62.5042 19.4061H65.359L67.3045 9.28882H64.4281L62.5042 19.4061Z" fill="black"/>
<path d="M74.567 9.26799H72.5805L72.6836 8.79185C72.8492 7.81942 73.4288 6.95026 74.3805 6.95026C74.8884 6.95026 75.2905 7.09513 75.2905 7.09513L75.8492 4.86057C75.8492 4.86057 75.3527 4.61243 74.2971 4.61243C73.2832 4.61243 72.2701 4.90212 71.5041 5.56405C70.5315 6.39165 70.0762 7.59142 69.8488 8.79185L69.7666 9.26799H68.4419L68.028 11.4201H69.3527L67.8423 19.4067H70.6979L72.2083 11.4201H74.174L74.567 9.26799Z" fill="black"/>
<path d="M81.4362 9.28888C81.4362 9.28888 79.6511 13.7859 78.8497 16.2407H78.808C78.7537 15.4502 78.1045 9.28888 78.1045 9.28888H75.1041L76.8223 18.5786C76.864 18.7852 76.8431 18.9099 76.7601 19.0547C76.4285 19.6959 75.8702 20.3169 75.208 20.7722C74.6702 21.1652 74.0702 21.4134 73.5945 21.579L74.3806 24C74.9601 23.876 76.1597 23.3998 77.1736 22.4482C78.4775 21.2276 79.6771 19.3444 80.9184 16.7786L84.4153 9.28821H81.4362V9.28888Z" fill="black"/>
</g>
<defs>
<clipPath id="clip0_1320_11859">
<rect width="84.5902" height="24" fill="white" transform="translate(0.166748)"/>
</clipPath>
</defs>
</svg>
