<svg width="97" height="24" viewBox="0 0 97 24" fill="none" xmlns="http://www.w3.org/2000/svg">
<g clip-path="url(#clip0_1320_11518)">
<path d="M30.5006 18.9909L31.6722 16.2525C32.9551 17.2025 34.6282 17.7053 36.3018 17.7053C37.529 17.7053 38.3098 17.2305 38.3098 16.5041C38.2818 14.4921 30.919 16.0569 30.863 10.9985C30.835 8.42772 33.1222 6.44373 36.3578 6.44373C38.2818 6.44373 40.2066 6.91893 41.573 8.00892L40.4782 10.8057C39.221 9.99731 37.6682 9.43372 36.1903 9.43372C35.1862 9.43372 34.5166 9.90851 34.5166 10.5237C34.5446 12.5077 41.9638 11.4177 42.0474 16.2525C42.0474 18.8793 39.8158 20.7237 36.6362 20.7237C34.2938 20.7237 32.1463 20.165 30.5002 18.9909H30.5006ZM77.1518 15.2609C76.856 15.7864 76.4259 16.2237 75.9054 16.5281C75.3848 16.8324 74.7928 16.9928 74.1898 16.9929C72.3106 16.9929 70.7874 15.4665 70.7874 13.5837C70.7874 11.7009 72.3106 10.1745 74.1898 10.1745C74.7928 10.1745 75.3848 10.335 75.9054 10.6394C76.4259 10.9437 76.856 11.3811 77.1518 11.9066L80.409 10.0985C79.189 7.91812 76.8618 6.44373 74.1898 6.44373C70.2542 6.44373 67.0639 9.64009 67.0639 13.5837C67.0639 17.5269 70.2542 20.7237 74.1898 20.7237C76.8618 20.7237 79.189 19.2493 80.409 17.069L77.1518 15.2609ZM44.161 20.4441H48.233V0.500122H44.1614L44.161 20.4441ZM82.4654 0.500122V20.4441H86.5375V14.4689L91.3626 20.4441H96.5675L90.4314 13.3457L96.121 6.72213H91.1394L86.5375 12.2289V0.500122H82.4654ZM60.7783 6.72292V8.34412C60.109 7.22613 58.4634 6.44373 56.7343 6.44373C53.1642 6.44373 50.3474 9.60169 50.3474 13.5698C50.3474 17.5377 53.1642 20.7237 56.7343 20.7237C58.4634 20.7237 60.109 19.9413 60.7783 18.8234V20.4441H64.8502V6.72292H60.7783ZM60.7783 15.2885C60.1927 16.2665 58.9654 16.9925 57.599 16.9925C55.7194 16.9925 54.1962 15.4665 54.1962 13.5837C54.1962 11.7009 55.7194 10.1745 57.599 10.1745C58.9654 10.1745 60.1927 10.9289 60.7783 11.9345V15.2885Z" fill="black"/>
<path d="M8.99615 0.0593262C7.67655 0.0593262 6.60695 1.13132 6.60695 2.45333C6.60664 2.76739 6.66819 3.07845 6.78808 3.36874C6.90799 3.65902 7.08388 3.92284 7.30574 4.14515C7.5276 4.36745 7.79107 4.54388 8.08111 4.66436C8.37115 4.78484 8.68209 4.84701 8.99615 4.84733H11.3858V2.45333C11.3863 1.819 11.1348 1.21044 10.6867 0.761482C10.2386 0.312531 9.63048 0.0599624 8.99615 0.0593262ZM8.99615 6.44333H2.62455C1.30495 6.44333 0.235352 7.51532 0.235352 8.83772C0.235352 10.1597 1.30495 11.2317 2.62455 11.2317H8.99655C10.3157 11.2317 11.3858 10.1597 11.3858 8.83772C11.3858 7.51532 10.3157 6.44333 8.99615 6.44333Z" fill="#2FBDEE"/>
<path d="M24.1289 8.83772C24.1289 7.51532 23.0589 6.44333 21.7393 6.44333C20.4197 6.44333 19.3501 7.51532 19.3501 8.83772V11.2317H21.7393C22.3737 11.2311 22.9817 10.9785 23.4298 10.5296C23.878 10.0806 24.1294 9.47205 24.1289 8.83772ZM17.7573 8.83772V2.45333C17.7578 1.819 17.5064 1.21044 17.0582 0.761482C16.6101 0.312531 16.002 0.0599624 15.3677 0.0593262C14.0481 0.0593262 12.9785 1.13132 12.9785 2.45333V8.83733C12.9785 10.1601 14.0481 11.2321 15.3677 11.2321C16.002 11.2315 16.6101 10.9789 17.0582 10.53C17.5064 10.081 17.7578 9.47245 17.7573 8.83813" fill="#29AD72"/>
<path d="M15.3677 24.0001C16.002 23.9996 16.6101 23.747 17.0582 23.298C17.5064 22.8491 17.7578 22.2405 17.7573 21.6062C17.7578 20.9718 17.5064 20.3633 17.0582 19.9143C16.6101 19.4654 16.002 19.2128 15.3677 19.2121H12.9785V21.6062C12.9785 22.9282 14.0481 24.0001 15.3677 24.0001ZM15.3677 17.6161H21.7397C23.0589 17.6161 24.1289 16.5442 24.1289 15.2218C24.1294 14.5874 23.878 13.9789 23.4298 13.5299C22.9817 13.081 22.3737 12.8284 21.7393 12.8278H15.3677C14.0481 12.8278 12.9785 13.8998 12.9785 15.2218C12.9781 15.5358 13.0398 15.8469 13.1597 16.1372C13.2795 16.4275 13.4554 16.6913 13.6773 16.9136C13.8992 17.1359 14.1626 17.3123 14.4527 17.4328C14.7427 17.5533 15.0537 17.6155 15.3677 17.6158" fill="#E9A929"/>
<path d="M0.235353 15.2218C0.235037 15.5358 0.296586 15.8469 0.416483 16.1372C0.536382 16.4275 0.712281 16.6913 0.934139 16.9136C1.156 17.1359 1.41946 17.3123 1.70951 17.4328C1.99955 17.5533 2.31049 17.6155 2.62455 17.6158C3.25888 17.6151 3.86698 17.3625 4.31511 16.9136C4.76323 16.4646 5.01468 15.8561 5.01416 15.2218V12.8278H2.62455C1.30495 12.8278 0.235353 13.8998 0.235353 15.2218ZM6.60695 15.2218V21.6058C6.60695 22.9282 7.67655 24.0001 8.99615 24.0001C9.63048 23.9996 10.2386 23.747 10.6867 23.298C11.1348 22.8491 11.3863 22.2405 11.3858 21.6062V15.2218C11.386 14.9077 11.3245 14.5966 11.2046 14.3063C11.0847 14.016 10.9087 13.7521 10.6869 13.5298C10.4649 13.3075 10.2014 13.1311 9.91129 13.0106C9.62123 12.8902 9.31026 12.828 8.99615 12.8278C7.67655 12.8278 6.60695 13.8998 6.60695 15.2218Z" fill="#DC1C50"/>
</g>
<defs>
<clipPath id="clip0_1320_11518">
<rect width="96" height="24" fill="white" transform="translate(0.235352)"/>
</clipPath>
</defs>
</svg>
