<svg width="58" height="24" viewBox="0 0 58 24" fill="none" xmlns="http://www.w3.org/2000/svg">
<g clip-path="url(#clip0_1320_11074)">
<path d="M4.03536 9.36269C4.03536 8.74071 4.54576 8.50138 5.39125 8.50138C6.60336 8.50138 8.13454 8.86834 9.34677 9.52228V5.77391C8.02295 5.24759 6.71507 5.04022 5.39125 5.04022C2.15327 5.04022 0 6.73099 0 9.55424C0 13.9563 6.06101 13.2546 6.06101 15.1527C6.06101 15.8863 5.4231 16.1256 4.52983 16.1256C3.20602 16.1256 1.51525 15.5833 0.175402 14.8496V18.6458C1.6588 19.2838 3.15813 19.5548 4.52983 19.5548C7.84744 19.5548 10.1283 17.9121 10.1283 15.057C10.1124 10.3039 4.03536 11.1491 4.03536 9.36269ZM14.8176 1.85024L10.9258 2.67959L10.9099 15.4557C10.9099 17.8164 12.6804 19.5548 15.041 19.5548C16.3489 19.5548 17.3059 19.3156 17.8322 19.0285V15.7907C17.3219 15.998 14.8017 16.7317 14.8017 14.3711V8.70875H17.8322V5.3114H14.8017L14.8176 1.85024ZM22.7928 6.49166L22.5376 5.3114H19.0923V19.2677H23.0799V9.80938C24.0209 8.58123 25.616 8.80452 26.1104 8.97993V5.3114C25.6 5.11996 23.7339 4.76905 22.7928 6.49166ZM27.0833 5.3114H31.0868V19.2677H27.0833V5.3114ZM27.0833 4.09918L31.0868 3.23787V0L27.0833 0.845383V4.09918ZM39.4128 5.04022C37.8497 5.04022 36.8448 5.77391 36.2867 6.28441L36.0792 5.29548H32.5702V23.8932L36.5577 23.048L36.5738 18.5341C37.148 18.9488 37.9932 19.5389 39.3969 19.5389C42.252 19.5389 44.8518 17.2421 44.8518 12.1859C44.8359 7.56034 42.2041 5.04022 39.4128 5.04022ZM38.4559 16.0299C37.5148 16.0299 36.9564 15.695 36.5738 15.2803L36.5577 9.36269C36.9725 8.90019 37.5467 8.58123 38.4559 8.58123C39.9073 8.58123 40.9122 10.2081 40.9122 12.2975C40.9122 14.4349 39.9232 16.0299 38.4559 16.0299ZM57.4206 12.3454C57.4206 8.26217 55.4427 5.04022 51.6626 5.04022C47.8663 5.04022 45.5695 8.26228 45.5695 12.3136C45.5695 17.1145 48.2812 19.5389 52.1729 19.5389C54.071 19.5389 55.5065 19.1083 56.5911 18.5022V15.3121C55.5066 15.8545 54.2624 16.1895 52.6834 16.1895C51.1362 16.1895 49.7645 15.6471 49.5891 13.765H57.3887C57.3887 13.5575 57.4206 12.7282 57.4206 12.3454ZM49.5412 10.8302C49.5412 9.02781 50.6418 8.27809 51.6467 8.27809C52.6196 8.27809 53.6564 9.02781 53.6564 10.8302H49.5412Z" fill="#6772E5"/>
</g>
<defs>
<clipPath id="clip0_1320_11074">
<rect width="57.4206" height="24" fill="white"/>
</clipPath>
</defs>
</svg>
