<svg width="117" height="24" viewBox="0 0 117 24" fill="none" xmlns="http://www.w3.org/2000/svg">
<g clip-path="url(#clip0_1320_11654)">
<path fill-rule="evenodd" clip-rule="evenodd" d="M20.9083 0.097168H3.16769C1.64151 0.097168 0.403713 1.33329 0.401634 2.85947V20.574C0.398683 21.3095 0.68879 22.016 1.20784 22.5371C1.7269 23.0583 2.43215 23.3512 3.16769 23.3512H20.9083C21.6432 23.3503 22.3475 23.0568 22.8658 22.5359C23.384 22.0148 23.6736 21.3089 23.6706 20.574V2.85947C23.6686 1.33474 22.4331 0.0992209 20.9083 0.097168ZM10.437 16.8462C10.4359 17.0921 10.3371 17.3274 10.1622 17.5002C9.98733 17.673 9.75083 17.769 9.50493 17.7671H5.62805C5.12098 17.7649 4.71101 17.3533 4.71101 16.8462V5.30864C4.71101 4.80157 5.12098 4.38993 5.62805 4.38787H9.50493C10.0126 4.38992 10.4237 4.80097 10.4257 5.30864L10.437 16.8462ZM19.3837 11.549C19.3837 11.7951 19.2851 12.0311 19.11 12.204C18.9349 12.3771 18.6978 12.4727 18.4518 12.4699H14.5748C14.0671 12.4678 13.6561 12.0567 13.6541 11.549V5.30864C13.6561 4.80097 14.0671 4.38992 14.5748 4.38787H18.4518C18.9588 4.38993 19.3687 4.80157 19.3687 5.30864L19.3837 11.549Z" fill="url(#paint0_linear_1320_11654)"/>
<path d="M48.617 1.80078V6.29652H43.2899V23.3513H38.153V6.29652H32.8259V1.80078H48.617Z" fill="#293856"/>
<path d="M55.1557 23.3513H50.4065V6.57613H55.1557V9.78955C56.0579 7.52673 57.5005 6.18098 60.069 6.345V11.3142C56.714 11.0532 55.1557 11.8734 55.1557 14.5611V23.3513Z" fill="#293856"/>
<path d="M86.0144 23.4817C82.9017 23.4817 80.9446 21.9906 80.9446 18.4641V0.097168H85.7273V17.808C85.7273 18.8257 86.3983 19.1873 87.2185 19.1873C87.455 19.1921 87.6916 19.1808 87.9267 19.1537V23.2879C87.3013 23.4403 86.6577 23.5055 86.0144 23.4817Z" fill="#293856"/>
<path d="M95.9895 23.4817C92.8769 23.4817 90.9163 21.9906 90.9163 18.4641V0.097168H95.6987V17.808C95.6987 18.8257 96.3735 19.1873 97.2089 19.1873C97.4443 19.1922 97.6796 19.1809 97.9132 19.1537V23.2879C97.2846 23.4417 96.6366 23.5069 95.9895 23.4817Z" fill="#293856"/>
<path d="M100.206 14.9562C100.206 9.7745 103.189 6.22937 108.326 6.22937C113.463 6.22937 116.381 9.76333 116.381 14.9562C116.381 20.1491 113.428 23.7464 108.326 23.7464C103.222 23.7464 100.206 20.1043 100.206 14.9562ZM104.862 14.9562C104.862 17.4799 105.921 19.4818 108.326 19.4818C110.73 19.4818 111.729 17.4799 111.729 14.9562C111.729 12.4324 110.704 10.4828 108.326 10.4828C105.947 10.4828 104.862 12.4287 104.862 14.9562Z" fill="#293856"/>
<path d="M66.4808 16.4734C67.8105 16.6195 69.1469 16.6979 70.4845 16.7082C74.1228 16.7082 77.1945 15.7316 77.1945 12.2088C77.1945 8.79039 74.0371 6.22192 70.2385 6.22192C65.1239 6.22192 61.8472 9.93107 61.8472 15.1128C61.8472 20.492 64.6728 23.6867 71.0585 23.6867C72.953 23.7022 74.8338 23.3659 76.6056 22.6951V18.6766C74.9653 19.2022 73.1201 19.7241 71.2264 19.7241C68.6839 19.7241 66.9133 18.889 66.4808 16.4734ZM70.1416 9.88261C71.4873 9.88261 72.5683 10.7959 72.5683 12.0447C72.5683 13.6514 70.8722 14.1547 68.9189 14.1547C68.0874 14.1509 67.2576 14.0848 66.4361 13.9572C66.4982 13.1738 66.7229 12.412 67.0959 11.7205C67.7054 10.6044 68.87 9.90448 70.1416 9.89008V9.88261Z" fill="#293856"/>
</g>
<defs>
<linearGradient id="paint0_linear_1320_11654" x1="12.0474" y1="23.3512" x2="12.0474" y2="0.097168" gradientUnits="userSpaceOnUse">
<stop stop-color="#0052CC"/>
<stop offset="1" stop-color="#2684FF"/>
</linearGradient>
<clipPath id="clip0_1320_11654">
<rect width="116.308" height="24" fill="white" transform="translate(0.185303)"/>
</clipPath>
</defs>
</svg>
