<svg width="81" height="24" viewBox="0 0 81 24" fill="none" xmlns="http://www.w3.org/2000/svg">
<mask id="mask0_1320_11850" style="mask-type:alpha" maskUnits="userSpaceOnUse" x="0" y="0" width="81" height="24">
<path d="M12.4809 0C19.1142 0 24.4688 5.36 24.4688 12C24.4688 18.64 19.1142 24 12.4809 24C5.84755 24 0.49292 18.64 0.49292 12C0.49292 5.36 5.84755 0 12.4809 0ZM12.4809 3.2C7.60578 3.2 3.68971 7.12 3.68971 12C3.68971 16.88 7.60578 20.8 12.4809 20.8C17.356 20.8 21.272 16.88 21.272 12C21.272 7.12 17.356 3.2 12.4809 3.2ZM32.8604 4.72C33.0203 4.64 33.1801 4.8 33.1801 4.88V8.31997H39.5737C39.6536 8.31997 39.8135 8.48002 39.8135 8.55997L40.2929 10.56L40.7725 12.56L40.8524 12.8L40.9323 12.56L42.1311 8.55997C42.1311 8.4 42.2909 8.31997 42.3709 8.31997H45.5677C45.6476 8.31997 45.8074 8.48002 45.8074 8.55997L47.0861 12.8L47.1661 12.56L48.205 8.55997C48.205 8.4 48.3648 8.31997 48.4448 8.31997H56.5966C56.6765 8.31997 56.7564 8.48002 56.7564 8.55997V19.2C56.7564 19.36 56.5966 19.44 56.5166 19.44H52.4408C52.2809 19.44 52.201 19.28 52.201 19.2L52.2005 9.12L49.164 19.2C49.164 19.34 49.0417 19.4188 48.9575 19.4363L48.9243 19.44H45.5677C45.4877 19.44 45.3279 19.28 45.3279 19.2L44.6885 17.04L43.9693 14.72L42.5307 19.2C42.5307 19.36 42.3709 19.44 42.2909 19.44H38.9343C38.8544 19.44 38.6945 19.28 38.6945 19.2L35.6576 9.12V11.68C35.6576 11.84 35.4977 11.92 35.4179 11.92H33.1001V14.64C33.1001 15.44 33.4997 15.76 34.2191 15.76C34.5387 15.76 34.9383 15.68 35.3379 15.52C35.4179 15.44 35.5777 15.52 35.5777 15.68V18.88C34.8584 19.28 33.8195 19.52 32.7006 19.52C30.0632 19.52 28.6247 18.32 28.6247 15.68V11.92H27.5857C27.4259 11.92 27.346 11.76 27.346 11.68V8.64C27.346 8.48003 27.5058 8.4 27.5857 8.4H28.6247V6.24C28.6247 6.08 28.7046 6 28.8644 6L32.8604 4.72ZM74.099 8.07998C77.6154 8.07998 80.1729 10.72 80.1729 13.76C80.1729 16.8 77.6154 19.44 74.0191 19.44C70.5026 19.44 67.9452 16.8 67.9452 13.76C67.9452 10.72 70.5026 8.07998 74.099 8.07998ZM61.9512 4.72C62.111 4.72 62.191 4.8 62.191 4.88V19.12C62.191 19.28 62.0311 19.36 61.9512 19.36H57.8753C57.7154 19.36 57.6356 19.2 57.6356 19.12V4.96C57.6356 4.8 57.7954 4.72 57.8753 4.72H61.9512ZM67.3058 8.31997C67.4657 8.31997 67.5456 8.48002 67.5456 8.55997V19.04C67.5456 19.2 67.3857 19.28 67.3058 19.28H63.2299C63.0701 19.28 62.9902 19.12 62.9902 19.04V8.55997C62.9902 8.4 63.15 8.31997 63.2299 8.31997H67.3058ZM9.52382 12.48C10.8825 12.48 12.0014 13.6 12.0014 14.96C12.0014 16.32 10.8825 17.44 9.52382 17.44C8.16519 17.44 7.04634 16.32 7.04634 14.96C7.04634 13.6 8.16519 12.48 9.52382 12.48ZM15.4379 12.48C16.7966 12.48 17.9154 13.6 17.9154 14.96C17.9154 16.32 16.7966 17.44 15.4379 17.44C14.0792 17.44 12.9604 16.32 12.9604 14.96C12.9604 13.6 14.0792 12.48 15.4379 12.48ZM74.099 11.92C73.0601 11.92 72.3407 12.8 72.3407 13.84C72.3407 14.88 73.1399 15.76 74.099 15.76C75.1379 15.76 75.8574 14.88 75.8574 13.84C75.8574 12.72 75.0581 11.84 74.099 11.92ZM15.4379 6.56C16.7966 6.56 17.9154 7.68 17.9154 9.03998C17.9154 10.4 16.7966 11.52 15.4379 11.52C14.0792 11.52 12.9604 10.4 12.9604 9.03998C12.9604 7.68 14.0792 6.56 15.4379 6.56ZM9.52382 6.56C10.8825 6.56 12.0014 7.68 12.0014 9.03998C12.0014 10.4 10.8825 11.52 9.52382 11.52C8.16519 11.52 7.04634 10.4 7.04634 9.03998C7.04634 7.68 8.16519 6.56 9.52382 6.56ZM56.6765 4.72C56.7564 4.72 56.8364 4.8 56.9162 4.88V7.44C56.9162 7.59998 56.7564 7.68 56.6765 7.68H52.4408C52.2809 7.68 52.201 7.52003 52.201 7.44V4.96C52.201 4.8 52.3608 4.72 52.4408 4.72H56.6765ZM67.3857 4.72C67.5456 4.72 67.6255 4.8 67.6255 4.88V7.44C67.6255 7.59998 67.4657 7.68 67.3857 7.68H63.15C62.9902 7.68 62.9102 7.52003 62.9102 7.44V4.96C62.9102 4.8 63.0701 4.72 63.15 4.72H67.3857Z" fill="white"/>
</mask>
<g mask="url(#mask0_1320_11850)">
<path d="M12.4809 0C19.1142 0 24.4688 5.36 24.4688 12C24.4688 18.64 19.1142 24 12.4809 24C5.84755 24 0.49292 18.64 0.49292 12C0.49292 5.36 5.84755 0 12.4809 0ZM12.4809 3.2C7.60578 3.2 3.68971 7.12 3.68971 12C3.68971 16.88 7.60578 20.8 12.4809 20.8C17.356 20.8 21.272 16.88 21.272 12C21.272 7.12 17.356 3.2 12.4809 3.2ZM32.8604 4.72C33.0203 4.64 33.1801 4.8 33.1801 4.88V8.31997H39.5737C39.6536 8.31997 39.8135 8.48002 39.8135 8.55997L40.2929 10.56L40.7725 12.56L40.8524 12.8L40.9323 12.56L42.1311 8.55997C42.1311 8.4 42.2909 8.31997 42.3709 8.31997H45.5677C45.6476 8.31997 45.8074 8.48002 45.8074 8.55997L47.0861 12.8L47.1661 12.56L48.205 8.55997C48.205 8.4 48.3648 8.31997 48.4448 8.31997H56.5966C56.6765 8.31997 56.7564 8.48002 56.7564 8.55997V19.2C56.7564 19.36 56.5966 19.44 56.5166 19.44H52.4408C52.2809 19.44 52.201 19.28 52.201 19.2L52.2005 9.12L49.164 19.2C49.164 19.34 49.0417 19.4188 48.9575 19.4363L48.9243 19.44H45.5677C45.4877 19.44 45.3279 19.28 45.3279 19.2L44.6885 17.04L43.9693 14.72L42.5307 19.2C42.5307 19.36 42.3709 19.44 42.2909 19.44H38.9343C38.8544 19.44 38.6945 19.28 38.6945 19.2L35.6576 9.12V11.68C35.6576 11.84 35.4977 11.92 35.4179 11.92H33.1001V14.64C33.1001 15.44 33.4997 15.76 34.2191 15.76C34.5387 15.76 34.9383 15.68 35.3379 15.52C35.4179 15.44 35.5777 15.52 35.5777 15.68V18.88C34.8584 19.28 33.8195 19.52 32.7006 19.52C30.0632 19.52 28.6247 18.32 28.6247 15.68V11.92H27.5857C27.4259 11.92 27.346 11.76 27.346 11.68V8.64C27.346 8.48003 27.5058 8.4 27.5857 8.4H28.6247V6.24C28.6247 6.08 28.7046 6 28.8644 6L32.8604 4.72ZM74.099 8.07998C77.6154 8.07998 80.1729 10.72 80.1729 13.76C80.1729 16.8 77.6154 19.44 74.0191 19.44C70.5026 19.44 67.9452 16.8 67.9452 13.76C67.9452 10.72 70.5026 8.07998 74.099 8.07998ZM61.9512 4.72C62.111 4.72 62.191 4.8 62.191 4.88V19.12C62.191 19.28 62.0311 19.36 61.9512 19.36H57.8753C57.7154 19.36 57.6356 19.2 57.6356 19.12V4.96C57.6356 4.8 57.7954 4.72 57.8753 4.72H61.9512ZM67.3058 8.31997C67.4657 8.31997 67.5456 8.48002 67.5456 8.55997V19.04C67.5456 19.2 67.3857 19.28 67.3058 19.28H63.2299C63.0701 19.28 62.9902 19.12 62.9902 19.04V8.55997C62.9902 8.4 63.15 8.31997 63.2299 8.31997H67.3058ZM9.52382 12.48C10.8825 12.48 12.0014 13.6 12.0014 14.96C12.0014 16.32 10.8825 17.44 9.52382 17.44C8.16519 17.44 7.04634 16.32 7.04634 14.96C7.04634 13.6 8.16519 12.48 9.52382 12.48ZM15.4379 12.48C16.7966 12.48 17.9154 13.6 17.9154 14.96C17.9154 16.32 16.7966 17.44 15.4379 17.44C14.0792 17.44 12.9604 16.32 12.9604 14.96C12.9604 13.6 14.0792 12.48 15.4379 12.48ZM74.099 11.92C73.0601 11.92 72.3407 12.8 72.3407 13.84C72.3407 14.88 73.1399 15.76 74.099 15.76C75.1379 15.76 75.8574 14.88 75.8574 13.84C75.8574 12.72 75.0581 11.84 74.099 11.92ZM15.4379 6.56C16.7966 6.56 17.9154 7.68 17.9154 9.03998C17.9154 10.4 16.7966 11.52 15.4379 11.52C14.0792 11.52 12.9604 10.4 12.9604 9.03998C12.9604 7.68 14.0792 6.56 15.4379 6.56ZM9.52382 6.56C10.8825 6.56 12.0014 7.68 12.0014 9.03998C12.0014 10.4 10.8825 11.52 9.52382 11.52C8.16519 11.52 7.04634 10.4 7.04634 9.03998C7.04634 7.68 8.16519 6.56 9.52382 6.56ZM56.6765 4.72C56.7564 4.72 56.8364 4.8 56.9162 4.88V7.44C56.9162 7.59998 56.7564 7.68 56.6765 7.68H52.4408C52.2809 7.68 52.201 7.52003 52.201 7.44V4.96C52.201 4.8 52.3608 4.72 52.4408 4.72H56.6765ZM67.3857 4.72C67.5456 4.72 67.6255 4.8 67.6255 4.88V7.44C67.6255 7.59998 67.4657 7.68 67.3857 7.68H63.15C62.9902 7.68 62.9102 7.52003 62.9102 7.44V4.96C62.9102 4.8 63.0701 4.72 63.15 4.72H67.3857Z" fill="#F22F46"/>
</g>
</svg>
