<svg width="108" height="24" viewBox="0 0 108 24" fill="none" xmlns="http://www.w3.org/2000/svg">
<g clip-path="url(#clip0_1320_11910)">
<path d="M69.7966 16.6108C67.5711 16.6108 66.4283 14.7784 66.4283 12.5278C66.4283 10.2772 67.5511 8.54439 69.7966 8.54439C72.0823 8.54439 73.1653 10.3568 73.1653 12.5278C73.1453 14.8183 72.0024 16.6108 69.7966 16.6108ZM48.022 8.54439C49.325 8.54439 49.8666 9.30127 49.8666 9.95852C49.8666 11.5519 48.2424 12.2489 44.854 12.3486C44.854 10.3768 45.9768 8.54439 48.022 8.54439ZM33.5856 16.6108C31.4803 16.6108 30.598 14.8979 30.598 12.5278C30.598 10.1776 31.5003 8.54439 33.5856 8.54439C35.7109 8.54439 36.7135 10.2374 36.7135 12.5278C36.7135 14.9178 35.6708 16.6108 33.5856 16.6108ZM15.7808 6.21412H12.4925L17.9462 18.722C16.9036 21.0324 16.3422 21.6099 15.6203 21.6099C14.8585 21.6099 14.1366 20.9925 13.6153 20.4548L12.1717 22.3668C13.1542 23.4025 14.4975 24 15.881 24C17.6054 24 18.9287 23.0041 19.6906 21.2116L25.9865 6.19418H22.7583L19.4701 15.1568L15.7808 6.21412ZM102.88 8.54439C104.484 8.54439 104.805 9.63984 104.805 12.2091V18.961H107.652V10.4365C107.652 7.36931 105.547 6.03487 103.602 6.03487C101.878 6.03487 100.294 7.11037 99.4113 9.10207C98.9099 7.19005 97.3058 6.03487 95.4413 6.03487C93.8171 6.03487 92.193 7.07053 91.3111 9.00249V6.21412H88.4638V18.9411H91.3111V13.5038C91.3111 10.7552 92.7546 8.54439 94.7195 8.54439C96.3236 8.54439 96.6242 9.63984 96.6242 12.2091V18.961H99.4715L99.4514 13.5038C99.4514 10.7552 100.915 8.54439 102.88 8.54439ZM80.1611 6.21412H78.7194V18.9411H81.5662V14.0614C81.5662 10.9743 82.9298 8.88297 84.955 8.88297C85.476 8.88297 85.9172 8.90291 86.3985 9.10207L86.8397 6.0946C86.4788 6.05476 86.1581 6.01492 85.8369 6.01492C83.8322 6.01492 82.3883 7.38921 81.5461 9.16185V6.21412H80.1611ZM69.7966 6.01492C66.0273 6.01492 63.4807 8.88297 63.4807 12.5079C63.4807 16.2722 66.0674 19.0805 69.7966 19.0805C73.5864 19.0805 76.1727 16.1925 76.1727 12.5079C76.1527 8.86307 73.5262 6.01492 69.7966 6.01492ZM48.1822 16.6108C46.6986 16.6108 45.5959 15.854 45.1346 14.3203C48.9039 14.161 52.5934 13.2448 52.5934 9.91868C52.5934 8.00662 50.7087 6.03487 48.002 6.03487C44.3527 6.03487 41.8865 9.00249 41.8865 12.5278C41.8865 16.2124 44.3126 19.1004 47.9418 19.1004C50.4679 19.1004 52.0719 18.0847 53.3352 16.6108L51.9519 14.7386C50.4879 16.2324 49.586 16.6108 48.1822 16.6108ZM34.147 6.01492C32.7034 6.01492 31.2598 6.85143 30.6983 8.16598V6.21412H27.8511V23.9403H30.6983V17.6066C31.2999 18.5228 32.6833 19.1203 33.9064 19.1203C37.6959 19.1203 39.701 16.312 39.701 12.5278C39.6809 8.78339 37.716 6.01492 34.147 6.01492ZM14.1767 1.11535H0.74292V3.88382H5.99613V18.9411H8.98365V3.88382H14.1767V1.11535ZM56.5032 6.21412H54.7988V8.76349H56.5032V18.9411H59.3505V8.76349H62.1175V6.21412H59.3505V4.22241C59.3505 2.94772 59.8719 2.50954 61.0549 2.50954C61.4957 2.50954 61.8967 2.62905 62.4382 2.8083L63.0797 0.418257C62.5586 0.119502 61.5157 0 60.8341 0C58.1073 0 56.5032 1.6332 56.5032 4.46143V6.21412Z" fill="#262627"/>
</g>
<defs>
<clipPath id="clip0_1320_11910">
<rect width="106.909" height="24" fill="white" transform="translate(0.74292)"/>
</clipPath>
</defs>
</svg>
