<svg width="152" height="24" viewBox="0 0 152 24" fill="none" xmlns="http://www.w3.org/2000/svg">
<path d="M8.15063 19.3055C12.9635 19.3055 15.6492 16.394 15.6492 12.066V0.603638H11.8999V12.066C11.8999 14.4005 10.5438 15.8694 8.15063 15.8694C5.75748 15.8694 4.40136 14.4005 4.40136 12.066V0.603638H0.6521V12.066C0.6521 16.394 3.33775 19.3055 8.15063 19.3055Z" fill="#F16334"/>
<path d="M18.7949 18.9642H22.2517V17.5477C22.6239 17.9936 24.0066 19.3051 26.3731 19.3051C30.3618 19.3051 33.1804 16.3412 33.1804 12.1182C33.1804 7.86896 30.5745 4.90498 26.5859 4.90498C24.1927 4.90498 22.8101 6.21648 22.4643 6.68861V0H18.7949V18.9642ZM22.358 12.1444C22.358 9.57389 23.9003 8.10503 25.9211 8.10503C28.0484 8.10503 29.4843 9.75751 29.4843 12.1444C29.4843 14.5838 27.9952 16.1052 25.9211 16.1052C23.6875 16.1052 22.358 14.3215 22.358 12.1444Z" fill="#F16334"/>
<path d="M34.5413 12.1441C34.5413 16.2622 37.3864 19.3048 41.8537 19.3048C45.3105 19.3048 47.1718 17.2589 47.7035 16.2885L45.2838 14.4786C44.8849 15.0556 43.7947 16.1573 41.9068 16.1573C39.8594 16.1573 38.3703 14.8458 38.2905 13.0097H48.0758C48.1024 12.7474 48.1024 12.4851 48.1024 12.2228C48.1024 7.73749 45.6561 4.90466 41.3484 4.90466C37.3864 4.90466 34.5413 7.99979 34.5413 12.1441ZM38.3969 10.649C38.5564 9.07521 39.6733 7.86864 41.4016 7.86864C43.0767 7.86864 44.2999 8.97029 44.3797 10.649H38.3969Z" fill="#F16334"/>
<path d="M57.5572 4.90466C55.7225 4.90466 54.3397 5.87516 53.7282 7.23913V5.24566H50.1384V18.9639H53.808V12.9835C53.808 10.2556 54.8184 8.57684 57.5572 8.57684V4.90466Z" fill="#F16334"/>
<path d="M63.9764 19.3048C66.9811 19.3048 69.3212 17.6261 69.3212 14.9507C69.3212 10.0457 62.7266 11.0949 62.7266 8.91783C62.7266 8.23586 63.3116 7.81618 64.1625 7.81618C65.4655 7.81618 66.2366 8.60308 66.662 9.12767L69.0818 7.34404C68.4171 6.26861 66.9545 4.90466 64.3221 4.90466C61.4769 4.90466 59.2698 6.42599 59.2698 8.97029C59.2698 13.8491 65.8378 13.0359 65.8378 15.1343C65.8378 15.9213 65.1729 16.3671 64.1359 16.3671C62.5671 16.3671 61.6364 15.6589 60.945 14.872L58.7913 16.7605C59.5357 17.9409 61.2376 19.3048 63.9764 19.3048Z" fill="#F16334"/>
<path d="M75.9853 19.3053C77.7935 19.3053 79.123 18.3085 79.708 17.3642V18.9643H83.2977V5.24609H79.6282V13.4823C79.6282 14.9511 78.6709 16.0527 77.1553 16.0527C75.9055 16.0527 74.8419 15.1086 74.8419 13.5872V5.24609H71.1724V13.1675C71.1724 16.079 72.0233 19.3053 75.9853 19.3053Z" fill="#F16334"/>
<path d="M87.0642 22.7409C88.314 23.4229 90.2551 24 92.1696 24C96.2646 24 99.6415 22.3475 99.6415 17.2328V5.24566H96.1848V6.6883C95.7859 6.1637 94.3766 4.90466 92.0367 4.90466C88.0747 4.90466 85.2561 7.89486 85.2561 12.1179C85.2561 16.3409 87.8886 19.3048 91.9037 19.3048C94.3234 19.3048 95.6796 17.9409 95.972 17.5474V18.1769C95.972 20.3016 94.1373 20.9049 92.143 20.9049C90.2285 20.9049 88.6331 20.1967 88.181 19.9606L87.0642 22.7409ZM96.0784 12.0916C96.0784 14.531 94.6425 16.1049 92.5152 16.1049C90.4413 16.1049 88.9522 14.5048 88.9522 12.0916C88.9522 9.67849 90.4146 8.10471 92.4887 8.10471C94.6425 8.10471 96.0784 9.75719 96.0784 12.0916Z" fill="#F16334"/>
<path d="M103.423 22.7409C104.673 23.4229 106.614 24 108.529 24C112.624 24 116.001 22.3475 116.001 17.2328V5.24566H112.544V6.6883C112.145 6.1637 110.736 4.90466 108.396 4.90466C104.434 4.90466 101.615 7.89486 101.615 12.1179C101.615 16.3409 104.248 19.3048 108.263 19.3048C110.683 19.3048 112.039 17.9409 112.331 17.5474V18.1769C112.331 20.3016 110.497 20.9049 108.502 20.9049C106.588 20.9049 104.992 20.1967 104.54 19.9606L103.423 22.7409ZM112.438 12.0916C112.438 14.531 111.002 16.1049 108.874 16.1049C106.8 16.1049 105.311 14.5048 105.311 12.0916C105.311 9.67849 106.774 8.10471 108.848 8.10471C111.002 8.10471 112.438 9.75719 112.438 12.0916Z" fill="#F16334"/>
<path d="M118.026 12.1441C118.026 16.2622 120.871 19.3048 125.338 19.3048C128.795 19.3048 130.656 17.2589 131.188 16.2885L128.769 14.4786C128.369 15.0556 127.279 16.1573 125.392 16.1573C123.343 16.1573 121.855 14.8458 121.775 13.0097H131.56C131.587 12.7474 131.588 12.4851 131.588 12.2228C131.588 7.73749 129.141 4.90466 124.833 4.90466C120.871 4.90466 118.026 7.99979 118.026 12.1441ZM121.882 10.649C122.041 9.07521 123.157 7.86864 124.887 7.86864C126.562 7.86864 127.785 8.97029 127.864 10.649H121.882Z" fill="#F16334"/>
<path d="M137.878 19.3048C140.883 19.3048 143.223 17.6261 143.223 14.9507C143.223 10.0457 136.629 11.0949 136.629 8.91783C136.629 8.23586 137.213 7.81618 138.064 7.81618C139.367 7.81618 140.139 8.60308 140.564 9.12767L142.984 7.34404C142.319 6.26861 140.857 4.90466 138.224 4.90466C135.379 4.90466 133.172 6.42599 133.172 8.97029C133.172 13.8491 139.739 13.0359 139.739 15.1343C139.739 15.9213 139.075 16.3671 138.038 16.3671C136.469 16.3671 135.538 15.6589 134.847 14.872L132.693 16.7605C133.438 17.9409 135.14 19.3048 137.878 19.3048Z" fill="#F16334"/>
<path d="M145.527 5.24613H144.038V8.18387H145.5V13.5872C145.5 17.3118 146.963 19.148 150.287 19.148C151.298 19.148 151.856 19.0168 151.856 19.0168V15.9217C151.563 15.9479 151.43 15.9479 151.191 15.9479C149.782 15.9479 149.144 15.5282 149.144 13.4823V8.18387H151.749V5.24613H149.144V2.36084H145.527V5.24613Z" fill="#F16334"/>
</svg>
