<svg width="106" height="24" viewBox="0 0 106 24" fill="none" xmlns="http://www.w3.org/2000/svg">
<g clip-path="url(#clip0_1320_12115)">
<path fill-rule="evenodd" clip-rule="evenodd" d="M63.0111 10.9473V16.8421H64.169H65.3269V16.1579C65.3269 15.7816 65.3623 15.4765 65.4059 15.4801C65.4492 15.4837 65.6284 15.6849 65.804 15.9275C66.2909 16.5999 67 16.9419 67.9134 16.9449C68.9094 16.9482 69.5303 16.7188 70.2124 16.0954C71.1486 15.2398 71.5374 14.1509 71.5374 12.3853C71.5374 10.8431 71.18 9.77535 70.3696 8.89619C69.6379 8.1024 68.2237 7.70472 67.176 7.99809C66.6541 8.14409 65.9326 8.70672 65.6294 9.20409C65.4336 9.52514 65.4328 9.51809 65.4326 7.28945L65.4322 5.05261H64.2216H63.0111V10.9473ZM46.1932 8.05093C44.6536 8.48493 43.9288 9.30798 43.9136 10.6397C43.897 12.1071 44.7623 12.811 47.2 13.3135C48.5966 13.6013 48.9774 13.7767 49.0783 14.1785C49.2332 14.7957 48.6069 15.2635 47.6267 15.2627C46.9694 15.2623 46.46 15.0007 46.1892 14.5247C46.0282 14.242 45.9593 14.2118 45.4738 14.2111C45.1785 14.2108 44.6463 14.2408 44.2913 14.278C43.6606 14.3439 43.6475 14.3517 43.712 14.6201C43.8778 15.3123 44.4225 16.0169 45.1164 16.4372C46.2176 17.1045 48.4606 17.176 49.7941 16.5863C51.0105 16.0483 51.5863 15.1828 51.5191 13.9932C51.4896 13.4721 51.4151 13.1986 51.2277 12.9252C50.7378 12.2102 50.1178 11.9518 47.6263 11.424C46.3486 11.1532 45.9543 10.6196 46.5743 9.99967C46.9103 9.66356 47.4583 9.52093 48.0132 9.62503C48.4269 9.70261 49.1164 10.2493 49.1164 10.4998C49.1164 10.6365 49.228 10.6515 49.8269 10.5949C50.2176 10.558 50.7151 10.5275 50.9322 10.527C51.2585 10.5264 51.3269 10.4892 51.3269 10.3124C51.3269 9.61051 50.5555 8.68124 49.6271 8.26461C49.0797 8.01903 48.8016 7.96693 47.8627 7.93377C47.089 7.90651 46.5783 7.9424 46.1932 8.05093ZM75.961 8.06345C74.8227 8.36935 73.8595 9.18482 73.3677 10.2589C72.7924 11.5158 72.7951 13.4372 73.3741 14.7018C74.1315 16.3565 75.9244 17.209 78.0783 16.9385C79.6383 16.7427 80.765 15.9217 81.1951 14.6675L81.3092 14.3348L80.2164 14.2603L79.1235 14.1859L78.8442 14.5178C78.4511 14.9849 78.0587 15.1579 77.3915 15.1579C76.7275 15.1579 76.3267 15.0297 75.9709 14.7035C75.6583 14.4169 75.3322 13.7252 75.3292 13.3421L75.3269 13.0526H78.3269H81.3269V12.3046C81.3269 10.9637 80.9324 9.85188 80.1825 9.07903C79.1867 8.05303 77.5052 7.64851 75.961 8.06345ZM86.6985 8.06135C86.1936 8.2803 85.9806 8.49409 85.6576 9.10524L85.3795 9.63156L85.3488 8.81577L85.3181 7.99998H84.1646H83.0111V12.421V16.8421H84.2216H85.4322V14.0948C85.4322 11.0301 85.4644 10.8585 86.1387 10.3442C86.5509 10.0298 87.4642 9.89703 87.8381 10.0971C87.9621 10.1636 88.0638 10.199 88.0638 10.1759C88.0638 10.1528 88.2261 9.69724 88.4244 9.16366L88.7852 8.19335L88.4277 8.04398C87.9673 7.85156 87.1635 7.85966 86.6985 8.06135ZM93.6953 8.04209C93.2659 8.23145 92.8078 8.70693 92.589 9.19072C92.4202 9.56356 92.4029 9.57472 92.3423 9.34861C92.3065 9.21472 92.2764 8.85661 92.2757 8.55261L92.2743 7.99998H91.1164H89.9585V12.421V16.8421H91.169H92.3795V14.1385C92.3795 11.6087 92.3936 11.4056 92.6002 10.9791C92.7511 10.6673 92.9696 10.436 93.292 10.2471C93.7092 10.0027 93.8387 9.97798 94.4197 10.0323L95.0764 10.0936L95.4122 9.16566C95.5968 8.65535 95.748 8.21261 95.748 8.18177C95.748 8.15103 95.5987 8.07388 95.4164 8.0103C94.9701 7.85472 94.0833 7.87114 93.6953 8.04209ZM33.9168 9.23682C33.8812 9.91714 33.8894 11.4468 33.9349 12.6363C34.0145 14.7129 34.0296 14.8231 34.3151 15.4066C34.7943 16.3857 35.748 16.9483 36.9261 16.9467C37.9286 16.9455 38.9282 16.4238 39.3528 15.6802C39.4833 15.4517 39.6254 15.2644 39.669 15.264C39.7124 15.2635 39.748 15.6184 39.748 16.0526V16.8421H40.9058H42.0637V12.421V7.99998H40.8532H39.6427L39.6402 10.5526C39.6374 13.2093 39.5791 13.7529 39.2484 14.1959C38.8696 14.7032 38.516 14.8872 37.9191 14.8872C37.2745 14.8872 36.8943 14.6851 36.5854 14.1785C36.3951 13.8664 36.3802 13.6307 36.38 10.921L36.3795 7.99998H35.1806H33.9816L33.9168 9.23682ZM77.993 9.82777C78.1821 9.90672 78.4629 10.1213 78.6172 10.3047C78.9016 10.6428 79.1539 11.3278 79.0534 11.4901C79.0233 11.5389 78.1663 11.5789 77.149 11.5789H75.2993L75.3606 11.2007C75.5389 10.1029 76.9233 9.38082 77.993 9.82777ZM68.2509 10.173C68.7092 10.5226 69.0008 11.1736 69.0802 12.0241C69.2421 13.7563 68.4465 15.0526 67.2216 15.0526C65.9968 15.0526 65.2012 13.7563 65.3629 12.0241C65.4667 10.9123 65.949 10.1169 66.6551 9.89293C67.1376 9.73988 67.8461 9.8643 68.2509 10.173Z" fill="black"/>
<path d="M105.222 8H103.924H102.627L101.7 11.2632C101.191 13.0579 100.745 14.5263 100.708 14.5263C100.672 14.5263 100.234 13.0697 99.7349 11.2895L98.8273 8.05263L97.5507 8.02305C96.8486 8.00684 96.2743 8.00684 96.2743 8.02305C96.2743 8.03937 96.9848 10.0883 97.8534 12.5764C99.6063 17.5971 99.5821 17.4675 98.8766 18.0611C98.5814 18.3094 98.4865 18.3326 97.9991 18.2754L97.4524 18.2111L97.2257 18.974C97.1008 19.3936 96.9758 19.816 96.9478 19.9126C96.9071 20.0534 97.0166 20.1134 97.4956 20.2127C99.1145 20.5488 100.764 19.8368 101.441 18.5093C101.562 18.2714 102.411 15.9398 103.328 13.3279C104.245 10.716 105.043 8.46053 105.101 8.31579L105.222 8Z" fill="black"/>
<path fill-rule="evenodd" clip-rule="evenodd" d="M55.8557 7.99994C54.7174 8.30584 53.7543 9.12131 53.2625 10.1954C52.6871 11.4523 52.6898 13.3737 53.2688 14.6383C54.0263 16.293 55.8191 17.1455 57.973 16.875C59.533 16.6792 60.6597 15.8582 61.0899 14.6039L61.204 14.2713L60.1111 14.1968L59.0183 14.1224L58.7389 14.4543C58.3459 14.9214 57.9534 15.0944 57.2863 15.0944C56.6223 15.0944 56.2214 14.9662 55.8656 14.6399C55.553 14.3534 55.2269 13.6617 55.224 13.2786L55.2216 12.9891H58.2216H61.2216V12.2411C61.2216 10.9002 60.8271 9.78836 60.0772 9.01552C59.0814 7.98952 57.4 7.585 55.8557 7.99994ZM58.512 10.2412C58.3576 10.0578 58.0768 9.84321 57.8877 9.76426C56.8181 9.31731 55.4336 10.0394 55.2553 11.1372L55.1941 11.5154H57.0437C58.061 11.5154 58.9181 11.4754 58.9482 11.4266C59.0486 11.2643 58.7964 10.5793 58.512 10.2412Z" fill="black"/>
<path d="M0 0H12V24C5.37259 24 0 18.6274 0 12V0Z" fill="#FF2F5B"/>
<path d="M24 12H12V24C18.6274 24 24 18.6274 24 12Z" fill="#4E4AFF"/>
<path d="M18 12C21.3137 12 24 9.31371 24 6C24 2.68629 21.3137 0 18 0C14.6863 0 12 2.68629 12 6C12 9.31371 14.6863 12 18 12Z" fill="#FFBB25"/>
</g>
<defs>
<clipPath id="clip0_1320_12115">
<rect width="105.263" height="24" fill="white"/>
</clipPath>
</defs>
</svg>
