<svg width="94" height="24" viewBox="0 0 94 24" fill="none" xmlns="http://www.w3.org/2000/svg">
<g clip-path="url(#clip0_1320_12563)">
<path d="M88.6837 6.22514C88.5061 7.32259 89.0337 8.31571 89.8455 8.74122C89.2779 11.7709 86.9979 16.6166 85.7147 16.6166C84.4315 16.6166 85.4187 12.1209 86.8173 6.77423C87.1133 5.62942 84.1029 5.8862 83.5094 6.90152C82.4911 12.3303 80.2437 16.4871 78.8473 16.4871C78.2952 16.4871 78.2108 15.8085 78.2108 15.2142C78.2108 12.7973 79.5259 7.96198 79.6953 6.9437C79.8663 5.94393 78.4765 6.16297 77.5663 6.60773C77.2828 6.75943 75.1619 7.81989 74.1303 8.30979C73.5013 5.98315 70.889 6.28656 70.3643 8.04856C69.9832 9.31918 70.9334 10.1377 71.8977 10.3086C71.8474 13.1266 70.186 16.7009 68.2856 16.7009C65.9109 16.7009 67.0135 9.10901 70.0676 7.24267C69.8974 6.26732 68.6253 6.14003 67.4375 6.65065C65.162 7.6223 63.7478 11.2839 63.9498 14.3255C63.0618 15.7063 62.1737 16.5751 61.6269 16.5751C61.3723 16.5751 61.0756 16.3213 61.0756 15.6871C61.0756 13.9059 61.9636 8.94325 62.4749 5.63534C62.8146 3.25985 62.3906 0.375977 59.167 0.375977C56.9077 0.375977 55.6475 2.53463 54.7321 5.8899H53.3563C52.7643 5.8899 52.4232 7.41732 53.0603 7.4595C53.2661 7.478 53.7597 7.48022 54.3421 7.47726C54.1748 8.22246 54.0179 9.01133 53.8662 9.83498C53.7868 10.2573 53.7103 10.6932 53.6368 11.1426C52.4824 13.5573 49.7828 16.8756 47.3769 16.8756C46.2617 16.8756 45.8732 15.5265 45.9413 13.857C52.4816 14.1478 54.4908 5.93357 48.649 5.97501C45.1709 5.99795 43.0189 9.66773 42.7607 13.0667C41.7187 14.7976 39.9848 16.9148 38.3849 16.9148C34.9919 16.9148 37.2823 7.626 39.5689 7.626C40.5443 7.626 40.3326 9.1956 39.7384 10.2561C39.9508 11.6133 42.1139 11.7405 42.6245 9.45017C43.0056 7.71111 41.9459 6.01423 39.6977 6.01423C35.9598 6.01423 33.611 10.1821 33.5895 13.7468C32.8725 15.3104 31.94 16.1511 31.2577 16.1511C30.7064 16.1511 30.6213 15.5154 31.2999 11.7849C31.4694 10.8518 31.6388 9.79132 31.809 8.68868C32.0606 7.09319 31.3976 6.16371 30.0271 6.14447C30.0271 6.14447 29.8687 6.14447 29.8132 6.15039C28.8563 6.20367 27.5776 6.61365 26.2248 7.55644C25.4108 5.65014 23.096 6.02829 22.6053 7.71111C22.2242 9.04315 23.1744 9.87864 24.1387 10.054C24.0839 12.9601 22.424 16.6602 20.5266 16.6602C18.1519 16.6602 19.2545 8.81596 22.3079 6.90522C22.1384 5.88694 20.8663 5.75966 19.6785 6.2688C15.5647 8.00786 14.2919 18.7382 20.0604 18.7382C24.6345 18.7382 26.4165 12.2504 26.5045 9.38356C27.2446 8.83298 28.0667 8.40007 28.5263 8.38897H28.5433C28.755 8.38897 28.8393 8.47407 28.7971 8.7279C28.5418 10.6786 27.8662 13.9865 27.8662 15.7678C27.8662 17.5919 28.3753 18.7367 29.9449 18.7367C31.419 18.7367 32.8732 17.4299 33.867 15.7766C34.3851 17.4891 35.6572 18.7367 37.8343 18.7367C39.9915 18.7367 41.7113 17.0088 42.8931 15.3326C43.3038 17.2715 44.5212 18.7367 46.6991 18.7367C49.7147 18.7367 51.9266 16.328 53.2024 14.0835C53.124 14.6755 53.0485 15.283 52.976 15.895C52.5519 19.331 52.213 20.7304 51.6609 21.9633C51.4344 22.4719 51.1797 22.9675 50.898 23.4477C50.6856 23.8296 50.9402 23.9991 51.2798 23.9991C52.0428 23.9991 53.2727 23.5328 54.0364 22.26C54.7572 21.076 55.4787 19.8853 56.2417 13.0563C56.4104 11.5903 56.6391 9.47533 56.9684 7.45802H57.8113C58.575 7.45802 59.2958 6.01571 58.4033 5.93135C58.2464 5.91655 57.815 5.90766 57.2474 5.901C57.7292 3.50036 58.3856 1.56224 59.2943 1.56224C60.1424 1.56224 60.3118 2.87726 59.9307 4.99817C59.2943 8.30609 58.7008 12.4628 58.4462 14.8405C58.1502 17.6393 59.0819 18.7419 60.6515 18.7419C61.8881 18.7419 63.2571 17.6097 64.3043 16.1518C64.8364 17.6681 65.9597 18.7419 67.8194 18.7419C72.0168 18.7419 73.8632 13.4441 74.2066 10.4255C74.8182 10.2223 75.4166 9.9811 75.9982 9.70325C75.5948 11.796 75.284 14.1012 75.284 15.434C75.284 17.3847 76.2594 18.6997 77.7439 18.6997C79.9307 18.6997 81.4299 16.6395 82.332 14.9256C82.3261 17.1834 83.1919 18.7427 85.25 18.7427C89.7034 18.7427 92.8419 9.70917 92.8419 6.82456C92.8404 3.68093 89.0663 3.80747 88.6837 6.22514ZM48.7304 7.58234C50.5132 7.58234 49.1989 12.1897 46.0812 12.4887C46.4763 10.0829 47.5864 7.58234 48.7304 7.58234Z" fill="black"/>
<path fill-rule="evenodd" clip-rule="evenodd" d="M30.8314 4.69838C33.3341 4.69838 33.8855 0.372192 31.2561 0.372192C28.7956 0.372192 28.2872 4.69838 30.8314 4.69838Z" fill="black"/>
<path fill-rule="evenodd" clip-rule="evenodd" d="M11.6596 0.668968C12.4655 1.13518 13.6525 2.78914 13.1863 6.35236C12.4226 12.0358 9.36921 16.7009 8.35094 16.7009C7.75892 16.7009 7.79962 15.8128 8.56332 12.502C9.58086 8.17579 10.981 2.02617 5.46706 2.02617C-0.385798 2.02617 -1.10732 8.30307 2.66755 9.06678C2.11623 6.13998 3.85529 3.38338 5.50924 3.38338C7.29048 3.38338 6.52752 6.81858 5.80525 10.5091C4.95718 14.7924 3.98183 19.6699 7.37484 19.6699C12.0829 19.6699 15.6032 10.9753 16.2396 6.3494C17.0477 0.498763 13.4845 -1.07009 11.6596 0.668968Z" fill="black"/>
</g>
<defs>
<clipPath id="clip0_1320_12563">
<rect width="92.7805" height="24" fill="white" transform="translate(0.263184)"/>
</clipPath>
</defs>
</svg>
