<svg width="97" height="24" viewBox="0 0 97 24" fill="none" xmlns="http://www.w3.org/2000/svg">
<g clip-path="url(#clip0_1320_11365)">
<path fill-rule="evenodd" clip-rule="evenodd" d="M14.1704 18.4901L1.66348 11.9979L0.0441966 13.1589L0.0437012 13.8691L14.1704 24L28.2964 13.8696L28.2974 13.1597L26.6773 11.9979L14.1704 18.4901Z" fill="#1C0172"/>
<path fill-rule="evenodd" clip-rule="evenodd" d="M14.1704 0L0.0444443 10.1303L0.0437012 10.8406L14.1704 20.9717L28.2964 10.8411L28.2971 10.1309L14.1704 0ZM16.0185 9.99812L14.2962 7.62305L15.7646 6.54848L18.8261 11.0793L17.5933 11.9818L14.3009 10.6198L14.2868 10.63L16.1618 13.0291L14.9288 13.9313L8.73637 11.691L10.2095 10.6129L13.4466 11.8736L13.4649 11.8599L11.6685 9.54531L12.8276 8.69737L16 10.0118L16.0185 9.99812Z" fill="#4608AD"/>
<path fill-rule="evenodd" clip-rule="evenodd" d="M14.1704 0L0.0444443 10.1303L0.0437012 10.8406L14.1704 20.9717L28.2964 10.8411L28.2971 10.1309L14.1704 0ZM16.0185 9.99812L14.2962 7.62305L15.7646 6.54848L18.8261 11.0793L17.5933 11.9818L14.3009 10.6198L14.2868 10.63L16.1618 13.0291L14.9288 13.9313L8.73637 11.691L10.2095 10.6129L13.4466 11.8736L13.4649 11.8599L11.6685 9.54531L12.8276 8.69737L16 10.0118L16.0185 9.99812Z" fill="#4608AD"/>
<path fill-rule="evenodd" clip-rule="evenodd" d="M16.0185 10.0014L14.2962 7.62633L15.7646 6.55176L18.8261 11.0826L17.5933 11.985L14.3009 10.6231L14.2867 10.6333L16.1617 13.0324L14.9288 13.9345L8.73633 11.6943L10.2094 10.6162L13.4465 11.8768L13.4649 11.8632L11.6685 9.54858L12.8275 8.70065L16 10.015L16.0185 10.0014Z" fill="white"/>
<path fill-rule="evenodd" clip-rule="evenodd" d="M16.0185 10.0014L14.2962 7.62633L15.7646 6.55176L18.8261 11.0826L17.5933 11.985L14.3009 10.6231L14.2867 10.6333L16.1617 13.0324L14.9288 13.9345L8.73633 11.6943L10.2094 10.6162L13.4465 11.8768L13.4649 11.8632L11.6685 9.54858L12.8275 8.70065L16 10.015L16.0185 10.0014Z" fill="white"/>
<path fill-rule="evenodd" clip-rule="evenodd" d="M47.3262 13.0444C47.9851 13.0444 48.5202 12.5206 48.5202 11.7148C48.5202 10.9377 48.0077 10.3744 47.3318 10.3744C46.6447 10.3744 46.1209 10.9095 46.1209 11.7148C46.1209 12.5089 46.6222 13.0439 47.3262 13.0439V13.0444ZM50.2549 8.88191V14.5253H48.5427V13.9169H48.5202C48.1597 14.39 47.6303 14.6323 46.9544 14.6323C45.3999 14.6323 44.2961 13.4552 44.2961 11.7093C44.2961 9.98576 45.4111 8.7749 46.8699 8.7749C47.4783 8.7749 48.0245 9.01147 48.4245 9.47893H48.447V8.88191H50.2549Z" fill="#4608AD"/>
<path fill-rule="evenodd" clip-rule="evenodd" d="M55.5884 11.7149C55.5884 10.9097 55.0645 10.3747 54.3776 10.3747C53.6565 10.3747 53.1383 10.9377 53.1383 11.7149C53.1383 12.5203 53.6733 13.0442 54.383 13.0442C55.087 13.0442 55.5884 12.5092 55.5884 11.7149ZM57.4133 11.7093C57.4133 13.4554 56.3038 14.6325 54.7548 14.6325C54.1071 14.6325 53.6003 14.396 53.2342 13.9734H53.2059V16.8065H51.4038V8.88191H53.2116V9.4903H53.2342C53.6396 9.01717 54.2029 8.7749 54.8393 8.7749C56.2981 8.7749 57.4133 9.98593 57.4133 11.7093Z" fill="#4608AD"/>
<path fill-rule="evenodd" clip-rule="evenodd" d="M62.5049 11.7149C62.5049 10.9097 61.9809 10.3747 61.2941 10.3747C60.573 10.3747 60.0548 10.9377 60.0548 11.7149C60.0548 12.5203 60.5898 13.0442 61.2996 13.0442C62.0035 13.0442 62.5049 12.5092 62.5049 11.7149ZM64.3298 11.7093C64.3298 13.4554 63.2203 14.6325 61.6713 14.6325C61.0236 14.6325 60.5167 14.396 60.1507 13.9734H60.1224V16.8065H58.3203V8.88191H60.1281V9.4903H60.1507C60.5562 9.01717 61.1194 8.7749 61.7559 8.7749C63.2146 8.7749 64.3298 9.98593 64.3298 11.7093Z" fill="#4608AD"/>
<path fill-rule="evenodd" clip-rule="evenodd" d="M67.9784 13.0444C68.6373 13.0444 69.1724 12.5206 69.1724 11.7148C69.1724 10.9377 68.6599 10.3744 67.9842 10.3744C67.2971 10.3744 66.7731 10.9095 66.7731 11.7148C66.7731 12.5089 67.2745 13.0439 67.9784 13.0439V13.0444ZM70.9072 8.88191V14.5253H69.195V13.9169H69.1724C68.812 14.39 68.2827 14.6323 67.6067 14.6323C66.0523 14.6323 64.9485 13.4552 64.9485 11.7093C64.9485 9.98576 66.0634 8.7749 67.5221 8.7749C68.1306 8.7749 68.6768 9.01147 69.0768 9.47893H69.0994V8.88191H70.9072Z" fill="#4608AD"/>
<path fill-rule="evenodd" clip-rule="evenodd" d="M72.1191 14.5275H73.9158V6.03418H72.1191V14.5275Z" fill="#4608AD"/>
<path fill-rule="evenodd" clip-rule="evenodd" d="M80.5783 8.88074L77.6157 16.8053H75.8305L76.8047 14.1411L74.6025 8.88074H76.4725L77.6214 11.9389H77.6496L78.7309 8.88074H80.5783Z" fill="#4608AD"/>
<path fill-rule="evenodd" clip-rule="evenodd" d="M83.338 13.0485V13.071H85.7373V14.5241H80.978V13.3188L83.4168 10.3506V10.3281H81.192V8.88074H85.8329V10.0747L83.338 13.0485Z" fill="#4608AD"/>
<path fill-rule="evenodd" clip-rule="evenodd" d="M88.0467 11.1123L90.1586 11.1012C90.0405 10.5547 89.6744 10.2168 89.1336 10.2168C88.5929 10.2168 88.1648 10.5321 88.0467 11.1123ZM91.9273 11.6531C91.9273 11.8106 91.899 12.0643 91.8822 12.1881H88.041C88.1705 12.8244 88.7281 13.1624 89.3759 13.1624C89.8995 13.1624 90.3558 12.9315 90.7449 12.4809L91.7019 13.5567C91.2235 14.1594 90.3563 14.6325 89.1848 14.6325C87.5121 14.6325 86.2505 13.4497 86.2505 11.7036C86.2505 9.99143 87.4613 8.7749 89.1173 8.7749C90.7618 8.7749 91.9275 9.97459 91.9275 11.6531H91.9273Z" fill="#4608AD"/>
<path fill-rule="evenodd" clip-rule="evenodd" d="M96.3435 8.7806V10.7237C96.1798 10.7125 96.0113 10.7125 95.921 10.7125C95.0647 10.7125 94.6252 11.253 94.6252 11.9909V14.5255H92.823V8.88191H94.6252V9.6367H94.6478C95.076 9.0734 95.6622 8.7749 96.2814 8.7749C96.2983 8.7749 96.3266 8.7749 96.3435 8.7806Z" fill="#4608AD"/>
<path fill-rule="evenodd" clip-rule="evenodd" d="M44.6784 6.32825L42.1158 14.523H40.3529L38.9786 9.13308H38.9618L37.5369 14.523H35.774L33.2114 6.32825H35.2672L36.6526 11.3578H36.6695L37.9367 6.32825H39.97L41.2204 11.3578H41.2372L42.6227 6.32825H44.6784Z" fill="#4608AD"/>
</g>
<defs>
<clipPath id="clip0_1320_11365">
<rect width="96.2997" height="24" fill="white" transform="translate(0.0437012)"/>
</clipPath>
</defs>
</svg>
