<svg width="61" height="24" viewBox="0 0 61 24" fill="none" xmlns="http://www.w3.org/2000/svg">
<g clip-path="url(#clip0_1320_11844)">
<path fill-rule="evenodd" clip-rule="evenodd" d="M0.343262 0.0274286C0.343262 0.0274286 2.70608 -0.277714 4.28129 1.15029C5.25312 2.03143 5.53622 3.43543 5.53622 3.43543L8.7534 16.2514L11.4281 5.76086C11.6892 4.64571 12.1582 3.26743 12.901 2.33486C13.8483 1.14771 15.7726 1.07314 15.9779 1.07314C16.1824 1.07314 18.1066 1.14771 19.0531 2.33486C19.7968 3.26743 20.2658 4.64571 20.5269 5.76086L23.2016 16.2514L26.4179 3.43457C26.4179 3.43457 26.7019 2.03057 27.6737 1.14943C29.2489 -0.277714 31.6109 0.0274286 31.6109 0.0274286L25.4511 23.9803C25.4511 23.9803 23.4196 24.1311 22.403 23.598C21.0678 22.8986 20.4323 22.3577 19.6235 19.0989L19.5399 18.7603C19.245 17.5611 18.7937 15.6831 18.3365 13.7777L18.1996 13.206L18.0627 12.6369C17.4044 9.89571 16.7976 7.37143 16.7004 7.05086C16.6092 6.75 16.501 6.03343 15.9779 6.03343C15.465 6.03343 15.3475 6.75086 15.2537 7.05086C15.1438 7.404 14.4171 10.4409 13.6852 13.4914L13.5483 14.0631C13.1744 15.6298 12.7966 17.1955 12.4151 18.7603L12.3306 19.0989C11.5227 22.3577 10.8872 22.8986 9.55199 23.598C8.53453 24.1311 6.50298 23.9803 6.50298 23.9803L0.343262 0.0274286ZM37.5247 4.28571V5.13857L37.5264 5.13771V19.3903C37.5145 22.3157 37.2112 22.9646 35.8928 23.6383C34.8678 24.1611 33.301 23.9631 33.301 23.9631V7.99886C33.301 7.19743 33.5672 6.672 34.5492 6.20057C35.1348 5.91857 35.6816 5.70343 36.2495 5.38371C37.1376 4.88829 37.5247 4.28571 37.5247 4.28571ZM39.2165 0.107143C39.2165 0.107143 42.4928 -0.469714 44.1154 1.056C45.1531 2.03314 46.3142 3.79029 46.3142 3.79029L49.1706 8.046C49.3092 8.26714 49.49 8.50886 49.779 8.50886C50.0689 8.50886 50.2506 8.26714 50.3892 8.046L53.2455 3.79029C53.2455 3.79029 54.4066 2.03314 55.4444 1.056C57.0669 -0.469714 60.3433 0.107143 60.3433 0.107143L52.5804 12.0411L60.3221 23.9391L60.2951 23.9426C59.974 23.9811 56.8844 24.3051 55.3472 22.8574C54.3086 21.882 53.2455 20.2929 53.2455 20.2929L50.3892 16.038C50.2506 15.8151 50.0689 15.5751 49.7799 15.5751C49.49 15.5751 49.3092 15.8151 49.1706 16.038L46.3142 20.2929C46.3142 20.2929 45.3086 21.882 44.2709 22.8574C42.6483 24.3857 39.2368 23.9391 39.2368 23.9391L46.9785 12.042L39.2165 0.107143ZM37.4926 0H37.5264C37.5264 1.63714 37.3692 2.60743 36.3542 3.36257C35.8805 3.71596 35.3613 4.00204 34.8111 4.21286C33.9086 4.54629 33.301 5.14286 33.301 5.14286C33.301 2.16343 33.7489 1.08514 34.9489 0.445714C35.6799 0.0582857 36.8689 0.00514286 37.332 0L37.4926 0Z" fill="black"/>
</g>
<defs>
<clipPath id="clip0_1320_11844">
<rect width="60" height="24" fill="white" transform="translate(0.343262)"/>
</clipPath>
</defs>
</svg>
