<svg width="118" height="24" viewBox="0 0 118 24" fill="none" xmlns="http://www.w3.org/2000/svg">
<g clip-path="url(#clip0_1320_11842)">
<path d="M44.4078 6.46154L41.8324 16.3569L39.2571 6.46154H36.6632L37.2632 8.58462L35.0017 16.6892L32.5278 6.46154H30.0355L33.5432 19.3846H36.2755L38.3801 12.4708L40.3463 19.3846H43.0694L46.7617 6.46154H44.4078ZM70.614 10.2092C70.0506 10.0789 69.4752 10.0077 68.8971 9.99692C65.7586 9.99692 64.0417 12.0923 64.0417 15.1662C64.0417 18.2215 65.7586 19.6154 67.7801 19.6154C68.8549 19.5803 69.8901 19.2018 70.734 18.5354V19.3846H72.8848V6.46154H70.614V10.2092ZM70.614 16.7446C69.8755 17.4185 69.1832 17.7877 68.454 17.7877C67.1986 17.7877 66.3955 16.9569 66.3955 15.0092C66.3955 12.9046 67.3924 11.8062 69.1278 11.8062C69.6355 11.8062 70.1432 11.9077 70.6048 12.0923V16.7446H70.614ZM59.7586 11.7231H59.6755V10.2092H57.5524V19.3846H59.8324V13.92C60.5432 12.5723 61.4109 12.1292 62.8601 12.1292H63.0909V10.1538C62.8855 10.1311 62.6791 10.1189 62.4724 10.1169C61.2355 10.1169 60.3863 10.5969 59.7586 11.7323V11.7231ZM51.1001 9.97846C47.9617 9.97846 46.4848 12.0092 46.4848 14.8062C46.4848 17.5938 47.9617 19.6062 51.1001 19.6062C54.2386 19.6062 55.734 17.5938 55.734 14.8062C55.734 12.0092 54.2201 9.97846 51.0909 9.97846H51.1001ZM51.1001 17.7692C49.6232 17.7692 48.8294 16.8092 48.8294 14.8062C48.8294 12.7938 49.6232 11.8338 51.1094 11.8338C52.5863 11.8338 53.3617 12.7938 53.3617 14.8062C53.3617 16.8092 52.5771 17.7692 51.0909 17.7692H51.1001ZM88.3094 11.7138H88.2355V10.2092H86.1032V19.3846H88.374V13.92C89.0847 12.5723 89.9524 12.1292 91.4017 12.1292H91.6324V10.1538C91.4271 10.1311 91.2207 10.1189 91.014 10.1169C89.7863 10.1169 88.9371 10.5969 88.3001 11.7323H88.3094V11.7138ZM79.9278 6.46154H75.7001V19.3846H78.1371V14.8892H79.9186C82.6786 14.8892 84.6817 13.4031 84.6817 10.6246C84.6817 7.85538 82.6786 6.46154 79.9186 6.46154H79.9278ZM79.9463 12.9969H78.1371V8.37231H79.9371C81.414 8.37231 82.134 9.18462 82.134 10.6246C82.134 12.0738 81.4601 12.9969 79.9371 12.9969H79.9463ZM113.196 12.7846C113.196 12.0923 113.952 11.8246 114.765 11.8246C115.623 11.8338 116.482 11.9723 117.303 12.2215V10.3385C116.418 10.0883 115.5 9.97015 114.58 9.98769C112.383 9.98769 110.842 11.0308 110.842 12.7292C110.842 16.0246 115.383 15.1754 115.383 16.7815C115.383 17.5662 114.672 17.7785 113.629 17.7785C112.891 17.7785 111.719 17.5015 110.869 17.1969V19.0708C111.721 19.4114 112.629 19.5959 113.546 19.6154C115.688 19.6154 117.728 18.9785 117.728 16.6892C117.756 13.5046 113.205 14.3262 113.205 12.7846H113.196ZM97.0417 9.98769C94.1063 9.98769 92.5832 12.2677 92.5832 14.7508C92.5832 18.1662 94.374 19.6154 97.2909 19.6154C98.4346 19.6178 99.5718 19.4403 100.66 19.0892V17.1969C99.7094 17.5477 98.8417 17.76 97.9186 17.76C96.2201 17.76 95.0848 17.2985 95.0294 15.2954H100.9C100.956 14.8431 100.983 14.3908 100.974 13.9477C100.974 12.0092 99.9494 9.98769 97.0324 9.98769H97.0417ZM95.0478 13.7908C95.1863 12.5169 95.8786 11.7046 97.014 11.7046C98.2324 11.7046 98.6017 12.6738 98.6017 13.7908H95.0478ZM104.925 12.7846C104.925 12.0923 105.672 11.8246 106.485 11.8246C107.343 11.8338 108.202 11.9723 109.023 12.2215V10.3385C108.141 10.0892 107.226 9.97108 106.309 9.98769C104.112 9.98769 102.562 11.0308 102.562 12.7292C102.562 16.0246 107.112 15.1754 107.112 16.7815C107.112 17.5662 106.392 17.7785 105.359 17.7785C104.62 17.7785 103.448 17.5015 102.589 17.1969V19.0708C103.441 19.4116 104.349 19.5961 105.266 19.6154C107.408 19.6154 109.457 18.9785 109.457 16.6892C109.476 13.5046 104.925 14.3262 104.925 12.7846ZM2.08476 12C2.08476 16.1262 4.48476 19.68 7.95553 21.3692L2.98938 7.76308C2.39305 9.09599 2.08479 10.5398 2.08476 12ZM12.4971 22.4123C13.7063 22.4123 14.8694 22.2 15.9586 21.8215L15.8848 21.6831L12.6817 12.9138L9.56168 21.9877C10.4848 22.2646 11.4725 22.4123 12.4971 22.4123ZM13.9278 7.11692L17.694 18.3138L18.7371 14.8431C19.1801 13.4031 19.5217 12.3692 19.5217 11.4738C19.5217 10.1815 19.0601 9.29538 18.6725 8.61231C18.1371 7.74462 17.6478 7.01538 17.6478 6.16615C17.6478 5.20615 18.3678 4.32 19.4017 4.32H19.5309C17.6123 2.55869 15.1015 1.58335 12.4971 1.58769C10.7726 1.58737 9.07508 2.01575 7.55723 2.83428C6.0394 3.65282 4.74885 4.83584 3.80169 6.27692L4.4663 6.29538C5.55553 6.29538 7.23553 6.15692 7.23553 6.15692C7.80784 6.12923 7.87245 6.95077 7.30938 7.01538C7.30938 7.01538 6.7463 7.08923 6.10938 7.11692L9.91245 18.3969L12.1925 11.5662L10.5678 7.11692C10.204 7.09685 9.84073 7.06606 9.47861 7.02462C8.91553 6.98769 8.98015 6.12923 9.54322 6.15692C9.54322 6.15692 11.2601 6.29538 12.2848 6.29538C13.374 6.29538 15.054 6.15692 15.054 6.15692C15.6171 6.12923 15.6909 6.95077 15.1278 7.01538C15.1278 7.01538 14.5648 7.08 13.9278 7.11692ZM17.7309 21C19.3061 20.0841 20.6133 18.7709 21.5221 17.1916C22.4308 15.6123 22.9092 13.8221 22.9094 12C22.9094 10.1908 22.4478 8.49231 21.6355 7.00615C21.8005 8.64118 21.5529 10.2915 20.9155 11.8062L17.7309 21ZM12.4971 24C9.31448 24 6.26222 22.7358 4.01179 20.4853C1.76135 18.2348 0.49707 15.1826 0.49707 12C0.49707 8.81741 1.76135 5.76515 4.01179 3.51472C6.26222 1.26428 9.31448 0 12.4971 0C15.6797 0 18.7319 1.26428 20.9824 3.51472C23.2328 5.76515 24.4971 8.81741 24.4971 12C24.4971 15.1826 23.2328 18.2348 20.9824 20.4853C18.7319 22.7358 15.6797 24 12.4971 24Z" fill="#163B54"/>
</g>
<defs>
<clipPath id="clip0_1320_11842">
<rect width="117.231" height="24" fill="white" transform="translate(0.49707)"/>
</clipPath>
</defs>
</svg>
