<svg width="125" height="24" viewBox="0 0 125 24" fill="none" xmlns="http://www.w3.org/2000/svg">
<g clip-path="url(#clip0_1320_11669)">
<path d="M83.5296 20.6368C85.1358 20.6368 86.7422 20.0189 87.9777 18.9069L90.2019 21.2548C88.4721 22.9847 86.1244 23.9734 83.6531 23.8498C78.3399 23.8498 74.7564 20.2662 74.7564 15.4467C74.6328 10.8745 78.2163 7.16727 82.788 7.0437C82.9116 7.0437 83.0353 7.0437 83.1589 7.0437C88.4721 7.0437 91.5612 11.1216 91.3141 16.806H78.587C78.9576 19.2775 81.1818 20.8839 83.5296 20.6368ZM87.3599 14.0874C87.2364 11.8631 85.3829 10.1331 83.1589 10.2566C80.8112 10.1331 78.8341 11.7395 78.587 14.0874H87.3599Z" fill="#072F35"/>
<path d="M0 20.5134L9.76158 10.6274H0.247129V7.53809H14.2099V10.751L4.44832 20.6369H14.3335V23.7264H0V20.5134Z" fill="#072F35"/>
<path d="M25.9487 20.637C27.5551 20.637 29.1613 20.019 30.397 18.9068L32.6212 21.2548C30.8912 23.1084 28.4199 24.0971 25.9487 23.9733C20.5119 23.9733 17.0521 20.3897 17.0521 15.5704C16.9285 10.9981 20.5119 7.29093 25.0838 7.16736C25.2073 7.16736 25.3309 7.16736 25.4544 7.16736C30.7677 7.16736 33.8567 11.2453 33.4861 16.9297H21.0061C21.3767 19.2777 23.6009 20.8841 25.9487 20.637ZM29.7792 14.0875C29.6557 11.8632 27.8022 10.1331 25.578 10.2567C23.3538 10.1331 21.3767 11.7396 21.0061 14.0875H29.7792Z" fill="#072F35"/>
<path d="M54.6155 15.5703C54.3683 11.1217 57.8282 7.29086 62.2764 7.16729C62.4 7.16729 62.5237 7.16729 62.6473 7.16729C64.7477 7.16729 66.7248 8.0323 67.9605 9.63877V0H71.4203V23.6027H67.9605V21.3783C66.6012 22.9847 64.6242 23.9733 62.5235 23.9733C58.0754 23.9733 54.3683 20.2661 54.4919 15.8175C54.6154 15.6939 54.6155 15.5703 54.6155 15.5703ZM68.2076 15.5703C68.2076 12.7281 65.8599 10.5038 63.1415 10.5038C60.2995 10.5038 58.0754 12.8517 58.0754 15.5703C58.0754 18.4124 60.4231 20.6368 63.1415 20.6368C65.9834 20.6368 68.2076 18.4124 68.2076 15.5703Z" fill="#072F35"/>
<path d="M93.4148 20.2659L96.5039 18.536C97.3687 20.0188 98.9751 20.8839 100.582 20.8839C102.559 20.8839 103.547 19.8953 103.547 18.7831C103.547 17.671 101.694 17.1767 99.5929 16.8059C96.8745 16.1881 94.0326 15.323 94.0326 11.9866C94.0326 9.39149 96.5039 7.0436 100.334 7.0436C102.929 6.92003 105.401 8.03219 106.883 10.133L104.041 11.863C103.176 10.6272 101.817 10.0094 100.458 10.0094C98.6045 10.0094 97.7396 10.8744 97.7396 11.9866C97.7396 13.0987 99.2223 13.4694 101.57 13.9637C104.288 14.5816 107.254 15.4466 107.254 18.7831C107.254 21.0075 105.277 23.9731 100.705 23.9731C97.616 24.2204 94.7739 22.7374 93.4148 20.2659Z" fill="#072F35"/>
<path d="M115.903 16.4353L113.185 19.4011V23.6027H109.725V0H113.185V15.4468L120.475 7.41444H124.676L118.375 14.3346L124.8 23.6027H120.969L115.903 16.4353Z" fill="#072F35"/>
<path d="M44.3597 7.16736C40.282 7.16736 36.8223 9.88597 36.8223 14.2111V23.7262H40.282V14.7054C40.0349 12.6046 41.5177 10.751 43.6184 10.5039C43.8655 10.5039 44.1126 10.5039 44.3597 10.5039C46.9545 10.5039 48.1903 12.1103 48.1903 14.7054V23.7262H51.8971V14.2111C51.8971 9.7624 48.4374 7.16736 44.3597 7.16736Z" fill="#072F35"/>
</g>
<defs>
<clipPath id="clip0_1320_11669">
<rect width="124.8" height="24" fill="white"/>
</clipPath>
</defs>
</svg>
