<svg width="79" height="24" viewBox="0 0 79 24" fill="none" xmlns="http://www.w3.org/2000/svg">
<path fill-rule="evenodd" clip-rule="evenodd" d="M4.32692 16.8918L1.25916 13.4612L10.6495 10.0433L12.1107 14.0598L4.32692 16.8918Z" fill="#F89920"/>
<path fill-rule="evenodd" clip-rule="evenodd" d="M4.30452 16.8283L4.16052 21.4307L13.5508 18.0128L12.0897 13.9963L4.30452 16.8283Z" fill="#FFBE22"/>
<path fill-rule="evenodd" clip-rule="evenodd" d="M30.4001 7.40833C31.7399 11.2907 27.4227 16.3914 20.707 18.8366C13.9912 21.2817 7.40461 20.1495 5.93567 16.313L30.4001 7.40833Z" fill="#F0670A"/>
<path fill-rule="evenodd" clip-rule="evenodd" d="M30.4006 7.40835C28.9409 3.56338 22.3479 2.42621 15.6251 4.8728C8.90228 7.31941 4.58225 12.4293 5.93543 16.306L30.4006 7.40835Z" fill="#FFD00E"/>
<path fill-rule="evenodd" clip-rule="evenodd" d="M30.4 7.40833C31.2351 10.006 26.548 14.0436 19.8527 16.4874C13.1575 18.9311 6.96619 18.838 5.93701 16.3123L30.4 7.40833Z" fill="#F89920"/>
<path fill-rule="evenodd" clip-rule="evenodd" d="M30.3998 7.4084C29.3855 4.87001 23.1857 4.77966 16.4798 7.22063C9.77395 9.66157 5.08196 13.7147 5.93679 16.3124L30.3998 7.4084Z" fill="#FFBE22"/>
<path d="M19.1141 3.88525C18.4752 1.67584 17.7482 0.450421 16.9216 0.473715C15.3235 0.518891 14.7863 5.58642 15.3037 12.0798C15.8261 18.6424 17.1814 23.5716 18.8726 23.5271C19.8806 23.501 20.4482 21.8881 20.6479 19.0871C20.6522 19.0306 20.5879 19.0695 20.5915 19.0109C20.5915 19.0109 20.583 18.9085 20.5456 18.9064L20.331 18.8923C20.1545 21.6099 19.6237 23.177 18.8628 23.1982C17.4736 23.2335 16.131 18.3579 15.6298 12.0537C15.1357 5.85254 15.6679 0.837247 16.9301 0.801953C17.5272 0.785012 18.1971 1.91372 18.7894 3.94878L19.1141 3.87819V3.88525Z" fill="#F0670A"/>
<path d="M11.1944 2.30824C9.83205 3.14683 11.9017 7.80353 15.5963 13.1689C19.3304 18.5901 22.9692 22.1817 24.4106 21.2979C25.2153 20.8038 24.9895 19.3045 23.9518 17.0414C23.9285 16.9849 23.877 16.9475 23.8106 16.9405C23.7443 16.9334 23.6921 16.9617 23.6582 17.0111C23.6243 17.0605 23.6193 17.124 23.6469 17.1784C24.6111 19.2819 24.8186 20.6584 24.2313 21.0184C23.0455 21.7454 19.4469 18.192 15.8596 12.9826C12.3316 7.8593 10.2845 3.2513 11.3596 2.58848C11.9313 2.23695 13.288 3.08542 15.0831 4.91789C15.1029 4.93906 15.2172 5.05695 15.2433 5.06471C15.2998 5.08165 15.2716 4.96377 15.3153 4.92C15.3464 4.88965 15.3648 4.84801 15.3648 4.80424C15.3648 4.76048 15.3485 4.71953 15.3175 4.68777C13.4003 2.72965 11.9617 1.83036 11.1866 2.30753L11.1944 2.30824Z" fill="#F0670A"/>
<path fill-rule="evenodd" clip-rule="evenodd" d="M45.2074 13.9462H48.8003V15.7412H43.1123V8.25886H48.8003V10.0546H45.2074V10.9532H47.4521V12.7497H45.2074V13.9462ZM61.5224 13.9462H64.8154V15.7412H59.4274V8.25886H61.5238L61.5224 13.9462ZM66.9111 8.25815H69.0076V15.7412H66.9111V8.25815ZM71.4003 8.25815V15.7412H73.3464V11.5497L76.0407 15.7412H77.9869V8.25745H76.0407V12.5111L73.3464 8.26874L71.4003 8.25815Z" fill="#574751"/>
<path d="M52.9907 11.7007H54.49C54.6078 11.7007 54.7245 11.6775 54.8333 11.6323C54.9422 11.5872 55.0411 11.5211 55.1244 11.4377C55.2077 11.3543 55.2737 11.2553 55.3186 11.1463C55.3636 11.0374 55.3866 10.9207 55.3865 10.8029C55.3867 10.685 55.3637 10.5682 55.3188 10.4592C55.2739 10.3501 55.2079 10.2511 55.1247 10.1676C55.0414 10.0841 54.9424 10.0179 54.8335 9.97274C54.7246 9.92749 54.6079 9.90427 54.49 9.90427H52.99V11.7007H52.9907ZM54.7893 8.25815C55.4641 8.25815 56.1107 8.52639 56.5879 9.00356C57.0651 9.48074 57.3326 10.128 57.3326 10.8036C57.3326 11.4791 57.0643 12.1257 56.5879 12.6036C56.1114 13.0814 55.4641 13.349 54.7893 13.349H53.2011V15.7412H51.0453V8.25745H54.7886L54.7893 8.25815Z" fill="#574751"/>
<path fill-rule="evenodd" clip-rule="evenodd" d="M40.718 10.0538V8.25879H34.5811V10.0545H38.0236L34.5811 13.9467V15.7433H40.718V13.9467H37.4251L40.718 10.0538Z" fill="#574751"/>
</svg>
