<svg width="70" height="24" viewBox="0 0 70 24" fill="none" xmlns="http://www.w3.org/2000/svg">
<g clip-path="url(#clip0_1320_12257)">
<path d="M69.8707 5.11182V21.5728L67.5928 23.7966V7.68809L69.8707 5.11182Z" fill="#E79225"/>
<path d="M54.9418 5.12538L52.5825 7.68809L52.7046 7.8508L67.4978 7.79656L67.6334 7.68809L69.8707 5.11182L54.9418 5.12538Z" fill="#FFF16D"/>
<path d="M67.6334 7.68811H52.5825V23.8101H67.6334V7.68811Z" fill="url(#paint0_linear_1320_12257)"/>
<path d="M65.342 13.4915C65.0437 12.7457 64.5962 12.0678 64.0131 11.4847C63.4572 10.9152 62.8335 10.4813 62.1284 10.1966C61.4369 9.91185 60.6911 9.7627 59.8776 9.7627C59.064 9.7627 58.3047 9.91185 57.6131 10.1966C56.9081 10.4813 56.2843 10.9152 55.7284 11.4847C55.1453 12.0678 54.7115 12.7457 54.4131 13.4915C54.1148 14.2373 53.9792 15.0508 53.9792 15.9457C53.9792 16.8135 54.1284 17.6271 54.4267 18.3864C54.725 19.1457 55.1589 19.8237 55.742 20.4203C56.2843 20.9763 56.9081 21.3966 57.5996 21.6813C58.2911 21.9661 59.064 22.1152 59.8911 22.1152C60.6911 22.1152 61.4369 21.9661 62.1284 21.6813C62.8199 21.3966 63.4572 20.9763 64.0131 20.4203C64.5962 19.8237 65.0437 19.1457 65.342 18.4C65.6403 17.6542 65.7894 16.8271 65.7894 15.9593C65.7894 15.0508 65.6403 14.2373 65.342 13.4915ZM62.2369 18.8068C61.6538 19.4983 60.8809 19.8508 59.8776 19.8508C58.8742 19.8508 58.0877 19.4983 57.5047 18.8068C56.9216 18.1152 56.6369 17.1525 56.6369 15.9322C56.6369 14.6847 56.9352 13.722 57.5047 13.0169C58.0877 12.3118 58.8606 11.9729 59.8776 11.9729C60.8809 11.9729 61.6538 12.3254 62.2369 13.0169C62.8064 13.722 63.1047 14.6847 63.1047 15.9322C63.1047 17.1525 62.8199 18.1152 62.2369 18.8068Z" fill="white"/>
<path d="M51.1047 3.76953V3.85089L53.0301 18.6441L51.9047 21.7628L51.7555 21.6543L49.7759 7.47123L49.8166 7.2814L51.0505 3.85089L51.1047 3.76953Z" fill="#009ADA"/>
<path d="M36.2843 5.83055L51.1046 3.76953L49.8571 7.32207L49.6809 7.5119L35.8232 9.5458L35.891 7.01021L36.2843 5.83055Z" fill="#91C9ED"/>
<path d="M49.8572 7.32202L51.9047 21.7627L37.3013 23.8102L35.3352 9.85762L36.1894 9.19321L49.8572 7.32202Z" fill="url(#paint1_linear_1320_12257)"/>
<path d="M47.376 10.0882C47.3082 9.64073 47.1591 9.30174 46.915 9.07124C46.7116 8.89496 46.4675 8.80005 46.1828 8.80005C46.115 8.80005 46.0336 8.80005 45.9523 8.81361C45.5726 8.86785 45.2879 9.04412 45.1116 9.32886C44.976 9.53225 44.9218 9.78988 44.9218 10.0882C44.9218 10.1967 44.9353 10.3187 44.9489 10.4407L45.4777 14.1967L41.2743 14.8204L40.7455 11.0645C40.6777 10.6306 40.5285 10.2916 40.2845 10.0611C40.0811 9.87124 39.837 9.77632 39.5658 9.77632C39.498 9.77632 39.4302 9.77632 39.3624 9.78988C38.9692 9.84412 38.6709 10.0204 38.4811 10.3051C38.3455 10.5085 38.2913 10.7661 38.2913 11.0645C38.2913 11.1729 38.3048 11.295 38.3184 11.4306L39.7557 21.2068C39.8235 21.6543 39.9726 21.9933 40.2438 22.2238C40.4472 22.4 40.6913 22.4814 40.9896 22.4814C41.0709 22.4814 41.1523 22.4814 41.2336 22.4678C41.5997 22.4136 41.8709 22.2373 42.0472 21.9526C42.1692 21.7492 42.2235 21.5051 42.2235 21.2204C42.2235 21.1119 42.2099 20.9899 42.1963 20.8678L41.6133 17.0034L45.8167 16.3797L46.3997 20.2441C46.4675 20.6916 46.6167 21.0306 46.8743 21.2475C47.0777 21.4238 47.3218 21.5187 47.6065 21.5187C47.6743 21.5187 47.7557 21.5187 47.837 21.5051C48.2167 21.4509 48.5014 21.2746 48.6777 20.9899C48.7997 20.7865 48.8675 20.5424 48.8675 20.2441C48.8675 20.1356 48.854 20.0136 48.8404 19.8916L47.376 10.0882Z" fill="white"/>
<path d="M22.413 0L17.1384 12.5288L17.8571 18.0339L17.8977 18.0203L23.8232 4.69153L23.7961 4.40678L22.5215 0.176271L22.413 0Z" fill="#66BF6B"/>
<path d="M22.4131 0L23.7826 4.59661L23.8097 4.69152L36.8538 10.5356L36.8944 10.5085L35.7826 6.11525L22.4131 0Z" fill="#98D0A0"/>
<path d="M23.7826 4.59656L36.8945 10.5084L30.969 23.9457L17.8572 18.0338L23.7826 4.59656Z" fill="url(#paint2_linear_1320_12257)"/>
<path d="M32.9214 11.5932C32.6367 10.8339 32.2435 10.183 31.7282 9.64063C31.2129 9.09826 30.5892 8.66436 29.857 8.3525C29.1248 8.04063 28.3926 7.89148 27.6468 7.89148H27.6062C26.8468 7.89148 26.1011 8.06775 25.3689 8.39317C24.596 8.73216 23.9316 9.19317 23.3621 9.80334C22.7926 10.4 22.3316 11.1322 21.979 11.9728C21.6265 12.8 21.4367 13.6406 21.396 14.4678V14.7525C21.396 15.4847 21.518 16.2033 21.7757 16.9084C22.0468 17.6542 22.4401 18.2915 22.9553 18.8339C23.4706 19.3762 24.1079 19.8101 24.8672 20.122C25.5858 20.4339 26.318 20.583 27.0638 20.583H27.0774C27.8231 20.583 28.5689 20.4203 29.3011 20.1084C30.074 19.7694 30.7519 19.2949 31.3214 18.6847C31.8909 18.0881 32.3655 17.3694 32.718 16.5288C33.0706 15.6881 33.2604 14.861 33.3011 14.0339V13.7898C33.3146 13.044 33.1926 12.3118 32.9214 11.5932ZM30.3045 15.4983C29.8163 16.6644 29.1519 17.4644 28.3519 17.8983C27.918 18.1288 27.4706 18.2508 27.0231 18.2508C26.6299 18.2508 26.2096 18.1559 25.7892 17.9796C24.8672 17.5864 24.2977 16.9627 24.0536 16.0678C23.9723 15.7694 23.9316 15.4576 23.9316 15.1322C23.9316 14.4813 24.0943 13.7627 24.4197 12.9898C24.9214 11.7966 25.5858 10.983 26.3858 10.5355C26.8197 10.2915 27.2672 10.183 27.7146 10.183C28.1214 10.183 28.5282 10.2779 28.9621 10.4542C29.8706 10.8474 30.4401 11.4711 30.6841 12.3661C30.7655 12.6508 30.8062 12.9627 30.8062 13.2881C30.8062 13.9661 30.6435 14.6983 30.3045 15.4983Z" fill="white"/>
<path d="M16.0945 2.12878L18.2369 16.4745L17.2606 21.5186L17.125 21.3423L15.0369 7.48472V7.21353L15.9589 2.37285L16.0945 2.12878Z" fill="#760D16"/>
<path d="M0.447021 9.54573L1.46397 4.47455L16.0945 2.12878L15.1046 7.29489V7.63387L0.623293 9.68133L0.447021 9.54573Z" fill="#EF463E"/>
<path d="M15.1046 7.29492L17.2606 21.5187L2.77922 23.7831L0.447021 9.54577L15.1046 7.29492Z" fill="url(#paint3_linear_1320_12257)"/>
<path d="M13.5453 19.2542C13.4368 19.1186 13.2741 19.0237 13.0843 18.9559C12.8944 18.8881 12.6639 18.861 12.3792 18.861C12.1216 18.861 11.8233 18.8881 11.4978 18.9424L7.67411 19.5932C7.71478 19.2949 7.86394 18.9152 8.12156 18.4407C8.40631 17.9119 8.84021 17.2746 9.39614 16.5424C9.58597 16.2847 9.73512 16.0949 9.8436 15.9593C9.9114 15.8644 10.0199 15.7424 10.1555 15.5661C11.0368 14.4135 11.5656 13.478 11.7826 12.7458C11.9046 12.3254 11.9724 11.9051 11.9995 11.4847C12.0131 11.3627 12.0131 11.2542 12.0131 11.1458C12.0131 10.8474 11.986 10.5491 11.9317 10.2508C11.8911 9.97965 11.8233 9.7627 11.7283 9.58643C11.6334 9.41016 11.525 9.27457 11.3894 9.19321C11.2402 9.0983 11.0097 9.05762 10.725 9.05762C10.4944 9.05762 10.2097 9.08474 9.87072 9.13897L5.45038 9.8983C4.92156 9.99321 4.51479 10.1424 4.27072 10.3864C4.06733 10.5763 3.97241 10.8203 3.97241 11.0915C3.97241 11.1593 3.97241 11.2407 3.98597 11.322C4.05377 11.7017 4.2436 11.9729 4.55546 12.1085C4.74529 12.1898 4.96224 12.2305 5.23343 12.2305C5.4097 12.2305 5.61309 12.2169 5.83004 12.1763L9.51817 11.5254C9.51817 11.5932 9.53173 11.661 9.53173 11.7152C9.53173 11.9458 9.49106 12.1763 9.4097 12.3932C9.30122 12.7051 9.03004 13.139 8.58258 13.6949C8.46055 13.8441 8.27072 14.0881 8.01309 14.4C7.0097 15.6068 6.30462 16.6373 5.87072 17.4915C5.55885 18.0881 5.35546 18.6576 5.23343 19.2407C5.16563 19.5797 5.12495 19.8915 5.12495 20.2034C5.12495 20.4203 5.13851 20.6373 5.17919 20.8407C5.23343 21.139 5.30123 21.383 5.39614 21.5729C5.49106 21.7627 5.62665 21.9119 5.7758 21.9932C5.92495 22.0746 6.12834 22.1017 6.42665 22.1017C6.79275 22.1017 7.29445 22.0474 7.93173 21.939L11.9453 21.2474C12.6504 21.1254 13.1521 20.9491 13.4368 20.7186C13.6673 20.5288 13.7894 20.2712 13.7894 19.9729C13.7894 19.8915 13.7758 19.8102 13.7622 19.7288C13.7351 19.5525 13.6673 19.3898 13.5453 19.2542Z" fill="white"/>
</g>
<defs>
<linearGradient id="paint0_linear_1320_12257" x1="60.1073" y1="7.91885" x2="60.1073" y2="23.3235" gradientUnits="userSpaceOnUse">
<stop offset="0.005618" stop-color="#FFE513"/>
<stop offset="1" stop-color="#FDB924"/>
</linearGradient>
<linearGradient id="paint1_linear_1320_12257" x1="36.0829" y1="9.54697" x2="51.1289" y2="21.7497" gradientUnits="userSpaceOnUse">
<stop offset="0.005618" stop-color="#008CD2"/>
<stop offset="1" stop-color="#00649D"/>
</linearGradient>
<linearGradient id="paint2_linear_1320_12257" x1="27.3761" y1="9.97152" x2="27.3761" y2="23.4676" gradientUnits="userSpaceOnUse">
<stop stop-color="#26A146"/>
<stop offset="1" stop-color="#008A52"/>
</linearGradient>
<linearGradient id="paint3_linear_1320_12257" x1="7.80024" y1="8.64823" x2="10.0354" y2="22.6753" gradientUnits="userSpaceOnUse">
<stop stop-color="#D92231"/>
<stop offset="1" stop-color="#BA2234"/>
</linearGradient>
<clipPath id="clip0_1320_12257">
<rect width="69.4237" height="24" fill="white" transform="translate(0.447021)"/>
</clipPath>
</defs>
</svg>
