<svg width="108" height="24" viewBox="0 0 108 24" fill="none" xmlns="http://www.w3.org/2000/svg">
<g clip-path="url(#clip0_1320_11835)">
<path fill-rule="evenodd" clip-rule="evenodd" d="M87.824 7.19698C88.2322 7.9013 88.3658 8.70265 88.4099 9.60353L88.4678 10.8043V19.2008L88.527 20.4028C88.6455 22.3658 90.0932 23.8173 92.0714 23.9408L93.2671 24V10.8043L93.3263 9.60353C93.3754 8.71273 93.5077 7.89626 93.9223 7.1869C94.3447 6.45931 94.951 5.85564 95.6805 5.43652C96.41 5.0174 97.2369 4.79757 98.0782 4.7991C98.9195 4.80063 99.7457 5.02347 100.474 5.44525C101.202 5.86703 101.806 6.47289 102.225 7.20202C102.634 7.90634 102.761 8.72281 102.81 9.60353L102.869 10.8005V19.2008L102.929 20.4028C103.052 22.3759 104.488 23.8274 106.473 23.9408L107.669 24V9.60353C107.669 7.05784 106.658 4.61636 104.858 2.81593C103.058 1.0155 100.617 0.00352562 98.0714 0.00252332C96.7088 0.00108641 95.3617 0.290434 94.1199 0.851234C92.8782 1.41203 91.7704 2.23138 90.8706 3.25452C89.9704 2.23178 88.8626 1.41264 87.6209 0.851669C86.3793 0.290702 85.0323 0.000794403 83.6698 0.00126311C81.6766 0.00126311 79.8269 0.606051 78.2948 1.65057C77.3599 0.607311 75.2683 0.00126311 74.0676 0.00126311V24L75.2683 23.9408C77.2767 23.8085 78.7282 22.3961 78.8063 20.4028L78.8706 19.2008V10.8043L78.9298 9.60353C78.9802 8.69761 79.1062 7.9013 79.5157 7.19194C79.9385 6.4648 80.5446 5.86128 81.2735 5.44164C82.0025 5.02201 82.8287 4.80094 83.6698 4.80051C84.5116 4.80069 85.3385 5.0222 86.0676 5.44282C86.7967 5.86344 87.4024 6.46839 87.824 7.19698ZM5.66985 23.942L6.8706 24H24.8693L24.8101 22.803C24.6476 20.8299 23.2503 19.3885 21.2709 19.26L20.0701 19.2008H9.27212L23.6686 4.79925L23.6094 3.60353C23.5161 1.61025 22.0596 0.1701 20.0701 0.0604815L18.8693 0.0063029L0.870605 0.00126311L0.929824 1.20202C1.08732 3.15624 2.50479 4.62789 4.46783 4.74129L5.66985 4.80051H16.4678L2.07136 19.202L2.13058 20.4028C2.24902 22.3809 3.67657 23.8135 5.66985 23.9408V23.942ZM69.3565 3.51407C70.471 4.62829 71.355 5.95114 71.9582 7.40706C72.5613 8.86298 72.8718 10.4235 72.8718 11.9994C72.8718 13.5753 72.5613 15.1358 71.9582 16.5917C71.355 18.0476 70.471 19.3705 69.3565 20.4847C67.105 22.7344 64.0523 23.9982 60.8693 23.9982C57.6864 23.9982 54.6337 22.7344 52.3822 20.4847C47.6963 15.7988 47.6963 8.19992 52.3822 3.51407C53.4956 2.40023 54.8175 1.5166 56.2725 0.913655C57.7274 0.310708 59.2869 0.000248732 60.8618 2.89265e-06C62.4393 -0.00109231 64.0015 0.30882 65.4591 0.912014C66.9167 1.51521 68.2411 2.39985 69.3565 3.51533V3.51407ZM65.9609 6.91222C67.3106 8.26294 68.0688 10.0943 68.0688 12.0038C68.0688 13.9133 67.3106 15.7446 65.9609 17.0953C64.6102 18.445 62.7788 19.2032 60.8693 19.2032C58.9599 19.2032 57.1285 18.445 55.7778 17.0953C54.4281 15.7446 53.6699 13.9133 53.6699 12.0038C53.6699 10.0943 54.4281 8.26294 55.7778 6.91222C57.1285 5.56253 58.9599 4.80436 60.8693 4.80436C62.7788 4.80436 64.6102 5.56253 65.9609 6.91222ZM35.6774 2.89265e-06C37.2524 0.000414204 38.8119 0.311072 40.2669 0.914237C41.7218 1.5174 43.0437 2.40126 44.157 3.51533C48.8441 8.19992 48.8441 15.8001 44.157 20.4847C41.9055 22.7344 38.8528 23.9982 35.6698 23.9982C32.4869 23.9982 29.4342 22.7344 27.1827 20.4847C22.4968 15.7988 22.4968 8.19992 27.1827 3.51407C28.2961 2.40023 29.618 1.5166 31.073 0.913655C32.5279 0.310708 34.0874 0.000248732 35.6623 2.89265e-06H35.6774ZM40.7614 6.9097C42.1115 8.26048 42.8699 10.0921 42.8699 12.0019C42.8699 13.9117 42.1115 15.7433 40.7614 17.0941C39.4107 18.4438 37.5793 19.2019 35.6698 19.2019C33.7604 19.2019 31.929 18.4438 30.5783 17.0941C29.2286 15.7434 28.4704 13.912 28.4704 12.0025C28.4704 10.093 29.2286 8.26168 30.5783 6.91096C31.929 5.56127 33.7604 4.8031 35.6698 4.8031C37.5793 4.8031 39.4107 5.56127 40.7614 6.91096V6.9097Z" fill="#2D8CFF"/>
</g>
<defs>
<clipPath id="clip0_1320_11835">
<rect width="106.798" height="24" fill="white" transform="translate(0.870605)"/>
</clipPath>
</defs>
</svg>
