<svg width="24" height="24" viewBox="0 0 24 24" fill="none" xmlns="http://www.w3.org/2000/svg">
    <path d="M12 1.5C6.20859 1.5 1.5 6.20859 1.5 12C1.5 17.7914 6.20859 22.5 12 22.5C17.7914 22.5 22.5 17.7914 22.5 12C22.5 6.20859 17.7914 1.5 12 1.5Z"
          fill="#FF5A5F"/>
    <path d="M12 14.765C11.3116 13.8991 10.9067 13.1401 10.7717 12.4907C10.6367 11.963 10.6907 11.5436 10.9202 11.2324C11.1631 10.8671 11.5276 10.6912 12 10.6912C12.4724 10.6912 12.8369 10.8671 13.0798 11.2324C13.3093 11.5436 13.3633 11.963 13.2283 12.4907C13.0798 13.1536 12.6749 13.9113 12 14.765ZM15.7686 16.7675C14.6213 17.2681 13.4861 16.4698 12.5143 15.3874C14.1219 13.3701 14.4188 11.8006 13.7291 10.7845C13.3241 10.2027 12.7437 9.91861 12 9.91861C10.5017 9.91861 9.67701 11.1904 10.001 12.6665C10.1899 13.4648 10.6894 14.3727 11.4857 15.3874C10.8884 16.0509 10.1047 16.8035 9.16409 16.8892C7.8008 17.0922 6.73312 15.7662 7.21904 14.3984L10.6759 7.2248C10.9709 6.68552 11.335 6.22359 11.9987 6.22359C12.4846 6.22359 12.8625 6.50772 13.0245 6.73773L16.7783 14.3984C17.146 15.324 16.6796 16.3731 15.7686 16.7675ZM17.5098 14.1278L14.296 7.42775C13.6886 6.183 13.2567 5.4375 12 5.4375C10.7582 5.4375 10.2304 6.30342 9.69051 7.42775L6.49015 14.1278C5.80176 16.0233 7.21904 17.6875 8.93463 17.6875C9.04262 17.6875 9.14982 17.674 9.25857 17.674C10.1494 17.5657 11.0686 16.9975 12 15.9814C12.9314 16.9961 13.8506 17.5657 14.7414 17.674C14.8502 17.674 14.9574 17.6875 15.0654 17.6875C16.781 17.6889 18.1982 16.0233 17.5098 14.1278Z"
          fill="white"/>
</svg>
