<svg width="24" height="24" viewBox="0 0 24 24" fill="none" xmlns="http://www.w3.org/2000/svg">
    <path d="M12 1.5C6.20859 1.5 1.5 6.20859 1.5 12C1.5 17.7914 6.20859 22.5 12 22.5C17.7914 22.5 22.5 17.7914 22.5 12C22.5 6.20859 17.7914 1.5 12 1.5Z"
          fill="black"/>
    <path d="M15.2991 10.9745C15.8788 11.0637 16.28 11.3312 16.503 11.6879C16.7259 12.0446 16.8597 12.6688 16.8597 13.4713C16.8597 15.0764 16.3692 16.414 15.3883 17.4395C14.4074 18.465 13.159 19 11.6431 19C10.4587 19 9.36159 18.5821 8.47749 17.7962C7.44906 16.8706 6.5723 14.9883 7.4966 13.6943C7.71953 13.3822 8.1208 13.2038 8.61125 13.0701C8.52207 12.8471 8.4329 12.6688 8.38832 12.4904C8.22683 12.006 8.37799 11.6091 8.745 11.242C9.06556 10.9215 9.49259 10.6887 9.94882 10.8408C10.0826 10.8854 10.2163 10.9299 10.3947 11.0637C9.99341 9.72611 9.59214 8.61146 9.36921 7.8535C9.14628 7.09554 9.05711 6.6051 9.05711 6.29299C9.05711 5.59376 9.47063 5 10.2163 5C11.0635 5 11.3564 6.2103 12.4451 9.041C12.6209 9.49803 12.7577 9.85987 12.8469 10.1274C12.9361 9.94904 13.0253 9.63694 13.159 9.28025C14.0953 6.6051 14.665 5.40361 15.451 5.31444C15.7611 5.27925 16.1017 5.35669 16.3246 5.57962C16.503 5.80255 16.6842 6.11783 16.6367 6.47134C16.4119 8.14452 15.8039 9.61157 15.2991 10.9745ZM8.4329 14.8981C8.52207 14.9873 8.65583 15.1656 8.78959 15.3885C9.19086 15.9682 9.59214 16.2803 9.94882 16.2803C10.4857 16.2803 10.405 15.7475 10.2163 15.4331C9.8983 14.903 9.49425 14.3989 9.05711 13.9618C8.6776 13.6772 8.35253 13.6944 8.03163 14.0955C7.39314 14.8937 7.95512 16.1538 8.52207 16.8153C8.92335 17.2611 9.36921 17.6624 9.94882 17.9299C10.5284 18.1975 11.1081 18.3312 11.8214 18.3312C13.0698 18.3312 14.0953 17.8853 14.9425 16.949C15.7896 16.0127 16.1909 14.8535 16.1909 13.4268C16.1909 12.9809 16.1463 12.6688 16.1017 12.4013C15.9706 11.615 14.9033 11.4348 14.2737 11.2866C13.5157 11.1083 12.7132 11.0191 11.9106 11.0191C11.5443 11.0191 11.2864 11.1618 11.2864 11.5541C11.2864 12 11.5093 12.3121 11.9998 12.4904C12.4902 12.6688 13.2928 12.8025 14.3628 12.8025C14.7036 12.8025 15.2224 12.873 15.0762 13.2038C14.958 13.4713 14.0766 13.6414 13.6495 13.9618C12.9842 14.4053 12.3565 15.2711 12.3565 16.1019C12.3565 16.6101 12.818 17.5003 12.624 17.5732C11.848 17.865 11.7323 16.126 11.7323 15.7452C11.5282 15.9493 11.2791 15.9258 11.0635 15.8344C11.0635 16.2265 11.1822 16.5182 10.8405 16.8599C10.2727 17.4277 9.41429 16.9896 8.92335 16.5478C8.52207 16.1465 8.27419 15.7714 8.27419 15.3701C8.27419 15.201 8.30886 15.0221 8.4329 14.8981ZM11.6431 14.9873C12.1384 14.4919 11.1306 12.9702 10.8405 12.535C10.526 11.9846 9.90174 11.2445 9.28004 11.8662C8.91571 12.2306 9.10185 12.6543 9.28004 13.0701C9.45838 13.3822 9.63672 13.6943 9.90424 14.051C10.1813 14.4204 11.0616 15.5688 11.6431 14.9873ZM12.2673 10.4841L11.1972 7.49682C10.9297 6.73885 10.7514 6.20382 10.573 5.98089C10.2736 5.48178 9.63672 5.56724 9.63672 6.20382C9.63672 6.51592 9.77048 7.00637 9.99341 7.71975C10.2163 8.43312 10.573 9.42186 10.9451 10.6113C11.1212 10.259 11.9646 10.4336 12.2673 10.4841ZM13.3374 13.3822C12.8462 13.3822 12.2792 13.2978 11.8214 13.1146C11.9881 13.5312 12.1786 13.9195 12.2673 14.3631C12.5633 13.9684 12.9465 13.6753 13.3374 13.3822ZM14.6304 10.7962C15.0762 9.63694 15.3883 8.65605 15.6558 7.89809C15.8788 7.14013 16.0125 6.69427 16.0125 6.51592C16.0125 5.78082 15.3369 5.84798 15.0316 6.38217C14.8533 6.69427 14.6304 7.14013 14.4074 7.80892L13.4265 10.5732L14.6304 10.7962Z"
          fill="white"/>
</svg>
