<svg width="24" height="24" viewBox="0 0 24 24" fill="none" xmlns="http://www.w3.org/2000/svg">
    <path d="M12.0008 22.5C16.8848 22.5 20.25 20.3216 20.25 11.9996C20.25 3.67797 16.8848 1.5 12.0008 1.5C7.11703 1.5 3.75 3.67833 3.75 11.9996C3.75 20.3217 7.11671 22.5 12.0008 22.5Z"
          fill="white"/>
    <path d="M12.9043 6.685L14.7536 8.42129L12.9054 10.1561L12.9043 6.685ZM12.9043 17.3136L14.7536 15.5776L12.9054 13.8424L12.9043 17.3136ZM10.9297 11.9993L6.93179 8.23631L8.0906 7.14869L11.2754 10.1401V2.97144L17.0675 8.40883L13.2431 11.9993L17.0682 15.5907L11.2758 21.0283V13.8591L8.09021 16.8509L6.93134 15.7626L10.9297 11.9993ZM12.0008 22.5C16.8848 22.5 20.25 20.3216 20.25 11.9996C20.25 3.67797 16.8848 1.5 12.0008 1.5C7.11703 1.5 3.75 3.67833 3.75 11.9996C3.75 20.3217 7.11671 22.5 12.0008 22.5Z"
          fill="#0060A9"/>
</svg>
