<svg width="24" height="24" viewBox="0 0 24 24" fill="none" xmlns="http://www.w3.org/2000/svg">
    <path fill-rule="evenodd" clip-rule="evenodd"
          d="M11.2587 9.42018C11.1837 9.37101 11.1087 9.32183 11.0341 9.27228C10.7195 9.47443 10.4057 9.67751 10.092 9.88059C9.50178 10.2626 8.91159 10.6447 8.31514 11.0205C8.09995 10.3684 7.63613 9.8447 6.98192 9.64086C6.52035 9.49707 5.9479 9.51584 5.35598 9.53525C4.99905 9.54696 4.63503 9.55889 4.28397 9.53556V13.9272C4.64336 13.9104 5.00043 13.9206 5.34644 13.9304C5.71911 13.941 6.07895 13.9513 6.41502 13.9272C7.45421 13.8524 8.08226 13.2199 8.34669 12.379C8.79195 12.6704 9.22971 12.9692 9.66746 13.2681C10.1271 13.582 10.5868 13.8958 11.0551 14.2009C11.3561 14.0083 11.659 13.811 11.9623 13.6135C12.5439 13.2347 13.1269 12.855 13.7006 12.5054V13.9272H16.6716V12.5264C16.4958 12.5238 16.316 12.5252 16.1362 12.5266C15.8434 12.5289 15.5506 12.5312 15.2753 12.516V9.53556H13.7006V11.0311C13.5057 11.1557 13.3114 11.2808 13.1171 11.406C12.5974 11.7405 12.0778 12.0751 11.5485 12.4001C11.5071 12.373 11.4639 12.3476 11.4207 12.3223C11.3446 12.2777 11.2686 12.2331 11.2022 12.1789C11.4999 11.9859 11.7945 11.7897 12.0891 11.5936C12.4907 11.3262 12.8923 11.0588 13.3018 10.7993C13.0085 10.5775 12.6957 10.3753 12.3779 10.178C11.7242 10.5976 11.0679 11.0147 10.4116 11.4318C10.3567 11.4667 10.3017 11.5016 10.2468 11.5365C10.1933 11.4954 10.136 11.458 10.0788 11.4206C10.0216 11.3832 9.96442 11.3459 9.9109 11.3048C10.2041 11.1174 10.4956 10.9282 10.7872 10.739C11.1968 10.4732 11.6065 10.2073 12.021 9.94629C11.7774 9.76037 11.518 9.59027 11.2587 9.42018ZM5.78512 12.5265V10.9468C5.78422 10.9318 5.78345 10.917 5.79558 10.9152C6.25022 10.886 6.57784 10.9331 6.77189 11.1574C7.06267 11.4936 6.99631 12.1246 6.66692 12.3791C6.46725 12.5334 6.2156 12.5308 5.89296 12.5274C5.85786 12.527 5.82192 12.5267 5.78512 12.5265Z"
          fill="#0083CA"/>
    <path d="M18.6556 9.53556H17.0809C17.0687 9.53732 17.0695 9.55211 17.0703 9.56699L17.0703 13.9272H20.0413V12.5265H18.6556V9.53556Z"
          fill="#0083CA"/>
    <path fill-rule="evenodd" clip-rule="evenodd"
          d="M12.3253 1.5H11.6744C8.52947 1.67369 6.24881 2.88832 4.57786 4.56472C2.91457 6.23335 1.67074 8.48568 1.51245 11.663C1.51422 11.6753 1.51019 11.6818 1.50195 11.6841V12.316C1.66726 15.5055 2.90434 17.7346 4.57782 19.4247C6.2513 21.115 8.50896 22.3205 11.6744 22.5H12.3148C15.5432 22.3406 17.682 21.0883 19.4219 19.4353C21.0781 17.6952 22.337 15.5565 22.4977 12.316V11.6841C22.3324 8.49458 21.0954 6.26541 19.4219 4.57525C17.7484 2.88509 15.4911 1.6791 12.3253 1.5ZM7.92668 3.6379C8.43369 3.38637 8.99307 3.17358 9.61681 3.00602C10.2453 2.83719 10.934 2.746 11.664 2.71113C13.1491 2.6402 14.5357 2.97083 15.6008 3.41675C16.6985 3.87635 17.6301 4.51222 18.4037 5.25976C19.9672 6.77055 21.1519 8.75169 21.2906 11.6735C21.3639 13.2159 21.0249 14.4891 20.5767 15.5913C19.6905 17.7701 18.0915 19.3492 16.0626 20.3726C15.0273 20.8948 13.7778 21.22 12.3358 21.2889C10.8325 21.3607 9.49749 21.0402 8.42011 20.5833C6.24138 19.6593 4.66708 18.139 3.63301 16.0757C3.10939 15.0308 2.77792 13.8049 2.70925 12.3475C2.60034 10.0359 3.35237 8.27307 4.22091 6.90269C5.11076 5.49875 6.38342 4.40346 7.92668 3.6379Z"
          fill="#0083CA"/>
</svg>
