<svg width="24" height="24" viewBox="0 0 24 24" fill="none" xmlns="http://www.w3.org/2000/svg">
    <path d="M12 1.5C6.20859 1.5 1.5 6.20859 1.5 12C1.5 17.7914 6.20859 22.5 12 22.5C17.7914 22.5 22.5 17.7914 22.5 12C22.5 6.20859 17.7914 1.5 12 1.5Z"
          fill="#81B441"/>
    <path d="M15.7783 5.97571C10.6874 6.31248 9.15027 11.0619 9.0201 13.4918C9.0201 13.8916 7.73635 13.0823 8.49992 9.59373C8.56538 9.29467 8.49992 8.93748 8.49992 8.93748C5.84879 11.2694 6.07677 15.6784 9.3359 17.4709C11.8623 18.8604 15.1467 17.9762 16.5993 15.3866C18.3047 12.4181 16.7888 6.54415 15.7783 5.97571Z"
          fill="white"/>
</svg>
