<svg width="24" height="24" viewBox="0 0 24 24" fill="none" xmlns="http://www.w3.org/2000/svg">
    <path fill-rule="evenodd" clip-rule="evenodd"
          d="M10.9786 6.47106C10.5852 6.25658 10.0921 6.3175 9.70631 6.52055C9.13775 6.82704 8.74686 7.37466 8.46068 7.93947C8.15673 8.52009 8.03109 9.1686 7.97144 9.81457C7.69097 9.77713 7.46507 9.55948 7.40035 9.28662C7.29492 8.96473 7.3645 8.63622 7.43266 8.31443C7.44901 8.23722 7.46528 8.1604 7.47903 8.08415C7.50321 7.99713 7.4585 7.92226 7.41535 7.85C7.40187 7.82743 7.38853 7.8051 7.3775 7.78274C7.13891 7.76814 6.89525 7.88554 6.78674 8.10446C6.46185 8.71172 6.4904 9.53093 6.93966 10.0697C7.19729 10.3958 7.60404 10.557 8.00825 10.6001C8.14468 11.0202 8.41119 11.4301 8.83951 11.5951C9.36365 11.8064 9.93919 11.585 10.3948 11.3096C10.3926 11.3324 10.3905 11.3554 10.3884 11.3784C10.375 11.525 10.3614 11.6734 10.3104 11.8128C10.2003 11.9014 10.0737 11.9648 9.94717 12.0282C9.88984 12.057 9.83252 12.0857 9.77674 12.1167L9.72705 12.1429C8.8642 12.5976 7.98862 13.059 7.26392 13.7209C6.72582 14.2259 6.30258 14.8979 6.22135 15.6422C6.18201 16.2273 6.41489 16.8694 6.92761 17.1912C7.46317 17.5459 8.16942 17.5263 8.75321 17.3061C9.48929 17.0256 10.0382 16.4011 10.4011 15.7197C10.938 14.7551 11.03 13.6301 11.108 12.5508C11.1128 12.5229 11.1152 12.4924 11.1177 12.4613C11.1264 12.3515 11.1357 12.2335 11.2514 12.191C12.1284 11.6979 12.9805 11.1611 13.7953 10.5703C13.8918 10.689 13.987 10.8083 14.0777 10.9307C13.6583 11.1808 13.2401 11.4504 12.9235 11.8293C11.7394 13.1244 11.7197 15.3472 12.9609 16.6112C13.5955 17.2807 14.5708 17.5668 15.4738 17.433C16.3038 17.315 17.0588 16.7927 17.4777 16.0693C18.0361 15.1479 17.9447 13.8592 17.2188 13.0552C16.5398 12.3052 15.218 12.3198 14.5543 13.0812C14.0321 13.6308 14.015 14.6023 14.56 15.1403C14.7809 15.3605 15.1654 15.4937 15.4427 15.304C15.6217 15.1752 15.6045 14.8999 15.4604 14.7507L15.4519 14.7404C15.2673 14.5175 15.0539 14.2598 15.1089 13.9499C15.1647 13.5406 15.6223 13.2899 16.0075 13.3769C16.3374 13.4283 16.6007 13.6859 16.7232 13.9879C17.012 14.6752 16.8482 15.5267 16.3298 16.0617C15.7803 16.6348 14.8246 16.7248 14.1616 16.3003C13.5726 15.938 13.2376 15.266 13.1341 14.5991C13.0257 13.7951 13.1799 12.9277 13.6786 12.2722C13.9997 11.8571 14.4477 11.5164 14.9629 11.3933C15.0361 11.3989 15.1098 11.4057 15.1837 11.4126C15.5467 11.4465 15.916 11.4809 16.2682 11.366C16.4675 11.2981 16.6616 11.0747 16.5601 10.8564C16.4503 10.6324 16.1806 10.5652 15.956 10.5182C15.6673 10.4609 15.38 10.5191 15.0966 10.5764C15.0504 10.5858 15.0044 10.5951 14.9584 10.6039C14.7294 10.5252 14.6082 10.2847 14.5232 10.0728C15.1603 9.59686 15.7897 9.0797 16.2224 8.40263C16.4738 7.99588 16.6375 7.49649 16.5195 7.01868C16.4263 6.70204 16.1667 6.43299 15.8354 6.3727C15.2834 6.23374 14.7186 6.5123 14.3436 6.90763C13.7408 7.56185 13.4349 8.46863 13.4628 9.35319C13.4596 9.4249 13.4686 9.49798 13.4775 9.57094C13.4914 9.68389 13.5052 9.79655 13.4736 9.90334C13.1306 10.1799 12.7568 10.4155 12.3836 10.6507C12.2654 10.7252 12.1472 10.7997 12.03 10.8755C11.9443 10.9252 11.8598 10.9773 11.7753 11.0294C11.584 11.1474 11.3927 11.2654 11.1867 11.3565C11.1918 11.0747 11.2064 10.7892 11.287 10.5176C11.363 10.4136 11.4459 10.3145 11.529 10.2153C11.6795 10.0353 11.8303 9.85515 11.9399 9.64572C12.0643 9.42172 12.1817 9.13808 12.0522 8.8906C11.9336 8.70722 11.6709 8.72498 11.4989 8.81636C11.1321 9.00038 10.931 9.38872 10.7831 9.75296C10.7521 9.82414 10.7295 9.90054 10.7068 9.97703C10.6554 10.1508 10.6039 10.325 10.4532 10.4395C10.1511 10.7035 9.78689 10.9688 9.36682 10.9535C9.12696 10.9547 8.96705 10.7289 8.91629 10.517C9.58003 10.2593 10.134 9.77834 10.5833 9.23516C10.9989 8.70087 11.3295 8.07013 11.3853 7.38608C11.4164 7.04152 11.2933 6.65127 10.9786 6.47106ZM9.26783 8.23575C9.46962 7.83027 9.70313 7.41337 10.0864 7.15257C10.2406 7.03581 10.4951 7.0853 10.568 7.27377C10.6245 7.50601 10.5388 7.74143 10.4398 7.94893C10.1587 8.52256 9.7393 9.02005 9.25958 9.43758C9.14092 9.54609 9.00259 9.63049 8.85601 9.69521C8.87568 9.18503 9.05081 8.69326 9.26783 8.23575ZM14.3601 9.2523C14.3525 8.56508 14.5986 7.87342 15.0467 7.35182C15.1831 7.19445 15.4179 7.03708 15.626 7.14432C15.8545 7.27948 15.7352 7.58216 15.6451 7.76745C15.331 8.34679 14.8653 8.83539 14.3601 9.2523ZM7.22401 15.4581C7.38385 14.8738 7.8135 14.413 8.25382 14.0178C8.84585 13.5197 9.50261 13.092 10.2058 12.767C10.1315 13.5443 9.9494 14.3147 9.65561 15.0381C9.40369 15.6206 9.02994 16.2202 8.41062 16.4588C8.08953 16.5794 7.67073 16.6549 7.3928 16.4011C7.12946 16.1676 7.14723 15.7716 7.22401 15.4581Z"
          fill="#FEFFFE"/>
    <path fill-rule="evenodd" clip-rule="evenodd"
          d="M16.7708 3.22343C15.0955 2.30016 13.1449 1.87755 11.2375 2.03301C10.0064 2.12122 8.79572 2.45055 7.68272 2.98294C5.89201 3.84592 4.36084 5.24828 3.36777 6.97172C1.88863 9.45789 1.60309 12.604 2.57268 15.3256C3.19454 17.0953 4.33038 18.6741 5.7988 19.8391C7.50511 21.1926 9.66321 21.9724 11.8429 21.9908C13.4343 22.0258 15.0334 21.6641 16.4541 20.9477C18.2645 20.0517 19.7855 18.5865 20.7576 16.8173C21.7291 15.0609 22.1555 13.0031 21.9392 11.0062C21.6517 7.76554 19.6275 4.76285 16.7708 3.22343ZM5.12357 5.93804C6.14393 4.45954 7.74998 3.44743 9.47025 2.98294C11.2153 2.4956 13.1037 2.51654 14.8295 3.07361C14.8948 3.09409 14.9471 3.1387 14.9986 3.18261C15.0061 3.18904 15.0136 3.19546 15.0212 3.20179C14.8583 3.18982 14.7031 3.1426 14.5477 3.09533C14.4313 3.05991 14.3148 3.02447 14.195 3.00381C13.4894 2.86294 12.7584 2.79314 12.0432 2.89975C11.5952 2.98033 11.125 3.15357 10.8407 3.52795C10.6269 3.80588 10.6041 4.24246 10.8522 4.50643C11.1276 4.79769 11.6162 4.78182 11.9214 4.54641C11.9817 4.50214 12.0416 4.45646 12.1018 4.41061C12.4015 4.18236 12.7066 3.94997 13.0813 3.86807C13.9957 3.64147 14.9545 3.82365 15.8403 4.08699C16.9038 4.37698 17.9096 4.90175 18.7257 5.64608C20.0855 6.84729 20.9028 8.572 21.2131 10.3405C21.4834 11.8495 21.4022 13.4263 20.9339 14.8883C20.9174 14.9568 20.8736 14.9968 20.8026 15.0076C21.0742 14.0121 21.2759 12.9555 21.0729 11.9275C20.9663 11.4313 20.7219 10.8716 20.1997 10.7022C19.8 10.5607 19.3133 10.8354 19.281 11.2701C19.2212 11.6346 19.4418 11.9192 19.6539 12.193C19.7125 12.2685 19.7704 12.3433 19.8216 12.4186C20.3299 13.1484 20.2671 14.0946 20.1428 14.9315C19.9092 16.0648 19.531 17.1931 18.8444 18.1373C17.7848 19.6583 16.0969 20.6622 14.3131 21.0911C12.7629 21.4617 11.1201 21.4591 9.57241 21.0778C9.52833 21.0646 9.48295 21.053 9.43728 21.0413C9.27193 20.999 9.10292 20.9558 8.9791 20.8335C9.1587 20.8331 9.33029 20.8804 9.5022 20.9278C9.61273 20.9583 9.72339 20.9888 9.83638 21.0067C10.6251 21.1501 11.4494 21.2389 12.2375 21.0416C12.5947 20.9432 12.9565 20.7731 13.181 20.4673C13.3892 20.1817 13.3848 19.7446 13.129 19.4894C12.9076 19.2559 12.5389 19.2078 12.2559 19.3549C12.0948 19.4422 11.9519 19.5564 11.809 19.6706C11.6536 19.7948 11.4982 19.919 11.3193 20.0086C10.627 20.3449 9.82369 20.2954 9.08507 20.171C7.86039 19.9305 6.6503 19.4863 5.66294 18.7051C4.35196 17.6976 3.44392 16.2279 2.9991 14.6453C2.52826 12.9885 2.52509 11.208 2.95468 9.54229C2.97828 9.48741 2.9915 9.42246 3.00486 9.35676C3.03354 9.21583 3.06291 9.07144 3.19708 9.01561C2.94579 9.96744 2.74718 10.9649 2.90011 11.951C2.97752 12.3889 3.13108 12.8527 3.49341 13.137C3.74469 13.3445 4.13748 13.4207 4.41541 13.2213C4.71175 13.0482 4.80947 12.637 4.67177 12.333C4.59356 12.1478 4.47176 11.9898 4.34979 11.8316C4.24615 11.6972 4.14239 11.5626 4.06514 11.411C3.70154 10.7467 3.74152 9.95347 3.83797 9.22628C4.04103 8.06124 4.43635 6.91017 5.12357 5.93804Z"
          fill="#FEFFFE"/>
    <path d="M10.0866 7.15276C10.2408 7.036 10.4953 7.0855 10.5682 7.27396C10.6247 7.50621 10.5391 7.74162 10.4401 7.94912C10.159 8.52276 9.73952 9.02024 9.2598 9.43778C9.14114 9.54629 9.00281 9.63068 8.85623 9.69541C8.8759 9.18523 9.05103 8.69345 9.26805 8.23594C9.46983 7.83046 9.70335 7.41356 10.0866 7.15276Z"
          fill="#3A73B8"/>
    <path d="M15.0469 7.35201C15.1833 7.19464 15.4181 7.03727 15.6262 7.14451C15.8547 7.27967 15.7354 7.58235 15.6453 7.76764C15.3312 8.34698 14.8655 8.83559 14.3603 9.25249C14.3528 8.56527 14.5988 7.87361 15.0469 7.35201Z"
          fill="#3A73B8"/>
    <path d="M10.2059 12.7673C9.50283 13.0922 8.84607 13.5198 8.25404 14.018C7.81366 14.4133 7.38407 14.874 7.22416 15.4584C7.14738 15.7719 7.12961 16.1678 7.39295 16.4013C7.67088 16.6552 8.08969 16.5796 8.41077 16.4591C9.03009 16.2205 9.40384 15.6208 9.65576 15.0383C9.94955 14.3149 10.1317 13.5446 10.2059 12.7673Z"
          fill="#3A73B8"/>
    <path fill-rule="evenodd" clip-rule="evenodd"
          d="M9.47047 2.98305C11.2155 2.49571 13.1039 2.51665 14.8299 3.07379C14.8952 3.09426 14.9475 3.13887 14.9989 3.18278L15.0215 3.20197C14.8587 3.19 14.7035 3.14279 14.5482 3.09553C14.4318 3.0601 14.3152 3.02465 14.1953 3.00399C13.4897 2.86312 12.7586 2.79332 12.0436 2.89992C11.5956 2.98051 11.1254 3.15374 10.8411 3.52813C10.6273 3.80606 10.6044 4.24263 10.8525 4.5066C11.1279 4.79786 11.6165 4.782 11.9217 4.54658C11.9821 4.50226 12.0422 4.45652 12.1024 4.41062C12.4021 4.18242 12.7071 3.95013 13.0816 3.86824C13.996 3.64171 14.9549 3.82383 15.8407 4.08716C16.9042 4.37715 17.9099 4.90193 18.726 5.64626C20.0859 6.84746 20.9032 8.57217 21.2134 10.3407C21.4837 11.8496 21.4025 13.4265 20.9342 14.8885C20.9177 14.957 20.874 14.997 20.8029 15.0078C21.0745 14.0122 21.2763 12.9556 21.0733 11.9277C20.9666 11.4315 20.7223 10.8718 20.2001 10.7024C19.8003 10.5609 19.3136 10.8356 19.2813 11.2703C19.2216 11.6348 19.4422 11.9195 19.6544 12.1933C19.7129 12.2688 19.7708 12.3435 19.822 12.4188C20.3302 13.1485 20.2674 14.0947 20.1431 14.9317C19.9095 16.0649 19.5313 17.1932 18.8447 18.1374C17.7851 19.6585 16.0972 20.6623 14.3134 21.0913C12.7632 21.4619 11.1204 21.4593 9.57276 21.078C9.5287 21.0648 9.48334 21.0532 9.43771 21.0415C9.27235 20.9992 9.10326 20.956 8.97945 20.8337C9.15897 20.8332 9.33051 20.8805 9.50235 20.9279C9.61294 20.9584 9.72368 20.989 9.83673 21.0068C10.6255 21.1502 11.4498 21.2391 12.2379 21.0417C12.5951 20.9434 12.9568 20.7734 13.1814 20.4675C13.3895 20.1819 13.3851 19.7447 13.1294 19.4896C12.908 19.2561 12.5393 19.2079 12.2562 19.3551C12.0951 19.4424 11.9522 19.5566 11.8092 19.6708C11.6538 19.795 11.4984 19.9192 11.3197 20.0087C10.6274 20.3451 9.82404 20.2956 9.08542 20.1712C7.86074 19.9307 6.65065 19.4865 5.66329 18.7053C4.35218 17.6976 3.44414 16.228 2.99932 14.6455C2.52848 12.9886 2.52531 11.2081 2.9549 9.5424C2.97851 9.48752 2.99172 9.42257 3.00509 9.35687C3.03376 9.21594 3.06313 9.07155 3.1973 9.01572C2.94602 9.96755 2.7474 10.9651 2.90033 11.9512C2.97774 12.389 3.13131 12.8528 3.49363 13.1371C3.74492 13.3446 4.1377 13.4208 4.41564 13.2215C4.71197 13.0483 4.80969 12.6371 4.672 12.3331C4.59377 12.1478 4.47194 11.9898 4.34996 11.8316C4.24634 11.6972 4.1426 11.5627 4.06536 11.4111C3.70177 10.7468 3.74174 9.95359 3.8382 9.22639C4.04125 8.06135 4.43658 6.91028 5.1238 5.93815C6.14415 4.45965 7.7502 3.44754 9.47047 2.98305ZM9.70652 6.52067C9.13796 6.82715 8.74708 7.37477 8.4609 7.93952C8.15695 8.52013 8.03131 9.16865 7.97166 9.81462C7.69119 9.77718 7.46529 9.55953 7.40056 9.28667C7.29514 8.96477 7.36472 8.63627 7.43287 8.31448C7.44922 8.23727 7.4655 8.16045 7.47925 8.0842C7.50342 7.99718 7.45871 7.92231 7.41556 7.85005C7.40208 7.82747 7.38875 7.80515 7.37772 7.78279C7.13913 7.76819 6.89546 7.88558 6.78695 8.1045C6.46206 8.71177 6.49062 9.53098 6.93988 10.0697C7.19757 10.3959 7.60425 10.557 8.00846 10.6002C8.14489 11.0203 8.4114 11.4302 8.83972 11.5952C9.36386 11.8065 9.9394 11.585 10.395 11.3096C10.3928 11.3325 10.3907 11.3554 10.3886 11.3784C10.3752 11.5251 10.3616 11.6735 10.3106 11.8128C10.2006 11.9015 10.074 11.9649 9.9474 12.0283C9.89009 12.057 9.83272 12.0857 9.77695 12.1168L9.72726 12.143C8.86442 12.5976 7.98883 13.059 7.26413 13.7209C6.72604 14.226 6.30279 14.8979 6.22157 15.6423C6.18223 16.2274 6.41511 16.8695 6.92782 17.1912C7.46332 17.5459 8.16964 17.5263 8.75342 17.3061C9.4895 17.0257 10.0384 16.4012 10.4014 15.7197C10.9382 14.7552 11.0302 13.6301 11.1082 12.5508C11.113 12.5229 11.1154 12.4925 11.1179 12.4614C11.1266 12.3516 11.1359 12.2335 11.2517 12.191C12.1286 11.6979 12.9808 11.1611 13.7955 10.5704C13.892 10.689 13.9872 10.8083 14.0779 10.9308C13.6585 11.1808 13.2403 11.4505 12.9237 11.8293C11.7396 13.1244 11.72 15.3472 12.9611 16.6112C13.5957 17.2807 14.571 17.5669 15.474 17.433C16.304 17.315 17.0591 16.7927 17.4779 16.0694C18.0363 15.148 17.9449 13.8592 17.219 13.0553C16.54 12.3052 15.2182 12.3198 14.5546 13.0813C14.0323 13.6308 14.0152 14.6023 14.5603 15.1403C14.7811 15.3606 15.1656 15.4938 15.4429 15.3041C15.6219 15.1753 15.6047 14.8999 15.4606 14.7507L15.4521 14.7404C15.2675 14.5175 15.0541 14.2599 15.1091 13.9499C15.1649 13.5406 15.6225 13.29 16.0077 13.377C16.3376 13.4284 16.601 13.6859 16.7234 13.988C17.0122 14.6752 16.8485 15.5268 16.33 16.0618C15.7805 16.6348 14.8248 16.7249 14.1618 16.3004C13.5728 15.938 13.2378 15.266 13.1344 14.5991C13.0259 13.7952 13.1801 12.9277 13.6788 12.2722C14 11.8572 14.4479 11.5165 14.9631 11.3933C15.0363 11.3989 15.11 11.4058 15.1839 11.4127C15.5469 11.4465 15.9163 11.481 16.2684 11.366C16.4677 11.2981 16.6618 11.0748 16.5603 10.8565C16.4506 10.6325 16.1809 10.5652 15.9562 10.5183C15.6675 10.461 15.3802 10.5191 15.0968 10.5765C15.0506 10.5858 15.0046 10.5951 14.9586 10.6039C14.7296 10.5253 14.6084 10.2848 14.5234 10.0728C15.1605 9.5969 15.79 9.07975 16.2227 8.40268C16.474 7.99593 16.6377 7.49654 16.5197 7.01873C16.4264 6.70208 16.1669 6.43303 15.8356 6.37275C15.2837 6.23379 14.7188 6.51235 14.3438 6.90768C13.741 7.5619 13.4351 8.46867 13.4631 9.35324C13.4598 9.42495 13.4688 9.49803 13.4777 9.57098C13.4916 9.68394 13.5054 9.7966 13.4738 9.90339C13.1308 10.18 12.757 10.4156 12.3838 10.6507C12.2656 10.7253 12.1474 10.7998 12.0302 10.8755C11.9447 10.9252 11.8604 10.9772 11.776 11.0292C11.5846 11.1472 11.3931 11.2653 11.1869 11.3565C11.192 11.0748 11.2066 10.7892 11.2872 10.5176C11.3632 10.4137 11.4461 10.3145 11.5292 10.2153C11.6797 10.0354 11.8305 9.8552 11.9401 9.64577C12.0645 9.42177 12.1819 9.13812 12.0525 8.89065C11.9338 8.70726 11.6711 8.72503 11.4991 8.81641C11.1324 9.00043 10.9312 9.38877 10.7834 9.753C10.7523 9.82419 10.7297 9.90059 10.7071 9.97708C10.6556 10.1508 10.6041 10.325 10.4534 10.4396C10.1513 10.7036 9.78711 10.9688 9.36704 10.9536C9.12718 10.9548 8.96727 10.7289 8.9165 10.517C9.58025 10.2593 10.1342 9.77832 10.5835 9.23521C10.9991 8.70092 11.3297 8.07017 11.3855 7.38613C11.4166 7.04157 11.2935 6.65132 10.9788 6.47111C10.5854 6.25669 10.0923 6.31761 9.70652 6.52067Z"
          fill="#3A73B8"/>
    <path fill-rule="evenodd" clip-rule="evenodd"
          d="M17.2247 2.89551C15.4264 1.85548 13.312 1.37132 11.2402 1.52932C9.17223 1.67273 7.15563 2.45513 5.52864 3.73819C4.12501 4.84041 3.00376 6.30114 2.31528 7.94907C1.57349 9.72074 1.3222 11.7012 1.62615 13.5997C1.93518 15.7312 2.94665 17.7459 4.44102 19.2936C5.85099 20.7575 7.69436 21.8014 9.6786 22.2437C11.5708 22.6675 13.5805 22.5678 15.4143 21.9333C17.4791 21.2315 19.3085 19.8596 20.5669 18.0785C21.8074 16.3416 22.4864 14.2165 22.4996 12.0838C22.5168 10.0431 21.9254 7.9992 20.8073 6.29162C19.9069 4.89498 18.6632 3.72487 17.2247 2.89551ZM7.68288 2.98308C8.79594 2.45069 10.0067 2.12136 11.2377 2.03315C13.1451 1.87769 15.0958 2.3003 16.7709 3.22363C19.6276 4.76305 21.6519 7.76575 21.9393 11.0064C22.1556 13.0033 21.7294 15.0611 20.7578 16.8176C19.7857 18.5867 18.2646 20.0519 16.4543 20.9479C15.0336 21.6643 13.4345 22.026 11.8431 21.991C9.66337 21.9726 7.50527 21.1928 5.79896 19.8393C4.33061 18.6743 3.19476 17.0955 2.5729 15.3257C1.60331 12.6041 1.88886 9.45803 3.36793 6.97186C4.361 5.24842 5.89217 3.84606 7.68288 2.98308Z"
          fill="#3A73B8"/>
</svg>
