<svg width="24" height="24" viewBox="0 0 24 24" fill="none" xmlns="http://www.w3.org/2000/svg">
    <path fill-rule="evenodd" clip-rule="evenodd"
          d="M12 22.5C17.799 22.5 22.5 17.799 22.5 12C22.5 6.20101 17.799 1.5 12 1.5C6.20101 1.5 1.5 6.20101 1.5 12C1.5 17.799 6.20101 22.5 12 22.5Z"
          fill="#2BDE73"/>
    <path fill-rule="evenodd" clip-rule="evenodd"
          d="M10.7678 10.0895L13.0356 6.90107C13.4644 6.30036 14.0178 6 14.6965 6C15.2501 6 15.729 6.19055 16.134 6.57178C16.5387 6.95301 16.741 7.40933 16.741 7.94074C16.741 8.33354 16.6341 8.68018 16.4197 8.98054L14.3749 11.8657L16.875 14.9416C17.1251 15.2478 17.25 15.606 17.25 16.016C17.25 16.5591 17.0538 17.0253 16.6608 17.4152C16.2679 17.8052 15.7914 18 15.2322 18C14.619 18 14.1518 17.8067 13.8303 17.4195L10.7678 13.7113V15.7561C10.7678 16.3396 10.6637 16.7929 10.4553 17.1164C10.0743 17.7054 9.52075 18 8.79466 18C8.13388 18 7.62177 17.7834 7.25886 17.3502C6.91953 16.9517 6.75 16.423 6.75 15.7648V8.18336C6.75 7.55951 6.92238 7.04559 7.2678 6.64121C7.63085 6.21383 8.13077 6 8.76769 6C9.37493 6 9.88081 6.21383 10.2856 6.64121C10.5118 6.87792 10.6546 7.11765 10.7141 7.36028C10.7499 7.51059 10.7678 7.79056 10.7678 8.20072V10.0895Z"
          fill="white"/>
</svg>
