<svg width="24" height="24" viewBox="0 0 24 24" fill="none" xmlns="http://www.w3.org/2000/svg">
    <circle opacity="0.852" cx="12" cy="12" r="10.5" fill="url(#paint0_radial_10259_261951)"/>
    <path d="M5.06378 19.9C5.04945 19.8895 5.03477 19.8762 5.02008 19.8601C4.74829 19.6128 4.30558 19.2228 3.84296 18.6333C3.44342 17.7667 3.6699 16.311 4.65314 14.2556C6.04042 11.3557 8.26009 8.4113 9.17015 7.36688C8.91119 7.07799 8.10915 6.2869 6.97268 5.43358C5.83622 4.58026 5.00828 4.49286 4.71972 4.54471C4.98608 4.25582 5.60759 3.71139 6.12921 3.34473C7.74513 2.54474 10.7313 3.89657 12.0113 4.66693V9.96683C8.74841 12.4779 5.72967 16.3556 5.11926 17.8667C4.65338 19.02 4.83755 19.6596 5.02008 19.8601C5.03518 19.8738 5.04976 19.8871 5.06378 19.9Z"
          fill="url(#paint1_linear_10259_261951)"/>
    <path d="M5.06378 19.8998C5.04945 19.8893 5.03477 19.876 5.02008 19.8599C4.74828 19.6126 4.30558 19.2226 3.84296 18.6332C3.44342 17.7665 3.6699 16.3108 4.65314 14.2555C6.26374 10.8887 9.17015 7.3667 9.17015 7.3667C9.17015 7.3667 9.68909 8.65535 10.8669 10.8887C7.83354 13.5776 5.72967 16.3554 5.11926 17.8665C4.65338 19.0198 4.83755 19.6594 5.02008 19.8599C5.03518 19.8736 5.04976 19.8869 5.06378 19.8998Z"
          fill="url(#paint2_linear_10259_261951)"/>
    <path d="M18.9587 19.9C18.973 19.8895 18.9877 19.8762 19.0024 19.8601C19.2742 19.6128 19.7169 19.2228 20.1795 18.6333C20.579 17.7667 20.3526 16.311 19.3693 14.2556C17.982 11.3557 15.7624 8.4113 14.8523 7.36688C15.1113 7.07799 15.9133 6.2869 17.0498 5.43358C18.1862 4.58026 19.0142 4.49286 19.3027 4.54471C19.0364 4.25582 18.4149 3.71139 17.8932 3.34473C16.2773 2.54474 13.2912 3.89657 12.0111 4.66693V9.96683C15.2741 12.4779 18.2928 16.3556 18.9032 17.8667C19.3691 19.02 19.1849 19.6596 19.0024 19.8601C18.9873 19.8738 18.9727 19.8871 18.9587 19.9Z"
          fill="url(#paint3_linear_10259_261951)"/>
    <path d="M18.9587 19.8998C18.973 19.8893 18.9877 19.876 19.0024 19.8599C19.2742 19.6126 19.7169 19.2226 20.1795 18.6332C20.579 17.7665 20.3526 16.3108 19.3693 14.2555C17.7587 10.8887 14.8523 7.3667 14.8523 7.3667C14.8523 7.3667 14.3334 8.65535 13.1556 10.8887C16.1889 13.5776 18.2928 16.3554 18.9032 17.8665C19.3691 19.0198 19.1849 19.6594 19.0024 19.8599C18.9873 19.8736 18.9727 19.8869 18.9587 19.8998Z"
          fill="url(#paint4_linear_10259_261951)"/>
    <defs>
        <radialGradient id="paint0_radial_10259_261951" cx="0" cy="0" r="1" gradientUnits="userSpaceOnUse"
                        gradientTransform="translate(12 10.875) rotate(90.0548) scale(11.625)">
            <stop stop-color="#FAFAFA"/>
            <stop offset="0.499976" stop-color="#EFEFEF"/>
            <stop offset="0.828794" stop-color="#C0BEC0"/>
            <stop offset="1" stop-color="#879288"/>
        </radialGradient>
        <linearGradient id="paint1_linear_10259_261951" x1="9.74465" y1="3.54442" x2="9.92243" y2="9.58886"
                        gradientUnits="userSpaceOnUse">
            <stop stop-color="#008B00"/>
            <stop offset="1" stop-color="#6CC329"/>
        </linearGradient>
        <linearGradient id="paint2_linear_10259_261951" x1="7.61132" y1="9.50003" x2="9.65576" y2="12.3"
                        gradientUnits="userSpaceOnUse">
            <stop stop-color="#008C00"/>
            <stop offset="1" stop-color="#48BF21"/>
        </linearGradient>
        <linearGradient id="paint3_linear_10259_261951" x1="14.2778" y1="3.54442" x2="14.1" y2="9.58886"
                        gradientUnits="userSpaceOnUse">
            <stop stop-color="#008B00"/>
            <stop offset="1" stop-color="#6CC329"/>
        </linearGradient>
        <linearGradient id="paint4_linear_10259_261951" x1="16.4111" y1="9.50003" x2="14.3667" y2="12.3"
                        gradientUnits="userSpaceOnUse">
            <stop stop-color="#008C00"/>
            <stop offset="1" stop-color="#48BF21"/>
        </linearGradient>
    </defs>
</svg>
