<svg width="24" height="24" viewBox="0 0 24 24" fill="none" xmlns="http://www.w3.org/2000/svg">
    <path d="M1.92774 15.0202C3.22579 19.3473 7.24116 22.5 11.9934 22.5C17.796 22.5 22.5001 17.7989 22.5001 12C22.5001 6.20102 17.796 1.5 11.9934 1.5C6.42524 1.5 1.86912 5.82879 1.50928 11.3024C1.50928 12.875 1.50928 13.5312 1.92774 15.0202Z"
          fill="url(#paint0_linear_10259_261936)"/>
    <path d="M11.453 9.42209L8.88194 13.1545C8.27587 13.127 7.66575 13.2984 7.15929 13.6313L1.51372 11.3087C1.51372 11.3087 1.38308 13.4564 1.92749 15.0571L5.9186 16.7029C6.11899 17.5978 6.73334 18.3829 7.63971 18.7605C9.12265 19.3797 10.8325 18.674 11.4494 17.1914C11.6099 16.8038 11.6848 16.3973 11.6739 15.9918L15.4428 13.3663C17.6443 13.3663 19.4336 11.5727 19.4336 9.37017C19.4336 7.16743 17.6443 5.37549 15.4428 5.37549C13.3165 5.37549 11.3338 7.23082 11.453 9.42209ZM10.8352 16.9336C10.3577 18.0791 9.04049 18.6226 7.89548 18.1458C7.36726 17.9259 6.96846 17.523 6.73839 17.0427L8.03753 17.5807C8.88194 17.9322 9.85072 17.5321 10.2017 16.6884C10.5538 15.8439 10.1544 14.8742 9.31042 14.5227L7.96745 13.9666C8.48566 13.7701 9.07476 13.7629 9.62516 13.9918C10.1801 14.2225 10.6106 14.6569 10.8388 15.2121C11.067 15.7673 11.0661 16.3802 10.8352 16.9336ZM15.4428 12.0324C13.9773 12.0324 12.7841 10.8382 12.7841 9.37017C12.7841 7.90333 13.9773 6.70876 15.4428 6.70876C16.9092 6.70876 18.1024 7.90333 18.1024 9.37017C18.1024 10.8382 16.9092 12.0324 15.4428 12.0324ZM13.4506 9.36612C13.4506 8.26177 14.3452 7.36607 15.4473 7.36607C16.5503 7.36607 17.445 8.26177 17.445 9.36612C17.445 10.4706 16.5503 11.3654 15.4473 11.3654C14.3452 11.3654 13.4506 10.4706 13.4506 9.36612Z"
          fill="white"/>
    <defs>
        <linearGradient id="paint0_linear_10259_261936" x1="12.0047" y1="1.5" x2="12.0047" y2="22.5"
                        gradientUnits="userSpaceOnUse">
            <stop stop-color="#111D2E"/>
            <stop offset="0.21248" stop-color="#051839"/>
            <stop offset="0.40695" stop-color="#0A1B48"/>
            <stop offset="0.5811" stop-color="#132E62"/>
            <stop offset="0.7376" stop-color="#144B7E"/>
            <stop offset="0.87279" stop-color="#136497"/>
            <stop offset="1" stop-color="#1387B8"/>
        </linearGradient>
    </defs>
</svg>
