<svg width="24" height="24" viewBox="0 0 24 24" fill="none" xmlns="http://www.w3.org/2000/svg">
    <path fill-rule="evenodd" clip-rule="evenodd"
          d="M22.5 12C22.5 17.799 17.799 22.5 12 22.5C6.20101 22.5 1.5 17.799 1.5 12C1.5 6.20101 6.20101 1.5 12 1.5C17.799 1.5 22.5 6.20101 22.5 12Z"
          fill="#EB4823"/>
    <path fill-rule="evenodd" clip-rule="evenodd"
          d="M12 6.75C10.3334 6.75 8.98235 8.11364 8.98235 9.7958V14.124C8.98235 14.5225 8.6624 14.8454 8.26765 14.8454C7.87292 14.8454 7.55294 14.5225 7.55294 14.124V12.2004H5.25V14.2042C5.25 15.8864 6.60105 17.25 8.26765 17.25C9.93426 17.25 11.2853 15.8864 11.2853 14.2042V9.7958C11.2853 9.39736 11.6052 9.07443 12 9.07443C12.3948 9.07443 12.7147 9.39736 12.7147 9.7958V10.6775L13.7811 11.2613L15.0176 10.6775V9.7958C15.0176 8.11364 13.6666 6.75 12 6.75ZM12.7147 12.2405V14.2042C12.7147 15.8864 14.0657 17.25 15.7324 17.25C17.399 17.25 18.75 15.8864 18.75 14.2042V12.2805H16.4471V14.2042C16.4471 14.6026 16.1271 14.9256 15.7324 14.9256C15.3376 14.9256 15.0176 14.6026 15.0176 14.2042V12.2405L13.6676 12.6813L12.7147 12.2405Z"
          fill="white"/>
</svg>
