<svg width="24" height="24" viewBox="0 0 24 24" fill="none" xmlns="http://www.w3.org/2000/svg">
    <path d="M12 1.5C6.20859 1.5 1.5 6.20859 1.5 12C1.5 17.7914 6.20859 22.5 12 22.5C17.7914 22.5 22.5 17.7914 22.5 12C22.5 6.20859 17.7914 1.5 12 1.5Z"
          fill="#00AF87"/>
    <path d="M7.5 12.75C7.5 12.3068 7.84091 12 8.25 12C8.65909 12 9 12.3068 9 12.75C9 13.1932 8.69318 13.5 8.25 13.5C7.80682 13.5 7.5 13.1591 7.5 12.75Z"
          fill="white"/>
    <path fill-rule="evenodd" clip-rule="evenodd"
          d="M8.25 10.5C7.02273 10.5 6 11.4205 6 12.75C6 13.9773 6.92045 15 8.25 15C9.57955 15 10.5 14.0795 10.5 12.75C10.5 11.4205 9.47727 10.5 8.25 10.5ZM8.25 11.25C7.43182 11.25 6.75 11.8636 6.75 12.75C6.75 13.5682 7.36364 14.25 8.25 14.25C9.13636 14.25 9.75 13.6364 9.75 12.75C9.75 11.8636 9.06818 11.25 8.25 11.25Z"
          fill="white"/>
    <path d="M16.5 12.75C16.5 12.3068 16.1591 12 15.75 12C15.3409 12 15 12.3068 15 12.75C15 13.1932 15.3068 13.5 15.75 13.5C16.1932 13.5 16.5 13.1591 16.5 12.75Z"
          fill="white"/>
    <path fill-rule="evenodd" clip-rule="evenodd"
          d="M15.75 10.5C16.9773 10.5 18 11.4205 18 12.75C18 13.9773 17.0795 15 15.75 15C14.4205 15 13.5 14.0795 13.5 12.75C13.5 11.4205 14.5227 10.5 15.75 10.5ZM15.75 11.25C16.5682 11.25 17.25 11.8636 17.25 12.75C17.25 13.5682 16.6364 14.25 15.75 14.25C14.8636 14.25 14.25 13.6364 14.25 12.75C14.25 11.8636 14.9318 11.25 15.75 11.25Z"
          fill="white"/>
    <path fill-rule="evenodd" clip-rule="evenodd"
          d="M6.75 8.98785C8.13833 8.10952 10.0733 7.5 12 7.5C13.9267 7.5 15.8617 8.10952 17.25 8.98785L19.5 9L18.7008 10.4895C19.1542 11.0845 19.5 11.9283 19.5 12.75C19.5 14.8183 17.7375 16.5 15.7258 16.5C14.5358 16.5 13.4583 15.8217 12.75 15L12 16.5L11.25 15C10.5417 15.8217 9.46415 16.5 8.27415 16.5C6.26249 16.5 4.5 14.8183 4.5 12.75C4.5 11.9283 4.84582 11.0845 5.29915 10.4895L4.5 9L6.75 8.98785ZM12 12.375C12.1417 10.4767 13.7992 9.02833 15.7258 9C14.6775 8.54667 13.3317 8.25 12 8.25C10.6683 8.25 9.32249 8.54667 8.27415 9C10.2008 9.02833 11.8583 10.4767 12 12.375ZM8.27415 15.7633C6.63082 15.7633 5.25 14.3933 5.25 12.75C5.25 11.1067 6.63082 9.72452 8.27415 9.72452C9.91749 9.72452 11.2492 11.1067 11.2492 12.75C11.2492 14.365 9.91749 15.7633 8.27415 15.7633ZM15.7258 15.7633C17.3692 15.7633 18.75 14.3933 18.75 12.75C18.75 11.1067 17.3692 9.72452 15.7258 9.72452C14.0825 9.72452 12.7508 11.1067 12.7508 12.75C12.7508 14.365 14.0825 15.7633 15.7258 15.7633Z"
          fill="white"/>
</svg>
