<svg width="92" height="24" viewBox="0 0 92 24" fill="none" xmlns="http://www.w3.org/2000/svg">
<g clip-path="url(#clip0_1358_224760)">
<path d="M10.0282 0.00866699H0V23.9913L10.0282 0.00866699Z" fill="black"/>
<path d="M17.084 0.00866699H27.0991V23.9913L17.084 0.00866699Z" fill="black"/>
<path d="M13.556 8.84784L19.9388 23.9914H15.7511L13.8435 19.17H9.17236L13.556 8.84784Z" fill="black"/>
<path d="M43.4593 15.2601L44.6418 18.6507C44.681 18.7357 44.7398 18.7749 44.8443 18.7749H47.1178C47.2419 18.7749 47.2615 18.7161 47.2419 18.5919L42.5447 5.54551C42.5251 5.44099 42.5055 5.42139 42.4009 5.42139H39.5787C39.5003 5.42139 39.4546 5.48018 39.4546 5.56511C39.4154 6.25108 39.3566 6.46014 39.2716 6.66266L35.084 18.5723C35.0644 18.7161 35.1101 18.7749 35.2277 18.7749H37.2595C37.3836 18.7749 37.4424 18.7357 37.4881 18.6115L38.6053 15.2601H43.4593ZM39.252 13.0454C39.8661 11.19 40.6762 8.81202 41.0029 7.45315H41.0225C41.4275 8.87735 42.3814 11.6996 42.8125 13.0454H39.252Z" fill="black"/>
<path d="M53.2804 18.9774C54.502 18.9774 55.8021 18.7553 57.1218 18.1869C57.2263 18.1477 57.2459 18.102 57.2459 18.004C57.2067 17.6381 57.161 17.109 57.161 16.7039V4.42186C57.161 4.34346 57.161 4.30426 57.063 4.30426H54.8483C54.7634 4.30426 54.7242 4.34346 54.7242 4.44799V8.60952C54.3779 8.57032 54.1362 8.55072 53.8487 8.55072C50.2752 8.55072 48.0801 10.9091 48.0801 13.8555C48.0801 17.2723 50.334 18.9774 53.2804 18.9774ZM54.7241 16.7039C54.3583 16.8215 53.9533 16.8672 53.5417 16.8672C51.9215 16.8672 50.5953 15.9526 50.5953 13.7314C50.5953 11.765 51.9607 10.6021 53.7703 10.6021C54.1362 10.6021 54.4563 10.6413 54.7241 10.7458V16.7039Z" fill="black"/>
<path d="M64.3115 8.55072C61.2606 8.55072 59.3726 10.8895 59.3726 13.7771C59.3726 16.3577 60.8752 18.9774 64.2658 18.9774C67.1338 18.9774 69.1459 16.8672 69.1459 13.7118C69.1459 10.9287 67.4408 8.55072 64.3115 8.55072ZM64.1874 10.6021C65.9121 10.6021 66.6438 12.0851 66.6438 13.7771C66.6438 15.8677 65.5659 16.9064 64.3115 16.9064C62.7632 16.9064 61.8486 15.6064 61.8486 13.7314C61.8486 11.8042 62.822 10.6021 64.1874 10.6021Z" fill="black"/>
<path d="M71.4357 4.30426C71.3508 4.30426 71.292 4.34346 71.292 4.44799V18.3502C71.292 18.409 71.3508 18.5136 71.4357 18.5332C72.4091 18.8337 73.4283 18.9774 74.4801 18.9774C77.4918 18.9774 80.4186 17.109 80.4186 13.3459C80.4186 10.6217 78.5502 8.55072 75.6234 8.55072C74.9505 8.55072 74.3233 8.65525 73.7745 8.83817L73.7484 4.46759C73.7484 4.32386 73.7092 4.30426 73.5655 4.30426H71.4357ZM77.9165 13.5942C77.9165 15.8481 76.3747 16.9064 74.7088 16.9064C74.3625 16.9064 74.0555 16.8868 73.7745 16.8019V10.8699C74.0947 10.7458 74.4801 10.6413 75.1922 10.6413C76.7993 10.6413 77.9165 11.6604 77.9165 13.5942Z" fill="black"/>
<path d="M88.6835 14.3259C89.6765 14.3259 90.4931 14.3063 90.774 14.241C90.8786 14.2214 90.9178 14.1822 90.9374 14.0972C90.9962 13.8751 91.0223 13.4113 91.0223 12.8429C91.0223 10.9091 89.8594 8.55072 86.8542 8.55072C83.7837 8.55072 82.0786 11.0529 82.0786 13.8751C82.0786 16.3773 83.3983 18.9774 87.096 18.9774C88.481 18.9774 89.376 18.7553 90.1469 18.3894C90.2253 18.3502 90.2645 18.2849 90.2645 18.1673V16.4753C90.2645 16.3773 90.2057 16.3577 90.1469 16.3969C89.376 16.7235 88.5398 16.8868 87.6251 16.8868C85.5542 16.8868 84.6134 15.7436 84.5546 14.3259H88.6835ZM84.5546 12.5751C84.7179 11.582 85.3451 10.5041 86.7497 10.5041C88.298 10.5041 88.7031 11.8042 88.7031 12.3921C88.7031 12.4117 88.7031 12.4967 88.7031 12.5555C88.6182 12.5751 88.3568 12.5751 87.5859 12.5751H84.5546Z" fill="black"/>
</g>
<defs>
<clipPath id="clip0_1358_224760">
<rect width="91.0222" height="24" fill="white"/>
</clipPath>
</defs>
</svg>
