<svg width="96" height="24" viewBox="0 0 96 24" fill="none" xmlns="http://www.w3.org/2000/svg">
<g clip-path="url(#clip0_1358_224761)">
<path d="M1.62724 9.34961H10.8599V11.9374L7.37942 12.2087C1.77313 12.6261 0.0224609 14.1079 0.0224609 18.2818V19.1166C0.0224609 22.1635 2.14827 24 5.44118 24C8.0255 24 9.52608 23.3948 11.3601 21.5166H11.6727V23.4992H15.3825V5.28003H1.62724V9.34961ZM10.8599 18.1357C9.71366 19.2835 8.00467 20.0348 6.58747 20.0348C5.06606 20.0348 4.41996 19.4713 4.46165 18.1983C4.50333 16.4453 5.14939 16.0279 8.08805 15.7566L10.8807 15.4853V18.1357H10.8599Z" fill="black"/>
<path fill-rule="evenodd" clip-rule="evenodd" d="M23.3096 5.42539H30.4743V9.11131H34.3918V23.503H29.8248V9.48403H23.3096V23.503H18.7427V0H23.3096V5.42539ZM90.0121 12.7144L87.2468 12.4452C85.7176 12.3002 85.3403 11.9068 85.3403 10.7058C85.3403 9.33907 85.8851 9.00778 88.022 9.00778C89.9281 9.00778 90.4729 9.31838 90.7451 10.6022H95.0401C94.935 6.27437 93.5732 5.1769 88.2524 5.1769C82.4286 5.1769 80.9622 6.27437 80.9622 10.7058C80.9622 14.7645 82.0302 15.8619 86.367 16.2761L88.6292 16.4832C90.6616 16.6695 91.1641 17.0423 91.1641 18.264C91.1641 19.7342 90.5569 20.1277 88.0638 20.1277C85.8851 20.1277 85.2985 19.7964 85.1939 18.3883H80.8571C80.9622 22.8611 82.3446 24 87.8752 24C94.0134 24 95.5427 22.7783 95.5427 17.8499C95.5427 14.1846 94.4324 13.1286 90.0121 12.7144ZM66.5281 13.0457C66.5281 7.20619 64.4958 5.15616 58.672 5.15616C52.911 5.15616 50.6694 7.80672 50.6694 14.4124C50.6694 21.6186 52.6595 24 59.1121 24C63.7417 24 65.7112 22.5919 66.3601 18.6575H61.9609C61.4584 19.8792 60.9347 20.1484 59.0492 20.1484C56.2211 20.1484 55.4876 19.3615 55.3201 15.9862H66.2555C66.423 14.9922 66.507 14.019 66.5281 13.0457ZM55.3412 12.4038C55.383 9.85675 56.4092 8.92493 58.8606 8.92493C61.2068 8.92493 62.1496 9.87749 62.2336 12.4038H55.3412ZM69.1883 6.23294V23.5237H73.7555V9.31838H79.2443V5.44608H73.7555V4.94909C73.7972 3.89301 74.0699 3.5824 74.9497 3.5824H79.9355V0.0207088H74.5724C70.9062 1.26243e-06 69.1883 1.11821 69.1883 6.23294ZM42.2897 23.503H37.7227V5.42539H49.0772V9.67042H42.2897V23.503Z" fill="black"/>
</g>
<defs>
<clipPath id="clip0_1358_224761">
<rect width="95.52" height="24" fill="white" transform="translate(0.0224609)"/>
</clipPath>
</defs>
</svg>
