<svg width="114" height="24" viewBox="0 0 114 24" fill="none" xmlns="http://www.w3.org/2000/svg">
<g clip-path="url(#clip0_1358_224762)">
<path d="M45.3497 12.571L43.4049 7.39451C43.3869 7.34787 43.3552 7.30776 43.314 7.27947C43.2728 7.25119 43.224 7.23604 43.174 7.23604C43.124 7.23604 43.0752 7.25119 43.034 7.27947C42.9927 7.30776 42.9611 7.34787 42.9431 7.39451L40.9983 12.5719C40.9848 12.6086 40.9805 12.6481 40.9857 12.6868C40.991 12.7256 41.0056 12.7625 41.0284 12.7943C41.0511 12.8262 41.0813 12.8519 41.1164 12.8695C41.1514 12.8869 41.1901 12.8955 41.2292 12.8946H45.1354C45.1935 12.8953 45.2497 12.8739 45.2928 12.8347C45.3357 12.7956 45.3623 12.7415 45.3671 12.6836C45.3707 12.6455 45.3648 12.6071 45.3497 12.5719V12.571ZM46.2559 15.4759H40.0921C40.0418 15.4762 39.9927 15.4918 39.9515 15.5206C39.9103 15.5494 39.8788 15.5902 39.8612 15.6372L38.6413 18.8665C38.6237 18.9135 38.5924 18.954 38.5513 18.9828C38.5103 19.0117 38.4615 19.0274 38.4112 19.0279H35.7389C35.6981 19.0284 35.6578 19.0188 35.6217 19C35.5855 18.981 35.5546 18.9535 35.5318 18.9196C35.509 18.8858 35.4949 18.8468 35.4909 18.8062C35.4869 18.7655 35.4931 18.7246 35.5089 18.6869L41.6562 3.59754C41.6746 3.55189 41.7068 3.51315 41.7484 3.48686C41.79 3.46057 41.8388 3.44804 41.8879 3.45106H44.4418C44.4903 3.45136 44.5378 3.46525 44.5787 3.49114C44.6197 3.51704 44.6525 3.5539 44.6736 3.59754L50.8201 18.6869C50.8359 18.7246 50.8421 18.7658 50.838 18.8065C50.834 18.8472 50.8198 18.8863 50.797 18.9202C50.774 18.954 50.7431 18.9818 50.7068 19.0007C50.6705 19.0197 50.6301 19.0293 50.5892 19.0287H47.921C47.8706 19.0283 47.8215 19.0126 47.7803 18.9836C47.7391 18.9546 47.7077 18.9138 47.6901 18.8665L46.4703 15.6372C46.4587 15.5897 46.431 15.5475 46.392 15.518C46.3529 15.4884 46.3049 15.4733 46.2559 15.475V15.4759ZM52.0904 8.74097H54.382C54.4467 8.74222 54.5084 8.76829 54.5545 8.81372C54.6005 8.85907 54.6274 8.92048 54.6294 8.98511V18.7862C54.6274 18.8508 54.6005 18.9119 54.5544 18.9571C54.5083 19.0022 54.4465 19.0279 54.382 19.0287H52.0912C52.0266 19.0281 51.9647 19.0025 51.9184 18.9574C51.8722 18.9122 51.8451 18.8508 51.843 18.7862V8.98511C51.8426 8.95259 51.8488 8.9204 51.8612 8.89035C51.8737 8.86031 51.892 8.83309 51.9152 8.81024C51.9384 8.78749 51.9659 8.76961 51.9961 8.75769C52.0264 8.74577 52.0588 8.74006 52.0912 8.74097H52.0904ZM62.9698 11.1261C62.9679 11.1909 62.9412 11.2524 62.8951 11.298C62.8491 11.3436 62.7873 11.3698 62.7224 11.371H62.6562C61.5191 11.371 60.6948 11.6292 60.1676 12.1655C59.6405 12.7018 59.3765 13.5774 59.3765 14.8088V18.7688C59.3744 18.8334 59.3477 18.8946 59.3018 18.9401C59.256 18.9854 59.1944 19.0116 59.1298 19.013H56.8705C56.8061 19.0116 56.7445 18.9854 56.6987 18.9401C56.6528 18.8946 56.6261 18.8334 56.6239 18.7688V8.98511C56.6261 8.92048 56.6529 8.85907 56.699 8.81372C56.745 8.76829 56.8067 8.74222 56.8714 8.74097H59.1125C59.1774 8.74205 59.2393 8.76795 59.2855 8.81339C59.3317 8.85882 59.3587 8.92031 59.3607 8.98511V10.9159H59.4096C59.6385 10.1825 60.0871 9.53711 60.6948 9.06704C61.3301 8.61899 62.0945 8.39107 62.8714 8.41822H62.9864V11.1269H62.9698V11.1261ZM69.2165 11.0301C69.1523 11.0312 69.0908 11.0567 69.045 11.1017C68.9991 11.1467 68.9722 11.2075 68.9698 11.2717V15.3451C68.9392 15.6637 69.027 15.9815 69.2165 16.2389C69.382 16.416 69.6617 16.4971 70.0738 16.4971H70.3047C70.3693 16.4986 70.4308 16.5247 70.4767 16.5701C70.5226 16.6155 70.5493 16.6768 70.5514 16.7412V18.7854C70.5493 18.8498 70.5225 18.9108 70.4766 18.956C70.4307 19.0011 70.3691 19.0269 70.3047 19.0279H69.3332C68.3268 19.0279 67.553 18.768 67.0093 18.2648C66.4647 17.7468 66.2016 16.9995 66.2016 15.9782V11.2717C66.1993 11.2073 66.1722 11.1462 66.1259 11.1012C66.0797 11.0561 66.0179 11.0307 65.9533 11.0301H64.5199C64.4553 11.0287 64.3936 11.0024 64.3478 10.9568C64.3018 10.9112 64.2752 10.8497 64.2733 10.7851V8.98511C64.2752 8.92056 64.3019 8.85915 64.3478 8.81372C64.3937 8.76829 64.4554 8.74222 64.5199 8.74097H65.9541C66.0187 8.74015 66.0804 8.71449 66.1265 8.66939C66.1726 8.6242 66.1995 8.56304 66.2016 8.49849V4.86292C66.2037 4.79844 66.2306 4.73725 66.2767 4.69208C66.3228 4.64691 66.3846 4.62126 66.449 4.62044H68.7398C68.8043 4.62126 68.8661 4.64691 68.9122 4.69208C68.9583 4.73725 68.9852 4.79844 68.9872 4.86292V8.49849C68.9894 8.56304 69.0163 8.6242 69.0624 8.66939C69.1085 8.71449 69.1702 8.74015 69.2347 8.74097H70.8824C70.9471 8.74222 71.0089 8.76829 71.0549 8.81372C71.101 8.85907 71.1278 8.92048 71.1298 8.98511V10.7851C71.1279 10.8499 71.1012 10.9115 71.0551 10.9571C71.0091 11.0027 70.9473 11.0288 70.8824 11.0301H69.2165ZM79.683 15.9625C79.9465 15.6837 80.151 15.3545 80.2841 14.9947C80.4172 14.6349 80.4762 14.2519 80.4576 13.8687C80.4723 13.4859 80.4115 13.104 80.2786 12.7448C80.1457 12.3855 79.9433 12.056 79.683 11.7749C79.125 11.264 78.3958 10.9807 77.6392 10.9807C76.8827 10.9807 76.1535 11.264 75.5955 11.7749C75.332 12.0537 75.1275 12.3829 74.9944 12.7427C74.8614 13.1025 74.8023 13.4855 74.8209 13.8687C74.8062 14.2515 74.8671 14.6334 75 14.9926C75.1329 15.3519 75.3352 15.6814 75.5955 15.9625C75.863 16.2288 76.1827 16.4369 76.5345 16.5736C76.8863 16.7103 77.2626 16.7728 77.6396 16.757C78.0174 16.778 78.3951 16.718 78.7477 16.581C79.1003 16.444 79.4194 16.2331 79.6838 15.9625H79.683ZM74.4079 18.7051C73.634 18.2663 73.0043 17.6119 72.5955 16.8215C72.1614 15.8976 71.9362 14.8892 71.9362 13.8683C71.9362 12.8474 72.1614 11.839 72.5955 10.915C73.0092 10.1285 73.6377 9.47562 74.4079 9.03228C75.182 8.59673 76.0572 8.37295 76.9453 8.38346C77.6715 8.36566 78.3908 8.52771 79.0391 8.85518C79.6122 9.15866 80.0911 9.6135 80.4236 10.1702H80.4733V8.96691C80.4756 8.9026 80.5025 8.84169 80.5484 8.79659C80.5942 8.75148 80.6556 8.72566 80.7199 8.72442H82.9784C83.0429 8.7255 83.1045 8.75115 83.1505 8.79634C83.1966 8.84144 83.2235 8.90252 83.2258 8.96691V18.7672C83.2239 18.8321 83.1971 18.8938 83.1509 18.9395C83.1046 18.9851 83.0425 19.0112 82.9776 19.0121H80.7216C80.6568 19.0109 80.595 18.9848 80.5489 18.9392C80.5028 18.8936 80.476 18.832 80.4741 18.7672V17.5672H80.4245C80.0919 18.1245 79.6128 18.5796 79.0391 18.883C78.3903 19.2093 77.6713 19.371 76.9453 19.3539C76.0572 19.3645 75.182 19.1408 74.4079 18.7051ZM92.6381 15.9625C92.9012 15.6837 93.1057 15.3545 93.2389 14.9946C93.3721 14.6349 93.4309 14.2519 93.4127 13.8687C93.4276 13.4859 93.3663 13.104 93.2339 12.7448C93.1007 12.3855 92.8979 12.056 92.6381 11.7749C92.0803 11.2638 91.3504 10.9803 90.5939 10.9803C89.8375 10.9803 89.1076 11.2638 88.5498 11.7749C88.2866 12.0539 88.0822 12.3831 87.949 12.7428C87.8166 13.1027 87.757 13.4856 87.776 13.8687C87.7611 14.2515 87.8223 14.6334 87.9548 14.9926C88.088 15.3519 88.2899 15.6814 88.5506 15.9625C88.8179 16.2288 89.1374 16.4369 89.4899 16.5736C89.8417 16.7103 90.2174 16.7728 90.5948 16.757C90.9721 16.7779 91.3503 16.7178 91.7029 16.5809C92.0555 16.4438 92.3741 16.233 92.6389 15.9625H92.6381ZM89.2102 18.8822C88.6367 18.5787 88.1575 18.1235 87.8248 17.5664H87.7752V18.768C87.7727 18.8326 87.7462 18.8938 87.7007 18.9392C87.6544 18.9846 87.5931 19.0107 87.5286 19.0121H85.237C85.1724 19.0107 85.1112 18.9846 85.0648 18.9392C85.0193 18.8938 84.992 18.8326 84.9903 18.768V3.67782C84.992 3.61339 85.0193 3.55223 85.0648 3.50696C85.1112 3.46168 85.1724 3.43575 85.237 3.43451H87.5286C87.5931 3.43553 87.6544 3.46126 87.7007 3.50638C87.747 3.5515 87.7735 3.61257 87.776 3.67699V10.1851H87.8257C88.1584 9.62864 88.6375 9.17364 89.2102 8.86925C89.859 8.54318 90.5774 8.38147 91.3032 8.39835C92.1912 8.38768 93.0668 8.61237 93.8406 9.04966C94.6143 9.48762 95.2441 10.1412 95.653 10.9308C96.1164 11.8443 96.3432 12.8596 96.3134 13.8836C96.3341 14.9069 96.1081 15.92 95.6538 16.8372C95.24 17.6243 94.611 18.2772 93.8414 18.72C93.0668 19.1556 92.1912 19.3795 91.3032 19.3688C90.5766 19.3748 89.8582 19.2075 89.2094 18.8806L89.2102 18.8822ZM100.171 19.0138H97.8808C97.8163 19.0128 97.7542 18.9867 97.7079 18.9411C97.6615 18.8954 97.635 18.8337 97.6334 18.7688V3.67865C97.6359 3.61394 97.6624 3.55254 97.7087 3.50722C97.755 3.4619 97.8171 3.43616 97.8817 3.43534H100.172C100.236 3.43677 100.297 3.46265 100.343 3.5077C100.388 3.55276 100.416 3.61361 100.418 3.67782V18.768C100.419 18.8156 100.406 18.8623 100.38 18.9022C100.354 18.9422 100.317 18.9736 100.273 18.9923C100.241 19.0063 100.206 19.0131 100.172 19.0121V19.0138H100.171ZM105.561 11.1112C105.162 11.4296 104.888 11.8777 104.786 12.3774C104.779 12.4135 104.78 12.4507 104.79 12.4863C104.799 12.5219 104.816 12.555 104.84 12.583C104.863 12.6111 104.893 12.6334 104.927 12.6484C104.96 12.6634 104.997 12.6706 105.034 12.6695H109.385C109.42 12.6697 109.455 12.6623 109.487 12.6481C109.519 12.6339 109.547 12.613 109.57 12.5869C109.594 12.5608 109.612 12.53 109.623 12.4966C109.633 12.4632 109.637 12.428 109.633 12.3931C109.566 11.9081 109.326 11.4637 108.956 11.1435C108.479 10.7644 107.883 10.5683 107.275 10.5906C106.662 10.5741 106.061 10.7561 105.561 11.1104L105.56 11.1112H105.561ZM111.132 9.8458C112.022 10.8017 112.467 12.1531 112.466 13.901V14.1948C112.464 14.2592 112.437 14.3203 112.391 14.3654C112.345 14.4105 112.283 14.4363 112.219 14.4372H104.952C104.915 14.438 104.88 14.4464 104.847 14.4618C104.814 14.4773 104.785 14.4996 104.762 14.527C104.738 14.5546 104.721 14.5868 104.711 14.6216C104.701 14.6563 104.698 14.6927 104.703 14.7286C104.798 15.3363 105.108 15.8897 105.578 16.2869C106.155 16.7382 106.874 16.9681 107.606 16.9349C108.698 16.9197 109.743 16.484 110.523 15.7184C110.549 15.6948 110.579 15.6773 110.612 15.667C110.646 15.6566 110.681 15.6537 110.716 15.6584C110.751 15.6632 110.784 15.6754 110.813 15.6944C110.842 15.7133 110.867 15.7385 110.886 15.768L111.99 17.3412C112.021 17.3915 112.035 17.4507 112.028 17.5096C112.023 17.5684 111.997 17.6237 111.956 17.6665C111.409 18.1336 110.805 18.5316 110.161 18.8516C109.357 19.2099 108.485 19.387 107.605 19.3705C106.575 19.3939 105.554 19.1592 104.638 18.6877C103.812 18.2538 103.13 17.5887 102.677 16.7735C102.197 15.8994 101.953 14.9154 101.968 13.9184C101.95 12.9196 102.183 11.9323 102.644 11.0466C103.077 10.2342 103.735 9.56393 104.54 9.1167C105.414 8.64009 106.396 8.39935 107.391 8.41822C109.006 8.39918 110.242 8.88663 111.132 9.84497V9.8458ZM54.9257 5.10872C54.9304 5.44123 54.8365 5.76768 54.6557 6.04679C54.4748 6.3259 54.2154 6.54514 53.91 6.67679C53.6046 6.80844 53.2671 6.8466 52.94 6.78644C52.6129 6.72627 52.311 6.57049 52.0725 6.33877C51.834 6.10707 51.6695 5.80983 51.5999 5.48466C51.5302 5.15948 51.5586 4.82096 51.6813 4.51189C51.8041 4.20281 52.0157 3.93707 52.2894 3.74825C52.5632 3.55942 52.8868 3.45601 53.2192 3.45106H53.2275C53.6712 3.44901 54.0978 3.62139 54.4155 3.93101C54.7331 4.24064 54.9164 4.66272 54.9257 5.10623V5.10789V5.10872Z" fill="black"/>
<path d="M13.6418 0.294393L3.24412 4.59676C2.66606 4.83622 2.67189 5.6575 3.25389 5.88813L13.6949 10.0286C14.6123 10.3924 15.634 10.3924 16.5513 10.0286L26.9925 5.88813C27.5742 5.6575 27.5803 4.83622 27.002 4.59692L16.6046 0.294393C15.656 -0.0981308 14.5904 -0.0981308 13.6418 0.294393Z" fill="black"/>
<path d="M16.0493 12.2894V22.6331C16.0493 23.1248 16.5454 23.4619 17.0027 23.2806L28.6372 18.7646C28.767 18.7132 28.8783 18.624 28.9567 18.5085C29.0351 18.393 29.077 18.2566 29.077 18.1171V7.77358C29.077 7.2816 28.581 6.94473 28.1236 7.12601L16.4891 11.642C16.3593 11.6935 16.2481 11.7827 16.1696 11.8982C16.0913 12.0136 16.0493 12.1499 16.0493 12.2896" fill="black"/>
<path d="M13.333 12.823L9.88011 14.4902L9.52955 14.6597L2.24072 18.1521C1.77884 18.375 1.18896 18.0383 1.18896 17.525V7.81681C1.18896 7.63111 1.28418 7.47079 1.41186 7.35021C1.46424 7.29804 1.52367 7.25347 1.58841 7.21779C1.76245 7.11328 2.01088 7.08538 2.22211 7.16892L13.275 11.5484C13.8368 11.7712 13.8809 12.5585 13.333 12.8232" fill="black"/>
<path d="M13.3327 12.823L9.87983 14.4902L1.41162 7.35005C1.46402 7.29794 1.52344 7.25342 1.58818 7.21779C1.7622 7.11328 2.01064 7.08538 2.22188 7.16892L13.2748 11.5484C13.8365 11.7712 13.8806 12.5585 13.3327 12.8232" fill="black" fill-opacity="0.25"/>
</g>
<defs>
<clipPath id="clip0_1358_224762">
<rect width="112.552" height="24" fill="white" transform="translate(0.541992)"/>
</clipPath>
</defs>
</svg>
