<svg width="123" height="24" viewBox="0 0 123 24" fill="none" xmlns="http://www.w3.org/2000/svg">
<g clip-path="url(#clip0_1358_224763)">
<path fill-rule="evenodd" clip-rule="evenodd" d="M118.133 18.2209C118.206 19.0557 118.873 20.1182 120.031 20.1182H120.707C120.97 20.1182 121.185 19.9032 121.185 19.6406V4.75519H121.182C121.169 4.50441 120.961 4.30357 120.707 4.30357H118.61C118.356 4.30357 118.149 4.50441 118.136 4.75519H118.133V5.96472C116.847 4.3808 114.822 3.72339 112.79 3.72339C108.173 3.72339 104.429 7.46975 104.429 12.0913C104.429 16.7133 108.173 20.4597 112.79 20.4597V20.4601C114.822 20.4601 117.036 19.6713 118.133 18.2191V18.2209ZM112.798 17.531C109.861 17.531 107.481 15.0958 107.481 12.0913C107.481 9.08748 109.861 6.65216 112.798 6.65216C115.736 6.65216 118.116 9.08748 118.116 12.0913C118.116 15.0958 115.736 17.531 112.798 17.531Z" fill="black"/>
<path fill-rule="evenodd" clip-rule="evenodd" d="M101.778 18.733L101.777 11.0304H101.777C101.777 6.68847 99.0398 3.75934 94.6752 3.75934C92.5917 3.75934 90.8837 4.96507 90.2805 6.00081C90.1501 5.19094 89.7205 4.33965 88.3882 4.33965H87.7091C87.4464 4.33965 87.2319 4.55485 87.2319 4.81744V18.2583C87.2319 18.2588 87.2319 18.2598 87.2319 18.2604V19.7042H87.2345C87.2483 19.9546 87.4557 20.1557 87.7093 20.1557H89.8066C89.8387 20.1557 89.8702 20.1518 89.9006 20.146C89.9145 20.1432 89.9274 20.1378 89.9409 20.1339C89.9565 20.1292 89.9727 20.1254 89.9876 20.1193C90.0062 20.1116 90.0231 20.1012 90.0405 20.0915C90.049 20.0863 90.0579 20.0827 90.0661 20.0772C90.0871 20.0637 90.1063 20.0474 90.1248 20.0309C90.1279 20.0278 90.1315 20.0257 90.1345 20.0229C90.1553 20.0027 90.1744 19.9805 90.1912 19.9573C90.1915 19.957 90.1915 19.957 90.1915 19.957C90.2439 19.8849 90.2758 19.798 90.281 19.7042H90.2838V10.911C90.2838 8.57905 92.1729 6.68846 94.5032 6.68846C96.8334 6.68846 98.7226 8.57905 98.7226 10.911L98.7244 18.261L98.725 18.2583C98.725 18.2649 98.726 18.2716 98.726 18.2785V19.7042H98.7288C98.7427 19.9546 98.9498 20.1557 99.2034 20.1557H101.301C101.333 20.1557 101.364 20.1518 101.395 20.146C101.407 20.1437 101.419 20.1386 101.431 20.1353C101.448 20.1302 101.466 20.126 101.482 20.1193C101.499 20.1122 101.515 20.1023 101.531 20.0931C101.541 20.0876 101.551 20.0835 101.561 20.0772C101.58 20.0645 101.598 20.0491 101.615 20.0339C101.62 20.0298 101.625 20.0267 101.629 20.0226C101.649 20.0034 101.667 19.9826 101.683 19.9609C101.684 19.9593 101.685 19.958 101.686 19.9564C101.738 19.8849 101.77 19.7986 101.775 19.7054C101.775 19.7048 101.775 19.7042 101.775 19.7042H101.778V18.7332L101.778 18.733Z" fill="black"/>
<path fill-rule="evenodd" clip-rule="evenodd" d="M79.9352 18.2209C80.0085 19.0557 80.6763 20.1182 81.8331 20.1182H82.5099C82.7722 20.1182 82.987 19.9032 82.987 19.6406V4.75519H82.9843C82.9707 4.50441 82.7632 4.30357 82.5099 4.30357H80.4126C80.159 4.30357 79.9518 4.50441 79.9376 4.75519H79.9352V5.96472C78.6501 4.3808 76.6242 3.72339 74.5926 3.72339C69.9748 3.72339 66.2314 7.46973 66.2314 12.0914C66.2314 16.7133 69.9748 20.4598 74.5926 20.4598V20.4601C76.6242 20.4601 78.8383 19.6714 79.935 18.2191L79.9352 18.2209ZM74.6008 17.531C71.6641 17.531 69.283 15.0959 69.283 12.0914C69.283 9.08748 71.6641 6.65216 74.6008 6.65216C77.5378 6.65216 79.9184 9.08748 79.9184 12.0914C79.9184 15.0959 77.5378 17.531 74.6008 17.531Z" fill="black"/>
<path fill-rule="evenodd" clip-rule="evenodd" d="M53.8284 16.0889C55.2284 17.0596 56.7567 17.5311 58.2253 17.5311C59.6244 17.5311 61.0708 16.8052 61.0708 15.5417C61.0708 13.855 57.9191 13.5925 55.9388 12.919C53.9582 12.2454 52.2523 10.8531 52.2523 8.5983C52.2523 5.14807 55.3242 3.72308 58.1913 3.72308C60.0079 3.72308 61.8822 4.32258 63.0974 5.18136C63.5159 5.4987 63.261 5.86304 63.261 5.86304L62.1011 7.52102C61.9707 7.70776 61.7427 7.8691 61.4155 7.66698C61.0882 7.465 59.9405 6.65195 58.1913 6.65195C56.442 6.65195 55.3883 7.46042 55.3883 8.46249C55.3883 9.66415 56.7578 10.0421 58.3619 10.4517C61.1573 11.2057 64.2067 12.1121 64.2067 15.5417C64.2067 18.5817 61.3655 20.4603 58.2253 20.4603C55.8457 20.4603 53.8196 19.7814 52.1204 18.5335C51.7664 18.179 52.0136 17.8498 52.0136 17.8498L53.1679 16.2002C53.4028 15.8918 53.6989 15.9994 53.8284 16.0889Z" fill="black"/>
<path fill-rule="evenodd" clip-rule="evenodd" d="M45.7659 18.2209C45.8392 19.0557 46.507 20.1182 47.6637 20.1182H48.3406C48.6029 20.1182 48.8179 19.9032 48.8179 19.6406V4.75519H48.815C48.8012 4.50441 48.5941 4.30357 48.3406 4.30357H46.2433C45.9896 4.30357 45.7825 4.50441 45.7684 4.75519H45.7659V5.96472C44.4809 4.3808 42.455 3.72339 40.4234 3.72339C35.8056 3.72339 32.062 7.46973 32.062 12.0914C32.062 16.7133 35.8056 20.4598 40.4234 20.4598V20.4601C42.455 20.4601 44.669 19.6714 45.7656 18.2191L45.7659 18.2209ZM40.4316 17.531C37.4946 17.531 35.1137 15.0959 35.1137 12.0914C35.1137 9.08748 37.4946 6.65216 40.4316 6.65216C43.3684 6.65216 45.7491 9.08748 45.7491 12.0914C45.7491 15.0959 43.3684 17.531 40.4316 17.531Z" fill="black"/>
<path fill-rule="evenodd" clip-rule="evenodd" d="M20.3397 12.6605C17.2321 12.6605 14.7128 15.1798 14.7128 18.2877C14.7128 21.3953 17.2321 23.9146 20.3397 23.9146C23.4474 23.9146 25.9666 21.3953 25.9666 18.2877C25.9666 15.1798 23.4474 12.6605 20.3397 12.6605ZM5.72064 12.6611C2.61302 12.6611 0.09375 15.1798 0.09375 18.2877C0.09375 21.3953 2.61302 23.9146 5.72064 23.9146C8.82839 23.9146 11.3478 21.3953 11.3478 18.2877C11.3478 15.1798 8.82839 12.6611 5.72064 12.6611ZM18.657 5.62677C18.657 8.73465 16.1379 11.2541 13.0302 11.2541C9.92246 11.2541 7.40332 8.73465 7.40332 5.62677C7.40332 2.51952 9.92246 0 13.0302 0C16.1379 0 18.657 2.51952 18.657 5.62677Z" fill="black"/>
</g>
<defs>
<clipPath id="clip0_1358_224763">
<rect width="122.182" height="24" fill="white" transform="translate(0.09375)"/>
</clipPath>
</defs>
</svg>
