<svg width="107" height="24" viewBox="0 0 107 24" fill="none" xmlns="http://www.w3.org/2000/svg">
<g clip-path="url(#clip0_1358_224765)">
<path d="M51.9565 6.26038C49.8079 6.26038 47.6832 7.18207 46.0672 9.00153V0.0479126H42.8652V15.1242C42.8652 20.02 46.8333 23.9881 51.7291 23.9881C56.6248 23.9881 60.5929 20.02 60.5929 15.1242C60.5929 10.2285 56.8523 6.26038 51.9565 6.26038ZM51.7231 20.5706C48.7126 20.5706 46.2767 18.1287 46.2767 15.1242C46.2767 12.1197 48.7186 9.67784 51.7231 9.67784C54.7336 9.67784 57.1695 12.1197 57.1695 15.1242C57.1695 18.1287 54.7336 20.5706 51.7231 20.5706Z" fill="black"/>
<path d="M71.809 6.26038C69.6604 6.26038 67.5357 7.18207 65.9198 9.00153V0.0479126H62.7178V15.1242C62.7178 20.02 66.6859 23.9881 71.5816 23.9881C76.4774 23.9881 80.4455 20.02 80.4455 15.1242C80.4455 10.2285 76.6988 6.26038 71.809 6.26038ZM71.5756 20.5706C68.5652 20.5706 66.1292 18.1287 66.1292 15.1242C66.1292 12.1197 68.5711 9.67784 71.5756 9.67784C74.5861 9.67784 77.022 12.1197 77.022 15.1242C77.022 18.1287 74.5861 20.5706 71.5756 20.5706Z" fill="black"/>
<path d="M24.8384 16.6743V6.73914H28.2738V16.6444C28.2738 19.176 29.7401 20.798 32.2119 20.798C34.7137 20.798 36.1501 19.2359 36.1501 16.6444V6.73914H39.6154V16.6743C39.6154 21.2648 36.8324 23.982 32.2119 23.982C27.7112 23.988 24.8384 21.175 24.8384 16.6743Z" fill="black"/>
<path d="M86.64 23.5811H83.2046V0.0479126H86.64V23.5811Z" fill="black"/>
<path d="M106.092 16.4888H92.9424C93.4452 19.1102 95.2826 20.8937 98.5325 20.8937C100.436 20.8937 102.752 20.1755 104.248 19.0803L105.685 21.612C103.967 22.8927 101.25 23.9521 98.4068 23.9521C92.0986 23.9521 89.3813 19.5471 89.3813 15.1122C89.3813 12.5805 90.1594 10.4918 91.7574 8.8339C93.3494 7.17604 95.4442 6.33215 97.9759 6.33215C100.382 6.33215 102.381 7.08028 103.913 8.61245C105.445 10.1446 106.223 12.2035 106.223 14.8309C106.211 15.3037 106.181 15.8663 106.092 16.4888ZM92.9365 13.6758H102.746C102.465 11.0184 100.496 9.30073 97.9639 9.30073C95.3724 9.30073 93.4392 11.0543 92.9365 13.6758Z" fill="black"/>
<path d="M13.9278 6.26038C11.7792 6.26038 9.65451 7.18207 8.03855 9.00153V0.0479126H4.83057V15.1242C4.83057 20.02 8.79865 23.9881 13.6944 23.9881C18.5902 23.9881 22.5582 20.02 22.5582 15.1242C22.5582 10.2285 18.8176 6.26038 13.9278 6.26038ZM13.6944 20.5706C10.6839 20.5706 8.24802 18.1287 8.24802 15.1242C8.24802 12.1197 10.6899 9.67784 13.6944 9.67784C16.7049 9.67784 19.1408 12.1197 19.1408 15.1242C19.1408 18.1287 16.7049 20.5706 13.6944 20.5706Z" fill="black"/>
<path d="M2.50254 23.9821C3.71233 23.9821 4.69306 23.0014 4.69306 21.7915C4.69306 20.5817 3.71233 19.601 2.50254 19.601C1.29275 19.601 0.312012 20.5817 0.312012 21.7915C0.312012 23.0014 1.29275 23.9821 2.50254 23.9821Z" fill="black"/>
</g>
<defs>
<clipPath id="clip0_1358_224765">
<rect width="105.995" height="24" fill="white" transform="translate(0.275879)"/>
</clipPath>
</defs>
</svg>
