<svg width="100" height="24" viewBox="0 0 100 24" fill="none" xmlns="http://www.w3.org/2000/svg">
<g clip-path="url(#clip0_1358_224766)">
<path d="M59.2316 9.45802C60.7721 9.45802 62.231 10.4004 62.5388 12.4367H55.6781C55.9652 10.6499 57.3009 9.45802 59.2316 9.45802ZM62.3196 15.4492C61.7956 16.266 60.7828 16.8942 59.3962 16.8942C57.4856 16.8942 56.0268 15.8469 55.6781 13.9979H64.2854C64.3269 13.7329 64.3482 13.4651 64.3482 13.1969C64.3482 10.3213 62.3378 7.77362 59.2329 7.77362C56.0287 7.77362 53.8511 10.1359 53.8511 13.1768C53.8511 16.2553 56.05 18.5799 59.356 18.5799C61.4104 18.5799 62.9717 17.6551 63.8752 16.2553L62.3196 15.4492Z" fill="black"/>
<path d="M53.0056 3.31598H51.2188V18.3122H53.0056V3.31598Z" fill="black"/>
<path d="M74.2905 12.0056V18.3116H72.503V12.108C72.503 10.4236 71.538 9.47872 69.956 9.47872C68.3125 9.47872 66.9774 10.4444 66.9774 12.8682V18.3116H65.1899V8.04186H66.9774V9.52081C67.7376 8.30887 68.8672 7.77484 70.3072 7.77484C72.7104 7.77484 74.2924 9.37694 74.2924 12.0069" fill="black"/>
<path d="M84.1452 13.1761C84.1452 11.0808 82.5632 9.49881 80.4887 9.49881C78.4342 9.49881 76.8529 11.0808 76.8529 13.1761C76.8529 15.2714 78.4342 16.8534 80.4887 16.8534C82.562 16.8534 84.1452 15.2714 84.1452 13.1761ZM85.932 3.31598V18.3122H84.1452V16.5449C83.3234 17.8014 82.0091 18.5792 80.2625 18.5792C77.407 18.5792 75.0654 16.2163 75.0654 13.1761C75.0654 10.1359 77.407 7.77294 80.2625 7.77294C82.0085 7.77294 83.3234 8.55326 84.1452 9.80666V3.31598H85.932Z" fill="black"/>
<path d="M89.1598 3.31598H87.373V18.3122H89.1598V3.31598Z" fill="black"/>
<path d="M48.0334 13.1761C48.0334 11.0808 46.452 9.49881 44.3769 9.49881C42.323 9.49881 40.741 11.0808 40.741 13.1761C40.741 15.2714 42.323 16.8534 44.3769 16.8534C46.4502 16.8534 48.0334 15.2714 48.0334 13.1761ZM49.8208 8.04185V18.3116H48.0334V16.5449C47.2116 17.8014 45.8973 18.5792 44.1513 18.5792C41.2958 18.5792 38.9536 16.2163 38.9536 13.1761C38.9536 10.1359 41.2958 7.77295 44.1513 7.77295C45.8973 7.77295 47.2116 8.55326 48.0334 9.80667V8.04185H49.8208Z" fill="black"/>
<path d="M36.303 16.3351C35.3882 16.6726 34.4007 16.7638 33.4395 16.5994C32.4784 16.4349 31.5773 16.0207 30.8268 15.3982C30.0762 14.7757 29.5025 13.9669 29.1631 13.0527C28.8238 12.1385 28.7306 11.1512 28.8932 10.1897C29.0558 9.22824 29.4682 8.32641 30.0892 7.57462C30.7103 6.82277 31.518 6.24749 32.4315 5.90633C33.3451 5.56518 34.3321 5.47017 35.294 5.63084C36.2558 5.79152 37.1584 6.20222 37.9114 6.82176C38.2254 7.08086 38.5095 7.3742 38.7583 7.69632L40.3045 6.56543C39.4037 5.38786 38.1736 4.50422 36.7701 4.02653C35.3665 3.54884 33.8528 3.4986 32.4207 3.88218C30.9885 4.26576 29.7025 5.06588 28.7257 6.18114C27.7488 7.29642 27.125 8.67661 26.9334 10.1468C26.7418 11.6169 26.991 13.1108 27.6493 14.4393C28.3078 15.7677 29.3457 16.8707 30.6317 17.6085C31.9176 18.3464 33.3937 18.6857 34.8728 18.5838C36.3518 18.4817 37.7673 17.9429 38.9399 17.0356L37.9108 15.4084C37.43 15.8044 36.8867 16.1176 36.303 16.3351Z" fill="black"/>
<path d="M97.7861 8.04187V13.871C97.7861 15.7558 96.6898 16.9495 95.0161 16.9495C93.3424 16.9495 92.1304 15.7558 92.1304 13.871V8.04187H90.3223V13.6963C90.3223 16.6593 92.1688 18.583 95.0161 18.583C97.4789 18.583 97.8634 17.0249 97.8634 16.986V19.0831C97.8634 21.1608 96.9593 22.3344 95.0739 22.3344C94.4004 22.3378 93.7489 22.0961 93.24 21.6546C92.7317 21.2131 92.4006 20.6017 92.3095 19.9344L90.6929 20.4999C90.9242 21.4885 91.4833 22.3696 92.28 22.9996C93.076 23.6297 94.0617 23.9717 95.077 23.9698C98.001 23.9698 99.6006 22.0454 99.6006 19.0831V8.04187H97.7861Z" fill="black"/>
<path d="M14.8202 14.0249C14.1335 14.6343 13.2759 15.3927 11.721 15.3927H10.7911C9.66589 15.3927 8.64243 14.9837 7.90987 14.2423C7.19426 13.5179 6.80034 12.5265 6.80034 11.4503V10.178C6.80034 9.10177 7.19426 8.11036 7.90987 7.38596C8.64243 6.6446 9.66589 6.23622 10.7911 6.23622H11.721C13.2778 6.23622 14.1335 6.99392 14.8202 7.60334C15.5333 8.23162 16.1484 8.78073 17.7888 8.78073C18.039 8.78066 18.2888 8.76068 18.5358 8.72104L18.5302 8.70659C18.4319 8.46257 18.3166 8.22577 18.1853 7.9979L17.0889 6.09863C16.5945 5.24244 15.8835 4.53147 15.0272 4.03718C14.171 3.54288 13.1997 3.28267 12.211 3.28271H10.0177C9.02901 3.28267 8.05776 3.54288 7.20149 4.03718C6.34526 4.53147 5.63421 5.24244 5.13981 6.09863L4.04348 7.9979C3.54925 8.85417 3.28906 9.82548 3.28906 10.8141C3.28906 11.8028 3.54925 12.7741 4.04348 13.6304L5.13981 15.5296C5.63421 16.3858 6.34526 17.0968 7.20149 17.5911C8.05776 18.0854 9.02901 18.3456 10.0177 18.3455H12.211C13.1997 18.3456 14.171 18.0854 15.0272 17.5911C15.8835 17.0968 16.5945 16.3858 17.0889 15.5296L18.1853 13.6335C18.3166 13.4056 18.4319 13.1688 18.5302 12.9248L18.5358 12.911C18.2889 12.87 18.0391 12.849 17.7888 12.8482C16.1484 12.8482 15.5333 13.3941 14.8202 14.0255" fill="black"/>
<path d="M11.7209 7.3891H10.791C9.07836 7.3891 7.95312 8.61234 7.95312 10.178V11.4503C7.95312 13.0159 9.07836 14.2392 10.791 14.2392H11.7209C14.2164 14.2392 14.0203 11.6946 17.7887 11.6946C18.1458 11.6943 18.5021 11.7271 18.853 11.7927C18.9674 11.1453 18.9674 10.483 18.853 9.83559C18.502 9.90087 18.1458 9.93366 17.7887 9.9336C14.0191 9.9336 14.2164 7.3891 11.7209 7.3891Z" fill="black"/>
<path d="M21.0183 12.7225C20.3766 12.2525 19.6365 11.9343 18.8539 11.792C18.8539 11.7989 18.8539 11.8046 18.8539 11.8109C18.7866 12.186 18.6813 12.5533 18.5398 12.9072C19.1863 13.0073 19.7997 13.2599 20.3291 13.6442C20.3291 13.6492 20.326 13.6555 20.3241 13.6611C19.6426 15.8677 18.1923 17.7567 16.2365 18.9849C14.2807 20.2131 11.9493 20.6991 9.66569 20.3545C7.3821 20.0099 5.29785 18.8576 3.79158 17.107C2.2853 15.3564 1.45693 13.1236 1.45693 10.8141C1.45693 8.50464 2.2853 6.27183 3.79158 4.52121C5.29785 2.77059 7.3821 1.61833 9.66569 1.27374C11.9493 0.929148 14.2807 1.41509 16.2365 2.64329C18.1923 3.8715 19.6426 5.76048 20.3241 7.96709C20.3241 7.97275 20.3272 7.97903 20.3291 7.98405C19.7997 8.36831 19.1863 8.62075 18.5398 8.72039C18.6811 9.07474 18.7864 9.44246 18.8539 9.81798C18.8535 9.82382 18.8535 9.82973 18.8539 9.83557C19.6365 9.69352 20.3765 9.37555 21.0183 8.90573C21.6353 8.44898 21.5159 7.93316 21.4223 7.62782C20.6595 5.15376 19.0344 3.03544 16.8424 1.65781C14.6504 0.280172 12.0368 -0.26536 9.47676 0.120344C6.91668 0.506047 4.5799 1.79739 2.89107 3.75972C1.20224 5.72204 0.273438 8.22512 0.273438 10.8141C0.273438 13.4031 1.20224 15.9062 2.89107 17.8685C4.5799 19.8308 6.91668 21.1222 9.47676 21.5079C12.0368 21.8936 14.6504 21.348 16.8424 19.9704C19.0344 18.5927 20.6595 16.4745 21.4223 14.0004C21.5159 13.695 21.6353 13.1792 21.0183 12.7225Z" fill="black"/>
<path d="M18.5358 8.7204C18.2889 8.76143 18.0391 8.78241 17.7888 8.78323C16.1484 8.78323 15.5333 8.23726 14.8208 7.60585C14.1335 6.99642 13.2778 6.2381 11.7209 6.2381H10.7911C9.66521 6.2381 8.64239 6.6471 7.90982 7.38846C7.19422 8.11286 6.80029 9.10428 6.80029 10.1805V11.4528C6.80029 12.529 7.19422 13.5204 7.90982 14.2448C8.64239 14.9862 9.66521 15.3945 10.7911 15.3945H11.7209C13.2778 15.3945 14.1335 14.6368 14.8208 14.0274C15.5333 13.3991 16.1484 12.85 17.7888 12.85C18.0389 12.8501 18.2888 12.8701 18.5358 12.9097C18.6776 12.5559 18.7828 12.1886 18.8499 11.8134C18.8503 11.8071 18.8503 11.8008 18.8499 11.7945C18.4989 11.7294 18.1426 11.6968 17.7856 11.6972C14.016 11.6972 14.2133 14.2423 11.7178 14.2423H10.7879C9.07527 14.2423 7.95003 13.0184 7.95003 11.4528V10.178C7.95003 8.61234 9.07527 7.38909 10.7879 7.38909H11.7178C14.2133 7.38909 14.0173 9.93297 17.7856 9.93297C18.1427 9.9336 18.499 9.90099 18.8499 9.83559C18.8499 9.82993 18.8499 9.82428 18.8499 9.81799C18.7824 9.44248 18.6771 9.07475 18.5358 8.7204Z" fill="black"/>
<path d="M18.5358 8.7204C18.2889 8.76143 18.0391 8.78241 17.7888 8.78323C16.1484 8.78323 15.5333 8.23726 14.8208 7.60585C14.1335 6.99642 13.2778 6.2381 11.7209 6.2381H10.7911C9.66521 6.2381 8.64239 6.6471 7.90982 7.38846C7.19422 8.11286 6.80029 9.10428 6.80029 10.1805V11.4528C6.80029 12.529 7.19422 13.5204 7.90982 14.2448C8.64239 14.9862 9.66521 15.3945 10.7911 15.3945H11.7209C13.2778 15.3945 14.1335 14.6368 14.8208 14.0274C15.5333 13.3991 16.1484 12.85 17.7888 12.85C18.0389 12.8501 18.2888 12.8701 18.5358 12.9097C18.6776 12.5559 18.7828 12.1886 18.8499 11.8134C18.8503 11.8071 18.8503 11.8008 18.8499 11.7945C18.4989 11.7294 18.1426 11.6968 17.7856 11.6972C14.016 11.6972 14.2133 14.2423 11.7178 14.2423H10.7879C9.07527 14.2423 7.95003 13.0184 7.95003 11.4528V10.178C7.95003 8.61234 9.07527 7.38909 10.7879 7.38909H11.7178C14.2133 7.38909 14.0173 9.93297 17.7856 9.93297C18.1427 9.9336 18.499 9.90099 18.8499 9.83559C18.8499 9.82993 18.8499 9.82428 18.8499 9.81799C18.7824 9.44248 18.6771 9.07475 18.5358 8.7204Z" fill="black"/>
</g>
<defs>
<clipPath id="clip0_1358_224766">
<rect width="99.3298" height="24" fill="white" transform="translate(0.270996)"/>
</clipPath>
</defs>
</svg>
