<svg width="76" height="24" viewBox="0 0 76 24" fill="none" xmlns="http://www.w3.org/2000/svg">
<g clip-path="url(#clip0_1358_224767)">
<path d="M75.4001 16.4041C75.272 16.4041 75.1553 16.4865 75.0951 16.6585C74.3231 18.8475 73.28 20.1497 72.4212 20.1497C71.9279 20.1497 71.7281 19.6034 71.7281 18.7465C71.7281 16.6024 73.02 12.0561 73.6714 9.98315C73.7467 9.73244 73.7958 9.50795 73.7958 9.31713C73.7958 8.7147 73.4642 8.41909 72.6434 8.41909C71.7584 8.41909 70.8054 8.76332 69.879 10.376C69.5589 8.95418 68.5911 8.33302 67.239 8.33302C65.676 8.33302 64.1659 9.33209 62.9231 10.9523C61.6802 12.5725 60.2188 13.1039 59.1192 12.8419C59.9101 10.9186 60.2037 9.48177 60.2037 8.41532C60.2037 6.74274 59.3714 5.73246 58.0271 5.73246C55.9819 5.73246 54.8029 7.67073 54.8029 9.70999C54.8029 11.2853 55.5226 12.9055 57.1044 13.6913C55.7784 16.6698 53.8426 19.3639 53.1082 19.3639C52.1592 19.3639 51.8805 14.7503 51.9333 11.45C51.9672 9.55658 52.1253 9.45932 52.1253 8.88679C52.1253 8.55751 51.9107 8.33302 51.0482 8.33302C49.037 8.33302 48.4156 10.0243 48.3215 11.9663C48.2912 12.7043 48.1749 13.4363 47.9751 14.1478C47.1351 17.1263 45.4027 19.3864 44.2728 19.3864C43.7493 19.3864 43.6064 18.8662 43.6064 18.1852C43.6064 16.0412 44.8152 13.362 44.8152 11.0758C44.8152 9.39571 44.0735 8.33302 42.6759 8.33302C41.0303 8.33302 38.8533 10.2788 36.7933 13.9233C37.4712 11.1319 37.75 8.43031 35.7426 8.43031C35.3071 8.43678 34.8795 8.54714 34.496 8.7521C34.3672 8.81191 34.2595 8.90887 34.187 9.03035C34.1145 9.15179 34.0804 9.29214 34.0892 9.43311C34.2813 12.4041 31.6789 20.015 29.2121 20.015C28.7639 20.015 28.5455 19.5323 28.5455 18.754C28.5455 16.6062 29.8335 12.0711 30.4813 9.99438C30.5641 9.72499 30.6093 9.493 30.6093 9.29092C30.6093 8.72215 30.2553 8.43031 29.4531 8.43031C28.5718 8.43031 27.6152 8.76332 26.6925 10.376C26.3686 8.95418 25.4007 8.33302 24.0487 8.33302C21.8304 8.33302 19.3523 10.6642 18.2639 13.7025C16.8063 17.7587 13.8687 21.6763 9.91429 21.6763C6.32514 21.6763 4.43076 18.7091 4.43076 14.0206C4.43076 7.25166 9.43222 1.72124 13.1419 1.72124C14.9157 1.72124 15.7631 2.84378 15.7631 4.56502C15.7631 6.64922 14.5919 7.61834 14.5919 8.41159C14.5919 8.65481 14.7952 8.89429 15.1982 8.89429C16.8101 8.89429 18.7083 7.01217 18.7083 4.44528C18.7083 1.87839 16.6105 0 12.9008 0C6.76955 0 0.600586 6.12908 0.600586 13.9832C0.600586 20.232 3.7039 24 9.07067 24C12.7314 24 15.9288 21.1712 17.6537 17.8709C17.8496 20.6062 19.0999 22.0355 21.0056 22.0355C22.7004 22.0355 24.0713 21.0328 25.1183 19.2703C25.5212 21.1151 26.5908 22.0168 27.9805 22.0168C29.5736 22.0168 30.9068 21.014 32.176 19.1506C32.1572 20.6137 32.4924 21.9906 33.7691 21.9906C34.3717 21.9906 35.091 21.8522 35.2191 21.3284C36.5636 15.8054 39.8853 11.2965 40.9021 11.2965C41.2034 11.2965 41.2865 11.5847 41.2865 11.9252C41.2865 13.4256 40.2205 16.5014 40.2205 18.4659C40.2205 20.5875 41.1281 21.9906 43.0038 21.9906C45.0826 21.9906 47.1953 19.4612 48.6039 15.7643C49.0448 19.2179 49.9974 22.0056 51.4887 22.0056C53.3194 22.0056 56.5693 18.1777 58.5392 14.1254C59.3112 14.2226 60.471 14.1964 61.5861 13.4144C61.1112 14.6081 60.8328 15.914 60.8328 17.2198C60.8328 20.9804 62.6406 22.0355 64.1958 22.0355C65.8869 22.0355 67.2578 21.0328 68.3087 19.2703C68.655 20.8606 69.54 22.0131 71.1669 22.0131C73.7131 22.0131 75.9237 19.4275 75.9237 17.3059C75.9237 16.7446 75.6826 16.4041 75.4001 16.4041ZM22.5573 19.9513C21.5291 19.9513 21.1261 18.9224 21.1261 17.3882C21.1261 14.724 22.9602 10.275 24.8998 10.275C25.7472 10.275 26.0673 11.2666 26.0673 12.479C26.0673 15.1843 24.3236 19.9513 22.5573 19.9513ZM57.7745 12C57.1608 11.2741 56.9386 10.2863 56.9386 9.40693C56.9386 8.3218 57.3377 7.40503 57.8159 7.40503C58.2944 7.40503 58.4413 7.87278 58.4413 8.52384C58.4413 9.61274 58.0496 11.203 57.7745 12ZM65.7477 19.9513C64.7194 19.9513 64.3165 18.769 64.3165 17.3882C64.3165 14.8176 66.1505 10.275 68.1052 10.275C68.9526 10.275 69.2539 11.2591 69.2539 12.479C69.2539 15.1843 67.5403 19.9513 65.7477 19.9513Z" fill="black"/>
</g>
<defs>
<clipPath id="clip0_1358_224767">
<rect width="75.3231" height="24" fill="white" transform="translate(0.600586)"/>
</clipPath>
</defs>
</svg>
