<svg width="74" height="24" viewBox="0 0 74 24" fill="none" xmlns="http://www.w3.org/2000/svg">
<path d="M70.4734 18.8009V17.3545C70.0743 17.917 69.6055 18.3375 69.0618 18.6107C68.5207 18.8866 67.9716 19.0232 67.4225 19.0232C66.3002 19.0232 65.3412 18.5679 64.5404 17.6545C63.7421 16.7411 63.3403 15.4687 63.3403 13.8375C63.3403 12.1687 63.7287 10.8991 64.5082 10.0286C65.285 9.16071 66.2707 8.72411 67.4573 8.72411C68.5475 8.72411 69.4904 9.18214 70.2886 10.0982V5.19911H72.8707V18.7982L70.4734 18.8009ZM69.6912 11.467C69.2868 10.9688 68.7698 10.7196 68.1377 10.7196C67.5243 10.7196 67.0127 10.9661 66.5975 11.4563C66.185 11.9491 65.9761 12.683 65.9761 13.6607C65.9761 14.7134 66.1207 15.4741 66.4073 15.9429C66.8252 16.6232 67.4064 16.9634 68.1537 16.9634C68.7484 16.9634 69.2546 16.7089 69.6698 16.1973C70.0877 15.6884 70.2939 14.925 70.2939 13.9098C70.2966 12.7795 70.0957 11.9652 69.6912 11.467ZM61.9261 11.0625C61.5645 11.0625 61.2591 11.1643 61.0073 11.3652C60.7555 11.5661 60.5573 11.9304 60.4153 12.4554C60.2707 12.9804 60.1984 14.0813 60.1984 15.758V18.8009H57.6162V8.94911H60.0136V10.35C60.4234 9.68839 60.793 9.25179 61.1198 9.04286C61.4466 8.83393 61.8189 8.72679 62.2368 8.72679C62.8261 8.72679 63.3912 8.89018 63.9377 9.21964L63.1395 11.4911C62.7029 11.2045 62.2984 11.0625 61.9261 11.0625ZM55.2939 11.0625C54.9323 11.0625 54.627 11.1643 54.3752 11.3652C54.1234 11.5661 53.9252 11.9304 53.7832 12.4554C53.6386 12.9804 53.5662 14.0813 53.5662 15.758V18.8009H50.9841V8.94911H53.3814V10.35C53.7912 9.68839 54.1609 9.25179 54.4877 9.04286C54.8145 8.83393 55.1868 8.72679 55.6046 8.72679C56.1939 8.72679 56.7591 8.89018 57.3055 9.21964L56.5073 11.4911C56.0707 11.2045 55.6662 11.0625 55.2939 11.0625ZM47.5127 18.0295C47.4698 17.8741 47.4403 17.7723 47.4216 17.7241C46.9796 18.158 46.5082 18.4821 46.0073 18.6991C45.5037 18.9161 44.968 19.0232 44.4002 19.0232C43.3957 19.0232 42.6028 18.7473 42.0243 18.1982C41.4457 17.6491 41.1564 16.9527 41.1564 16.1116C41.1564 15.5545 41.2877 15.0589 41.5528 14.6223C41.8153 14.1857 42.185 13.8536 42.6591 13.6205C43.1332 13.3875 43.8189 13.1866 44.7136 13.0125C45.9216 12.7848 46.7573 12.5705 47.2234 12.3723V12.1125C47.2234 11.6116 47.1002 11.2554 46.8564 11.0411C46.61 10.8268 46.1493 10.7223 45.4689 10.7223C45.0082 10.7223 44.652 10.8134 44.3948 10.9955C44.1377 11.1777 43.9287 11.4991 43.7707 11.9545L41.427 11.5286C41.6895 10.575 42.1448 9.87054 42.7877 9.4125C43.4305 8.95446 44.3868 8.72679 45.6537 8.72679C46.8055 8.72679 47.6627 8.86339 48.2278 9.13929C48.7903 9.41518 49.1895 9.76339 49.4171 10.1866C49.6475 10.6098 49.7627 11.3866 49.7627 12.5196L49.7359 15.5625C49.7359 16.4277 49.7761 17.0679 49.8591 17.4777C49.9421 17.8902 50.0975 18.3295 50.3225 18.8009H47.7671C47.6948 18.6268 47.6118 18.3696 47.5127 18.0295ZM47.2207 14.0679C46.8886 14.1804 46.3662 14.3116 45.6484 14.467C44.9305 14.6223 44.4618 14.7723 44.2421 14.9223C43.9046 15.1634 43.7359 15.4688 43.7359 15.8411C43.7359 16.2054 43.8698 16.5214 44.1403 16.7866C44.4109 17.0518 44.7537 17.1857 45.1689 17.1857C45.635 17.1857 46.0796 17.0304 46.5002 16.7223C46.8136 16.4866 47.0171 16.2 47.1162 15.8598C47.1832 15.6375 47.218 15.2143 47.218 14.5902L47.2207 14.0679ZM35.2368 16.6848C35.96 16.6848 36.5814 16.4518 37.1011 15.9884C37.6207 15.525 37.9957 14.7938 38.2234 13.8L40.8618 14.6438C40.4573 16.1277 39.785 17.2313 38.8448 17.9518C37.9046 18.6723 36.71 19.0312 35.2662 19.0312C33.477 19.0312 32.0064 18.4152 30.8546 17.1804C29.7028 15.9455 29.127 14.2607 29.127 12.1205C29.127 9.85714 29.7055 8.1 30.8627 6.84643C32.0198 5.59286 33.5439 4.96875 35.4296 4.96875C37.077 4.96875 38.4162 5.46161 39.4448 6.44464C40.0582 7.02589 40.5162 7.86161 40.8243 8.94911L38.1323 9.59732C37.9716 8.89286 37.6395 8.33571 37.1359 7.92857C36.6296 7.52143 36.0162 7.31518 35.293 7.31518C34.2939 7.31518 33.485 7.67679 32.8636 8.4C32.2421 9.12321 31.9314 10.2964 31.9314 11.917C31.9314 13.6366 32.2368 14.8607 32.8502 15.5893C33.4609 16.3205 34.2564 16.6848 35.2368 16.6848Z" fill="black"/>
<path d="M12.4502 23.6062C6.03774 23.6062 0.841309 18.4098 0.841309 12C0.841309 5.59017 6.03774 0.393738 12.4502 0.393738C18.8627 0.393738 24.0592 5.59017 24.0592 12C24.0592 18.4098 18.8627 23.6062 12.4502 23.6062Z" fill="black"/>
<path d="M18.1608 16.4223L11.1938 19.7679C11.1509 19.7893 11.1027 19.8 11.0545 19.8C10.9956 19.8 10.9367 19.7839 10.8831 19.7518C10.7893 19.6929 10.7331 19.5911 10.7331 19.4786V16.1652L6.9697 14.5902C6.84916 14.5393 6.77148 14.4241 6.77148 14.2929V5.59285C6.77148 5.48303 6.82773 5.37857 6.92148 5.31964C7.01523 5.26071 7.13309 5.25535 7.2322 5.30089L14.4751 8.77768L17.8849 7.14107C17.984 7.09285 18.1018 7.10089 18.1956 7.15982C18.2893 7.21875 18.3456 7.32053 18.3456 7.43303V16.133C18.3429 16.2562 18.2733 16.3687 18.1608 16.4223ZM7.41434 6.10446V14.0786L10.7331 15.4687V13.867L8.64648 13.0259C8.48309 12.9589 8.40273 12.7714 8.46702 12.608C8.53398 12.442 8.72148 12.3643 8.88488 12.4286L10.7331 13.1732V11.858L8.64648 11.017C8.48309 10.95 8.40273 10.7625 8.46702 10.5991C8.53398 10.433 8.72148 10.3554 8.88488 10.4196L10.7331 11.1643V10.7812C10.7331 10.658 10.8027 10.5455 10.9152 10.492L11.392 10.2616L8.63041 9.00536C8.4697 8.93303 8.39738 8.74018 8.4697 8.57946C8.54202 8.41875 8.73488 8.34643 8.89559 8.41875L12.1447 9.9L13.7277 9.13928L7.41434 6.10446ZM17.7001 7.94464L11.3759 10.9821V11.633C11.3759 11.633 11.3759 11.633 11.3759 11.6357V13.642C11.3759 13.642 11.3759 13.642 11.3759 13.6446V18.9696L17.7001 15.9295V7.94464ZM12.584 12.1018L16.2081 10.35C16.3688 10.2723 16.559 10.3393 16.6367 10.5C16.7143 10.6607 16.6474 10.8536 16.4867 10.9286L12.8626 12.6804C12.817 12.7018 12.7688 12.7125 12.7233 12.7125C12.6027 12.7125 12.4902 12.6455 12.434 12.5304C12.359 12.3723 12.4259 12.1795 12.584 12.1018ZM12.584 14.1107L16.2081 12.3589C16.3688 12.2812 16.559 12.3482 16.6367 12.5089C16.7143 12.6696 16.6474 12.8625 16.4867 12.9375L12.8626 14.6893C12.817 14.7107 12.7688 14.7214 12.7233 14.7214C12.6027 14.7214 12.4902 14.6545 12.434 14.5393C12.359 14.3786 12.4259 14.1884 12.584 14.1107ZM12.584 16.117L16.2081 14.3652C16.3688 14.2875 16.559 14.3545 16.6367 14.5152C16.7143 14.6759 16.6474 14.8687 16.4867 14.9437L12.8626 16.6955C12.817 16.717 12.7688 16.7277 12.7233 16.7277C12.6027 16.7277 12.4902 16.6607 12.434 16.5455C12.359 16.3875 12.4259 16.1946 12.584 16.117Z" fill="white"/>
</svg>
