<svg width="85" height="24" viewBox="0 0 85 24" fill="none" xmlns="http://www.w3.org/2000/svg">
<g clip-path="url(#clip0_1358_224769)">
<path d="M12.2367 23.7474C15.8051 23.7474 18.1736 22.6105 20.2578 20.7789C20.6052 20.4632 20.8894 19.9895 20.8894 19.3895C20.8894 18.4105 20.0367 17.5895 19.0578 17.5895C18.5841 17.5895 18.1736 17.7789 17.8894 18.0316C16.2788 19.3895 14.6999 20.1474 12.363 20.1474C8.13147 20.1474 5.0683 16.6421 5.0683 12.3158V12.2526C5.0683 7.92632 8.16305 4.45263 12.363 4.45263C14.4788 4.45263 16.1209 5.21053 17.6367 6.44211C17.8894 6.63158 18.2683 6.82105 18.8051 6.82105C19.8788 6.82105 20.7315 6 20.7315 4.92632C20.7315 4.23158 20.3841 3.69474 19.9736 3.37895C18.0473 1.89474 15.8051 0.884213 12.3946 0.884213C5.69988 0.884213 0.994629 6.03158 0.994629 12.3158V12.3789C0.994629 18.7263 5.79462 23.7474 12.2367 23.7474ZM26.0065 4.29474C27.2381 4.29474 28.1855 3.53684 28.1855 2.4V2.21053C28.1855 1.07369 27.2381 0.347371 26.0065 0.347371C24.7749 0.347371 23.8276 1.07369 23.8276 2.21053V2.4C23.8276 3.53684 24.7749 4.29474 26.0065 4.29474ZM26.0065 23.5263C27.0802 23.5263 27.9328 22.7053 27.9328 21.6316V8.43158C27.9328 7.3579 27.0802 6.50527 26.0065 6.50527C24.9328 6.50527 24.1118 7.3579 24.1118 8.43158V21.6316C24.1118 22.7053 24.9644 23.5263 26.0065 23.5263ZM33.871 23.5263C34.9447 23.5263 35.7973 22.6737 35.7973 21.6316V16.7053C35.7973 12.7579 37.6605 10.6737 40.3763 10.2C41.2289 10.0421 41.8921 9.37895 41.8921 8.36842C41.8921 7.26316 41.1974 6.47369 39.9974 6.47369C38.3237 6.47369 36.6816 8.05263 35.7973 10.1368V8.43158C35.7973 7.3579 34.9447 6.50527 33.871 6.50527C32.7974 6.50527 31.9763 7.3579 31.9763 8.43158V21.6316C31.9763 22.7053 32.8289 23.5263 33.871 23.5263ZM51.2093 23.7474C53.9882 23.7474 55.7882 22.8 57.2724 21.3789C57.6198 21.0947 57.8092 20.6842 57.8092 20.1789C57.8092 19.2632 57.0829 18.5053 56.1671 18.5053C55.725 18.5053 55.3461 18.7263 55.125 18.9158C54.0829 19.8 52.9145 20.4 51.3987 20.4C48.4619 20.4 46.4093 18.0316 46.4093 15.0632V15C46.4093 12.0947 48.4619 9.69474 51.2408 9.69474C52.7566 9.69474 53.8303 10.2947 54.8092 11.1158C55.0619 11.3053 55.4724 11.4947 55.9461 11.4947C56.925 11.4947 57.7145 10.7368 57.7145 9.7579C57.7145 9.12632 57.3671 8.65263 57.1145 8.43158C55.6935 7.2 53.8935 6.34737 51.2724 6.34737C46.2514 6.34737 42.5882 10.3263 42.5882 15.0632V15.1263C42.5882 19.8632 46.2514 23.7474 51.2093 23.7474ZM62.7054 23.5263C63.779 23.5263 64.6317 22.7053 64.6317 21.6316V2.05263C64.6317 1.01053 63.779 0.157898 62.7054 0.157898C61.6317 0.157898 60.8106 1.01053 60.8106 2.05263V21.6316C60.8106 22.7053 61.6632 23.5263 62.7054 23.5263ZM76.3172 23.7474C78.9067 23.7474 80.8014 22.8947 82.3172 21.5368C82.6014 21.2526 82.8225 20.8421 82.8225 20.3684C82.8225 19.4842 82.1594 18.8211 81.3067 18.8211C80.8646 18.8211 80.612 18.9474 80.3278 19.1684C79.2541 20.0526 77.9909 20.6211 76.3804 20.6211C73.9172 20.6211 71.9909 19.1053 71.5804 16.3895H82.033C83.012 16.3895 83.833 15.6316 83.833 14.5579C83.833 10.7053 81.212 6.34737 75.9067 6.34737C71.1383 6.34737 67.7594 10.2632 67.7594 15.0316V15.0947C67.7594 20.2421 71.4857 23.7474 76.3172 23.7474ZM80.1067 13.8632H71.5488C71.8962 11.2737 73.5383 9.47369 75.8751 9.47369C78.4015 9.47369 79.8541 11.4 80.1067 13.8632Z" fill="black"/>
</g>
<defs>
<clipPath id="clip0_1358_224769">
<rect width="83.3684" height="24" fill="white" transform="translate(0.714355)"/>
</clipPath>
</defs>
</svg>
