<svg width="112" height="30" viewBox="0 0 112 30" fill="none" xmlns="http://www.w3.org/2000/svg">
<path d="M49.2525 11.5229C48.8824 11.0148 48.3705 10.6273 47.781 10.4092C47.1757 10.1662 46.584 10.0447 46.0057 10.0447C45.267 10.0447 44.5942 10.1797 43.9897 10.4497C43.3958 10.7117 42.8607 11.0904 42.4162 11.5634C41.9785 12.0485 41.6365 12.6119 41.4082 13.2239C41.1748 13.8873 41.0589 14.5863 41.0655 15.2894C41.0655 16.0725 41.1795 16.788 41.4082 17.436C41.6191 18.0533 41.9477 18.6238 42.3757 19.116C42.807 19.5761 43.329 19.9418 43.9087 20.19C44.5005 20.4465 45.1657 20.5747 45.9052 20.5747C46.6717 20.5747 47.3505 20.4262 47.9422 20.1292C48.5332 19.8187 49.011 19.4137 49.374 18.9142L51.411 20.352C50.7888 21.1407 49.9956 21.7777 49.0912 22.215C48.177 22.647 47.1082 22.863 45.885 22.863C44.769 22.863 43.7407 22.6807 42.7995 22.3155C41.9045 21.9593 41.0889 21.4296 40.3995 20.757C39.7217 20.073 39.1873 19.2606 38.8274 18.3675C38.4509 17.436 38.2627 16.41 38.2627 15.2894C38.2627 14.1419 38.4577 13.1092 38.8477 12.1912C39.2512 11.2597 39.7957 10.4699 40.4812 9.82118C41.1945 9.16478 42.0306 8.65575 42.9412 8.32343C43.8825 7.97246 44.9047 7.79695 46.0065 7.79695C46.464 7.79695 46.941 7.8442 47.439 7.93871C47.9362 8.01971 48.414 8.15471 48.8707 8.34368C49.3282 8.51918 49.758 8.74118 50.1607 9.01118C50.5642 9.28118 50.907 9.60593 51.1897 9.98393L49.2525 11.5229ZM52.9087 7.18945H55.329V22.4985H52.9087V7.18945ZM65.0805 16.6665C65.0805 16.356 65.034 16.059 64.9395 15.7754C64.8626 15.4985 64.7247 15.2423 64.536 15.0254C64.3371 14.8023 64.0884 14.6291 63.81 14.5199C63.528 14.3849 63.192 14.3174 62.802 14.3174C62.076 14.3174 61.4573 14.5402 60.9465 14.9849C60.4493 15.4177 60.174 15.978 60.12 16.6665H65.0805ZM67.5008 17.76V18.084C67.5008 18.192 67.494 18.3 67.4805 18.408H60.12C60.147 18.759 60.234 19.083 60.3825 19.38C60.543 19.6635 60.7515 19.9125 61.0073 20.1292C61.2623 20.3317 61.5518 20.4937 61.8743 20.6152C62.1968 20.7367 62.5328 20.7975 62.883 20.7975C63.4875 20.7975 63.9983 20.6895 64.4153 20.4735C64.8268 20.2486 65.1792 19.9294 65.4435 19.542L67.0568 20.838C66.1028 22.134 64.7175 22.782 62.9025 22.782C62.1503 22.782 61.4573 22.6672 60.825 22.437C60.2149 22.2071 59.654 21.8635 59.172 21.4245C58.7049 20.9782 58.3343 20.4409 58.083 19.8457C57.828 19.2112 57.7005 18.4957 57.7005 17.6992C57.7005 16.9162 57.828 16.2067 58.083 15.573C58.3523 14.9249 58.7153 14.3782 59.172 13.9327C59.6303 13.4729 60.1799 13.1142 60.7853 12.8797C61.4327 12.6202 62.1247 12.4895 62.8223 12.4949C63.4943 12.4949 64.1123 12.6097 64.6778 12.8392C65.2461 13.0486 65.7573 13.3885 66.1703 13.8314C66.5865 14.2634 66.909 14.8102 67.1378 15.4717C67.38 16.1197 67.5008 16.8817 67.5008 17.7592V17.76ZM75.7358 21.2625H75.6758C75.4336 21.6952 75.0436 22.053 74.5058 22.3365C73.9681 22.6065 73.3561 22.7415 72.6706 22.7415C72.2805 22.7415 71.871 22.6875 71.4405 22.5795C71.0256 22.4858 70.6298 22.3214 70.2705 22.0935C69.9159 21.845 69.6142 21.5283 69.3833 21.162C69.1545 20.7705 69.0405 20.2912 69.0405 19.7242C69.0405 18.9952 69.2423 18.4147 69.6458 17.9827C70.0628 17.5507 70.5938 17.22 71.2388 16.9905C71.8838 16.761 72.5963 16.6125 73.3763 16.545C74.1467 16.4652 74.9207 16.4246 75.6953 16.4235V16.1805C75.6953 15.5729 75.4741 15.1274 75.0301 14.8439C74.5996 14.5469 74.0821 14.3984 73.4776 14.3984C72.9691 14.3978 72.4666 14.5084 72.0053 14.7224C71.5343 14.9384 71.1443 15.2017 70.8353 15.5122L69.585 14.0339C70.1316 13.5236 70.7768 13.1305 71.481 12.8789C72.1862 12.6264 72.9295 12.4965 73.6786 12.4949C74.5396 12.4949 75.2453 12.6164 75.7966 12.8594C76.3613 13.1024 76.8046 13.4197 77.1271 13.8112C77.4496 14.2027 77.6716 14.6414 77.7931 15.1274C77.9273 15.6135 77.9948 16.0995 77.9948 16.5855V22.4985H75.7351V21.2625H75.7358ZM75.6953 18.0637H75.1508C74.7608 18.0637 74.3513 18.084 73.9208 18.1237C73.5163 18.1461 73.1164 18.2213 72.7313 18.3472C72.3683 18.4552 72.0653 18.6172 71.8238 18.8332C71.5816 19.0357 71.4608 19.3192 71.4608 19.6837C71.4608 19.9132 71.508 20.109 71.6018 20.271C71.7091 20.4195 71.8441 20.541 72.0053 20.6355C72.1666 20.73 72.3481 20.7975 72.5498 20.838C72.7516 20.8785 72.9533 20.898 73.1543 20.898C73.9883 20.898 74.6198 20.676 75.0503 20.2305C75.4808 19.785 75.6953 19.1775 75.6953 18.408V18.063V18.0637ZM80.8141 12.7784H83.1331V14.3984H83.1736C83.4263 13.8507 83.8156 13.3768 84.3031 13.0214C84.7868 12.6704 85.3516 12.4949 85.9966 12.4949C86.0911 12.4949 86.1916 12.5017 86.2989 12.5152C86.4069 12.5152 86.5014 12.5287 86.5816 12.5557V14.7832C86.4421 14.7469 86.3003 14.7198 86.1578 14.7022C86.0506 14.6888 85.9433 14.682 85.8353 14.6819C85.2841 14.6819 84.8401 14.7832 84.5041 14.9857C84.1906 15.167 83.9221 15.416 83.7181 15.7147C83.5381 15.9789 83.4083 16.2738 83.3348 16.5847C83.2673 16.8825 83.2336 17.1187 83.2336 17.2942V22.4985H80.8141V12.7784ZM90.6196 7.18945V14.0137H90.6804C90.8019 13.8517 90.9564 13.6829 91.1446 13.5074C91.3321 13.3319 91.5541 13.1699 91.8099 13.0214C92.1031 12.863 92.4151 12.7406 92.7376 12.6569C93.1239 12.5438 93.5244 12.4892 93.9271 12.4949C94.6126 12.4949 95.2449 12.6299 95.8231 12.8999C96.4006 13.1564 96.8986 13.5142 97.3156 13.9724C97.7401 14.4446 98.0686 14.9948 98.2831 15.5924C98.5156 16.2354 98.6319 16.9144 98.6259 17.598C98.6304 18.2878 98.5141 18.9731 98.2831 19.623C98.0776 20.2267 97.7559 20.7841 97.3351 21.2632C96.9189 21.7321 96.4104 22.1111 95.8426 22.377C95.2651 22.647 94.6059 22.782 93.8664 22.782C93.1959 22.7852 92.5329 22.6327 91.9314 22.3365C91.3509 22.0498 90.8664 21.5992 90.5394 21.0405H90.4989V22.4985H88.2001V7.18945H90.6204H90.6196ZM96.1659 17.598C96.1659 17.22 96.1059 16.848 95.9844 16.4842C95.8824 16.1177 95.7114 15.774 95.4804 15.4717C95.2486 15.1724 94.9524 14.93 94.6126 14.7629C94.2631 14.5739 93.8536 14.4794 93.3826 14.4794C92.9394 14.4794 92.5426 14.5739 92.1931 14.7629C91.8436 14.9519 91.5406 15.1949 91.2856 15.4919C91.0404 15.7945 90.8491 16.137 90.7209 16.5045C90.6016 16.8708 90.5409 17.2533 90.5394 17.6385C90.5394 18.0165 90.5994 18.3945 90.7209 18.7725C90.8559 19.137 91.0434 19.4677 91.2856 19.7647C91.5406 20.0617 91.8436 20.3047 92.1931 20.4937C92.5426 20.6692 92.9394 20.7562 93.3826 20.7562C93.8536 20.7562 94.2631 20.6625 94.6126 20.4735C94.9501 20.2947 95.2464 20.0463 95.4804 19.7445C95.7084 19.4475 95.8764 19.11 95.9844 18.732C96.1036 18.3657 96.1644 17.9832 96.1659 17.598ZM101.001 12.7784H103.421V22.4985H101.001V12.7784ZM100.658 9.47768C100.658 9.08618 100.799 8.74868 101.081 8.46518C101.377 8.16821 101.747 8.01971 102.191 8.01971C102.633 8.01971 103.004 8.16146 103.299 8.44493C103.608 8.71493 103.763 9.05918 103.763 9.47768C103.763 9.89618 103.608 10.2472 103.299 10.5307C103.004 10.8007 102.634 10.9357 102.19 10.9357C101.747 10.9357 101.377 10.7932 101.081 10.5104C100.946 10.3747 100.838 10.2135 100.766 10.0363C100.694 9.85906 100.657 9.66923 100.658 9.47768ZM104.965 14.7224V12.7784H106.66V9.96368H109.039V12.7784H111.458V14.7224H109.038V19.2375C109.038 19.6702 109.112 20.028 109.26 20.3115C109.421 20.595 109.77 20.7367 110.309 20.7367C110.47 20.7367 110.645 20.7232 110.833 20.6962C111.02 20.6557 111.189 20.6017 111.337 20.5342L111.418 22.4377C111.17 22.5267 110.913 22.5878 110.651 22.62C110.356 22.674 110.074 22.701 109.804 22.701C109.159 22.701 108.635 22.6132 108.231 22.4377C107.828 22.2487 107.505 21.999 107.264 21.6877C107.033 21.3585 106.868 20.9873 106.779 20.595C106.697 20.1543 106.657 19.7068 106.659 19.2585V14.7224H104.964H104.965Z" fill="black"/>
<g filter="url(#filter0_f_1358_224770)">
<path d="M20.6003 27H9.46579L9.01129 26.9964C7.13118 26.9658 6.38335 26.7367 5.62986 26.3321C4.81841 25.8964 4.18157 25.2569 3.7476 24.4421L3.65772 24.2671C3.29625 23.5339 3.09811 22.7247 3.0834 20.8237L3.08252 9.40974C3.08252 7.18091 3.31363 6.37269 3.7476 5.55788C4.18157 4.74307 4.81841 4.1036 5.62986 3.66783L5.80416 3.57758C6.53431 3.21461 7.34016 3.01565 9.23336 3.00088L20.6003 3C22.8199 3 23.6248 3.23207 24.4362 3.66783C25.2477 4.1036 25.8845 4.74307 26.3185 5.55788L26.4083 5.7329C26.7698 6.46608 26.968 7.27525 26.9827 9.17627L26.9836 20.5903L26.9801 21.0466C26.9495 22.9345 26.7215 23.6855 26.3185 24.4421C25.8845 25.2569 25.2477 25.8964 24.4362 26.3321L24.2619 26.4224C23.5026 26.7999 22.6613 27 20.6003 27Z" fill="black" fill-opacity="0.2"/>
</g>
<path d="M26.9833 15V20.5903C26.9833 22.8191 26.7521 23.6273 26.3181 24.4421C25.8842 25.257 25.2474 25.8964 24.4359 26.3322C23.6244 26.7679 22.8195 27 20.6 27H15.0327V15H26.9833Z" fill="black" fill-opacity="0.3"/>
<path d="M15.0327 3H20.6C22.8195 3 23.6244 3.23207 24.4359 3.66783C25.2474 4.1036 25.8842 4.74307 26.3181 5.55788C26.7521 6.37269 26.9833 7.18091 26.9833 9.40967V15H15.0327V3Z" fill="black" fill-opacity="0.8"/>
<path d="M9.46579 3H15.0331V27H9.46579C7.2462 27 6.44131 26.7679 5.62986 26.3321C4.81841 25.8964 4.18157 25.2569 3.7476 24.4421C3.31363 23.6272 3.08252 22.819 3.08252 20.5903V9.40974C3.08252 7.18091 3.31363 6.37269 3.7476 5.55788C4.18157 4.74307 4.81841 4.1036 5.62986 3.66783C6.44131 3.23207 7.2462 3 9.46579 3Z" fill="black"/>
<defs>
<filter id="filter0_f_1358_224770" x="0.368279" y="0.28576" width="29.3294" height="29.4285" filterUnits="userSpaceOnUse" color-interpolation-filters="sRGB">
<feFlood flood-opacity="0" result="BackgroundImageFix"/>
<feBlend mode="normal" in="SourceGraphic" in2="BackgroundImageFix" result="shape"/>
<feGaussianBlur stdDeviation="1.35712" result="effect1_foregroundBlur_1358_224770"/>
</filter>
</defs>
</svg>
