<svg width="100" height="24" viewBox="0 0 100 24" fill="none" xmlns="http://www.w3.org/2000/svg">
<g clip-path="url(#clip0_1358_224771)">
<path d="M0.51709 17.6474L4.0445 14.9452C5.91857 17.3911 7.90968 18.5185 10.126 18.5185C12.3304 18.5185 14.2652 17.4044 16.0549 14.9778L19.6327 17.6148C17.0504 21.1141 13.8415 22.963 10.126 22.963C6.42228 22.963 3.18228 21.1259 0.51709 17.6474Z" fill="black"/>
<path d="M10.1143 5.9022L3.83582 11.3126L0.933594 7.94664L10.1277 0.0236816L19.2491 7.95257L16.3336 11.3066L10.1143 5.9022Z" fill="black"/>
<path d="M33.1604 19.6252C31.0167 19.6252 29.23 18.9304 27.7811 17.5407C26.3322 16.1318 25.6182 14.3259 25.6182 12.1215C25.6182 9.89924 26.3515 8.07257 27.8004 6.64294C29.27 5.19405 31.0567 4.47998 33.1811 4.47998C35.8019 4.47998 38.1233 5.61035 39.4745 7.37776L37.11 9.85924C35.9782 8.64738 34.7471 8.03257 33.4182 8.03257C32.2863 8.03257 31.353 8.40887 30.5782 9.18368C29.8241 9.9585 29.4478 10.9318 29.4478 12.1022C29.4478 13.2341 29.8241 14.1866 30.5782 14.9615C31.353 15.7155 32.2863 16.0918 33.3974 16.0918C34.8463 16.0918 36.1174 15.4563 37.1693 14.2059L39.6315 16.5689C38.9559 17.4622 38.0433 18.197 36.9115 18.7718C35.7796 19.3481 34.5293 19.6252 33.1589 19.6252H33.1604ZM43.7974 4.26072V19.4074H40.3041V4.26072H43.7974ZM47.1085 7.47553C45.9382 7.47553 45.0848 6.6222 45.0848 5.45183C45.0848 4.31998 45.9782 3.46664 47.1085 3.46664C48.2404 3.46664 49.1145 4.31998 49.1145 5.45183C49.1145 6.6222 48.2404 7.47701 47.1085 7.47701V7.47553ZM48.8759 8.44887V19.4074H45.3619V8.44887H48.8759ZM55.6019 19.6459C53.8745 19.6459 52.4848 19.1096 51.3945 18.037C50.3219 16.9659 49.7856 15.5955 49.7856 13.9081C49.7856 12.2207 50.3219 10.8518 51.4137 9.77924C52.5056 8.70664 53.9145 8.17183 55.6611 8.17183C57.9441 8.17183 59.95 9.28294 60.8819 11.3674L58.0833 12.837C57.5278 11.9037 56.753 11.4266 55.7411 11.4266C55.0063 11.4266 54.4107 11.6652 53.9337 12.1422C53.7073 12.3763 53.5296 12.6529 53.4103 12.9559C53.291 13.2589 53.2328 13.5825 53.2389 13.9081C53.2389 15.357 54.2908 16.4296 55.7011 16.4296C56.713 16.4296 57.6463 15.8741 58.0433 15.0207L60.8433 16.6874C59.8893 18.5141 57.9248 19.6459 55.6019 19.6459ZM73.0285 19.4074H68.8582L65.6211 15.0593L65.1056 15.5363V19.4074H61.6137V4.26072H65.107V11.6252L68.4019 8.44887H72.67L67.9663 12.8563L73.0285 19.4074ZM73.2626 13.7096V4.73627H76.9944V13.6503C76.9944 15.2978 77.947 16.0918 79.3174 16.0918C80.667 16.0918 81.6196 15.2578 81.6196 13.6503V4.73627H85.3722V13.7096C85.3722 18.037 82.3737 19.6652 79.3174 19.6652C76.2804 19.6652 73.2626 18.037 73.2626 13.7096ZM93.6656 8.17183C95.2345 8.17183 96.5056 8.72738 97.5174 9.8385C98.5293 10.9303 99.0256 12.3007 99.0256 13.9081C99.0256 15.517 98.51 16.8859 97.4982 18.0178C96.4848 19.1289 95.2152 19.6859 93.6863 19.6859C92.4744 19.6859 91.4226 19.2889 90.5693 18.4948V23.9141H87.0552V8.44887H90.51V9.4622C91.3633 8.60739 92.4152 8.17183 93.6656 8.17183ZM95.4522 13.9481C95.4522 12.5185 94.4211 11.4266 92.9915 11.4266C91.5619 11.4266 90.51 12.5185 90.51 13.9481C90.51 14.6429 90.747 15.2385 91.2048 15.7348C91.6804 16.2311 92.2759 16.4696 92.9915 16.4696C93.7056 16.4696 94.3011 16.2311 94.7574 15.7348C95.2127 15.2521 95.4623 14.6115 95.4537 13.9481H95.4522Z" fill="black"/>
</g>
<defs>
<clipPath id="clip0_1358_224771">
<rect width="98.6667" height="24" fill="white" transform="translate(0.458008)"/>
</clipPath>
</defs>
</svg>
