<svg width="72" height="24" viewBox="0 0 72 24" fill="none" xmlns="http://www.w3.org/2000/svg">
<g clip-path="url(#clip0_1358_224772)">
<path d="M60.4603 15.1528L60.6342 14.5514C60.8415 13.8362 60.7644 13.1749 60.4167 12.6891C60.0966 12.2417 59.5634 11.9781 58.9158 11.9475L46.6502 11.7923C46.6122 11.7916 46.5748 11.7819 46.5412 11.764C46.5075 11.7462 46.4787 11.7207 46.4567 11.6896C46.4353 11.6574 46.4216 11.6207 46.4167 11.5824C46.412 11.544 46.4163 11.505 46.4292 11.4686C46.4502 11.4085 46.4884 11.3559 46.539 11.3173C46.5897 11.2787 46.6505 11.2557 46.7141 11.2512L59.0932 11.0944C60.5617 11.027 62.1516 9.83631 62.7083 8.38437L63.4142 6.54106C63.4431 6.46312 63.4498 6.37867 63.4333 6.29719C62.6318 2.69425 59.4139 0 55.5664 0C52.0215 0 49.0116 2.28633 47.9319 5.46419C47.2024 4.91699 46.2927 4.66543 45.3854 4.7599C43.6848 4.92865 42.3174 6.2969 42.149 7.9966C42.1058 8.42101 42.1374 8.84971 42.2425 9.26321C39.4643 9.34414 37.2363 11.6186 37.2363 14.4144C37.2367 14.664 37.2551 14.9132 37.2915 15.1602C37.2996 15.2172 37.3278 15.2694 37.3712 15.3074C37.4146 15.3453 37.4703 15.3664 37.5279 15.3667L60.1723 15.3696C60.1744 15.3697 60.1765 15.3697 60.1787 15.3696C60.2428 15.3684 60.3047 15.3468 60.3554 15.3077C60.4061 15.2686 60.4429 15.2143 60.4603 15.1528Z" fill="black"/>
<path d="M64.546 6.67471C64.4324 6.67471 64.3191 6.67757 64.2063 6.68327C64.1881 6.68457 64.1703 6.68849 64.1532 6.69488C64.1237 6.70498 64.097 6.72209 64.0754 6.74474C64.0539 6.76739 64.0382 6.79493 64.0297 6.82497L63.5474 8.48957C63.3401 9.20492 63.4171 9.86557 63.7652 10.3514C64.085 10.7994 64.6182 11.0623 65.2657 11.093L67.8806 11.2498C67.9173 11.2511 67.9533 11.2608 67.9857 11.2784C68.0179 11.2959 68.0457 11.3208 68.0668 11.3509C68.0885 11.3832 68.1024 11.4202 68.1071 11.4588C68.1119 11.4974 68.1076 11.5366 68.0944 11.5733C68.0734 11.6332 68.0352 11.6857 67.9847 11.7243C67.9342 11.763 67.8735 11.786 67.8101 11.7906L65.0933 11.9475C63.6181 12.0155 62.0286 13.2056 61.4724 14.6575L61.2762 15.1701C61.268 15.1915 61.265 15.2146 61.2674 15.2374C61.2699 15.2602 61.2777 15.2822 61.2904 15.3014C61.303 15.3205 61.3199 15.3365 61.3399 15.3478C61.3599 15.359 61.3824 15.3656 61.4053 15.3665C61.4078 15.3665 61.41 15.3665 61.4125 15.3665H70.7609C70.8153 15.367 70.8683 15.3497 70.9119 15.3172C70.9554 15.2847 70.9872 15.2389 71.0022 15.1867C71.1678 14.5961 71.2516 13.9857 71.251 13.3724C71.2499 9.67361 68.2484 6.67471 64.546 6.67471Z" fill="black"/>
<path d="M8.04102 18.1348H9.63584V22.4883H12.4228V23.8846H8.04102V18.1348Z" fill="black"/>
<path d="M14.0742 21.0262V21.0099C14.0742 19.3589 15.4059 18.0196 17.1816 18.0196C18.9572 18.0196 20.2722 19.3423 20.2722 20.9934V21.0099C20.2722 22.661 18.9403 23.9994 17.1653 23.9994C15.3902 23.9994 14.0742 22.6773 14.0742 21.0262ZM18.6445 21.0262V21.0099C18.6445 20.1814 18.0447 19.4571 17.1653 19.4571C16.2938 19.4571 15.71 20.1637 15.71 20.9934V21.0099C15.71 21.8386 16.3101 22.5625 17.1816 22.5625C18.0611 22.5625 18.6445 21.856 18.6445 21.0262Z" fill="black"/>
<path d="M22.2246 21.363V18.1346H23.8441V21.3303C23.8441 22.1589 24.2634 22.5541 24.9043 22.5541C25.5454 22.5541 25.9646 22.1764 25.9646 21.3712V18.1346H27.5843V21.321C27.5843 23.1775 26.524 23.9903 24.888 23.9903C23.252 23.9903 22.2246 23.1618 22.2246 21.3621" fill="black"/>
<path d="M30.0249 18.135H32.2444C34.2997 18.135 35.4916 19.3177 35.4916 20.9768V20.9936C35.4916 22.6524 34.2832 23.8848 32.2117 23.8848H30.0249V18.135ZM32.2693 22.4713C33.2232 22.4713 33.8556 21.9465 33.8556 21.0171V21.0008C33.8556 20.0811 33.2232 19.547 32.2693 19.547H31.6198V22.4718L32.2693 22.4713Z" fill="black"/>
<path d="M37.8091 18.1348H42.4124V19.5315H39.404V20.5086H42.1248V21.831H39.404V23.8846H37.8091V18.1348Z" fill="black"/>
<path d="M44.6318 18.1348H46.2266V22.4883H49.0136V23.8846H44.6318V18.1348Z" fill="black"/>
<path d="M53.181 18.0936H54.7177L57.1677 23.8846H55.4579L55.0383 22.8577H52.8186L52.4079 23.8846H50.731L53.181 18.0936ZM54.5782 21.6176L53.9369 19.9828L53.2874 21.6176H54.5782Z" fill="black"/>
<path d="M59.2217 18.1346H61.9426C62.8226 18.1346 63.4304 18.3649 63.8168 18.759C64.1543 19.0877 64.3267 19.5323 64.3267 20.0983V20.1145C64.3267 20.9932 63.8569 21.5765 63.1429 21.8802L64.5159 23.8849H62.6739L61.5149 22.1431H60.8164V23.8849H59.2217V18.1346ZM61.8688 20.8948C62.4113 20.8948 62.7239 20.6319 62.7239 20.2129V20.1965C62.7239 19.7447 62.395 19.515 61.8601 19.515H60.8164V20.8959L61.8688 20.8948Z" fill="black"/>
<path d="M66.6279 18.1348H71.2558V19.4904H68.2065V20.3606H70.9686V21.6176H68.2065V22.5295H71.2969V23.8846H66.6279V18.1348Z" fill="black"/>
<path d="M4.54914 21.7001C4.32581 22.2047 3.85592 22.5621 3.23153 22.5621C2.35976 22.5621 1.75998 21.8393 1.75998 21.0097V20.9931C1.75998 20.1645 2.34346 19.4569 3.21496 19.4569C3.87195 19.4569 4.37224 19.8608 4.58342 20.4101H6.26448C5.99527 19.0416 4.79181 18.0199 3.23153 18.0199C1.45566 18.0199 0.124512 19.36 0.124512 21.0097V21.026C0.124512 22.6771 1.43936 24 3.21496 24C4.73378 24 5.92091 23.0173 6.23408 21.7004L4.54914 21.7001Z" fill="black"/>
</g>
<defs>
<clipPath id="clip0_1358_224772">
<rect width="71.1724" height="24" fill="white" transform="translate(0.124512)"/>
</clipPath>
</defs>
</svg>
