<svg width="71" height="24" viewBox="0 0 71 24" fill="none" xmlns="http://www.w3.org/2000/svg">
<g clip-path="url(#clip0_1358_224773)">
<path d="M0.296875 14.6529C0.296875 20.4172 4.28688 24 9.33545 24C11.1097 24 12.884 23.5714 14.1783 22.6029V18.0986C13.0055 19.1458 11.4863 19.7214 9.91402 19.7143C7.29116 19.7143 5.19973 17.8372 5.19973 14.6657C5.19973 11.4943 7.28259 9.65144 9.91402 9.65144C11.4945 9.62123 13.027 10.1944 14.1997 11.2543V6.74144C12.914 5.75144 11.1312 5.3743 9.35687 5.3743C4.28687 5.3743 0.296875 8.95715 0.296875 14.6529Z" fill="black"/>
<path d="M24.4638 5.3743C19.3209 5.3743 15.7295 9.19715 15.7295 14.6529C15.7295 20.1086 19.3123 24 24.4638 24C29.6152 24 33.2281 20.1429 33.2281 14.6529C33.2281 9.16287 29.6495 5.3743 24.4638 5.3743ZM24.4638 19.8043C22.0081 19.8043 20.6409 17.6614 20.6409 14.6614C20.6409 11.6614 22.0081 9.5443 24.4638 9.5443C26.9195 9.5443 28.2824 11.6872 28.2824 14.6614C28.2824 17.6357 26.9538 19.8043 24.4638 19.8043Z" fill="black"/>
<path d="M47.2982 7.25143C46.7132 6.65061 46.0125 6.17451 45.238 5.85189C44.464 5.52926 43.6326 5.36679 42.7939 5.37429C37.6082 5.37429 34.6768 9.57 34.6768 14.6529C34.6768 19.7957 37.6082 24 42.7939 24C43.6313 23.9997 44.4606 23.8338 45.2338 23.5116C46.0069 23.1894 46.7085 22.7175 47.2982 22.1229V23.5929H52.2439V0H47.2982V7.25143ZM47.2982 17.6229C46.9776 18.2411 46.4929 18.759 45.8968 19.1196C45.301 19.4803 44.6175 19.6697 43.921 19.6671C41.2253 19.6671 39.6353 17.5243 39.6353 14.6529C39.6353 11.7814 41.2382 9.67286 43.921 9.67286C44.6213 9.6744 45.3075 9.86983 45.9036 10.2375C46.4998 10.6051 46.9823 11.1306 47.2982 11.7557V17.6229Z" fill="black"/>
<path d="M62.1397 5.3743C59.7525 5.3743 57.4682 6.02573 56.1697 6.8443V11.13C57.6178 10.1758 59.3128 9.66498 61.0468 9.66001C63.5711 9.66001 65.0411 10.7529 65.0411 12.4929V13.4829C64.3211 12.9686 62.5811 12.4243 61.0468 12.4243C57.1254 12.4243 54.1597 14.7429 54.1597 18.1543C54.1597 21.84 57.1254 23.9186 60.7425 23.9186C62.6839 23.9186 64.4582 23.2372 65.0282 22.6586V23.6143H69.8025V12.1972C69.8154 7.8643 67.0168 5.3743 62.1397 5.3743ZM65.0411 18.7457C64.6125 19.7014 63.3011 20.2843 61.8997 20.2843C60.3311 20.2843 58.7282 19.6329 58.7282 18.0986C58.7282 16.5643 60.3311 15.9172 61.8997 15.9172C63.3011 15.9172 64.5954 16.4957 65.0411 17.4514V18.7457Z" fill="black"/>
</g>
<defs>
<clipPath id="clip0_1358_224773">
<rect width="69.8571" height="24" fill="white" transform="translate(0.296875)"/>
</clipPath>
</defs>
</svg>
