<svg width="73" height="24" viewBox="0 0 73 24" fill="none" xmlns="http://www.w3.org/2000/svg">
<g clip-path="url(#clip0_1358_224774)">
<path fill-rule="evenodd" clip-rule="evenodd" d="M12.5864 22.3301C12.5864 22.7002 12.8864 23.0002 13.2565 23.0002H22.5036C22.8736 23.0002 23.1759 22.6994 23.1528 22.33C22.8209 17.0168 18.57 12.7657 13.2566 12.4339C12.8873 12.4108 12.5864 12.713 12.5864 13.0831V22.3301Z" fill="black"/>
<path fill-rule="evenodd" clip-rule="evenodd" d="M10.7219 13.1027C10.7219 12.7326 10.4219 12.4326 10.0518 12.4326H0.804741C0.434658 12.4326 0.132453 12.7335 0.155537 13.1028C0.487426 18.4161 4.73839 22.6671 10.0517 22.999C10.421 23.022 10.7219 22.7198 10.7219 22.3498V13.1027Z" fill="black"/>
<path fill-rule="evenodd" clip-rule="evenodd" d="M10.7219 9.89751C10.7219 10.2676 10.4219 10.5676 10.0518 10.5676H0.804741C0.434658 10.5676 0.132453 10.2667 0.155537 9.89736C0.487426 4.58409 4.73839 0.333129 10.0517 0.00124037C10.421 -0.0218437 10.7219 0.280361 10.7219 0.650444V9.89751Z" fill="black"/>
<path fill-rule="evenodd" clip-rule="evenodd" d="M12.5864 0.670076C12.5864 0.300003 12.8864 0 13.2565 0H22.5036C22.8736 0 23.1759 0.300851 23.1528 0.670203C22.8209 5.98347 18.57 10.2345 13.2566 10.5664C12.8873 10.5894 12.5864 10.2872 12.5864 9.91714V0.670076Z" fill="black"/>
<path d="M40.0316 12.9644C39.7256 14.265 39.0562 15.3233 38.0234 16.1393C36.9906 16.9426 35.8048 17.3443 34.466 17.3443C32.8849 17.3443 31.5397 16.796 30.4304 15.6994C29.3338 14.6029 28.7856 13.2577 28.7856 11.6639C28.7856 10.0955 29.3275 8.76309 30.4113 7.66653C31.4951 6.56998 32.8211 6.0217 34.3895 6.0217C35.7665 6.0217 36.9778 6.42972 38.0234 7.24576C39.0689 8.0618 39.732 9.13923 40.0125 10.4781H36.7993C36.3403 9.4835 35.5498 8.98622 34.4277 8.98622C33.6882 8.98622 33.0953 9.24761 32.649 9.77038C32.2027 10.2932 31.9796 10.9307 31.9796 11.683C31.9796 12.448 32.2091 13.0919 32.6681 13.6147C33.1399 14.1247 33.7519 14.3797 34.5042 14.3797C35.537 14.3797 36.3021 13.908 36.7993 12.9644H40.0316ZM47.0574 9.21573C46.2414 9.24123 45.6166 9.38787 45.1831 9.65563C44.7623 9.91064 44.5519 10.4143 44.5519 11.1666V17H41.377V6.38509H44.3606V7.51352H44.3989C44.9089 6.51898 45.7951 6.0217 47.0574 6.0217V9.21573ZM58.9627 17H55.7878V15.8524H55.7495C55.4818 16.3625 55.0546 16.745 54.4681 17C53.8943 17.2423 53.2887 17.3634 52.6511 17.3634C51.0573 17.3634 49.7695 16.8215 48.7877 15.7377C47.8059 14.6539 47.315 13.3023 47.315 11.683C47.315 10.1019 47.8123 8.76309 48.8068 7.66653C49.8014 6.56998 51.0828 6.0217 52.6511 6.0217C53.2887 6.0217 53.888 6.14921 54.449 6.40422C55.0228 6.64648 55.4563 7.01625 55.7495 7.51352H55.7878V6.38509H58.9627V17ZM55.7878 11.683C55.7878 10.9052 55.5328 10.2613 55.0228 9.75126C54.5255 9.24123 53.888 8.98622 53.1102 8.98622C52.3451 8.98622 51.714 9.25398 51.2167 9.78951C50.7322 10.3123 50.4899 10.9562 50.4899 11.7212C50.4899 12.4608 50.7449 13.0919 51.2549 13.6147C51.765 14.1375 52.3898 14.3989 53.1293 14.3989C53.8943 14.3989 54.5255 14.1375 55.0228 13.6147C55.5328 13.0919 55.7878 12.448 55.7878 11.683ZM71.626 8.79496H70.0959V17H66.921V8.79496H64.186V17H61.0111V8.79496H59.8253V6.38509H61.0111V6.0982C61.0111 3.9306 62.3627 2.8468 65.0658 2.8468H65.544V5.23754H65.1806C65.0403 5.23754 64.9064 5.25666 64.7789 5.29491C64.6514 5.32042 64.5175 5.41605 64.3773 5.5818C64.2498 5.74756 64.186 5.96432 64.186 6.23209V6.38509H66.921V2.8468H70.0959V6.38509H71.626V8.79496Z" fill="black"/>
</g>
<defs>
<clipPath id="clip0_1358_224774">
<rect width="72" height="24" fill="white" transform="translate(0.154297)"/>
</clipPath>
</defs>
</svg>
