<svg width="68" height="24" viewBox="0 0 68 24" fill="none" xmlns="http://www.w3.org/2000/svg">
<g clip-path="url(#clip0_1358_224775)">
<path d="M24.0968 5.71341C23.7497 5.71341 23.4683 5.99486 23.4683 6.34196V15.1734C23.4683 15.5202 23.7497 15.8017 24.0968 15.8017H26.0938C27.2268 15.8017 28.2546 15.6839 28.9147 15.4783C29.3898 15.3311 29.8681 15.0199 30.42 14.4981C30.8873 14.0568 31.2547 13.5038 31.5116 12.8543C31.7772 12.1819 31.9067 11.4728 31.9067 10.6865C31.9067 9.58948 31.6757 8.64558 31.1997 7.8024C30.7677 7.03565 30.1972 6.49041 29.4029 6.08515C28.6733 5.71347 27.5885 5.71341 26.2157 5.71341H24.0968ZM61.7616 5.71341C61.6219 5.71341 61.5083 5.82663 61.5083 5.96661V15.5484C61.5083 15.6883 61.6219 15.8019 61.7616 15.8019H66.5524C66.6918 15.8019 66.8066 15.6883 66.8066 15.5484V14.4215C66.8066 14.2809 66.6918 14.1677 66.5524 14.1677H63.4244V5.96661C63.4244 5.82663 63.3104 5.71341 63.171 5.71341H61.7616ZM25.3846 7.34767H26.35C27.6329 7.34767 28.5121 7.59975 29.039 8.11861C29.6655 8.73578 29.9695 9.56151 29.9695 10.643C29.9695 11.3699 29.8307 12.0329 29.5798 12.5092C29.2774 13.0802 28.9285 13.4786 28.5709 13.6612C28.079 13.9114 27.4597 14.1677 26.5967 14.1677H25.3846V7.34767ZM37.1892 7.84415C36.0508 7.84415 35.1297 8.22027 34.3746 8.99392C33.619 9.76846 33.2521 10.7148 33.2521 11.8868C33.2521 13.0307 33.6199 13.9562 34.3782 14.7161C35.1354 15.4759 36.0895 15.845 37.2947 15.845C38.0693 15.845 38.7408 15.7089 39.2899 15.4409C39.7527 15.2155 40.1636 14.8885 40.5125 14.4686C40.5628 14.408 40.5817 14.3273 40.564 14.2503C40.5472 14.1735 40.4948 14.1091 40.4234 14.0758L39.2899 13.5546C39.2006 13.5132 39.0936 13.5279 39.018 13.593C38.5121 14.0303 37.9273 14.2525 37.2804 14.2525C36.6342 14.2525 36.1435 14.1058 35.7802 13.8046C35.3935 13.4835 35.1789 13.1484 35.0802 12.7021H40.9841C41.1235 12.7021 41.237 12.5897 41.2379 12.45L41.2391 12.1998C41.2391 10.8935 40.8287 9.72559 40.1129 8.99392C39.3558 8.22027 38.3999 7.84415 37.1892 7.84415ZM46.5217 7.84415C45.3824 7.84415 44.4622 8.22027 43.7072 8.99392C42.9518 9.76846 42.5846 10.7148 42.5846 11.8868C42.5846 13.0304 42.9527 13.9556 43.7108 14.7161C44.4679 15.4759 45.422 15.845 46.6273 15.845C47.4018 15.845 48.0732 15.7089 48.6223 15.4409C49.0848 15.2155 49.4961 14.8885 49.845 14.4688C49.8951 14.408 49.9149 14.3274 49.8966 14.2507C49.8798 14.1736 49.8276 14.1091 49.756 14.0758L48.6223 13.5546C48.5324 13.5132 48.4257 13.5279 48.3504 13.593C47.8436 14.0303 47.2591 14.2525 46.6128 14.2525C45.9666 14.2525 45.4759 14.1059 45.1117 13.805C44.725 13.4836 44.5114 13.1481 44.4128 12.7021H50.3165C50.4562 12.7021 50.569 12.5897 50.5696 12.45L50.5716 12.1998C50.5716 10.8932 50.1612 9.725 49.4454 8.99392C48.6874 8.22027 47.7315 7.84415 46.5217 7.84415H46.5217ZM56.5071 7.84415C56.0466 7.84415 55.5805 7.93554 55.1926 8.1025C54.7406 8.29614 54.3252 8.56798 54.0227 8.86802L53.8426 9.01195L53.0308 8.24965H52.1787C52.0393 8.24965 51.9263 8.3627 51.9263 8.50208V18.3669C51.9263 18.5069 52.0396 18.6202 52.1796 18.6202H53.5888C53.7287 18.6202 53.8426 18.5067 53.8426 18.3664V14.7197L54.0218 14.856C54.4076 15.2169 54.9061 15.4657 55.2583 15.6114C55.6327 15.766 56.0439 15.8452 56.48 15.8452C57.471 15.8452 58.304 15.4711 59.0276 14.7026C59.7494 13.9361 60.1009 13.0057 60.1009 11.8586C60.1009 10.6938 59.7485 9.72141 59.0504 8.96905C58.3604 8.22238 57.5046 7.84415 56.5071 7.84415ZM37.2848 9.41488C37.747 9.41488 38.1908 9.5647 38.6026 9.85995C38.9647 10.1192 39.2284 10.4984 39.3618 10.9435L39.3915 11.0673H35.0974L35.1417 10.9516C35.3977 10.3908 35.6318 10.0374 35.8572 9.87103C36.2649 9.56858 36.7453 9.41488 37.2848 9.41488ZM46.6167 9.41488C47.0792 9.41488 47.5233 9.5644 47.9345 9.85995C48.2969 10.1192 48.5609 10.4984 48.6937 10.9439L48.724 11.0673H44.4302L44.4748 10.9513C44.7286 10.392 44.9625 10.0386 45.1885 9.87103C45.5973 9.56858 46.0772 9.41488 46.6167 9.41488ZM56.136 9.56281C56.7432 9.56281 57.2521 9.77748 57.6496 10.2019C58.0471 10.6252 58.2494 11.1757 58.2494 11.8379C58.2494 12.5048 58.0442 13.0609 57.6398 13.4913C57.2352 13.9221 56.7289 14.1409 56.136 14.1409C55.5251 14.1409 55.0115 13.9256 54.6084 13.5024C54.2067 13.0783 54.0024 12.516 54.0024 11.831C54.0024 11.159 54.2068 10.6077 54.609 10.1911C55.0116 9.77416 55.5251 9.56281 56.136 9.56281Z" fill="black"/>
<path d="M13.112 12.2575C12.2736 12.2575 11.5944 11.5783 11.5944 10.7399C11.5944 10.6515 11.6019 10.5649 11.6169 10.4806L7.98753 8.39081C7.72345 8.61382 7.38204 8.74841 7.00946 8.74841C6.17107 8.74841 5.49155 8.06889 5.49155 7.2308C5.49155 6.39271 6.17107 5.71318 7.00946 5.71318C7.84785 5.71318 8.52737 6.39271 8.52737 7.2308C8.52737 7.32731 8.51748 7.42173 8.5001 7.51346L12.1162 9.59549C12.3827 9.36319 12.731 9.22231 13.112 9.22231C13.9498 9.22231 14.6293 9.90183 14.6293 10.7399C14.6293 11.5783 13.9498 12.2575 13.112 12.2575ZM8.50879 14.273C8.50879 15.1111 7.82956 15.7906 6.99117 15.7906C6.15338 15.7906 5.47386 15.1111 5.47386 14.273C5.47386 13.4346 6.15338 12.7551 6.99117 12.7551C7.36795 12.7551 7.71206 12.8927 7.97734 13.1199L10.6232 11.5993C10.7362 11.9257 10.9118 12.2231 11.1352 12.4772L8.48451 14.0009C8.5001 14.0893 8.50879 14.1801 8.50879 14.273ZM17.6342 5.01118L10.4278 0.893271C9.93708 0.613009 9.33459 0.613009 8.8439 0.893271L1.63801 5.01118C1.14044 5.29534 0.833496 5.82469 0.833496 6.3972V14.7739C0.833496 15.344 1.13774 15.8713 1.63172 16.1563L14.0373 23.317L14.0394 18.2309L17.6393 16.1563C18.1339 15.8713 18.4385 15.344 18.4385 14.7733V6.3972C18.4385 5.82469 18.1315 5.29534 17.6342 5.01118Z" fill="black"/>
</g>
<defs>
<clipPath id="clip0_1358_224775">
<rect width="67.3315" height="24" fill="white" transform="translate(0.154297)"/>
</clipPath>
</defs>
</svg>
