<svg width="125" height="24" viewBox="0 0 125 24" fill="none" xmlns="http://www.w3.org/2000/svg">
<g clip-path="url(#clip0_1358_224776)">
<path d="M26.4873 1.9529C24.4879 1.03845 22.3645 0.37198 20.1481 0C19.8691 0.48048 19.5591 1.13144 19.3421 1.64292C16.9847 1.30193 14.6443 1.30193 12.3194 1.64292C12.1024 1.13144 11.7769 0.48048 11.5134 0C9.28159 0.37198 7.15819 1.03845 5.17274 1.9529C1.15844 7.8736 0.0734897 13.6548 0.615964 19.3585C3.28183 21.2959 5.85473 22.4739 8.38266 23.2489C9.00263 22.4119 9.56061 21.5129 10.0411 20.5675C9.12663 20.2265 8.25867 19.808 7.42171 19.312C7.6387 19.1571 7.8557 18.9866 8.05719 18.8161C13.1099 21.1255 18.5827 21.1255 23.5734 18.8161C23.7904 18.9866 23.9919 19.1571 24.2089 19.312C23.3719 19.808 22.504 20.2265 21.5895 20.5675C22.07 21.5129 22.628 22.4119 23.2479 23.2489C25.7743 22.4739 28.3627 21.2959 31.0146 19.3585C31.681 12.7559 29.9591 7.0212 26.4873 1.9529ZM10.7385 15.8402C9.2196 15.8402 7.97966 14.4608 7.97966 12.7714C7.97966 11.082 9.1886 9.7025 10.7385 9.7025C12.2729 9.7025 13.5283 11.082 13.4973 12.7714C13.4973 14.4608 12.2729 15.8402 10.7385 15.8402ZM20.9231 15.8402C19.4041 15.8402 18.1626 14.4608 18.1626 12.7714C18.1626 11.082 19.3731 9.7025 20.9231 9.7025C22.4575 9.7025 23.7129 11.082 23.6819 12.7714C23.6819 14.4608 22.473 15.8402 20.9231 15.8402Z" fill="black"/>
<path d="M41.7559 4.86621H48.3447C49.9256 4.86621 51.274 5.11416 52.3745 5.61016C53.4749 6.10616 54.2964 6.78816 54.8389 7.67156C55.3813 8.55506 55.6603 9.56246 55.6603 10.7095C55.6603 11.8254 55.3814 12.8329 54.8079 13.7473C54.2344 14.6463 53.3665 15.3747 52.204 15.9017C51.0416 16.4287 49.6001 16.6922 47.8797 16.6922H41.7559V4.86621ZM47.8022 13.6853C48.8716 13.6853 49.6931 13.4218 50.2666 12.8794C50.8401 12.3524 51.1346 11.6084 51.1346 10.694C51.1346 9.84146 50.8711 9.15946 50.3596 8.64806C49.8481 8.13656 49.0732 7.87306 48.0347 7.87306H45.9733V13.6853H47.8022Z" fill="black"/>
<path d="M65.9219 16.6774C65.0074 16.4449 64.186 16.1039 63.4575 15.6389V12.8335C64.0155 13.2675 64.7439 13.6085 65.6739 13.8875C66.6038 14.1665 67.5028 14.306 68.3708 14.306C68.7737 14.306 69.0837 14.2595 69.2852 14.151C69.4867 14.0425 69.5952 13.9185 69.5952 13.7635C69.5952 13.593 69.5332 13.4535 69.4247 13.345C69.3162 13.2365 69.0992 13.1435 68.7737 13.0505L66.7433 12.6011C65.5809 12.3376 64.7594 11.9501 64.2634 11.4851C63.7675 11.0201 63.535 10.3847 63.535 9.60966C63.535 8.95866 63.752 8.38527 64.1704 7.90477C64.6044 7.42427 65.2089 7.05226 65.9994 6.78876C66.7898 6.52536 67.7043 6.38586 68.7737 6.38586C69.7192 6.38586 70.5871 6.47886 71.3776 6.69586C72.168 6.89726 72.819 7.16077 73.3305 7.47077V10.1212C72.8035 9.81116 72.1836 9.56316 71.5016 9.37716C70.8041 9.19116 70.0912 9.09816 69.3627 9.09816C68.3087 9.09816 67.7818 9.28417 67.7818 9.64067C67.7818 9.81117 67.8593 9.93516 68.0298 10.0282C68.2003 10.1212 68.4947 10.1987 68.9287 10.2917L70.6181 10.6017C71.7186 10.7876 72.54 11.1286 73.0825 11.6091C73.625 12.0896 73.8885 12.787 73.8885 13.7325C73.8885 14.7555 73.439 15.5769 72.54 16.1659C71.6411 16.7704 70.3701 17.0648 68.7272 17.0648C67.7663 17.0338 66.8363 16.9098 65.9219 16.6774Z" fill="black"/>
<path d="M78.075 16.3214C77.114 15.8409 76.3701 15.2055 75.8896 14.3995C75.3936 13.5935 75.1611 12.679 75.1611 11.656C75.1611 10.6486 75.4091 9.73415 75.9206 8.94375C76.4321 8.13775 77.176 7.51775 78.1525 7.05285C79.1289 6.60335 80.3069 6.37085 81.6708 6.37085C83.3602 6.37085 84.7552 6.72735 85.8711 7.44025V10.5246C85.4836 10.2611 85.0187 10.0286 84.4917 9.87365C83.9647 9.70315 83.4067 9.62565 82.8178 9.62565C81.7638 9.62565 80.9579 9.81165 80.3534 10.1991C79.7644 10.5866 79.4699 11.0826 79.4699 11.7025C79.4699 12.307 79.7489 12.803 80.3379 13.1905C80.9113 13.5779 81.7483 13.7794 82.8333 13.7794C83.3912 13.7794 83.9492 13.702 84.4917 13.5315C85.0342 13.361 85.5146 13.175 85.9021 12.927V15.9184C84.6621 16.6624 83.2207 17.0343 81.5933 17.0343C80.2139 17.0343 79.0514 16.7864 78.075 16.3214Z" fill="black"/>
<path d="M90.2901 16.3214C89.3136 15.8409 88.5697 15.2054 88.0582 14.3839C87.5467 13.5624 87.2832 12.648 87.2832 11.625C87.2832 10.6176 87.5467 9.70315 88.0582 8.91275C88.5697 8.12225 89.3136 7.50225 90.2746 7.05285C91.2355 6.60335 92.3979 6.37085 93.7324 6.37085C95.0654 6.37085 96.2278 6.58785 97.1888 7.05285C98.1497 7.50225 98.8937 8.12225 99.4052 8.91275C99.9166 9.70315 100.165 10.6021 100.165 11.625C100.165 12.6325 99.9166 13.5624 99.4052 14.3839C98.8937 15.2054 98.1652 15.8564 97.1888 16.3214C96.2123 16.7864 95.0654 17.0343 93.7324 17.0343C92.4134 17.0343 91.2665 16.7864 90.2901 16.3214ZM95.4218 13.33C95.8248 12.9271 96.0418 12.369 96.0418 11.7025C96.0418 11.0206 95.8403 10.4936 95.4218 10.0906C95.0034 9.68765 94.4454 9.48615 93.7479 9.48615C93.0195 9.48615 92.4599 9.68765 92.0415 10.0906C91.6385 10.4936 91.4215 11.0206 91.4215 11.7025C91.4215 12.3845 91.623 12.9271 92.0415 13.33C92.4599 13.7485 93.0195 13.9499 93.7479 13.9499C94.4454 13.9344 95.0189 13.733 95.4218 13.33Z" fill="black"/>
<path d="M110.534 6.99006V10.6325C110.1 10.3535 109.542 10.214 108.86 10.214C107.961 10.214 107.263 10.493 106.783 11.0354C106.302 11.5779 106.054 12.4304 106.054 13.5773V16.6772H101.916V6.81956H105.977V9.96596C106.194 8.81896 106.566 7.96656 107.062 7.42406C107.558 6.88156 108.209 6.58716 108.999 6.58716C109.588 6.58716 110.1 6.72666 110.534 6.99006Z" fill="black"/>
<path d="M124.486 4.52563V16.6925H120.348V14.4761C119.991 15.3131 119.464 15.9486 118.751 16.3825C118.037 16.8165 117.153 17.0335 116.099 17.0335C115.169 17.0335 114.348 16.801 113.65 16.3515C112.953 15.9021 112.411 15.2666 112.039 14.4761C111.667 13.6702 111.481 12.7712 111.481 11.7793C111.465 10.7408 111.667 9.81091 112.085 8.98941C112.488 8.16801 113.077 7.53251 113.821 7.06751C114.565 6.60251 115.417 6.37 116.378 6.37C118.347 6.37 119.666 7.2225 120.348 8.9429V4.52563H124.486ZM119.728 13.2517C120.146 12.8487 120.363 12.3062 120.363 11.6553C120.363 11.0198 120.162 10.5083 119.743 10.1209C119.325 9.73341 118.767 9.53192 118.068 9.53192C117.37 9.53192 116.812 9.73341 116.394 10.1364C115.975 10.5393 115.774 11.0508 115.774 11.7018C115.774 12.3527 115.975 12.8642 116.394 13.2672C116.812 13.6702 117.355 13.8717 118.052 13.8717C118.751 13.8717 119.309 13.6702 119.728 13.2517Z" fill="black"/>
<path d="M59.4742 7.4091C60.6629 7.4091 61.6286 6.5416 61.6286 5.4717C61.6286 4.40164 60.6629 3.5343 59.4742 3.5343C58.2838 3.5343 57.3198 4.40164 57.3198 5.4717C57.3198 6.5416 58.2838 7.4091 59.4742 7.4091Z" fill="black"/>
<path d="M61.6286 8.74097C60.3111 9.31437 58.6682 9.32987 57.3198 8.74097V16.6921H61.6286V8.74097Z" fill="black"/>
</g>
<defs>
<clipPath id="clip0_1358_224776">
<rect width="124" height="24" fill="white" transform="translate(0.48584)"/>
</clipPath>
</defs>
</svg>
