<svg width="80" height="24" viewBox="0 0 80 24" fill="none" xmlns="http://www.w3.org/2000/svg">
<g clip-path="url(#clip0_1358_224777)">
<path fill-rule="evenodd" clip-rule="evenodd" d="M7.42056 15.6637C5.28114 15.6637 3.72336 14.1485 3.72336 11.9497C3.72336 9.75097 5.28114 8.25954 7.42056 8.25954C9.55999 8.25954 11.1439 9.77473 11.1439 11.9497C11.1439 14.1247 9.58615 15.6637 7.42056 15.6637ZM11.0111 5.91272C11 6.27894 11.0175 6.6454 11.0634 7.00937H10.9588C10.2644 5.93831 8.60802 5.2785 6.78659 5.2785C2.8519 5.2785 0 8.04204 0 11.9973C0 15.9525 2.74523 18.7178 6.62759 18.7178C8.64022 18.7178 10.351 17.9593 11.2224 16.6159H11.3291C11.2879 16.9974 11.2684 17.3805 11.2707 17.7638V18.3267H14.6519V0H11.0111V5.91272Z" fill="black"/>
<path fill-rule="evenodd" clip-rule="evenodd" d="M23.3466 15.6875C21.2092 15.6875 19.7239 14.1485 19.7239 11.9497C19.7239 9.75097 21.2032 8.25954 23.3466 8.25954C25.4901 8.25954 26.9693 9.77473 26.9693 11.9497C26.9693 14.1247 25.5162 15.6875 23.3466 15.6875ZM23.3466 5.2785C19.0959 5.2785 16.0327 8.08773 16.0327 11.9973C16.0327 15.9068 19.0899 18.7178 23.3466 18.7178C27.6033 18.7178 30.6887 15.883 30.6887 11.9973C30.6887 8.11149 27.5933 5.2785 23.3466 5.2785Z" fill="black"/>
<path fill-rule="evenodd" clip-rule="evenodd" d="M43.646 7.11172C43.6501 6.63006 43.6239 6.14858 43.5675 5.66964H40.0273C40.0816 6.32945 40.0816 6.67124 40.0816 7.06237C40.0816 9.2849 38.4977 10.5808 36.3844 10.5808C36.1727 10.585 35.9609 10.5765 35.7504 10.5552V0H32.0532V18.3267H35.7504V13.4393C36.0141 13.4631 36.2797 13.4631 36.5172 13.4631C36.8071 13.4631 37.0969 13.4631 37.3625 13.4393L40.2929 18.3267H44.4389L40.7417 12.4871C42.855 11.2899 43.646 9.16427 43.646 7.11172Z" fill="black"/>
<path fill-rule="evenodd" clip-rule="evenodd" d="M48.0815 10.8988C48.4498 9.25383 49.6654 8.25954 51.4607 8.25954C53.1775 8.25954 54.3649 9.31049 54.6306 10.8988H48.0815ZM51.5412 5.2785C47.2885 5.2785 44.2515 8.06397 44.2515 11.9973C44.2515 15.883 47.2704 18.7178 51.5935 18.7178C53.9161 18.7178 55.7919 17.9593 57.1907 16.2742L55.0532 14.1979C54.1536 15.247 53.1513 15.6875 51.6197 15.6875C49.7178 15.6875 48.476 14.7352 48.0815 13.0738H58.1446C58.2212 12.7193 58.257 12.3585 58.2513 11.9973C58.2513 8.08773 55.5584 5.2785 51.5452 5.2785H51.5412Z" fill="black"/>
<path fill-rule="evenodd" clip-rule="evenodd" d="M67.7308 5.66599V13.4448C67.7308 14.6182 66.807 15.3987 65.6196 15.3987C64.3778 15.3987 63.4802 14.6182 63.4802 13.4448V5.66599H59.7749V13.4448C59.7749 16.329 61.862 18.4291 64.7139 18.4291H64.8789H64.9031H64.9876H65.0721C67.4672 18.3688 68.1897 17.0491 68.2924 16.8389C68.3044 16.9906 68.3085 17.1405 68.3085 17.2904C68.3085 19.2461 66.9097 20.7119 64.5066 20.7119C64.0839 20.7119 63.7136 20.7119 63.0011 20.6626V23.936C63.5183 23.9889 64.0385 24.0133 64.5589 24.0091C66.7728 24.0091 69.0733 23.278 70.3674 21.3224C70.8967 20.531 71.3978 19.6975 71.3978 18.1951C71.424 17.9502 71.424 17.6815 71.424 17.4128V5.66599H67.7308Z" fill="black"/>
<path d="M77.8563 18.164C79.0401 18.164 79.9998 17.2925 79.9998 16.2175C79.9998 15.1425 79.0401 14.271 77.8563 14.271C76.6725 14.271 75.7129 15.1425 75.7129 16.2175C75.7129 17.2925 76.6725 18.164 77.8563 18.164Z" fill="black"/>
</g>
<defs>
<clipPath id="clip0_1358_224777">
<rect width="80" height="24" fill="white"/>
</clipPath>
</defs>
</svg>
