<svg width="127" height="24" viewBox="0 0 127 24" fill="none" xmlns="http://www.w3.org/2000/svg">
<g clip-path="url(#clip0_1358_224780)">
<path fill-rule="evenodd" clip-rule="evenodd" d="M113.235 18.4278L117.874 12.1873L113.595 6.29086H117.259L119.737 9.96979L122.237 6.29086H125.88L121.538 12.1662L126.112 18.4278H122.512L119.695 14.4681L116.963 18.4278H113.235Z" fill="black"/>
<path fill-rule="evenodd" clip-rule="evenodd" d="M101.572 12.6018C101.572 16.6075 103.76 18.737 107.635 18.737C111.262 18.737 113.721 16.6075 113.721 12.6018V12.2645C113.721 8.21652 111.22 5.98172 107.635 5.98172C104.135 5.98172 101.572 8.17436 101.572 12.2645V12.6018ZM110.562 12.6027C110.562 14.8249 109.454 16.0313 107.635 16.0313C105.838 16.0313 104.73 14.8038 104.73 12.6027V12.3064C104.73 9.93609 105.9 8.68738 107.656 8.68738C109.433 8.68738 110.562 10.0208 110.562 12.3064V12.6027Z" fill="black"/>
<path fill-rule="evenodd" clip-rule="evenodd" d="M90.9751 16.2081C91.6324 17.7676 92.9469 18.737 94.9613 18.737C98.0778 18.737 100.114 16.4609 100.114 12.4147V12.0564C100.114 8.01022 97.951 6.00817 95.0461 5.9871C93.1166 5.9871 91.7596 6.85114 91.0812 8.4317V2.19376H87.9644V18.4209H90.7207L90.9751 16.2081ZM96.9546 12.4437C96.9546 14.8495 95.843 16.0313 94.0179 16.0313C92.2769 16.0313 91.1231 14.7228 91.1231 12.4437V12.1905C91.1231 10.1013 92.3188 8.68735 94.0599 8.68735C95.7381 8.68735 96.9546 9.91133 96.9546 12.1483V12.4437Z" fill="black"/>
<path fill-rule="evenodd" clip-rule="evenodd" d="M74.1143 6.30523V22.6022H77.2256V16.499C77.8818 17.917 79.173 18.7845 81.1202 18.7845C83.9988 18.7845 86.2635 16.6895 86.2635 12.6688V12.3302C86.2635 8.22487 84.2316 5.98172 81.1202 5.98172C79.1094 5.98172 77.7548 7.01865 77.0987 8.58462L76.7811 6.30523H74.1143ZM83.1048 12.5915C83.1048 14.8284 81.9509 16.0313 80.1469 16.0313C78.4058 16.0313 77.273 14.6807 77.273 12.5282V12.296C77.273 10.038 78.4478 8.68738 80.2099 8.68738C81.867 8.68738 83.1048 9.8903 83.1048 12.3171V12.5915Z" fill="black"/>
<path fill-rule="evenodd" clip-rule="evenodd" d="M60.2637 12.6018C60.2637 16.6075 62.4726 18.737 66.3487 18.737C69.9747 18.737 72.4129 16.6075 72.4129 12.6018V12.2645C72.4129 8.21652 69.933 5.98172 66.3487 5.98172C62.8477 5.98172 60.2637 8.17436 60.2637 12.2645V12.6018ZM69.2541 12.6027C69.2541 14.8249 68.1254 16.0313 66.3278 16.0313C64.5303 16.0313 63.4225 14.8038 63.4225 12.6027V12.3064C63.4225 9.93609 64.593 8.68738 66.3487 8.68738C68.1254 8.68738 69.2541 10.0208 69.2541 12.3064V12.6027Z" fill="black"/>
<path fill-rule="evenodd" clip-rule="evenodd" d="M51.7593 18.4279H54.946V12.8523C54.946 10.2758 55.5833 9.36767 58.2177 9.36767H59.5348V6.13641H58.7487C56.4757 6.13641 55.2222 7.12902 54.7335 9.072L54.3299 6.29031H51.7593V18.4279Z" fill="black"/>
<path fill-rule="evenodd" clip-rule="evenodd" d="M37.6665 3.43056V18.4277H43.4525C47.2215 18.4277 50.0589 16.2384 50.0589 11.3969V10.3654C50.0589 5.54494 47.0521 3.43056 43.3678 3.43056H37.6665ZM40.8254 6.13622H43.2358C45.4127 6.13622 46.9 7.51166 46.9 10.5376V11.3206C46.9 14.3465 45.4559 15.722 43.3436 15.722H40.8254V6.13622Z" fill="black"/>
<path d="M8.30494 0.307495L1.37158 4.71678L8.30494 9.12607L15.2394 4.71678L22.1728 9.12607L29.1062 4.71678L22.1728 0.307495L15.2394 4.71678L8.30494 0.307495Z" fill="black"/>
<path d="M8.30494 17.9448L1.37158 13.5354L8.30494 9.1261L15.2394 13.5354L8.30494 17.9448Z" fill="black"/>
<path d="M15.2393 13.5354L22.1727 9.1261L29.106 13.5354L22.1727 17.9448L15.2393 13.5354Z" fill="black"/>
<path d="M15.2392 23.8238L8.30469 19.4145L15.2392 15.0052L22.1726 19.4145L15.2392 23.8238Z" fill="black"/>
</g>
<defs>
<clipPath id="clip0_1358_224780">
<rect width="125.76" height="24" fill="white" transform="translate(0.912109)"/>
</clipPath>
</defs>
</svg>
