<svg width="84" height="24" viewBox="0 0 84 24" fill="none" xmlns="http://www.w3.org/2000/svg">
<g clip-path="url(#clip0_1358_224781)">
<path fill-rule="evenodd" clip-rule="evenodd" d="M11.2423 0.81796C12.312 -0.272653 14.0614 -0.272653 15.1305 0.81796L24.9049 10.7828C25.9734 11.8722 25.9734 13.6571 24.9049 14.7477L18.0686 21.7168C17.5686 22.2266 16.8775 22.5416 16.115 22.5416H10.259C9.56434 22.5416 8.93042 22.2806 8.44409 21.8497L1.47322 14.7422C0.40476 13.6522 0.40476 11.8685 1.47322 10.7779L11.2423 0.81796ZM14.8584 19.0094L13.8834 20.0035C13.812 20.0763 13.7132 20.1213 13.6043 20.1213H12.7691C12.6697 20.1213 12.5798 20.0842 12.5096 20.0223L11.5155 19.0082C11.3638 18.8534 11.3638 18.5991 11.5155 18.4432L12.909 17.0224C13.062 16.8664 13.312 16.8664 13.4638 17.0224L14.8584 18.4438C15.0114 18.5991 15.0114 18.8534 14.8584 19.0094ZM14.8584 13.0478L10.9596 17.023C10.8876 17.0958 10.7894 17.1407 10.681 17.1407H9.84531C9.74648 17.1407 9.65542 17.1037 9.58637 17.0418L8.59173 16.0283C8.43934 15.8723 8.43934 15.6174 8.59173 15.4626L12.909 11.0607C13.062 10.9054 13.312 10.9054 13.4644 11.0607L14.8584 12.4821C15.0114 12.6375 15.0114 12.8924 14.8584 13.0478ZM14.8584 7.0861L8.03635 14.0419C7.96374 14.1147 7.86551 14.1596 7.7572 14.1596H6.92205C6.82325 14.1596 6.73219 14.1226 6.66314 14.0607L5.66789 13.0465C5.51551 12.8918 5.51551 12.6369 5.66789 12.4809L12.909 5.09847C13.062 4.9425 13.3108 4.9425 13.4638 5.09847L14.8584 6.52045C15.0114 6.67582 15.0114 6.93074 14.8584 7.0861Z" fill="black"/>
<path d="M72.1854 9.15625V4.97224H69.2271V20.1352H72.1854V9.59991L75.8123 19.4555C75.8962 19.6673 75.9366 19.9009 75.9366 20.1352C75.9366 20.815 75.5622 21.4297 74.7916 21.5147C74.2086 21.5366 73.626 21.4722 73.0636 21.4085V23.8944C73.667 23.9581 74.2705 24 74.8754 24C76.8943 24 77.9362 23.2778 78.5824 21.5147L83.0814 9.15625H80.0195L77.6658 16.674H77.6247L75.1869 9.15625H72.1854Z" fill="black"/>
<path d="M37.5221 5.0572C37.0228 5.03597 36.4812 4.97224 35.9607 4.97224C33.5442 4.97224 32.3572 6.35294 32.3572 8.30599V9.15625H30.5864V11.173H32.3572V20.1352H35.3144V11.173H37.3562V9.15625H35.3144V8.49715C35.3144 7.58437 35.627 7.24389 36.4387 7.24389C36.7935 7.24389 37.1679 7.26636 37.5221 7.30883V5.0572Z" fill="black"/>
<path fill-rule="evenodd" clip-rule="evenodd" d="M68.5807 4.97224V20.1352H65.7681V18.7327H65.727C65.0394 19.9228 63.8521 20.432 62.4566 20.432C59.5038 20.432 57.927 18.099 57.6644 15.3783H49.9179C50.0018 17.3107 50.8964 18.1597 52.5637 18.1597C53.7495 18.1597 54.709 17.4157 54.8961 16.7377H57.5002C56.6657 19.3499 54.8961 20.432 52.459 20.432C49.3107 20.432 47.2733 18.3867 46.9943 15.3783H39.3779C39.4614 17.3107 40.3567 18.1597 42.0228 18.1597C43.2095 18.1597 44.1681 17.4157 44.3548 16.7377H46.9584C46.1262 19.3499 44.3548 20.432 41.919 20.432C38.5226 20.432 36.4189 18.0535 36.4189 14.6554C36.4189 11.3642 38.6478 8.85888 41.919 8.85888C44.8857 8.85888 46.6244 10.9175 47.0579 13.4926C47.5185 10.7919 49.5877 8.85888 52.459 8.85888C55.5727 8.85888 57.3336 11.1257 57.6526 13.8774C57.8793 11.1949 59.4711 8.85888 62.3948 8.85888C63.6644 8.85888 64.9145 9.41054 65.5807 10.4933H65.6235V4.97224H68.5807ZM41.8357 11.1305C39.9186 11.1305 39.4406 12.6175 39.3779 13.4671H44.1889C43.9179 11.9371 43.2728 11.1305 41.8357 11.1305ZM49.9179 13.4671C49.981 12.6175 50.4595 11.1305 52.3758 11.1305C53.8126 11.1305 54.4591 11.9371 54.7292 13.4671H49.9179ZM65.727 14.6136C65.727 12.8299 65.1021 11.1305 63.1853 11.1305C61.2497 11.1305 60.5823 12.8511 60.5823 14.6348C60.5823 16.3554 61.3526 18.1597 63.1853 18.1597C65.1235 18.1597 65.727 16.4185 65.727 14.6136Z" fill="black"/>
</g>
<defs>
<clipPath id="clip0_1358_224781">
<rect width="82.4096" height="24" fill="white" transform="translate(0.671875)"/>
</clipPath>
</defs>
</svg>
