<svg width="51" height="24" viewBox="0 0 51 24" fill="none" xmlns="http://www.w3.org/2000/svg">
<path d="M4.08454 24C6.29153 24 8.08314 22.2084 8.08314 20.0014V16.0028H4.08454C1.87755 16.0028 0.0859375 17.7944 0.0859375 20.0014C0.0859375 22.2084 1.87755 24 4.08454 24Z" fill="black"/>
<path d="M0.081543 12C0.081543 9.793 1.87315 8.00139 4.08014 8.00139H8.07874V16.0028H4.08014C1.87315 16.0028 0.081543 14.2112 0.081543 12.0042V12Z" fill="black"/>
<path d="M0.081543 3.9986C0.081543 1.79161 1.87315 0 4.08014 0H8.07874V8.0014H4.08014C1.87315 8.0014 0.081543 6.20979 0.081543 4.0028V3.9986Z" fill="black"/>
<path d="M8.04541 0H12.044C14.251 0 16.0426 1.79161 16.0426 3.9986C16.0426 6.20559 14.251 7.9972 12.044 7.9972H8.04541V0Z" fill="black"/>
<path d="M16.0846 12C16.0846 14.207 14.293 15.9986 12.086 15.9986C9.87898 15.9986 8.04541 14.207 8.04541 12C8.04541 9.793 9.83702 8.00139 12.044 8.00139C14.251 8.00139 16.0426 9.793 16.0426 12H16.0846Z" fill="black"/>
<path d="M20.4565 6.62936V15.0126H21.5349V11.0098H24.1279V9.96922H21.5349V7.67832H24.9041V6.62936H20.4565ZM26.8551 8.33286C27.2454 8.33286 27.56 8.01818 27.56 7.62797C27.56 7.23776 27.2412 6.96503 26.8551 6.96503C26.4691 6.96503 26.1502 7.27971 26.1502 7.66992C26.1502 7.85874 26.2258 8.03496 26.36 8.17342C26.4943 8.31188 26.6705 8.38321 26.8635 8.38321L26.8551 8.33286ZM26.3097 9.3902V15.0126H27.3461V9.3902H26.2761H26.3097ZM31.395 9.22237C29.96 9.22237 28.9614 10.4811 28.9614 11.8741C28.9614 13.2671 29.9684 14.5175 31.395 14.5175C31.6918 14.5227 31.9865 14.466 32.2603 14.3512C32.5341 14.2363 32.7809 14.0658 32.9852 13.8503V14.5972C32.9822 15.0459 32.8081 15.4766 32.4985 15.8014C32.3421 15.961 32.1553 16.0877 31.9493 16.1742C31.7432 16.2606 31.522 16.3051 31.2985 16.3049C30.9554 16.294 30.6229 16.1832 30.3419 15.986L29.7964 16.9217C30.2153 17.1911 30.6991 17.3425 31.1968 17.36C31.6945 17.3776 32.1877 17.2606 32.6245 17.0213C33.0614 16.7821 33.4256 16.4295 33.6788 16.0007C33.9321 15.5718 34.065 15.0826 34.0635 14.5846V9.38181H32.9852V9.88531C32.7809 9.66988 32.5341 9.49931 32.2603 9.38446C31.9865 9.26961 31.6918 9.21298 31.395 9.21818V9.22237ZM30.044 11.8741C30.0194 11.6013 30.0716 11.3271 30.1947 11.0824C30.3177 10.8378 30.5068 10.6324 30.7405 10.4895C31.2188 10.1958 31.8188 10.1958 32.2929 10.4895C32.767 10.7832 33.0356 11.3203 32.9894 11.8741C33.014 12.1469 32.9618 12.4211 32.8387 12.6658C32.7156 12.9105 32.5266 13.1159 32.2929 13.2587C31.8146 13.5524 31.2146 13.5524 30.7405 13.2587C30.2663 12.965 29.9978 12.428 30.044 11.8741Z" fill="black"/>
<path d="M37.953 10.3217C37.6429 10.3228 37.3458 10.4465 37.1265 10.6658C36.9072 10.8851 36.7835 11.1822 36.7824 11.4923V15.0504H35.7041V9.42798H36.7824V9.9021C37.1097 9.46574 37.63 9.21399 38.1754 9.22238C38.8635 9.2056 39.5055 9.57483 39.8454 10.1748C40.2649 9.58742 40.8691 9.23077 41.5237 9.22238C42.7531 9.22238 43.5167 10.2126 43.5209 11.4378V15.0168H42.4426V11.4504C42.4742 11.2282 42.4415 11.0016 42.3484 10.7975C42.2553 10.5933 42.1056 10.42 41.9172 10.2982C41.7287 10.1764 41.5093 10.1111 41.2849 10.1101C41.0605 10.109 40.8405 10.1723 40.651 10.2923C40.4624 10.4152 40.3132 10.5897 40.2209 10.795C40.1287 11.0003 40.0974 11.2278 40.1307 11.4504V15.0084H39.0943V11.4545C39.0932 11.1444 38.9695 10.8473 38.7502 10.628C38.5309 10.4087 38.2338 10.285 37.9237 10.2839L37.953 10.3217ZM49.2817 10.028C49.0363 9.77186 48.7411 9.56865 48.4142 9.43084C48.0873 9.29302 47.7357 9.22351 47.381 9.22658C45.774 9.22658 44.6537 10.586 44.6537 12.1636C44.6537 13.7413 45.7866 15.1007 47.381 15.1007C47.7357 15.1038 48.0873 15.0343 48.4142 14.8964C48.7411 14.7586 49.0363 14.5554 49.2817 14.2993V14.9371H50.36V9.31469H49.2817V10.028ZM45.7153 12.2098C45.6607 11.5385 45.988 10.8923 46.5628 10.5399C47.1377 10.1874 47.8216 10.1874 48.4342 10.5399C48.7147 10.714 48.9421 10.9618 49.0916 11.2563C49.241 11.5507 49.3068 11.8805 49.2817 12.2098C49.3363 12.8811 49.009 13.5273 48.4342 13.8797C47.8593 14.2322 47.1754 14.2322 46.5628 13.8797C46.2823 13.7056 46.0549 13.4578 45.9054 13.1633C45.756 12.8689 45.6902 12.5391 45.7153 12.2098Z" fill="black"/>
</svg>
