<svg width="88" height="24" viewBox="0 0 88 24" fill="none" xmlns="http://www.w3.org/2000/svg">
<g clip-path="url(#clip0_1358_224783)">
<path d="M8.05307 24.0117C5.83374 24.0117 1.65151 24.0117 1.65151 18.6498V14.9665C1.26515 14.8348 0.931313 14.5825 0.699209 14.2467C0.467105 13.9109 0.349014 13.5095 0.362344 13.1015V10.8892C0.36064 10.4838 0.483328 10.0876 0.713855 9.75409C0.944381 9.4206 1.27165 9.16584 1.65151 9.02419V5.36183C1.64918 0 5.78012 0 8.05307 0C8.31042 -1.82366e-07 8.56525 0.0507282 8.80299 0.149284C9.04072 0.24784 9.2567 0.392291 9.43857 0.574377C9.62044 0.756463 9.76463 0.972612 9.86291 1.21046C9.96118 1.44832 10.0116 1.70321 10.0113 1.96056V3.40593C11.1979 2.58067 12.6433 2.47343 13.4172 2.47343H15.4827C15.7486 2.46985 16.0123 2.52227 16.2567 2.6273C16.4751 2.5643 16.7008 2.52982 16.9281 2.52472H20.1755C20.433 2.52441 20.6881 2.57492 20.9261 2.67334C21.1641 2.77175 21.3804 2.91616 21.5625 3.09827C21.7446 3.28039 21.889 3.49664 21.9874 3.73465C22.0858 3.97265 22.1363 4.22773 22.136 4.48529V7.17319H25.078C25.3987 7.18667 25.7144 7.25691 26.0105 7.38067C26.6596 7.09086 27.3653 6.94987 28.076 6.96804C28.8058 6.95426 29.5299 7.09931 30.1981 7.39316C30.8664 7.68702 31.4627 8.12264 31.9458 8.66984C32.1463 8.88945 32.32 9.13204 32.4634 9.39252C32.7274 9.04201 33.0206 8.71446 33.3399 8.41341C34.4239 7.48092 35.9206 6.96804 37.7273 6.96804C39.2752 6.96804 40.5667 7.2781 41.6507 7.94716L41.702 7.89587C41.8875 7.66498 42.1235 7.47975 42.3919 7.35445C42.6603 7.22916 42.9538 7.16715 43.25 7.17319H46.2433C46.7879 7.18145 47.3073 7.40429 47.6886 7.7933C48.0699 7.40429 48.5893 7.18145 49.134 7.17319H51.1971C51.4618 7.1653 51.7249 7.21692 51.967 7.32424C52.2091 7.43157 52.424 7.59186 52.5959 7.7933C52.9645 7.41376 53.4658 7.19155 53.9946 7.17319H56.9366C57.2327 7.16715 57.5263 7.22916 57.7946 7.35445C58.063 7.47975 58.299 7.66498 58.4845 7.89587C58.5358 7.94716 58.5871 8.05207 58.6407 8.10335C59.7812 7.33169 61.1339 6.93483 62.5106 6.96804C64.4711 6.96804 66.0727 7.58815 67.2593 8.83303C67.5105 9.08464 67.7354 9.36115 67.9307 9.65828C68.0332 9.50442 68.1871 9.34823 68.292 9.19204C69.1173 8.1593 70.6652 6.97271 73.3484 6.97271C74.5911 6.95678 75.8172 7.25849 76.9106 7.84925C77.1799 7.50422 77.562 7.26491 77.9899 7.17319V4.42934C77.9896 4.17178 78.0401 3.9167 78.1385 3.6787C78.237 3.44069 78.3814 3.22444 78.5635 3.04232C78.7456 2.86021 78.9618 2.71581 79.1998 2.61739C79.4379 2.51897 79.6929 2.46847 79.9505 2.46877H83.2025C83.4597 2.46908 83.7143 2.52003 83.9518 2.61873C84.1892 2.71742 84.4049 2.86192 84.5865 3.04397C84.7682 3.22603 84.9122 3.44207 85.0103 3.67977C85.1084 3.91748 85.1588 4.17218 85.1584 4.42934V7.17319C85.6206 7.25422 86.0395 7.4953 86.3417 7.8542C86.6439 8.2131 86.8101 8.6669 86.8113 9.13609V11.4067C86.81 11.8756 86.6437 12.3291 86.3415 12.6876C86.0392 13.0461 85.6204 13.2867 85.1584 13.3673V14.9199H85.6247C86.1453 14.9199 86.6446 15.1267 87.0127 15.4948C87.3808 15.8629 87.5876 16.3622 87.5876 16.8828V19.5613C87.5876 19.819 87.5368 20.0741 87.4381 20.3122C87.3395 20.5502 87.1948 20.7664 87.0125 20.9485C86.8302 21.1306 86.6138 21.275 86.3757 21.3733C86.1376 21.4717 85.8824 21.5222 85.6247 21.5219H83.5616C81.9623 21.5219 80.6196 21.0557 79.6894 20.1815C79.5434 20.0676 79.4208 19.9267 79.328 19.7665C79.2201 19.9291 79.0825 20.0699 78.9224 20.1815C78.2171 20.6923 77.4283 21.0765 76.5912 21.3168C75.6243 21.6294 74.614 21.7868 73.5979 21.783C71.5324 21.783 69.7793 21.0603 68.4878 19.7175C68.365 19.8854 68.2269 20.0415 68.0752 20.1838C67.3696 20.6942 66.5809 21.0783 65.744 21.3191C64.7603 21.6353 63.7326 21.7927 62.6994 21.7853C60.6339 21.7853 58.8785 21.0627 57.5893 19.7199C57.2683 19.364 56.9745 18.9845 56.7105 18.5846L56.4027 19.9833C56.3016 20.4129 56.0571 20.7951 55.7097 21.0672C55.3622 21.3392 54.9324 21.4848 54.4911 21.4799H51.7659C51.4088 21.4729 51.0597 21.3731 50.7528 21.1904C50.4459 21.0077 50.1917 20.7484 50.0152 20.4379C49.8473 20.756 49.5942 21.0212 49.2841 21.2036C48.9741 21.386 48.6194 21.4784 48.2598 21.4706H45.5206C45.0796 21.4754 44.6501 21.3297 44.3031 21.0576C43.956 20.7856 43.712 20.4033 43.6113 19.974L43.4038 18.9925C43.067 19.5378 42.6081 19.9975 42.0634 20.3353C40.9281 21.1606 39.4314 21.6245 37.634 21.6245C35.769 21.6245 34.2794 21.1093 33.0905 20.1278C32.962 20.5204 32.7122 20.862 32.3769 21.1034C32.0417 21.3447 31.6385 21.4733 31.2255 21.4706H28.0783C27.8136 21.4785 27.5505 21.4269 27.3085 21.3196C27.0664 21.2122 26.8515 21.052 26.6796 20.8505C26.5007 21.0593 26.2792 21.2273 26.0298 21.3432C25.7805 21.459 25.5092 21.52 25.2342 21.5219H22.0404C21.7117 21.5236 21.3888 21.434 21.1079 21.2631C20.8243 21.4276 20.5033 21.5166 20.1755 21.5219H16.9117C16.4302 21.5075 15.9692 21.3235 15.61 21.0023C15.2509 20.6811 15.0167 20.2435 14.9488 19.7665C14.8611 20.2113 14.6239 20.6126 14.2766 20.904C13.9293 21.1953 13.4928 21.3591 13.0396 21.368H10.5265C10.3726 21.4193 10.1675 21.4706 9.96001 21.5219V22.0394C9.97491 22.2968 9.93629 22.5544 9.8466 22.7961C9.7569 23.0378 9.61808 23.2583 9.43889 23.4436C9.2597 23.6289 9.04403 23.7751 8.80551 23.8729C8.56698 23.9706 8.31078 24.0179 8.05307 24.0117Z" fill="black"/>
<path d="M83.249 4.48994V9.18737H84.9018V11.458H83.249V15.6892C83.2249 15.8574 83.2403 16.029 83.2939 16.1903C83.3476 16.3516 83.438 16.4982 83.5581 16.6185C83.6782 16.7388 83.8246 16.8295 83.9858 16.8835C84.147 16.9374 84.3186 16.9532 84.4869 16.9294H85.6828V19.6126H83.6173C82.7921 19.6126 81.7523 19.4588 81.0367 18.7874C80.321 18.116 80.0039 17.2394 80.0039 15.9899V11.4067H78.5073V9.13608H80.0039V4.48994H83.249ZM73.5977 19.8154C72.1011 19.8154 70.8002 19.2979 69.933 18.3701C69.0005 17.4376 68.5902 16.202 68.5902 14.7567V14.4C68.5902 12.8008 69.0052 11.5093 69.8304 10.4765C70.6557 9.49742 71.8423 8.97989 73.3902 8.97989C74.789 8.97989 75.9196 9.39251 76.6936 10.2201C77.5212 11.0966 77.8825 12.2319 77.8825 13.6773V15.3861H71.9472V15.4374C72.002 15.9367 72.2455 16.3962 72.6279 16.7219C72.8227 16.8994 73.0507 17.0366 73.2988 17.1254C73.5469 17.2142 73.8101 17.253 74.0733 17.2394C74.5599 17.2532 75.0462 17.2007 75.5186 17.0832C75.9998 16.9552 76.4681 16.7828 76.9174 16.568L77.6913 18.5799C77.1566 18.9643 76.564 19.2609 75.9359 19.4588C75.182 19.7077 74.3916 19.8282 73.5977 19.8154ZM73.3389 11.4533C73.1359 11.4343 72.9316 11.4725 72.7491 11.5636C72.5666 11.6546 72.4132 11.7949 72.3062 11.9685C72.0792 12.3836 71.9389 12.8404 71.8936 13.3113L71.9472 13.3626H74.726V13.1085C74.726 12.542 74.6235 12.176 74.416 11.9219C74.288 11.7625 74.1229 11.6369 73.9351 11.556C73.7474 11.4752 73.5427 11.4415 73.3389 11.458V11.4533ZM62.7085 19.8154C61.2096 19.8154 59.9111 19.2979 59.0438 18.3701C58.1471 17.3861 57.6681 16.092 57.708 14.7613V14.4C57.708 12.8008 58.1207 11.5093 58.9459 10.4765C59.7735 9.49742 60.9601 8.97989 62.508 8.97989C63.9068 8.97989 65.0374 9.39251 65.8114 10.2201C66.5854 11.0477 66.998 12.2319 66.998 13.6773V15.3861H61.0557V15.4374C61.1147 15.951 61.3656 16.4233 61.7582 16.7596C62.1507 17.096 62.6559 17.2715 63.1724 17.2511C63.6591 17.2647 64.1453 17.2121 64.6178 17.0949C65.0991 16.967 65.5673 16.7945 66.0166 16.5797L66.7928 18.5915C66.2578 18.9754 65.6653 19.2721 65.0374 19.4704C64.2876 19.7222 63.4991 19.839 62.7085 19.8154ZM62.5011 11.4533C62.298 11.4343 62.0937 11.4725 61.9112 11.5636C61.7287 11.6546 61.5753 11.7949 61.4683 11.9685C61.2401 12.3831 61.0996 12.8401 61.0557 13.3113L61.107 13.3626H63.9044V13.1085C63.9044 12.542 63.7995 12.176 63.5944 11.9219C63.4647 11.7603 63.2969 11.6333 63.1061 11.5523C62.9153 11.4714 62.7074 11.4389 62.5011 11.458V11.4533ZM52.8498 15.1693L53.9781 9.09178H56.9201L54.5516 19.5613H51.817L50.1129 13.9874H50.0616L48.3598 19.5613H45.623L43.1985 9.13608H46.1918L47.3271 15.2765H47.3784L49.0312 9.13608H51.0943L52.8498 15.1693ZM39.1724 16.6147C39.1614 16.4648 39.113 16.3201 39.0315 16.1938C38.9501 16.0676 38.8382 15.9638 38.7062 15.892C38.2122 15.6047 37.6692 15.4118 37.1046 15.3232C35.918 15.0667 34.9902 14.7054 34.3701 14.2415C34.0649 13.9933 33.8217 13.6774 33.6599 13.3189C33.498 12.9604 33.4219 12.5691 33.4376 12.176C33.4376 11.2435 33.8526 10.4719 34.5753 9.80281C35.3492 9.13142 36.3796 8.87032 37.6711 8.87032C39.0139 8.87032 40.1492 9.18037 40.9349 9.80281C41.3226 10.0695 41.6322 10.4347 41.8318 10.8609C42.0313 11.287 42.1136 11.7587 42.0702 12.2273V12.2786H38.965C38.9786 12.1105 38.9584 11.9413 38.9056 11.7812C38.8527 11.621 38.7683 11.473 38.6572 11.3461C38.3814 11.1217 38.0305 11.0109 37.6758 11.036C37.3553 11.027 37.0428 11.1375 36.7993 11.3461C36.6828 11.4261 36.5885 11.5344 36.5253 11.6608C36.4621 11.7872 36.432 11.9276 36.4379 12.0688C36.4426 12.2137 36.4827 12.3553 36.5546 12.4813C36.6265 12.6072 36.7281 12.7137 36.8505 12.7914C37.107 12.9966 37.6758 13.1528 38.4498 13.3066C39.6876 13.5654 40.6691 13.9268 41.2472 14.3907C41.5576 14.6458 41.8037 14.9703 41.9657 15.3379C42.1277 15.7056 42.201 16.1062 42.1797 16.5074C42.1797 17.4399 41.7671 18.217 40.9418 18.8387C40.1143 19.4588 39.0326 19.7711 37.6781 19.7711C36.2794 19.7711 35.1487 19.4098 34.3235 18.6895C33.4982 17.9691 33.1369 17.1905 33.1882 16.2626V16.2114H36.1302C36.1302 16.7266 36.284 17.0879 36.5964 17.2441C36.9585 17.4551 37.3648 17.5788 37.783 17.6054C38.1295 17.6274 38.4738 17.5366 38.7645 17.3467C38.8984 17.2814 39.0093 17.1767 39.0822 17.0468C39.1551 16.9168 39.1866 16.7677 39.1724 16.6193V16.6147ZM25.1338 9.09178L25.2364 10.5348C25.5524 10.0493 25.974 9.64126 26.4696 9.34123C26.964 9.03158 27.5367 8.8698 28.1201 8.87498C28.5625 8.86194 29.0027 8.94265 29.4117 9.1118C29.8207 9.28095 30.1893 9.53471 30.4933 9.85643C31.0621 10.4742 31.3722 11.5582 31.3722 13.0036V19.5613H28.2297V13.0549C28.2297 12.4371 28.1271 12.0758 27.8683 11.817C27.7216 11.6864 27.5498 11.587 27.3635 11.5248C27.1771 11.4627 26.98 11.4392 26.7843 11.4557C26.5018 11.4524 26.2214 11.5047 25.959 11.6095C25.7138 11.7046 25.4999 11.866 25.3413 12.0758V19.6126H22.1405V9.13608H25.1338V9.09178ZM20.1753 7.1219H16.9115V4.48994H20.1753V7.1219ZM20.1753 19.6126H16.9115V9.13608H20.1753V19.6126ZM9.80129 19.6126V11.3554H8.30697V9.09178H9.80595V8.00077C9.80595 6.81184 10.1673 5.88401 10.8364 5.2033C11.5497 4.54123 12.6431 4.38737 13.4147 4.38737H15.4802V7.01932H14.2959C14.1276 7.0061 13.9584 7.02673 13.7983 7.07998C13.6381 7.13323 13.4903 7.21803 13.3634 7.32938C13.2521 7.45622 13.1673 7.60409 13.114 7.76424C13.0608 7.9244 13.0401 8.09361 13.0534 8.26187V9.03584H15.0699V11.3088H13.0557V19.5147H9.80595V19.6173L9.80129 19.6126ZM3.62353 5.36182C3.62353 2.21932 5.25539 1.96056 8.05287 1.96056V4.42933C6.76137 4.42933 6.24617 4.63681 6.24617 5.41077V9.49742C6.24617 10.4299 6.29745 11.4067 5.52348 12.0268C6.29745 12.6446 6.24617 13.5747 6.24617 14.5539V18.6312C6.24617 19.4588 6.76137 19.6126 8.05287 19.6126V22.0907C5.25539 22.0907 3.62353 21.832 3.62353 18.6848V14.5539C3.62353 13.8848 3.62353 13.1551 2.33203 13.1551V10.9871C3.62353 10.9871 3.62353 10.2131 3.62353 9.58834V5.36182Z" fill="white"/>
</g>
<defs>
<clipPath id="clip0_1358_224783">
<rect width="87.2253" height="24" fill="white" transform="translate(0.359863)"/>
</clipPath>
</defs>
</svg>
