<svg width="74" height="24" viewBox="0 0 74 24" fill="none" xmlns="http://www.w3.org/2000/svg">
<g clip-path="url(#clip0_1358_224784)">
<path d="M0.681152 3.97824C0.681152 1.78121 2.46223 0 4.6594 0H17.4163V5.66126C17.4163 6.75977 16.5258 7.65038 15.4272 7.65038H10.2441C9.18784 7.65038 8.33154 8.5067 8.33154 9.56297V21.9183C8.33154 23.0168 7.44093 23.9073 6.34242 23.9073H0.681152V3.97824Z" fill="black"/>
<path d="M5.12793 9.6107C5.12793 12.4627 7.43992 14.7747 10.2919 14.7747C13.1439 14.7747 15.4559 12.4627 15.4559 9.6107C15.4559 6.75871 13.1439 4.44673 10.2919 4.44673C7.43992 4.44673 5.12793 6.75871 5.12793 9.6107Z" fill="black"/>
<path opacity="0.5" d="M5.12793 9.6107C5.12793 12.4627 7.43992 14.7747 10.2919 14.7747C13.1439 14.7747 15.4559 12.4627 15.4559 9.6107C15.4559 6.75871 13.1439 4.44673 10.2919 4.44673C7.43992 4.44673 5.12793 6.75871 5.12793 9.6107Z" fill="black"/>
<path d="M38.2845 11.6677V9.82315H35.7409V20.269H37.4563C37.676 20.269 37.8865 20.1818 38.0419 20.026C38.1972 19.8705 38.2844 19.6596 38.2845 19.4394V15.336C38.2845 13.3463 38.9253 11.9573 40.5392 11.9573H42.1728V9.82236H40.9522C39.6082 9.82315 38.802 10.3408 38.2845 11.6677ZM48.0669 9.65742C44.8815 9.65742 42.607 11.9376 42.607 15.0458C42.607 18.1541 44.8823 20.4343 48.0669 20.4343C51.2315 20.4343 53.506 18.1541 53.506 15.0458C53.506 11.9376 51.2315 9.65742 48.0669 9.65742ZM48.0669 18.2378C46.3297 18.2378 45.1716 16.9319 45.1716 15.0458C45.1716 13.1597 46.3297 11.8537 48.0669 11.8537C49.7834 11.8537 50.9417 13.1597 50.9417 15.0458C50.9417 16.9319 49.7834 18.2378 48.0669 18.2378ZM60.8485 9.65742C59.36 9.65742 58.1808 10.2995 57.6012 11.4396V9.82341H55.0577V20.269H56.7733C56.9927 20.269 57.2033 20.1815 57.3586 20.026C57.5137 19.8705 57.6012 19.6593 57.6012 19.4394V14.5695C57.6012 13.0361 58.594 11.9168 60.0206 11.9168C61.3238 11.9168 62.1922 12.9117 62.1922 14.3421V20.2698H63.9079C64.1273 20.2698 64.3381 20.1822 64.4932 20.0268C64.6486 19.8713 64.7358 19.6604 64.7361 19.4401V13.8029C64.7368 11.3568 63.2057 9.65742 60.8485 9.65742ZM73.1335 11.1287V9.82341H70.2381V6.6728H67.6947V9.13895C67.6947 9.63612 67.446 9.82262 67.0328 9.82262H65.6469V11.9576H67.6947V16.621C67.6947 18.9424 69.1841 20.2686 71.4586 20.2686H73.1335V17.9676H71.7475C70.7963 17.9676 70.2374 17.4291 70.2374 16.372V11.9576H72.3047C72.4135 11.9579 72.5213 11.9365 72.622 11.895C72.7225 11.8534 72.8138 11.7924 72.8907 11.7153C72.9675 11.6385 73.0287 11.547 73.0705 11.4462C73.112 11.3457 73.1335 11.2376 73.1335 11.1287ZM25.5449 8.39292V20.2693H27.447C27.6665 20.2693 27.877 20.1818 28.0323 20.026C28.1875 19.8705 28.2748 19.6596 28.2749 19.4394V14.1754H33.8174V11.8124H28.2749V8.84853C28.2748 8.7533 28.2934 8.65887 28.3297 8.571C28.3661 8.48288 28.4194 8.40292 28.4866 8.33557C28.5538 8.26823 28.6337 8.21482 28.7216 8.17826C28.8093 8.14196 28.9036 8.12328 28.9986 8.12328H34.3547C34.5743 8.12328 34.7849 8.03569 34.9402 7.87996C35.0953 7.72448 35.1826 7.51352 35.1826 7.29335V5.75999H28.1715C26.7215 5.76079 25.5449 6.93901 25.5449 8.39292Z" fill="black"/>
</g>
<defs>
<clipPath id="clip0_1358_224784">
<rect width="72.5486" height="24" fill="white" transform="translate(0.584961)"/>
</clipPath>
</defs>
</svg>
