<svg width="111" height="24" viewBox="0 0 111 24" fill="none" xmlns="http://www.w3.org/2000/svg">
<g clip-path="url(#clip0_1358_224786)">
<path d="M44.6498 9.14073H48.2705C47.6665 5.29119 44.3335 2.60987 39.996 2.60987C34.8638 2.60987 31.0127 6.38311 31.0127 12.7026C31.0127 18.9091 34.6906 22.7587 40.1009 22.7587C44.9565 22.7587 48.4326 19.6355 48.4326 14.5797V12.2242H40.4744V15.0009H44.9947C44.9375 17.7981 43.0699 19.5687 40.12 19.5687C36.8363 19.5687 34.5857 17.1083 34.5857 12.6644C34.5857 8.24907 36.8744 5.79821 40.0437 5.79821C42.4087 5.79821 44.0267 7.06178 44.6498 9.14073Z" fill="black"/>
<path d="M50.8257 22.4901H54.2922V7.7881H50.8257V22.4901ZM52.5741 5.45167C53.6755 5.45167 54.5751 4.6077 54.5751 3.57459C54.5751 2.54147 53.6755 1.68796 52.5741 1.68796C51.4726 1.68796 50.5635 2.53035 50.5635 3.57459C50.5635 4.61882 51.4567 5.45167 52.5677 5.45167H52.5741Z" fill="black"/>
<path d="M64.6729 7.78813H61.7707V4.25647H58.3042V7.78813H56.2173V10.4695H58.3042V18.6485C58.2851 21.4156 60.2973 22.7809 62.9007 22.6999C63.5942 22.6862 64.2819 22.5699 64.9415 22.355L64.3566 19.6434C64.0254 19.7294 63.6848 19.7749 63.3426 19.7785C62.47 19.7785 61.7707 19.4718 61.7707 18.0731V10.4615H64.6729V7.78813Z" fill="black"/>
<path d="M67.356 22.4901H79.5467V19.5115H70.9099V2.87684H67.356V22.4901Z" fill="black"/>
<path d="M86.1868 22.7873C88.4946 22.7873 89.8726 21.7049 90.5052 20.4699H90.6197V22.4901H93.9574V12.6453C93.9574 8.75761 90.7881 7.5894 87.9812 7.5894C84.8883 7.5894 82.5137 8.96742 81.7476 11.6487L84.9852 12.1097C85.3285 11.1036 86.306 10.2421 88.0051 10.2421C89.6152 10.2421 90.4957 11.0654 90.4957 12.5118V12.569C90.4957 13.564 89.4514 13.6132 86.8559 13.8898C84.003 14.1966 81.274 15.0485 81.274 18.3624C81.2644 21.2551 83.3799 22.7873 86.1868 22.7873ZM87.3264 20.2442C85.88 20.2442 84.8453 19.583 84.8453 18.3099C84.8453 16.978 86.004 16.4233 87.5473 16.2024C88.4581 16.0784 90.2779 15.8479 90.7261 15.4856V17.218C90.7357 18.8503 89.4133 20.2395 87.3264 20.2395V20.2442Z" fill="black"/>
<path d="M96.5103 22.4901H99.9195V20.1727H100.12C100.667 21.2456 101.806 22.7491 104.335 22.7491C107.801 22.7491 110.397 19.9995 110.397 15.155C110.397 10.2517 107.725 7.58942 104.325 7.58942C101.73 7.58942 100.647 9.15021 100.12 10.2135H99.9736V2.87684H96.5103V22.4901ZM99.91 15.1359C99.91 12.275 101.135 10.4329 103.367 10.4329C105.675 10.4329 106.864 12.3958 106.864 15.1359C106.864 17.876 105.657 19.9041 103.367 19.9041C101.154 19.9041 99.91 17.9889 99.91 15.1359Z" fill="black"/>
<path d="M24.4766 9.59526L24.4432 9.50626L21.0737 0.716852C21.0055 0.544269 20.8841 0.397868 20.7272 0.298838C20.6101 0.223877 20.477 0.177392 20.3388 0.163108C20.2005 0.148823 20.0608 0.167137 19.9308 0.216582C19.8009 0.266028 19.6842 0.345228 19.5905 0.447837C19.4967 0.550444 19.4282 0.673606 19.3905 0.807448L17.1161 7.77063H7.90548L5.63103 0.807448C5.59309 0.673806 5.52446 0.550877 5.43059 0.448465C5.33672 0.346053 5.22022 0.266993 5.09036 0.217588C4.96052 0.168183 4.82094 0.149801 4.68273 0.163908C4.54453 0.178015 4.41153 0.224219 4.29434 0.298838C4.13742 0.397868 4.01605 0.544269 3.94785 0.716852L0.579909 9.50785L0.544942 9.59526C0.0600565 10.8625 0.000320345 12.253 0.37474 13.5572C0.749157 14.8614 1.53743 16.0085 2.62071 16.8254L2.63343 16.835L2.66202 16.8572L7.78785 20.6988L10.3309 22.6204L11.8758 23.7886C12.0571 23.9256 12.278 23.9997 12.5052 23.9997C12.7324 23.9997 12.9533 23.9256 13.1346 23.7886L14.6795 22.6204L17.2226 20.6988L22.385 16.835L22.3993 16.8238C23.4824 16.0072 24.2708 14.8604 24.6456 13.5566C25.0202 12.2528 24.9609 10.8625 24.4766 9.59526Z" fill="black"/>
<path d="M24.477 9.59525L24.4436 9.50624C22.8019 9.84312 21.255 10.5389 19.9138 11.5439L12.5151 17.1385L17.2261 20.6988L22.3885 16.835L22.4028 16.8238C23.4855 16.0067 24.2732 14.8598 24.6474 13.556C25.0214 12.2522 24.9616 10.8621 24.477 9.59525Z" fill="black"/>
<path d="M7.78809 20.6988L10.3311 22.6204L11.876 23.7886C12.0573 23.9256 12.2783 23.9997 12.5054 23.9997C12.7326 23.9997 12.9536 23.9256 13.1348 23.7886L14.6797 22.6204L17.2228 20.6988L12.5118 17.1385L7.78809 20.6988Z" fill="black"/>
<path d="M5.10812 11.5439C3.76739 10.5395 2.22103 9.8442 0.579909 9.50786L0.544942 9.59528C0.0600565 10.8625 0.000320315 12.2531 0.37474 13.5572C0.749157 14.8614 1.53743 16.0085 2.62071 16.8254L2.63343 16.835L2.66202 16.8572L7.78785 20.6988L12.502 17.1385L5.10812 11.5439Z" fill="black"/>
</g>
<defs>
<clipPath id="clip0_1358_224786">
<rect width="110.464" height="24" fill="white"/>
</clipPath>
</defs>
</svg>
