<svg width="79" height="24" viewBox="0 0 79 24" fill="none" xmlns="http://www.w3.org/2000/svg">
<g clip-path="url(#clip0_1358_224787)">
<path fill-rule="evenodd" clip-rule="evenodd" d="M37.4955 0.726083C36.9149 1.20607 36.5243 1.87723 36.3938 2.61917C36.1675 4.17009 37.2342 5.36647 38.7866 5.36647C40.3707 5.36647 41.6968 4.29983 41.9231 2.81228C42.1811 1.22817 41.1145 0.000107686 39.5621 0.000107686C38.8088 -0.0112802 38.0762 0.246103 37.4955 0.726083ZM24.0772 13.7291C24.1147 13.0045 24.1036 12.2782 24.044 11.5551H12.1979L10.1913 15.6813H19.0126C18.3412 18.0635 15.8247 19.5722 12.8074 19.5722C8.24362 19.5722 5.22627 16.5202 5.22627 12.1933C5.22627 7.96594 8.31302 4.88071 12.4378 4.88071C15.5577 4.88071 17.4028 6.48744 18.3442 8.36876H23.4737C22.2321 3.60588 18.2416 0.384851 12.4378 0.384851C5.528 0.384851 0.463379 5.41628 0.463379 12.1933C0.463379 19.0351 5.46162 24.0002 12.8074 23.9881C19.5512 23.9881 23.8086 19.1965 24.0772 13.7291ZM28.5044 0.754435L24.882 23.6305H29.5122L33.133 0.754435H28.5044ZM33.5665 23.6305L36.0483 7.86479H40.6769L38.1951 23.6305H33.5665ZM61.3365 0.754435H56.7078L55.2972 9.57566C54.4599 8.33553 52.9512 7.49671 50.7712 7.49671C47.081 7.49671 43.1584 9.97848 42.3513 15.0778C41.3782 21.2483 45.4033 24.0001 48.5233 24.0001C50.6037 24.0001 52.3146 23.1598 53.5215 21.6511L54.5203 23.6305H59.6588L58.5032 19.4228L61.3365 0.754435ZM51.2072 11.5219C52.9844 11.5219 54.8959 13.1316 54.4599 15.9498C53.9907 18.9687 51.7096 19.975 50.0983 19.975C47.9862 19.975 46.4443 18.1631 46.8456 15.5802C47.2153 13.1316 48.9925 11.5219 51.2072 11.5219ZM77.9745 17.2579H66.133C66.6369 19.2704 68.046 20.2752 69.9906 20.2752C71.7694 20.2752 72.7063 19.8392 73.3459 18.8661H77.5385C76.5322 22.5216 73.2117 23.9956 70.0917 23.9956C65.0935 23.9956 61.8408 20.4729 61.8408 15.7432C61.8408 11.0482 65.1946 7.49219 69.9574 7.49219C74.7203 7.49219 78.0092 11.0527 78.0092 15.7477C78.0092 16.3859 78.0092 16.6197 77.9745 17.2579ZM66.0998 14.1711H73.785C73.4832 12.4603 71.872 11.2533 69.9605 11.2533C67.9449 11.2533 66.5433 12.4271 66.0998 14.1711Z" fill="black"/>
</g>
<defs>
<clipPath id="clip0_1358_224787">
<rect width="78" height="24" fill="white" transform="translate(0.463379)"/>
</clipPath>
</defs>
</svg>
