<svg width="225" height="24" viewBox="0 0 225 24" fill="none" xmlns="http://www.w3.org/2000/svg">
<g clip-path="url(#clip0_1358_224791)">
<path d="M84.5919 18.5294C83.4095 18.5294 82.2625 18.1412 81.1507 17.3823C80.0213 16.6059 79.2978 15.5294 78.9448 14.1529L80.8507 13.3765C81.0801 14.2588 81.5389 15.0176 82.2448 15.6176C82.9507 16.2353 83.7272 16.5353 84.6095 16.5353C85.5095 16.5353 86.286 16.3059 86.9213 15.8294C87.5566 15.3529 87.8742 14.7176 87.8742 13.9059C87.8742 13.0059 87.5566 12.3 86.9213 11.8235C86.286 11.3294 85.2625 10.8706 83.886 10.4647C82.4566 10.0059 81.3625 9.42353 80.6389 8.71764C79.8978 7.99412 79.5272 7.09412 79.5272 5.9647C79.5272 4.8 79.986 3.79412 80.9036 2.92941C81.8213 2.06471 83.0213 1.64118 84.5036 1.64118C85.8801 1.64118 86.9919 1.97647 87.8389 2.66471C88.7036 3.35294 89.2507 4.09412 89.5154 4.90588L87.6095 5.7C87.4684 5.18823 87.1331 4.71176 86.6036 4.27059C86.0742 3.82941 85.386 3.61765 84.5389 3.61765C83.7448 3.61765 83.0566 3.84706 82.4919 4.28823C81.9272 4.72941 81.6448 5.29412 81.6448 5.94706C81.6448 6.54706 81.9095 7.05882 82.4213 7.4647C82.9331 7.87059 83.7095 8.25882 84.7154 8.57647C85.5095 8.84117 86.1801 9.08823 86.7095 9.31764C87.2389 9.5647 87.786 9.88235 88.3331 10.2706C88.8801 10.6765 89.3036 11.1706 89.5684 11.7529C89.8507 12.3529 89.9919 13.0412 89.9919 13.8176C89.9919 14.5941 89.8331 15.3 89.4978 15.9176C89.1801 16.5353 88.7389 17.0294 88.2095 17.3823C87.6801 17.7353 87.0978 18.0176 86.4801 18.2118C85.8625 18.4412 85.2272 18.5294 84.5919 18.5294Z" fill="black"/>
<path d="M96.7862 18.5294C95.1097 18.5294 93.7509 17.9647 92.7097 16.8529C91.6686 15.7412 91.1392 14.3294 91.1392 12.6353C91.1392 11.0294 91.6509 9.63529 92.6568 8.47059C93.6803 7.30588 94.9686 6.72353 96.5568 6.72353C98.198 6.72353 99.5039 7.25294 100.492 8.32941C101.48 9.40588 101.974 10.8353 101.974 12.6176L101.957 13.0059H93.2215C93.2745 14.1176 93.6627 15 94.3333 15.6529C95.0215 16.3059 95.8156 16.6235 96.7333 16.6235C98.2156 16.6235 99.2392 15.9882 99.7686 14.7176L101.622 15.4941C101.269 16.3588 100.669 17.0647 99.8392 17.6471C99.0097 18.2471 98.0039 18.5294 96.7862 18.5294ZM99.7686 11.3118C99.7156 10.6765 99.4333 10.0765 98.9039 9.51177C98.3745 8.94706 97.5803 8.64706 96.5215 8.64706C95.745 8.64706 95.0921 8.89412 94.5274 9.37059C93.9627 9.84706 93.5745 10.5 93.3627 11.3118H99.7686Z" fill="black"/>
<path d="M106.898 18.5294C105.716 18.5294 104.745 18.1941 103.951 17.5059C103.157 16.8353 102.769 15.9353 102.769 14.8235C102.769 13.6235 103.227 12.6706 104.163 11.9824C105.098 11.2941 106.245 10.9588 107.621 10.9588C108.839 10.9588 109.845 11.1882 110.621 11.6294V11.3118C110.621 10.5 110.339 9.84706 109.792 9.35294C109.227 8.85882 108.557 8.61177 107.745 8.61177C107.145 8.61177 106.598 8.75294 106.104 9.03529C105.61 9.31765 105.274 9.70588 105.098 10.2176L103.192 9.40588C103.439 8.73529 103.951 8.13529 104.71 7.57059C105.469 7.00588 106.457 6.72353 107.692 6.72353C109.104 6.72353 110.286 7.12941 111.221 7.95882C112.157 8.78824 112.616 9.95294 112.616 11.4529V18.1765H110.621V16.6412H110.533C109.704 17.9118 108.486 18.5294 106.898 18.5294ZM107.233 16.6412C108.098 16.6412 108.874 16.3235 109.563 15.6882C110.269 15.0529 110.621 14.2941 110.621 13.4118C110.039 12.9353 109.157 12.6882 107.974 12.6882C106.969 12.6882 106.21 12.9 105.698 13.3412C105.186 13.7824 104.921 14.2941 104.921 14.8765C104.921 15.4235 105.151 15.8471 105.627 16.1647C106.104 16.4824 106.633 16.6412 107.233 16.6412Z" fill="black"/>
<path d="M116.674 18.1765H114.592V7.11176H116.586V8.91176H116.674C116.886 8.31176 117.309 7.81765 117.98 7.42941C118.633 7.04118 119.268 6.84706 119.886 6.84706C120.504 6.84706 121.015 6.93529 121.439 7.11176L120.645 9.05294C120.38 8.94706 120.009 8.89412 119.533 8.89412C118.774 8.89412 118.121 9.19412 117.539 9.79412C116.957 10.3941 116.674 11.1706 116.674 12.1235V18.1765Z" fill="black"/>
<path d="M126.927 18.5294C125.268 18.5294 123.909 17.9647 122.833 16.8529C121.756 15.7235 121.227 14.3294 121.227 12.6353C121.227 10.9412 121.756 9.54706 122.833 8.41765C123.909 7.28824 125.268 6.74118 126.927 6.74118C128.162 6.74118 129.186 7.04118 129.998 7.64118C130.809 8.24118 131.409 9 131.78 9.91765L129.874 10.7118C129.309 9.31765 128.268 8.62941 126.786 8.62941C125.868 8.62941 125.056 9 124.351 9.75882C123.645 10.5176 123.292 11.4706 123.292 12.6353C123.292 13.8 123.645 14.7529 124.351 15.5118C125.056 16.2706 125.868 16.6412 126.786 16.6412C128.339 16.6412 129.398 15.9529 129.998 14.5588L131.851 15.3529C131.48 16.2529 130.862 17.0118 130.033 17.6294C129.186 18.2294 128.162 18.5294 126.927 18.5294Z" fill="black"/>
<path d="M135.186 2.01176V7.11176L135.098 8.64706H135.186C135.486 8.11765 135.962 7.67647 136.615 7.30588C137.268 6.93529 137.956 6.75882 138.698 6.75882C140.074 6.75882 141.115 7.18235 141.839 8.02941C142.562 8.87647 142.915 10.0059 142.915 11.4176V18.1765H140.833V11.7176C140.833 9.67059 139.915 8.64706 138.098 8.64706C137.233 8.64706 136.545 8.98235 135.998 9.67059C135.451 10.3588 135.186 11.1529 135.186 12.0529V18.1765H133.104V2.01176H135.186Z" fill="black"/>
<path d="M155.374 18.5294C152.992 18.5294 150.998 17.7176 149.392 16.1118C147.786 14.5059 146.974 12.4941 146.974 10.0765C146.974 7.65882 147.786 5.66471 149.392 4.04118C150.998 2.43529 152.992 1.62353 155.374 1.62353C157.809 1.62353 159.786 2.50588 161.321 4.27059L159.874 5.66471C158.78 4.28824 157.28 3.61765 155.374 3.61765C153.609 3.61765 152.127 4.21765 150.909 5.4C149.692 6.58235 149.092 8.15294 149.092 10.0765C149.092 12 149.692 13.5706 150.909 14.7529C152.127 15.9353 153.609 16.5353 155.374 16.5353C157.315 16.5353 158.974 15.7588 160.351 14.1882L161.798 15.6353C161.056 16.5177 160.139 17.2235 159.027 17.7529C157.898 18.2824 156.68 18.5294 155.374 18.5294Z" fill="black"/>
<path d="M164.198 8.43529C165.274 7.30588 166.633 6.75882 168.292 6.75882C169.951 6.75882 171.309 7.32353 172.386 8.43529C173.462 9.56471 173.992 10.9588 173.992 12.6529C173.992 14.3471 173.462 15.7412 172.386 16.8706C171.309 18 169.951 18.5471 168.292 18.5471C166.633 18.5471 165.274 17.9824 164.198 16.8706C163.121 15.7412 162.592 14.3471 162.592 12.6529C162.592 10.9588 163.121 9.54706 164.198 8.43529ZM165.733 15.5471C166.457 16.2706 167.304 16.6412 168.274 16.6412C169.245 16.6412 170.092 16.2706 170.815 15.5471C171.539 14.8235 171.892 13.8529 171.892 12.6529C171.892 11.4529 171.539 10.4824 170.815 9.75882C170.092 9.03529 169.245 8.66471 168.274 8.66471C167.304 8.66471 166.457 9.03529 165.733 9.75882C165.009 10.4824 164.657 11.4529 164.657 12.6529C164.674 13.8529 165.027 14.8059 165.733 15.5471Z" fill="black"/>
<path d="M177.433 7.11176V8.64706H177.521C177.821 8.11765 178.298 7.67647 178.951 7.30588C179.604 6.93529 180.292 6.75882 181.033 6.75882C182.41 6.75882 183.451 7.18235 184.174 8.02941C184.898 8.87647 185.251 10.0059 185.251 11.4176V18.1765H183.168V11.7176C183.168 9.67059 182.251 8.64706 180.433 8.64706C179.568 8.64706 178.88 8.98235 178.333 9.67059C177.786 10.3588 177.521 11.1529 177.521 12.0529V18.1765H175.439V7.11176H177.433Z" fill="black"/>
<path d="M191.303 18.5294C190.068 18.5294 189.045 18.2294 188.251 17.6294C187.439 17.0294 186.856 16.2706 186.486 15.3706L188.339 14.5941C188.921 15.9882 189.927 16.6765 191.339 16.6765C191.992 16.6765 192.521 16.5353 192.927 16.2529C193.333 15.9706 193.545 15.5824 193.545 15.1235C193.545 14.4 193.033 13.9059 192.027 13.6588L189.786 13.1118C189.08 12.9353 188.409 12.5824 187.774 12.0882C187.139 11.5765 186.821 10.9059 186.821 10.0412C186.821 9.07059 187.262 8.27647 188.127 7.65882C188.992 7.04118 190.015 6.74118 191.215 6.74118C192.186 6.74118 193.068 6.97059 193.827 7.41176C194.603 7.85294 195.151 8.48823 195.468 9.31765L193.668 10.0588C193.262 9.08824 192.415 8.59412 191.145 8.59412C190.527 8.59412 190.015 8.71765 189.592 8.98235C189.168 9.24706 188.956 9.58235 188.956 10.0235C188.956 10.6588 189.451 11.0824 190.421 11.3118L192.609 11.8235C193.651 12.0706 194.409 12.4765 194.921 13.0588C195.415 13.6412 195.662 14.3118 195.662 15.0529C195.662 16.0412 195.256 16.8706 194.445 17.5412C193.633 18.2118 192.574 18.5294 191.303 18.5294Z" fill="black"/>
<path d="M198.045 8.43529C199.121 7.30588 200.48 6.75882 202.139 6.75882C203.798 6.75882 205.157 7.32353 206.233 8.43529C207.31 9.56471 207.839 10.9588 207.839 12.6529C207.839 14.3471 207.31 15.7412 206.233 16.8706C205.157 18 203.798 18.5471 202.139 18.5471C200.48 18.5471 199.121 17.9824 198.045 16.8706C196.968 15.7412 196.439 14.3471 196.439 12.6529C196.439 10.9588 196.968 9.54706 198.045 8.43529ZM199.598 15.5471C200.321 16.2706 201.168 16.6412 202.139 16.6412C203.11 16.6412 203.957 16.2706 204.68 15.5471C205.404 14.8235 205.757 13.8529 205.757 12.6529C205.757 11.4529 205.404 10.4824 204.68 9.75882C203.957 9.03529 203.11 8.66471 202.139 8.66471C201.168 8.66471 200.321 9.03529 199.598 9.75882C198.874 10.4824 198.521 11.4529 198.521 12.6529C198.521 13.8529 198.874 14.8059 199.598 15.5471Z" fill="black"/>
<path d="M211.404 18.1765H209.321V2.01176H211.404V18.1765Z" fill="black"/>
<path d="M218.55 18.5294C216.874 18.5294 215.515 17.9647 214.474 16.8529C213.433 15.7412 212.903 14.3294 212.903 12.6353C212.903 11.0294 213.415 9.63529 214.421 8.47059C215.444 7.30588 216.733 6.72353 218.321 6.72353C219.962 6.72353 221.268 7.25294 222.256 8.32941C223.245 9.40588 223.739 10.8353 223.739 12.6176L223.721 13.0059H214.986C215.039 14.1176 215.427 15 216.097 15.6529C216.786 16.3059 217.58 16.6235 218.497 16.6235C219.98 16.6235 221.003 15.9882 221.533 14.7176L223.386 15.4941C223.033 16.3588 222.433 17.0647 221.603 17.6471C220.774 18.2471 219.75 18.5294 218.55 18.5294ZM221.533 11.3118C221.48 10.6765 221.197 10.0765 220.668 9.51177C220.139 8.94706 219.344 8.64706 218.286 8.64706C217.509 8.64706 216.856 8.89412 216.292 9.37059C215.727 9.84706 215.339 10.5 215.127 11.3118H221.533Z" fill="black"/>
<path d="M0.48584 9.28235C0.48584 4.18235 4.77408 0.0176468 9.89172 0.0176468C12.7153 0.0176468 14.727 1.12941 16.2447 2.57647L14.4623 4.35882C13.3858 3.33529 11.9035 2.55882 9.89172 2.55882C6.16819 2.55882 3.25643 5.55882 3.25643 9.28235C3.25643 13.0059 6.16819 16.0059 9.89172 16.0059C12.3094 16.0059 13.6858 15.0353 14.5682 14.1529C15.2917 13.4294 15.7682 12.3882 15.9447 10.9765H9.89172V8.45294H18.4153C18.5035 8.91176 18.5564 9.44118 18.5564 10.0412C18.5564 11.9471 18.0447 14.2941 16.3682 15.9529C14.7447 17.6471 12.6623 18.5471 9.90937 18.5471C4.77408 18.5294 0.48584 14.3824 0.48584 9.28235Z" fill="black"/>
<path d="M25.4213 6.61765C22.1213 6.61765 19.439 9.12353 19.439 12.5824C19.439 16.0235 22.1213 18.5471 25.4213 18.5471C28.7213 18.5471 31.4037 16.0235 31.4037 12.5824C31.4037 9.12353 28.7213 6.61765 25.4213 6.61765ZM25.4213 16.1824C23.6213 16.1824 22.0507 14.7 22.0507 12.5647C22.0507 10.4118 23.6037 8.94706 25.4213 8.94706C27.2213 8.94706 28.7919 10.4118 28.7919 12.5647C28.7919 14.7 27.2213 16.1824 25.4213 16.1824Z" fill="black"/>
<path d="M38.4799 6.61765C35.1799 6.61765 32.4976 9.12353 32.4976 12.5824C32.4976 16.0235 35.1799 18.5471 38.4799 18.5471C41.7799 18.5471 44.4623 16.0235 44.4623 12.5824C44.4623 9.12353 41.7799 6.61765 38.4799 6.61765ZM38.4799 16.1824C36.6799 16.1824 35.1093 14.7 35.1093 12.5647C35.1093 10.4118 36.6623 8.94706 38.4799 8.94706C40.2976 8.94706 41.8505 10.4118 41.8505 12.5647C41.8505 14.7 40.2799 16.1824 38.4799 16.1824Z" fill="black"/>
<path d="M54.5037 6.97059V7.94117H54.4155C53.8331 7.23529 52.7037 6.6 51.2743 6.6C48.2919 6.6 45.5566 9.21176 45.5566 12.5824C45.5566 15.9176 48.2919 18.5294 51.2743 18.5294C52.7037 18.5294 53.8331 17.8941 54.4155 17.1706H54.5037V18.0353C54.5037 20.3118 53.2861 21.5294 51.3272 21.5294C49.7213 21.5294 48.7331 20.3824 48.3272 19.4118L46.0508 20.3647C46.7037 21.9529 48.4508 23.8941 51.3449 23.8941C54.4155 23.8941 57.0096 22.0941 57.0096 17.6824V6.97059H54.5037ZM51.5037 16.1824C49.7037 16.1824 48.1861 14.6647 48.1861 12.5824C48.1861 10.4824 49.7037 8.94706 51.5037 8.94706C53.2861 8.94706 54.6802 10.4824 54.6802 12.5824C54.6978 14.6824 53.2861 16.1824 51.5037 16.1824Z" fill="black"/>
<path d="M61.4213 0.652941H58.8096V18.1765H61.4213V0.652941Z" fill="black"/>
<path d="M68.6037 16.1824C67.2625 16.1824 66.3272 15.5647 65.7095 14.3824L73.686 11.0824L73.4213 10.4118C72.9272 9.07059 71.4095 6.61765 68.3213 6.61765C65.2507 6.61765 62.6919 9.03529 62.6919 12.5824C62.6919 15.9176 65.2154 18.5471 68.6037 18.5471C71.339 18.5471 72.9095 16.8706 73.5801 15.9L71.5507 14.5412C70.8625 15.5294 69.9448 16.1824 68.6037 16.1824ZM68.4095 8.91176C69.4507 8.91176 70.3331 9.42353 70.6154 10.1824L65.286 12.3882C65.2154 10.0941 67.0684 8.91176 68.4095 8.91176Z" fill="black"/>
</g>
<defs>
<clipPath id="clip0_1358_224791">
<rect width="224" height="24" fill="white" transform="translate(0.362305)"/>
</clipPath>
</defs>
</svg>
