<svg width="78" height="24" viewBox="0 0 78 24" fill="none" xmlns="http://www.w3.org/2000/svg">
<g clip-path="url(#clip0_1358_224788)">
<path d="M10.0452 8.56364V11.1273H16.232C16.0677 12.5455 15.575 13.6364 14.8085 14.3455C13.9325 15.2182 12.5089 16.2 10.0452 16.2C6.26741 16.2 3.31089 13.1455 3.31089 9.38182C3.31089 5.61818 6.21266 2.56364 10.0452 2.56364C12.0709 2.56364 13.604 3.38182 14.699 4.41818L16.5057 2.61818C14.9727 1.14545 12.8922 0 10.0452 0C4.8439 0 0.463867 4.2 0.463867 9.38182C0.463867 14.5636 4.8439 18.7636 10.0452 18.7636C12.8375 18.7636 14.9727 17.8364 16.6152 16.1455C18.3125 14.4545 18.86 12.0545 18.86 10.1455C18.86 9.54545 18.8052 9 18.7505 8.56364H10.0452Z" fill="black"/>
<path d="M26.5251 6.43636C23.1853 6.43636 20.3931 9 20.3931 12.4909C20.3931 15.9818 23.1306 18.5455 26.5251 18.5455C29.9196 18.5455 32.6571 16.0364 32.6571 12.5455C32.6571 9 29.9196 6.43636 26.5251 6.43636ZM26.5251 16.2C24.6636 16.2 23.0758 14.6727 23.0758 12.5455C23.0758 10.3636 24.6636 8.89091 26.5251 8.89091C28.3866 8.89091 29.9744 10.3636 29.9744 12.5455C29.9744 14.6727 28.3866 16.2 26.5251 16.2Z" fill="black"/>
<path d="M56.4733 7.8H56.3638C55.7615 7.09091 54.6117 6.43636 53.1335 6.43636C50.0675 6.43636 47.4395 9.05454 47.4395 12.4909C47.4395 15.8727 50.0675 18.5455 53.1335 18.5455C54.6117 18.5455 55.7615 17.8909 56.3638 17.1818H56.4733V18.0545C56.4733 20.3455 55.214 21.6 53.243 21.6C51.6005 21.6 50.615 20.4545 50.177 19.4182L47.8775 20.4C48.5345 21.9818 50.3412 24 53.2977 24C56.4185 24 59.1013 22.1455 59.1013 17.6727V6.76364H56.5828V7.8H56.4733ZM53.4072 16.2C51.5457 16.2 50.177 14.6182 50.177 12.5455C50.177 10.4182 51.6005 8.89091 53.4072 8.89091C55.214 8.89091 56.6375 10.4727 56.6375 12.6C56.6923 14.6727 55.2688 16.2 53.4072 16.2Z" fill="black"/>
<path d="M40.1579 6.43636C36.8181 6.43636 34.0259 9 34.0259 12.4909C34.0259 15.9818 36.7634 18.5455 40.1579 18.5455C43.5524 18.5455 46.29 16.0364 46.29 12.5455C46.29 9 43.5524 6.43636 40.1579 6.43636ZM40.1579 16.2C38.2964 16.2 36.7086 14.6727 36.7086 12.5455C36.7086 10.3636 38.2964 8.89091 40.1579 8.89091C42.0194 8.89091 43.6072 10.3636 43.6072 12.5455C43.6072 14.6727 42.0194 16.2 40.1579 16.2Z" fill="black"/>
<path d="M61.1274 0.272727H63.7555V18.6H61.1274V0.272727Z" fill="black"/>
<path d="M71.8585 16.2C70.4897 16.2 69.559 15.6 68.902 14.3455L77.0598 11.0182L76.786 10.3091C76.2933 8.94545 74.7055 6.43636 71.5847 6.43636C68.464 6.43636 65.8359 8.89091 65.8359 12.4909C65.8359 15.8727 68.4092 18.5455 71.8585 18.5455C74.6507 18.5455 76.2385 16.8545 76.9503 15.8727L74.8697 14.5091C74.158 15.5455 73.2272 16.2 71.8585 16.2ZM71.6942 8.72727C72.7892 8.72727 73.72 9.27273 73.9937 10.0364L68.5187 12.3273C68.464 9.81818 70.3255 8.72727 71.6942 8.72727Z" fill="black"/>
</g>
<defs>
<clipPath id="clip0_1358_224788">
<rect width="76.5957" height="24" fill="white" transform="translate(0.463867)"/>
</clipPath>
</defs>
</svg>
