<svg width="152" height="24" viewBox="0 0 152 24" fill="none" xmlns="http://www.w3.org/2000/svg">
<g clip-path="url(#clip0_1358_224789)">
<path d="M91.0044 8.40511L93.1062 13.9231H89.0333L91.0044 8.40511ZM90.216 6.56579L85.6177 18.6526H87.3258L88.5084 15.3682H93.6321L94.8148 18.6526H96.5229L91.9246 6.56579H90.2165H90.216ZM115.045 18.6526H116.622V6.56579H115.045V18.6526ZM98.881 11.5578C99.407 10.7694 100.457 10.1127 101.509 10.1127C103.611 10.1127 104.662 11.5578 104.662 13.6601V18.7838H103.086V13.9226C103.086 12.2145 102.166 11.5583 100.984 11.5583C99.6699 11.5583 98.7503 12.8722 98.7503 14.0543V18.6526H97.1739V10.2444H98.7503L98.8815 11.5583L98.881 11.5578ZM105.976 16.1566C105.976 14.3173 107.684 13.2664 109.655 13.2664C110.838 13.2664 111.626 13.5294 111.888 13.7923V13.5294C111.888 12.2155 110.838 11.5583 109.787 11.5583C108.868 11.5583 108.079 11.9525 107.816 12.7409L106.375 12.0832C106.638 11.2948 107.688 10.1122 109.796 10.1122C111.767 10.1122 113.475 11.2948 113.475 13.6596V18.6521H112.029V17.4638H111.898C111.504 18.1205 110.584 18.9089 109.139 18.9089C107.431 18.9089 105.986 17.858 105.986 16.15L105.976 16.1566ZM111.898 15.0991C111.898 15.0991 111.242 14.5731 109.927 14.5731C108.351 14.5731 107.694 15.4923 107.694 16.1494C107.694 17.0686 108.613 17.4633 109.402 17.4633C110.584 17.4633 111.898 16.4124 111.898 15.0991" fill="black"/>
<path fill-rule="evenodd" clip-rule="evenodd" d="M118.85 22.3303L120.69 17.9898L117.405 10.3701H118.982L121.478 16.1505L123.974 10.3701H125.55L120.427 22.3303H118.851H118.85ZM141.972 13.1347C141.577 12.0828 140.658 11.4266 139.739 11.4266C138.425 11.4266 137.243 12.6092 137.243 14.3168C137.243 16.0244 138.426 17.207 139.739 17.207C140.658 17.207 141.578 16.5504 141.973 15.6307L143.286 16.4191C142.63 17.8642 141.315 18.7834 139.739 18.7834C137.506 18.7834 135.666 16.8123 135.666 14.3168C135.666 11.6891 137.506 9.84975 139.739 9.84975C141.315 9.84975 142.629 10.7689 143.286 12.214L141.973 13.1332L141.972 13.1347Z" fill="black"/>
<path d="M147.622 18.9151C149.724 18.9151 150.775 17.7325 150.775 16.2874C150.775 13.1342 146.177 14.3163 146.177 12.478C146.177 11.8213 146.703 11.4271 147.622 11.4271C148.541 11.4271 149.461 11.8213 149.856 12.478L150.775 11.5589C150.249 10.9022 148.804 9.98252 147.49 9.98252C145.519 9.98252 144.469 11.1652 144.469 12.6103C144.469 15.6317 149.198 14.5813 149.198 16.1577C149.198 16.9461 148.672 17.4715 147.622 17.4715C146.572 17.4715 146.046 16.8149 145.52 16.1577L144.338 17.0768C145.126 17.8652 146.309 18.9161 147.622 18.9161V18.9151ZM132.645 18.6521H134.221V10.2445H132.645V18.6526V18.6521Z" fill="black"/>
<path fill-rule="evenodd" clip-rule="evenodd" d="M133.302 6.17163C133.959 6.17163 134.353 6.69758 134.353 7.22252C134.353 7.8792 133.827 8.27341 133.302 8.27341C132.777 8.27341 132.251 7.74746 132.251 7.22252C132.251 6.69758 132.777 6.17163 133.302 6.17163ZM131.069 17.3393L131.332 18.5219H129.756C128.311 18.5219 127.654 17.471 127.654 15.8942V11.8213H126.078V10.245H127.654V7.74899H129.23V10.245H131.07V11.8213H129.23V16.1618C129.23 17.3444 130.149 17.3444 131.07 17.3444L131.069 17.3393Z" fill="black"/>
<path d="M34.244 11.4266V13.3976H38.8423C38.711 14.4485 38.3163 15.2369 37.7914 15.7619C37.1347 16.4186 36.0833 17.207 34.244 17.207C31.485 17.207 29.2514 14.9734 29.2514 12.0832C29.2514 9.32425 31.485 6.95949 34.244 6.95949C35.8203 6.95949 36.8717 7.61617 37.6652 8.27336L38.9791 6.95949C37.7965 5.90859 36.3514 4.98845 34.2496 4.98845C30.4402 4.98845 27.1553 8.14162 27.1553 11.9515C27.1553 15.7614 30.4346 18.914 34.2445 18.914C36.3463 18.914 37.9231 18.2574 39.1057 16.943C40.4196 15.6291 40.8138 13.9215 40.8138 12.4759C40.8138 12.0817 40.8138 11.5568 40.6826 11.2933H34.2486L34.244 11.4266ZM45.9366 9.85532C43.4406 9.85532 41.4695 11.6946 41.4695 14.3224C41.4695 16.9501 43.4406 18.7889 45.9366 18.7889C48.4326 18.7889 50.4036 16.8179 50.4036 14.3224C50.4036 11.6946 48.4326 9.85532 45.9366 9.85532ZM45.9366 17.0809C44.6227 17.0809 43.4406 15.8982 43.4406 14.3219C43.4406 12.7455 44.6232 11.5629 45.9366 11.5629C47.2499 11.5629 48.4326 12.6138 48.4326 14.3219C48.4326 16.03 47.2499 17.0809 45.9366 17.0809ZM67.4824 10.7745C66.9565 10.2485 66.1686 9.72357 64.9864 9.72357C62.7529 9.72357 60.7823 11.6946 60.7823 14.1906C60.7823 16.6866 62.7534 18.6572 64.9864 18.6572C66.0373 18.6572 66.9575 18.1312 67.3507 17.6063H67.4819V18.263C67.4819 19.9711 66.5628 20.8907 65.1177 20.8907C63.935 20.8907 63.1466 19.9716 62.8841 19.3144L61.176 19.9711C61.702 21.1537 63.0154 22.5988 65.1171 22.5988C67.4814 22.5988 69.4576 21.2849 69.4576 17.8693V9.7246H67.6183V10.7755L67.4824 10.7745ZM65.2489 17.0809C63.935 17.0809 62.8846 15.8982 62.8846 14.3219C62.8846 12.7455 63.9355 11.5629 65.2489 11.5629C66.5623 11.5629 67.6132 12.7455 67.6132 14.3219C67.6132 15.8982 66.5623 17.0809 65.2489 17.0809ZM55.6581 9.85532C53.1621 9.85532 51.191 11.6946 51.191 14.3224C51.191 16.9501 53.1621 18.7889 55.6581 18.7889C58.1541 18.7889 60.1251 16.8179 60.1251 14.3224C60.2564 11.6946 58.1541 9.85532 55.6581 9.85532ZM55.6581 17.0809C54.3442 17.0809 53.1621 15.8982 53.1621 14.3219C53.1621 12.7455 54.3447 11.5629 55.6581 11.5629C56.9714 11.5629 58.1541 12.6138 58.1541 14.3219C58.1541 16.03 56.9714 17.0809 55.6581 17.0809ZM70.8981 5.12068H72.8692V18.7838H70.8981V5.12068ZM78.2554 17.0757C77.2045 17.0757 76.5473 16.5498 76.0218 15.7619L82.0652 13.2659L81.8023 12.7399C81.408 11.689 80.2259 9.8497 77.9929 9.8497C75.6286 9.8497 73.7888 11.689 73.7888 14.3168C73.7888 16.8128 75.7599 18.7833 78.2559 18.7833C80.3577 18.7833 81.5403 17.4694 82.0652 16.8123L80.4889 15.7614C79.9629 16.5498 79.3063 17.0752 78.2554 17.0752V17.0757ZM78.1241 11.5578C78.9126 11.5578 79.5692 11.952 79.8322 12.6087L75.7594 14.3168C75.7594 12.3457 77.0732 11.5578 78.1236 11.5578H78.1241Z" fill="black"/>
<path d="M15.3745 2.87651V20.7337C15.3745 22.7318 16.7544 23.8452 18.2154 23.8452C19.5683 23.8452 21.0564 22.8982 21.0564 20.7337V3.0118C21.0564 1.18008 19.7035 0.035593 18.2154 0.035593C16.7273 0.035593 15.3745 1.29777 15.3745 2.87651Z" fill="black"/>
<path d="M7.93408 11.9404V20.7337C7.93408 22.7318 9.31393 23.8452 10.775 23.8452C12.1278 23.8452 13.6159 22.8982 13.6159 20.7337V12.0757C13.6159 10.244 12.2631 9.09947 10.775 9.09947C9.28687 9.09947 7.93408 10.3617 7.93408 11.9404Z" fill="black"/>
<path d="M3.33458 23.8452C4.90359 23.8452 6.17552 22.5733 6.17552 21.0043C6.17552 19.4353 4.90359 18.1634 3.33458 18.1634C1.76558 18.1634 0.493652 19.4353 0.493652 21.0043C0.493652 22.5733 1.76558 23.8452 3.33458 23.8452Z" fill="black"/>
</g>
<defs>
<clipPath id="clip0_1358_224789">
<rect width="151.149" height="24" fill="white" transform="translate(0.0595703)"/>
</clipPath>
</defs>
</svg>
