<svg width="167" height="24" viewBox="0 0 167 24" fill="none" xmlns="http://www.w3.org/2000/svg">
<g clip-path="url(#clip0_1358_224790)">
<path d="M119.393 12.1801V18.6979H117.44V3.4967H126.314V5.36408H119.393V10.3533H125.636V12.1801H119.393Z" fill="black"/>
<path d="M127.199 13.4965C127.199 11.8977 127.701 10.574 128.707 9.52634C129.726 8.47861 131.007 7.95522 132.549 7.95522C134.093 7.95522 135.366 8.47861 136.371 9.52634C137.39 10.574 137.9 11.8977 137.9 13.4965C137.9 15.11 137.39 16.4337 136.371 17.4666C135.366 18.5143 134.093 19.0377 132.549 19.0377C131.007 19.0377 129.726 18.5143 128.707 17.4666C127.701 16.419 127.199 15.0953 127.199 13.4965ZM129.152 13.4965C129.152 14.6143 129.478 15.5199 130.129 16.2131C130.78 16.9073 131.587 17.2534 132.549 17.2534C133.512 17.2534 134.319 16.9073 134.97 16.2131C135.62 15.5199 135.946 14.6143 135.946 13.4965C135.946 12.3925 135.62 11.4934 134.97 10.8002C134.304 10.0922 133.497 9.73865 132.549 9.73865C131.6 9.73865 130.794 10.0922 130.129 10.8002C129.478 11.4934 129.152 12.3925 129.152 13.4965Z" fill="black"/>
<path d="M139.561 8.29492H141.429V9.73772H141.514C141.811 9.22907 142.268 8.80446 142.884 8.46476C143.499 8.12415 144.139 7.95522 144.805 7.95522C146.079 7.95522 147.059 8.31892 147.745 9.04815C148.431 9.77649 148.775 10.814 148.775 12.159V18.698H146.821V12.2854C146.779 10.587 145.923 9.73772 144.253 9.73772C143.473 9.73772 142.823 10.0534 142.299 10.683C141.775 11.3134 141.514 12.0666 141.514 12.9436V18.698H139.561V8.29492Z" fill="black"/>
<path d="M154.784 18.8678C153.935 18.8678 153.23 18.6056 152.672 18.0813C152.112 17.5579 151.826 16.8296 151.811 15.8955V10.0782H149.986V8.29581H151.811V5.11027H153.765V8.29581H156.312V10.0782H153.765V15.2586C153.765 15.9518 153.899 16.4235 154.169 16.6709C154.437 16.9192 154.742 17.041 155.081 17.041C155.237 17.041 155.389 17.0244 155.538 16.9893C155.687 16.9542 155.825 16.9072 155.952 16.8499L156.568 18.5909C156.058 18.7746 155.463 18.8678 154.784 18.8678Z" fill="black"/>
<path d="M165.903 15.8106C165.903 16.7162 165.506 17.4814 164.714 18.1036C163.921 18.7257 162.922 19.0377 161.721 19.0377C160.673 19.0377 159.752 18.7645 158.96 18.2199C158.167 17.6762 157.601 16.9571 157.261 16.0654L159.001 15.3223C159.257 15.9454 159.628 16.43 160.116 16.7771C160.605 17.1233 161.14 17.2968 161.721 17.2968C162.344 17.2968 162.863 17.163 163.281 16.8934C163.698 16.6248 163.906 16.3063 163.906 15.938C163.906 15.2725 163.398 14.7851 162.379 14.4731L160.594 14.0273C158.57 13.5177 157.558 12.5411 157.558 11.0974C157.558 10.1494 157.943 9.38788 158.715 8.81553C159.487 8.2423 160.474 7.95522 161.678 7.95522C162.598 7.95522 163.429 8.17492 164.172 8.61338C164.915 9.05276 165.435 9.63895 165.731 10.3756L163.991 11.0974C163.793 10.659 163.472 10.3156 163.026 10.0673C162.58 9.8208 162.08 9.69618 161.529 9.69618C161.019 9.69618 160.562 9.82357 160.159 10.0783C159.755 10.3331 159.554 10.6442 159.554 11.0125C159.554 11.607 160.114 12.0316 161.23 12.2863L162.803 12.6897C164.869 13.1993 165.903 14.2396 165.903 15.8106Z" fill="black"/>
<path d="M50.5038 19.032C45.7472 19.032 41.7466 15.1763 41.7466 10.4391C41.7466 5.70277 45.7472 1.84615 50.5038 1.84615C53.1364 1.84615 55.0094 2.87354 56.4207 4.21477L54.7555 5.86985C53.7457 4.92738 52.3777 4.19354 50.5038 4.19354C47.0303 4.19354 44.3146 6.98123 44.3146 10.4391C44.3146 13.8978 47.0303 16.6855 50.5038 16.6855C52.7561 16.6855 54.041 15.7837 54.8626 14.9668C55.5355 14.2957 55.9786 13.332 56.1457 12.0111H50.5038V9.66369H58.4414C58.5254 10.0828 58.5669 10.5868 58.5669 11.1314C58.5669 12.8917 58.0823 15.0711 56.5241 16.6228C55.0084 18.1938 53.0727 19.032 50.5038 19.032Z" fill="black"/>
<path d="M70.8446 13.499C70.8446 16.6845 68.3837 19.0319 65.3652 19.0319C62.3477 19.0319 59.8877 16.6845 59.8877 13.499C59.8877 10.2922 62.3477 7.96604 65.3652 7.96604C68.3837 7.96604 70.8446 10.2922 70.8446 13.499ZM68.4465 13.499C68.4465 11.5079 67.0185 10.1454 65.3652 10.1454C63.712 10.1454 62.2849 11.5079 62.2849 13.499C62.2849 15.4688 63.712 16.8525 65.3652 16.8525C67.0185 16.8525 68.4465 15.4688 68.4465 13.499Z" fill="black"/>
<path d="M83.1244 13.499C83.1244 16.6845 80.6635 19.0319 77.645 19.0319C74.6284 19.0319 72.1675 16.6845 72.1675 13.499C72.1675 10.2922 74.6284 7.96604 77.645 7.96604C80.6635 7.96604 83.1244 10.2922 83.1244 13.499ZM80.7262 13.499C80.7262 11.5079 79.2992 10.1454 77.645 10.1454C75.9918 10.1454 74.5656 11.5079 74.5656 13.499C74.5656 15.4688 75.9918 16.8525 77.645 16.8525C79.2992 16.8525 80.7262 15.4688 80.7262 13.499Z" fill="black"/>
<path d="M95.0957 8.30112V18.2362C95.0957 22.3236 92.6754 23.9999 89.812 23.9999C87.1175 23.9999 85.4966 22.1971 84.8864 20.7304L87.0114 19.8498C87.3907 20.7507 88.3166 21.8196 89.812 21.8196C91.6434 21.8196 92.7806 20.6888 92.7806 18.5713V17.7747H92.6966C92.1492 18.4458 91.096 19.0319 89.7704 19.0319C86.9911 19.0319 84.4434 16.6227 84.4434 13.5202C84.4434 10.3974 86.9911 7.96604 89.7704 7.96604C91.096 7.96604 92.1492 8.55312 92.6966 9.20296H92.7806V8.30112H95.0957ZM92.9486 13.5202C92.9486 11.5716 91.6434 10.1454 89.9809 10.1454C88.2963 10.1454 86.8858 11.5716 86.8858 13.5202C86.8858 15.4485 88.2963 16.8525 89.9809 16.8525C91.6434 16.8525 92.9486 15.4485 92.9486 13.5202Z" fill="black"/>
<path d="M99.377 18.696H96.9346V2.43322H99.377V18.696Z" fill="black"/>
<path d="M108.976 15.3222L110.871 16.5795C110.262 17.4813 108.787 19.0312 106.24 19.0312C103.083 19.0312 100.802 16.6016 100.802 13.5001C100.802 10.2093 103.103 7.96717 105.967 7.96717C108.851 7.96717 110.262 10.2509 110.724 11.4869L110.976 12.1155L103.546 15.1755C104.114 16.2859 104.998 16.8527 106.24 16.8527C107.482 16.8527 108.346 16.2444 108.976 15.3222ZM103.145 13.3312L108.114 11.2782C107.84 10.5869 107.019 10.1041 106.05 10.1041C104.808 10.1041 103.083 11.1933 103.145 13.3312Z" fill="black"/>
<path d="M0.669434 21.2308L14.054 0H22.3617V2.95385L10.8233 21.2308" fill="black"/>
<path d="M22.3619 21.2308H14.0542V0H22.3619V21.2308Z" fill="black"/>
<path d="M28.3618 15.2308C28.3618 18.5446 25.6757 21.2308 22.3618 21.2308V9.23077C25.6757 9.23077 28.3618 11.9169 28.3618 15.2308Z" fill="black"/>
<path d="M22.3618 21.2308C19.048 21.2308 16.3618 18.5446 16.3618 15.2308C16.3618 11.9169 19.048 9.23077 22.3618 9.23077V21.2308Z" fill="black"/>
<path d="M26.9772 4.61538C26.9772 7.16399 24.9114 9.23076 22.3618 9.23076V0C24.9114 0 26.9772 2.06677 26.9772 4.61538Z" fill="black"/>
<path d="M22.362 9.23076C19.8124 9.23076 17.7466 7.16399 17.7466 4.61538C17.7466 2.06677 19.8124 0 22.362 0V9.23076Z" fill="black"/>
<path d="M1.13086 4.15383C1.13086 1.85999 2.99085 0 5.28469 0C7.57853 0 9.43853 1.85999 9.43853 4.15383C9.43853 6.44766 7.57853 8.30767 5.28469 8.30767C2.99085 8.30767 1.13086 6.44766 1.13086 4.15383Z" fill="black"/>
</g>
<defs>
<clipPath id="clip0_1358_224790">
<rect width="166.154" height="24" fill="white" transform="translate(0.208008)"/>
</clipPath>
</defs>
</svg>
