<svg width="108" height="24" viewBox="0 0 108 24" fill="none" xmlns="http://www.w3.org/2000/svg">
<g clip-path="url(#clip0_1358_224792)">
<path d="M29.0479 5.0286H30.8764V10.1143C31.6193 9.02857 32.6478 8.45714 33.8478 8.45714C35.5049 8.45714 36.4764 9.37143 36.4764 11.2V17.4286H34.6479V11.7143C34.6479 10.4571 34.1907 10.1143 33.2764 10.1143C32.7049 10.1143 32.1907 10.4571 31.6764 11.0857C31.1621 11.7714 30.9336 12.6286 30.9336 13.7143V17.4286H29.1049L29.0479 5.0286Z" fill="black"/>
<path d="M45.6197 13.4857H39.3911C39.3911 14.8571 40.1911 15.9429 41.5625 15.9429C42.534 15.9429 43.4483 15.3714 43.8483 14.4571L45.3911 15.0857C44.4768 16.8 43.4483 17.5429 41.5054 17.5429C38.5911 17.5429 37.3911 15.0857 37.3911 12.9714C37.3911 10.8571 38.5911 8.4 41.5054 8.4C44.3054 8.4 45.5625 10.6857 45.5625 12.6857V13.4857H45.6197ZM39.4483 12H43.734C43.5625 10.9143 42.8197 10.0571 41.6197 10.0571C40.4197 10.0571 39.6768 10.8571 39.4483 12Z" fill="black"/>
<path d="M59.9053 8.45714C60.3624 8.45714 60.7624 8.57143 61.2767 8.8C61.7338 9.02857 62.0767 9.25714 62.3053 9.54286V4.9714H64.1338V17.3714H62.3053V16.3429C61.9624 16.9143 60.991 17.4857 59.9053 17.4857C57.3338 17.4857 55.9624 15.8286 55.9624 12.9143C55.9624 10.1714 57.3338 8.45714 59.9053 8.45714ZM57.8481 12.9714C57.8481 13.8857 58.0767 14.5714 58.4767 15.1429C58.8767 15.6571 59.4481 15.9429 60.0767 15.9429C60.7624 15.9429 61.2767 15.6571 61.6767 15.1429C62.0767 14.6286 62.3053 13.8857 62.3053 12.9714C62.3053 12.0571 62.0767 11.3714 61.6767 10.8571C61.2767 10.3429 60.7053 10.0571 60.0767 10.0571C59.391 10.0571 58.8767 10.3429 58.4767 10.8571C58.0767 11.3714 57.8481 12.1143 57.8481 12.9714Z" fill="black"/>
<path d="M71.0479 9.82857L69.905 10.8571C69.505 10.3429 68.9907 10.0571 68.3621 10.0571C67.8479 10.0571 67.505 10.4 67.505 10.9143C67.505 11.0857 67.5621 11.3143 67.7336 11.4286C68.0193 11.7143 68.305 11.8857 69.105 12.1714C69.7336 12.4 69.9621 12.5143 70.4764 12.8C71.1621 13.2 71.505 13.7714 71.5621 14.6857C71.5621 15.4857 71.2764 16.1143 70.705 16.6857C70.1336 17.2 69.3907 17.4857 68.4764 17.4857C66.8193 17.4857 65.6193 16.4 65.0479 15.1429L66.5907 14.2857C67.0479 15.3714 67.7336 15.8857 68.5336 15.8857C69.3336 15.8857 69.7336 15.4857 69.7336 14.7429C69.7336 14.4571 69.6193 14.2286 69.2764 14.0571C69.105 13.9429 68.9907 13.8857 68.8193 13.8286C68.5336 13.7143 67.905 13.4857 67.6193 13.3714C66.3621 12.8571 65.7336 12.0571 65.7336 10.9714C65.7336 10.2857 66.0193 9.65714 66.4764 9.2C66.9907 8.68571 67.6193 8.45714 68.4193 8.45714C69.505 8.45714 70.4764 8.97143 71.0479 9.82857Z" fill="black"/>
<path d="M76.8765 17.5429C75.8479 17.5429 74.9337 17.0286 74.5337 16.4V20.9715H72.7051V8.57143H74.5337V9.6C74.8765 9.02857 75.8479 8.45714 76.9337 8.45714C79.5051 8.45714 80.8765 10.1143 80.8765 13.0286C80.8194 15.7714 79.4479 17.5429 76.8765 17.5429ZM78.9337 12.9714C78.9337 12.0571 78.7051 11.3714 78.3051 10.8571C77.9051 10.3429 77.3337 10.0571 76.7051 10.0571C76.0194 10.0571 75.5051 10.3429 75.1051 10.8571C74.7051 11.3714 74.4765 12.1143 74.4765 12.9714C74.4765 13.8857 74.7051 14.5714 75.1051 15.1429C75.5051 15.6571 76.0765 15.9429 76.7051 15.9429C77.3908 15.9429 77.9051 15.6571 78.3051 15.1429C78.7051 14.6286 78.9337 13.8857 78.9337 12.9714Z" fill="black"/>
<path d="M98.8193 15.0857C98.0765 16.6857 96.8193 17.5429 94.9908 17.5429C93.6765 17.5429 92.6479 17.0857 91.905 16.2286C91.1622 15.3714 90.8193 14.2857 90.8193 12.9714C90.8193 11.6571 91.1622 10.5714 91.905 9.71429C92.6479 8.85714 93.6765 8.4 94.9908 8.4C96.8193 8.4 98.0765 9.2 98.8193 10.8571L97.2193 11.5429C96.7622 10.5143 96.0193 10 95.0479 10C93.5622 10 92.8193 11.2 92.8193 12.9143C92.8193 14.6857 93.5622 15.8286 95.0479 15.8286C96.0193 15.8286 96.7622 15.3143 97.2193 14.2857L98.8193 15.0857Z" fill="black"/>
<path d="M107.62 13.4857H101.391C101.391 14.8571 102.191 15.9429 103.563 15.9429C104.534 15.9429 105.448 15.3714 105.848 14.4571L107.391 15.0857C106.477 16.8 105.448 17.5429 103.505 17.5429C100.591 17.5429 99.3911 15.0857 99.3911 12.9714C99.3911 10.8571 100.591 8.4 103.505 8.4C106.305 8.4 107.563 10.6857 107.563 12.6857V13.4857H107.62ZM101.448 12H105.734C105.563 10.9143 104.82 10.0571 103.62 10.0571C102.42 10.0571 101.62 10.8571 101.448 12Z" fill="black"/>
<path d="M50.6482 8.45714C51.1053 8.45714 51.5054 8.57143 52.0197 8.8C52.4768 9.02857 52.8196 9.25714 53.0482 9.54286V8.57143H54.8768V17.4286H53.3339L53.0482 16.4C52.7053 16.9714 51.7339 17.5429 50.6482 17.5429C48.0768 17.5429 46.7053 15.8857 46.7053 12.9714C46.6482 10.2286 48.0196 8.45714 50.6482 8.45714ZM48.5911 13.0286C48.5911 13.9429 48.8196 14.6286 49.2196 15.2C49.6196 15.7143 50.1911 16 50.8197 16C51.5054 16 52.0196 15.7143 52.4196 15.2C52.8196 14.6857 53.0482 13.9429 53.0482 13.0286C53.0482 12.1143 52.8196 11.4286 52.4196 10.9143C52.0196 10.4 51.4482 10.1143 50.8197 10.1143C50.134 10.1143 49.6196 10.4 49.2196 10.9143C48.8196 11.3714 48.5911 12.1143 48.5911 13.0286Z" fill="black"/>
<path d="M85.6765 8.45714C86.1337 8.45714 86.5337 8.57143 87.0479 8.8C87.5051 9.02857 87.8479 9.25714 88.0765 9.54286V8.57143H89.9051V17.4286H88.3622L88.0765 16.4C87.7337 16.9714 86.7622 17.5429 85.6765 17.5429C83.1051 17.5429 81.7336 15.8857 81.7336 12.9714C81.6765 10.2286 83.0479 8.45714 85.6765 8.45714ZM83.6194 13.0286C83.6194 13.9429 83.8479 14.6286 84.2479 15.2C84.6479 15.7143 85.2194 16 85.8479 16C86.5337 16 87.0479 15.7143 87.4479 15.2C87.8479 14.6857 88.0765 13.9429 88.0765 13.0286C88.0765 12.1143 87.8479 11.4286 87.4479 10.9143C87.0479 10.4 86.4765 10.1143 85.8479 10.1143C85.1622 10.1143 84.6479 10.4 84.2479 10.9143C83.7908 11.3714 83.6194 12.1143 83.6194 13.0286Z" fill="black"/>
<path d="M23.3909 11.8857C23.6766 15.6571 21.9052 17.7714 20.8766 19.2571C19.2766 20.9714 17.1623 23.3142 11.9623 23.4285C7.50516 23.5999 5.33373 21.6571 3.50516 19.9428C1.10516 17.3142 0.47659 15.7142 0.362305 11.8857C0.362305 9.48566 1.27659 7.1428 2.87659 5.02854C5.10516 1.88568 8.64802 0.799966 11.9623 0.571396C15.3909 0.457111 18.1337 2.17139 20.0194 4.05711C22.4194 6.62851 23.1623 8.79994 23.3909 11.8857Z" fill="black"/>
</g>
<defs>
<clipPath id="clip0_1358_224792">
<rect width="107.429" height="24" fill="white" transform="translate(0.362305)"/>
</clipPath>
</defs>
</svg>
