<svg width="93" height="24" viewBox="0 0 93 24" fill="none" xmlns="http://www.w3.org/2000/svg">
<g clip-path="url(#clip0_1358_224793)">
<path d="M24.3125 18.1961V0.026123H27.1355V7.18946C28.0245 5.86536 29.3579 5.20307 31.1355 5.2026C32.6518 5.2026 33.8239 5.65137 34.6519 6.54891C35.4799 7.44646 35.894 8.69702 35.8941 10.3006V18.1961H33.071V10.6928C33.071 8.61891 32.1472 7.58187 30.2996 7.58159C29.3756 7.58159 28.6175 7.86046 28.0252 8.4182C27.433 8.97594 27.1365 9.76027 27.136 10.7712V18.1959L24.3125 18.1961Z" fill="black"/>
<path d="M49.2358 16.6279C47.9809 17.8828 46.4037 18.5102 44.5039 18.5102C42.6042 18.5102 41.0225 17.8828 39.7587 16.6279C38.495 15.3729 37.8632 13.7779 37.8633 11.8428C37.8634 9.90787 38.4952 8.31755 39.7587 7.07193C41.0223 5.82602 42.604 5.20293 44.5039 5.20264C46.4038 5.20236 47.9811 5.82546 49.2358 7.07193C50.4909 8.3183 51.1184 9.90862 51.1183 11.8428C51.1182 13.7771 50.4907 15.3721 49.2358 16.6279ZM41.8242 15.0329C42.4947 15.8172 43.388 16.2094 44.5039 16.2094C45.6199 16.2094 46.5131 15.8172 47.1836 15.0329C47.8543 14.2486 48.1898 13.1853 48.1901 11.8428C48.1901 10.5184 47.8503 9.46394 47.1706 8.67951C46.4909 7.89508 45.602 7.50291 44.5039 7.50301C43.3883 7.50301 42.495 7.8908 41.8242 8.66638C41.1533 9.44197 40.8178 10.5006 40.8176 11.8423C40.8176 13.1853 41.1531 14.2488 41.8242 15.0329Z" fill="black"/>
<path d="M57.653 18.5098C55.0558 18.5098 53.7572 17.1154 53.7572 14.3267V7.8954H51.7969V5.51642H53.8361L54.4898 1.77856H56.6071V5.51642H61.6528V7.8954H56.6073V14.2484C56.6073 15.4163 57.0343 16.0002 57.8883 16.0001C58.6898 16.0001 59.4131 15.268 60.0582 13.8039L62.2544 14.9282C61.1735 17.3162 59.6397 18.51 57.653 18.5098Z" fill="black"/>
<path d="M63.1619 24C61.907 24 60.8699 23.6514 60.0508 22.9542L61.0966 20.732C61.6022 21.3243 62.1512 21.6207 62.7437 21.6213C63.5279 21.6213 63.92 21.1159 63.92 20.105V5.51639H66.7431V20.1566C66.7431 21.5161 66.4076 22.4965 65.7365 23.0977C65.0655 23.699 64.2073 23.9997 63.1619 24ZM65.3318 3.37243C64.8677 3.38818 64.4163 3.21895 64.0769 2.90197C63.9136 2.74811 63.785 2.56133 63.6994 2.35401C63.6138 2.14669 63.5732 1.92354 63.5803 1.69935C63.574 1.47332 63.615 1.24847 63.7005 1.03915C63.786 0.829825 63.9142 0.64062 64.0769 0.483608C64.4182 0.172467 64.8634 0 65.3253 0C65.7871 0 66.2324 0.172467 66.5737 0.483608C66.7398 0.638668 66.8712 0.827208 66.9591 1.03678C67.0469 1.24634 67.0894 1.47217 67.0835 1.69935C67.0876 1.92242 67.0443 2.14381 66.9564 2.34887C66.8685 2.55393 66.7381 2.73798 66.5737 2.88884C66.4087 3.04723 66.2141 3.17148 66.001 3.25446C65.7879 3.33745 65.5605 3.37754 65.3318 3.37243Z" fill="black"/>
<path d="M73.7553 18.51C72.3084 18.51 71.1362 18.1483 70.2389 17.4251C69.3415 16.7018 68.8928 15.7304 68.8926 14.5107C68.8926 13.3953 69.3588 12.4496 70.2913 11.6735C71.2237 10.8975 72.3958 10.5097 73.8075 10.5102C75.2542 10.5102 76.4743 10.9721 77.4677 11.8959V10.3532C77.4677 9.44723 77.2367 8.74571 76.7748 8.24866C76.3128 7.75162 75.6549 7.50324 74.8011 7.50352C73.0756 7.50352 72.0037 8.38365 71.5853 10.1439L68.997 9.59497C69.3452 8.23558 70.0337 7.16372 71.0625 6.37938C72.0913 5.59504 73.3723 5.20288 74.9055 5.20288C76.5789 5.20288 77.8992 5.64299 78.8664 6.52322C79.8336 7.40344 80.3172 8.68878 80.3174 10.3792V18.1963H77.5722V16.6013C76.6482 17.8739 75.3759 18.5102 73.7553 18.51ZM74.2775 16.4185C75.5326 16.4185 76.5959 15.7911 77.4676 14.5363V14.1437C76.5958 13.098 75.5325 12.5751 74.2775 12.5752C73.5456 12.5752 72.9528 12.754 72.499 13.1116C72.2845 13.2696 72.1109 13.4766 71.9927 13.7154C71.8744 13.9541 71.815 14.2177 71.8192 14.484C71.8123 14.7532 71.8692 15.0202 71.985 15.2633C72.1009 15.5063 72.2726 15.7186 72.486 15.8827C72.9314 16.24 73.5288 16.4186 74.2781 16.4185H74.2775Z" fill="black"/>
<path d="M83.0645 18.1961V5.51632H85.8096V7.71236C86.5065 6.10897 87.7091 5.30722 89.4175 5.30713C90.428 5.30713 91.2645 5.63827 91.9272 6.30056C92.5899 6.96285 92.9209 7.85173 92.9204 8.96721C92.9134 9.63483 92.7986 10.297 92.5805 10.928L89.9924 10.6666C90.0455 10.3201 90.0803 9.97103 90.0968 9.62089C90.0968 8.31372 89.5565 7.66009 88.476 7.66C87.7438 7.66 87.1294 8.04779 86.6328 8.82337C86.1363 9.59896 85.8879 10.623 85.8877 11.8955V18.1961H83.0645Z" fill="black"/>
<path d="M6.68018 7.45638C8.7842 6.2875 11.6658 4.68627 11.6658 0.026123H8.17653C8.17653 2.63349 6.90715 3.33869 4.98564 4.40622C2.88163 5.57553 0 7.17606 0 11.8367H3.48929C3.48929 9.22912 4.75867 8.52392 6.68018 7.45638Z" fill="black"/>
<path d="M12.7195 6.3855C12.7195 8.993 11.4501 9.6982 9.52861 10.7656C7.42516 11.9345 4.54297 13.5355 4.54297 18.196H8.03212C8.03212 15.5885 9.3015 14.8833 11.223 13.8158C13.327 12.6469 16.2085 11.0461 16.2085 6.3855H12.7195Z" fill="black"/>
</g>
<defs>
<clipPath id="clip0_1358_224793">
<rect width="93" height="24" fill="white"/>
</clipPath>
</defs>
</svg>
