<svg width="83" height="24" viewBox="0 0 83 24" fill="none" xmlns="http://www.w3.org/2000/svg">
<g clip-path="url(#clip0_1358_224794)">
<path d="M8.88774 3.85083V10.4121H2.85987V3.85083H0V19.5135H2.86065V13.1652H8.88697V19.5135H11.7484V3.85083H8.88774ZM20.9048 14.4511C20.9048 15.0789 20.6554 15.681 20.2115 16.1249C19.7676 16.5688 19.1655 16.8182 18.5377 16.8182C17.9099 16.8182 17.3078 16.5688 16.8639 16.1249C16.42 15.681 16.1706 15.0789 16.1706 14.4511V7.74193H13.457V14.4511C13.457 15.7972 13.9918 17.0882 14.9436 18.0401C15.8955 18.992 17.1865 19.5267 18.5326 19.5267C19.8788 19.5267 21.1698 18.992 22.1216 18.0401C23.0735 17.0882 23.6083 15.7972 23.6083 14.4511V7.74193H20.9048V14.4511ZM41.0114 8.43328C41.0114 7.05754 41.921 6.62167 42.9174 6.62167C43.721 6.62167 44.7817 7.23328 45.4761 7.97496L47.2529 5.87999C46.3657 4.67999 44.5664 3.85083 43.0932 3.85083C40.1489 3.85083 38.0199 5.57496 38.0199 8.43328C38.0199 13.7365 44.5014 12.0534 44.5014 15.0217C44.5014 15.9368 43.6126 16.745 42.5954 16.745C40.9905 16.745 40.4702 15.9608 39.7332 15.1308L37.7605 17.1817C39.0224 18.7301 40.5786 19.5166 42.4421 19.5166C45.2392 19.5166 47.489 17.7716 47.489 15.0433C47.489 9.15638 41.0067 10.9858 41.0067 8.43328M81.1099 17.0113C79.5066 17.0113 79.0506 16.3177 79.0506 15.2555V10.5522H81.5435V8.16928H79.0506V5.02528L76.2991 6.26012V15.84C76.2991 18.2903 77.9899 19.5251 80.3079 19.5251C80.6717 19.5313 81.0356 19.5019 81.3933 19.4384L82.0645 16.9672C81.7618 16.9881 81.4142 17.009 81.1099 17.009M31.2341 7.82012C29.8901 7.82012 28.9517 8.21031 28.0444 9.09986V3.94451H25.327V13.5004C25.327 17.0772 27.9128 19.5282 30.8191 19.5282C34.0428 19.5282 36.8787 17.0338 36.8787 13.6753C36.8787 10.3587 34.2689 7.82244 31.2341 7.82244M31.217 16.793C30.812 16.793 30.411 16.7133 30.0368 16.5583C29.6627 16.4033 29.3227 16.1761 29.0363 15.8897C28.7499 15.6034 28.5228 15.2634 28.3678 14.8892C28.2128 14.5151 28.133 14.114 28.133 13.709C28.133 13.304 28.2128 12.903 28.3678 12.5288C28.5228 12.1547 28.7499 11.8147 29.0363 11.5283C29.3227 11.2419 29.6627 11.0148 30.0368 10.8598C30.411 10.7048 30.812 10.625 31.217 10.625C32.035 10.625 32.8194 10.9499 33.3977 11.5283C33.9761 12.1067 34.301 12.8911 34.301 13.709C34.301 14.527 33.9761 15.3114 33.3977 15.8897C32.8194 16.4681 32.035 16.793 31.217 16.793ZM60.7463 13.5329C60.7463 10.1682 57.9166 7.67999 54.6867 7.67999C51.7812 7.67999 49.1946 10.1303 49.1946 13.7079V23.2692H51.912V18.1068C52.8178 18.9948 53.7577 19.3866 55.1001 19.3866C58.135 19.3866 60.7455 16.8503 60.7455 13.5329M58.1729 13.4988C58.1729 14.3168 57.848 15.1012 57.2696 15.6795C56.6913 16.2579 55.9068 16.5828 55.0889 16.5828C54.271 16.5828 53.4865 16.2579 52.9082 15.6795C52.3298 15.1012 52.0049 14.3168 52.0049 13.4988C52.0049 12.6809 52.3298 11.8965 52.9082 11.3181C53.4865 10.7397 54.271 10.4148 55.0889 10.4148C55.9068 10.4148 56.6913 10.7397 57.2696 11.3181C57.848 11.8965 58.1729 12.6809 58.1729 13.4988Z" fill="black"/>
<path d="M69.527 7.54838V4.8178C69.8878 4.64916 70.1933 4.38149 70.408 4.04597C70.6226 3.71045 70.7375 3.32087 70.7394 2.92257V2.85986C70.7394 1.69857 69.798 0.757152 68.6367 0.757152H68.574C68.0163 0.757152 67.4815 0.978687 67.0871 1.37302C66.6928 1.76736 66.4713 2.30219 66.4713 2.85986V2.92257C66.4731 3.32087 66.588 3.71045 66.8026 4.04597C67.0173 4.38149 67.3228 4.64916 67.6836 4.8178V7.54838C66.6466 7.70717 65.6699 8.13717 64.8524 8.79483L57.3636 2.96206C57.4171 2.76928 57.4449 2.57109 57.448 2.37212C57.4489 1.90351 57.3109 1.44514 57.0512 1.05502C56.7916 0.664888 56.4221 0.360519 55.9895 0.180409C55.5569 0.00030005 55.0806 -0.0474583 54.6208 0.0431754C54.161 0.133809 53.7385 0.358763 53.4066 0.689582C53.0747 1.0204 52.8483 1.44222 52.7562 1.90169C52.6641 2.36116 52.7103 2.83764 52.889 3.27084C53.0677 3.70405 53.3708 4.07453 53.7601 4.33542C54.1494 4.59631 54.6073 4.73589 55.0759 4.73651C55.4859 4.73458 55.8882 4.62513 56.2426 4.41909L63.6168 10.1574C62.9543 11.1582 62.6087 12.3353 62.625 13.5354C62.6413 14.7354 63.0188 15.9027 63.7082 16.8852L61.4653 19.1288C61.284 19.0708 61.0951 19.04 60.9048 19.0374C60.5201 19.0377 60.1442 19.152 59.8245 19.3659C59.5048 19.5798 59.2557 19.8837 59.1086 20.2391C58.9615 20.5946 58.9231 20.9856 58.9983 21.3629C59.0734 21.7402 59.2586 22.0867 59.5306 22.3587C59.8026 22.6307 60.1492 22.8159 60.5264 22.8911C60.9037 22.9662 61.2947 22.9278 61.6502 22.7807C62.0056 22.6336 62.3095 22.3845 62.5234 22.0648C62.7373 21.7451 62.8516 21.3692 62.8519 20.9845C62.8494 20.7942 62.8186 20.6053 62.7605 20.424L64.9794 18.2044C65.7029 18.7614 66.5444 19.1454 67.4393 19.327C68.3342 19.5087 69.2587 19.483 70.1422 19.2521C71.0256 19.0212 71.8445 18.5911 72.5361 17.9948C73.2276 17.3985 73.7735 16.6519 74.132 15.812C74.4904 14.9722 74.6518 14.0614 74.6039 13.1495C74.5559 12.2377 74.2999 11.3489 73.8554 10.5512C73.4109 9.75357 72.7898 9.06825 72.0395 8.54776C71.2892 8.02726 70.4298 7.68541 69.527 7.54838ZM68.6072 16.529C68.1972 16.5403 67.789 16.4693 67.4069 16.3202C67.0247 16.171 66.6763 15.9468 66.3823 15.6607C66.0883 15.3747 65.8545 15.0326 65.695 14.6547C65.5354 14.2768 65.4531 13.8707 65.4531 13.4605C65.4531 13.0503 65.5354 12.6442 65.695 12.2663C65.8545 11.8884 66.0883 11.5463 66.3823 11.2603C66.6763 10.9742 67.0247 10.75 67.4069 10.6009C67.789 10.4517 68.1972 10.3807 68.6072 10.392C69.402 10.4198 70.155 10.755 70.7075 11.327C71.2601 11.8989 71.5691 12.663 71.5695 13.4582C71.5699 14.2535 71.2616 15.0179 70.7097 15.5904C70.1577 16.1629 69.4051 16.4988 68.6103 16.5275" fill="black"/>
</g>
<defs>
<clipPath id="clip0_1358_224794">
<rect width="82.0645" height="24" fill="white"/>
</clipPath>
</defs>
</svg>
