<svg width="106" height="24" viewBox="0 0 106 24" fill="none" xmlns="http://www.w3.org/2000/svg">
<g clip-path="url(#clip0_1358_224795)">
<path d="M36.1803 8.309C36.1803 7.8083 35.7941 7.39749 35.2535 7.39749C34.7129 7.39749 34.3267 7.8083 34.3267 8.309V15.7037C34.3267 16.2044 34.7129 16.6153 35.2535 16.6153C35.807 16.6153 36.1803 16.2044 36.1803 15.7037V8.309Z" fill="black"/>
<path d="M45.3072 7.39749C44.7666 7.39749 44.3932 7.8083 44.3932 8.309V11.4672L44.4447 14.2916L43.3248 11.6468L41.8573 8.64279C41.4068 7.7056 40.892 7.39749 40.1582 7.39749C39.0769 7.39749 38.6006 8.0779 38.6006 9.0536V15.7037C38.6006 16.2044 38.9739 16.6153 39.5146 16.6153C40.0552 16.6153 40.4285 16.2044 40.4285 15.7037L40.4156 12.5841L40.377 9.38739L41.5742 12.3144L43.0545 15.3699C43.518 16.3456 44.0071 16.6281 44.7536 16.6281C45.7191 16.6281 46.2211 16.0375 46.2211 14.9463V8.309C46.2211 7.8083 45.8479 7.39749 45.3072 7.39749Z" fill="black"/>
<path d="M53.0561 9.28468L55.1543 9.33604C55.6434 9.34887 56.0297 8.97658 56.0297 8.43738C56.0297 7.89818 55.6434 7.52587 55.1543 7.52587L49.0784 7.51303C48.6022 7.51303 48.2031 7.88534 48.2031 8.42454C48.2031 8.96374 48.6022 9.33604 49.0784 9.3232L51.1895 9.28468V15.7037C51.1895 16.2044 51.5757 16.6153 52.1164 16.6153C52.6699 16.6153 53.0561 16.2044 53.0561 15.7037V9.28468Z" fill="black"/>
<path d="M59.2764 16.4997H63.7946C64.2709 16.4997 64.6571 16.1402 64.6571 15.6395C64.6571 15.126 64.2709 14.7665 63.7946 14.7665L59.8685 14.7794V12.6354H63.2668C63.7303 12.6354 64.1035 12.2887 64.1035 11.8138C64.1035 11.3259 63.7303 10.9793 63.2668 10.9793L59.8685 11.005V9.23332H63.7946C64.2709 9.23332 64.6571 8.87386 64.6571 8.36033C64.6571 7.8468 64.2709 7.50018 63.7946 7.50018L59.2892 7.51301C58.4653 7.51301 58.002 7.97518 58.002 8.79683V15.2159C58.002 16.0375 58.4653 16.4997 59.2764 16.4997Z" fill="black"/>
<path d="M72.0166 12.8408C73.2394 12.5199 73.9603 11.5699 73.9603 10.3117C73.9603 8.91239 73.0463 7.51303 70.858 7.51303H68.026C67.2022 7.51303 66.7388 7.9752 66.7388 8.79684V15.7037C66.7388 16.2044 67.125 16.6153 67.6914 16.6153C68.2449 16.6153 68.6439 16.2044 68.6439 15.7037L68.6311 13.2901H70.1887L71.7719 16.1402C72.0294 16.5767 72.57 16.7564 73.0721 16.4997C73.5741 16.2301 73.7157 15.6908 73.4454 15.2544L72.0166 12.8408ZM68.6311 9.22049H70.8709C71.6303 9.22049 72.1067 9.6955 72.1067 10.4016C72.1067 11.0948 71.6561 11.6084 70.8967 11.6084H68.6311V9.22049Z" fill="black"/>
<path d="M79.6457 16.6665C81.5251 16.6665 82.7351 15.8193 83.147 14.4456C83.3659 13.6624 82.9025 13.0976 82.2073 13.0976C81.7825 13.0976 81.4993 13.3158 81.332 13.7908C81.0746 14.5098 80.4438 14.9592 79.5427 14.9592C78.1139 14.9592 77.496 13.9962 77.496 11.9935C77.496 10.0293 78.1267 9.09211 79.5427 9.09211C80.4309 9.09211 80.9459 9.46441 81.2677 10.3246C81.4479 10.8124 81.744 11.0306 82.1816 11.0306C82.8509 11.0306 83.3401 10.4915 83.1342 9.74685C82.7223 8.23196 81.5251 7.38464 79.5942 7.38464C76.9425 7.38464 75.5908 9.00224 75.5908 11.9935C75.5908 15.0104 76.9425 16.6665 79.6457 16.6665Z" fill="black"/>
<path d="M88.7977 16.6409C91.5267 16.6409 92.8783 14.9719 92.8783 11.9935C92.8783 8.9894 91.4881 7.3333 88.7977 7.3333C86.0945 7.3333 84.7428 9.01508 84.73 11.9935C84.73 14.9847 86.1073 16.6409 88.7977 16.6409ZM88.7977 14.9206C87.2787 14.9206 86.6223 13.9578 86.6223 11.9935C86.6223 10.0036 87.2917 9.04076 88.7848 9.04076C90.2909 9.04076 90.9989 10.0036 90.9861 11.9935C90.9861 13.9705 90.3167 14.9206 88.7977 14.9206Z" fill="black"/>
<path d="M104.861 9.00224C104.861 7.98803 104.231 7.38464 103.252 7.38464C102.454 7.38464 101.849 7.82114 101.553 8.82251L100.562 12.0448L99.9054 14.3685L99.2747 12.0448L98.2191 8.82251C97.923 7.88533 97.4082 7.38464 96.507 7.38464C95.5158 7.38464 94.8979 7.97519 94.8979 9.00224V15.7037C94.8979 16.2044 95.2584 16.6153 95.7862 16.6153C96.3139 16.6153 96.6744 16.2044 96.6744 15.7037L96.6615 12.4685L96.5714 9.00224L97.5884 12.5456L98.6696 15.678C98.9013 16.3713 99.339 16.6024 99.9054 16.6024C100.433 16.6024 100.858 16.4098 101.077 15.7037L102.107 12.5456L103.201 8.97657L103.098 12.4685V15.7037C103.098 16.2044 103.471 16.6153 103.986 16.6153C104.514 16.6153 104.874 16.2044 104.874 15.7037L104.861 9.00224Z" fill="black"/>
<path d="M20.9009 13.2066C20.9009 13.4206 20.8166 13.6258 20.6665 13.7771C20.5164 13.9283 20.3128 14.0134 20.1005 14.0134C19.8881 14.0134 19.6846 13.9283 19.5345 13.7771C19.3844 13.6258 19.3 13.4206 19.3 13.2066V6.00003C19.3 5.78609 19.3844 5.58091 19.5345 5.42964C19.6846 5.27836 19.8881 5.19337 20.1005 5.19337C20.3128 5.19337 20.5164 5.27836 20.6665 5.42964C20.8166 5.58091 20.9009 5.78609 20.9009 6.00003V13.2066ZM20.623 18.2C20.5172 18.3066 17.5406 20.8066 12.0834 20.8066C6.62627 20.8066 3.66948 18.32 3.5438 18.2133C3.4646 18.146 3.39936 18.0636 3.35182 17.9708C3.30429 17.878 3.27538 17.7767 3.26678 17.6726C3.25818 17.5686 3.27003 17.4639 3.30169 17.3644C3.33333 17.2651 3.38414 17.1728 3.45119 17.0933C3.58934 16.9322 3.78508 16.8327 3.99573 16.8164C4.20638 16.8002 4.41485 16.8686 4.5757 17.0066C4.622 17.04 7.28112 19.2133 12.0768 19.2133C16.8725 19.2133 19.5514 17.0266 19.5779 17.0066C19.7406 16.8698 19.9497 16.8023 20.1609 16.8185C20.3721 16.8347 20.5688 16.9333 20.709 17.0933C20.8439 17.252 20.9113 17.458 20.8965 17.6664C20.8816 17.8748 20.7857 18.069 20.6296 18.2066L20.623 18.2ZM3.25937 6.00003C3.27133 5.78542 3.36711 5.58429 3.52576 5.44064C3.68441 5.29698 3.89304 5.22246 4.10605 5.23337C4.30352 5.24467 4.48984 5.32926 4.62909 5.47083C4.76834 5.6124 4.85064 5.80093 4.86013 6.00003V13.1934C4.86013 13.4073 4.7758 13.6124 4.62571 13.7637C4.4756 13.9151 4.27202 14 4.05975 14C3.84748 14 3.6439 13.9151 3.49379 13.7637C3.3437 13.6124 3.25937 13.4073 3.25937 13.1934V6.00003ZM7.27451 4.40004C7.28647 4.18542 7.38224 3.9843 7.5409 3.84065C7.69955 3.69699 7.90818 3.62247 8.12119 3.63338C8.31866 3.64468 8.50498 3.72927 8.64422 3.87084C8.78348 4.01241 8.86578 4.20093 8.87527 4.40004V15.0666C8.87527 15.2806 8.79094 15.4858 8.64085 15.6371C8.49074 15.7883 8.28716 15.8733 8.07489 15.8733C7.86261 15.8733 7.65903 15.7883 7.50893 15.6371C7.35883 15.4858 7.27451 15.2806 7.27451 15.0666V4.40004ZM11.3095 4.00004C11.3095 3.7861 11.3938 3.58093 11.5439 3.42965C11.694 3.27837 11.8976 3.19338 12.1098 3.19338C12.3221 3.19338 12.5257 3.27837 12.6758 3.42965C12.8259 3.58093 12.9102 3.7861 12.9102 4.00004V15.6C12.9102 15.8139 12.8259 16.0191 12.6758 16.1704C12.5257 16.3217 12.3221 16.4066 12.1098 16.4066C11.8976 16.4066 11.694 16.3217 11.5439 16.1704C11.3938 16.0191 11.3095 15.8139 11.3095 15.6V4.00004ZM15.2784 4.40004C15.2784 4.1861 15.3627 3.98093 15.5128 3.82964C15.6629 3.67837 15.8665 3.59338 16.0787 3.59338C16.291 3.59338 16.4946 3.67837 16.6447 3.82964C16.7948 3.98093 16.8791 4.1861 16.8791 4.40004V15.0666C16.8791 15.2806 16.7948 15.4858 16.6447 15.6371C16.4946 15.7883 16.291 15.8733 16.0787 15.8733C15.8665 15.8733 15.6629 15.7883 15.5128 15.6371C15.3627 15.4858 15.2784 15.2806 15.2784 15.0666V4.40004ZM21.1191 6.65719e-05H3.07415C2.68096 -0.00256747 2.29112 0.0729886 1.92695 0.222408C1.56277 0.371828 1.23141 0.592179 0.951845 0.870841C0.672281 1.14951 0.449998 1.481 0.297727 1.84637C0.145455 2.21173 0.0661843 2.60377 0.0644531 3.00005V21C0.0661843 21.3962 0.145455 21.7883 0.297727 22.1537C0.449998 22.5189 0.672281 22.8505 0.951845 23.1292C1.23141 23.4078 1.56277 23.6282 1.92695 23.7776C2.29112 23.927 2.68096 24.0025 3.07415 23.9999H21.1191C21.5117 24.0025 21.9011 23.9273 22.2648 23.7782C22.6286 23.6293 22.9596 23.4095 23.2391 23.1315C23.5186 22.8536 23.741 22.5228 23.8936 22.1582C24.0464 21.7937 24.1262 21.4023 24.1288 21.0066V3.00005C24.1271 2.60434 24.048 2.21284 23.8961 1.84792C23.7444 1.48299 23.5227 1.15179 23.2437 0.873209C22.9649 0.594635 22.6344 0.374145 22.2709 0.224332C21.9075 0.074517 21.5184 -0.00168825 21.1257 6.65719e-05" fill="black"/>
</g>
<defs>
<clipPath id="clip0_1358_224795">
<rect width="104.947" height="24" fill="white" transform="translate(0.0644531)"/>
</clipPath>
</defs>
</svg>
