<svg width="53" height="24" viewBox="0 0 53 24" fill="none" xmlns="http://www.w3.org/2000/svg">
<g clip-path="url(#clip0_1358_224798)">
<path d="M25.7195 4.88447C26.9979 4.88447 28.0342 3.84496 28.0342 2.56264C28.0342 1.28033 26.9979 0.240814 25.7195 0.240814C24.4411 0.240814 23.4048 1.28033 23.4048 2.56264C23.4048 3.84496 24.4411 4.88447 25.7195 4.88447Z" fill="black"/>
<path d="M6.16504 12.3675L12.1029 6.41142C12.2051 6.30888 12.1325 6.13116 11.9871 6.13116H7.18948C7.14634 6.13116 7.10548 6.1494 7.07368 6.17904L3.98206 9.28008V1.13434C3.98206 1.01813 3.86394 0.938382 3.75717 0.981672L0.363451 2.36019C0.302119 2.38525 0.26123 2.4445 0.26123 2.51285V18.556C0.26123 18.7064 0.383895 18.8294 0.533818 18.8294H3.70947C3.85939 18.8294 3.98206 18.7064 3.98206 18.556V15.4549L7.30306 18.7839C7.33264 18.8135 7.37578 18.8317 7.41892 18.8317L12.2187 18.8294C12.3641 18.8294 12.4368 18.6517 12.3346 18.5492L6.16504 12.3675Z" fill="black"/>
<path d="M24.131 18.8294H27.3066C27.4565 18.8294 27.5792 18.7064 27.5792 18.556V6.40686C27.5792 6.2565 27.4565 6.13344 27.3066 6.13344H24.131C23.981 6.13344 23.8584 6.2565 23.8584 6.40686V18.5583C23.8607 18.7087 23.981 18.8294 24.131 18.8294Z" fill="black"/>
<path fill-rule="evenodd" clip-rule="evenodd" d="M46.633 6.14718C49.7541 6.36138 52.2824 8.8974 52.5004 12.0258C52.7571 15.7398 49.8313 18.8295 46.1878 18.8318C45.2565 18.8318 44.3728 18.6267 43.5777 18.2644V22.3772C43.5777 22.4888 43.5118 22.5891 43.4074 22.6301L40.0818 23.9813C39.975 24.0246 39.8569 23.9471 39.8569 23.8286V12.4815H39.8592C39.8592 8.82444 42.9349 5.89198 46.633 6.14718ZM43.5777 12.4815C43.5777 13.9261 44.7453 15.0995 46.1878 15.0995C47.628 15.0995 48.7956 13.9261 48.7956 12.4815C48.7956 11.0369 47.628 9.86346 46.1878 9.86346C44.7453 9.86346 43.5777 11.0369 43.5777 12.4815Z" fill="black"/>
<path d="M33.851 9.19122C33.8624 9.19122 33.876 9.19122 33.8874 9.1935C34.4984 9.16848 35.0481 9.56034 35.4957 10.1733C35.5683 10.2736 35.7001 10.3077 35.8137 10.2622L38.3715 9.22998C38.5123 9.17304 38.5805 9.01122 38.5214 8.86998C37.8785 7.31598 35.9227 6.13344 33.8488 6.13344C31.1411 6.13344 28.9422 7.8606 28.9422 9.99102C28.9422 11.1326 29.6055 12.1237 30.5164 12.7708C31.3341 13.3519 32.3109 13.7278 33.2741 13.9784C33.29 13.983 33.3059 13.987 33.3218 13.991C33.3377 13.9949 33.3536 13.999 33.3695 14.0035C34.6688 14.2929 34.8551 14.6369 34.8551 14.9765C34.8551 15.4185 34.3212 15.7762 33.6648 15.7762C32.9856 15.8195 32.3836 15.3524 31.9111 14.6415C31.8407 14.5344 31.7021 14.4957 31.584 14.5435L29.0558 15.5825C28.9172 15.6395 28.8536 15.7945 28.9059 15.9357C29.6305 17.9044 31.584 18.834 33.6648 18.834C36.3725 18.834 38.5713 17.1092 38.5713 14.9765C38.5713 14.5116 38.4669 14.0673 38.2738 13.6549C38.0898 13.2607 37.6105 12.4222 36.3702 11.8412C36.0611 11.6971 35.5128 11.5052 34.937 11.3038C34.1927 11.0434 33.4023 10.7668 33.0219 10.5561C32.7902 10.4285 32.6585 10.2166 32.6585 9.99102C32.6585 9.549 33.1946 9.19122 33.851 9.19122Z" fill="black"/>
<path d="M22.5477 6.35904C22.5908 6.25194 22.5113 6.13344 22.3955 6.13344H19.999C16.5122 6.13344 13.6841 8.97024 13.6841 12.4678V18.556C13.6841 18.7064 13.8067 18.8294 13.9567 18.8294H17.1323C17.2822 18.8294 17.4026 18.7087 17.4026 18.5583V12.4678C17.4026 11.0278 18.5656 9.86112 20.0013 9.86112H21.0053C21.0712 9.86112 21.1303 9.82242 21.1552 9.76086L22.5477 6.35904Z" fill="black"/>
</g>
<defs>
<clipPath id="clip0_1358_224798">
<rect width="52.8" height="24" fill="white" transform="translate(0.00927734)"/>
</clipPath>
</defs>
</svg>
