<svg width="121" height="24" viewBox="0 0 121 24" fill="none" xmlns="http://www.w3.org/2000/svg">
<g clip-path="url(#clip0_1358_224799)">
<path d="M12.8139 23.2418C10.5952 23.2418 8.42612 22.5861 6.57945 21.3573C4.7328 20.1285 3.29106 18.3814 2.43562 16.3359C1.58018 14.2903 1.34925 12.0376 1.77189 9.86123C2.19452 7.68485 3.25183 5.68197 4.81082 4.10456C5.84534 3.04818 7.07952 2.2076 8.4417 1.63161C9.80393 1.05561 11.267 0.755657 12.7461 0.749161H12.8162C14.8581 0.74863 16.8617 1.30298 18.6126 2.35288C20.3635 3.40277 21.7957 4.90868 22.7559 6.70939C23.7161 8.51014 24.1682 10.5379 24.0637 12.5756C23.9592 14.6133 23.3021 16.5843 22.1628 18.2776C22.0285 18.4759 21.9759 18.7184 22.0161 18.9545C22.164 19.7848 22.4439 20.5862 22.8448 21.3283L23.109 21.8157C23.1382 21.8701 23.154 21.9305 23.1552 21.9921C23.1564 22.0538 23.1428 22.1148 23.1156 22.1702C23.0884 22.2255 23.0485 22.2736 22.9991 22.3105C22.9496 22.3473 22.8921 22.3719 22.8313 22.3821L22.2825 22.4701C21.8621 22.5385 21.4371 22.5739 21.0111 22.5762H20.9502C20.0528 22.5728 19.1622 22.4203 18.3149 22.1249C18.2168 22.0908 18.1138 22.0733 18.01 22.073C17.8763 22.0728 17.7442 22.1028 17.6238 22.1609C16.1404 22.8601 14.5218 23.226 12.8816 23.2328L12.8139 23.2418Z" fill="white"/>
<path d="M14.8303 10.2309C14.8348 10.6304 14.7204 11.0222 14.5016 11.3565C14.2827 11.6908 13.9693 11.9526 13.6013 12.1086C13.2332 12.2646 12.827 12.3077 12.4344 12.2325C12.0418 12.1573 11.6803 11.9672 11.396 11.6863C11.1118 11.4054 10.9174 11.0465 10.8378 10.655C10.7581 10.2635 10.7967 9.8572 10.9487 9.48768C11.1006 9.11816 11.3591 8.80212 11.6911 8.57966C12.0232 8.35725 12.414 8.23847 12.8138 8.23847C13.0771 8.23697 13.3382 8.28733 13.5821 8.38662C13.8259 8.48597 14.0478 8.63233 14.2351 8.81735C14.4223 9.00237 14.5712 9.22241 14.6734 9.46495C14.7755 9.70749 14.8289 9.96779 14.8303 10.2309Z" fill="black"/>
<path d="M14.9591 17.4065C14.8302 17.244 14.6422 17.1391 14.4362 17.1146C14.2302 17.0901 14.0228 17.148 13.8593 17.2757C13.5647 17.5019 13.202 17.6217 12.8305 17.6156C12.4589 17.6094 12.1004 17.4776 11.8134 17.2418C11.6636 17.1144 11.4722 17.046 11.2755 17.0498C11.0787 17.0535 10.8902 17.1291 10.7453 17.2621C10.6377 17.3638 10.5613 17.494 10.5249 17.6374C10.4885 17.7808 10.4937 17.9316 10.5398 18.0722C10.5927 18.2233 10.6884 18.3558 10.8153 18.4536C11.3798 18.9135 12.0836 19.1688 12.8119 19.1778C13.5402 19.1868 14.2501 18.949 14.8258 18.5032C14.9071 18.4405 14.9751 18.3624 15.0259 18.2732C15.0767 18.184 15.1092 18.0857 15.1216 17.9838C15.134 17.882 15.126 17.7787 15.0981 17.68C15.0702 17.5813 15.023 17.4891 14.9591 17.4088V17.4065Z" fill="black"/>
<path d="M12.8138 5.13802C11.8077 5.1496 10.8277 5.45829 9.99683 6.02527C9.16601 6.59221 8.52158 7.39206 8.14474 8.32419C7.76783 9.25627 7.67535 10.279 7.87883 11.2635C8.08237 12.248 8.57282 13.1504 9.28843 13.857C10.004 14.5636 10.9129 15.0429 11.9005 15.2346C12.8881 15.4262 13.9104 15.3216 14.8387 14.9339C15.7669 14.5463 16.5597 13.8929 17.1172 13.0561C17.6746 12.2192 17.9719 11.2362 17.9715 10.2309C17.9631 8.87221 17.4151 7.5724 16.4479 6.61736C15.4807 5.66234 14.1735 5.13022 12.8138 5.13802ZM12.8138 13.7849C12.1126 13.7769 11.4296 13.5618 10.8504 13.1668C10.2713 12.7718 9.82208 12.2145 9.55924 11.5649C9.29639 10.9154 9.2316 10.2028 9.37312 9.51652C9.51464 8.83033 9.85612 8.20125 10.3546 7.7085C10.853 7.21575 11.4862 6.88131 12.1744 6.74729C12.8626 6.61327 13.5751 6.68561 14.2223 6.95521C14.8694 7.22486 15.4223 7.67971 15.8114 8.26258C16.2004 8.84544 16.4083 9.53031 16.4088 10.2309C16.4035 11.1785 16.0217 12.0852 15.3476 12.7516C14.6734 13.418 13.7621 13.7897 12.8138 13.7849Z" fill="black"/>
<path d="M23.87 21.5788C23.3771 20.8315 23.0258 20.0001 22.8335 19.126C22.8093 19.0203 22.8061 18.9109 22.8243 18.804C22.8425 18.6971 22.8817 18.5949 22.9397 18.5032C24.1782 16.538 24.8321 14.2615 24.8253 11.9391C24.8109 8.76652 23.5392 5.72884 21.2884 3.49118C19.0376 1.25352 15.9912 -0.00182111 12.8162 1.98294e-06H12.7417C10.4451 0.0122945 8.20018 0.682356 6.27314 1.93074C4.34607 3.17913 2.81766 4.95349 1.86909 7.04348C0.920521 9.13344 0.59158 11.4513 0.921264 13.7225C1.25095 15.9936 2.22543 18.1226 3.72919 19.8571C4.85425 21.1636 6.24893 22.2114 7.81745 22.9284C9.38604 23.6455 11.0913 24.0149 12.8162 24.0113H12.8794C14.5559 24.0021 16.2124 23.648 17.7458 22.9711C17.9104 22.8985 18.0958 22.888 18.2675 22.9417C19.1416 23.2026 20.0492 23.3349 20.9615 23.3343H21.0089C21.7972 23.3321 22.5816 23.2251 23.3416 23.0162C23.5801 22.9496 23.7829 22.7923 23.9066 22.578C24.0303 22.3637 24.065 22.1095 24.0033 21.8699C23.9766 21.7657 23.9315 21.6671 23.87 21.5788ZM21.8783 21.748C20.7646 21.8867 19.6338 21.7694 18.5723 21.4051C18.1532 21.2586 17.6932 21.2829 17.2919 21.4727C15.9091 22.1252 14.3996 22.4657 12.8704 22.4701H12.8162C10.7475 22.4747 8.72379 21.8665 7.00076 20.7226C5.27772 19.5786 3.93257 17.95 3.1352 16.0426C2.33782 14.1352 2.12399 12.0344 2.5207 10.0056C2.91741 7.97689 3.90687 6.11106 5.36412 4.64386C6.32854 3.66247 7.47816 2.88194 8.74641 2.34744C10.0147 1.81293 11.3765 1.53506 12.753 1.5299H12.8162C14.7159 1.52945 16.5801 2.04511 18.2092 3.02172C19.8383 3.99834 21.171 5.39915 22.0648 7.07429C22.9585 8.74944 23.3797 10.6359 23.2832 12.5318C23.1867 14.4276 22.5762 16.2616 21.517 17.8375C21.2641 18.2076 21.1675 18.6625 21.2483 19.1034C21.3987 19.9211 21.6641 20.7134 22.0364 21.4569C22.0518 21.4859 22.0598 21.5183 22.0597 21.551C22.0595 21.5838 22.0513 21.6161 22.0357 21.6449C22.02 21.6737 21.9974 21.6983 21.9699 21.7163C21.9425 21.7343 21.911 21.7452 21.8783 21.748Z" fill="black"/>
<path d="M33.9531 17.7698H42.1346V20.9853H30.5771V3.01466H33.9644L33.9531 17.7698Z" fill="black"/>
<path d="M52.6485 8.60175H55.496V20.9853H52.5423L52.3323 19.0876C51.6187 20.4596 50.169 21.2764 48.245 21.2764C45.3703 21.2764 42.4956 19.0628 42.4956 14.7935C42.4956 10.5242 45.3703 8.349 48.245 8.349C50.196 8.349 51.6458 9.16586 52.3571 10.5626L52.6485 8.60175ZM52.2781 14.7935C52.2781 12.5371 50.6432 11.2621 49.1166 11.2621C47.2446 11.2621 45.7948 12.6318 45.7948 14.7935C45.7948 17.0072 47.2717 18.3497 49.1166 18.3497C50.6974 18.3497 52.2781 17.1922 52.2781 14.7935Z" fill="black"/>
<path d="M56.7881 20.9853V13.9496C56.7881 10.6822 58.8723 8.33775 62.5894 8.33775C66.3065 8.33775 68.3661 10.6822 68.3661 13.9496V20.9853H65.0419V14.2158C65.0419 12.3972 64.2244 11.2644 62.5894 11.2644C60.9544 11.2644 60.1369 12.3927 60.1369 14.2158V20.9853H56.7881Z" fill="black"/>
<path d="M79.0603 3.01466H82.3822V20.9853H79.3493L79.1393 19.0876C78.428 20.4595 77.003 21.2764 75.0749 21.2764C72.252 21.2764 69.4043 19.0628 69.4043 14.7935C69.4043 10.5242 72.2566 8.349 75.0795 8.349C76.9239 8.349 78.3218 9.11394 79.0603 10.3798V3.01466ZM79.0851 14.7935C79.0851 12.3949 77.5043 11.2621 75.9489 11.2621C74.1287 11.2621 72.706 12.5799 72.706 14.7935C72.706 17.0071 74.1287 18.3497 75.9489 18.3497C77.5043 18.3497 79.0851 17.1922 79.0851 14.7935Z" fill="black"/>
<path d="M96.6744 14.7935C96.6744 19.0628 93.8267 21.2764 91.0044 21.2764C89.0804 21.2764 87.6554 20.4595 86.9394 19.0876L86.7341 20.9853H83.7012V3.01466H87.0231V10.3663C87.7616 9.10269 89.1594 8.33544 91.0044 8.33544C93.8267 8.349 96.6744 10.5242 96.6744 14.7935ZM93.3773 14.7935C93.3773 12.5799 91.98 11.2621 90.135 11.2621C88.5791 11.2621 86.996 12.3903 86.996 14.7935C86.996 17.1967 88.5768 18.3497 90.135 18.3497C91.98 18.3497 93.3773 17.0071 93.3773 14.7935Z" fill="black"/>
<path d="M97.46 14.7935C97.46 11.1313 100.226 8.349 104.074 8.349C107.922 8.349 110.693 11.1313 110.693 14.7935C110.693 18.4558 107.925 21.2764 104.074 21.2764C100.224 21.2764 97.46 18.4558 97.46 14.7935ZM107.396 14.7935C107.396 12.7108 105.998 11.2373 104.072 11.2373C102.146 11.2373 100.75 12.7108 100.75 14.7935C100.75 16.8763 102.148 18.3497 104.072 18.3497C105.996 18.3497 107.396 16.9011 107.396 14.7935Z" fill="black"/>
<path d="M120.002 11.2621H116.388V15.8744C116.388 17.481 116.966 18.2189 118.629 18.2189C118.787 18.2189 119.182 18.2189 119.683 18.1918V20.8996C119.049 21.0842 118.393 21.1814 117.732 21.1884C114.936 21.1884 113.039 19.5028 113.039 16.3144V11.2621H110.797V8.60176H113.042V4.41144H116.391V8.60176H120.004L120.002 11.2621Z" fill="black"/>
</g>
<defs>
<clipPath id="clip0_1358_224799">
<rect width="119.192" height="24" fill="white" transform="translate(0.80957)"/>
</clipPath>
</defs>
</svg>
