<svg width="104" height="24" viewBox="0 0 104 24" fill="none" xmlns="http://www.w3.org/2000/svg">
<path d="M29.2529 7.04866H31.8673V17.754H29.2529V7.04866ZM32.9098 13.7272C32.9098 11.0755 34.5387 9.48618 36.9821 9.48618C39.4255 9.48618 41.0544 11.0755 41.0544 13.7272C41.0544 16.3788 39.4825 17.9846 36.9821 17.9846C34.4818 17.9846 32.9098 16.4364 32.9098 13.7272ZM38.4644 13.7272C38.4644 12.2696 37.9025 11.4132 37.0066 11.4132C36.1107 11.4132 35.5568 12.2366 35.5568 13.7272C35.5568 15.2177 36.1107 16.0329 37.0066 16.0329C37.9025 16.0329 38.4807 15.2177 38.4807 13.7354L38.4644 13.7272ZM42.097 18.3057H44.6218C44.7367 18.5806 44.9374 18.8099 45.1933 18.9585C45.4492 19.1072 45.7462 19.1672 46.0389 19.1292C47.0407 19.1292 47.562 18.5857 47.562 17.7787V16.2964H47.5701C47.3544 16.758 47.0055 17.1427 46.5694 17.3999C46.1332 17.6572 45.6303 17.7748 45.1267 17.7376C43.2128 17.7376 41.9422 16.2635 41.9422 13.7272C41.9422 11.1908 43.1557 9.60971 45.2 9.60971C45.7165 9.5818 46.2288 9.71645 46.6664 9.99523C47.104 10.2739 47.4454 10.683 47.6434 11.1661H47.5701V9.67559H50.1601V17.6964C50.1601 19.6315 48.466 20.8421 45.9738 20.8421C43.7096 20.8339 42.2599 19.788 42.1133 18.314L42.097 18.3057ZM47.5701 13.7272C47.5701 12.4343 46.9837 11.619 46.0552 11.619C45.1267 11.619 44.5566 12.4425 44.5566 13.7272C44.5566 15.0118 45.1186 15.7694 46.0552 15.7694C46.9918 15.7694 47.5701 15.0695 47.5701 13.7272ZM51.1944 13.7272C51.1944 11.0755 52.8233 9.48618 55.2667 9.48618C57.7101 9.48618 59.339 11.0755 59.339 13.7272C59.339 16.3788 57.759 17.9846 55.2667 17.9846C52.7745 17.9846 51.2107 16.4364 51.2107 13.7272H51.1944ZM56.749 13.7272C56.749 12.2696 56.1789 11.4132 55.2912 11.4132C54.4034 11.4132 53.8414 12.2366 53.8414 13.7272C53.8414 15.2177 54.3953 16.0329 55.2912 16.0329C56.187 16.0329 56.7653 15.2177 56.7653 13.7354L56.749 13.7272ZM60.398 7.72395C60.3866 7.4547 60.4548 7.18811 60.5944 6.9586C60.7346 6.72902 60.9386 6.547 61.1818 6.4359C61.4243 6.32481 61.6946 6.28969 61.9573 6.33511C62.2201 6.38052 62.4632 6.50437 62.6559 6.69075C62.8485 6.87713 62.9818 7.1175 63.038 7.38087C63.0942 7.6443 63.0714 7.91879 62.9723 8.16889C62.8731 8.41906 62.702 8.63348 62.4809 8.78462C62.2605 8.93569 62.0003 9.0166 61.7338 9.01679C61.5632 9.02121 61.394 8.99134 61.2348 8.92894C61.0763 8.86654 60.931 8.77287 60.8085 8.65331C60.6853 8.53382 60.5874 8.39089 60.5199 8.23274C60.4523 8.0746 60.4163 7.90445 60.4144 7.73216L60.398 7.72395ZM60.398 9.66738H63.0449V17.787H60.4384L60.398 9.66738ZM72.566 13.7272C72.566 16.3706 71.3931 17.9022 69.3973 17.9022C68.887 17.9341 68.3786 17.8067 67.9416 17.5372C67.5045 17.2677 67.1603 16.8691 66.9544 16.3953H66.9051V20.3974H64.291V9.69207H66.8893V11.1414H66.938C67.1369 10.6583 67.478 10.2487 67.915 9.96877C68.3521 9.68879 68.8643 9.55192 69.3815 9.57681C71.4335 9.56032 72.6146 11.0838 72.6146 13.7354L72.566 13.7272ZM69.9026 13.7272C69.9026 12.4425 69.3083 11.6108 68.3874 11.6108C67.4672 11.6108 66.8893 12.4343 66.8811 13.7272C66.8729 15.02 67.4672 15.8353 68.3874 15.8353C69.3083 15.8353 69.9512 15.0695 69.9512 13.7354L69.9026 13.7272ZM77.0293 9.47797C79.2197 9.47797 80.5801 10.5238 80.5965 12.2037H78.2098C78.2098 11.619 77.7298 11.2567 77.0129 11.2567C76.2961 11.2567 75.9538 11.5367 75.9538 11.9567C75.9538 12.3767 76.255 12.5084 76.8582 12.6319L78.5357 12.9778C80.1645 13.3236 80.8163 13.9825 80.8163 15.2094C80.8163 16.8564 79.3093 17.9764 77.0698 17.9764C74.8302 17.9764 73.3719 16.8894 73.2664 15.2342H75.799C75.8723 15.8353 76.3447 16.1894 77.1108 16.1894C77.8763 16.1894 78.2344 15.9424 78.2344 15.5059C78.2344 15.0695 77.99 14.9953 77.3628 14.8636L75.8483 14.5424C74.2763 14.2048 73.4533 13.373 73.4533 12.1296C73.5026 10.5156 74.8706 9.48618 77.078 9.48618L77.0293 9.47797ZM89.5719 17.7787H87.0386V16.2552H86.99C86.8479 16.7634 86.539 17.2075 86.1146 17.5144C85.6895 17.8213 85.1735 17.9726 84.6525 17.9434C84.259 17.9563 83.8668 17.885 83.5024 17.734C83.138 17.5831 82.8089 17.3558 82.5373 17.0673C82.2664 16.7788 82.058 16.4356 81.9272 16.06C81.7959 15.6845 81.7447 15.2851 81.7775 14.8883V9.67559H84.3916V14.3201C84.3916 15.2753 84.8887 15.7941 85.7028 15.7941C85.8942 15.7927 86.0824 15.7498 86.2561 15.6683C86.4291 15.5869 86.5832 15.4688 86.7076 15.3221C86.8321 15.1753 86.9236 15.0033 86.9767 14.8177C87.0291 14.632 87.0424 14.4371 87.0146 14.2459V9.67559H89.6205L89.5719 17.7787ZM90.8344 9.66738H93.3752V11.232H93.4321C93.5729 10.7308 93.8735 10.2907 94.2879 9.98083C94.7015 9.67091 95.2055 9.50853 95.7209 9.51914C96.2382 9.47367 96.7535 9.62487 97.166 9.94319C97.579 10.2614 97.8594 10.7239 97.9523 11.2403H98.0666C98.2295 10.7212 98.5573 10.2711 98.9988 9.95986C99.4409 9.64862 99.9721 9.49369 100.51 9.51914C100.868 9.50538 101.224 9.56809 101.555 9.70325C101.888 9.83834 102.188 10.0429 102.436 10.3033C102.684 10.5637 102.875 10.8741 102.997 11.2144C103.118 11.5547 103.167 11.9171 103.141 12.2778V17.787H100.51V12.9531C100.51 12.1296 100.127 11.6685 99.386 11.6685C99.2218 11.6657 99.0588 11.699 98.9079 11.7659C98.7575 11.8328 98.623 11.9319 98.5144 12.0563C98.4051 12.1806 98.3236 12.3273 98.2763 12.4864C98.2283 12.6455 98.215 12.8131 98.2377 12.9778V17.787H95.7455V12.9284C95.7455 12.1049 95.3464 11.6685 94.6295 11.6685C94.4634 11.6671 94.2992 11.7017 94.147 11.7699C93.9954 11.8382 93.8596 11.9384 93.7497 12.064C93.6392 12.1896 93.5565 12.3376 93.5079 12.498C93.4586 12.6584 93.4441 12.8277 93.4649 12.9943V17.787H90.8502L90.8344 9.66738Z" fill="black"/>
<path d="M24.2002 8.02737C24.2003 6.41034 23.7136 4.83101 22.804 3.49617C21.8943 2.16139 20.6041 1.13337 19.1023 0.546762C17.6004 -0.0397857 15.9571 -0.157638 14.3874 0.208804C12.8177 0.575183 11.395 1.40874 10.3055 2.60021H0.200195V24H21.5363V13.9988C22.3737 13.2472 23.0438 12.327 23.5027 11.2981C23.9618 10.2692 24.1994 9.15467 24.2002 8.02737ZM20.0949 8.02737C20.0965 8.80219 19.869 9.56009 19.4411 10.2052C19.0132 10.8502 18.4043 11.3534 17.6913 11.6511C16.9783 11.9487 16.1933 12.0273 15.4356 11.8772C14.6781 11.727 13.9819 11.3547 13.4352 10.8074C12.8886 10.26 12.5161 9.56229 12.3648 8.80244C12.2136 8.04259 12.2904 7.25482 12.5856 6.5388C12.8807 5.82272 13.381 5.21066 14.0229 4.78005C14.6649 4.34937 15.4199 4.11948 16.1921 4.11948C17.2258 4.11948 18.2172 4.53095 18.9489 5.26358C19.6807 5.99621 20.0928 6.99019 20.0949 8.02737ZM17.431 19.8809H4.30546V6.71931H8.30543C8.22819 7.15112 8.18758 7.58868 8.18398 8.02737C8.18613 10.1577 9.03055 12.2002 10.5319 13.7067C12.0332 15.213 14.0688 16.0603 16.1921 16.0624C16.6072 16.0602 17.0215 16.0249 17.431 15.9568V19.8809Z" fill="black"/>
</svg>
