<svg width="81" height="24" viewBox="0 0 81 24" fill="none" xmlns="http://www.w3.org/2000/svg">
<g clip-path="url(#clip0_1358_224803)">
<path d="M24.1555 10.744H16.8419L23.1755 7.088L21.9195 4.912L15.5851 8.568L19.2411 2.236L17.0651 0.98L13.4083 7.3104V0H10.8947V7.3112L7.23786 0.98L5.06106 2.236L8.71706 8.5664L2.38426 4.912L1.12746 7.088L7.46106 10.744H0.147461V13.2568H7.46026L1.12746 16.9128L2.38346 19.0888L8.71786 15.4328L5.06106 21.7648L7.23706 23.0208L10.8947 16.6896V24H13.4083V16.5328L17.1323 22.9808L19.1731 21.8032L15.4483 15.3536L21.9179 19.088L23.1747 16.912L16.8419 13.256H24.1547V10.744H24.1555ZM12.1515 15.416C11.7027 15.4161 11.2584 15.3278 10.8439 15.1561C10.4293 14.9844 10.0526 14.7328 9.7353 14.4155C9.41802 14.0983 9.16626 13.7217 8.9945 13.3071C8.82274 12.8926 8.73434 12.4483 8.73426 11.9996C8.73418 11.5509 8.8225 11.1066 8.99418 10.692C9.16586 10.2774 9.41746 9.90072 9.73474 9.58344C10.0519 9.26616 10.4286 9.0144 10.8431 8.84264C11.2577 8.67088 11.7019 8.58248 12.1507 8.5824C13.0568 8.58232 13.9259 8.94216 14.5668 9.58288C15.2077 10.2236 15.5678 11.0926 15.5679 11.9988C15.5679 12.905 15.2081 13.7741 14.5674 14.415C13.9267 15.0558 13.0576 15.4159 12.1515 15.416Z" fill="black"/>
<path d="M30.6348 20.7785V3.22168H33.8572V20.7785H30.6348ZM61.5412 8.84728H64.618V10.3033C65.2724 9.13928 66.7996 8.50808 68.1076 8.50808C69.7316 8.50808 71.0396 9.21208 71.6452 10.4961C72.5892 9.04008 73.85 8.50808 75.4252 8.50808C77.63 8.50808 79.7372 9.84168 79.7372 13.0425V20.7785H76.6124V13.6977C76.6124 12.4121 75.982 11.4417 74.5036 11.4417C73.122 11.4417 72.298 12.5097 72.298 13.7953V20.7793H69.1012V13.6977C69.1012 12.4121 68.4468 11.4417 66.9924 11.4417C65.5868 11.4417 64.7628 12.4857 64.7628 13.7953V20.7793H61.5412V8.84728ZM41.1396 21.1241C37.5092 21.1241 34.8804 18.4305 34.8804 14.8129C34.8804 11.2529 37.5012 8.49608 41.1396 8.49608C44.7956 8.49608 47.3988 11.2785 47.3988 14.8129C47.3988 18.4049 44.7684 21.1241 41.1396 21.1241ZM41.1396 11.4161C40.2391 11.4174 39.3759 11.7758 38.7393 12.4128C38.1028 13.0498 37.745 13.9132 37.7444 14.8137C37.745 15.7142 38.1028 16.5776 38.7393 17.2146C39.3759 17.8516 40.2391 18.21 41.1396 18.2113C42.0399 18.2098 42.9029 17.8513 43.5392 17.2143C44.1756 16.5774 44.5333 15.714 44.534 14.8137C44.5333 13.9134 44.1756 13.05 43.5392 12.413C42.9029 11.7761 42.0399 11.4176 41.1396 11.4161ZM54.2812 21.1241C50.6508 21.1241 48.022 18.4305 48.022 14.8129C48.022 11.2529 50.6428 8.49608 54.2812 8.49608C57.9372 8.49608 60.5404 11.2785 60.5404 14.8129C60.5404 18.4049 57.9084 21.1241 54.2812 21.1241ZM54.2812 11.3753C53.3704 11.3768 52.4973 11.7394 51.8535 12.3837C51.2097 13.0279 50.8476 13.9013 50.8468 14.8121C50.8476 15.7229 51.2097 16.5962 51.8535 17.2405C52.4973 17.8847 53.3704 18.2474 54.2812 18.2489C55.192 18.2474 56.065 17.8847 56.7089 17.2405C57.3527 16.5962 57.7147 15.7229 57.7156 14.8121C57.7147 13.9013 57.3527 13.0279 56.7089 12.3837C56.065 11.7394 55.192 11.3768 54.2812 11.3753Z" fill="black"/>
</g>
<defs>
<clipPath id="clip0_1358_224803">
<rect width="80" height="24" fill="white" transform="translate(0.147461)"/>
</clipPath>
</defs>
</svg>
