<svg width="118" height="24" viewBox="0 0 118 24" fill="none" xmlns="http://www.w3.org/2000/svg">
<g clip-path="url(#clip0_1358_224804)">
<path fill-rule="evenodd" clip-rule="evenodd" d="M1.92128 0C1.45083 0 0.999656 0.186884 0.667 0.519539C0.334345 0.852195 0.147461 1.30337 0.147461 1.77382L0.147461 22.2262C0.147461 22.6966 0.334345 23.1478 0.667 23.4805C0.999656 23.8131 1.45083 24 1.92128 24H22.0415C22.5119 24 22.9631 23.8131 23.2957 23.4805C23.6284 23.1478 23.8153 22.6966 23.8153 22.2262V1.77382C23.8153 1.30337 23.6284 0.852195 23.2957 0.519539C22.9631 0.186884 22.5119 0 22.0415 0L1.92128 0ZM19.1838 6.09C19.2798 5.43109 18.8315 4.81909 18.1818 4.72145C15.73 4.35382 13.4069 6.56291 10.9289 11.3476C8.98328 15.1047 7.23346 16.9931 6.04164 16.9036C5.3871 16.8545 4.8171 17.3531 4.76855 18.0164C4.72055 18.6802 5.21201 19.2584 5.86655 19.3075C8.2791 19.488 10.5711 17.2227 13.0338 12.468C14.962 8.74418 16.6845 6.93327 17.8344 7.10618C18.4835 7.20273 19.0878 6.74836 19.1838 6.08945V6.09Z" fill="black"/>
<path fill-rule="evenodd" clip-rule="evenodd" d="M29.4337 18.9273V5.07272H32.1855V16.4874H38.2275V18.9262H29.4331L29.4337 18.9273ZM44.3464 19.1024C41.3447 19.1024 39.3435 17.0149 39.3435 14.166C39.3435 11.3171 41.3447 9.24872 44.3464 9.24872C47.2711 9.24872 49.3302 11.2396 49.3302 14.166C49.3302 17.0733 47.2711 19.1024 44.3464 19.1024ZM44.3464 16.8005C45.6936 16.8005 46.7709 15.7271 46.7709 14.166C46.7709 12.6049 45.7318 11.5314 44.3464 11.5314C42.884 11.5314 41.9027 12.6638 41.9027 14.166C41.9027 15.6491 42.9031 16.8005 44.3464 16.8005ZM53.7364 19.1024C52.1202 19.1024 51.062 18.0682 51.062 15.9224V11.5124H49.9455V9.38508H51.062V6.28363L53.582 6.0109V9.38618H56.1222V11.5129H53.5826V15.552C53.5826 16.3909 53.7942 16.7814 54.3904 16.7814C54.6986 16.7814 55.1606 16.6642 55.5838 16.4493L56.2187 18.498C55.622 18.8302 55.0062 19.1034 53.7369 19.1034L53.7364 19.1024ZM60.8366 19.1024C59.2204 19.1024 58.1622 18.0682 58.1622 15.9224V11.5124H57.0462V9.38508H58.1622V6.28363L60.6827 6.0109V9.38618H63.2224V11.5129H60.6827V15.552C60.6827 16.3909 60.8944 16.7814 61.4911 16.7814C61.7987 16.7814 62.2607 16.6642 62.684 16.4493L63.3189 18.498C62.7222 18.8302 62.1064 19.1034 60.8366 19.1034V19.1024ZM66.4362 8.09781C65.5122 8.09781 64.8391 7.39527 64.8391 6.51708C64.8391 5.65854 65.5122 4.95599 66.4362 4.95599C67.3406 4.95599 68.0333 5.65854 68.0333 6.51708C68.0333 7.39527 67.3406 8.09781 66.4362 8.09781ZM65.1467 18.9267V9.38563H67.6673V18.9267H65.1467ZM78.4624 14.0684C78.4624 14.3804 78.4236 14.8293 78.4045 14.9853H71.8046C72.1122 16.1367 73.0165 16.8196 74.2869 16.8196C75.3451 16.8196 76.076 16.3707 76.5767 15.7467L78.212 17.2882C77.4233 18.3218 76.2107 19.1024 74.1135 19.1024C71.2275 19.1024 69.1875 17.1316 69.1875 14.1464C69.1875 11.2391 71.1696 9.24872 73.9596 9.24872C76.6149 9.24872 78.4624 11.2778 78.4624 14.0684ZM73.9406 11.4731C72.9206 11.4731 72.1122 12.0589 71.8236 13.1514H75.9609C75.7105 12.1369 75.0369 11.4731 73.9406 11.4731Z" fill="black"/>
<path fill-rule="evenodd" clip-rule="evenodd" d="M96.0112 18.9273V4.56546H98.5317V18.9273H96.0112ZM92.7204 8.09782C91.797 8.09782 91.1234 7.39528 91.1234 6.5171C91.1234 5.65855 91.797 4.95655 92.7204 4.95655C93.6248 4.95655 94.3175 5.65855 94.3175 6.5171C94.3175 7.39528 93.6248 8.09782 92.7204 8.09782ZM80.271 18.9273V5.07273H89.3337V7.51201H82.9459V11.2195H88.2755V13.6778H82.9459V18.9273H80.271ZM91.4315 9.38564V18.9267H93.9521V9.38564H91.4315ZM109.268 14.9858C109.303 14.6811 109.322 14.3749 109.326 14.0684C109.326 11.2784 107.479 9.24873 104.824 9.24873C102.034 9.24873 100.052 11.2396 100.052 14.1469C100.052 17.1322 102.091 19.1029 104.978 19.1029C107.075 19.1029 108.287 18.3224 109.076 17.2882L107.441 15.7467C106.94 16.3707 106.209 16.8196 105.151 16.8196C103.881 16.8196 102.977 16.1367 102.668 14.9858H109.268ZM104.804 11.4731C103.784 11.4731 102.977 12.0589 102.688 13.1515H106.825C106.574 12.1369 105.901 11.4736 104.804 11.4736V11.4731ZM110.519 17.6978C111.539 18.5951 112.828 19.1029 114.329 19.1029C116.792 19.1029 117.966 17.8151 117.966 16.1367C117.966 14.244 116.773 13.7951 114.733 13.0342C113.81 12.6829 113.348 12.4096 113.348 12.0196C113.348 11.5124 113.848 11.3171 114.233 11.3171C114.926 11.3171 115.772 11.6296 116.484 12.3316L117.716 10.4389C116.638 9.60001 115.58 9.24873 114.291 9.24873C112.348 9.24873 110.885 10.3615 110.885 12.078C110.885 13.932 112.232 14.6733 113.79 15.2002C115.003 15.6098 115.484 15.8247 115.484 16.2344C115.484 16.7024 115.08 17.0144 114.348 17.0144C113.309 17.0144 112.501 16.644 111.732 15.9224L110.519 17.6978Z" fill="black"/>
</g>
<defs>
<clipPath id="clip0_1358_224804">
<rect width="117.818" height="24" fill="white" transform="translate(0.147461)"/>
</clipPath>
</defs>
</svg>
