<svg width="101" height="24" viewBox="0 0 101 24" fill="none" xmlns="http://www.w3.org/2000/svg">
<g clip-path="url(#clip0_1358_224806)">
<path d="M5.58424 12.3921C5.42593 12.3842 5.26723 12.3949 5.11144 12.4241C4.85153 12.4661 4.60257 12.5593 4.37906 12.6984C4.15555 12.8375 3.96196 13.0197 3.80957 13.2344C3.65717 13.4491 3.54903 13.6919 3.49143 13.9488C3.43383 14.2057 3.42793 14.4715 3.47407 14.7307C3.58735 15.7996 4.72699 16.701 5.78199 16.7278C5.89026 16.7306 5.99857 16.7234 6.10553 16.7064C7.24717 16.5216 7.54607 15.3451 7.35789 14.1896C7.14533 12.8848 6.21542 12.4249 5.58424 12.3921ZM6.70287 15.4833C6.65468 15.5555 6.58779 15.6132 6.50934 15.6503C6.4309 15.6873 6.34385 15.7024 6.25751 15.6938C6.10573 15.6818 5.96419 15.6126 5.86157 15.5001C5.75894 15.3876 5.7029 15.2404 5.70479 15.0881C5.70215 14.8852 5.74126 14.684 5.81969 14.4969C5.86868 14.378 5.87338 14.2455 5.83296 14.1235C5.79254 14.0014 5.70968 13.8979 5.59942 13.8318C5.46395 13.7478 5.30141 13.719 5.14533 13.7514C4.99417 13.7804 4.86059 13.868 4.77369 13.995C4.71503 14.0899 4.66924 14.1921 4.63751 14.299C4.63133 14.3177 4.62642 14.3324 4.62269 14.3419C4.57097 14.4739 4.48842 14.5124 4.43261 14.5053C4.41205 14.5015 4.39301 14.4919 4.37776 14.4776C4.36252 14.4633 4.3517 14.4449 4.34661 14.4247C4.31765 14.2486 4.33122 14.0681 4.38617 13.8983C4.44113 13.7285 4.53587 13.5743 4.66251 13.4486C4.77281 13.3385 4.90677 13.255 5.0542 13.2046C5.20163 13.1541 5.35863 13.138 5.51324 13.1574C5.6756 13.1769 5.83078 13.2356 5.96536 13.3285C6.09994 13.4214 6.20988 13.5457 6.28569 13.6906C6.35864 13.8649 6.38815 14.0544 6.37168 14.2427C6.35521 14.431 6.29326 14.6125 6.19115 14.7716C6.17824 14.7991 6.16642 14.8243 6.15633 14.8468C6.11961 14.9091 6.09934 14.9798 6.09743 15.0521C6.09552 15.1244 6.11204 15.196 6.14542 15.2602C6.1748 15.2993 6.21315 15.3308 6.25724 15.352C6.30133 15.3732 6.34988 15.3835 6.39879 15.3821C6.44548 15.3815 6.49193 15.3753 6.53715 15.3636C6.59579 15.3507 6.65642 15.3373 6.69333 15.3812C6.70558 15.395 6.7131 15.4123 6.71482 15.4307C6.71654 15.4491 6.71235 15.4675 6.70287 15.4833V15.4833Z" fill="white"/>
<path d="M20.1732 17.6754C20.4113 17.0709 20.549 16.4316 20.5808 15.7827C20.5808 14.9849 20.1291 14.6543 19.8415 14.6543C19.8327 14.6235 19.7758 14.4154 19.6975 14.165C19.6527 14.0198 19.5995 13.8773 19.5382 13.7382C19.7736 13.413 19.8732 13.009 19.816 12.6117C19.7689 12.3053 19.6232 12.0226 19.401 11.8065C18.9793 11.4485 18.4761 11.1997 17.9357 11.0818C17.8542 11.059 17.5859 10.9854 17.5623 10.9782C17.5605 10.9629 17.5427 10.0994 17.5265 9.72869C17.5196 9.35697 17.4642 8.98774 17.3617 8.63034C17.2344 8.11744 16.9713 7.64833 16.5999 7.27234C17.5297 6.30991 18.1101 5.24976 18.1087 4.34027C18.1061 2.5912 15.9549 2.06191 13.3041 3.15807C13.3012 3.1593 12.7463 3.39418 12.7424 3.3962C12.7399 3.39374 11.7269 2.40137 11.7117 2.38802C8.68939 -0.244392 -0.760474 10.2443 2.26083 12.7917L2.92111 13.3502C2.74294 13.8276 2.68003 14.3404 2.73751 14.8467C2.82701 15.5834 3.19114 16.2591 3.75716 16.739C4.30657 17.2376 5.01637 17.523 5.75803 17.5435C6.93376 20.249 9.62005 21.9087 12.7698 22.0021C16.1486 22.1023 18.9848 20.5192 20.1732 17.6754ZM20.8667 14.4736C21.1561 14.8471 21.305 15.3105 21.2874 15.7827C21.257 16.5193 21.103 17.2455 20.8318 17.9311L20.8254 17.9471C20.2123 19.4214 19.1418 20.6598 17.7718 21.4799C16.3458 22.3093 14.7211 22.7353 13.0716 22.7123H13.0713C12.9645 22.7123 12.8561 22.7106 12.7489 22.7075C11.1209 22.6735 9.53172 22.2044 8.14623 21.3489C6.92668 20.5846 5.93976 19.5009 5.29261 18.2154C4.54703 18.0996 3.85097 17.7703 3.28857 17.2672C2.58935 16.6699 2.14143 15.8306 2.03441 14.9171C1.98672 14.4733 2.01245 14.0247 2.11056 13.5893L1.80403 13.3301C1.55592 13.1158 1.35429 12.853 1.21154 12.5578C1.0688 12.2627 0.987975 11.9415 0.974034 11.6139C0.948884 10.934 1.06639 10.2564 1.31899 9.62463C1.94822 7.90672 3.39575 5.86113 5.19139 4.15254C5.9927 3.37495 6.8816 2.69306 7.84023 2.12056C8.63978 1.60917 9.55806 1.31339 10.5058 1.26201C11.117 1.24607 11.7124 1.45786 12.1762 1.85626C12.2027 1.87936 12.5995 2.26746 12.9005 2.5623C12.976 2.53043 13.0304 2.5075 13.0319 2.5069C13.9224 2.11904 14.8793 1.90668 15.8502 1.88146C17.6492 1.88146 18.8131 2.84617 18.8153 4.33921C18.8168 5.26046 18.3644 6.29321 17.5306 7.29296C17.7575 7.64375 17.9291 8.0273 18.0394 8.43021C18.1579 8.84267 18.2228 9.26866 18.2325 9.69768C18.2405 9.88224 18.2488 10.1784 18.2555 10.4398C18.8707 10.5955 19.4392 10.8974 19.9127 11.3199C20.2338 11.6384 20.4443 12.0514 20.5135 12.4983C20.583 12.9394 20.5148 13.3913 20.3183 13.7923C20.3358 13.8425 20.354 13.8971 20.3721 13.9548C20.3878 14.0052 20.4027 14.0538 20.4166 14.0999C20.5897 14.1936 20.7427 14.3206 20.8667 14.4736H20.8667Z" fill="white"/>
<path d="M18.7251 13.6001C18.8397 13.4924 18.9291 13.3607 18.9869 13.2144C19.0446 13.0682 19.0693 12.9109 19.0593 12.754C19.0363 12.5958 18.9625 12.4494 18.849 12.3369C18.516 12.0605 18.1197 11.8707 17.6955 11.7846C17.5018 11.7296 17.3703 11.6944 17.2287 11.6473C16.9768 11.5635 16.8524 11.496 16.8242 11.0172C16.8119 10.8078 16.7758 10.0784 16.7628 9.77696C16.7398 9.24878 16.6769 8.52684 16.2339 8.22878C16.1212 8.15402 15.9902 8.11168 15.855 8.10638C15.7794 8.10172 15.7035 8.10923 15.6302 8.12862C15.4054 8.18115 15.2007 8.2981 15.0413 8.46515C14.835 8.6536 14.5917 8.79707 14.3269 8.88645C14.0621 8.97583 13.7816 9.00916 13.5032 8.98432C13.1932 8.97118 12.8646 8.92238 12.4879 8.89979C12.4146 8.89547 12.3411 8.89088 12.2677 8.88699C11.781 8.90137 11.3156 9.09022 10.9565 9.4191C10.5975 9.74799 10.3686 10.195 10.3116 10.6786C10.0959 12.1786 11.1703 12.9537 11.4805 13.4086C11.5285 13.4666 11.5582 13.5376 11.5659 13.6125C11.5578 13.6956 11.5183 13.7725 11.4555 13.8274L11.4556 13.8278C11.026 14.3113 10.7245 14.8947 10.5784 15.5248C10.4323 16.1548 10.4464 16.8114 10.6194 17.4346C10.6604 17.5843 10.7129 17.7305 10.7766 17.8721C11.5605 19.7243 13.9926 20.5869 16.3686 19.8024C16.6798 19.6996 16.9818 19.5706 17.2712 19.4168C17.7922 19.1564 18.2607 18.8024 18.6535 18.3724C19.2664 17.7508 19.6689 16.9528 19.8044 16.0905C19.876 15.6131 19.7711 15.4284 19.6285 15.3395C19.5277 15.2828 19.4109 15.2613 19.2966 15.2783C19.2361 14.9035 19.1299 14.5376 18.9805 14.1887L18.7251 13.6001Z" fill="white"/>
<path d="M14.8309 6.44636C14.8693 6.45516 14.8936 6.38893 14.8593 6.3697C14.2917 6.07555 13.6656 5.91171 13.0267 5.8901C13.0205 5.89001 13.0145 5.88822 13.0093 5.88493C13.0042 5.88165 13 5.87699 12.9973 5.87148C12.9946 5.86596 12.9934 5.85981 12.994 5.85369C12.9946 5.84757 12.9968 5.84173 13.0005 5.83681C13.0998 5.70699 13.2157 5.59079 13.3453 5.49121C13.3511 5.4867 13.3554 5.48046 13.3574 5.47339C13.3594 5.46631 13.359 5.45879 13.3565 5.45191C13.3539 5.44503 13.3492 5.43916 13.343 5.43515C13.3368 5.43115 13.3296 5.42922 13.3222 5.42966C12.5399 5.5065 11.7878 5.77165 11.1302 6.20244C11.1246 6.20622 11.118 6.20823 11.1112 6.20822C11.1044 6.2082 11.0978 6.20615 11.0923 6.20234C11.0867 6.19853 11.0824 6.19313 11.0799 6.18684C11.0774 6.18055 11.0768 6.17365 11.0783 6.16705C11.1313 5.96953 11.2092 5.77956 11.3103 5.60176C11.3136 5.59566 11.3149 5.58865 11.3139 5.58176C11.313 5.57488 11.3098 5.56848 11.305 5.56351C11.3001 5.55855 11.2938 5.55527 11.2869 5.55418C11.2801 5.55308 11.273 5.55422 11.2668 5.55742C10.3173 6.07895 9.47099 6.76954 8.7696 7.5952C8.76412 7.60148 8.76114 7.60956 8.76123 7.6179C8.76132 7.62624 8.76447 7.63425 8.77008 7.64042C8.7757 7.64659 8.78338 7.65048 8.79167 7.65135C8.79997 7.65223 8.80829 7.65002 8.81506 7.64516C9.62787 7.07718 10.5435 6.673 11.5109 6.45522C12.6029 6.20332 13.7376 6.20029 14.8309 6.44635" fill="white"/>
<path d="M12.0344 3.76708C12.0344 3.76708 11.2118 2.81475 10.9635 2.7445C9.43579 2.33226 6.13574 4.6049 4.02865 7.60749C3.17607 8.82236 1.95558 10.9738 2.53918 12.0803C2.74661 12.3287 2.98045 12.5539 3.23656 12.7517C3.62758 12.2036 4.21608 11.8287 4.87806 11.706C5.70886 9.38331 7.16722 7.33639 9.09117 5.79256C10.0144 5.03697 10.9989 4.35948 12.0344 3.76708Z" fill="white"/>
<path d="M6.64767 15.442C6.65951 15.4564 6.66674 15.474 6.6684 15.4925C6.67005 15.5111 6.66606 15.5297 6.65694 15.5459C6.6126 15.6179 6.54903 15.676 6.47341 15.7138C6.39779 15.7515 6.31312 15.7674 6.22894 15.7597C6.07893 15.7435 5.94065 15.671 5.84205 15.5568C5.74344 15.4426 5.69186 15.2952 5.69774 15.1445C5.6952 14.939 5.73271 14.735 5.80818 14.5439C5.85582 14.4242 5.86079 14.2917 5.82226 14.1687C5.78372 14.0457 5.70404 13.9397 5.59658 13.8686C5.53299 13.8265 5.46161 13.7976 5.38665 13.7835C5.3117 13.7695 5.23469 13.7706 5.16018 13.7868C5.08718 13.8022 5.01799 13.832 4.95667 13.8745C4.89536 13.917 4.84316 13.9713 4.80315 14.0343C4.74655 14.1312 4.70254 14.2349 4.67219 14.3429C4.66634 14.362 4.66161 14.3769 4.65803 14.3865C4.60831 14.5207 4.52904 14.5598 4.47533 14.5526C4.44993 14.5491 4.41502 14.5321 4.39264 14.4707C4.36455 14.2932 4.37729 14.1117 4.42991 13.9399C4.48253 13.7681 4.57363 13.6106 4.69629 13.4793C4.7993 13.3687 4.92716 13.2841 5.0693 13.2327C5.21145 13.1813 5.36378 13.1645 5.51372 13.1837C5.67256 13.2055 5.8235 13.2664 5.95303 13.3609C6.08257 13.4553 6.18665 13.5805 6.25595 13.7251C6.32614 13.9027 6.35447 14.0942 6.33873 14.2846C6.32299 14.475 6.26362 14.6593 6.16521 14.823C6.15276 14.8508 6.14136 14.8764 6.13176 14.8995C6.09637 14.9635 6.07694 15.035 6.07511 15.1081C6.07329 15.1812 6.08912 15.2536 6.12126 15.3193C6.14844 15.3584 6.1849 15.3902 6.22738 15.4118C6.26986 15.4334 6.31704 15.4441 6.36468 15.443C6.4096 15.4424 6.45425 15.4361 6.49759 15.4242C6.55399 15.411 6.61226 15.3975 6.64766 15.442M20.5505 15.7891C20.519 16.4365 20.3822 17.0745 20.1456 17.6779C18.9649 20.5157 16.1473 22.0955 12.7907 21.9955C9.6616 21.9023 6.99282 20.246 5.82478 17.5462C5.0874 17.5256 4.38199 17.2407 3.83711 16.7434C3.27423 16.2636 2.91259 15.5895 2.82409 14.8551C2.76698 14.3499 2.82946 13.8383 3.00649 13.3617L2.35052 12.8043C-0.650967 10.2623 8.73689 -0.204319 11.7395 2.42262C11.7547 2.43585 12.7609 3.42622 12.7634 3.42866C12.7674 3.42662 13.3186 3.19217 13.3214 3.19103C15.955 2.09715 18.092 2.62532 18.0947 4.37063C18.0961 5.2783 17.5195 6.33626 16.5958 7.29659C16.965 7.6723 17.2263 8.14033 17.3525 8.65169C17.4544 9.00844 17.5094 9.37691 17.5163 9.74785C17.5323 10.1177 17.5501 10.9795 17.5518 10.9948C17.5753 11.0019 17.8419 11.0753 17.9227 11.0981C18.46 11.2159 18.96 11.4643 19.3785 11.8213C19.5995 12.0373 19.7441 12.3193 19.7908 12.6248C19.8477 13.0211 19.7488 13.424 19.5149 13.7489C19.5757 13.8877 19.6286 14.03 19.6731 14.1749C19.7508 14.4248 19.8074 14.6323 19.8161 14.663C20.1018 14.663 20.5506 14.993 20.5506 15.7892L20.5505 15.7891ZM7.28621 14.2319C7.0821 12.9068 6.18841 12.4398 5.58201 12.4065C5.42979 12.3984 5.27716 12.4093 5.12763 12.4389C4.04529 12.6579 3.43401 13.5814 3.55429 14.7814C3.64189 15.3197 3.90844 15.8127 4.31085 16.1807C4.71326 16.5488 5.22803 16.7704 5.77196 16.8098C5.87605 16.8126 5.98017 16.8052 6.08285 16.7879C7.17984 16.6003 7.46705 15.4055 7.28621 14.2319ZM9.13618 5.81993C10.053 5.06618 11.031 4.3901 12.0601 3.7987C12.0601 3.7987 11.243 2.84841 10.9962 2.77838C9.47857 2.36687 6.20005 4.63478 4.10682 7.63103C3.25984 8.84336 2.04736 10.9903 2.62707 12.0945C2.83301 12.3423 3.06532 12.567 3.3199 12.7645C3.70747 12.2182 4.29227 11.844 4.9507 11.721C5.77444 9.40535 7.22309 7.36292 9.13618 5.81993ZM12.4347 16.3064C12.4749 16.4825 12.562 16.6445 12.6867 16.7752C12.8113 16.9059 12.969 17.0005 13.143 17.0491C13.324 17.1165 13.5108 17.1674 13.701 17.2011C16.1017 17.6153 18.3461 16.2385 18.8514 15.8917C18.8894 15.8656 18.9144 15.891 18.884 15.937C18.8688 15.9614 18.8522 15.9851 18.8345 16.0078C18.2161 16.8079 16.5534 17.7345 14.3903 17.7342C13.4469 17.734 12.5039 17.4007 12.1577 16.8884C11.6206 16.0936 12.1311 14.9334 13.0261 15.0543C13.0272 15.0545 13.3324 15.0892 13.4182 15.0987C14.8094 15.2325 16.2118 15.0074 17.4913 14.4449C18.7124 13.8763 19.1737 13.2506 19.1045 12.7441C19.0814 12.5868 19.0074 12.4414 18.894 12.33C18.56 12.0551 18.1635 11.8667 17.7395 11.7815C17.5456 11.7269 17.414 11.692 17.2722 11.6452C17.0201 11.5619 16.8955 11.4949 16.8673 11.0195C16.855 10.8115 16.8189 10.0872 16.8058 9.78785C16.7827 9.26336 16.7199 8.54646 16.2764 8.25046C16.1634 8.17615 16.0323 8.13412 15.8973 8.12891C15.8215 8.1243 15.7455 8.13177 15.6722 8.15104C15.4475 8.20303 15.2427 8.31913 15.0828 8.48524C14.8755 8.67259 14.6317 8.81509 14.3668 8.9038C14.1018 8.99251 13.8214 9.02552 13.5431 9.00075C13.2328 8.98777 12.9039 8.93928 12.5269 8.91683C12.4536 8.91251 12.38 8.90794 12.3065 8.90418C11.8211 8.91691 11.3564 9.10353 10.997 9.43006C10.6377 9.7566 10.4075 10.2013 10.3485 10.6833C10.1327 12.1728 11.2081 12.9425 11.5186 13.3942C11.5665 13.4517 11.5963 13.5222 11.604 13.5967C11.5958 13.6794 11.5563 13.7557 11.4935 13.81V13.8105C11.064 14.289 10.7622 14.868 10.6159 15.4941C10.4697 16.1201 10.4836 16.773 10.6566 17.3922C10.6977 17.5409 10.7503 17.6861 10.8139 17.8266C11.5987 19.666 14.033 20.5225 16.4112 19.7434C16.7226 19.6414 17.0249 19.5134 17.3148 19.3607C17.8355 19.1025 18.3045 18.7509 18.6984 18.3234C19.3109 17.7079 19.7139 16.915 19.8503 16.0574C19.9219 15.5833 19.8171 15.3999 19.6742 15.3117C19.5732 15.2554 19.4564 15.234 19.342 15.2508C19.2814 14.8785 19.1752 14.515 19.0256 14.1687C18.3464 14.6813 17.5786 15.0643 16.7606 15.2987C15.7764 15.5768 14.7526 15.6878 13.7317 15.6272C13.0749 15.574 12.6404 15.3817 12.477 15.9144C13.4705 16.2466 14.5253 16.3543 15.5654 16.2295C15.5727 16.2288 15.5801 16.2295 15.5871 16.2316C15.5942 16.2337 15.6007 16.2372 15.6064 16.2418C15.6121 16.2465 15.6168 16.2522 15.6203 16.2587C15.6238 16.2652 15.6259 16.2723 15.6267 16.2796C15.6278 16.2919 15.625 16.3043 15.6188 16.3149C15.6126 16.3256 15.6032 16.3341 15.592 16.3392C15.592 16.3392 14.3721 16.9074 12.4347 16.3064ZM8.86199 7.66858C9.66887 7.10212 10.5787 6.69878 11.5402 6.48123C12.6249 6.22986 13.7525 6.22682 14.8385 6.47234C14.8765 6.48107 14.9008 6.41503 14.8668 6.39594C14.3032 6.10249 13.6811 5.93892 13.046 5.91724C13.0399 5.91713 13.0339 5.91533 13.0288 5.91205C13.0236 5.90877 13.0194 5.90412 13.0168 5.89863C13.0141 5.89313 13.0129 5.887 13.0135 5.88091C13.0141 5.87482 13.0163 5.869 13.02 5.8641C13.1186 5.73462 13.2338 5.61866 13.3627 5.5192C13.3685 5.5147 13.3726 5.50847 13.3746 5.50142C13.3766 5.49437 13.3763 5.48687 13.3737 5.48001C13.3712 5.47315 13.3665 5.4673 13.3603 5.46329C13.3542 5.45928 13.347 5.45734 13.3396 5.45773C12.562 5.53462 11.8147 5.79927 11.1619 6.22893C11.1564 6.23271 11.1498 6.23472 11.143 6.2347C11.1363 6.23469 11.1297 6.23265 11.1242 6.22884C11.1186 6.22504 11.1143 6.21965 11.1119 6.21337C11.1094 6.2071 11.1089 6.20023 11.1104 6.19367C11.163 5.99663 11.2404 5.80708 11.3408 5.62959C11.3442 5.62352 11.3455 5.61654 11.3445 5.60968C11.3436 5.60282 11.3405 5.59644 11.3356 5.59147C11.3308 5.58651 11.3245 5.58323 11.3177 5.58211C11.3109 5.58099 11.3038 5.5821 11.2977 5.58526C10.3537 6.1063 9.51295 6.79551 8.81682 7.61889C8.81137 7.62514 8.8084 7.63317 8.80848 7.64146C8.80857 7.64975 8.81169 7.65773 8.81727 7.66386C8.82285 7.67 8.83049 7.67387 8.83873 7.67474C8.84698 7.67561 8.85526 7.67342 8.86199 7.66858ZM15.1839 12.7248C15.2497 12.7664 15.3284 12.7824 15.4051 12.7696C15.4818 12.7569 15.5511 12.7163 15.5999 12.6557C15.6604 12.5385 15.5725 12.3795 15.4034 12.3006C15.3377 12.259 15.2589 12.2431 15.1822 12.2558C15.1055 12.2686 15.0362 12.3092 14.9875 12.3698C14.9269 12.487 15.0148 12.6459 15.1839 12.7248ZM15.7026 10.8242C15.7432 11.0353 15.8307 11.2345 15.9587 11.407C16.0909 11.3908 16.2247 11.3908 16.3569 11.407C16.4342 11.1754 16.441 10.926 16.3764 10.6906C16.2808 10.2561 16.1514 9.99313 15.8842 10.034C15.617 10.075 15.6071 10.3898 15.7026 10.8242ZM16.2712 11.8223C16.2038 11.803 16.132 11.8053 16.066 11.8288C15.9999 11.8523 15.9429 11.896 15.9029 11.9536C15.863 12.0112 15.8421 12.0799 15.8431 12.1501C15.8442 12.2202 15.8673 12.2882 15.909 12.3445C15.9507 12.4009 16.0091 12.4428 16.0758 12.4642C16.1426 12.4857 16.2144 12.4858 16.2811 12.4644C16.3479 12.4429 16.4063 12.4011 16.4481 12.3448C16.4899 12.2885 16.513 12.2205 16.5141 12.1504C16.5238 12.0749 16.504 11.9986 16.4587 11.9375C16.4134 11.8763 16.3462 11.8351 16.2712 11.8223Z" fill="black"/>
<path d="M11.8339 11.7835C11.7912 11.7775 11.7731 11.7593 11.7677 11.7351C11.7511 11.6601 11.8664 11.5368 11.9879 11.4477C12.1653 11.3181 12.373 11.2362 12.5911 11.21C12.8093 11.1838 13.0305 11.2142 13.2335 11.2982C13.4231 11.3765 13.5862 11.5077 13.7032 11.6763C13.7467 11.7472 13.7551 11.8021 13.727 11.8309C13.6832 11.8771 13.5716 11.8242 13.3899 11.7445C13.1717 11.6374 12.9305 11.5855 12.6875 11.5933C12.3996 11.6406 12.1146 11.7041 11.8339 11.7835ZM13.6447 12.1563C13.5662 12.0738 13.4684 12.012 13.3602 11.9765C13.252 11.941 13.1366 11.933 13.0245 11.953C12.8592 11.9706 12.7025 12.0359 12.5736 12.1409C12.5136 12.184 12.4723 12.2485 12.4583 12.3211C12.4579 12.3292 12.4594 12.3372 12.4625 12.3447C12.4656 12.3521 12.4704 12.3588 12.4763 12.3642C12.487 12.3739 12.5009 12.3792 12.5153 12.379C12.5748 12.3703 12.6329 12.3542 12.6884 12.331C12.9313 12.2395 13.1937 12.2122 13.4503 12.2519C13.5691 12.2653 13.6253 12.2727 13.6514 12.2319C13.6581 12.2201 13.661 12.2065 13.6598 12.193C13.6586 12.1795 13.6533 12.1667 13.6447 12.1563Z" fill="black"/>
<path d="M33.8737 10.825C32.5682 10.825 31.9237 11.8563 31.626 12.5218C31.462 12.8922 31.4151 13.1851 31.2815 13.1851C31.0893 13.1851 31.2276 12.932 31.0729 12.3648C30.869 11.6195 30.2549 10.8297 28.9518 10.8297C27.5831 10.8297 26.9948 11.9922 26.7182 12.632C26.526 13.0679 26.526 13.1898 26.3807 13.1898C26.1697 13.1898 26.3455 12.8429 26.4393 12.4351C26.5541 11.9687 26.5705 11.4836 26.4861 11.0101H24.3135V19.2181H27.2736V15.14C27.2736 14.3337 27.6111 13.3142 28.1853 13.3142C28.8533 13.3142 28.9822 13.8275 28.9822 14.7767V19.2275H31.9587V15.14C31.9587 14.4228 32.2494 13.3142 32.8728 13.3142C33.5478 13.3142 33.665 14.0361 33.665 14.7767V19.2252H36.59V14.3947C36.5923 12.2525 35.84 10.8252 33.8736 10.8252L33.8737 10.825Z" fill="black"/>
<path d="M84.1955 10.825C82.8923 10.825 82.2455 11.8563 81.9501 12.5218C81.7837 12.8922 81.7392 13.1851 81.6033 13.1851C81.4134 13.1851 81.5423 12.8617 81.397 12.3648C81.1791 11.6242 80.6377 10.8297 79.2759 10.8297C77.9119 10.8297 77.3189 11.9922 77.0399 12.632C76.8501 13.0679 76.8501 13.1898 76.7048 13.1898C76.4915 13.1898 76.6673 12.8429 76.7634 12.4351C76.8782 11.9687 76.8923 11.4836 76.8079 11.0101H74.6353V19.2181H77.5978V15.14C77.5978 14.3337 77.9329 13.3142 78.5071 13.3142C79.1704 13.3142 79.3063 13.8275 79.3063 14.7767V19.2275H82.2805V15.14C82.2805 14.4228 82.5735 13.3142 83.1969 13.3142C83.8649 13.3142 83.9891 14.0361 83.9891 14.7767V19.2252H86.9117V14.3947C86.9141 12.2525 86.1641 10.8252 84.1954 10.8252L84.1955 10.825Z" fill="black"/>
<path d="M41.6546 10.8274C40.3093 10.8204 38.9781 11.1063 37.7523 11.6641V14.1321C37.7523 14.1321 39.5523 13.0914 41.0124 13.0914C42.1773 13.0914 42.3203 13.7243 42.2687 14.2446C42.2687 14.2446 41.9336 14.1555 40.907 14.1555C38.4907 14.1555 37.2695 15.2594 37.2695 17.029C37.2695 18.7071 38.6407 19.4079 39.7961 19.4079C41.4812 19.4079 42.2219 18.2712 42.4515 17.7297C42.6086 17.3547 42.6367 17.1039 42.7797 17.1039C42.9414 17.1039 42.8851 17.2844 42.8758 17.657C42.8617 18.3109 42.8922 18.8032 42.993 19.2203H45.2313V15.1844C45.2313 12.6625 44.3453 10.8274 41.6547 10.8274L41.6546 10.8274ZM40.9304 17.3032C40.2203 17.4673 39.8546 17.2469 39.8546 16.7759C39.8546 16.129 40.5226 15.8688 41.4695 15.8688C41.889 15.8688 42.2828 15.9063 42.2828 15.9063C42.2851 16.1829 41.6875 17.1274 40.9304 17.3032V17.3032Z" fill="black"/>
<path d="M50.1157 8.5282H53.0829V19.2226H50.1157V8.5282Z" fill="black"/>
<path d="M56.3457 15.1186C56.3457 14.3803 57.0277 13.71 58.2793 13.71C59.6457 13.71 60.7426 14.3709 60.9887 14.5186V11.6639C60.9887 11.6639 60.1215 10.8272 57.991 10.8272C55.7434 10.8272 53.873 12.1491 53.873 14.9921C53.873 17.835 55.5699 19.4077 57.9817 19.4077C59.866 19.4077 60.991 18.3671 60.991 18.3671V15.66C60.6348 15.8592 59.6457 16.5507 58.291 16.5507C56.8613 16.5507 56.3457 15.8874 56.3457 15.1186V15.1186Z" fill="black"/>
<path d="M66.9935 10.8274C65.2731 10.8274 64.6239 12.4587 64.4927 12.7469C64.3591 13.0352 64.2934 13.1946 64.1856 13.1899C63.9958 13.1852 64.1294 12.843 64.2044 12.6203C64.4903 11.6922 64.6333 10.7266 64.6333 9.75396C64.6333 8.83758 64.5091 8.53284 64.5091 8.53284H61.9497V19.2224H64.9122V15.1396C64.9122 14.474 65.1771 13.3138 65.9247 13.3138C66.5434 13.3138 66.7357 13.7755 66.7357 14.7037V19.2248H69.6982V14.8795C69.7052 12.7701 69.356 10.8271 66.9935 10.8271L66.9935 10.8274Z" fill="black"/>
<path d="M70.6719 11.0242V19.2226H73.6344V11.0242C73.6344 11.0242 73.1352 11.3125 72.1532 11.3125C71.1735 11.3125 70.6719 11.0242 70.6719 11.0242H70.6719Z" fill="black"/>
<path d="M73.9595 9.63699C73.9595 8.97837 73.1462 8.44635 72.1431 8.44635C71.1423 8.44635 70.3291 8.97838 70.3291 9.63699C70.3291 10.2933 71.1424 10.8276 72.1431 10.8276C73.1463 10.8276 73.9595 10.2933 73.9595 9.63699Z" fill="black"/>
<path d="M46.1924 11.0242V19.2226H49.1549V11.0242C49.1549 11.0242 48.6557 11.3125 47.676 11.3125C46.6963 11.3125 46.1924 11.0242 46.1924 11.0242Z" fill="black"/>
<path d="M49.4801 9.63699C49.4801 8.97837 48.6668 8.44635 47.6661 8.44635C46.663 8.44635 45.8521 8.97838 45.8521 9.63699C45.8521 10.2933 46.663 10.8276 47.6661 10.8276C48.6669 10.8276 49.4801 10.2933 49.4801 9.63699Z" fill="black"/>
<path d="M92.8058 10.825C91.2824 10.825 90.584 11.9781 90.2816 12.6273C90.0801 13.0586 90.0895 13.1851 89.9441 13.1851C89.7332 13.1851 89.909 12.8383 90.0027 12.4305C90.1176 11.9664 90.1316 11.4813 90.0473 11.0101H87.877V21.4891H90.8395V18.1657C91.191 18.7657 91.8403 19.4055 92.8457 19.4055C94.9903 19.4055 96.0684 17.5797 96.0684 15.1188C96.066 12.3274 94.7747 10.8251 92.8059 10.8251L92.8058 10.825ZM91.9925 17.4604C91.3129 17.4604 90.8137 16.5955 90.8137 15.3862C90.8137 14.212 91.3269 13.312 91.9691 13.312C92.7941 13.312 93.1457 14.0737 93.1457 15.3862C93.1457 16.7526 92.8222 17.4604 91.9925 17.4604Z" fill="black"/>
</g>
<defs>
<clipPath id="clip0_1358_224806">
<rect width="100" height="24" fill="white" transform="translate(0.96582)"/>
</clipPath>
</defs>
</svg>
