<svg width="155" height="24" viewBox="0 0 155 24" fill="none" xmlns="http://www.w3.org/2000/svg">
<mask id="mask0_1358_224809" style="mask-type:alpha" maskUnits="userSpaceOnUse" x="23" y="8" width="14" height="16">
<path d="M31.4163 8.63037L35.7516 18.3773C36.6289 20.3496 35.7427 22.6605 33.7723 23.5386C31.8018 24.4168 29.4933 23.5298 28.616 21.5574L25.1114 13.6782L23.5669 17.3204V8.63037H31.4163V8.63037Z" fill="white"/>
</mask>
<g mask="url(#mask0_1358_224809)">
<path d="M31.4163 8.63037L35.7516 18.3773C36.6289 20.3496 35.7427 22.6605 33.7723 23.5386C31.8018 24.4168 29.4933 23.5298 28.616 21.5574L25.1114 13.6782L23.5669 17.3204V8.63037H31.4163V8.63037Z" fill="black"/>
</g>
<mask id="mask1_1358_224809" style="mask-type:alpha" maskUnits="userSpaceOnUse" x="24" y="9" width="9" height="7">
<path d="M31.886 9.68677L32.783 11.7034C32.2412 11.515 31.6591 11.4126 31.0531 11.4126C28.5501 11.4126 26.4552 13.1594 25.9216 15.5L25.1112 13.6782L24.2524 15.7034L24.2524 9.68677H31.886Z" fill="white"/>
</mask>
<g mask="url(#mask1_1358_224809)">
<path d="M31.8855 9.68671L32.7825 11.7033C32.2407 11.5149 31.6586 11.4126 31.0527 11.4126C28.5496 11.4126 26.4547 13.1593 25.9211 15.5L25.1107 13.6782L24.252 15.7033L24.252 9.68671H31.8855Z" fill="black" fill-opacity="0.2"/>
</g>
<mask id="mask2_1358_224809" style="mask-type:alpha" maskUnits="userSpaceOnUse" x="2" y="0" width="17" height="16">
<path d="M18.8392 8.45924V15.3614H11.6168L10.8681 13.6782L10.1544 15.3614H2.16553V14.1903L7.17255 2.38283C7.80582 0.889475 9.25775 -0.00529372 10.7828 2.35668e-05C12.2831 -0.00520582 13.7169 0.860126 14.3663 2.32022L17.9889 10.4646L18.8392 8.45924Z" fill="white"/>
</mask>
<g mask="url(#mask2_1358_224809)">
<path d="M18.8388 8.45918V15.3614H11.6163L10.8677 13.6781L10.1539 15.3614H2.16504V14.1902L7.17207 2.38277C7.80533 0.889414 9.25726 -0.00535475 10.7823 -3.74684e-05C12.2827 -0.00526685 13.7164 0.860065 14.3659 2.32016L17.9884 10.4645L18.8388 8.45918Z" fill="black"/>
</g>
<mask id="mask3_1358_224809" style="mask-type:alpha" maskUnits="userSpaceOnUse" x="10" y="0" width="23" height="24">
<path d="M17.9833 10.4528L17.9885 10.4646L21.4156 2.38283C22.0489 0.889475 23.5008 -0.00529372 25.0259 2.35668e-05C26.5262 -0.00520582 27.96 0.860126 28.6094 2.32022L32.7793 11.6952C31.9384 10.9683 30.8428 10.5287 29.6446 10.5287C27.5627 10.5287 25.7905 11.8558 25.1259 13.7112L25.1112 13.6782L21.7446 21.6172C20.9019 23.6046 18.6091 24.5318 16.6237 23.6882C16.4294 23.6057 16.2453 23.5093 16.072 23.4006C15.3439 23.0043 14.7355 22.3738 14.3724 21.5574L10.8813 13.7087C11.4069 13.8593 11.9619 13.94 12.5358 13.94C14.9505 13.94 17.032 12.5116 17.9833 10.4528Z" fill="white"/>
</mask>
<g mask="url(#mask3_1358_224809)">
<path d="M17.9828 10.4528L17.988 10.4646L21.4151 2.38283C22.0484 0.889475 23.5003 -0.00529372 25.0254 2.35668e-05C26.5257 -0.00520582 27.9595 0.860126 28.6089 2.32022L32.7788 11.6952C31.9379 10.9683 30.8423 10.5287 29.6441 10.5287C27.5622 10.5287 25.79 11.8558 25.1254 13.7112L25.1107 13.6782L21.7442 21.6172C20.9014 23.6046 18.6086 24.5318 16.6232 23.6882C16.4289 23.6057 16.2448 23.5093 16.0715 23.4006C15.3434 23.0043 14.735 22.3738 14.3719 21.5574L10.8809 13.7087C11.4064 13.8593 11.9614 13.94 12.5353 13.94C14.95 13.94 17.0315 12.5116 17.9828 10.4528Z" fill="black"/>
</g>
<mask id="mask4_1358_224809" style="mask-type:alpha" maskUnits="userSpaceOnUse" x="1" y="10" width="10" height="11">
<path d="M10.8463 13.7293L8.33231 19.6578C7.7192 19.9395 7.036 20.0964 6.31575 20.0964C3.78925 20.0964 1.71865 18.1657 1.52979 15.6891L3.25507 11.6206C4.08587 10.932 5.15249 10.5181 6.31575 10.5181C8.40961 10.5181 10.1903 11.8591 10.8463 13.7293Z" fill="white"/>
</mask>
<g mask="url(#mask4_1358_224809)">
<path d="M10.8463 13.7292L8.33231 19.6577C7.7192 19.9394 7.036 20.0963 6.31575 20.0963C3.78925 20.0963 1.71865 18.1657 1.52979 15.689L3.25507 11.6205C4.08587 10.9319 5.15249 10.518 6.31575 10.518C8.40961 10.518 10.1903 11.859 10.8463 13.7292Z" fill="black"/>
</g>
<mask id="mask5_1358_224809" style="mask-type:alpha" maskUnits="userSpaceOnUse" x="0" y="11" width="11" height="13">
<path d="M10.1085 15.4693L7.50146 21.6172C6.65868 23.6046 4.36594 24.5318 2.38048 23.6882C0.395022 22.8446 -0.531305 20.5496 0.311473 18.5622L3.20635 11.7356C3.81914 11.464 4.49689 11.3132 5.20971 11.3132C7.67064 11.3132 9.71362 13.1104 10.1085 15.4693Z" fill="white"/>
</mask>
<g mask="url(#mask5_1358_224809)">
<path d="M10.108 15.4693L7.50097 21.6172C6.65819 23.6046 4.36545 24.5318 2.37999 23.6882C0.394534 22.8446 -0.531793 20.5496 0.310984 18.5622L3.20586 11.7356C3.81865 11.464 4.4964 11.3132 5.20922 11.3132C7.67015 11.3132 9.71313 13.1104 10.108 15.4693Z" fill="black"/>
</g>
<path d="M57.8854 6.01785V18.0284C57.8854 18.2132 57.7357 18.363 57.551 18.363H55.2107C55.026 18.363 54.8764 18.2132 54.8764 18.0284V11.072C54.8764 10.8873 54.7267 10.7375 54.542 10.7375C54.4322 10.7375 54.3294 10.7915 54.2669 10.8819L52.1008 14.0199C52.0384 14.1103 51.9355 14.1643 51.8257 14.1643H50.6735C50.5628 14.1643 50.4593 14.1095 50.3971 14.0179L48.299 10.9311C48.1951 10.7783 47.9872 10.7387 47.8345 10.8426C47.743 10.9049 47.6882 11.0085 47.6882 11.1193V18.0284C47.6882 18.2132 47.5385 18.363 47.3539 18.363H45.0135C44.8289 18.363 44.6792 18.2132 44.6792 18.0284V6.01785C44.6792 5.83308 44.8289 5.68329 45.0135 5.68329H47.9775C48.0892 5.68329 48.1935 5.7391 48.2555 5.83204L51.0043 9.95051C51.1068 10.1042 51.3144 10.1455 51.468 10.0429C51.5045 10.0185 51.5359 9.98708 51.5603 9.95051L54.309 5.83204C54.371 5.7391 54.4754 5.68329 54.587 5.68329H57.551C57.7357 5.68329 57.8854 5.83308 57.8854 6.01785ZM61.9878 14.5323C62.1104 15.0676 62.3639 15.4858 62.7484 15.7869C63.1329 16.088 63.6985 16.2386 64.4452 16.2386C64.8798 16.2386 65.2949 16.1856 65.6905 16.0796C65.9062 16.0219 66.2491 15.8902 66.7192 15.6847C66.8884 15.6107 67.0855 15.688 67.1594 15.8573C67.1633 15.8663 67.1669 15.8754 67.17 15.8847L67.7102 17.4946C67.7646 17.6566 67.6882 17.8336 67.533 17.905C66.8994 18.1966 66.4162 18.3799 66.0834 18.455C65.515 18.5832 64.8352 18.6474 64.044 18.6474C62.9406 18.6474 62.0017 18.4383 61.2272 18.0201C60.4527 17.6019 59.8648 17.0136 59.4636 16.2553C59.0624 15.497 58.8618 14.616 58.8618 13.6123C58.8618 12.564 59.068 11.6635 59.4803 10.9107C59.8927 10.158 60.4499 9.58924 61.152 9.2045C61.8541 8.81976 62.6398 8.62739 63.509 8.62739C64.9021 8.62739 65.9942 9.03164 66.7855 9.84016C67.5767 10.6487 67.9724 11.828 67.9724 13.3781V14.1978C67.9724 14.3825 67.8227 14.5323 67.638 14.5323H61.9878ZM63.509 11.0362C63.1078 11.0362 62.7818 11.1366 62.5311 11.3373C62.3493 11.5039 62.2134 11.6951 62.1234 11.911C62.0522 12.0815 62.1327 12.2774 62.3031 12.3486C62.3439 12.3657 62.3877 12.3744 62.4319 12.3744H64.5206C64.7053 12.3744 64.8549 12.2246 64.8549 12.0399C64.8549 12.0107 64.8511 11.9817 64.8436 11.9536C64.7745 11.6944 64.6612 11.4945 64.5037 11.354C64.2499 11.1446 63.9437 11.0362 63.509 11.0362ZM80.4276 8.6943C81.6312 8.6943 82.5311 9.01213 83.1273 9.64779C83.7235 10.2835 84.0217 11.2927 84.0217 12.6755V18.0284C84.0217 18.2132 83.872 18.363 83.6873 18.363H81.4473C81.2626 18.363 81.113 18.2132 81.113 18.0284V12.6755C81.113 12.2183 81.0127 11.8698 80.8121 11.63C80.6115 11.3903 80.266 11.2704 79.7756 11.2704C79.1738 11.2704 78.5609 11.538 77.9368 12.0733C77.9479 12.196 77.9535 12.3967 77.9535 12.6755V18.0284C77.9535 18.2132 77.8038 18.363 77.6192 18.363H75.3791C75.1945 18.363 75.0448 18.2132 75.0448 18.0284V12.6755C75.0448 12.2183 74.9445 11.8698 74.7439 11.63C74.5433 11.3903 74.1978 11.2704 73.7075 11.2704C73.1168 11.2704 72.5095 11.5269 71.8854 12.0399V18.0284C71.8854 18.2132 71.7357 18.363 71.551 18.363H69.311C69.1263 18.363 68.9767 18.2132 68.9767 18.0284V9.22959C68.9767 9.04482 69.1263 8.89504 69.311 8.89504H71.551C71.7357 8.89504 71.8854 9.04482 71.8854 9.22959V9.63106C72.2754 9.30765 72.6683 9.07068 73.0639 8.92013C73.4595 8.76958 73.8914 8.6943 74.3594 8.6943C75.8416 8.6943 76.8558 9.16825 77.4019 10.1162C77.9034 9.62548 78.3909 9.26584 78.8646 9.03722C79.3382 8.80861 79.8592 8.6943 80.4276 8.6943ZM90.6265 8.62739C91.4735 8.62739 92.223 8.81418 92.8749 9.18777C93.5269 9.56136 94.0395 10.1245 94.4129 10.8773C94.7862 11.63 94.9729 12.5473 94.9729 13.629C94.9729 14.7219 94.7862 15.6447 94.4129 16.3975C94.0395 17.1502 93.5269 17.7134 92.8749 18.087C92.223 18.4606 91.4735 18.6474 90.6265 18.6474C89.7238 18.6474 88.8769 18.3463 88.0856 17.7441V18.0284C88.0856 18.2132 87.9359 18.363 87.7513 18.363H85.5112C85.3266 18.363 85.1769 18.2132 85.1769 18.0284V4.5458C85.1769 4.36103 85.3266 4.21124 85.5112 4.21124H87.7513C87.9359 4.21124 88.0856 4.36103 88.0856 4.5458V9.53069C88.8769 8.92849 89.7238 8.62739 90.6265 8.62739ZM89.9913 16.0713C90.6377 16.0713 91.1253 15.865 91.454 15.4523C91.7828 15.0397 91.9472 14.432 91.9472 13.629C91.9472 12.8372 91.7828 12.235 91.454 11.8224C91.1253 11.4098 90.6377 11.2035 89.9913 11.2035C89.3561 11.2035 88.7208 11.4321 88.0856 11.8893V15.3854C88.7208 15.8427 89.3561 16.0713 89.9913 16.0713ZM98.6574 14.5323C98.78 15.0676 99.0335 15.4858 99.418 15.7869C99.8025 16.088 100.368 16.2386 101.115 16.2386C101.549 16.2386 101.965 16.1856 102.36 16.0796C102.576 16.0219 102.919 15.8902 103.389 15.6847C103.558 15.6107 103.755 15.688 103.829 15.8573C103.833 15.8663 103.836 15.8754 103.84 15.8847L104.38 17.4946C104.434 17.6566 104.358 17.8336 104.203 17.905C103.569 18.1966 103.086 18.3799 102.753 18.455C102.185 18.5832 101.505 18.6474 100.714 18.6474C99.6103 18.6474 98.6713 18.4383 97.8968 18.0201C97.1223 17.6019 96.5344 17.0136 96.1332 16.2553C95.732 15.497 95.5314 14.616 95.5314 13.6123C95.5314 12.564 95.7376 11.6635 96.1499 10.9107C96.5623 10.158 97.1195 9.58924 97.8216 9.2045C98.5237 8.81976 99.3093 8.62739 100.179 8.62739C101.572 8.62739 102.664 9.03164 103.455 9.84016C104.246 10.6487 104.642 11.828 104.642 13.3781V14.1978C104.642 14.3825 104.492 14.5323 104.308 14.5323H98.6574ZM100.179 11.0362C99.7774 11.0362 99.4515 11.1366 99.2007 11.3373C99.0189 11.5039 98.883 11.6951 98.793 11.911C98.7218 12.0815 98.8023 12.2774 98.9727 12.3486C99.0135 12.3657 99.0573 12.3744 99.1015 12.3744H101.19C101.375 12.3744 101.525 12.2246 101.525 12.0399C101.525 12.0107 101.521 11.9817 101.513 11.9536C101.444 11.6944 101.331 11.4945 101.173 11.354C100.919 11.1446 100.613 11.0362 100.179 11.0362ZM111.54 9.02886V10.9358C111.54 11.1206 111.391 11.2704 111.206 11.2704H111.156C111.065 11.2704 110.975 11.2738 110.884 11.2806C110.117 11.3386 109.349 11.6418 108.582 12.1904V18.0284C108.582 18.2132 108.432 18.363 108.247 18.363H106.007C105.823 18.363 105.673 18.2132 105.673 18.0284V9.22959C105.673 9.04482 105.823 8.89504 106.007 8.89504H108.247C108.432 8.89504 108.582 9.04482 108.582 9.22959V9.73143C108.994 9.38572 109.409 9.12644 109.827 8.95358C110.214 8.79359 110.622 8.70765 111.052 8.69574C111.086 8.69478 111.121 8.6943 111.156 8.6943H111.206C111.391 8.6943 111.54 8.84409 111.54 9.02886ZM116.055 18.6474C115.264 18.6474 114.564 18.5832 113.957 18.455C113.591 18.3777 113.216 18.267 112.832 18.1229C112.697 18.0724 112.506 17.9925 112.259 17.8832C112.138 17.8297 112.06 17.7097 112.06 17.5772V15.7822C112.06 15.5974 112.209 15.4476 112.394 15.4476C112.445 15.4476 112.496 15.4594 112.542 15.4819C112.666 15.5434 112.771 15.5922 112.856 15.6284C113.229 15.7879 113.605 15.9132 113.982 16.0044C114.628 16.1605 115.319 16.2386 116.055 16.2386C116.779 16.2386 117.141 16.0211 117.141 15.5862C117.141 15.4077 117.091 15.2739 116.991 15.1847C116.891 15.0955 116.729 15.023 116.506 14.9672L114.885 14.6327C113.937 14.4431 113.247 14.1197 112.812 13.6625C112.377 13.2052 112.16 12.5807 112.16 11.789C112.16 10.7184 112.491 9.9238 113.155 9.40524C113.818 8.88667 114.823 8.62739 116.172 8.62739C116.729 8.62739 117.311 8.68315 117.919 8.79467C118.267 8.85851 118.604 8.93332 118.932 9.01908C119.051 9.0503 119.211 9.0962 119.411 9.15678C119.552 9.19943 119.649 9.32954 119.649 9.47705V11.2081C119.649 11.3928 119.499 11.5426 119.315 11.5426C119.274 11.5426 119.234 11.5353 119.197 11.5211C119.113 11.4894 119.038 11.4632 118.973 11.4425C118.708 11.3579 118.418 11.2838 118.103 11.2202C117.495 11.0975 116.902 11.0362 116.322 11.0362C115.865 11.0362 115.548 11.0808 115.37 11.17C115.191 11.2592 115.102 11.3986 115.102 11.5882C115.102 11.7332 115.147 11.8363 115.236 11.8977C115.325 11.959 115.475 12.012 115.687 12.0566L117.309 12.3912C118.289 12.5919 118.997 12.9209 119.432 13.3781C119.866 13.8353 120.084 14.5156 120.084 15.4189C120.084 16.5006 119.721 17.3091 118.997 17.8444C118.273 18.3797 117.292 18.6474 116.055 18.6474ZM124.732 12.1402V15.0007C124.732 15.3687 124.793 15.628 124.916 15.7785C125.038 15.9291 125.261 16.0044 125.584 16.0044C125.797 16.0044 125.997 15.9895 126.183 15.9596C126.183 15.9596 126.183 15.9596 126.184 15.9596C126.366 15.9304 126.537 16.0546 126.567 16.2371C126.569 16.2546 126.571 16.2722 126.571 16.2899V18.0722C126.571 18.2321 126.458 18.3696 126.301 18.4005C126.286 18.4034 126.273 18.406 126.26 18.4084C126.014 18.4562 125.797 18.494 125.61 18.5219C125.348 18.5609 125.066 18.5805 124.765 18.5805C123.773 18.5805 123.035 18.363 122.55 17.9281C122.066 17.4931 121.823 16.8686 121.823 16.0546V12.1402C121.823 11.9555 121.674 11.8057 121.489 11.8057H120.854C120.669 11.8057 120.519 11.6559 120.519 11.4711V9.56415C120.519 9.37938 120.669 9.22959 120.854 9.22959H121.489C121.674 9.22959 121.823 9.07981 121.823 8.89504V6.38586C121.823 6.20109 121.973 6.0513 122.158 6.0513H124.398C124.582 6.0513 124.732 6.20109 124.732 6.38586V8.89504C124.732 9.07981 124.882 9.22959 125.066 9.22959H126.537C126.722 9.22959 126.872 9.37938 126.872 9.56415V11.4711C126.872 11.6559 126.722 11.8057 126.537 11.8057H125.066C124.882 11.8057 124.732 11.9555 124.732 12.1402ZM131.631 8.89504C132.857 8.89504 133.79 9.05953 134.431 9.38851C135.072 9.71749 135.498 10.1552 135.71 10.7016C135.921 11.2481 136.027 11.9451 136.027 12.7926V18.0284C136.027 18.2132 135.878 18.363 135.693 18.363H133.453C133.268 18.363 133.119 18.2132 133.119 18.0284V17.5935C132.729 17.9504 132.344 18.2041 131.965 18.3546C131.586 18.5052 131.168 18.5805 130.711 18.5805C129.642 18.5805 128.803 18.2989 128.196 17.7357C127.588 17.1725 127.284 16.3891 127.284 15.3854C127.284 14.3706 127.594 13.59 128.212 13.0435C128.831 12.4971 129.692 12.2239 130.795 12.2239C131.709 12.2239 132.483 12.3912 133.119 12.7257C133.107 12.4135 133.06 12.1653 132.977 11.9813C132.893 11.7973 132.726 11.6551 132.475 11.5548C132.224 11.4544 131.859 11.4042 131.38 11.4042H129.809C129.624 11.4042 129.474 11.2544 129.474 11.0697V9.22959C129.474 9.04482 129.624 8.89504 129.809 8.89504H131.631ZM130.897 16.3389C131.465 16.3389 132.061 16.0824 132.686 15.5694V14.6829C132.151 14.4264 131.61 14.2981 131.064 14.2981C130.663 14.2981 130.351 14.3846 130.128 14.5574C129.905 14.7303 129.794 14.9951 129.794 15.352C129.794 15.72 129.888 15.9765 130.078 16.1215C130.267 16.2664 130.54 16.3389 130.897 16.3389ZM141.634 18.6474C140.074 18.6362 138.882 18.1929 138.057 17.3175C137.232 16.4421 136.82 15.207 136.82 13.6123C136.82 12.0287 137.232 10.8048 138.057 9.94053C138.882 9.07625 140.074 8.63854 141.634 8.62739C142.203 8.62739 142.688 8.66085 143.089 8.72776C143.338 8.76936 143.594 8.83251 143.857 8.91722C143.924 8.93897 144.014 8.97079 144.125 9.0127C144.256 9.06161 144.343 9.18649 144.343 9.32604V11.2265C144.343 11.4113 144.193 11.5611 144.008 11.5611C143.966 11.5611 143.923 11.5529 143.884 11.5369C143.862 11.5282 143.842 11.5204 143.824 11.5135C143.601 11.4293 143.387 11.365 143.181 11.3206C142.819 11.2425 142.415 11.2035 141.969 11.2035C141.222 11.2146 140.682 11.4209 140.347 11.8224C140.013 12.2239 139.846 12.8149 139.846 13.5956C139.846 14.3985 140.007 15.0118 140.331 15.4356C140.654 15.8594 141.172 16.0713 141.885 16.0713C142.286 16.0713 142.674 16.0099 143.047 15.8873C143.253 15.8197 143.462 15.7319 143.676 15.6238C143.726 15.5986 143.788 15.5654 143.86 15.5244C144.021 15.4333 144.225 15.4899 144.316 15.6507C144.326 15.6688 144.334 15.6879 144.341 15.7077L144.938 17.4628C144.99 17.617 144.924 17.7866 144.781 17.8645C144.646 17.9382 144.536 17.9949 144.452 18.0345C143.583 18.4431 142.644 18.6474 141.634 18.6474ZM149.359 15.2014L148.59 16.0211V18.0284C148.59 18.2132 148.44 18.363 148.255 18.363H146.015C145.831 18.363 145.681 18.2132 145.681 18.0284V4.5458C145.681 4.36103 145.831 4.21124 146.015 4.21124H148.142H148.255C148.44 4.21124 148.59 4.36103 148.59 4.5458V4.65082V12.3912L151.449 9.33546C151.513 9.26792 151.601 9.22959 151.693 9.22959H154.249C154.434 9.22959 154.584 9.37938 154.584 9.56415C154.584 9.64963 154.551 9.73187 154.492 9.79398L151.264 13.2108L154.899 17.8212C155.014 17.9663 154.989 18.1766 154.844 18.2911C154.785 18.3377 154.712 18.363 154.637 18.363H152.012C151.909 18.363 151.812 18.316 151.749 18.2356L149.359 15.2014Z" fill="black"/>
</svg>
