<svg width="79" height="24" viewBox="0 0 79 24" fill="none" xmlns="http://www.w3.org/2000/svg">
<g clip-path="url(#clip0_1358_224810)">
<path d="M21.1007 0H4.84265C2.70477 0 0.97168 1.73309 0.97168 3.87097V20.129C0.97168 22.267 2.70477 24 4.84265 24H21.1007C23.2386 24 24.9717 22.267 24.9717 20.129V3.87097C24.9717 1.73309 23.2386 0 21.1007 0Z" fill="#E2E8F0"/>
<path fill-rule="evenodd" clip-rule="evenodd" d="M17.2296 3.87097H14.907L16.8425 7.35484L12.5844 3.87097H10.2619L12.3909 8.12904L7.93928 3.87097H5.6167L7.93928 9.29033L5.6167 20.129H7.93928L12.3909 8.51613L10.2619 20.129H12.5844L16.8425 7.74194L14.907 20.129H17.2296L21.4877 6.58065L17.2296 3.87097Z" fill="black"/>
<path fill-rule="evenodd" clip-rule="evenodd" d="M72.1975 5.41938C76.0685 5.41938 78.3911 8.30896 78.3911 12C78.3911 15.6774 76.0685 18.5807 72.1975 18.5807C68.3266 18.5807 66.004 15.6911 66.004 12C66.004 8.30896 68.3266 5.41938 72.1975 5.41938ZM54.7782 6.19357V18.1936H52.0685V12.3871V9.4839V6.58067L54.7782 6.19357ZM64.8427 5.80648V8.51615L63.2943 8.7097C61.9395 8.90325 60.9717 9.67744 60.9717 11.2181V18.1936H58.262V11.2181C58.262 7.90456 60.1975 6.38712 63.2943 6.00003L64.8427 5.80648ZM37.7459 5.80648C38.9072 5.80648 40.108 6.28638 40.8427 7.35486C41.5801 6.38186 42.7782 5.80648 44.3266 5.80648C46.262 5.80648 48.5846 6.96777 48.5846 10.8387V18.1936H45.8749V10.8387C45.8749 9.4839 45.0311 8.51615 43.7459 8.51615C42.4607 8.51615 41.6169 9.4839 41.6169 10.8387V18.1936H38.9072V10.8387C38.9072 9.4839 38.0631 8.51615 36.7782 8.51615C35.4702 8.51615 34.6491 9.4839 34.6491 10.8387V18.1936H31.9395V10.8387V6.58067L34.6491 6.19357V7.35486C35.4063 6.42399 36.1975 5.80648 37.7459 5.80648ZM72.1975 8.12906C69.8749 8.12906 68.7137 9.86251 68.7137 12C68.7137 14.1376 69.8749 15.871 72.1975 15.871C74.5201 15.871 75.6814 14.1291 75.6814 12C75.6814 9.86519 74.5201 8.12906 72.1975 8.12906ZM53.4233 1.16132C54.3911 1.16132 55.1653 1.74196 55.1653 2.90325C55.1653 4.06454 54.3911 4.64519 53.4233 4.64519C52.4556 4.64519 51.6814 4.06454 51.6814 2.90325C51.6814 1.74196 52.4556 1.16132 53.4233 1.16132Z" fill="black"/>
</g>
<defs>
<clipPath id="clip0_1358_224810">
<rect width="77.4194" height="24" fill="white" transform="translate(0.97168)"/>
</clipPath>
</defs>
</svg>
