<svg width="72" height="24" viewBox="0 0 72 24" fill="none" xmlns="http://www.w3.org/2000/svg">
<g clip-path="url(#clip0_1358_224811)">
<path d="M6.66326 20.5091C6.66326 22.2 5.29965 23.5636 3.60875 23.5636C1.91784 23.5636 0.554199 22.2 0.554199 20.5091C0.554199 18.8182 1.91784 17.4545 3.60875 17.4545C5.29965 17.4545 6.66326 18.8182 6.66326 20.5091Z" fill="black"/>
<path d="M16.8631 20.5637C16.8631 21.7637 15.8813 22.7455 14.6813 22.7455C13.4813 22.7455 12.4995 21.7637 12.4995 20.5637C12.4995 19.3637 13.4813 18.3819 14.6813 18.3819C15.8813 18.3819 16.8631 19.3637 16.8631 20.5637Z" fill="black"/>
<path d="M24.7727 20.5636C24.7727 21.1091 24.3364 21.5454 23.7909 21.5454C23.2454 21.5454 22.8091 21.1091 22.8091 20.5636C22.8091 20.0182 23.2454 19.5818 23.7909 19.5818C24.3364 19.5818 24.7727 20.0182 24.7727 20.5636Z" fill="black"/>
<path d="M14.0817 14.0728C13.5362 14.0728 13.1544 13.6364 13.1544 13.1455V9.10914C13.1544 7.7455 12.4999 6.65459 11.0271 6.65459C9.55441 6.65459 8.62713 7.80005 8.62713 9.10914V13.091C8.62713 13.6364 8.24532 14.0182 7.69986 14.0182C7.15441 14.0182 6.77259 13.5819 6.77259 13.091V9.05459C6.77259 7.69096 6.0635 6.60005 4.59077 6.60005C3.0635 6.60005 2.29986 7.7455 2.29986 9.05459V13.0364C2.29986 13.5819 1.91804 13.9637 1.37259 13.9637C0.827131 13.9637 0.445312 13.5273 0.445312 13.0364V6.00005C0.445312 5.45459 0.827131 5.01823 1.37259 5.01823C2.02713 5.01823 2.29986 5.45459 2.29986 6.00005V6.65459C2.84531 5.61823 3.93622 4.96368 5.13622 4.96368C6.55441 4.96368 7.64532 5.67278 8.19077 6.76368C8.95441 5.56368 10.0999 4.96368 11.518 4.96368C13.918 4.96368 15.118 6.65459 15.118 9.00005V13.1455C15.0635 13.6364 14.6817 14.0728 14.0817 14.0728Z" fill="black"/>
<path d="M17.6817 14.0728C17.1363 14.0728 16.7545 13.6365 16.7545 13.1456V6.00011C16.7545 5.45466 17.1363 5.07284 17.6817 5.07284C18.2272 5.07284 18.609 5.5092 18.609 6.00011V13.1456C18.609 13.6365 18.2272 14.0728 17.6817 14.0728ZM17.6817 1.47284C18.2817 1.47284 18.7726 1.96375 18.7726 2.56375C18.7726 3.16375 18.2817 3.65466 17.6817 3.65466C17.0817 3.65466 16.5908 3.16375 16.5908 2.56375C16.5908 1.96375 17.0817 1.47284 17.6817 1.47284Z" fill="black"/>
<path d="M23.8997 8.29081L26.2997 5.34536C26.4634 5.18172 26.6815 5.07263 26.8997 5.07263C27.4452 5.07263 27.7725 5.3999 27.7725 5.89081C27.7725 6.05445 27.7179 6.27263 27.5543 6.43627L24.9361 9.54536L27.6088 12.709C27.7725 12.8726 27.827 13.0363 27.827 13.2545C27.827 13.6908 27.4452 14.0726 27.0088 14.0726C26.7361 14.0726 26.5179 13.9635 26.3543 13.7454L23.9543 10.7454L21.5543 13.7454C21.3906 13.9635 21.1725 14.0726 20.8997 14.0726C20.4634 14.0726 20.0815 13.6908 20.0815 13.2545C20.0815 13.0363 20.1361 12.8726 20.2997 12.709L22.9725 9.54536L20.3543 6.43627C20.1906 6.27263 20.1361 6.05445 20.1361 5.89081C20.1361 5.3999 20.4634 5.07263 21.0088 5.07263C21.2815 5.07263 21.4452 5.18172 21.6088 5.34536L23.8997 8.29081Z" fill="black"/>
<path d="M33.7724 6.54558C32.136 6.54558 31.0997 7.96377 31.0997 9.60013C31.0997 11.1819 32.1906 12.6547 33.7724 12.6547C35.4088 12.6547 36.4451 11.4547 36.4451 9.60013C36.4451 7.74558 35.4088 6.54558 33.7724 6.54558ZM34.1542 14.1819C32.7906 14.1819 31.6997 13.4729 31.0997 12.4365V16.9092C31.0997 17.4547 30.7178 17.8365 30.1724 17.8365C29.6269 17.8365 29.2451 17.4001 29.2451 16.9092V6.00013C29.2451 5.45467 29.5724 5.07286 30.1178 5.07286C30.6633 5.07286 31.0451 5.50922 31.0451 6.05467V6.76377C31.6451 5.7274 32.8451 5.01831 34.1542 5.01831C36.4451 5.01831 38.2997 6.9274 38.2997 9.60013C38.2997 12.3274 36.4451 14.1819 34.1542 14.1819Z" fill="black"/>
<path d="M43.6453 6.60013C42.0635 6.60013 40.918 7.96377 40.918 9.60013C40.918 11.3456 41.8453 12.6001 43.6453 12.6001C45.2817 12.6001 46.3726 11.1819 46.3726 9.60013C46.318 7.69104 45.2271 6.60013 43.6453 6.60013ZM48.2271 13.1456C48.2271 13.691 47.8453 14.0729 47.2998 14.0729C46.7544 14.0729 46.3726 13.6365 46.3726 13.1456V12.7092C45.8271 13.5274 44.7362 14.1819 43.4817 14.1819C40.6998 14.1819 39.0635 12.1092 39.0635 9.60013C39.0635 7.09104 40.8635 5.01831 43.6998 5.01831C46.5908 5.01831 48.2817 6.9274 48.2817 9.60013V13.1456H48.2271Z" fill="black"/>
<path d="M53.8451 4.96368C56.245 4.96368 58.045 6.81823 58.045 9.16368V13.1455C58.045 13.691 57.6087 14.0728 57.1178 14.0728C56.5723 14.0728 56.1905 13.6364 56.1905 13.1455V8.9455C56.1905 7.69096 55.2087 6.70914 53.8996 6.70914C52.5905 6.70914 51.6087 7.69096 51.6087 8.9455V13.1455C51.6087 13.691 51.1724 14.0728 50.6814 14.0728C50.136 14.0728 49.7542 13.6364 49.7542 13.1455V9.16368C49.6996 6.81823 51.4451 4.96368 53.8451 4.96368Z" fill="black"/>
<path d="M63.6632 6.49096C62.2995 6.49096 61.3722 7.47277 61.1541 8.72732H66.0632C65.8995 7.47277 65.0268 6.49096 63.6632 6.49096ZM67.8086 9.60005C67.8086 9.92732 67.645 10.2546 67.0995 10.2546H61.1541C61.2632 11.6182 62.1904 12.6546 63.8268 12.6546C64.8632 12.6546 65.4632 12.2728 66.1177 11.6728C66.2813 11.5091 66.4995 11.3455 66.7177 11.3455C67.1541 11.3455 67.4813 11.6728 67.4813 12.1091C67.4813 12.3273 67.3722 12.491 67.2632 12.6546C66.4995 13.5273 65.1359 14.1273 63.7177 14.1273C60.7177 14.1273 59.1904 12.0546 59.1904 9.5455C59.1904 6.92732 61.0995 4.96368 63.6632 4.96368C66.1722 4.96368 67.8086 7.03641 67.8086 9.60005Z" fill="black"/>
<path d="M70.0449 14.0726C69.4995 14.0726 69.1177 13.6363 69.1177 13.1454V1.36355C69.1177 0.818095 69.4995 0.436279 70.0449 0.436279C70.5904 0.436279 70.9722 0.87264 70.9722 1.36355V13.1454C70.9722 13.6363 70.5904 14.0726 70.0449 14.0726Z" fill="black"/>
</g>
<defs>
<clipPath id="clip0_1358_224811">
<rect width="70.9091" height="24" fill="white" transform="translate(0.390625)"/>
</clipPath>
</defs>
</svg>
