<svg width="133" height="24" viewBox="0 0 133 24" fill="none" xmlns="http://www.w3.org/2000/svg">
<g clip-path="url(#clip0_1358_224812)">
<path d="M3.03361 18.9694C2.5478 18.9705 2.07041 18.8426 1.65022 18.5987C1.23003 18.3549 0.882096 18.0039 0.64196 17.5816C0.405502 17.1623 0.287573 16.6865 0.300808 16.2053C0.314043 15.7241 0.457942 15.2555 0.717091 14.8498L5.64232 7.11551C5.8944 6.69983 6.25229 6.35852 6.67943 6.12643C7.1066 5.89433 7.5877 5.77978 8.0736 5.79447C8.55917 5.8061 9.0329 5.94654 9.44635 6.20139C9.8598 6.45625 10.1981 6.81636 10.4266 7.24491C10.8858 8.11309 10.8284 9.1576 10.2785 9.97256L5.35641 17.7068C5.10678 18.0958 4.76304 18.4154 4.35699 18.6361C3.95094 18.8568 3.49576 18.9715 3.03361 18.9694Z" fill="black"/>
<path d="M11.4817 18.9694C10.4884 18.9694 9.57428 18.4383 9.09428 17.5847C8.85835 17.1665 8.74069 16.692 8.75394 16.212C8.76715 15.732 8.91078 15.2647 9.16942 14.8602L14.0852 7.14366C14.3336 6.72213 14.6902 6.37475 15.1181 6.13752C15.546 5.90026 16.0296 5.78181 16.5186 5.79443C17.5204 5.81634 18.4282 6.3767 18.8873 7.25324C19.3433 8.12974 19.2765 9.18052 18.7099 9.99339L13.7951 17.7099C13.5463 18.0972 13.204 18.4156 12.7996 18.6357C12.3953 18.8559 11.9421 18.9706 11.4817 18.9694Z" fill="black"/>
<path d="M19.7407 19.0341C21.1411 19.0341 22.2764 17.9227 22.2764 16.5517C22.2764 15.1807 21.1411 14.0693 19.7407 14.0693C18.3403 14.0693 17.2051 15.1807 17.2051 16.5517C17.2051 17.9227 18.3403 19.0341 19.7407 19.0341Z" fill="black"/>
<path d="M129.897 14.2133C130.663 14.2133 131.121 14.758 131.121 15.6501V18.7075H132.161V15.5802C132.161 14.063 131.446 13.1834 130.102 13.1834C129.576 13.1834 128.742 13.3274 128.244 14.2947C128.128 14.0094 127.937 13.7607 127.692 13.5751C127.446 13.3896 127.155 13.274 126.849 13.2407C126.656 13.2055 126.46 13.1939 126.264 13.2063C125.837 13.2407 125.075 13.5068 124.79 14.11V13.2992H123.749V18.7075H124.79V15.7889C124.79 14.6536 125.533 14.2133 126.277 14.2133C126.974 14.2133 127.432 14.7465 127.432 15.6387V18.7075H128.467V15.7889C128.467 14.8853 129.01 14.2028 129.897 14.2133ZM119.926 17.8039C120.402 17.8143 120.861 17.6244 121.194 17.28C121.528 16.9357 121.706 16.4672 121.688 15.9861C121.688 14.8967 120.886 14.2133 119.926 14.2133C118.965 14.2133 118.165 14.8967 118.165 15.9861C118.146 16.4661 118.324 16.9336 118.655 17.2769C118.987 17.6213 119.444 17.8122 119.918 17.8039H119.926ZM119.926 18.8181C118.405 18.8181 117.135 17.6943 117.135 15.9799C117.135 14.2654 118.405 13.1771 119.926 13.1771C121.448 13.1771 122.728 14.2654 122.728 15.9799C122.728 17.6943 121.44 18.8234 119.919 18.8234L119.926 18.8181ZM111.777 15.9799L111.766 15.9861C111.766 14.2717 113.07 13.1834 114.602 13.1771C114.986 13.1696 115.368 13.2431 115.723 13.3926C116.078 13.5422 116.397 13.7645 116.66 14.0453L115.871 14.7173C115.704 14.5527 115.505 14.423 115.287 14.3356C115.069 14.2482 114.836 14.2049 114.602 14.208C113.642 14.208 112.807 14.8915 112.807 15.9799C112.807 16.7155 113.244 17.3781 113.915 17.6599C114.586 17.9416 115.358 17.7851 115.871 17.2654L116.672 17.9374C116.408 18.2211 116.087 18.446 115.73 18.5978C115.374 18.7495 114.989 18.8246 114.602 18.8181C113.081 18.8181 111.777 17.6943 111.777 15.9799ZM108.445 17.6693C108.444 17.5747 108.462 17.4809 108.497 17.3931C108.532 17.3053 108.584 17.2253 108.65 17.1577C108.716 17.09 108.795 17.0361 108.882 16.9989C108.969 16.9617 109.062 16.942 109.157 16.9409C109.251 16.942 109.345 16.9617 109.431 16.9989C109.518 17.0361 109.597 17.09 109.663 17.1577C109.729 17.2253 109.782 17.3053 109.817 17.3931C109.852 17.4809 109.869 17.5747 109.868 17.6693C109.859 17.8524 109.78 18.0251 109.648 18.1521C109.516 18.2791 109.34 18.3509 109.157 18.3527C108.973 18.3509 108.798 18.2791 108.665 18.1521C108.533 18.0251 108.454 17.8524 108.445 17.6693Z" fill="black"/>
<path fill-rule="evenodd" clip-rule="evenodd" d="M111.292 6.42364H107.586L104.989 13.1196L102.405 6.42364H98.7L103.205 17.0045L100.403 24H104.081L111.292 6.42364ZM88.7567 12.3089C88.7567 13.9993 90.2342 15.1116 91.6855 15.1116C93.112 15.1116 94.5136 14.0765 94.5136 12.3078C94.5136 10.5391 93.112 9.50296 91.6855 9.50296C90.2342 9.50296 88.7567 10.6164 88.7567 12.3078V12.3089ZM94.5136 18.217V16.8783C93.7622 18.0156 92.0091 18.4456 91.1095 18.4456C88.1316 18.4456 85.1525 16.0977 85.1525 12.3078C85.1525 8.51896 88.1304 6.17113 91.1095 6.17113C91.86 6.17113 93.6129 6.42155 94.5136 7.73636V6.42782H97.9673V18.2191L94.5136 18.2181V18.217ZM84.1696 18.217H80.7156V16.752C80.1384 17.8372 78.7391 18.4696 77.2867 18.4696C74.2824 18.4696 71.6289 16.0706 71.6289 12.3558C71.6289 8.57113 74.2824 6.16904 77.2867 6.16904C78.7371 6.16904 80.1407 6.77427 80.7156 7.86051V0H84.1696V18.217ZM80.6405 12.2817C80.6405 10.5141 79.3642 9.47791 77.9378 9.47791C76.4602 9.47791 75.2331 10.5892 75.2331 12.2817C75.2331 14.0285 76.4602 15.1346 77.9366 15.1346C79.3905 15.1367 80.6405 13.9743 80.6405 12.2817ZM63.0891 11.977C63.0891 10.1844 64.0158 9.57809 65.2418 9.57809C66.4178 9.57809 67.2694 10.3607 67.2694 11.9259V18.215H70.7482V11.1694C70.7482 7.81149 69.0953 6.16904 66.4669 6.16904C65.0904 6.16904 63.7142 6.95164 63.088 8.13913V6.42364H59.6111V18.215H63.0891V11.977ZM52.5469 18.4174C49.2431 18.4174 46.4873 15.9934 46.4873 12.2807C46.4873 8.56591 49.24 6.16591 52.5469 6.16591C55.8535 6.16591 58.6305 8.56591 58.6305 12.2807C58.6305 15.9955 55.8504 18.4184 52.5469 18.4184V18.4174ZM52.5469 14.9844C53.9974 14.9844 55.2005 13.9221 55.2005 12.2817C55.2005 10.6904 53.9985 9.60418 52.5469 9.60418C52.1973 9.5987 51.8503 9.66443 51.527 9.79737C51.2038 9.9303 50.9109 10.1277 50.6664 10.3774C50.4205 10.6285 50.2277 10.9264 50.0989 11.2536C49.9704 11.5807 49.9092 11.9304 49.9185 12.2817C49.9193 13.9242 51.1205 14.9844 52.5469 14.9844ZM40.2504 9.57913C41.2762 9.57913 42.1778 10.3878 42.1778 11.927V18.217H45.6318V11.52C45.6318 7.95964 43.9007 6.16696 41.126 6.16696C40.3015 6.16696 38.7489 6.4174 37.622 8.26227C36.9709 6.89845 35.7198 6.19096 33.8707 6.19096C33.2286 6.18768 32.5995 6.36937 32.058 6.7143C31.5164 7.05925 31.0858 7.5528 30.8176 8.136V6.42469H27.3364V18.216H30.8145V11.977C30.8145 10.1844 31.7911 9.57809 32.8418 9.57809C33.8436 9.57809 34.7431 10.3607 34.7691 11.8508V18.216H38.248V11.977C38.248 10.2626 39.1495 9.58018 40.2504 9.58018V9.57913Z" fill="black"/>
</g>
<defs>
<clipPath id="clip0_1358_224812">
<rect width="132.141" height="24" fill="white" transform="translate(0.299805)"/>
</clipPath>
</defs>
</svg>
