<svg width="71" height="24" viewBox="0 0 71 24" fill="none" xmlns="http://www.w3.org/2000/svg">
<g clip-path="url(#clip0_1358_224813)">
<path d="M1.88541 1.035L15.1654 0.0541947C16.7966 -0.0858053 17.2158 0.00859475 18.2414 0.754195L22.4806 3.7406C23.1798 4.2542 23.4126 4.3942 23.4126 4.9534V21.3318C23.4126 22.3582 23.0398 22.9654 21.735 23.0582L6.31341 23.9918C5.33421 24.0382 4.86781 23.8982 4.35501 23.2446L1.23341 19.1854C0.673406 18.4382 0.441406 17.879 0.441406 17.2254V2.667C0.441406 1.8278 0.814206 1.1278 1.88541 1.035Z" fill="white"/>
<path fill-rule="evenodd" clip-rule="evenodd" d="M15.1654 0.0541947L1.88541 1.035C0.814206 1.1278 0.441406 1.8278 0.441406 2.667V17.2254C0.441406 17.879 0.673406 18.4382 1.23341 19.1854L4.35501 23.2446C4.86781 23.8982 5.33421 24.0382 6.31341 23.9918L21.735 23.0582C23.039 22.9654 23.4126 22.3582 23.4126 21.3318V4.9534C23.4126 4.423 23.203 4.2702 22.5862 3.8174C22.5507 3.79183 22.5152 3.76623 22.4798 3.7406L18.2414 0.754195C17.2158 0.00859475 16.7966 -0.0858053 15.1654 0.0541947ZM6.66221 4.6854C5.40301 4.7702 5.11741 4.7894 4.40221 4.2078L2.58381 2.7614C2.39901 2.5742 2.49181 2.3406 2.95741 2.2942L15.7238 1.3614C16.7958 1.2678 17.3542 1.6414 17.7734 1.9678L19.963 3.5542C20.0566 3.6014 20.2894 3.8806 20.0094 3.8806L6.82541 4.6742L6.66221 4.6854ZM5.19421 21.1918V7.2878C5.19421 6.6806 5.38061 6.4006 5.93901 6.3534L21.0814 5.467C21.595 5.4206 21.827 5.747 21.827 6.3534V20.1646C21.827 20.7718 21.7334 21.2854 20.895 21.3318L6.40461 22.1718C5.56621 22.2182 5.19421 21.939 5.19421 21.1918ZM19.4982 8.03343C19.591 8.45343 19.4982 8.87343 19.0782 8.92143L18.3798 9.05983V19.3254C17.7734 19.6518 17.215 19.8382 16.7486 19.8382C16.003 19.8382 15.8166 19.6046 15.2582 18.9054L10.691 11.7198V18.6718L12.1358 18.999C12.1358 18.999 12.1358 19.839 10.9702 19.839L7.75661 20.0254C7.66301 19.8382 7.75661 19.3718 8.08221 19.279L8.92141 19.0462V9.85423L7.75661 9.75983C7.66301 9.33983 7.89581 8.73343 8.54861 8.68623L11.9966 8.45423L16.7486 15.7326V9.29343L15.5374 9.15423C15.4438 8.63983 15.8166 8.26623 16.2822 8.22063L19.4982 8.03343Z" fill="black"/>
<path d="M33.5886 17.0008V10.6728H33.6982L38.2614 17.0008H39.6982V7.70161H38.1006V14.0232H37.991L33.4278 7.70161H31.9854V17H33.5894L33.5886 17.0008ZM44.2134 17.1432C46.3214 17.1432 47.6038 15.764 47.6038 13.476C47.6038 11.1944 46.315 9.80878 44.2134 9.80878C42.119 9.80878 40.8238 11.2008 40.8238 13.476C40.8238 15.764 42.0998 17.1432 44.2134 17.1432ZM44.2134 15.8024C43.099 15.8024 42.4614 14.952 42.4614 13.476C42.4614 12.0064 43.099 11.1496 44.2134 11.1496C45.3222 11.1496 45.9598 12.0064 45.9598 13.476C45.9598 14.952 45.3286 15.8024 44.2134 15.8024ZM49.0638 8.22398V9.99598H47.9494V11.272H49.0638V15.1192C49.0638 16.4856 49.7086 17.0336 51.3262 17.0336C51.635 17.0336 51.9318 17.0016 52.1638 16.956V15.7056C51.9702 15.7248 51.8478 15.7376 51.6222 15.7376C50.9526 15.7376 50.6558 15.4288 50.6558 14.7328V11.272H52.1638V9.99598H50.6558V8.22318H49.0638V8.22398ZM53.1214 17.0008H54.7134V9.95038H53.1214V17.0008ZM53.9142 8.78478C54.4422 8.78478 54.8678 8.35838 54.8678 7.82401C54.8678 7.28881 54.443 6.85681 53.9142 6.85681C53.3926 6.85681 52.9606 7.28881 52.9606 7.82401C52.9606 8.35838 53.3926 8.78398 53.9142 8.78398V8.78478ZM59.0806 17.1432C61.1878 17.1432 62.4702 15.764 62.4702 13.476C62.4702 11.1944 61.1814 9.80878 59.0806 9.80878C56.9854 9.80878 55.6902 11.2008 55.6902 13.476C55.6902 15.764 56.9662 17.1432 59.0806 17.1432ZM59.0806 15.8024C57.9654 15.8024 57.327 14.952 57.327 13.476C57.327 12.0064 57.9654 11.1496 59.0806 11.1496C60.1886 11.1496 60.827 12.0064 60.827 13.476C60.827 14.952 60.195 15.8024 59.0806 15.8024ZM63.4214 17.0008H65.0198V12.896C65.0198 11.8584 65.6198 11.2008 66.5726 11.2008C67.5462 11.2008 67.9966 11.7424 67.9966 12.8184V17.0008H69.5958V12.4384C69.5958 10.756 68.7382 9.80878 67.1662 9.80878C66.115 9.80878 65.4062 10.292 65.071 11.0784H64.9614V9.95038H63.4214V17.0008Z" fill="black"/>
</g>
<defs>
<clipPath id="clip0_1358_224813">
<rect width="69.6" height="24" fill="white" transform="translate(0.441406)"/>
</clipPath>
</defs>
</svg>
