<svg width="91" height="24" viewBox="0 0 91 24" fill="none" xmlns="http://www.w3.org/2000/svg">
<g clip-path="url(#clip0_1358_224814)">
<path fill-rule="evenodd" clip-rule="evenodd" d="M0.584751 0.00110646H6.72309C6.94779 0.00110646 7.13952 0.129551 7.22566 0.337008C7.3114 0.544467 7.26646 0.770649 7.1077 0.929424L0.969333 7.06779C0.810558 7.22655 0.584376 7.27149 0.376542 7.18575C0.169085 7.09962 0.0410156 6.90789 0.0410156 6.68319V0.544842C0.0410156 0.245637 0.285172 0.00110646 0.584751 0.00110646ZM10.2589 0.000602629C11.4703 -0.00164421 12.4971 -0.0136273 13.7194 0.334632C17.4023 1.38428 20.1195 4.7886 20.1195 8.7966C20.1195 13.6344 16.1613 17.5922 11.3239 17.5922H5.00914L8.83663 18.8467V23.4018C8.83663 23.7013 8.5921 23.9455 8.2929 23.9455H0.584751C0.285172 23.9455 0.0410156 23.7013 0.0410156 23.4018V10.2199C0.0410156 10.0702 0.0945653 9.94134 0.200167 9.83538L9.8758 0.160128C9.981 0.0545268 10.1095 0.000977103 10.2589 0.000602629Z" fill="black"/>
<path fill-rule="evenodd" clip-rule="evenodd" d="M27.9541 19.7989C27.9541 19.9659 28.0474 20.0607 28.2159 20.0607H29.4127C29.5812 20.0607 29.6745 19.9674 29.6745 19.7989V15.3764C30.1606 16.0123 31.2079 16.2927 31.8436 16.2927C34.0318 16.2927 35.7337 14.9274 35.7337 12.3282C35.7337 9.91586 34.0318 8.36366 31.8436 8.36366C29.6557 8.36366 27.9541 9.72938 27.9541 12.3282V19.7989ZM29.6745 12.3282C29.6745 10.458 30.8899 10.0091 31.8436 10.0091C32.7976 10.0091 34.0132 10.458 34.0132 12.3282C34.0132 14.1983 32.7976 14.6469 31.8436 14.6469C30.8899 14.6469 29.6745 14.1983 29.6745 12.3282ZM45.2707 12.4027C45.2707 9.70991 43.5691 8.36366 41.3812 8.36366C39.1744 8.36366 37.4167 9.8597 37.4167 12.3844C37.4167 14.4039 38.6884 16.274 41.0071 16.274C41.7367 16.274 42.9148 16.0494 43.5505 15.0585V15.8063C43.5505 15.9748 43.6441 16.0684 43.8124 16.0684H45.0094C45.1777 16.0684 45.2707 15.9748 45.2707 15.8063V12.4027ZM43.5505 12.3843C43.5505 14.2357 42.0916 14.7592 41.1568 14.7031C40.2031 14.6469 39.1558 14.0485 39.1558 12.3282C39.1558 10.5704 40.4275 10.0091 41.3812 10.0091C42.3349 10.0091 43.5505 10.458 43.5505 12.3843ZM50.1235 20.0262C50.2741 20.0787 50.4007 20.0525 50.4787 19.8765L55.3696 8.83103C55.4272 8.70071 55.3504 8.58797 55.2199 8.58797H53.8735C53.7052 8.58797 53.5741 8.66288 53.4994 8.83103L51.2179 14.086L48.955 8.83103C48.8992 8.66288 48.7681 8.58797 48.5995 8.58797H47.2159C47.0848 8.58797 47.0104 8.69996 47.0665 8.83103L50.2828 16.0684L48.8704 19.2968C48.7996 19.4589 48.8509 19.5806 49.0012 19.6334L50.1235 20.0262ZM61.0918 10.0091C61.9519 10.0091 62.962 10.3083 62.962 12.1035V15.8063C62.962 15.9748 63.0553 16.0685 63.2236 16.0685H64.4206C64.5886 16.0685 64.6822 15.9748 64.6822 15.8063V12.1035C64.6822 9.56048 63.1675 8.36369 61.0918 8.36369C60.2131 8.36369 59.5396 8.6816 59.0719 9.18641V4.04825C59.0719 3.88013 58.9783 3.7865 58.8103 3.7865H57.6133C57.4456 3.7865 57.3517 3.88049 57.3517 4.04825V15.8063C57.3517 15.9744 57.4453 16.0685 57.6133 16.0685H58.8103C58.9786 16.0685 59.0719 15.9748 59.0719 15.8063V11.9728C59.128 10.3832 60.2503 10.0091 61.0918 10.0091ZM74.4259 12.3282C74.4259 9.72863 72.7237 8.36366 70.5358 8.36366C68.3476 8.36366 66.646 9.72863 66.646 12.3282C66.646 14.9274 68.3476 16.2927 70.5358 16.2927C71.8822 16.2927 72.9856 15.8063 73.6777 14.8529C73.7713 14.7218 73.7149 14.572 73.5838 14.5163L72.4807 14.0298C72.331 13.9549 72.1816 14.0111 72.0505 14.1047C71.6206 14.5346 71.0404 14.6469 70.5358 14.6469C69.6382 14.6469 68.5162 14.2545 68.3665 12.6461H74.1448C74.2948 12.6461 74.4259 12.5338 74.4259 12.3844V12.3282ZM68.4976 11.3931C68.8342 10.3083 69.769 10.0091 70.5358 10.0091C71.3026 10.0091 72.2374 10.3083 72.5743 11.3931H68.4976ZM81.1765 8.92463C81.2326 8.77484 81.1207 8.64416 80.9707 8.58797C80.5036 8.45693 80.0359 8.40113 79.5868 8.40113C77.8666 8.40113 76.4827 9.24257 76.4827 11.5613V15.8063C76.4827 15.9748 76.576 16.0684 76.7446 16.0684H77.9413C78.1096 16.0684 78.2032 15.9748 78.2032 15.8063V11.5613C78.2032 10.3645 78.9514 10.0653 79.774 10.0653C80.0731 10.0653 80.3725 10.1027 80.6905 10.1589C80.8402 10.2151 80.9707 10.1027 80.9896 9.9533L81.1765 8.92463ZM90.0409 12.3282C90.0409 9.72863 88.339 8.36366 86.1508 8.36366C83.9632 8.36366 82.2613 9.72863 82.2613 12.3282C82.2613 14.9274 83.9632 16.2927 86.1508 16.2927C87.4975 16.2927 88.6006 15.8063 89.2927 14.8529C89.3863 14.7218 89.3302 14.572 89.1991 14.5163L88.096 14.0298C87.9466 13.9549 87.7966 14.0111 87.6655 14.1047C87.2356 14.5346 86.6557 14.6469 86.1508 14.6469C85.2532 14.6469 84.1315 14.2545 83.9815 12.6461H89.7604C89.9098 12.6461 90.0409 12.5338 90.0409 12.3844V12.3282ZM84.1126 11.3931C84.4492 10.3083 85.3843 10.0091 86.1508 10.0091C86.9179 10.0091 87.853 10.3083 88.1896 11.3931H84.1126Z" fill="black"/>
</g>
<defs>
<clipPath id="clip0_1358_224814">
<rect width="90" height="24" fill="white" transform="translate(0.0410156)"/>
</clipPath>
</defs>
</svg>
