<svg width="99" height="24" viewBox="0 0 99 24" fill="none" xmlns="http://www.w3.org/2000/svg">
<g clip-path="url(#clip0_1358_224815)">
<path fill-rule="evenodd" clip-rule="evenodd" d="M76.2098 10.5729C75.915 12.5091 74.4362 12.5091 73.0062 12.5091H72.1922L72.763 8.89408C72.7974 8.67568 72.9858 8.51468 73.2074 8.51468H73.5802C74.5538 8.51468 75.4734 8.51468 75.9478 9.06936C76.2314 9.40124 76.317 9.89312 76.2098 10.5729ZM75.5874 5.52148H70.1934C69.8246 5.52148 69.5106 5.78984 69.453 6.1542L67.2722 19.9852C67.229 20.258 67.4398 20.5048 67.7162 20.5048H70.4838C70.7418 20.5048 70.9618 20.3169 71.0018 20.0618L71.6202 16.1409C71.6778 15.7765 71.9918 15.5082 72.3606 15.5082H74.0674C77.6202 15.5082 79.671 13.7886 80.207 10.3809C80.4482 8.89044 80.2166 7.71932 79.5186 6.89944C78.7514 5.99808 77.3922 5.52148 75.5874 5.52148Z" fill="black"/>
<path fill-rule="evenodd" clip-rule="evenodd" d="M37.738 10.5729C37.4432 12.5091 35.9644 12.5091 34.5343 12.5091H33.7205L34.2912 8.89408C34.3258 8.67568 34.5142 8.51468 34.7353 8.51468H35.1084C36.082 8.51468 37.0017 8.51468 37.4756 9.06936C37.7595 9.40124 37.8453 9.89312 37.738 10.5729ZM37.1156 5.52148H31.7214C31.3527 5.52148 31.0388 5.78984 30.9813 6.1542L28.8 19.9852C28.7571 20.258 28.968 20.5048 29.2441 20.5048H31.8196C32.1884 20.5048 32.5026 20.2364 32.56 19.8723L33.1486 16.1409C33.2058 15.7765 33.52 15.5082 33.8887 15.5082H35.5956C39.1484 15.5082 41.1989 13.7886 41.7349 10.3809C41.9761 8.89044 41.7449 7.71932 41.0469 6.89944C40.2793 5.99808 38.92 5.52148 37.1156 5.52148Z" fill="black"/>
<path fill-rule="evenodd" clip-rule="evenodd" d="M49.6383 15.5382C49.3886 17.014 48.2171 18.0048 46.7227 18.0048C45.9739 18.0048 45.3739 17.7639 44.9887 17.3076C44.6067 16.8553 44.4627 16.2109 44.5839 15.4933C44.8163 14.0308 46.0067 13.008 47.4783 13.008C48.2119 13.008 48.8071 13.2514 49.2003 13.7118C49.5963 14.1755 49.7515 14.8242 49.6383 15.5382ZM53.2379 10.511H50.6551C50.4334 10.511 50.2455 10.6718 50.2107 10.8906L50.0971 11.6128L49.9167 11.351C49.3575 10.5392 48.1107 10.2679 46.8659 10.2679C44.0123 10.2679 41.5747 12.4303 41.1003 15.4633C40.8535 16.9762 41.2039 18.422 42.0619 19.4313C42.8499 20.3585 43.9747 20.7445 45.3147 20.7445C47.6151 20.7445 48.8907 19.2669 48.8907 19.2669L48.7751 19.9847C48.7323 20.2577 48.9431 20.5047 49.2195 20.5047H51.5454C51.9142 20.5047 52.2283 20.2366 52.2855 19.8722L53.6819 11.0305C53.725 10.7576 53.5142 10.511 53.2379 10.511Z" fill="black"/>
<path fill-rule="evenodd" clip-rule="evenodd" d="M88.1095 15.5382C87.8603 17.014 86.6887 18.0048 85.1943 18.0048C84.4451 18.0048 83.8455 17.7639 83.4599 17.3076C83.0779 16.8553 82.9343 16.2109 83.0555 15.4933C83.2879 14.0308 84.4783 13.008 85.9499 13.008C86.6831 13.008 87.2787 13.2514 87.6719 13.7118C88.0675 14.1755 88.2227 14.8242 88.1095 15.5382ZM91.7091 10.511H89.1263C88.9051 10.511 88.7167 10.6718 88.6823 10.8906L88.5687 11.6128L88.3883 11.351C87.8287 10.5392 86.5823 10.2679 85.3371 10.2679C82.4839 10.2679 80.0463 12.4303 79.5719 15.4633C79.3251 16.9762 79.6755 18.422 80.5331 19.4313C81.3215 20.3585 82.4463 20.7445 83.7863 20.7445C86.0863 20.7445 87.3619 19.2669 87.3619 19.2669L87.2467 19.9847C87.2035 20.2577 87.4143 20.5047 87.6911 20.5047H90.0167C90.3855 20.5047 90.6995 20.2366 90.7571 19.8722L92.1531 11.0305C92.1963 10.7576 91.9855 10.511 91.7091 10.511Z" fill="black"/>
<mask id="mask0_1358_224815" style="mask-type:alpha" maskUnits="userSpaceOnUse" x="0" y="0" width="99" height="24">
<path d="M0.0556641 24H98.1392V0.199036H0.0556641V24Z" fill="white"/>
</mask>
<g mask="url(#mask0_1358_224815)">
<path fill-rule="evenodd" clip-rule="evenodd" d="M66.9932 10.511H64.3972C64.1492 10.511 63.9168 10.6342 63.7772 10.8395L60.1964 16.114L58.6784 11.0456C58.5836 10.7285 58.2916 10.511 57.9608 10.511H55.4088C55.1004 10.511 54.8836 10.8141 54.9828 11.1057L57.8416 19.4965L55.1528 23.2904C54.9416 23.5881 55.1548 24 55.5196 24H58.1132C58.3592 24 58.5892 23.8795 58.7292 23.6773L67.3632 11.217C67.5696 10.9188 67.3564 10.511 66.9932 10.511Z" fill="black"/>
<path fill-rule="evenodd" clip-rule="evenodd" d="M94.7532 5.90136L92.5392 19.9852C92.4964 20.2582 92.7072 20.5048 92.9836 20.5048H95.21C95.5788 20.5048 95.8928 20.2364 95.9504 19.8723L98.1332 6.04124C98.176 5.76828 97.9652 5.52148 97.6888 5.52148H95.1972C94.976 5.52148 94.7876 5.68268 94.7532 5.90136Z" fill="black"/>
<path fill-rule="evenodd" clip-rule="evenodd" d="M10.2594 23.0194L10.9845 18.4216L11.0313 18.1668C11.0661 17.9452 11.1796 17.7426 11.3505 17.5966C11.5214 17.4507 11.7394 17.3702 11.9641 17.3702H12.5399C13.4996 17.3702 14.3813 17.2676 15.1607 17.0655C15.9922 16.85 16.7319 16.5142 17.3588 16.0684C18.0235 15.5956 18.5818 14.9845 19.0184 14.2524C19.479 13.48 19.8172 12.5501 20.0237 11.4888C20.2063 10.5515 20.2405 9.71252 20.1258 8.99468C20.0043 8.2364 19.7122 7.58936 19.2577 7.07104C18.982 6.75712 18.6293 6.48512 18.2094 6.26256L18.1995 6.25724L18.1993 6.24512C18.3459 5.3096 18.3403 4.52924 18.1825 3.85747C18.024 3.18426 17.703 2.57844 17.2005 2.00583C16.1593 0.819409 14.2654 0.217712 11.5719 0.217712H4.17426C3.927 0.217712 3.687 0.306198 3.49888 0.466925C3.31076 0.627653 3.18616 0.850925 3.14737 1.09529L0.0671268 20.6282C0.0390056 20.8063 0.0901571 20.9874 0.20749 21.1241C0.324824 21.2616 0.495492 21.3404 0.675852 21.3404H5.26518L5.26106 21.3622L4.9459 23.3608C4.92166 23.5161 4.96626 23.6737 5.06834 23.793C5.17038 23.9125 5.31902 23.9814 5.4761 23.9814H9.3253C9.5413 23.9814 9.75054 23.904 9.91466 23.7636C10.0788 23.6233 10.1879 23.4286 10.2215 23.2155L10.2594 23.0194Z" fill="black"/>
<path fill-rule="evenodd" clip-rule="evenodd" d="M7.6225 6.27053C7.67122 5.96097 7.86978 5.70765 8.13718 5.57941C8.25886 5.52121 8.39462 5.48873 8.53694 5.48873H14.3355C15.0225 5.48873 15.663 5.53381 16.2487 5.62813C16.416 5.65505 16.5786 5.68605 16.7369 5.72121C16.8952 5.75637 17.0487 5.79541 17.1973 5.83905C17.2717 5.86061 17.3447 5.88341 17.4167 5.90741C17.7042 6.00293 17.9718 6.11541 18.2181 6.24581C18.5086 4.39441 18.2162 3.13455 17.2147 1.99346C16.1122 0.737216 14.1205 0.199036 11.5721 0.199036H4.1745C3.65378 0.199036 3.21038 0.577944 3.12917 1.09237L0.0489261 20.6252C-0.0119224 21.0107 0.286017 21.3591 0.67608 21.3591H5.24286L7.6225 6.27053Z" fill="black"/>
<path fill-rule="evenodd" clip-rule="evenodd" d="M18.2182 6.24579C18.1961 6.38711 18.1717 6.53087 18.1426 6.67899C17.1673 11.6877 13.8296 13.4193 9.56682 13.4193H7.39614C6.87542 13.4193 6.43566 13.7985 6.35446 14.3129L4.92778 23.358C4.8747 23.695 5.1353 24 5.47638 24H9.32586C9.78138 24 10.1693 23.6686 10.2403 23.2184L10.2781 23.0227L11.0032 18.4245L11.05 18.1704C11.121 17.7202 11.5089 17.3888 11.9644 17.3888H12.5401C16.2694 17.3888 19.1894 15.8737 20.0427 11.4921C20.3991 9.66131 20.2148 8.13307 19.272 7.05863C18.9869 6.73379 18.632 6.46495 18.2182 6.24579Z" fill="black"/>
<path fill-rule="evenodd" clip-rule="evenodd" d="M17.1974 5.83899C17.0488 5.79535 16.8953 5.75635 16.7371 5.72119C16.5787 5.68603 16.4161 5.65499 16.2488 5.62811C15.6631 5.53379 15.0226 5.48871 14.3356 5.48871H8.53705C8.39473 5.48871 8.25897 5.52119 8.13729 5.57935C7.86989 5.70763 7.67133 5.96095 7.62261 6.27051L6.39013 14.0848L6.35449 14.3129C6.43569 13.7985 6.87545 13.4193 7.39617 13.4193H9.56685C13.8297 13.4193 17.1673 11.6877 18.1426 6.67899C18.1717 6.53087 18.1962 6.38711 18.2183 6.24579C17.9719 6.11535 17.7043 6.00287 17.4168 5.90735C17.3448 5.88335 17.2718 5.86059 17.1974 5.83899Z" fill="black"/>
</g>
</g>
<defs>
<clipPath id="clip0_1358_224815">
<rect width="98.4" height="24" fill="white" transform="translate(0.0410156)"/>
</clipPath>
</defs>
</svg>
