<svg width="105" height="24" viewBox="0 0 105 24" fill="none" xmlns="http://www.w3.org/2000/svg">
<g clip-path="url(#clip0_1358_224816)">
<path fill-rule="evenodd" clip-rule="evenodd" d="M81.1106 16.5502C83.7828 16.5502 85.9562 14.4199 85.9562 11.8015C85.9562 9.18297 83.7828 7.05273 81.1106 7.05273C78.4389 7.05273 76.265 9.18297 76.265 11.8015C76.265 14.4199 78.4389 16.5502 81.1106 16.5502ZM85.9562 0H86.0877H88.252V18.816H85.9562V16.9373C84.6314 18.1407 82.9231 18.7999 81.1106 18.7999C77.1732 18.7999 73.9697 15.6604 73.9697 11.8015C73.9697 7.94237 77.1732 4.80298 81.1106 4.80298C82.9231 4.80298 84.6314 5.46211 85.9562 6.66562V0ZM33.5026 16.4673C36.1744 16.4673 38.3482 14.3371 38.3482 11.7186C38.3482 9.10017 36.1744 6.96994 33.5026 6.96994C30.8307 6.96994 28.6569 9.10017 28.6569 11.7186C28.6569 14.3371 30.8307 16.4673 33.5026 16.4673ZM28.6569 6.58296C29.9818 5.37946 31.6905 4.72022 33.5026 4.72022C37.4402 4.72022 40.6438 7.85971 40.6438 11.7186C40.6438 15.5775 37.4402 18.717 33.5026 18.717C31.6905 18.717 29.9818 18.0579 28.6569 16.8543V23.52H26.3613V4.704H28.6569V6.58296ZM45.0239 10.6259C45.5405 8.49931 47.4656 6.97233 49.6615 6.97233C51.8287 6.97233 53.644 8.46672 54.1279 10.6259H45.0239ZM49.6615 4.704C45.7828 4.704 42.6275 7.86945 42.6275 11.76C42.6275 15.6507 45.7828 18.816 49.6615 18.816C51.8335 18.816 53.8269 18.0003 55.1316 16.578L55.8093 15.8387L55.8967 15.7434L55.8016 15.6554L54.328 14.2957L54.233 14.2078L54.1452 14.3032L53.4674 15.0426C52.6029 15.9851 51.1802 16.5478 49.6615 16.5478C47.4656 16.5478 45.5406 15.0208 45.0239 12.8941H56.513V11.76C56.513 7.80336 53.5034 4.704 49.6615 4.704ZM101.825 11.76C101.825 14.4 99.652 16.5478 96.9799 16.5478C94.3082 16.5478 92.1343 14.4 92.1343 11.76C92.1343 9.12 94.3082 6.97224 96.9799 6.97224C99.652 6.97224 101.825 9.12 101.825 11.76ZM96.9799 4.704C93.0424 4.704 89.8389 7.86931 89.8389 11.76C89.8389 15.6507 93.0424 18.816 96.9799 18.816C100.918 18.816 104.121 15.6507 104.121 11.76C104.121 7.86931 100.918 4.704 96.9799 4.704ZM65.0426 4.704C63.4476 4.704 61.9279 5.31144 60.7317 6.42086V4.704H58.4968V18.816H60.7317V11.6144C60.7317 9.04507 62.6656 6.95462 65.0426 6.95462C67.42 6.95462 69.3545 9.04507 69.3545 11.6144V18.816H71.5888V11.6144C71.5888 7.80403 68.6522 4.704 65.0426 4.704Z" fill="black"/>
<path fill-rule="evenodd" clip-rule="evenodd" d="M0.441406 13.44H11.2414V24L22.0414 13.44V2.88H11.2414L0.441406 13.44Z" fill="black"/>
</g>
<defs>
<clipPath id="clip0_1358_224816">
<rect width="103.68" height="24" fill="white" transform="translate(0.441406)"/>
</clipPath>
</defs>
</svg>
