<svg width="99" height="24" viewBox="0 0 99 24" fill="none" xmlns="http://www.w3.org/2000/svg">
<g clip-path="url(#clip0_1358_224818)">
<path d="M39.2773 8.63702H42.3743V18.3648H39.2773V8.63702Z" fill="black"/>
<path d="M43.021 8.63698H46.004V9.96695H46.0609C46.7829 8.92192 47.7139 8.35205 49.0629 8.35205C51.1908 8.35205 52.4448 9.87195 52.4448 12.0379V18.3647H49.3479V12.6649C49.3479 11.6389 48.8349 10.9358 47.8279 10.9358C46.802 10.9358 46.1179 11.791 46.1179 12.9879V18.3647H43.021V8.63698Z" fill="black"/>
<path d="M42.6832 6.03446C42.6832 5.00842 41.8514 4.17676 40.8254 4.17676C39.7995 4.17676 38.9678 5.00842 38.9678 6.03446C38.9678 7.0604 39.7995 7.89209 40.8254 7.89209C41.8514 7.89209 42.6832 7.0604 42.6832 6.03446Z" fill="black"/>
<path d="M74.2259 8.49655C74.1375 8.48857 74.0362 8.48505 73.9177 8.48505C72.7397 8.48505 71.9418 8.99802 71.2578 10.157H71.2008V8.63702H68.2368V18.3647H71.3337V13.9948C71.3337 11.9701 72.4551 11.0319 74.2259 11.1956V8.49655Z" fill="black"/>
<path d="M89.424 12.2278C88.1887 11.9999 87.0868 11.9049 87.0868 11.2209C87.0868 10.6129 87.6757 10.328 88.4356 10.328C89.2905 10.328 89.8794 10.594 89.9937 11.4679H92.8438C92.6919 9.549 91.2098 8.35199 88.4547 8.35199C86.156 8.35199 84.2559 9.41596 84.2559 11.4679C84.2559 13.7478 86.0609 14.2038 87.7516 14.4889C89.0436 14.7169 90.2214 14.8118 90.2214 15.6858C90.2214 16.3128 89.6325 16.6548 88.7016 16.6548C87.7677 16.6548 87.1497 16.2596 86.9603 15.4578H84.0098C84.2268 17.4576 85.9819 18.6687 88.7208 18.6687C91.2665 18.6687 93.1474 17.5668 93.1474 15.4389C93.1474 12.9499 91.1339 12.5129 89.424 12.2278Z" fill="black"/>
<path d="M79.0303 10.5559C80.037 10.5559 80.7586 11.2969 80.8728 12.456H77.035C77.244 11.2969 77.8517 10.5559 79.0303 10.5559ZM79.2013 16.4267C77.9276 16.4267 77.206 15.6098 77.0159 14.2988H84.0082C84.0266 12.323 83.4568 10.6319 82.2983 9.56801C81.4617 8.80807 80.3598 8.35199 78.9728 8.35199C76.009 8.35199 73.9761 10.5749 73.9761 13.4819C73.9761 16.4267 75.952 18.6498 79.1629 18.6498C80.3982 18.6498 81.3858 18.3268 82.2032 17.7568C83.0581 17.1678 83.6278 16.3318 83.8372 15.4579H80.8161C80.55 16.0658 80.0179 16.4267 79.2013 16.4267Z" fill="black"/>
<path d="M98.6022 16.0709C98.4588 16.0765 98.2656 16.0849 98.0885 16.0849C97.4237 16.0849 97.0058 15.8948 97.0058 15.1349V10.5749H98.6022V8.63699H97.0058V5.55908H93.9847V8.63699H93.0347V10.5749H93.9847V15.7998C93.9847 17.8899 95.2767 18.4788 97.0817 18.4788C97.7703 18.4788 98.2909 18.4272 98.6022 18.3665V16.0709Z" fill="black"/>
<path d="M57.975 16.0753C57.8515 16.0801 57.7089 16.0849 57.5756 16.0849C56.9107 16.0849 56.4926 15.8948 56.4926 15.1349V10.5749H57.975V8.637H56.4926V5.55908H53.4717V8.637H52.4644V10.5749H53.4717V15.7998C53.4717 17.8899 54.7637 18.4788 56.5687 18.4788C57.1794 18.4788 57.6576 18.4381 57.975 18.3866V16.0753Z" fill="black"/>
<path d="M64.7206 12.4559C64.6066 11.2969 63.8845 10.5558 62.8775 10.5558C61.6996 10.5558 61.0916 11.2969 60.8826 12.4559H64.7206ZM57.8237 13.4818C57.8237 10.5749 59.8567 8.35205 62.8206 8.35205C64.2075 8.35205 65.3096 8.80797 66.1455 9.568C67.3045 10.632 67.8744 12.3229 67.8554 14.2988H60.8638C61.0536 15.6098 61.7756 16.4268 63.0487 16.4268C63.8655 16.4268 64.3976 16.0658 64.6635 15.4578H67.6844C67.4754 16.3318 66.9056 17.1677 66.0504 17.7568C65.2336 18.3267 64.2456 18.6497 63.0106 18.6497C59.7996 18.6497 57.8237 16.4268 57.8237 13.4818Z" fill="black"/>
<path d="M33.8991 11.164C35.1151 11.164 35.7991 10.442 35.7991 9.3589C35.7991 8.27599 35.096 7.61102 33.8991 7.61102H31.524V11.164H33.8991ZM28.3887 4.78009H33.7667C35.4195 4.78009 36.6355 5.23604 37.4715 6.03406C38.3455 6.85095 38.8396 8.00999 38.8396 9.37791C38.8396 11.9809 37.0346 13.8239 34.2416 13.8239H31.524V18.3647H28.3887V4.78009Z" fill="black"/>
<path d="M24.137 11.9808C24.137 18.4385 18.902 23.6734 12.4445 23.6734C5.98691 23.6734 0.751953 18.4385 0.751953 11.9808C0.751953 5.52319 5.98691 0.28833 12.4445 0.28833C18.902 0.28833 24.137 5.52319 24.137 11.9808Z" fill="white"/>
<path d="M12.4445 0.288269C5.9869 0.288269 0.751953 5.52322 0.751953 11.9808C0.751953 16.9343 3.8339 21.169 8.18342 22.8726C8.08125 21.9475 7.98886 20.5247 8.22396 19.5148C8.43642 18.6023 9.59502 13.7029 9.59502 13.7029C9.59502 13.7029 9.24529 13.0024 9.24529 11.9669C9.24529 10.3411 10.1877 9.12726 11.361 9.12726C12.3586 9.12726 12.8404 9.87616 12.8404 10.7743C12.8404 11.7775 12.2017 13.2774 11.8721 14.6673C11.5966 15.8312 12.4557 16.7802 13.6036 16.7802C15.6817 16.7802 17.2792 14.589 17.2792 11.426C17.2792 8.62632 15.2675 6.66897 12.3951 6.66897C9.06816 6.66897 7.1154 9.16437 7.1154 11.7432C7.1154 12.7481 7.50253 13.8257 7.9856 14.4116C8.08115 14.5273 8.09515 14.6288 8.06668 14.7469C7.97793 15.1162 7.78068 15.9104 7.74195 16.073C7.69096 16.287 7.5725 16.3324 7.3509 16.2293C5.89058 15.5495 4.97755 13.4144 4.97755 11.6995C4.97755 8.01122 7.65742 4.62389 12.7033 4.62389C16.7594 4.62389 19.9115 7.51424 19.9115 11.377C19.9115 15.4067 17.3707 18.6497 13.8441 18.6497C12.6593 18.6497 11.5455 18.0342 11.1641 17.3071C11.1641 17.3071 10.5779 19.5396 10.4357 20.0867C10.1718 21.1023 9.45914 22.3753 8.98252 23.1519C10.0765 23.4906 11.2391 23.6733 12.4445 23.6733C18.9021 23.6733 24.1371 18.4383 24.1371 11.9808C24.1371 5.52322 18.9021 0.288269 12.4445 0.288269Z" fill="black"/>
</g>
<defs>
<clipPath id="clip0_1358_224818">
<rect width="98.0703" height="24" fill="white" transform="translate(0.651367)"/>
</clipPath>
</defs>
</svg>
