<svg width="70" height="24" viewBox="0 0 70 24" fill="none" xmlns="http://www.w3.org/2000/svg">
<g clip-path="url(#clip0_1358_224819)">
<path d="M47.5423 18.023C46.9923 18.8127 46.2039 19.4056 45.2926 19.7148C44.3812 20.024 43.3948 20.0333 42.4778 19.7413C41.5608 19.4493 40.7614 18.8714 40.1966 18.0921C39.6318 17.3129 39.3314 16.3733 39.3393 15.411C39.3472 14.4486 39.663 13.5141 40.2405 12.7443C40.818 11.9744 41.6268 11.4097 42.5484 11.1327C43.4701 10.8558 44.4562 10.8813 45.3624 11.2054C46.2685 11.5295 47.0471 12.1353 47.5841 12.9339L50.9138 10.968C49.9442 9.43841 48.5046 8.26465 46.8111 7.62299C45.1176 6.98134 43.2617 6.90641 41.5219 7.40948C39.7822 7.91254 38.2527 8.96644 37.163 10.4129C36.0733 11.8594 35.4823 13.6203 35.4787 15.4313C35.4751 17.2423 36.0592 19.0055 37.1432 20.4563C38.2271 21.907 39.7525 22.967 41.4902 23.4769C43.2279 23.9868 45.0842 23.9192 46.7802 23.2843C48.4762 22.6493 49.9205 21.4812 50.8961 19.9555L47.5434 18.023H47.5423ZM56.7166 0H52.8536V23.1715H56.7145V15.4477C56.7145 14.2527 57.1892 13.1066 58.0342 12.2616C58.8792 11.4166 60.0252 10.9419 61.2202 10.9419C62.4152 10.9419 63.5613 11.4166 64.4063 12.2616C65.2513 13.1066 65.726 14.2527 65.726 15.4477V23.1715H69.5879V14.6963C69.5873 13.2056 69.1494 11.7479 68.3283 10.5037C67.5073 9.25946 66.3392 8.2835 64.9688 7.69674C63.5984 7.10998 62.086 6.9382 60.619 7.20269C59.1519 7.46718 57.7947 8.15631 56.7155 9.1847V0H56.7166ZM29.6842 0H25.8223V18.0219C25.8222 19.1341 26.1422 20.2229 26.7443 21.1581C27.3463 22.0933 28.2049 22.8354 29.2174 23.2957C30.2299 23.756 31.3536 23.9151 32.4541 23.7539C33.5546 23.5927 34.5854 23.1181 35.4234 22.3868L33.5576 19.2209C33.377 19.4491 33.1471 19.6335 32.885 19.7602C32.623 19.8869 32.3356 19.9526 32.0446 19.9523H31.6147C31.1028 19.9521 30.6119 19.7486 30.2499 19.3866C29.888 19.0247 29.6845 18.5338 29.6842 18.0219V11.5857H33.5451V7.72383H29.6842V0ZM21.3197 0C20.7507 0 20.205 0.226032 19.8027 0.628371C19.4003 1.03071 19.1743 1.5764 19.1743 2.14539C19.1743 2.71438 19.4003 3.26007 19.8027 3.66241C20.205 4.06475 20.7507 4.29078 21.3197 4.29078C21.8887 4.29078 22.4344 4.06475 22.8367 3.66241C23.2391 3.26007 23.4651 2.71438 23.4651 2.14539C23.4651 1.5764 23.2391 1.03071 22.8367 0.628371C22.4344 0.226032 21.8887 0 21.3197 0V0ZM23.2501 23.1715V7.72383H19.3893V23.1715H23.2501Z" fill="black"/>
<path fill-rule="evenodd" clip-rule="evenodd" d="M0.72168 23.1715H4.58255V18.6657H8.12307C9.34868 18.6657 10.5623 18.4243 11.6946 17.9553C12.8269 17.4863 13.8558 16.7988 14.7224 15.9322C15.589 15.0656 16.2765 14.0367 16.7455 12.9044C17.2145 11.7721 17.4559 10.5585 17.4559 9.33287C17.4559 8.10726 17.2145 6.89365 16.7455 5.76133C16.2765 4.62902 15.589 3.60017 14.7224 2.73353C13.8558 1.8669 12.8269 1.17944 11.6946 0.710422C10.5623 0.241402 9.34868 -2.58278e-08 8.12307 0L0.72168 0V23.1715ZM4.58255 3.86087H8.12307C9.57406 3.86087 10.9656 4.43727 11.9916 5.46327C13.0176 6.48928 13.594 7.88084 13.594 9.33182C13.594 10.7828 13.0176 12.1744 11.9916 13.2004C10.9656 14.2264 9.57406 14.8028 8.12307 14.8028H4.58359V3.86087H4.58255Z" fill="black"/>
</g>
<defs>
<clipPath id="clip0_1358_224819">
<rect width="68.8696" height="24" fill="white" transform="translate(0.72168)"/>
</clipPath>
</defs>
</svg>
