<svg width="80" height="24" viewBox="0 0 80 24" fill="none" xmlns="http://www.w3.org/2000/svg">
<g clip-path="url(#clip0_1358_224820)">
<path d="M28.2739 15.398V8.51885C28.2739 8.43568 28.3096 8.36439 28.369 8.30499C28.4403 8.24558 28.5234 8.20994 28.6185 8.22182H30.5551C31.1254 8.19806 31.6957 8.38816 32.1353 8.75647C32.5274 9.11291 32.7294 9.67132 32.7294 10.4317V10.5268C32.7294 11.2872 32.5274 11.8575 32.1234 12.2139C31.6719 12.5822 31.1016 12.7842 30.5195 12.7485H29.1413V15.398C29.1413 15.4931 29.0937 15.5763 29.0106 15.6238C28.8205 15.7307 28.5947 15.7307 28.4046 15.6238C28.3215 15.5763 28.2739 15.4931 28.2739 15.398ZM29.1294 12.0357H30.5195C30.8878 12.0594 31.2561 11.9287 31.5175 11.6674C31.7789 11.3703 31.9096 10.9783 31.8739 10.5743V10.4555C31.9096 10.0634 31.7789 9.67132 31.5175 9.36241C31.2442 9.11291 30.8878 8.98222 30.5195 9.00598H29.1413L29.1294 12.0357Z" fill="black"/>
<path d="M35.7236 13.5327V10.4554C35.7236 9.68315 35.9256 9.12473 36.3177 8.7683C37.2682 8.05542 38.5751 8.05542 39.5256 8.7683C39.9296 9.12473 40.1316 9.69503 40.1316 10.4554V13.5327C40.1316 14.3049 39.9296 14.8633 39.5256 15.2198C38.5751 15.9445 37.2682 15.9445 36.3177 15.2198C35.9256 14.8633 35.7236 14.3049 35.7236 13.5327ZM36.591 13.5327C36.591 14.495 37.0306 14.9822 37.9335 14.9822C38.3018 15.0059 38.6583 14.8752 38.9316 14.6257C39.1929 14.3287 39.3118 13.9366 39.288 13.5327V10.4435C39.3236 10.0515 39.1929 9.65938 38.9316 9.35047C38.6583 9.10097 38.3018 8.97028 37.9335 8.99404C37.0424 8.99404 36.6028 9.46929 36.6028 10.4435L36.591 13.5327Z" fill="black"/>
<path d="M43.1729 14.6495C43.1729 14.5307 43.2204 14.4238 43.2917 14.3287C43.3511 14.2456 43.4342 14.1862 43.5412 14.1743C43.6362 14.1862 43.7194 14.2337 43.7788 14.305C43.8738 14.3881 43.9689 14.4832 44.0758 14.5901C44.2184 14.7208 44.3847 14.8159 44.563 14.8753C44.8006 14.9703 45.062 15.006 45.3115 15.006C45.6917 15.0297 46.06 14.9109 46.357 14.6852C46.6184 14.4475 46.761 14.0911 46.7372 13.7347C46.7491 13.3901 46.6303 13.0693 46.3927 12.8198C46.155 12.5822 45.8699 12.404 45.5491 12.2852C45.2164 12.1663 44.8956 12.0357 44.5511 11.8931C44.2184 11.7505 43.9332 11.5366 43.7075 11.2515C43.4699 10.9307 43.3392 10.5386 43.363 10.1347C43.3511 9.81386 43.4224 9.49307 43.5649 9.19604C43.6837 8.94653 43.8738 8.74455 44.1115 8.60198C44.3372 8.47129 44.5748 8.37624 44.8243 8.30495C45.0857 8.24554 45.3471 8.2099 45.6085 8.2099C46.0243 8.2099 46.4283 8.26931 46.8204 8.38812C47.2006 8.51881 47.4026 8.68515 47.4026 8.88713C47.4026 8.99406 47.3669 9.10099 47.2956 9.19604C47.2481 9.29109 47.1412 9.36237 47.0342 9.36237C46.8798 9.31485 46.7253 9.25544 46.5709 9.18416C46.2738 9.05346 45.9531 8.98218 45.6204 8.99406C45.2758 8.98218 44.9194 9.06535 44.6224 9.24356C44.361 9.42178 44.2184 9.73069 44.2422 10.0515C44.2303 10.3485 44.3491 10.6337 44.5748 10.8238C44.8243 11.0257 45.1095 11.1921 45.4184 11.2871C45.7511 11.4059 46.0837 11.5366 46.4164 11.6911C46.7491 11.8574 47.0342 12.1069 47.2481 12.4159C47.4857 12.7961 47.6045 13.2357 47.5927 13.6871C47.5927 14.3881 47.3907 14.9228 46.9748 15.2792C46.5233 15.6594 45.9412 15.8495 45.3471 15.8139C44.8125 15.8258 44.2778 15.6951 43.8144 15.4337C43.3867 15.1485 43.1729 14.899 43.1729 14.6495Z" fill="black"/>
<path d="M50.1475 8.602C50.1475 8.50695 50.1712 8.4119 50.2306 8.34061C50.2782 8.25745 50.3613 8.2218 50.4564 8.2218H54.6148C54.7098 8.2218 54.793 8.25745 54.8405 8.34061C54.8999 8.4119 54.9237 8.50695 54.9237 8.602C54.9237 8.69705 54.8999 8.80398 54.8405 8.88715C54.793 8.97032 54.7098 9.00596 54.6148 9.00596H52.9871V15.398C52.9871 15.4931 52.9395 15.5763 52.8564 15.6238C52.6663 15.7307 52.4405 15.7307 52.2504 15.6238C52.1673 15.5763 52.1197 15.4931 52.1197 15.398V9.00596H50.4683C50.3732 9.00596 50.29 8.97032 50.2425 8.88715C50.1831 8.80398 50.1475 8.70893 50.1475 8.602Z" fill="black"/>
<path d="M57.8463 15.398V8.66137C57.8106 8.45939 57.9532 8.26929 58.1552 8.23364C58.2027 8.22176 58.2503 8.22176 58.2859 8.23364C58.5592 8.23364 58.7849 8.41186 58.975 8.78018L60.579 11.8574L62.1948 8.78018C62.3968 8.42374 62.6225 8.23364 62.8839 8.23364C63.0859 8.198 63.276 8.34057 63.3116 8.54255C63.3235 8.5782 63.3235 8.61384 63.3116 8.64948V15.3861C63.3116 15.4812 63.2641 15.5643 63.1809 15.6119C62.9908 15.7188 62.7651 15.7188 62.575 15.6119C62.4918 15.5643 62.4443 15.4812 62.4443 15.3861V10.0277L60.8998 12.9267C60.8522 13.0693 60.7215 13.1762 60.5671 13.1762C60.4245 13.1643 60.2938 13.0693 60.2463 12.9267L58.7017 9.9683V15.3861C58.7017 15.4812 58.6542 15.5643 58.571 15.6119C58.4879 15.6713 58.3809 15.7069 58.2859 15.7069C58.179 15.7069 58.072 15.6832 57.9889 15.6238C57.8938 15.5881 57.8344 15.4931 57.8463 15.398Z" fill="black"/>
<path d="M66.2461 15.3505C66.2461 15.3267 66.258 15.2911 66.2699 15.2673L68.361 8.53067C68.4204 8.32869 68.5986 8.23364 68.8837 8.23364C69.1689 8.23364 69.3471 8.32869 69.4065 8.53067L71.5095 15.3029V15.3386V15.3624C71.5095 15.4693 71.4382 15.5643 71.3431 15.6119C71.2362 15.6831 71.1055 15.7188 70.9629 15.7069C70.8322 15.7188 70.7015 15.6475 70.654 15.5168L70.2025 14.0198H67.5174L67.0659 15.5168C67.0303 15.6475 66.8877 15.7307 66.757 15.7188C66.6382 15.7188 66.5194 15.6831 66.4124 15.6119C66.3055 15.5643 66.2461 15.4693 66.2461 15.3505ZM67.7312 13.3069H70.0243L68.8837 9.48117L67.7312 13.3069Z" fill="black"/>
<path d="M74.4683 15.398V8.51883C74.4683 8.31685 74.6108 8.2218 74.896 8.2218C75.0267 8.2218 75.1574 8.26933 75.2643 8.3525C75.3831 8.47131 75.49 8.61388 75.5495 8.76834L78.1039 13.7584V8.51883C78.1039 8.42378 78.1514 8.34061 78.2346 8.30497C78.4247 8.19804 78.6504 8.19804 78.8405 8.30497C78.9237 8.3525 78.9712 8.43566 78.9712 8.51883V15.398C78.9712 15.4931 78.9237 15.5763 78.8405 15.6238C78.7455 15.6832 78.6504 15.7069 78.5435 15.7069C78.3059 15.6951 78.092 15.5406 78.0089 15.3149L75.3237 10.1703V15.398C75.3237 15.4931 75.2762 15.5763 75.2049 15.6238C75.0148 15.7307 74.7891 15.7307 74.599 15.6238C74.5158 15.5763 74.4683 15.4931 74.4683 15.398Z" fill="black"/>
<path d="M24.3174 13.5089C25.1491 6.99799 20.5511 1.04551 14.0521 0.213829C7.55307 -0.617854 1.57682 3.98017 0.74514 10.4792C-0.0865431 16.9782 4.51148 22.9426 11.0105 23.7861C17.5214 24.6178 23.4739 20.0198 24.3174 13.5089Z" fill="black"/>
<path d="M16.8203 7.74656L11.8064 12.7604L10.3926 11.3466C15.3233 6.41587 15.8104 6.84359 16.8203 7.74656Z" fill="white"/>
<path d="M11.8068 12.8792C11.7711 12.8792 11.7474 12.8673 11.7236 12.8436L10.2979 11.4297C10.2503 11.3822 10.2503 11.3109 10.2979 11.2634C15.3117 6.24949 15.8345 6.72474 16.8919 7.67523C16.9157 7.699 16.9276 7.72276 16.9276 7.7584C16.9276 7.79405 16.9157 7.81781 16.8919 7.84157L11.878 12.8436C11.8662 12.8673 11.8305 12.8792 11.8068 12.8792ZM10.5592 11.3465L11.8068 12.594L16.6424 7.7584C15.7632 6.97425 15.1691 6.73662 10.5592 11.3465Z" fill="black"/>
<path d="M13.2443 14.198L11.8779 12.8317L16.8918 7.81781C18.2344 9.17227 16.2264 11.3703 13.2443 14.198Z" fill="white"/>
<path d="M13.2443 14.3169C13.2086 14.3169 13.1848 14.305 13.1611 14.2812L11.7948 12.9149C11.771 12.8911 11.771 12.8674 11.771 12.8317C11.771 12.7961 11.7829 12.7723 11.8066 12.7485L16.8205 7.73468C16.868 7.68715 16.9393 7.68715 16.9868 7.73468C17.2957 8.01983 17.4621 8.4238 17.4502 8.83964C17.4264 10.1585 15.9294 11.8337 13.3393 14.2812C13.3037 14.305 13.268 14.3169 13.2443 14.3169ZM12.0443 12.8317C12.8046 13.604 13.1254 13.9129 13.2443 14.0317C15.2403 12.1307 17.1769 10.1822 17.1888 8.83964C17.2007 8.53073 17.0819 8.22181 16.8799 7.98418L12.0443 12.8317Z" fill="black"/>
<path d="M10.4168 11.3822L11.4267 12.3921C11.4505 12.4158 11.4505 12.4396 11.4267 12.4634C11.4148 12.4752 11.4148 12.4752 11.4029 12.4752L9.31184 12.9267C9.20491 12.9386 9.10986 12.8673 9.0861 12.7604C9.07422 12.701 9.09798 12.6416 9.13362 12.6059L10.3455 11.394C10.3693 11.3703 10.4049 11.3584 10.4168 11.3822Z" fill="white"/>
<path d="M9.2762 13.0455C9.09798 13.0455 8.96729 12.9029 8.96729 12.7247C8.96729 12.6416 9.00293 12.5584 9.06234 12.499L10.2742 11.2871C10.3455 11.2277 10.4406 11.2277 10.5118 11.2871L11.5217 12.297C11.593 12.3564 11.593 12.4633 11.5217 12.5346C11.498 12.5584 11.4742 12.5703 11.4386 12.5822L9.34748 13.0336C9.32372 13.0336 9.29996 13.0455 9.2762 13.0455ZM10.3811 11.5129L9.21679 12.6772C9.19303 12.701 9.18115 12.7366 9.20491 12.7723C9.21679 12.8079 9.25243 12.8198 9.28808 12.8079L11.2485 12.3802L10.3811 11.5129Z" fill="black"/>
<path d="M19.4703 4.96638C18.7099 4.22974 17.4861 4.25351 16.7495 5.02578C16.0128 5.79806 16.0366 7.00993 16.8089 7.74656C17.4386 8.3525 18.3891 8.45945 19.1376 8.00796L17.7831 6.65349L19.4703 4.96638Z" fill="white"/>
<path d="M18.1393 8.39999C17.0106 8.39999 16.0957 7.48514 16.0957 6.35643C16.0957 5.22772 17.0106 4.31287 18.1393 4.31287C18.662 4.31287 19.1729 4.51485 19.5531 4.88316C19.5769 4.90693 19.5888 4.93069 19.5888 4.96633C19.5888 5.00198 19.5769 5.02574 19.5531 5.0495L17.9492 6.65346L19.2086 7.91287C19.2561 7.96039 19.2561 8.03168 19.2086 8.0792C19.1967 8.09108 19.1967 8.09108 19.1848 8.10296C18.8759 8.29306 18.5076 8.39999 18.1393 8.39999ZM18.1393 4.56237C17.1412 4.56237 16.3333 5.37029 16.3452 6.36831C16.3452 7.36633 17.1531 8.17425 18.1511 8.16237C18.4244 8.16237 18.6977 8.10296 18.9472 7.97227L17.6997 6.73663C17.6759 6.71287 17.664 6.6891 17.664 6.65346C17.664 6.61782 17.6759 6.59405 17.6997 6.57029L19.2917 4.97821C18.9709 4.70495 18.567 4.56237 18.1393 4.56237Z" fill="black"/>
<path d="M19.5055 5.00197L19.4817 4.97821L17.7827 6.65346L19.1253 7.99603C19.256 7.91286 19.3867 7.81782 19.4936 7.71088C20.254 6.96237 20.254 5.75049 19.5055 5.00197Z" fill="white"/>
<path d="M19.1373 8.12675C19.1017 8.12675 19.0779 8.11486 19.0542 8.0911L17.6997 6.73664C17.6759 6.71288 17.6641 6.68913 17.6641 6.65349C17.6641 6.61784 17.6759 6.59408 17.6997 6.57032L19.3868 4.88318C19.4344 4.83565 19.5056 4.83565 19.5532 4.88318L19.5888 4.90695C20.3849 5.70299 20.3849 6.98615 19.6007 7.79407C19.4819 7.91288 19.3512 8.01981 19.2086 8.10298C19.173 8.11486 19.1492 8.12675 19.1373 8.12675ZM17.9492 6.65349L19.1492 7.85347C19.2443 7.79407 19.3393 7.71091 19.4106 7.63963C20.0878 6.9624 20.1235 5.85745 19.47 5.14458L17.9492 6.65349Z" fill="black"/>
<path d="M17.0226 7.96038C16.7375 7.67523 16.2741 7.67523 15.989 7.96038L11.5098 12.4396L12.2583 13.1881L16.9989 9.02969C17.3078 8.7683 17.3316 8.30494 17.0702 7.99603C17.0464 7.98415 17.0345 7.97226 17.0226 7.96038Z" fill="white"/>
<path d="M12.2462 13.307C12.2106 13.307 12.1868 13.2951 12.1631 13.2713L11.4145 12.5228C11.367 12.4753 11.367 12.404 11.4145 12.3565L15.8938 7.87725C16.2264 7.54458 16.7611 7.54458 17.0938 7.87725C17.4264 8.20992 17.4264 8.74458 17.0938 9.07725C17.0819 9.08913 17.07 9.101 17.0581 9.11288L12.3175 13.2713C12.3056 13.2951 12.2819 13.307 12.2462 13.307ZM11.6759 12.4396L12.2581 13.0218L16.9155 8.93466C17.1769 8.7208 17.2007 8.32872 16.9868 8.06734C16.773 7.80595 16.3809 7.7822 16.1195 7.99606C16.1076 8.00794 16.0957 8.01981 16.072 8.03169L11.6759 12.4396Z" fill="black"/>
<path d="M8.0758 17.5366C8.02828 17.5604 8.00452 17.6079 8.0164 17.6554L8.21838 18.5109C8.2659 18.6297 8.19462 18.7722 8.06392 18.8079C7.96887 18.8435 7.86194 18.8079 7.80254 18.7366L6.49561 17.4416L10.761 13.1762L12.2342 13.2L13.2322 14.198C12.9946 14.4 11.557 15.7901 8.0758 17.5366Z" fill="white"/>
<path d="M7.98108 18.9267C7.88603 18.9267 7.79098 18.8911 7.73157 18.8198L6.43652 17.5248C6.41276 17.501 6.40088 17.4772 6.40088 17.4416C6.40088 17.4059 6.41276 17.3822 6.43652 17.3584L10.7019 13.0931C10.7256 13.0693 10.7613 13.0574 10.785 13.0574L12.2583 13.0812C12.2939 13.0812 12.3177 13.0931 12.3415 13.1168L13.3395 14.1149C13.3633 14.1386 13.3751 14.1743 13.3751 14.2099C13.3751 14.2456 13.3633 14.2693 13.3276 14.2931L13.2445 14.3644C11.985 15.4693 10.2741 16.5743 8.14741 17.6317L8.34939 18.4753C8.38504 18.6297 8.31375 18.796 8.17118 18.8792C8.09989 18.9149 8.04048 18.9267 7.98108 18.9267ZM6.67415 17.4416L7.89791 18.6535C7.93355 18.7129 8.00484 18.7366 8.06425 18.701C8.12365 18.6654 8.14741 18.5941 8.11177 18.5347L7.90979 17.6792C7.88603 17.5723 7.93355 17.4772 8.0286 17.4297C10.1316 16.3723 11.8306 15.2792 13.0781 14.198L12.1989 13.3188L10.8326 13.2951L6.67415 17.4416Z" fill="black"/>
<path d="M5.48583 18.4634L6.50761 17.4416L8.0284 18.9624L5.60464 18.796C5.49771 18.7842 5.42642 18.6891 5.4383 18.5822C5.4383 18.5347 5.45018 18.4871 5.48583 18.4634Z" fill="white"/>
<path d="M8.02825 19.0693L5.59261 18.903C5.41439 18.8911 5.29558 18.7367 5.30746 18.5584C5.31934 18.4872 5.3431 18.4159 5.40251 18.3683L6.42429 17.3466C6.47181 17.299 6.5431 17.299 6.59063 17.3466L8.11142 18.8673C8.14706 18.903 8.15894 18.9505 8.13518 18.998C8.11142 19.0456 8.07577 19.0693 8.02825 19.0693ZM6.50746 17.6079L5.56884 18.5466C5.5332 18.5703 5.5332 18.6297 5.56884 18.6535C5.58072 18.6654 5.59261 18.6772 5.61637 18.6772L7.71934 18.8198L6.50746 17.6079Z" fill="black"/>
<path d="M10.3454 13.7228C10.2741 13.7228 10.2266 13.6634 10.2266 13.604C10.2266 13.5683 10.2384 13.5446 10.2622 13.5208L11.4147 12.3683C11.4622 12.3208 11.5335 12.3208 11.581 12.3683L12.3295 13.1169C12.3652 13.1525 12.3771 13.1881 12.3652 13.2357C12.3533 13.2713 12.3177 13.307 12.2701 13.3188L10.3691 13.7228C10.3573 13.7228 10.3454 13.7228 10.3454 13.7228ZM11.4978 12.6179L10.7137 13.402L11.9969 13.1287L11.4978 12.6179Z" fill="black"/>
<path d="M12.2346 13.2L10.9276 13.4852C10.8326 13.5089 10.7375 13.4495 10.7138 13.3545C10.7019 13.2951 10.7138 13.2357 10.7613 13.1881L11.486 12.4634L12.2346 13.2Z" fill="white"/>
<path d="M10.9035 13.604C10.7371 13.604 10.6064 13.4733 10.6064 13.307C10.6064 13.2238 10.6421 13.1525 10.6896 13.0931L11.4144 12.3683C11.4619 12.3208 11.5332 12.3208 11.5807 12.3683L12.3292 13.1169C12.3649 13.1525 12.3768 13.1881 12.3649 13.2357C12.353 13.2713 12.3173 13.307 12.2698 13.3188L10.9629 13.604C10.9391 13.604 10.9154 13.604 10.9035 13.604ZM11.4975 12.6179L10.856 13.2594C10.8322 13.2832 10.8322 13.307 10.8441 13.3307C10.856 13.3545 10.8797 13.3664 10.9154 13.3664L12.0084 13.1287L11.4975 12.6179Z" fill="black"/>
<path d="M19.5177 6.14256C19.494 6.07128 19.4108 6.03563 19.3395 6.05939C19.2682 6.08316 19.2326 6.16632 19.2563 6.23761C19.2563 6.24949 19.2682 6.26137 19.2682 6.27326C19.3395 6.41583 19.3157 6.59405 19.2207 6.72474C19.1732 6.78415 19.185 6.86732 19.2326 6.91484C19.292 6.96236 19.3751 6.95048 19.4227 6.89108C19.6009 6.66533 19.6365 6.38019 19.5177 6.14256Z" fill="black"/>
</g>
<defs>
<clipPath id="clip0_1358_224820">
<rect width="78.4158" height="24" fill="white" transform="translate(0.59082)"/>
</clipPath>
</defs>
</svg>
