<svg width="93" height="24" viewBox="0 0 93 24" fill="none" xmlns="http://www.w3.org/2000/svg">
<g clip-path="url(#clip0_1358_224821)">
<path fill-rule="evenodd" clip-rule="evenodd" d="M30.3843 6.82576H30.9555C31.3453 6.82576 31.6613 7.14176 31.6613 7.53155V8.1998C31.6613 8.22052 31.6781 8.23732 31.6988 8.23732C32.0239 7.66224 32.4616 7.24401 33.0118 6.98261C33.5621 6.72121 34.156 6.59051 34.7938 6.59051C35.4816 6.59051 36.1006 6.71794 36.6508 6.97281C37.201 7.22767 37.67 7.57729 38.0576 8.02167C38.4453 8.46605 38.7391 8.98883 38.9392 9.59005C39.1393 10.1913 39.2393 10.8382 39.2393 11.531C39.2393 12.2236 39.133 12.8706 38.9205 13.4718C38.7078 14.0731 38.4109 14.5959 38.0295 15.0403C37.6481 15.4845 37.1885 15.8342 36.6508 16.0891C36.1131 16.3439 35.5254 16.4713 34.8876 16.4713C34.4624 16.4713 34.0873 16.4256 33.7621 16.3341C33.437 16.2427 33.1493 16.1251 32.8993 15.9812C32.6492 15.8374 32.4366 15.6839 32.2615 15.5205C32.0864 15.3572 31.9426 15.197 31.8301 15.0403C31.799 15.0403 31.7739 15.0654 31.7739 15.0965V19.8447C31.7739 20.3203 31.3882 20.706 30.9125 20.706H30.3843C29.9086 20.706 29.5229 20.3203 29.5229 19.8447V7.68711C29.5229 7.2114 29.9086 6.82576 30.3843 6.82576ZM36.9884 11.531C36.9884 11.165 36.9291 10.8121 36.8102 10.4723C36.6915 10.1324 36.5164 9.83187 36.285 9.57044C36.0536 9.30904 35.7754 9.09994 35.4503 8.94309C35.1252 8.78626 34.7563 8.70783 34.3436 8.70783C33.931 8.70783 33.5621 8.78626 33.2369 8.94309C32.9117 9.09994 32.6335 9.30904 32.4022 9.57044C32.1708 9.83187 31.9958 10.1324 31.877 10.4723C31.7582 10.8121 31.6988 11.165 31.6988 11.531C31.6988 11.8969 31.7582 12.2498 31.877 12.5896C31.9958 12.9294 32.1708 13.23 32.4022 13.4914C32.6335 13.7528 32.9117 13.962 33.2369 14.1187C33.5621 14.2756 33.931 14.354 34.3436 14.354C34.7563 14.354 35.1252 14.2756 35.4503 14.1187C35.7754 13.962 36.0536 13.7528 36.285 13.4914C36.5164 13.23 36.6915 12.9294 36.8102 12.5896C36.9291 12.2498 36.9884 11.8969 36.9884 11.531ZM42.4829 6.82576H43.1275C43.5389 6.82576 43.8725 7.15931 43.8725 7.57075V8.27823C43.8725 8.29894 43.8893 8.31574 43.91 8.31574C44.1601 7.76679 44.5164 7.34203 44.9791 7.04142C45.4419 6.74081 45.9733 6.59051 46.5735 6.59051C46.7111 6.59051 46.8455 6.60358 46.9768 6.62972C47.2112 6.6764 47.3801 6.88216 47.3801 7.1212V8.41192C47.3801 8.6715 47.1697 8.88193 46.9101 8.88193C46.8822 8.88193 46.8543 8.87943 46.8268 8.87448C46.6454 8.8418 46.4672 8.82546 46.2921 8.82546C45.7669 8.82546 45.3449 8.92675 45.026 9.12934C44.7072 9.33192 44.4633 9.56391 44.2945 9.82534C44.1257 10.0868 44.0131 10.3481 43.9568 10.6095C43.9006 10.8709 43.8725 11.0669 43.8725 11.1977V15.3747C43.8725 15.8505 43.4868 16.2361 43.0111 16.2361H42.4829C42.0072 16.2361 41.6215 15.8505 41.6215 15.3747V7.68711C41.6215 7.2114 42.0072 6.82576 42.4829 6.82576ZM50.0984 6.82576H50.6266C51.1024 6.82576 51.488 7.2114 51.488 7.68711V15.3747C51.488 15.8505 51.1024 16.2361 50.6266 16.2361H50.0984C49.6228 16.2361 49.2371 15.8505 49.2371 15.3747V7.68711C49.2371 7.2114 49.6228 6.82576 50.0984 6.82576ZM48.9182 3.63017C48.9182 3.25115 49.0526 2.92114 49.3215 2.64013C49.5904 2.35912 49.9311 2.21863 50.3438 2.21863C50.7565 2.21863 51.1035 2.35259 51.3848 2.62052C51.6662 2.88846 51.8069 3.22501 51.8069 3.63017C51.8069 4.03534 51.6662 4.37189 51.3848 4.63982C51.1035 4.90776 50.7565 5.04173 50.3438 5.04173C49.9311 5.04173 49.5904 4.90122 49.3215 4.62022C49.0526 4.33922 48.9182 4.0092 48.9182 3.63017ZM58.6159 8.97629C58.1593 8.64048 57.7528 8.47258 57.3966 8.47258C57.0966 8.47258 56.8027 8.551 56.5151 8.70783C56.2275 8.86468 56.0837 9.11953 56.0837 9.47242C56.0837 9.75997 56.2024 9.96905 56.44 10.0998C56.6776 10.2305 56.9777 10.3415 57.3404 10.433C57.703 10.5245 58.0938 10.6194 58.5127 10.7174C58.9316 10.8154 59.3224 10.9656 59.6851 11.1683C60.0477 11.3708 60.3478 11.6486 60.5854 12.0015C60.823 12.3544 60.9418 12.8379 60.9418 13.4522C60.9418 14.0142 60.8262 14.488 60.5948 14.8736C60.3634 15.2591 60.0633 15.5695 59.6944 15.8048C59.3256 16.0401 58.9098 16.2099 58.4471 16.3146C57.9844 16.4191 57.5217 16.4713 57.059 16.4713C56.3587 16.4713 55.7147 16.3668 55.127 16.1577C54.8968 16.0758 54.6206 15.9113 54.2984 15.664C53.9211 15.3744 53.8499 14.8337 54.1395 14.4563C54.1641 14.4241 54.191 14.3938 54.22 14.3655L54.4535 14.1367C54.7757 13.821 55.2869 13.8073 55.6254 14.1054C55.762 14.2256 55.8803 14.3183 55.9805 14.3834C56.3118 14.5991 56.7151 14.7069 57.1903 14.7069C57.3529 14.7069 57.5217 14.6874 57.6967 14.6481C57.8718 14.6089 58.0344 14.5436 58.1844 14.4521C58.3346 14.3606 58.4565 14.2462 58.5503 14.109C58.644 13.9718 58.6909 13.8116 58.6909 13.6287C58.6909 13.3019 58.5721 13.0602 58.3345 12.9033C58.097 12.7464 57.7968 12.619 57.4342 12.521C57.0715 12.423 56.6808 12.3315 56.2618 12.2466C55.8429 12.1616 55.4521 12.0243 55.0895 11.8348C54.7268 11.6453 54.4267 11.3806 54.1891 11.0408C53.9515 10.701 53.8327 10.2305 53.8327 9.62931C53.8327 9.10647 53.9358 8.65229 54.1422 8.26672C54.3486 7.88116 54.6205 7.56422 54.9582 7.31589C55.2958 7.06756 55.6834 6.88458 56.1211 6.76695C56.5588 6.64933 57.0028 6.59051 57.4529 6.59051C58.0532 6.59051 58.6471 6.69833 59.2349 6.91399C59.4477 6.99207 59.6851 7.13667 59.9471 7.34778C60.3175 7.64625 60.3759 8.18849 60.0774 8.55892C60.0526 8.58973 60.0257 8.61878 59.9968 8.64588L59.7164 8.90973C59.4136 9.19448 58.9508 9.22247 58.6159 8.97629ZM63.7351 6.82576H64.1508C64.6266 6.82576 65.0122 7.2114 65.0122 7.68711V8.29613C65.2498 7.85176 65.5718 7.4564 66.0157 7.11004C66.4596 6.76368 67.0567 6.59051 67.8071 6.59051C69.2202 6.59051 70.158 7.17211 70.6207 8.33535C70.9458 7.73413 71.3523 7.29302 71.8399 7.01201C72.3276 6.73101 72.9091 6.59051 73.5844 6.59051C74.1846 6.59051 74.6911 6.69507 75.1037 6.90419C75.5165 7.1133 75.8509 7.40084 76.1073 7.7668C76.3637 8.13277 76.5481 8.5608 76.6607 9.05092C76.7732 9.54105 76.8294 10.0671 76.8294 10.6291V15.3747C76.8294 15.8505 76.4438 16.2361 75.9681 16.2361H75.4399C74.9642 16.2361 74.5785 15.8505 74.5785 15.3747V10.9036C74.5785 10.616 74.5536 10.3383 74.5036 10.0703C74.4535 9.8024 74.366 9.56719 74.2409 9.3646C74.1159 9.16201 73.947 9.00191 73.7345 8.88428C73.5219 8.76665 73.2467 8.70783 72.9091 8.70783C72.559 8.70783 72.262 8.77646 72.0181 8.91369C71.7743 9.05092 71.5742 9.23389 71.4179 9.46262C71.2616 9.69133 71.149 9.95273 71.0803 10.2468C71.0115 10.5409 70.9771 10.8382 70.9771 11.1388V15.3747C70.9771 15.8505 70.5915 16.2361 70.1158 16.2361H69.5876C69.1118 16.2361 68.7262 15.8505 68.7262 15.3747V10.6291C68.7262 10.041 68.6074 9.57371 68.3698 9.22736C68.1322 8.881 67.7383 8.70783 67.1881 8.70783C66.8129 8.70783 66.4972 8.77318 66.2408 8.90389C65.9844 9.03458 65.7719 9.21102 65.6031 9.43321C65.4342 9.65542 65.3123 9.9103 65.2373 10.1978C65.1623 10.4853 65.1247 10.7859 65.1247 11.0996V15.3747C65.1247 15.8505 64.7391 16.2361 64.2634 16.2361H63.7351C63.2595 16.2361 62.8738 15.8505 62.8738 15.3747V7.68711C62.8738 7.2114 63.2595 6.82576 63.7351 6.82576ZM80.4669 6.82576H80.9952C81.4709 6.82576 81.8565 7.2114 81.8565 7.68711V15.3747C81.8565 15.8505 81.4709 16.2361 80.9952 16.2361H80.4669C79.9912 16.2361 79.6056 15.8505 79.6056 15.3747V7.68711C79.6056 7.2114 79.9912 6.82576 80.4669 6.82576ZM79.2867 3.63017C79.2867 3.25115 79.4212 2.92114 79.69 2.64013C79.9589 2.35912 80.2996 2.21863 80.7123 2.21863C81.125 2.21863 81.4719 2.35259 81.7533 2.62052C82.0347 2.88846 82.1754 3.22501 82.1754 3.63017C82.1754 4.03534 82.0347 4.37189 81.7533 4.63982C81.4719 4.90776 81.125 5.04173 80.7123 5.04173C80.2996 5.04173 79.9589 4.90122 79.69 4.62022C79.4212 4.33922 79.2867 4.0092 79.2867 3.63017ZM90.2979 9.13368C90.2052 9.06119 90.1238 9.0042 90.0535 8.9627C89.7659 8.79279 89.4721 8.70783 89.1719 8.70783C88.7593 8.70783 88.3903 8.78626 88.0652 8.94309C87.7401 9.09994 87.4618 9.30904 87.2306 9.57044C86.9992 9.83187 86.8241 10.1324 86.7053 10.4723C86.5865 10.8121 86.5271 11.165 86.5271 11.531C86.5271 11.8969 86.5865 12.2498 86.7053 12.5896C86.8241 12.9294 86.9992 13.23 87.2306 13.4914C87.4618 13.7528 87.7401 13.962 88.0652 14.1187C88.3903 14.2756 88.7593 14.354 89.1719 14.354C89.5221 14.354 89.8472 14.2789 90.1473 14.1285C90.208 14.0982 90.2739 14.0569 90.3449 14.0046C90.7031 13.7413 91.2029 13.7938 91.4985 14.126L91.8407 14.5103C92.1418 14.8486 92.1117 15.367 91.7733 15.6682C91.7318 15.7051 91.6866 15.7378 91.6385 15.7656C91.3446 15.9355 91.0477 16.0727 90.7475 16.1773C90.4474 16.2818 90.1598 16.357 89.8847 16.4028C89.6096 16.4485 89.372 16.4713 89.1719 16.4713C88.4966 16.4713 87.8589 16.3537 87.2587 16.1184C86.6584 15.8832 86.1394 15.5499 85.7018 15.1186C85.2641 14.6874 84.9171 14.1678 84.6607 13.56C84.4044 12.9523 84.2762 12.2759 84.2762 11.531C84.2762 10.7859 84.4044 10.1096 84.6607 9.50183C84.9171 8.89408 85.2641 8.37455 85.7018 7.94324C86.1394 7.51193 86.6584 7.17866 87.2587 6.94339C87.8589 6.70814 88.4966 6.59051 89.1719 6.59051C89.7472 6.59051 90.3255 6.70487 90.907 6.93359C91.1285 7.02076 91.3901 7.17661 91.6913 7.40114C92.0727 7.68541 92.1515 8.22507 91.8672 8.6065C91.8462 8.63478 91.8233 8.66174 91.7989 8.68722L91.451 9.05083C91.1451 9.37067 90.6464 9.40648 90.2979 9.13368Z" fill="black"/>
<path fill-rule="evenodd" clip-rule="evenodd" d="M23.3671 12.3183L21.622 10.5694C21.4837 10.4308 21.406 10.2429 21.406 10.0471V7.90644C21.406 5.92862 21.2006 5.21141 20.8146 4.48835C20.4288 3.76528 19.8625 3.19782 19.1411 2.81112C18.4195 2.42442 17.7039 2.21848 15.7303 2.21848H12.9077C12.826 2.21848 12.7598 2.15227 12.7598 2.07059C12.7598 2.03142 12.7753 1.99385 12.803 1.96612L14.5481 0.217157C14.6869 0.0781297 14.8752 0 15.0716 0H16.0521C18.6835 0 19.6378 0.274576 20.5998 0.790174C21.5618 1.30577 22.3168 2.06239 22.8312 3.02648C23.3458 3.99056 23.6198 4.94683 23.6198 7.58393V12.2138C23.6198 12.2955 23.5535 12.3617 23.4718 12.3617C23.4326 12.3617 23.3948 12.3461 23.3671 12.3183Z" fill="black"/>
<path fill-rule="evenodd" clip-rule="evenodd" d="M11.3274 23.4118L13.0726 21.6628C13.2113 21.5238 13.3996 21.4456 13.5961 21.4456H15.7305C17.7041 21.4456 18.4198 21.2397 19.1412 20.853C19.8627 20.4663 20.4289 19.8989 20.8149 19.1758C21.2007 18.4527 21.4062 17.7355 21.4062 15.7577V12.9293C21.4062 12.8476 21.4725 12.7814 21.5541 12.7814C21.5934 12.7814 21.6311 12.797 21.6588 12.8248L23.4039 14.5737C23.5422 14.7123 23.6199 14.9002 23.6199 15.096V16.0802C23.6199 18.7173 23.3459 19.6736 22.8314 20.6377C22.317 21.6017 21.5619 22.3584 20.5999 22.874C19.6379 23.3895 18.6838 23.6642 16.0523 23.6642H11.432C11.3503 23.6642 11.2842 23.5979 11.2842 23.5162C11.2842 23.4771 11.2997 23.4395 11.3274 23.4118Z" fill="black"/>
<path fill-rule="evenodd" clip-rule="evenodd" d="M0.259428 11.3456L2.00452 13.0946C2.14287 13.2332 2.22056 13.4211 2.22056 13.6169V15.7575C2.22056 17.7354 2.42605 18.4525 2.81191 19.1756C3.19778 19.8987 3.76402 20.4661 4.48552 20.8528C5.20704 21.2396 5.9227 21.4455 7.89627 21.4455H10.7189C10.8006 21.4455 10.8668 21.5117 10.8668 21.5934C10.8668 21.6325 10.8513 21.6702 10.8236 21.6978L9.0784 23.4468C8.93967 23.5858 8.75133 23.664 8.55494 23.664H7.57446C4.94303 23.664 3.98881 23.3894 3.0268 22.8738C2.06479 22.3582 1.3098 21.6016 0.795311 20.6375C0.280822 19.6734 0.00683594 18.7171 0.00683594 16.0801V11.4502C0.00683594 11.3685 0.0730527 11.3022 0.154735 11.3022C0.194016 11.3022 0.231682 11.3179 0.259428 11.3456Z" fill="black"/>
<path fill-rule="evenodd" clip-rule="evenodd" d="M12.2994 0.252368L10.5542 2.00133C10.4154 2.14036 10.2272 2.21849 10.0308 2.21849H7.89627C5.9227 2.21849 5.20703 2.42442 4.48552 2.81112C3.76402 3.19782 3.19778 3.76528 2.81191 4.48835C2.42605 5.21141 2.22056 5.92862 2.22056 7.90645V10.7348C2.22056 10.8165 2.15434 10.8828 2.07265 10.8828C2.03338 10.8828 1.99571 10.8671 1.96796 10.8394L0.222867 9.09046C0.0845285 8.95183 0.00683594 8.76398 0.00683594 8.56812V7.58394C0.00683594 4.94684 0.280822 3.99057 0.795311 3.02648C1.3098 2.0624 2.06479 1.30577 3.0268 0.790175C3.98881 0.274577 4.94303 0 7.57446 0H12.1947C12.2764 0 12.3426 0.0662168 12.3426 0.1479C12.3426 0.187069 12.3271 0.22464 12.2994 0.252368Z" fill="black"/>
<path fill-rule="evenodd" clip-rule="evenodd" d="M19.6803 8.6341L17.3006 6.35487C17.1432 6.19713 16.959 6.08247 16.7628 6.01088C16.6006 5.94941 16.4247 5.91575 16.241 5.91575H9.21674C9.13507 5.91575 9.06885 5.84954 9.06885 5.76785C9.06885 5.72866 9.08441 5.69107 9.1121 5.66335L10.8589 3.9142C10.9976 3.7753 11.1859 3.69727 11.3822 3.69727H16.9788C18.609 3.69727 19.9304 5.0216 19.9304 6.65525V8.52728C19.9304 8.60897 19.8643 8.67519 19.7826 8.67519C19.7445 8.67519 19.7078 8.66047 19.6803 8.6341Z" fill="black"/>
<path fill-rule="evenodd" clip-rule="evenodd" d="M15.0033 19.7181L17.2783 17.3325C17.4357 17.1748 17.5502 16.9903 17.6216 16.7936C17.6829 16.6309 17.7164 16.4547 17.7164 16.2706V9.23158C17.7164 9.14989 17.7827 9.08368 17.8644 9.08368C17.9037 9.08368 17.9414 9.09932 17.9691 9.12716L19.7144 10.8777C19.8526 11.0163 19.9302 11.2041 19.9302 11.3998V17.0101C19.9302 18.6438 18.6088 19.9681 16.9786 19.9681H15.1103C15.0286 19.9681 14.9624 19.9019 14.9624 19.8202C14.9624 19.7821 14.977 19.7456 15.0033 19.7181Z" fill="black"/>
<path fill-rule="evenodd" clip-rule="evenodd" d="M3.94649 15.0299L6.32619 17.3091C6.48359 17.4668 6.66771 17.5814 6.86394 17.6531C7.02619 17.7145 7.20208 17.7482 7.38583 17.7482H14.41C14.4917 17.7482 14.558 17.8144 14.558 17.8961C14.558 17.9353 14.5424 17.9728 14.5147 18.0006L12.7678 19.7497C12.6291 19.8886 12.4409 19.9667 12.2445 19.9667H6.64791C5.01778 19.9667 3.69629 18.6423 3.69629 17.0087V15.1366C3.69629 15.055 3.76251 14.9888 3.8442 14.9888C3.88232 14.9888 3.91896 15.0035 3.94649 15.0299Z" fill="black"/>
<path fill-rule="evenodd" clip-rule="evenodd" d="M8.62325 3.94723L6.34818 6.33283C6.19078 6.49057 6.07637 6.67508 6.00495 6.87174C5.94359 7.03434 5.91001 7.21062 5.91001 7.39474V14.4338C5.91001 14.5155 5.84379 14.5816 5.76211 14.5816C5.72281 14.5816 5.68512 14.566 5.65738 14.5381L3.91211 12.7877C3.7739 12.6491 3.69629 12.4613 3.69629 12.2655V6.65525C3.69629 5.0216 5.01778 3.69727 6.64791 3.69727H8.51622C8.5979 3.69727 8.66412 3.76348 8.66412 3.84516C8.66412 3.88318 8.64948 3.91973 8.62325 3.94723Z" fill="black"/>
</g>
<defs>
<clipPath id="clip0_1358_224821">
<rect width="92.16" height="24" fill="white" transform="translate(0.00683594)"/>
</clipPath>
</defs>
</svg>
