<svg width="70" height="24" viewBox="0 0 70 24" fill="none" xmlns="http://www.w3.org/2000/svg">
<g clip-path="url(#clip0_1358_224822)">
<path d="M62.9386 9.75715C63.7749 9.75715 64.4529 9.07918 64.4529 8.24286C64.4529 7.40653 63.7749 6.72858 62.9386 6.72858C62.1023 6.72858 61.4243 7.40653 61.4243 8.24286C61.4243 9.07918 62.1023 9.75715 62.9386 9.75715Z" fill="black"/>
<path d="M41.3098 14.7C42.0527 14.7 42.4812 14.1428 42.4527 13.6C42.4384 13.3143 42.4098 13.1286 42.3812 12.9857C41.9241 11.0143 40.3241 9.55713 38.4241 9.55713C36.1669 9.55713 34.3384 11.6 34.3384 14.1143C34.3384 16.6286 36.1669 18.6714 38.4241 18.6714C39.8384 18.6714 40.8527 18.1571 41.5812 17.3429C41.9384 16.9429 41.867 16.3286 41.4384 16.0286C41.0812 15.7857 40.6384 15.8714 40.3098 16.1429C39.9955 16.4143 39.3955 16.9571 38.4241 16.9571C37.2812 16.9571 36.3098 15.9714 36.0955 14.6714H41.3098V14.7ZM38.4098 11.2857C39.4384 11.2857 40.3241 12.0857 40.6527 13.1857H36.167C36.4955 12.0714 37.3812 11.2857 38.4098 11.2857Z" fill="black"/>
<path d="M34.2057 10.6239C34.2057 10.1953 33.8914 9.85247 33.4914 9.78104C32.2486 9.59532 31.0771 10.0525 30.4057 10.8953V10.781C30.4057 10.2525 29.9771 9.9239 29.5485 9.9239C29.0771 9.9239 28.6914 10.3096 28.6914 10.781V17.7811C28.6914 18.2382 29.0343 18.6382 29.4914 18.6668C29.9914 18.6954 30.4057 18.3096 30.4057 17.8096V14.1953C30.4057 12.5953 31.6057 11.281 33.2628 11.4668C33.32 11.4668 33.3771 11.4668 33.4343 11.4668C33.8628 11.4382 34.2057 11.0668 34.2057 10.6239Z" fill="black"/>
<path d="M63.7953 11.3714C63.7953 10.9 63.4096 10.5143 62.9382 10.5143C62.4668 10.5143 62.0811 10.9 62.0811 11.3714C62.0811 11.4 62.0811 17.3714 62.0811 17.6429C62.0811 18.1143 62.4668 18.5 62.9382 18.5C63.4096 18.5 63.7953 18.1143 63.7953 17.6429C63.7953 17.3857 63.7953 11.4143 63.7953 11.3714Z" fill="black"/>
<path d="M51.0526 6.62857C51.0526 6.15714 50.6669 5.77142 50.1955 5.77142C49.724 5.77142 49.3383 6.15714 49.3383 6.62857V10.4429C48.7526 9.85714 48.024 9.57142 47.1526 9.57142C44.8955 9.57142 43.0669 11.6143 43.0669 14.1286C43.0669 16.6429 44.8955 18.6857 47.1526 18.6857C48.024 18.6857 48.7669 18.3857 49.3526 17.8C49.424 18.2 49.7812 18.5 50.1955 18.5C50.6669 18.5 51.0526 18.1143 51.0526 17.6429V6.62857ZM47.1669 16.9857C45.8526 16.9857 44.7955 15.7143 44.7955 14.1286C44.7955 12.5571 45.8526 11.2714 47.1669 11.2714C48.4812 11.2714 49.5383 12.5429 49.5383 14.1286C49.5383 15.7143 48.4669 16.9857 47.1669 16.9857Z" fill="black"/>
<path d="M59.9955 6.62857C59.9955 6.15714 59.6098 5.77142 59.1383 5.77142C58.6669 5.77142 58.2812 6.15714 58.2812 6.62857V10.4429C57.6955 9.85714 56.9669 9.57142 56.0955 9.57142C53.8383 9.57142 52.0098 11.6143 52.0098 14.1286C52.0098 16.6429 53.8383 18.6857 56.0955 18.6857C56.9669 18.6857 57.7098 18.3857 58.2955 17.8C58.3669 18.2 58.7241 18.5 59.1383 18.5C59.6098 18.5 59.9955 18.1143 59.9955 17.6429V6.62857ZM56.0955 16.9857C54.7812 16.9857 53.7241 15.7143 53.7241 14.1286C53.7241 12.5571 54.7812 11.2714 56.0955 11.2714C57.4098 11.2714 58.4669 12.5429 58.4669 14.1286C58.4669 15.7143 57.4098 16.9857 56.0955 16.9857Z" fill="black"/>
<path d="M68.1383 17.6571V11.2857H68.8954C69.2954 11.2857 69.6525 10.9857 69.6811 10.5714C69.7097 10.1286 69.3525 9.75713 68.924 9.75713H68.1383V8.55713C68.1383 8.09998 67.7954 7.69998 67.3383 7.67141C66.8383 7.64284 66.424 8.02856 66.424 8.52856V9.77141H65.7097C65.3097 9.77141 64.9525 10.0714 64.924 10.4857C64.8954 10.9286 65.2525 11.3 65.6811 11.3H66.4097V17.6714C66.4097 18.1429 66.7954 18.5286 67.2668 18.5286C67.7668 18.5 68.1383 18.1286 68.1383 17.6571Z" fill="black"/>
<path d="M12.1384 23.9429C18.75 23.9429 24.1099 18.583 24.1099 11.9714C24.1099 5.35979 18.75 0 12.1384 0C5.52678 0 0.166992 5.35979 0.166992 11.9714C0.166992 18.583 5.52678 23.9429 12.1384 23.9429Z" fill="black"/>
<path d="M20.124 11.9714C20.124 11 19.3383 10.2286 18.3811 10.2286C17.9097 10.2286 17.4811 10.4143 17.1669 10.7143C15.9669 9.85714 14.324 9.3 12.4954 9.22857L13.2954 5.48572L15.8954 6.04286C15.924 6.7 16.4669 7.22857 17.1383 7.22857C17.824 7.22857 18.3811 6.67143 18.3811 5.98572C18.3811 5.3 17.824 4.74286 17.1383 4.74286C16.6526 4.74286 16.224 5.02857 16.024 5.44286L13.124 4.82857C13.0383 4.81429 12.9526 4.82857 12.8954 4.87143C12.824 4.91429 12.7812 4.98572 12.7669 5.07143L11.8812 9.24286C10.024 9.3 8.35258 9.85714 7.13829 10.7286C6.82401 10.4286 6.39544 10.2429 5.92401 10.2429C4.95258 10.2429 4.18115 11.0286 4.18115 11.9857C4.18115 12.7 4.60972 13.3 5.20972 13.5714C5.18115 13.7429 5.16687 13.9143 5.16687 14.1C5.16687 16.7857 8.29544 18.9714 12.1526 18.9714C16.0097 18.9714 19.1383 16.8 19.1383 14.1C19.1383 13.9286 19.124 13.7429 19.0954 13.5714C19.6954 13.3 20.124 12.6857 20.124 11.9714ZM8.15258 13.2143C8.15258 12.5286 8.70972 11.9714 9.39544 11.9714C10.0812 11.9714 10.6383 12.5286 10.6383 13.2143C10.6383 13.9 10.0812 14.4571 9.39544 14.4571C8.70972 14.4714 8.15258 13.9 8.15258 13.2143ZM15.1097 16.5143C14.2526 17.3714 12.624 17.4286 12.1526 17.4286C11.6669 17.4286 10.0383 17.3571 9.19544 16.5143C9.06687 16.3857 9.06687 16.1857 9.19544 16.0571C9.32401 15.9286 9.52401 15.9286 9.65258 16.0571C10.1954 16.6 11.3383 16.7857 12.1526 16.7857C12.9669 16.7857 14.124 16.6 14.6526 16.0571C14.7811 15.9286 14.9811 15.9286 15.1097 16.0571C15.224 16.1857 15.224 16.3857 15.1097 16.5143ZM14.8811 14.4714C14.1954 14.4714 13.6383 13.9143 13.6383 13.2286C13.6383 12.5429 14.1954 11.9857 14.8811 11.9857C15.5669 11.9857 16.124 12.5429 16.124 13.2286C16.124 13.9 15.5669 14.4714 14.8811 14.4714Z" fill="white"/>
</g>
<defs>
<clipPath id="clip0_1358_224822">
<rect width="69.5714" height="24" fill="white" transform="translate(0.166992)"/>
</clipPath>
</defs>
</svg>
