<svg width="106" height="24" viewBox="0 0 106 24" fill="none" xmlns="http://www.w3.org/2000/svg">
<g clip-path="url(#clip0_1358_224823)">
<path fill-rule="evenodd" clip-rule="evenodd" d="M0.942714 16.4879C0.855395 16.7156 0.973862 16.7631 1.00195 16.8034C1.26288 16.9924 1.5279 17.1292 1.79344 17.2829C3.21301 18.0336 4.55088 18.2531 5.95004 18.2531C8.7994 18.2531 10.5713 16.7365 10.5713 14.2957V14.2477C10.5713 11.9907 8.56962 11.1686 6.70068 10.5813L6.45608 10.5022C5.04161 10.0436 3.82118 9.64429 3.82118 8.71493V8.66744C3.82118 7.87085 4.53607 7.28361 5.63905 7.28361C6.8646 7.28361 8.32502 7.69161 9.25949 8.20787C9.25949 8.20787 9.53625 8.38659 9.63685 8.11953C9.69149 7.97502 10.1679 6.69996 10.219 6.55698C10.2731 6.40736 10.1781 6.29451 10.0806 6.2363C9.00826 5.58268 7.5274 5.13842 5.99549 5.13842L5.71105 5.13944C3.10169 5.13944 1.27871 6.71732 1.27871 8.97434V9.02285C1.27871 11.4024 3.29063 12.1786 5.16978 12.7148L5.47207 12.8087C6.8406 13.2295 8.02528 13.5951 8.02528 14.5551V14.6031C8.02528 15.4865 7.25421 16.1452 6.01847 16.1452C5.53795 16.1452 4.00654 16.1371 2.34697 15.0882C2.14629 14.9713 2.0319 14.887 1.87718 14.7926C1.79548 14.743 1.59122 14.6537 1.50237 14.9212L0.940671 16.4838L0.942714 16.4879ZM42.6598 16.4838C42.5725 16.7115 42.691 16.759 42.7201 16.7994C42.98 16.9883 43.246 17.1251 43.5116 17.2788C44.9311 18.0295 46.269 18.2491 47.6682 18.2491C50.5175 18.2491 52.2894 16.7325 52.2894 14.2916V14.2436C52.2894 11.9866 50.2928 11.1645 48.4188 10.5772L48.1742 10.4981C46.7597 10.0395 45.5393 9.64021 45.5393 8.71085V8.66336C45.5393 7.86676 46.2542 7.27953 47.3572 7.27953C48.5827 7.27953 50.038 7.68753 50.9776 8.20378C50.9776 8.20378 51.2544 8.38251 51.3555 8.11544C51.4096 7.97093 51.8865 6.69587 51.9325 6.55289C51.9871 6.40327 51.8917 6.29042 51.7946 6.23221C50.7223 5.57859 49.2414 5.13434 47.7095 5.13434L47.4246 5.13536C44.8152 5.13536 42.9923 6.71323 42.9923 8.97025V9.01876C42.9923 11.3983 45.0042 12.1745 46.8833 12.7107L47.1851 12.8046C48.5587 13.2254 49.7383 13.591 49.7383 14.551V14.599C49.7383 15.4824 48.9672 16.1411 47.7315 16.1411C47.25 16.1411 45.7145 16.133 44.06 15.0841C43.8593 14.9672 43.7419 14.8865 43.5897 14.7885C43.5381 14.7558 43.2976 14.6618 43.2154 14.9171L42.6537 16.4797L42.6598 16.4838ZM71.1473 11.7001C71.1473 13.0788 70.8899 14.1665 70.3865 14.9376C69.884 15.6984 69.1252 16.0712 68.0682 16.0712C67.0111 16.0712 66.2554 15.7015 65.7601 14.9427C65.2612 14.1767 65.0094 13.084 65.0094 11.7052C65.0094 10.3265 65.2627 9.24395 65.7601 8.4831C66.2544 7.72736 67.006 7.36481 68.0682 7.36481C69.1303 7.36481 69.886 7.73093 70.3865 8.4831C70.893 9.24395 71.1473 10.3265 71.1473 11.7052V11.7001ZM73.5269 9.14693C73.2925 8.35544 72.9294 7.66098 72.4443 7.07885C71.9587 6.49672 71.3465 6.02693 70.6162 5.68991C69.8911 5.35034 69.0333 5.17927 68.063 5.17927C67.0928 5.17927 66.2401 5.35136 65.5099 5.68991C64.7848 6.02898 64.1669 6.49672 63.6818 7.07885C63.1977 7.66098 62.8341 8.35544 62.5992 9.14693C62.3669 9.93332 62.2489 10.7912 62.2489 11.7052C62.2489 12.6193 62.3669 13.4771 62.5992 14.2635C62.8326 15.055 63.1967 15.7495 63.6818 16.3316C64.1674 16.9137 64.7848 17.3784 65.5099 17.7103C66.2401 18.0412 67.0979 18.2097 68.063 18.2097C69.0282 18.2097 69.886 18.0412 70.6111 17.7103C71.3363 17.3794 71.9541 16.9137 72.4392 16.3316C72.9238 15.7495 73.2869 15.055 73.5218 14.2635C73.7536 13.4771 73.8716 12.6193 73.8716 11.7052C73.8716 10.7963 73.7536 9.93332 73.5218 9.14693H73.5269ZM93.0792 15.6831C93.0011 15.4518 92.7754 15.5391 92.7754 15.5391C92.4297 15.6714 92.0605 15.7939 91.6673 15.8552C91.2711 15.9175 90.8299 15.9486 90.3652 15.9486C89.2162 15.9486 88.2971 15.606 87.6435 14.9274C86.9848 14.2482 86.6171 13.1554 86.6222 11.6746C86.6258 10.3265 86.9516 9.31544 87.5362 8.53927C88.1133 7.77332 89.0018 7.37502 90.1762 7.37502C91.1567 7.37502 91.9073 7.48889 92.6937 7.73502C92.6937 7.73502 92.8801 7.81621 92.9694 7.57059C93.1783 6.99357 93.3325 6.57996 93.5567 5.94676C93.62 5.76549 93.4648 5.68889 93.4081 5.66693C93.0996 5.54642 92.3715 5.34881 91.82 5.26557C91.3042 5.18693 90.7068 5.14608 90.0328 5.14608C89.0319 5.14608 88.1434 5.31715 87.3825 5.65621C86.6217 5.99476 85.9783 6.46302 85.4676 7.04515C84.957 7.62727 84.5689 8.32174 84.3085 9.11323C84.0506 9.89961 83.9204 10.7626 83.9204 11.6766C83.9204 13.6477 84.4515 15.246 85.5034 16.4154C86.5553 17.5898 88.1383 18.1822 90.2013 18.1822C91.4217 18.1822 92.6728 17.9355 93.5715 17.5796C93.5715 17.5796 93.7431 17.4969 93.6685 17.2967L93.0813 15.6831H93.0792ZM97.243 10.3725C97.3568 9.60651 97.5667 8.96821 97.8966 8.47289C98.3904 7.71715 99.1425 7.30353 100.2 7.30353C101.257 7.30353 101.956 7.71919 102.457 8.47289C102.788 8.97076 102.934 9.63204 102.988 10.3725L97.2174 10.3714L97.243 10.3725ZM105.26 8.68736C105.057 7.92651 104.555 7.15544 104.229 6.8031C103.708 6.24651 103.202 5.85332 102.697 5.63885C101.967 5.32848 101.182 5.16922 100.388 5.17059C99.3825 5.17059 98.4685 5.34064 97.7281 5.68634C96.9876 6.03459 96.3647 6.50847 95.8745 7.10081C95.3848 7.69315 95.0166 8.39272 94.7817 9.19442C94.5468 9.98591 94.4283 10.854 94.4283 11.7629C94.4283 12.6923 94.5514 13.5553 94.7934 14.3365C95.038 15.1229 95.4317 15.8123 95.9628 16.3842C96.4939 16.9612 97.173 17.4106 97.99 17.7272C98.8019 18.0412 99.7875 18.2041 100.916 18.2005C103.244 18.1929 104.47 17.6746 104.97 17.3937C105.06 17.3437 105.144 17.2574 105.039 17.0087L104.513 15.533C104.432 15.3129 104.21 15.3925 104.21 15.3925C103.633 15.608 102.816 15.9951 100.901 15.99C99.6496 15.988 98.7254 15.6188 98.1432 15.0402C97.5509 14.4479 97.2547 13.5849 97.2088 12.3594L105.277 12.3655C105.277 12.3655 105.489 12.3634 105.511 12.1561C105.52 12.0703 105.787 10.5017 105.271 8.68889L105.26 8.68736ZM32.7494 10.3725C32.8632 9.60651 33.0736 8.96821 33.403 8.47289C33.8973 7.71715 34.6489 7.30353 35.706 7.30353C36.763 7.30353 37.4626 7.71919 37.963 8.47289C38.2944 8.97076 38.4394 9.63204 38.494 10.3725L32.7238 10.3714L32.7494 10.3725ZM40.7664 8.68736C40.5642 7.92651 40.0617 7.15544 39.7349 6.8031C39.214 6.24651 38.7085 5.85332 38.203 5.63885C37.4731 5.32848 36.688 5.16922 35.8949 5.17059C34.8889 5.17059 33.9749 5.34064 33.2345 5.68634C32.494 6.03459 31.8711 6.50847 31.3808 7.10081C30.8922 7.69315 30.523 8.39272 30.2881 9.19442C30.0537 9.98591 29.9357 10.854 29.9357 11.7629C29.9357 12.6923 30.0578 13.5553 30.3014 14.3365C30.5454 15.1229 30.9397 15.8123 31.4656 16.3842C31.9967 16.9612 32.6758 17.4106 33.4928 17.7272C34.3048 18.0412 35.2852 18.2041 36.4188 18.2005C38.7473 18.1929 39.9728 17.6746 40.4733 17.3937C40.5621 17.3437 40.6469 17.2574 40.5412 17.0087L40.0152 15.533C39.934 15.3129 39.7114 15.3925 39.7114 15.3925C39.1344 15.608 38.3174 15.9951 36.4025 15.99C35.1565 15.988 34.2271 15.6188 33.645 15.0402C33.0527 14.4479 32.7565 13.5849 32.7105 12.3594L40.7786 12.3655C40.7786 12.3655 40.9911 12.3634 41.013 12.1561C41.0217 12.0703 41.2893 10.5017 40.772 8.68889L40.7664 8.68736ZM15.3366 15.632C15.0205 15.3798 14.9766 15.318 14.8719 15.1541C14.7121 14.9074 14.6304 14.5566 14.6304 14.1073C14.6304 13.4026 14.8653 12.892 15.3504 12.5498C15.3453 12.5508 16.0448 11.9473 17.6891 11.9677C18.421 11.9808 19.1511 12.0431 19.8746 12.1541V15.8154H19.8757C19.8757 15.8154 18.8544 16.0354 17.7003 16.1049C16.0612 16.2034 15.3361 15.6331 15.3412 15.6346L15.3366 15.632ZM18.5434 9.96395C18.2166 9.93995 17.7928 9.92821 17.2872 9.92821C16.5979 9.92821 15.9289 10.014 15.306 10.1825C14.6779 10.352 14.1111 10.6145 13.626 10.9638C13.1395 11.3108 12.7394 11.7651 12.4566 12.2914C12.1711 12.8225 12.0256 13.4455 12.0256 14.1502C12.0256 14.8651 12.1497 15.4829 12.3948 15.9885C12.635 16.4899 12.9965 16.9234 13.4467 17.2497C13.8946 17.5755 14.4476 17.8165 15.0859 17.9595C15.7191 18.104 16.434 18.1771 17.2203 18.1771C18.0476 18.1771 18.8697 18.1076 19.6663 17.9733C20.3447 17.8563 21.0207 17.7248 21.6935 17.5791C21.9621 17.5173 22.2603 17.4361 22.2603 17.4361C22.4595 17.3856 22.4442 17.1726 22.4442 17.1726L22.4396 9.81944C22.4396 8.20583 22.0086 7.00583 21.1579 6.2654C20.3102 5.52498 19.0694 5.15221 17.4608 5.15221C16.8583 5.15221 15.883 5.23391 15.3008 5.35085C15.3008 5.35085 13.5443 5.69196 12.8191 6.25979C12.8191 6.25979 12.6598 6.35783 12.7466 6.57996L13.3186 8.11187C13.3895 8.31051 13.5831 8.24259 13.5831 8.24259C13.5831 8.24259 13.6438 8.21859 13.7153 8.17621C15.2626 7.33366 17.2234 7.35919 17.2234 7.35919C18.0915 7.35919 18.7655 7.53536 19.2149 7.88004C19.6546 8.21757 19.8787 8.7277 19.8787 9.80004V10.1406C19.1894 10.0405 18.5511 9.98285 18.5511 9.98285L18.5434 9.96395ZM83.3945 5.81247C83.4062 5.7855 83.4123 5.75655 83.4123 5.72724C83.4123 5.69788 83.4067 5.66882 83.3955 5.64176C83.3842 5.6147 83.3674 5.59019 83.3465 5.56971C83.3255 5.54918 83.3005 5.5331 83.2734 5.52242C83.1361 5.47034 82.4513 5.32583 81.9254 5.29315C80.9143 5.22983 80.3526 5.40038 79.8471 5.6271C79.3477 5.8523 78.7951 6.21434 78.4888 6.63306L78.4877 5.65264C78.4877 5.51783 78.3922 5.40906 78.2564 5.40906H76.1934C76.0597 5.40906 75.9626 5.51783 75.9626 5.65264V17.6526C75.9626 17.7174 75.9887 17.7796 76.0346 17.8254C76.0801 17.8713 76.1424 17.8971 76.2072 17.8972H78.3213C78.3861 17.8971 78.4479 17.8712 78.4939 17.8254C78.5398 17.7795 78.5654 17.7174 78.5654 17.6526V11.6271C78.5654 10.8203 78.6542 10.0186 78.8314 9.51306C79.006 9.01315 79.2435 8.61434 79.5361 8.32838C79.8154 8.05218 80.1565 7.84726 80.5318 7.73093C80.8836 7.62993 81.2482 7.57871 81.6144 7.57876C82.0357 7.57876 82.4978 7.68702 82.4978 7.68702C82.653 7.70438 82.7393 7.6094 82.7919 7.46949C82.9303 7.10132 83.323 5.99885 83.3996 5.77927" fill="black"/>
<path fill-rule="evenodd" clip-rule="evenodd" d="M63.6492 0.274067C63.3878 0.195096 63.1222 0.132005 62.8531 0.0851336C62.4916 0.0247529 62.1249 -0.00361245 61.7583 0.000367334C60.3015 0.000367334 59.153 0.411943 58.3467 1.22488C57.5461 2.03169 57.0012 3.26079 56.728 4.87798L56.6295 5.42385H54.8009C54.8009 5.42385 54.5777 5.41466 54.5307 5.65823L54.2305 7.33312C54.2095 7.49346 54.2785 7.59355 54.4929 7.59253H56.273L54.4669 17.6741C54.3255 18.486 54.1636 19.1539 53.9844 19.6599C53.8077 20.1593 53.6351 20.5336 53.4227 20.8053C53.2169 21.0683 53.0218 21.2618 52.6853 21.3747C52.4075 21.4681 52.0878 21.511 51.7376 21.511C51.5426 21.511 51.2832 21.4783 51.0917 21.44C50.9002 21.4022 50.8006 21.3593 50.6571 21.2991C50.6571 21.2991 50.4483 21.2194 50.3661 21.4288C50.2992 21.5998 49.8248 22.9045 49.7686 23.0659C49.7114 23.2252 49.7916 23.3508 49.8927 23.3871C50.1296 23.4718 50.3058 23.526 50.6285 23.6021C51.0769 23.7078 51.4548 23.7144 51.8085 23.7144C52.55 23.7144 53.2255 23.6102 53.7857 23.408C54.3495 23.2043 54.8402 22.8494 55.2742 22.3689C55.7435 21.8506 56.0386 21.3078 56.321 20.5673C56.6004 19.8335 56.8383 18.9226 57.0288 17.861L58.8436 7.59253H61.4969C61.4969 7.59253 61.7205 7.6007 61.767 7.35814L62.0672 5.68325C62.0882 5.52291 62.0198 5.42283 61.8043 5.42385H59.2291C59.2419 5.36563 59.3588 4.45977 59.6545 3.60701C59.7806 3.24292 60.0181 2.9493 60.2192 2.7476C60.4072 2.5555 60.6385 2.41151 60.8938 2.32786C61.1736 2.24133 61.4657 2.19928 61.7583 2.20326C62.0009 2.20326 62.2388 2.23237 62.4201 2.27015C62.6698 2.32326 62.7668 2.35135 62.8322 2.37075C63.0947 2.45092 63.1299 2.3733 63.1815 2.24615L63.7973 0.554921C63.8606 0.373133 63.7064 0.296535 63.6492 0.274067ZM27.6626 17.6955C27.6626 17.8303 27.5666 17.9401 27.4318 17.9401H25.2958C25.1605 17.9401 25.0645 17.8303 25.0645 17.6955V0.503346C25.0645 0.369049 25.1605 0.260284 25.2958 0.260284H27.4318C27.5666 0.260284 27.6626 0.369049 27.6626 0.503346V17.6955Z" fill="black"/>
</g>
<defs>
<clipPath id="clip0_1358_224823">
<rect width="105.191" height="24" fill="white" transform="translate(0.738281)"/>
</clipPath>
</defs>
</svg>
