<svg width="97" height="24" viewBox="0 0 97 24" fill="none" xmlns="http://www.w3.org/2000/svg">
<g clip-path="url(#clip0_1358_224824)">
<path d="M31.7799 19.6511C29.9731 19.5479 27.7034 18.3244 26.7925 17.4103L28.7935 14.8894C29.2863 15.4348 31.6455 16.7764 33.2583 16.4816C33.6912 16.3932 34.184 16.0245 34.184 15.4496C34.2139 15.0663 33.8854 14.7125 33.6016 14.5798C33.3328 14.3882 32.4817 14.3588 31.9293 14.3292C31.3021 14.2997 30.5854 14.226 29.8238 13.9164C28.4201 13.2383 27.4346 11.8379 27.3898 10.3489C27.3898 8.59459 28.1065 7.62161 28.8383 7.0172C30.3166 5.88206 32.3772 5.77887 33.7958 6.14742C34.9157 6.41277 36.1551 7.0172 36.8868 7.71007L35.0501 10.2457C34.7813 10.054 33.4822 9.46435 32.9895 9.33173C32.2279 9.11057 31.2573 9.22853 30.8242 9.49386C30.6898 9.56755 30.4958 9.87715 30.5555 10.2457C30.5555 10.511 30.8093 10.8943 30.9885 10.9975C31.3767 11.1892 31.7351 11.2924 32.2428 11.3219C32.9596 11.3219 34.1542 11.3219 35.065 11.7494C36.5732 12.5602 37.4542 13.946 37.3347 15.538C37.2451 16.9238 36.2895 18.2653 35.0351 18.914C34.1094 19.5184 32.8551 19.7396 31.7799 19.6511Z" fill="black"/>
<path d="M45.0996 19.5184C43.3227 19.5184 41.6502 18.8403 40.366 17.6315C39.052 16.3932 38.3054 14.7125 38.2905 12.8993C38.2606 11.086 38.9475 9.39067 40.2018 8.07863C41.4561 6.81082 43.1584 6.04423 44.9951 6.02949C46.8317 6 48.534 6.67814 49.8481 7.91646L47.5784 10.2457C46.9213 9.62658 46.0404 9.27271 45.1146 9.27271H45.0548C44.0991 9.27271 43.2181 9.656 42.5612 10.3341C41.9041 11.0123 41.5457 11.8968 41.5756 12.855C41.5756 13.7985 41.9638 14.6683 42.6507 15.317C43.3376 15.9656 44.2335 16.3194 45.2042 16.29C46.0852 16.29 46.9064 15.9361 47.5635 15.3464L49.7884 17.7199C48.549 18.855 46.9363 19.5036 45.2638 19.5332H45.0996V19.5184Z" fill="black"/>
<path d="M63.5413 6.07368V19.5479H60.8087V18.3242C59.6888 19.0762 58.3449 19.5479 56.8964 19.5479C53.1186 19.5479 50.0425 16.4962 50.0425 12.7813C50.0425 9.05154 53.1036 6.01471 56.8964 6.01471C58.3449 6.01471 59.6888 6.47171 60.8087 7.2383V6.07368H63.5413ZM60.4354 12.7813C60.4354 10.8354 58.8525 9.27269 56.8666 9.27269C54.9253 9.27269 53.3275 10.8354 53.3275 12.7813C53.3275 14.6978 54.9104 16.2752 56.8666 16.2752C58.8525 16.2752 60.4354 14.6978 60.4354 12.7813Z" fill="black"/>
<path d="M79.2798 13.0467C79.2798 16.7469 76.2335 19.7543 72.5154 19.7543C71.1118 19.7543 69.8276 19.3268 68.7674 18.6192V24H65.5122V6.16217H68.7674V7.51844C69.8425 6.78133 71.1267 6.38331 72.5154 6.38331C76.2485 6.36856 79.2798 9.37592 79.2798 13.0467ZM76.0246 13.0467C76.0246 11.1302 74.4567 9.58232 72.5154 9.58232C70.5743 9.58232 68.9765 11.1302 68.9765 13.0467C68.9765 14.9631 70.5593 16.5405 72.5154 16.5405C74.4567 16.5405 76.0246 14.9779 76.0246 13.0467Z" fill="black"/>
<path d="M82.2364 4.55528C81.012 4.55528 80.0264 3.58231 80.0264 2.32924V2.18182C80.0264 0.972969 81.012 0 82.2364 0C83.4907 0 84.521 0.972969 84.521 2.18182V2.32924C84.521 3.56756 83.4907 4.55528 82.2364 4.55528ZM83.9387 19.4595H80.7133V6.02949H83.9387V19.4595Z" fill="black"/>
<path d="M92.1813 19.5184C90.4044 19.5184 88.7319 18.8403 87.4477 17.6315C86.1336 16.3932 85.387 14.7125 85.372 12.8993C85.3422 11.086 86.0291 9.39067 87.2834 8.07863C88.5377 6.81082 90.2399 6.04423 92.0764 6.02949C93.9137 6 95.6159 6.67814 96.9297 7.91646L94.6604 10.2457C94.0026 9.62658 93.1217 9.27271 92.1964 9.27271H92.1368C91.1804 9.27271 90.2995 9.656 89.6427 10.3341C88.9857 11.0123 88.6273 11.8968 88.6572 12.855C88.6572 13.7985 89.0455 14.6683 89.7323 15.317C90.4195 15.9656 91.3155 16.3194 92.2862 16.29C93.1671 16.29 93.9884 15.9361 94.6453 15.3464L96.8702 17.7199C95.6302 18.855 94.0177 19.5036 92.3457 19.5332H92.1813V19.5184Z" fill="black"/>
<path d="M11.5768 17.8526C11.308 17.8821 11.2333 17.5135 11.4872 17.4399C11.5021 17.4399 11.5021 17.4399 11.5171 17.4251C16.818 15.9509 20.7004 13.2826 20.1927 11.4693C19.67 9.65603 14.9515 9.37594 9.65049 10.8502C4.34951 12.3243 0.467104 14.9927 0.974803 16.8059C2.46804 22.0393 7.97806 25.1056 13.279 23.6315C17.5945 22.4374 20.4466 18.6045 20.5511 14.403C16.7135 17.6609 11.5768 17.8526 11.5768 17.8526Z" fill="black"/>
<path d="M16.833 4.48154C15.9071 1.22356 12.4727 -0.678163 9.15772 0.235843C6.64909 0.943455 4.91693 3.08106 4.66309 5.51348C5.11105 5.21865 7.09706 4.03929 10.1134 3.84763C10.1881 3.84763 10.2329 3.8329 10.2329 3.8329C10.3971 3.80341 10.4419 4.05402 10.2925 4.09826H10.2776C6.96267 5.01226 4.54363 6.6781 4.8572 7.81324C5.18572 8.94834 8.11245 9.11056 11.4275 8.19653C14.7424 7.26779 17.1614 5.61668 16.833 4.48154Z" fill="black"/>
</g>
<defs>
<clipPath id="clip0_1358_224824">
<rect width="96" height="24" fill="white" transform="translate(0.929688)"/>
</clipPath>
</defs>
</svg>
