<svg width="87" height="24" viewBox="0 0 87 24" fill="none" xmlns="http://www.w3.org/2000/svg">
<path fill-rule="evenodd" clip-rule="evenodd" d="M44.7839 17.71C45.6158 17.7535 46.4458 17.5932 47.2014 17.2429C47.957 16.8925 48.6154 16.3628 49.1189 15.6999L47.4971 14.1799C47.2122 14.6058 46.8241 14.9528 46.3691 15.1888C45.914 15.4248 45.4066 15.5422 44.894 15.5299C42.8615 15.5299 41.4799 13.9699 41.4799 11.7599C41.4799 9.55995 42.8615 8.01994 44.894 8.01994C45.4025 7.99853 45.9084 8.1066 46.3636 8.33401C46.819 8.5614 47.209 8.90067 47.4971 9.31995L49.1189 7.84995C48.6179 7.18498 47.9598 6.65432 47.2033 6.30533C46.4468 5.95633 45.6156 5.79988 44.7839 5.84995C41.3598 5.84995 38.9468 8.34994 38.9468 11.7599C38.9468 15.18 41.3497 17.71 44.7839 17.71ZM53.4341 17.4299V9.72994C53.9348 8.90995 55.3064 8.20995 56.3677 8.20995C56.6681 8.20995 56.9083 8.22994 57.1186 8.27995V5.83995C56.4012 5.87115 55.6994 6.05928 55.0628 6.39104C54.4262 6.72279 53.8702 7.1901 53.4341 7.75995V6.11995H50.9713V17.4299H53.4341ZM60.022 4.73995C60.4257 4.73995 60.8128 4.5798 61.0982 4.29475C61.3836 4.00969 61.5439 3.62307 61.5439 3.21994C61.5439 2.81682 61.3836 2.43019 61.0982 2.14514C60.8128 1.86008 60.4257 1.69995 60.022 1.69995C59.6184 1.69995 59.2314 1.86008 58.946 2.14514C58.6605 2.43019 58.5002 2.81682 58.5002 3.21994C58.5002 3.62307 58.6605 4.00969 58.946 4.29475C59.2314 4.5798 59.6184 4.73995 60.022 4.73995ZM61.2435 17.4399V6.10995H58.7705V17.4199L61.2435 17.4399ZM68.0016 17.71C71.0453 17.71 72.7072 16.1899 72.7072 14.1799C72.7072 9.67995 65.8591 11.18 65.8591 9.17995C65.8591 8.38995 66.66 7.77994 67.9515 7.77994C69.3832 7.77994 70.6248 8.38995 71.3056 9.13995L72.3368 7.40995C71.121 6.36074 69.5578 5.80107 67.9515 5.83995C65.0881 5.83995 63.4962 7.40995 63.4962 9.25995C63.4962 13.61 70.3445 12.0199 70.3445 14.2499C70.3445 15.1399 69.5635 15.7499 68.0917 15.7499C66.6671 15.713 65.306 15.1542 64.2671 14.1799L63.1458 15.9299C64.4698 17.1335 66.2124 17.7723 68.0016 17.71ZM80.9371 17.71C79.5054 17.71 78.2439 17.0599 77.3027 15.8599V21.7399H74.8498V6.11995H77.3027V7.66995C77.7229 7.10205 78.2705 6.64061 78.9018 6.32276C79.533 6.00491 80.2301 5.83953 80.9371 5.83995C83.8706 5.83995 85.9531 8.03995 85.9531 11.7599C85.9531 15.49 83.8706 17.71 80.9471 17.71H80.9371ZM80.2163 15.5299C82.1585 15.5299 83.42 13.9699 83.42 11.7599C83.42 9.55995 82.1585 8.01994 80.2163 8.01994C79.0649 8.01994 77.8734 8.66995 77.3128 9.51994V13.99C77.6449 14.453 78.0798 14.8331 78.5835 15.1003C79.0873 15.3675 79.6461 15.5145 80.2163 15.5299Z" fill="black"/>
<path fill-rule="evenodd" clip-rule="evenodd" d="M11.5838 18.99L16.2194 23.91L19.8438 18.0701L29.4553 17.02L27.9033 0.160034L0.140137 3.22003L1.702 20.08L11.5838 18.99Z" fill="black"/>
</svg>
