<svg width="170" height="24" viewBox="0 0 170 24" fill="none" xmlns="http://www.w3.org/2000/svg">
<path d="M36.2543 7.55083C34.5421 7.55083 33.4473 8.11224 33.4473 9.12277C33.4473 10.1333 34.5982 10.5824 36.3105 10.7508C38.7526 10.9473 41.8964 11.3684 41.8964 14.6526C41.8964 17.0105 39.6789 18.6666 36.2824 18.6666C34.1491 18.6666 32.0719 18.1894 30.2754 16.3087L31.707 14.428C32.914 15.635 34.5421 16.3087 36.2543 16.3087C37.714 16.3087 39.1736 15.8596 39.1736 14.6807C39.1736 13.5017 38.0508 13.1087 36.0859 12.9403C33.6157 12.7438 30.7245 12.014 30.7245 9.17891C30.7245 6.37189 33.7561 5.30522 36.1982 5.30522C38.0228 5.27715 39.8193 5.86662 41.2789 6.98943L39.8473 8.67364C38.8087 7.91575 37.5456 7.52276 36.2543 7.55083ZM51.0192 16.1965C52.3947 16.1965 54.0228 15.7193 54.8368 14.821L56.6333 16.5052C55.2578 17.9649 52.9842 18.6666 50.9631 18.6666C46.6403 18.6666 43.8614 16.0561 43.8614 11.9859C43.8614 8.11224 46.7526 5.30522 50.907 5.30522C54.7807 5.30522 57.4473 7.49469 57.4473 11.8736C57.4473 12.2386 57.4193 12.6315 57.3912 12.9964H46.7245C46.9491 15.0175 48.5771 16.1965 51.0192 16.1965ZM50.907 7.69118C48.914 7.69118 47.1736 8.75785 46.7526 10.807H54.7526C54.5842 8.78592 53.2087 7.69118 50.907 7.69118ZM70.2192 11.228C70.2192 9.03856 68.928 7.7754 66.6543 7.7754C65.6438 7.7754 64.6894 8.16838 63.9877 8.89821C63.2859 9.62803 62.921 10.6105 62.9491 11.621V18.3579H60.1701V5.64207H62.6964L62.8649 7.41048C63.9596 6.09119 65.5877 5.30522 67.3 5.33329C70.4719 5.33329 72.9701 7.24206 72.9701 11.2V18.3579H70.1912L70.2192 11.228ZM89.7842 18.3579H87.2017L87.0333 16.3368C85.9947 17.8526 84.2824 18.7228 82.4579 18.6666C78.6403 18.6666 75.721 16.2245 75.721 11.9859C75.721 7.66312 78.5842 5.30522 82.4017 5.30522C84.0017 5.30522 86.1631 6.06312 87.0333 7.57891V0.336804H89.8122L89.7842 18.3579ZM78.4719 11.9859C78.4719 14.5684 80.2964 16.1965 82.6263 16.1965C84.9 16.1965 86.7526 14.3157 86.7526 12.014C86.7526 9.71224 84.9 7.83154 82.6263 7.83154C80.2964 7.83154 78.4719 9.43154 78.4719 11.9859ZM94.921 0.0280308C95.3701 -3.93335e-05 95.8192 0.140312 96.128 0.449083C96.4649 0.757855 96.6333 1.20697 96.6333 1.6561C96.5771 2.55434 95.8193 3.28417 94.921 3.28417C94.0228 3.28417 93.2649 2.58241 93.2087 1.6561C93.2087 1.20697 93.3771 0.757855 93.714 0.449083C94.0508 0.140312 94.5 -0.0281095 94.921 0.0280308ZM96.2964 18.3579H93.5175V5.64207H96.2964V18.3579ZM110.051 11.228C110.051 9.03856 108.76 7.7754 106.486 7.7754C105.475 7.7754 104.521 8.16838 103.819 8.89821C103.117 9.62803 102.753 10.6105 102.781 11.6491V18.3859H100.002V5.67014H102.5L102.668 7.43856C103.763 6.11926 105.391 5.33329 107.103 5.36136C110.275 5.36136 112.774 7.27013 112.774 11.228V18.3859H109.995C110.023 18.3579 110.051 11.228 110.051 11.228ZM119.118 7.71926C119.96 6.20347 122.149 5.33329 123.749 5.33329C127.539 5.33329 130.43 7.69118 130.43 12.014C130.43 16.2526 127.314 18.6947 123.721 18.6947C122.065 18.6947 120.156 17.9929 119.118 16.3649L118.949 18.3859H116.367V0.364868H119.146L119.118 7.71926ZM119.258 11.9859C119.23 13.1087 119.679 14.2035 120.493 15.0175C121.279 15.8035 122.374 16.2245 123.496 16.1965C125.91 16.1965 127.651 14.5684 127.651 11.9859C127.651 9.40347 125.882 7.80346 123.496 7.80346C122.374 7.77539 121.307 8.19645 120.521 8.98242C119.707 9.79645 119.258 10.8631 119.258 11.9859ZM136.212 18.3579H133.433V0.336804H136.212V18.3579ZM142.612 12.5754C142.612 14.7368 143.875 16.2245 146.205 16.2245C147.216 16.2245 148.17 15.8315 148.844 15.1017C149.546 14.3719 149.91 13.3894 149.854 12.3789V5.64207H152.605V18.3579H150.135L149.967 16.5894C148.844 17.9368 147.16 18.7228 145.419 18.6386C142.191 18.6386 139.861 16.3929 139.861 12.5473V5.58592H142.612V12.5754ZM162.71 16.1965C164.086 16.1965 165.714 15.7193 166.528 14.821L168.325 16.5052C166.949 17.9649 164.675 18.6666 162.654 18.6666C158.332 18.6666 155.553 16.0561 155.553 11.9859C155.553 8.11224 158.444 5.30522 162.626 5.30522C166.5 5.30522 169.167 7.49469 169.167 11.8736C169.167 12.2386 169.139 12.6315 169.11 12.9964H158.416C158.668 15.0175 160.296 16.1965 162.71 16.1965ZM162.626 7.69118C160.605 7.69118 158.893 8.75785 158.472 10.807H166.472C166.275 8.78592 164.9 7.69118 162.626 7.69118Z" fill="black"/>
<path d="M20.8717 17.179C20.2542 18.2456 19.2437 19.0316 18.0647 19.3684C18.2331 18.7789 18.3174 18.1895 18.3174 17.5719C18.3174 14.5684 16.2402 12.0421 13.4612 11.3403C14.0507 10.7789 14.7524 10.3579 15.5384 10.1614C16.7454 9.82456 18.0647 9.99298 19.1314 10.6386C21.4051 11.986 22.191 14.9053 20.8717 17.179ZM11.9454 22.3719C10.7103 22.3719 9.53139 21.8667 8.66121 21.0246C9.25068 20.8842 9.81209 20.6596 10.3174 20.3509C12.8998 18.8351 14.0507 15.7754 13.2366 12.9965C15.2296 13.5579 16.6893 15.4105 16.6893 17.5719C16.6893 20.2386 14.5559 22.3719 11.9454 22.3719ZM3.01911 17.179C2.40156 16.1123 2.23314 14.8211 2.54191 13.6421C2.96297 14.0632 3.44016 14.4561 3.94542 14.7649C4.89981 15.3263 5.99454 15.6351 7.11735 15.6351C8.8577 15.6351 10.5138 14.9333 11.7209 13.6702C12.2261 15.6912 11.3559 17.8807 9.50332 18.9474C8.77349 19.3684 7.95946 19.593 7.14542 19.593C5.43314 19.5649 3.86121 18.6667 3.01911 17.179ZM3.01911 6.82105C3.63665 5.75438 4.64718 4.96842 5.82612 4.63158C5.6577 5.22105 5.57349 5.81052 5.57349 6.42807C5.57349 9.43158 7.65068 11.9579 10.4296 12.6597C8.94191 14.0912 6.64016 14.4561 4.75946 13.3614C3.66472 12.7158 2.87876 11.7053 2.54191 10.4702C2.20507 9.23508 2.37349 7.91579 3.01911 6.82105ZM11.9454 1.62807C13.1805 1.62807 14.3595 2.13334 15.2296 2.97544C14.6402 3.11579 14.0788 3.34035 13.5735 3.64912C12.0858 4.5193 11.0472 5.89474 10.5981 7.55088C10.2893 8.67368 10.3174 9.8807 10.6261 11.0035C8.63314 10.4421 7.17349 8.58947 7.17349 6.42807C7.20156 3.78947 9.3349 1.62807 11.9454 1.62807ZM20.8717 6.82105C21.4893 7.91579 21.6577 9.17895 21.3489 10.3579C20.9279 9.90877 20.4507 9.54386 19.9454 9.23509C18.4577 8.36491 16.7454 8.14035 15.0893 8.58948C13.9665 8.89825 12.9279 9.51579 12.1419 10.3579C11.9454 9.57193 11.9454 8.75789 12.17 7.97193C12.5068 6.73684 13.2928 5.69825 14.3875 5.0807C15.4823 4.43509 16.7735 4.26666 17.9805 4.60351C19.2156 4.94035 20.2261 5.72631 20.8717 6.82105ZM22.3033 6.00702C21.4612 4.5193 20.0858 3.45264 18.4296 3.00351C18.0366 2.89123 17.6437 2.83509 17.2507 2.80702C16.0717 1.06667 14.0788 0 11.9735 0C9.78402 0 7.84718 1.12281 6.6963 2.80702C4.59104 2.97544 2.68226 4.15438 1.6156 6.00702C0.773491 7.49474 0.548931 9.20702 0.969984 10.8632C1.08226 11.2561 1.22262 11.6211 1.39104 11.986C0.464721 13.8947 0.54893 16.1404 1.6156 17.993C2.71033 19.9018 4.64718 21.0246 6.66823 21.193C7.84718 22.9333 9.84016 24 11.9454 24C14.1349 24 16.0717 22.8772 17.2226 21.193C19.3279 21.0246 21.2367 19.8456 22.3033 17.993C23.3981 16.0842 23.3981 13.8386 22.5279 11.986C23.4261 10.1053 23.3419 7.83158 22.3033 6.00702Z" fill="black"/>
</svg>
