<svg width="85" height="24" viewBox="0 0 85 24" fill="none" xmlns="http://www.w3.org/2000/svg">
<g clip-path="url(#clip0_1358_224829)">
<path d="M18.4132 4.5456C18.3968 4.42639 18.2927 4.36025 18.2063 4.35305C18.1205 4.34585 16.4399 4.32031 16.4399 4.32031C16.4399 4.32031 15.0344 2.95544 14.8956 2.8166C14.7568 2.67775 14.4856 2.71967 14.3802 2.7511C14.3789 2.75176 14.1163 2.83297 13.6742 2.96985C13.6002 2.73015 13.4914 2.43543 13.3362 2.1394C12.8359 1.18452 12.103 0.679574 11.2175 0.678267C11.2162 0.678267 11.2156 0.678267 11.2143 0.678267C11.1527 0.678267 11.0918 0.684161 11.0303 0.689398C11.0041 0.657962 10.9778 0.627183 10.9503 0.597053C10.5646 0.184452 10.0701 -0.0166104 9.47742 0.00107257C8.33392 0.0338189 7.19502 0.85968 6.27157 2.32671C5.62188 3.35887 5.1274 4.65565 4.98725 5.65963C3.67412 6.06633 2.75591 6.35056 2.73561 6.35713C2.07282 6.56538 2.05187 6.58568 1.96542 7.2105C1.90124 7.68267 0.166992 21.093 0.166992 21.093L14.7004 23.6066L20.9995 22.0406C20.9995 22.0406 18.4296 4.66481 18.4132 4.5456ZM12.9466 3.19514C12.6119 3.29862 12.2314 3.41651 11.8188 3.54422C11.8103 2.96527 11.7415 2.15971 11.4717 1.46352C12.3394 1.62791 12.7664 2.60964 12.9466 3.19514ZM11.0584 3.77999C10.2967 4.01575 9.46561 4.27314 8.63191 4.5312C8.86636 3.63329 9.31107 2.73932 9.85729 2.15316C10.0603 1.93507 10.3445 1.69209 10.6812 1.55324C10.9975 2.21341 11.0663 3.14799 11.0584 3.77999ZM9.50032 0.762094C9.76884 0.756201 9.99479 0.815146 10.188 0.942201C9.87889 1.10266 9.58022 1.33319 9.29994 1.6338C8.5736 2.41316 8.01692 3.62281 7.7949 4.78989C7.10264 5.00404 6.42544 5.21429 5.80196 5.40685C6.1956 3.56976 7.73529 0.813179 9.50032 0.762094Z" fill="black"/>
<path d="M18.207 4.35371C18.1212 4.34651 16.4407 4.32097 16.4407 4.32097C16.4407 4.32097 15.0352 2.95611 14.8964 2.81726C14.8446 2.76552 14.7745 2.73867 14.7012 2.72754L14.7018 23.6059L21.0003 22.0406C21.0003 22.0406 18.4303 4.66547 18.414 4.54626C18.3976 4.42705 18.2928 4.36091 18.207 4.35371Z" fill="black"/>
<path d="M11.2098 7.59229L10.4783 10.3292C10.4783 10.3292 9.66228 9.95786 8.69496 10.0188C7.27636 10.1085 7.26129 11.0031 7.27573 11.2278C7.35301 12.4518 10.5733 12.719 10.754 15.5863C10.8962 17.8419 9.55747 19.3849 7.62873 19.5067C5.31356 19.6527 4.03906 18.2872 4.03906 18.2872L4.52962 16.2006C4.52962 16.2006 5.8126 17.1686 6.83952 17.1038C7.51019 17.0612 7.74987 16.5156 7.72564 16.1299C7.6248 14.5332 5.00246 14.6275 4.83678 12.0038C4.69727 9.79612 6.1473 7.55889 9.34658 7.35717C10.5792 7.27793 11.2098 7.59229 11.2098 7.59229Z" fill="white"/>
<path d="M29.2946 13.3234C28.5703 12.9304 28.198 12.5991 28.198 12.1437C28.198 11.5643 28.7151 11.1921 29.5226 11.1921C30.4625 11.1921 31.3017 11.5851 31.3017 11.5851L31.9637 9.55708C31.9637 9.55708 31.355 9.08093 29.5635 9.08093C27.0703 9.08093 25.3425 10.5087 25.3425 12.5159C25.3425 13.654 26.1493 14.5231 27.2256 15.1435C28.0948 15.6398 28.4053 15.9919 28.4053 16.5089C28.4053 17.0468 27.9707 17.4814 27.1639 17.4814C25.9615 17.4814 24.826 16.8604 24.826 16.8604L24.1226 18.8884C24.1226 18.8884 25.1716 19.5919 26.9365 19.5919C29.5024 19.5919 31.344 18.3297 31.344 16.0536C31.3433 14.8337 30.4125 13.9645 29.2946 13.3234Z" fill="black"/>
<path d="M39.5161 9.06075C38.2539 9.06075 37.2607 9.66099 36.4955 10.5711L36.4539 10.5502L37.5504 4.81897H34.6948L31.9224 19.4061H34.7779L35.7296 14.4198C36.1018 12.5367 37.0742 11.3785 37.985 11.3785C38.6261 11.3785 38.8749 11.813 38.8749 12.4341C38.8749 12.8271 38.8333 13.3032 38.7508 13.6962L37.6751 19.4067H40.5308L41.6478 13.5098C41.7721 12.8888 41.8551 12.1444 41.8551 11.6474C41.854 10.0332 41.0057 9.06075 39.5161 9.06075Z" fill="black"/>
<path d="M48.31 9.06079C44.8749 9.06079 42.5996 12.1645 42.5996 15.6197C42.5996 17.8335 43.9649 19.6127 46.5309 19.6127C49.9035 19.6127 52.1795 16.5921 52.1795 13.0538C52.1795 11.0057 50.9792 9.06079 48.31 9.06079ZM46.9031 17.4203C45.9305 17.4203 45.5166 16.5927 45.5166 15.5579C45.5166 13.9236 46.3652 11.2545 47.917 11.2545C48.9309 11.2545 49.2614 12.1236 49.2614 12.972C49.2614 14.7304 48.4139 17.4203 46.9031 17.4203Z" fill="black"/>
<path d="M59.4831 9.06079C57.5556 9.06079 56.4618 10.7575 56.4618 10.7575H56.4209L56.5865 9.22643H54.0622C53.9383 10.2612 53.7101 11.8332 53.4831 13.0129L51.4966 23.4615H54.3522L55.1379 19.2404H55.2005C55.2005 19.2404 55.7863 19.6127 56.8765 19.6127C60.2283 19.6127 62.4213 16.1783 62.4213 12.7017C62.4213 10.7783 61.5726 9.06079 59.4831 9.06079ZM56.7518 17.4612C56.0106 17.4612 55.5719 17.0474 55.5719 17.0474L56.0479 14.3783C56.3792 12.5991 57.3101 11.4194 58.3035 11.4194C59.1727 11.4194 59.4414 12.2262 59.4414 12.9921C59.4414 14.8337 58.3448 17.4612 56.7518 17.4612Z" fill="black"/>
<path d="M66.4976 4.96399C65.5876 4.96399 64.8633 5.68828 64.8633 6.61912C64.8633 7.4675 65.4011 8.04693 66.2081 8.04693H66.2494C67.1393 8.04693 67.9046 7.44669 67.9254 6.39179C67.9254 5.56419 67.3668 4.96399 66.4976 4.96399Z" fill="black"/>
<path d="M62.5044 19.4061H65.3592L67.3048 9.28882H64.4283L62.5044 19.4061Z" fill="black"/>
<path d="M74.5675 9.26799H72.581L72.6841 8.79185C72.8497 7.81942 73.4293 6.95026 74.381 6.95026C74.8889 6.95026 75.291 7.09513 75.291 7.09513L75.8497 4.86057C75.8497 4.86057 75.3532 4.61243 74.2976 4.61243C73.2837 4.61243 72.2706 4.90212 71.5045 5.56405C70.5319 6.39165 70.0767 7.59142 69.8493 8.79185L69.7671 9.26799H68.4424L68.0285 11.4201H69.3532L67.8428 19.4067H70.6984L72.2088 11.4201H74.1744L74.5675 9.26799Z" fill="black"/>
<path d="M81.4364 9.28888C81.4364 9.28888 79.6514 13.7859 78.8499 16.2407H78.8082C78.7539 15.4502 78.1048 9.28888 78.1048 9.28888H75.1044L76.8225 18.5786C76.8642 18.7852 76.8434 18.9099 76.7604 19.0547C76.4287 19.6959 75.8704 20.3169 75.2082 20.7722C74.6704 21.1652 74.0704 21.4134 73.5947 21.579L74.3808 24C74.9604 23.876 76.16 23.3998 77.1739 22.4482C78.4777 21.2276 79.6774 19.3444 80.9187 16.7786L84.4156 9.28821H81.4364V9.28888Z" fill="black"/>
</g>
<defs>
<clipPath id="clip0_1358_224829">
<rect width="84.5902" height="24" fill="white" transform="translate(0.166992)"/>
</clipPath>
</defs>
</svg>
