<svg width="107" height="24" viewBox="0 0 107 24" fill="none" xmlns="http://www.w3.org/2000/svg">
<path fill-rule="evenodd" clip-rule="evenodd" d="M36.5304 15.8683L36.5101 15.5971H36.2382H34.5504H34.2451L34.2576 15.9022C34.3969 19.3005 36.688 21.5514 40.7625 21.5514C44.6486 21.5514 47.291 19.5323 47.291 16.4762C47.291 14.8237 46.7177 13.6543 45.6252 12.8556C44.7849 12.2413 43.7801 11.895 42.1139 11.5337C42.0025 11.5096 41.8865 11.4849 41.7474 11.4556C41.6649 11.4382 41.3686 11.3762 41.3843 11.3795C38.3584 10.7451 37.3986 10.1941 37.3986 8.55289C37.3986 6.85578 38.7864 5.77503 41.1141 5.77503C43.3787 5.77503 44.81 7.15817 44.8766 9.33543L44.8853 9.61949H45.1695H46.8339H47.1337L47.1268 9.3197C47.0485 5.92587 44.7714 3.64183 41.0906 3.64183C37.4832 3.64183 35.1013 5.81252 35.1013 8.62321C35.1013 10.2711 35.674 11.4186 36.7682 12.1853C37.6017 12.7694 38.5674 13.0791 40.2708 13.423C40.3506 13.4391 40.4338 13.4557 40.5329 13.4754C40.5942 13.4875 40.6635 13.5012 40.7935 13.5269C42.4053 13.8458 43.1164 14.0427 43.7652 14.4199C44.5706 14.8882 44.9703 15.5572 44.9703 16.5934C44.9703 18.3925 43.4576 19.4182 40.8093 19.4182C38.2741 19.4182 36.7008 18.1467 36.5304 15.8683ZM52.038 3.34881V3.05579H51.7449H50.0806H49.7876V3.34881V20.9302V21.2232H50.0806H51.7449H52.038V20.9302V17.7954L54.4068 15.4883L58.6372 21.1064L58.7251 21.2232H58.8712H60.9341H61.5245L61.1675 20.753L56.0012 13.948L60.7658 9.20597L61.2689 8.70526H60.5591H58.3321H58.2101L58.1241 8.79182L52.038 14.9213V3.34881ZM73.0652 15.7378H73.3405L73.3577 15.463C73.3607 15.4147 73.3652 15.3349 73.3697 15.2386C73.3732 15.1624 73.3761 15.0882 73.3782 15.018C73.3805 14.942 73.3817 14.8728 73.3817 14.8118C73.3817 11.1339 70.9456 8.42396 67.3454 8.42396C63.752 8.42396 61.192 11.3086 61.192 14.9525C61.192 18.7021 63.636 21.5045 67.3689 21.5045C70.1914 21.5045 72.372 19.8298 73.1576 17.2895L73.275 16.9099H72.8777H71.143H70.9361L70.8669 17.1049C70.3735 18.4953 69.0378 19.4182 67.3923 19.4182C65.2412 19.4182 63.7416 17.9408 63.4714 15.7378H73.0652ZM63.5396 13.7921C63.9195 11.8196 65.3702 10.5103 67.3454 10.5103C69.3813 10.5103 70.7863 11.7766 71.0936 13.7921H63.5396ZM80.7659 10.6978H81.0589V10.4048V8.99828V8.70526H80.7659H78.3162V5.59922V5.3062H78.0232H76.3588H76.0658V5.59922V8.70526H74.085H73.7919V8.99828V10.4048V10.6978H74.085H76.0658V17.7186C76.0658 20.0218 77.2604 21.2701 79.4531 21.2701C79.8358 21.2701 80.1658 21.2471 80.4428 21.2087C80.614 21.1849 80.7322 21.1603 80.7974 21.1422L81.012 21.0825V20.8598V19.3596V18.996L80.6567 19.0732C80.6425 19.0763 80.6138 19.0822 80.5727 19.0899C80.5031 19.1029 80.4255 19.116 80.3423 19.1283C80.1292 19.1596 79.9179 19.1797 79.7233 19.1832C79.7033 19.1836 79.6836 19.1837 79.6641 19.1837C78.7035 19.1837 78.3162 18.7326 78.3162 17.6014V10.6978H80.7659ZM87.7632 21.5045C90.8782 21.5045 93.0775 19.5334 93.6298 16.7441L93.6991 16.3942H93.3424H91.6546H91.4293L91.3714 16.6119C90.8982 18.3919 89.614 19.4182 87.7632 19.4182C85.4536 19.4182 83.8602 17.5962 83.8602 14.9759C83.8602 12.3354 85.4508 10.5103 87.7632 10.5103C89.614 10.5103 90.8982 11.5365 91.3714 13.3165L91.4293 13.5343H91.6546H93.3424H93.6991L93.6298 13.1843C93.0775 10.3951 90.8782 8.42396 87.7632 8.42396C84.1448 8.42396 81.5863 11.329 81.5863 14.9759C81.5863 18.6028 84.1484 21.5045 87.7632 21.5045ZM97.8432 3.34881V3.05579H97.5502H95.8858H95.5928V3.34881V20.9302V21.2232H95.8858H97.5502H97.8432V20.9302V13.8742C97.8432 11.7244 99.1517 10.4634 101.137 10.4634C103.033 10.4634 103.985 11.5609 103.985 13.6398V20.9302V21.2232H104.278H105.942H106.235V20.9302V13.3116C106.235 10.3751 104.417 8.42396 101.418 8.42396C99.8752 8.42396 98.635 8.98922 97.8432 9.80053V3.34881Z" fill="black"/>
<path fill-rule="evenodd" clip-rule="evenodd" d="M6.59028 0.790176L14.1251 0L21.66 0.790176L27.4934 8.55801L14.1251 23.9999L0.756836 8.55801L6.59028 0.790176Z" fill="black"/>
<path fill-rule="evenodd" clip-rule="evenodd" d="M6.17161 8.55798L14.1251 24L0.756836 8.55798H6.17161Z" fill="black"/>
<path fill-rule="evenodd" clip-rule="evenodd" d="M22.0789 8.55798L14.1254 24L27.4937 8.55798H22.0789Z" fill="black"/>
<path fill-rule="evenodd" clip-rule="evenodd" d="M6.17139 8.55798H22.0783L14.1248 24L6.17139 8.55798Z" fill="black"/>
<path fill-rule="evenodd" clip-rule="evenodd" d="M14.1248 0L6.58999 0.790044L6.17139 8.55793L14.1248 0Z" fill="black"/>
<path fill-rule="evenodd" clip-rule="evenodd" d="M14.1252 0L21.66 0.790044L22.0786 8.55793L14.1252 0Z" fill="black"/>
<path fill-rule="evenodd" clip-rule="evenodd" d="M27.4937 8.55792L21.6603 0.790039L22.0789 8.55792H27.4937Z" fill="black"/>
<path fill-rule="evenodd" clip-rule="evenodd" d="M0.756836 8.55792L6.59021 0.790039L6.17161 8.55792H0.756836Z" fill="black"/>
<path fill-rule="evenodd" clip-rule="evenodd" d="M14.1248 0L6.17139 8.55793H22.0783L14.1248 0Z" fill="black"/>
</svg>
