<svg width="166" height="24" viewBox="0 0 166 24" fill="none" xmlns="http://www.w3.org/2000/svg">
<g clip-path="url(#clip0_1358_224832)">
<path d="M6.13853 12.7138L15.4943 3.36797C16.1264 2.73927 16.9816 2.38636 17.8731 2.38636C18.7646 2.38636 19.6198 2.73927 20.2519 3.36797L20.9789 4.09505L22.4364 2.63757L21.7093 1.90717C20.6898 0.889832 19.3084 0.318481 17.8681 0.318481C16.4278 0.318481 15.0464 0.889832 14.0269 1.90717L4.67773 11.2563L6.13853 12.7138Z" fill="black"/>
<path d="M18.6285 6.44561L17.171 4.98813L7.81195 14.3472C7.17973 14.979 6.32245 15.3337 5.42867 15.3334C4.5349 15.3331 3.67786 14.9778 3.04609 14.3456C2.41432 13.7133 2.05956 12.8561 2.05988 11.9623C2.06019 11.0685 2.41554 10.2115 3.04775 9.57969L11.122 1.50545L9.66451 0.0479736L1.59027 8.12221C1.07626 8.6243 0.666983 9.22339 0.386145 9.88478C0.105307 10.5462 -0.04151 11.2567 -0.0458016 11.9752C-0.0500931 12.6937 0.0882261 13.406 0.361144 14.0707C0.634061 14.7354 1.03615 15.3393 1.54413 15.8475C2.0521 16.3557 2.65586 16.758 3.32043 17.0312C3.98501 17.3045 4.69719 17.4431 5.41571 17.4391C6.13424 17.4351 6.84484 17.2886 7.50634 17.0081C8.16785 16.7275 8.76712 16.3185 9.26943 15.8047L18.6285 6.44561ZM27.9444 8.12221C26.9245 7.10569 25.5432 6.5349 24.1032 6.5349C22.6632 6.5349 21.2819 7.10569 20.2619 8.12221L10.9029 17.4813L12.3603 18.9388L21.7194 9.57969C22.1909 9.10917 22.7912 8.78892 23.4446 8.6594C24.0979 8.52987 24.775 8.59688 25.3903 8.85195C26.0056 9.10702 26.5315 9.53872 26.9016 10.0925C27.2717 10.6463 27.4694 11.2974 27.4697 11.9635C27.4714 12.4072 27.3841 12.8468 27.213 13.2562C27.042 13.6656 26.7906 14.0366 26.4737 14.3472L18.4094 22.4215L19.8702 23.8789L27.9444 15.8047C28.9618 14.7852 29.5331 13.4037 29.5331 11.9635C29.5331 10.5232 28.9618 9.14173 27.9444 8.12221Z" fill="black"/>
<path d="M23.3961 11.2131L14.037 20.5689C13.4041 21.1998 12.5469 21.5541 11.6533 21.5541C10.7596 21.5541 9.90242 21.1998 9.26952 20.5689L8.54244 19.8385L7.08496 21.296L7.81204 22.0264C8.83199 23.0429 10.2133 23.6137 11.6533 23.6137C13.0933 23.6137 14.4746 23.0429 15.4945 22.0264L24.8536 12.664L23.3961 11.2131Z" fill="black"/>
<path d="M38.0803 14.48C38.176 15.0352 38.4785 15.5334 38.9269 15.8744C39.4412 16.2302 40.0585 16.4065 40.6832 16.3758C41.2777 16.4137 41.8663 16.2383 42.3432 15.8811C42.5332 15.723 42.6847 15.5235 42.7859 15.298C42.8872 15.0724 42.9356 14.8267 42.9275 14.5796C42.9342 14.3485 42.8804 14.1196 42.7714 13.9156C42.6623 13.7305 42.5124 13.5727 42.3332 13.4542C42.1194 13.3122 41.887 13.2005 41.6426 13.1222L40.7197 12.8433L39.8399 12.6042C39.3521 12.475 38.8775 12.3005 38.4222 12.083C38.0314 11.8982 37.67 11.6565 37.3499 11.3659C37.0644 11.1008 36.8381 10.7783 36.6859 10.4197C36.5235 10.0251 36.4444 9.60126 36.4535 9.17469C36.4488 8.70205 36.5509 8.23447 36.7523 7.80685C36.9464 7.39069 37.2338 7.02488 37.5922 6.73781C37.9865 6.42224 38.4372 6.18452 38.9202 6.03729C39.4847 5.85842 40.0745 5.77209 40.6666 5.78165C41.8861 5.78165 42.8522 6.06938 43.5649 6.64485C43.9181 6.92929 44.2111 7.28135 44.4266 7.6804C44.6421 8.07945 44.7758 8.51748 44.8199 8.96885L42.8279 9.13153C42.7293 8.67447 42.4731 8.26666 42.1041 7.97949C41.6568 7.68046 41.124 7.53589 40.5869 7.56781C40.08 7.53801 39.5787 7.68595 39.1692 7.98613C39.0057 8.11358 38.8743 8.27756 38.7855 8.46493C38.6967 8.65229 38.653 8.85785 38.658 9.06513C38.6498 9.28609 38.7014 9.50517 38.8074 9.69925C38.9142 9.87839 39.0607 10.0306 39.2356 10.1441C39.4489 10.2828 39.6786 10.3944 39.9196 10.4761C40.1885 10.5757 40.4939 10.682 40.8326 10.7915L41.6758 11.0538C42.2004 11.2198 42.6752 11.3924 43.1001 11.5717C43.4909 11.7379 43.8546 11.9618 44.1791 12.2357C44.4716 12.4833 44.7052 12.7929 44.863 13.1421C45.0338 13.5541 45.1153 13.9977 45.1021 14.4435C45.1076 14.9647 44.9941 15.4802 44.7701 15.9508C44.554 16.4028 44.2385 16.8001 43.8471 17.1128C43.4265 17.4454 42.9482 17.6975 42.4361 17.8565C41.8527 18.0379 41.2443 18.1265 40.6334 18.1188C39.5529 18.159 38.4869 17.8594 37.5856 17.2622C37.1648 16.9577 36.8125 16.5685 36.5512 16.1197C36.2899 15.6708 36.1254 15.1722 36.0684 14.656L38.0803 14.48ZM53.5017 5.81485C54.3368 5.80404 55.1659 5.95745 55.9419 6.26637C56.6506 6.55022 57.2902 6.98268 57.8177 7.53461C58.347 8.09738 58.7569 8.76142 59.0228 9.48677C59.3148 10.2841 59.4599 11.1277 59.4511 11.9768C59.463 12.8414 59.3086 13.7003 58.9963 14.5066C58.7051 15.2395 58.2654 15.9041 57.7048 16.4588L59.2851 18.308V18.8824H57.2931L56.1876 17.5311C55.787 17.7228 55.3675 17.8719 54.9359 17.976C54.47 18.0756 53.9947 18.1246 53.5183 18.1221C52.6736 18.1272 51.8363 17.9647 51.0548 17.644C50.3501 17.3583 49.715 16.9247 49.1923 16.3724C48.6695 15.8122 48.2662 15.1514 48.0071 14.4302C47.7208 13.6408 47.578 12.8065 47.5854 11.9668C47.5771 11.1216 47.7199 10.2817 48.0071 9.48677C48.2678 8.76315 48.6747 8.10092 49.2023 7.54125C49.7284 6.98918 50.3654 6.5547 51.0714 6.26637C51.8429 5.95379 52.6695 5.80021 53.5017 5.81485ZM53.4851 7.59437C52.9369 7.58592 52.3938 7.69931 51.8948 7.92637C51.4364 8.13814 51.0313 8.45015 50.7096 8.83937C50.375 9.2475 50.1224 9.71648 49.9659 10.2205C49.7927 10.7817 49.7076 11.3663 49.7136 11.9535C49.7078 12.5459 49.7963 13.1353 49.9758 13.6998C50.1367 14.2084 50.3911 14.6825 50.7262 15.0976C51.0474 15.4915 51.4523 15.8091 51.9114 16.0272C52.4098 16.2558 52.9534 16.3693 53.5017 16.3592C54.0495 16.3645 54.592 16.2512 55.092 16.0272C55.5495 15.8199 55.9546 15.5124 56.2772 15.1274C56.6161 14.7187 56.8711 14.2471 57.0275 13.7397C57.2091 13.1619 57.2988 12.5592 57.2931 11.9535C57.2982 11.3566 57.2085 10.7627 57.0275 10.1939C56.8688 9.68947 56.614 9.22049 56.2772 8.81281C55.9512 8.42779 55.5442 8.11945 55.0853 7.90977C54.5813 7.68907 54.0351 7.58141 53.4851 7.59437ZM67.2764 16.4422C67.6455 16.4649 68.0151 16.4065 68.3592 16.2712C68.7033 16.1358 69.0136 15.9267 69.2684 15.6586C69.7398 15.1385 69.9755 14.3395 69.9755 13.2616V6.04393H72.0439V13.328C72.0602 14.0742 71.9479 14.8177 71.7119 15.5258C71.5212 16.093 71.1993 16.6072 70.7723 17.0265C70.3488 17.4275 69.8353 17.7212 69.275 17.883C67.9715 18.2435 66.5945 18.2435 65.291 17.883C64.7327 17.7211 64.2214 17.4273 63.8003 17.0265C63.3745 16.6063 63.0527 16.0925 62.8608 15.5258C62.6249 14.8177 62.5126 14.0742 62.5288 13.328V6.04393H64.6038V13.2616C64.6038 14.3373 64.8406 15.1363 65.3142 15.6586C65.5654 15.9231 65.8708 16.1301 66.2095 16.2654C66.5482 16.4006 66.9121 16.4609 67.2764 16.4422ZM74.1156 17.312L78.3154 6.05721H81.4295L85.5828 17.312V17.8764H83.541L82.3525 14.4966H77.2297L76.0279 17.8764H74.1023L74.1156 17.312ZM77.8539 12.7304H81.7615L81.1174 10.8513C80.8651 10.1176 80.6626 9.52329 80.5066 9.05517C80.3505 8.58705 80.2177 8.18865 80.0949 7.83673H79.5869L79.3877 8.39781C79.3213 8.58373 79.2483 8.79289 79.1653 9.02197C79.0823 9.25105 78.9926 9.51665 78.893 9.81545C78.7934 10.1142 78.6739 10.4562 78.5312 10.8513L77.8539 12.7304ZM97.1829 17.8764H95.1909L91.5821 13.2284H90.2541V17.8764H88.209V6.04393H92.0502C92.6257 6.04292 93.2005 6.08397 93.77 6.16677C94.2991 6.2435 94.8041 6.4387 95.2474 6.73781C96.1814 7.35311 96.6484 8.2805 96.6484 9.51997C96.6577 10.0003 96.5754 10.4781 96.406 10.9276C96.2625 11.3062 96.0472 11.6534 95.7719 11.9502C95.5093 12.2291 95.2004 12.4605 94.8589 12.6341C94.5166 12.8091 94.1543 12.9418 93.7799 13.0292L97.1829 17.312V17.8764ZM90.2474 11.4489H92.0436C92.6948 11.4836 93.3426 11.334 93.9127 11.0173C94.1424 10.8638 94.3268 10.6518 94.4471 10.4032C94.5673 10.1545 94.6189 9.87826 94.5966 9.60297C94.6238 9.32974 94.573 9.0544 94.4503 8.80881C94.3275 8.56322 94.1376 8.35742 93.9028 8.21521C93.3264 7.92866 92.6865 7.79382 92.0436 7.82345H90.2474V11.4489ZM99.819 6.04393H107.482V7.85665H101.838V10.9542H107.077V12.7337H101.848V16.0537H107.598V17.8764H99.819V6.04393ZM112.179 14.48C112.275 15.0352 112.578 15.5334 113.026 15.8744C113.54 16.2298 114.158 16.406 114.782 16.3758C115.377 16.4137 115.965 16.2383 116.442 15.8811C116.632 15.723 116.784 15.5235 116.885 15.298C116.986 15.0724 117.035 14.8267 117.027 14.5796C117.033 14.3485 116.979 14.1196 116.871 13.9156C116.761 13.7305 116.612 13.5727 116.432 13.4542C116.218 13.3122 115.986 13.2005 115.742 13.1222L114.819 12.8433L113.929 12.5976C113.441 12.4684 112.967 12.2939 112.511 12.0764C112.12 11.8915 111.759 11.6499 111.439 11.3592C111.153 11.0941 110.927 10.7717 110.775 10.413C110.611 9.99518 110.532 9.54868 110.544 9.09991C110.555 8.65114 110.656 8.2092 110.841 7.80021C111.037 7.38473 111.324 7.01915 111.681 6.73117C112.076 6.4156 112.526 6.17788 113.009 6.03065C113.574 5.85178 114.164 5.76545 114.756 5.77501C115.975 5.77501 116.942 6.06274 117.657 6.63821C118.01 6.92282 118.303 7.27498 118.517 7.67404C118.732 8.0731 118.865 8.51104 118.909 8.96221L116.917 9.12489C116.82 8.66878 116.566 8.2611 116.2 7.97285C115.753 7.67337 115.22 7.52876 114.683 7.56117C114.176 7.53137 113.674 7.67931 113.265 7.97949C113.102 8.10728 112.971 8.27141 112.883 8.45876C112.795 8.64611 112.752 8.85148 112.757 9.05849C112.748 9.27915 112.798 9.49821 112.903 9.69261C113.01 9.87175 113.156 10.024 113.331 10.1375C113.545 10.2762 113.774 10.3877 114.015 10.4695C114.284 10.5691 114.59 10.6753 114.932 10.7849L115.772 11.0472C116.298 11.2132 116.773 11.3858 117.196 11.5651C117.587 11.7313 117.95 11.9551 118.275 12.2291C118.567 12.4767 118.801 12.7863 118.959 13.1354C119.13 13.5475 119.211 13.9911 119.198 14.4369C119.203 14.958 119.09 15.4736 118.866 15.9442C118.651 16.3969 118.335 16.7943 117.943 17.1062C117.522 17.4361 117.043 17.6859 116.532 17.8432C115.947 18.0246 115.338 18.1131 114.726 18.1055C113.645 18.1453 112.58 17.8458 111.678 17.2489C111.26 16.9453 110.91 16.5579 110.65 16.1115C110.39 15.6651 110.225 15.1694 110.167 14.656L112.179 14.48ZM122.146 6.04393H126.462C127.146 6.02627 127.828 6.12162 128.481 6.32613C128.977 6.47901 129.431 6.74366 129.809 7.09969C130.14 7.4226 130.389 7.82139 130.532 8.26169C130.684 8.72665 130.76 9.21336 130.755 9.70257C130.768 10.2538 130.664 10.8016 130.449 11.3094C130.255 11.7535 129.953 12.1416 129.57 12.4382C129.15 12.7487 128.674 12.9742 128.168 13.1022C127.56 13.2583 126.934 13.3331 126.306 13.3247H124.214V17.8764H122.153L122.146 6.04393ZM124.208 11.5485H126.183C126.517 11.551 126.851 11.5209 127.179 11.4588C127.459 11.4065 127.726 11.3042 127.969 11.1567C128.193 11.0168 128.375 10.8197 128.497 10.5857C128.631 10.311 128.696 10.0079 128.686 9.70257C128.696 9.3897 128.631 9.07899 128.497 8.79621C128.379 8.55922 128.199 8.35852 127.976 8.21521C127.737 8.0667 127.472 7.96423 127.196 7.91309C126.867 7.8505 126.534 7.82047 126.2 7.82345H124.191L124.208 11.5485ZM131.326 17.312L135.529 6.05721H138.643L142.793 17.312V17.8764H140.768L139.583 14.4966H134.44L133.255 17.8764H131.326V17.312ZM135.067 12.7304H138.972L138.328 10.8513C138.075 10.1176 137.873 9.52329 137.72 9.05517L137.308 7.83673H136.784L136.585 8.39781C136.518 8.58373 136.445 8.79289 136.362 9.02197C136.279 9.25105 136.19 9.51665 136.09 9.81545C135.99 10.1142 135.871 10.4562 135.728 10.8513L135.067 12.7304ZM155.349 14.7456C155.162 15.2086 154.916 15.6459 154.619 16.0471C154.31 16.4584 153.94 16.8191 153.52 17.1161C153.065 17.4357 152.562 17.68 152.029 17.8399C151.418 18.023 150.782 18.1126 150.144 18.1055C149.319 18.118 148.501 17.9609 147.74 17.644C147.043 17.3532 146.415 16.9188 145.897 16.3691C145.377 15.8069 144.976 15.1451 144.719 14.4236C144.437 13.6389 144.297 12.8105 144.304 11.9768C144.296 11.143 144.437 10.3146 144.719 9.52993C144.977 8.80524 145.38 8.14092 145.904 7.57777C146.425 7.02223 147.056 6.58127 147.756 6.28297C148.52 5.96188 149.342 5.80249 150.17 5.81485C151.322 5.77389 152.459 6.09049 153.424 6.72121C154.281 7.30553 154.931 8.14724 155.28 9.12489L153.185 9.53657C152.924 8.96154 152.51 8.46896 151.989 8.11229C151.439 7.75572 150.793 7.57509 150.137 7.59437C149.599 7.5826 149.066 7.69627 148.58 7.92637C148.132 8.14606 147.739 8.46243 147.428 8.85265C147.101 9.26834 146.858 9.74284 146.711 10.2504C146.541 10.8089 146.457 11.3898 146.462 11.9734C146.457 12.5609 146.543 13.1455 146.717 13.7065C146.873 14.209 147.125 14.6767 147.458 15.0843C147.782 15.467 148.187 15.7741 148.643 15.984C149.139 16.2117 149.68 16.3251 150.227 16.316C150.905 16.3433 151.574 16.1461 152.129 15.7549C152.618 15.3965 153.016 14.9279 153.291 14.3871L155.349 14.7456ZM158.135 6.04393H165.797V7.85665H160.153V10.9542H165.402V12.7337H160.163V16.0537H165.914V17.8764H158.135V6.04393Z" fill="black"/>
</g>
<defs>
<clipPath id="clip0_1358_224832">
<rect width="166" height="24" fill="white"/>
</clipPath>
</defs>
</svg>
