<svg width="153" height="24" viewBox="0 0 153 24" fill="none" xmlns="http://www.w3.org/2000/svg">
<g clip-path="url(#clip0_1358_224834)">
<path fill-rule="evenodd" clip-rule="evenodd" d="M35.1748 17.2187L36.4362 15.7095C37.5783 16.7041 38.7205 17.2695 40.2035 17.2695C41.5002 17.2695 42.3183 16.6695 42.3183 15.7611V15.7265C42.3183 14.8702 41.8405 14.4065 39.624 13.8926C37.0835 13.2756 35.652 12.5218 35.652 10.3095V10.2749C35.652 8.2187 37.3567 6.79496 39.7263 6.79496C41.4656 6.79496 42.8463 7.32646 44.0569 8.30411L42.9317 9.89799C41.8581 9.09329 40.7837 8.66411 39.6925 8.66411C38.4649 8.66411 37.7492 9.29799 37.7492 10.0865V10.1211C37.7492 11.0472 38.2948 11.4587 40.579 12.0072C43.1019 12.6234 44.4148 13.5319 44.4148 15.5211V15.5563C44.4148 17.8011 42.6593 19.1387 40.1534 19.1387C38.3287 19.1387 36.6063 18.5041 35.1748 17.2187ZM45.792 15.6756V9.91564H47.856V15.0587C47.856 16.4634 48.5548 17.2695 49.7823 17.2695C50.976 17.2695 51.8118 16.4295 51.8118 15.0248V9.91564H53.8743V18.9672H51.8118V18.034C51.0861 18.7342 50.3965 19.1556 48.9981 19.1556C46.9694 19.1556 45.7934 17.7841 45.7934 15.6756H45.792ZM56.0795 9.91564H58.1421V11.4241C58.7047 10.0695 59.7445 9.67494 61.3306 9.74411V11.5829H61.2106C59.4035 11.5829 58.1421 12.7971 58.1421 15.5218V18.9665H56.0795V9.91564ZM62.0668 9.91564H64.2833L66.7045 16.2135L69.1426 9.91564H71.3074L67.6249 19.0356H65.7663L62.0668 9.91564ZM77.9886 13.8072C77.8524 12.4695 77.0682 11.4241 75.7044 11.4241C74.4423 11.4241 73.5557 12.4011 73.3679 13.8072H77.9886ZM71.3223 14.4756V14.4403C71.3223 11.8526 73.147 9.72717 75.7206 9.72717C78.5851 9.72717 80.0343 11.9902 80.0343 14.5949C80.0343 14.7841 80.0173 14.9726 80.0004 15.1787H73.3849C73.6065 16.6526 74.647 17.4756 75.9769 17.4756C76.982 17.4756 77.6992 17.0987 78.415 16.3956L79.6256 17.4756C78.7729 18.5041 77.5962 19.1726 75.9423 19.1726C73.334 19.1726 71.3223 17.2695 71.3223 14.4756ZM90.9684 6.9672H93.2018L96.8329 13.0886L100.465 6.9672H102.698V18.9672H100.602V10.3618L96.8329 16.4655H96.7651L93.031 10.3949V18.9672H90.9684V6.9672ZM111.711 14.4926V14.458C111.711 12.8641 110.569 11.5441 108.949 11.5441C107.295 11.5441 106.239 12.8465 106.239 14.4241V14.458C106.239 16.0356 107.381 17.3733 108.983 17.3733C110.655 17.3733 111.711 16.0526 111.711 14.4926ZM104.176 14.4933V14.458C104.176 11.8695 106.222 9.72717 108.983 9.72717C111.746 9.72717 113.775 11.8356 113.775 14.4241V14.458C113.775 17.0302 111.728 19.1719 108.949 19.1719C106.204 19.1719 104.176 17.0648 104.176 14.4933ZM125.314 6.4519H127.377V13.9272L131.111 9.91564H133.617L130.038 13.6011L133.736 18.9672H131.351L128.64 15.0587L127.377 16.3787V18.9672H125.314V6.4519Z" fill="black"/>
<path fill-rule="evenodd" clip-rule="evenodd" d="M140.235 13.8069C140.099 12.4693 139.315 11.4239 137.951 11.4239C136.689 11.4239 135.803 12.4008 135.615 13.8069H140.235ZM133.569 14.4754V14.4401C133.569 11.8523 135.394 9.72693 137.968 9.72693C140.832 9.72693 142.281 11.99 142.281 14.5947C142.281 14.7839 142.264 14.9723 142.248 15.1785H135.632C135.854 16.6523 136.894 17.4754 138.224 17.4754C139.23 17.4754 139.946 17.0985 140.662 16.3954L141.872 17.4754C141.02 18.5039 139.844 19.1723 138.19 19.1723C135.582 19.1723 133.569 17.2693 133.569 14.4754ZM87.2801 9.9154L84.7891 16.0876L82.3135 9.9154H80.1655L83.7119 18.7573L81.8611 23.3441H84.0091L89.4281 9.9154H87.2801Z" fill="black"/>
<path fill-rule="evenodd" clip-rule="evenodd" d="M149.528 9.91553L147.037 16.0878L144.562 9.91553H142.414L145.96 18.7574L144.109 23.3442H146.257L151.676 9.91553H149.528ZM123.211 13.2071V18.9671H121.147V13.824C121.147 12.4186 120.449 11.6132 119.221 11.6132C118.028 11.6132 117.192 12.4532 117.192 13.8579V18.9671H115.129V9.91553H117.192V10.8487C117.917 10.1485 118.607 9.72635 120.005 9.72635C122.034 9.72635 123.211 11.0993 123.211 13.2071ZM27.2835 16.8318C27.0117 16.8318 26.7639 16.7273 26.5776 16.5593C26.6411 16.0087 26.6835 15.4525 26.6905 14.8864C26.8599 14.772 27.0647 14.7028 27.2835 14.7028C27.8658 14.7028 28.3423 15.1807 28.3423 15.7694C28.3428 15.9088 28.3157 16.0468 28.2627 16.1757C28.2097 16.3045 28.1318 16.4217 28.0334 16.5204C27.9351 16.6191 27.8182 16.6974 27.6895 16.7508C27.5608 16.8042 27.4228 16.8318 27.2835 16.8318ZM3.93994 16.8318C3.8006 16.8318 3.66262 16.8042 3.53393 16.7508C3.40523 16.6974 3.28835 16.6191 3.18999 16.5204C3.09162 16.4217 3.0137 16.3045 2.9607 16.1757C2.9077 16.0468 2.88065 15.9088 2.88112 15.7694C2.88112 15.1807 3.35759 14.7021 3.93994 14.7021C4.15876 14.7021 4.36347 14.7727 4.53288 14.8864C4.53994 15.4525 4.58229 16.0087 4.64582 16.5593C4.4523 16.7343 4.20083 16.8313 3.93994 16.8318ZM27.2143 12.1588C26.9164 12.1588 26.6305 12.1998 26.3559 12.2668C25.3014 8.07247 21.875 4.82682 17.5945 4.05953C17.4039 4.02424 17.231 3.99953 17.0369 3.97482C17.0687 2.92377 17.1181 1.70894 18.6555 0.616235L18.4119 0C18.4119 0 15.4162 0.936 15.0689 3.51388C14.9192 2.81224 13.5223 1.93482 12.8305 1.76824L12.4868 2.32588C12.4868 2.32588 13.4037 2.78753 13.6268 4.05953C9.34771 4.82824 5.92206 8.07318 4.86747 12.2668C4.58647 12.1967 4.29803 12.1607 4.00841 12.1595C2.03053 12.1595 0.42041 13.7746 0.42041 15.7694C0.42041 17.76 2.03053 19.3786 4.00841 19.3786C4.47218 19.3786 4.91406 19.2854 5.31994 19.1259C5.62611 19.8942 6.01725 20.6257 6.48606 21.3071L9.46488 19.2882L9.43947 19.2544C8.65171 18.2365 8.16959 16.7372 8.08912 15.2449C7.99947 13.6002 8.399 11.9654 9.44441 11.0047C11.5988 9.16094 13.9444 10.0009 15.4141 11.7692H15.8094C17.279 10.0009 19.6247 9.16094 21.7797 11.0047C22.8244 11.9654 23.2239 13.6002 23.135 15.2456C23.0538 16.7372 22.5717 18.2365 21.7839 19.2551L21.7585 19.2875L24.7374 21.3071C25.2061 20.6257 25.5972 19.8941 25.9035 19.1259C26.3207 19.2916 26.7654 19.3773 27.2143 19.3786C29.1929 19.3786 30.803 17.76 30.803 15.7694C30.803 13.7739 29.1929 12.1588 27.2143 12.1588Z" fill="black"/>
</g>
<defs>
<clipPath id="clip0_1358_224834">
<rect width="151.765" height="24" fill="white" transform="translate(0.42041)"/>
</clipPath>
</defs>
</svg>
