<svg width="117" height="24" viewBox="0 0 117 24" fill="none" xmlns="http://www.w3.org/2000/svg">
<g clip-path="url(#clip0_1358_224835)">
<path fill-rule="evenodd" clip-rule="evenodd" d="M20.9086 0.097168H3.16793C1.64176 0.097168 0.403957 1.33329 0.401878 2.85947V20.574C0.398927 21.3095 0.689034 22.016 1.20808 22.5371C1.72714 23.0583 2.4324 23.3512 3.16793 23.3512H20.9086C21.6434 23.3503 22.3478 23.0568 22.8661 22.5359C23.3843 22.0148 23.6738 21.3089 23.6709 20.574V2.85947C23.6689 1.33474 22.4333 0.0992209 20.9086 0.097168ZM10.4372 16.8462C10.4362 17.0921 10.3373 17.3274 10.1624 17.5002C9.98757 17.673 9.75108 17.769 9.50517 17.7671H5.62829C5.12122 17.7649 4.71125 17.3533 4.71125 16.8462V5.30864C4.71125 4.80157 5.12122 4.38993 5.62829 4.38787H9.50517C10.0129 4.38992 10.4239 4.80097 10.4259 5.30864L10.4372 16.8462ZM19.3839 11.549C19.3839 11.7951 19.2854 12.0311 19.1102 12.204C18.9351 12.3771 18.6981 12.4727 18.452 12.4699H14.5751C14.0674 12.4678 13.6563 12.0567 13.6543 11.549V5.30864C13.6563 4.80097 14.0674 4.38992 14.5751 4.38787H18.452C18.959 4.38993 19.369 4.80157 19.369 5.30864L19.3839 11.549Z" fill="black"/>
<path d="M48.6172 1.80078V6.29652H43.2902V23.3513H38.1532V6.29652H32.8262V1.80078H48.6172Z" fill="black"/>
<path d="M55.156 23.3513H50.4067V6.57613H55.156V9.78955C56.0582 7.52673 57.5008 6.18098 60.0692 6.345V11.3142C56.7142 11.0532 55.156 11.8734 55.156 14.5611V23.3513Z" fill="black"/>
<path d="M86.0146 23.4817C82.9019 23.4817 80.9448 21.9906 80.9448 18.4641V0.097168H85.7276V17.808C85.7276 18.8257 86.3985 19.1873 87.2187 19.1873C87.4553 19.1921 87.6919 19.1808 87.927 19.1537V23.2879C87.3015 23.4403 86.6579 23.5055 86.0146 23.4817Z" fill="black"/>
<path d="M95.9897 23.4817C92.8771 23.4817 90.9165 21.9906 90.9165 18.4641V0.097168H95.699V17.808C95.699 18.8257 96.3737 19.1873 97.2091 19.1873C97.4445 19.1922 97.6799 19.1809 97.9134 19.1537V23.2879C97.2848 23.4417 96.6368 23.5069 95.9897 23.4817Z" fill="black"/>
<path d="M100.207 14.9562C100.207 9.7745 103.189 6.22937 108.326 6.22937C113.463 6.22937 116.382 9.76333 116.382 14.9562C116.382 20.1491 113.429 23.7464 108.326 23.7464C103.222 23.7464 100.207 20.1043 100.207 14.9562ZM104.863 14.9562C104.863 17.4799 105.921 19.4818 108.326 19.4818C110.731 19.4818 111.729 17.4799 111.729 14.9562C111.729 12.4324 110.704 10.4828 108.326 10.4828C105.947 10.4828 104.863 12.4287 104.863 14.9562Z" fill="black"/>
<path d="M66.4808 16.4734C67.8105 16.6195 69.1469 16.6979 70.4845 16.7082C74.1228 16.7082 77.1945 15.7316 77.1945 12.2088C77.1945 8.79039 74.0371 6.22192 70.2385 6.22192C65.1239 6.22192 61.8472 9.93107 61.8472 15.1128C61.8472 20.492 64.6728 23.6867 71.0585 23.6867C72.953 23.7022 74.8338 23.3659 76.6056 22.6951V18.6766C74.9653 19.2022 73.1201 19.7241 71.2264 19.7241C68.6839 19.7241 66.9133 18.889 66.4808 16.4734ZM70.1416 9.88261C71.4873 9.88261 72.5683 10.7959 72.5683 12.0447C72.5683 13.6514 70.8722 14.1547 68.9189 14.1547C68.0874 14.1509 67.2576 14.0848 66.4361 13.9572C66.4982 13.1738 66.7229 12.412 67.0959 11.7205C67.7054 10.6044 68.87 9.90448 70.1416 9.89008V9.88261Z" fill="black"/>
</g>
<defs>
<clipPath id="clip0_1358_224835">
<rect width="116.308" height="24" fill="white" transform="translate(0.185547)"/>
</clipPath>
</defs>
</svg>
