<svg width="81" height="24" viewBox="0 0 81 24" fill="none" xmlns="http://www.w3.org/2000/svg">
<mask id="mask0_1358_224836" style="mask-type:alpha" maskUnits="userSpaceOnUse" x="0" y="0" width="81" height="24">
<path d="M12.4812 0C19.1145 0 24.4691 5.36 24.4691 12C24.4691 18.64 19.1145 24 12.4812 24C5.84779 24 0.493164 18.64 0.493164 12C0.493164 5.36 5.84779 0 12.4812 0ZM12.4812 3.2C7.60602 3.2 3.68996 7.12 3.68996 12C3.68996 16.88 7.60602 20.8 12.4812 20.8C17.3562 20.8 21.2723 16.88 21.2723 12C21.2723 7.12 17.3562 3.2 12.4812 3.2ZM32.8607 4.72C33.0205 4.64 33.1803 4.8 33.1803 4.88V8.31997H39.5739C39.6538 8.31997 39.8137 8.48002 39.8137 8.55997L40.2932 10.56L40.7727 12.56L40.8526 12.8L40.9326 12.56L42.1314 8.55997C42.1314 8.4 42.2912 8.31997 42.3711 8.31997H45.5679C45.6478 8.31997 45.8076 8.48002 45.8076 8.55997L47.0864 12.8L47.1663 12.56L48.2052 8.55997C48.2052 8.4 48.3651 8.31997 48.445 8.31997H56.5968C56.6768 8.31997 56.7567 8.48002 56.7567 8.55997V19.2C56.7567 19.36 56.5968 19.44 56.5169 19.44H52.441C52.2812 19.44 52.2012 19.28 52.2012 19.2L52.2007 9.12L49.1643 19.2C49.1643 19.34 49.0419 19.4188 48.9578 19.4363L48.9246 19.44H45.5679C45.488 19.44 45.3282 19.28 45.3282 19.2L44.6888 17.04L43.9695 14.72L42.531 19.2C42.531 19.36 42.3711 19.44 42.2912 19.44H38.9346C38.8546 19.44 38.6948 19.28 38.6948 19.2L35.6579 9.12V11.68C35.6579 11.84 35.498 11.92 35.4181 11.92H33.1004V14.64C33.1004 15.44 33.5 15.76 34.2193 15.76C34.539 15.76 34.9386 15.68 35.3382 15.52C35.4181 15.44 35.5779 15.52 35.5779 15.68V18.88C34.8587 19.28 33.8197 19.52 32.7009 19.52C30.0635 19.52 28.6249 18.32 28.6249 15.68V11.92H27.5859C27.4261 11.92 27.3462 11.76 27.3462 11.68V8.64C27.3462 8.48003 27.5061 8.4 27.5859 8.4H28.6249V6.24C28.6249 6.08 28.7049 6 28.8647 6L32.8607 4.72ZM74.0993 8.07998C77.6157 8.07998 80.1732 10.72 80.1732 13.76C80.1732 16.8 77.6157 19.44 74.0193 19.44C70.5029 19.44 67.9455 16.8 67.9455 13.76C67.9455 10.72 70.5029 8.07998 74.0993 8.07998ZM61.9515 4.72C62.1113 4.72 62.1912 4.8 62.1912 4.88V19.12C62.1912 19.28 62.0313 19.36 61.9515 19.36H57.8755C57.7157 19.36 57.6358 19.2 57.6358 19.12V4.96C57.6358 4.8 57.7956 4.72 57.8755 4.72H61.9515ZM67.3061 8.31997C67.4659 8.31997 67.5459 8.48002 67.5459 8.55997V19.04C67.5459 19.2 67.386 19.28 67.3061 19.28H63.2301C63.0703 19.28 62.9904 19.12 62.9904 19.04V8.55997C62.9904 8.4 63.1503 8.31997 63.2301 8.31997H67.3061ZM9.52406 12.48C10.8828 12.48 12.0016 13.6 12.0016 14.96C12.0016 16.32 10.8828 17.44 9.52406 17.44C8.16544 17.44 7.04658 16.32 7.04658 14.96C7.04658 13.6 8.16544 12.48 9.52406 12.48ZM15.4382 12.48C16.7968 12.48 17.9157 13.6 17.9157 14.96C17.9157 16.32 16.7968 17.44 15.4382 17.44C14.0795 17.44 12.9606 16.32 12.9606 14.96C12.9606 13.6 14.0795 12.48 15.4382 12.48ZM74.0993 11.92C73.0603 11.92 72.341 12.8 72.341 13.84C72.341 14.88 73.1402 15.76 74.0993 15.76C75.1382 15.76 75.8577 14.88 75.8577 13.84C75.8577 12.72 75.0583 11.84 74.0993 11.92ZM15.4382 6.56C16.7968 6.56 17.9157 7.68 17.9157 9.03998C17.9157 10.4 16.7968 11.52 15.4382 11.52C14.0795 11.52 12.9606 10.4 12.9606 9.03998C12.9606 7.68 14.0795 6.56 15.4382 6.56ZM9.52406 6.56C10.8828 6.56 12.0016 7.68 12.0016 9.03998C12.0016 10.4 10.8828 11.52 9.52406 11.52C8.16544 11.52 7.04658 10.4 7.04658 9.03998C7.04658 7.68 8.16544 6.56 9.52406 6.56ZM56.6768 4.72C56.7567 4.72 56.8366 4.8 56.9165 4.88V7.44C56.9165 7.59998 56.7567 7.68 56.6768 7.68H52.441C52.2812 7.68 52.2012 7.52003 52.2012 7.44V4.96C52.2012 4.8 52.3611 4.72 52.441 4.72H56.6768ZM67.386 4.72C67.5459 4.72 67.6257 4.8 67.6257 4.88V7.44C67.6257 7.59998 67.4659 7.68 67.386 7.68H63.1503C62.9904 7.68 62.9105 7.52003 62.9105 7.44V4.96C62.9105 4.8 63.0703 4.72 63.1503 4.72H67.386Z" fill="white"/>
</mask>
<g mask="url(#mask0_1358_224836)">
<path d="M12.4812 0C19.1145 0 24.4691 5.36 24.4691 12C24.4691 18.64 19.1145 24 12.4812 24C5.84779 24 0.493164 18.64 0.493164 12C0.493164 5.36 5.84779 0 12.4812 0ZM12.4812 3.2C7.60602 3.2 3.68996 7.12 3.68996 12C3.68996 16.88 7.60602 20.8 12.4812 20.8C17.3562 20.8 21.2723 16.88 21.2723 12C21.2723 7.12 17.3562 3.2 12.4812 3.2ZM32.8607 4.72C33.0205 4.64 33.1803 4.8 33.1803 4.88V8.31997H39.5739C39.6538 8.31997 39.8137 8.48002 39.8137 8.55997L40.2932 10.56L40.7727 12.56L40.8526 12.8L40.9326 12.56L42.1314 8.55997C42.1314 8.4 42.2912 8.31997 42.3711 8.31997H45.5679C45.6478 8.31997 45.8076 8.48002 45.8076 8.55997L47.0864 12.8L47.1663 12.56L48.2052 8.55997C48.2052 8.4 48.3651 8.31997 48.445 8.31997H56.5968C56.6768 8.31997 56.7567 8.48002 56.7567 8.55997V19.2C56.7567 19.36 56.5968 19.44 56.5169 19.44H52.441C52.2812 19.44 52.2012 19.28 52.2012 19.2L52.2007 9.12L49.1643 19.2C49.1643 19.34 49.0419 19.4188 48.9578 19.4363L48.9246 19.44H45.5679C45.488 19.44 45.3282 19.28 45.3282 19.2L44.6888 17.04L43.9695 14.72L42.531 19.2C42.531 19.36 42.3711 19.44 42.2912 19.44H38.9346C38.8546 19.44 38.6948 19.28 38.6948 19.2L35.6579 9.12V11.68C35.6579 11.84 35.498 11.92 35.4181 11.92H33.1004V14.64C33.1004 15.44 33.5 15.76 34.2193 15.76C34.539 15.76 34.9386 15.68 35.3382 15.52C35.4181 15.44 35.5779 15.52 35.5779 15.68V18.88C34.8587 19.28 33.8197 19.52 32.7009 19.52C30.0635 19.52 28.6249 18.32 28.6249 15.68V11.92H27.5859C27.4261 11.92 27.3462 11.76 27.3462 11.68V8.64C27.3462 8.48003 27.5061 8.4 27.5859 8.4H28.6249V6.24C28.6249 6.08 28.7049 6 28.8647 6L32.8607 4.72ZM74.0993 8.07998C77.6157 8.07998 80.1732 10.72 80.1732 13.76C80.1732 16.8 77.6157 19.44 74.0193 19.44C70.5029 19.44 67.9455 16.8 67.9455 13.76C67.9455 10.72 70.5029 8.07998 74.0993 8.07998ZM61.9515 4.72C62.1113 4.72 62.1912 4.8 62.1912 4.88V19.12C62.1912 19.28 62.0313 19.36 61.9515 19.36H57.8755C57.7157 19.36 57.6358 19.2 57.6358 19.12V4.96C57.6358 4.8 57.7956 4.72 57.8755 4.72H61.9515ZM67.3061 8.31997C67.4659 8.31997 67.5459 8.48002 67.5459 8.55997V19.04C67.5459 19.2 67.386 19.28 67.3061 19.28H63.2301C63.0703 19.28 62.9904 19.12 62.9904 19.04V8.55997C62.9904 8.4 63.1503 8.31997 63.2301 8.31997H67.3061ZM9.52406 12.48C10.8828 12.48 12.0016 13.6 12.0016 14.96C12.0016 16.32 10.8828 17.44 9.52406 17.44C8.16544 17.44 7.04658 16.32 7.04658 14.96C7.04658 13.6 8.16544 12.48 9.52406 12.48ZM15.4382 12.48C16.7968 12.48 17.9157 13.6 17.9157 14.96C17.9157 16.32 16.7968 17.44 15.4382 17.44C14.0795 17.44 12.9606 16.32 12.9606 14.96C12.9606 13.6 14.0795 12.48 15.4382 12.48ZM74.0993 11.92C73.0603 11.92 72.341 12.8 72.341 13.84C72.341 14.88 73.1402 15.76 74.0993 15.76C75.1382 15.76 75.8577 14.88 75.8577 13.84C75.8577 12.72 75.0583 11.84 74.0993 11.92ZM15.4382 6.56C16.7968 6.56 17.9157 7.68 17.9157 9.03998C17.9157 10.4 16.7968 11.52 15.4382 11.52C14.0795 11.52 12.9606 10.4 12.9606 9.03998C12.9606 7.68 14.0795 6.56 15.4382 6.56ZM9.52406 6.56C10.8828 6.56 12.0016 7.68 12.0016 9.03998C12.0016 10.4 10.8828 11.52 9.52406 11.52C8.16544 11.52 7.04658 10.4 7.04658 9.03998C7.04658 7.68 8.16544 6.56 9.52406 6.56ZM56.6768 4.72C56.7567 4.72 56.8366 4.8 56.9165 4.88V7.44C56.9165 7.59998 56.7567 7.68 56.6768 7.68H52.441C52.2812 7.68 52.2012 7.52003 52.2012 7.44V4.96C52.2012 4.8 52.3611 4.72 52.441 4.72H56.6768ZM67.386 4.72C67.5459 4.72 67.6257 4.8 67.6257 4.88V7.44C67.6257 7.59998 67.4659 7.68 67.386 7.68H63.1503C62.9904 7.68 62.9105 7.52003 62.9105 7.44V4.96C62.9105 4.8 63.0703 4.72 63.1503 4.72H67.386Z" fill="black"/>
</g>
</svg>
