<svg width="108" height="24" viewBox="0 0 108 24" fill="none" xmlns="http://www.w3.org/2000/svg">
<g clip-path="url(#clip0_1358_224837)">
<path d="M69.7968 16.6108C67.5714 16.6108 66.4286 14.7784 66.4286 12.5278C66.4286 10.2772 67.5513 8.54439 69.7968 8.54439C72.0825 8.54439 73.1656 10.3568 73.1656 12.5278C73.1455 14.8183 72.0027 16.6108 69.7968 16.6108ZM48.0223 8.54439C49.3253 8.54439 49.8668 9.30127 49.8668 9.95852C49.8668 11.5519 48.2427 12.2489 44.8543 12.3486C44.8543 10.3768 45.9771 8.54439 48.0223 8.54439ZM33.5858 16.6108C31.4805 16.6108 30.5983 14.8979 30.5983 12.5278C30.5983 10.1776 31.5006 8.54439 33.5858 8.54439C35.7112 8.54439 36.7137 10.2374 36.7137 12.5278C36.7137 14.9178 35.6711 16.6108 33.5858 16.6108ZM15.781 6.21412H12.4927L17.9465 18.722C16.9038 21.0324 16.3424 21.6099 15.6206 21.6099C14.8587 21.6099 14.1369 20.9925 13.6155 20.4548L12.1719 22.3668C13.1544 23.4025 14.4978 24 15.8813 24C17.6056 24 18.9289 23.0041 19.6909 21.2116L25.9867 6.19418H22.7586L19.4703 15.1568L15.781 6.21412ZM102.88 8.54439C104.484 8.54439 104.805 9.63984 104.805 12.2091V18.961H107.652V10.4365C107.652 7.36931 105.547 6.03487 103.602 6.03487C101.878 6.03487 100.294 7.11037 99.4115 9.10207C98.9102 7.19005 97.3061 6.03487 95.4415 6.03487C93.8174 6.03487 92.1932 7.07053 91.3113 9.00249V6.21412H88.464V18.9411H91.3113V13.5038C91.3113 10.7552 92.7548 8.54439 94.7198 8.54439C96.3238 8.54439 96.6245 9.63984 96.6245 12.2091V18.961H99.4718L99.4517 13.5038C99.4517 10.7552 100.915 8.54439 102.88 8.54439ZM80.1614 6.21412H78.7196V18.9411H81.5664V14.0614C81.5664 10.9743 82.9301 8.88297 84.9552 8.88297C85.4763 8.88297 85.9174 8.90291 86.3987 9.10207L86.8399 6.0946C86.479 6.05476 86.1583 6.01492 85.8371 6.01492C83.8325 6.01492 82.3885 7.38921 81.5464 9.16185V6.21412H80.1614ZM69.7968 6.01492C66.0275 6.01492 63.4809 8.88297 63.4809 12.5079C63.4809 16.2722 66.0677 19.0805 69.7968 19.0805C73.5867 19.0805 76.173 16.1925 76.173 12.5079C76.1529 8.86307 73.5264 6.01492 69.7968 6.01492ZM48.1824 16.6108C46.6988 16.6108 45.5961 15.854 45.1349 14.3203C48.9042 14.161 52.5936 13.2448 52.5936 9.91868C52.5936 8.00662 50.709 6.03487 48.0022 6.03487C44.3529 6.03487 41.8867 9.00249 41.8867 12.5278C41.8867 16.2124 44.3128 19.1004 47.942 19.1004C50.4681 19.1004 52.0722 18.0847 53.3355 16.6108L51.9522 14.7386C50.4882 16.2324 49.5862 16.6108 48.1824 16.6108ZM34.1472 6.01492C32.7036 6.01492 31.26 6.85143 30.6986 8.16598V6.21412H27.8514V23.9403H30.6986V17.6066C31.3001 18.5228 32.6835 19.1203 33.9066 19.1203C37.6962 19.1203 39.7012 16.312 39.7012 12.5278C39.6812 8.78339 37.7162 6.01492 34.1472 6.01492ZM14.177 1.11535H0.743164V3.88382H5.99637V18.9411H8.98389V3.88382H14.177V1.11535ZM56.5035 6.21412H54.799V8.76349H56.5035V18.9411H59.3507V8.76349H62.1177V6.21412H59.3507V4.22241C59.3507 2.94772 59.8722 2.50954 61.0552 2.50954C61.4959 2.50954 61.8969 2.62905 62.4384 2.8083L63.0799 0.418257C62.5589 0.119502 61.516 0 60.8344 0C58.1075 0 56.5035 1.6332 56.5035 4.46143V6.21412Z" fill="black"/>
</g>
<defs>
<clipPath id="clip0_1358_224837">
<rect width="106.909" height="24" fill="white" transform="translate(0.743164)"/>
</clipPath>
</defs>
</svg>
