<svg width="152" height="24" viewBox="0 0 152 24" fill="none" xmlns="http://www.w3.org/2000/svg">
<path d="M8.15087 19.3055C12.9638 19.3055 15.6494 16.394 15.6494 12.066V0.603638H11.9001V12.066C11.9001 14.4005 10.544 15.8694 8.15087 15.8694C5.75773 15.8694 4.4016 14.4005 4.4016 12.066V0.603638H0.652344V12.066C0.652344 16.394 3.33799 19.3055 8.15087 19.3055Z" fill="black"/>
<path d="M18.7949 18.9642H22.2517V17.5477C22.6239 17.9936 24.0066 19.3051 26.3731 19.3051C30.3618 19.3051 33.1804 16.3412 33.1804 12.1182C33.1804 7.86896 30.5745 4.90498 26.5859 4.90498C24.1927 4.90498 22.8101 6.21648 22.4643 6.68861V0H18.7949V18.9642ZM22.358 12.1444C22.358 9.57389 23.9003 8.10503 25.9211 8.10503C28.0484 8.10503 29.4843 9.75751 29.4843 12.1444C29.4843 14.5838 27.9952 16.1052 25.9211 16.1052C23.6875 16.1052 22.358 14.3215 22.358 12.1444Z" fill="black"/>
<path d="M34.5415 12.1441C34.5415 16.2622 37.3866 19.3048 41.8539 19.3048C45.3107 19.3048 47.172 17.2589 47.7038 16.2885L45.2841 14.4786C44.8852 15.0556 43.795 16.1573 41.9071 16.1573C39.8596 16.1573 38.3705 14.8458 38.2907 13.0097H48.076C48.1027 12.7474 48.1027 12.4851 48.1027 12.2228C48.1027 7.73749 45.6563 4.90466 41.3486 4.90466C37.3866 4.90466 34.5415 7.99979 34.5415 12.1441ZM38.3972 10.649C38.5566 9.07521 39.6735 7.86864 41.4019 7.86864C43.077 7.86864 44.3002 8.97029 44.38 10.649H38.3972Z" fill="black"/>
<path d="M57.5574 4.90466C55.7227 4.90466 54.3399 5.87516 53.7284 7.23913V5.24566H50.1387V18.9639H53.8082V12.9835C53.8082 10.2556 54.8186 8.57684 57.5574 8.57684V4.90466Z" fill="black"/>
<path d="M63.9767 19.3048C66.9814 19.3048 69.3214 17.6261 69.3214 14.9507C69.3214 10.0457 62.7268 11.0949 62.7268 8.91783C62.7268 8.23586 63.3118 7.81618 64.1628 7.81618C65.4658 7.81618 66.2369 8.60308 66.6623 9.12767L69.082 7.34404C68.4173 6.26861 66.9547 4.90466 64.3224 4.90466C61.4771 4.90466 59.2701 6.42599 59.2701 8.97029C59.2701 13.8491 65.838 13.0359 65.838 15.1343C65.838 15.9213 65.1732 16.3671 64.1361 16.3671C62.5674 16.3671 61.6366 15.6589 60.9453 14.872L58.7915 16.7605C59.536 17.9409 61.2379 19.3048 63.9767 19.3048Z" fill="black"/>
<path d="M75.9858 19.3053C77.794 19.3053 79.1235 18.3085 79.7085 17.3642V18.9643H83.2982V5.24609H79.6287V13.4823C79.6287 14.9511 78.6714 16.0527 77.1558 16.0527C75.906 16.0527 74.8424 15.1086 74.8424 13.5872V5.24609H71.1729V13.1675C71.1729 16.079 72.0238 19.3053 75.9858 19.3053Z" fill="black"/>
<path d="M87.0644 22.7409C88.3142 23.4229 90.2554 24 92.1699 24C96.2648 24 99.6418 22.3475 99.6418 17.2328V5.24566H96.185V6.6883C95.7861 6.1637 94.3768 4.90466 92.0369 4.90466C88.075 4.90466 85.2563 7.89486 85.2563 12.1179C85.2563 16.3409 87.8888 19.3048 91.904 19.3048C94.3237 19.3048 95.6798 17.9409 95.9723 17.5474V18.1769C95.9723 20.3016 94.1375 20.9049 92.1432 20.9049C90.2287 20.9049 88.6333 20.1967 88.1813 19.9606L87.0644 22.7409ZM96.0787 12.0916C96.0787 14.531 94.6428 16.1049 92.5155 16.1049C90.4415 16.1049 88.9524 14.5048 88.9524 12.0916C88.9524 9.67849 90.4149 8.10471 92.489 8.10471C94.6428 8.10471 96.0787 9.75719 96.0787 12.0916Z" fill="black"/>
<path d="M103.423 22.7409C104.673 23.4229 106.614 24 108.529 24C112.624 24 116.001 22.3475 116.001 17.2328V5.24566H112.544V6.6883C112.145 6.1637 110.736 4.90466 108.396 4.90466C104.434 4.90466 101.615 7.89486 101.615 12.1179C101.615 16.3409 104.248 19.3048 108.263 19.3048C110.683 19.3048 112.039 17.9409 112.331 17.5474V18.1769C112.331 20.3016 110.497 20.9049 108.502 20.9049C106.588 20.9049 104.992 20.1967 104.54 19.9606L103.423 22.7409ZM112.438 12.0916C112.438 14.531 111.002 16.1049 108.874 16.1049C106.8 16.1049 105.311 14.5048 105.311 12.0916C105.311 9.67849 106.774 8.10471 108.848 8.10471C111.002 8.10471 112.438 9.75719 112.438 12.0916Z" fill="black"/>
<path d="M118.026 12.1441C118.026 16.2622 120.872 19.3048 125.338 19.3048C128.796 19.3048 130.657 17.2589 131.188 16.2885L128.769 14.4786C128.37 15.0556 127.28 16.1573 125.392 16.1573C123.344 16.1573 121.856 14.8458 121.775 13.0097H131.56C131.588 12.7474 131.588 12.4851 131.588 12.2228C131.588 7.73749 129.141 4.90466 124.833 4.90466C120.872 4.90466 118.026 7.99979 118.026 12.1441ZM121.882 10.649C122.042 9.07521 123.158 7.86864 124.887 7.86864C126.562 7.86864 127.785 8.97029 127.864 10.649H121.882Z" fill="black"/>
<path d="M137.878 19.3048C140.883 19.3048 143.223 17.6261 143.223 14.9507C143.223 10.0457 136.629 11.0949 136.629 8.91783C136.629 8.23586 137.213 7.81618 138.064 7.81618C139.367 7.81618 140.139 8.60308 140.564 9.12767L142.984 7.34404C142.319 6.26861 140.857 4.90466 138.224 4.90466C135.379 4.90466 133.172 6.42599 133.172 8.97029C133.172 13.8491 139.739 13.0359 139.739 15.1343C139.739 15.9213 139.075 16.3671 138.038 16.3671C136.469 16.3671 135.538 15.6589 134.847 14.872L132.693 16.7605C133.438 17.9409 135.14 19.3048 137.878 19.3048Z" fill="black"/>
<path d="M145.527 5.24613H144.038V8.18387H145.5V13.5872C145.5 17.3118 146.963 19.148 150.287 19.148C151.298 19.148 151.856 19.0168 151.856 19.0168V15.9217C151.563 15.9479 151.43 15.9479 151.191 15.9479C149.782 15.9479 149.144 15.5282 149.144 13.4823V8.18387H151.749V5.24613H149.144V2.36084H145.527V5.24613Z" fill="black"/>
</svg>
