<svg width="106" height="24" viewBox="0 0 106 24" fill="none" xmlns="http://www.w3.org/2000/svg">
<g clip-path="url(#clip0_1358_224839)">
<path d="M14.5469 8.84571H20.8326V19.9771H0.855469V8.84571H7.14118V14.4H14.524V8.84571H14.5469ZM35.804 14.5371C35.804 16.4343 34.5698 17.5314 32.8555 17.5314C31.1869 17.5314 29.9298 16.4114 29.9298 14.5371V5.57714H27.1412V14.5143C27.1412 18.0343 29.6555 20.2743 32.8783 20.2743C36.124 20.2743 38.6155 18.0343 38.6155 14.5143V5.57714H35.8269V14.5371H35.804ZM45.7926 9.71428C44.7183 9.71428 43.5298 10.1714 42.9126 11.2229V9.98857H40.3069V19.9771H43.004V14.2171C43.004 13.0514 43.6898 12.1371 44.8783 12.1371C46.1812 12.1371 46.7298 13.0057 46.7298 14.1257V19.9543H49.4269V13.6686C49.404 11.4743 48.2612 9.71428 45.7926 9.71428ZM55.6898 13.92C55.6898 13.92 54.7755 13.7371 54.204 13.6229C53.6326 13.5086 53.2897 13.2114 53.2897 12.7314C53.2897 12.16 53.7926 11.7486 54.5012 11.7486C55.5069 11.7486 55.8955 12.2514 55.9869 12.8686H58.3183C58.2955 11.4971 57.2212 9.71428 54.5469 9.71428C52.3983 9.71428 50.8212 11.2 50.8212 12.9829C50.8212 14.3771 51.6898 15.5429 53.6098 15.9543L54.9812 16.2514C55.7583 16.4114 56.0555 16.7771 56.0555 17.2343C56.0555 17.76 55.5755 18.2171 54.684 18.2171C53.6098 18.2171 53.0155 17.6 52.8783 16.8914H50.4783C50.6155 18.3771 51.6898 20.2743 54.7069 20.2743C57.3126 20.2743 58.6383 18.6057 58.6383 16.9829C58.6612 15.52 57.6555 14.3314 55.6898 13.92ZM70.1355 14.9486C70.1355 17.9657 68.2383 20.2057 65.4269 20.2057C64.0555 20.2057 63.0269 19.6571 62.5469 18.9943V23.8171H59.8498V9.98857H62.4555V11.2229C62.9126 10.4457 64.0098 9.76 65.5183 9.76C68.444 9.76 70.1355 12 70.1355 14.9486ZM67.484 14.9714C67.484 13.2114 66.3869 12.1829 65.0155 12.1829C63.644 12.1829 62.524 13.2114 62.524 14.9714C62.524 16.7314 63.644 17.7829 65.0155 17.7829C66.3869 17.7829 67.484 16.7543 67.484 14.9714ZM83.0269 9.98857H85.6326V19.9771H82.9355V18.7429C82.4783 19.5429 81.4269 20.2057 80.0555 20.2057C77.244 20.2057 75.3469 17.9657 75.3469 14.9486C75.3469 11.9771 77.0383 9.76 79.9412 9.76C81.4498 9.76 82.524 10.4457 83.004 11.2229V9.98857H83.0269ZM82.9812 14.9714C82.9812 13.2114 81.8612 12.1829 80.4897 12.1829C79.1183 12.1829 78.0212 13.2114 78.0212 14.9714C78.0212 16.7543 79.1183 17.7829 80.4897 17.7829C81.8612 17.7829 82.9812 16.7314 82.9812 14.9714ZM71.3926 19.9543H74.0898V5.57714H71.3926V19.9543ZM101.655 9.71428C100.695 9.71428 99.5983 10.0343 98.9583 10.8114V5.57714H96.2612V19.9543H98.9583V14.1029C99.0269 13.0057 99.6898 12.16 100.833 12.16C102.135 12.16 102.684 13.0286 102.684 14.1486V19.9771H105.381V13.6914C105.358 11.4743 104.193 9.71428 101.655 9.71428ZM92.0555 13.92C92.0555 13.92 91.1412 13.7371 90.5697 13.6229C89.9983 13.5086 89.6555 13.2114 89.6555 12.7314C89.6555 12.16 90.1583 11.7486 90.8669 11.7486C91.8726 11.7486 92.2612 12.2514 92.3526 12.8686H94.684C94.6612 11.4971 93.5869 9.71428 90.9126 9.71428C88.764 9.71428 87.1869 11.2 87.1869 12.9829C87.1869 14.3771 88.0555 15.5429 89.9755 15.9543L91.3469 16.2514C92.124 16.4114 92.4212 16.7771 92.4212 17.2343C92.4212 17.76 91.9412 18.2171 91.0498 18.2171C89.9755 18.2171 89.3812 17.6 89.244 16.8914H86.844C86.9812 18.3771 88.0555 20.2743 91.0726 20.2743C93.6783 20.2743 95.004 18.6057 95.004 16.9829C95.0269 15.52 94.0212 14.3314 92.0555 13.92ZM14.5469 0H7.14118V5.57714H14.524V0H14.5469Z" fill="black"/>
</g>
<defs>
<clipPath id="clip0_1358_224839">
<rect width="104.686" height="24" fill="white" transform="translate(0.855469)"/>
</clipPath>
</defs>
</svg>
