<svg width="106" height="24" viewBox="0 0 106 24" fill="none" xmlns="http://www.w3.org/2000/svg">
<g clip-path="url(#clip0_1358_224840)">
<path fill-rule="evenodd" clip-rule="evenodd" d="M63.011 10.9473V16.8421H64.1689H65.3268V16.1579C65.3268 15.7816 65.3622 15.4765 65.4057 15.4801C65.4491 15.4837 65.6283 15.6849 65.8038 15.9275C66.2908 16.5999 66.9998 16.9419 67.9133 16.9449C68.9093 16.9482 69.5301 16.7188 70.2123 16.0954C71.1485 15.2398 71.5373 14.1509 71.5373 12.3853C71.5373 10.8431 71.1798 9.77535 70.3695 8.89619C69.6377 8.1024 68.2236 7.70472 67.1758 7.99809C66.6539 8.14409 65.9325 8.70672 65.6293 9.20409C65.4335 9.52514 65.4327 9.51809 65.4325 7.28945L65.432 5.05261H64.2215H63.011V10.9473ZM46.1931 8.05093C44.6535 8.48493 43.9287 9.30798 43.9135 10.6397C43.8969 12.1071 44.7621 12.811 47.1998 13.3135C48.5965 13.6013 48.9773 13.7767 49.0781 14.1785C49.2331 14.7957 48.6068 15.2635 47.6266 15.2627C46.9693 15.2623 46.4598 15.0007 46.1891 14.5247C46.028 14.242 45.9592 14.2118 45.4737 14.2111C45.1784 14.2108 44.6461 14.2408 44.2912 14.278C43.6605 14.3439 43.6474 14.3517 43.7118 14.6201C43.8777 15.3123 44.4224 16.0169 45.1163 16.4372C46.2175 17.1045 48.4605 17.176 49.7939 16.5863C51.0104 16.0483 51.5861 15.1828 51.519 13.9932C51.4895 13.4721 51.415 13.1986 51.2276 12.9252C50.7377 12.2102 50.1177 11.9518 47.6261 11.424C46.3485 11.1532 45.9541 10.6196 46.5741 9.99967C46.9101 9.66356 47.4581 9.52093 48.0131 9.62503C48.4268 9.70261 49.1163 10.2493 49.1163 10.4998C49.1163 10.6365 49.2278 10.6515 49.8268 10.5949C50.2175 10.558 50.715 10.5275 50.932 10.527C51.2584 10.5264 51.3268 10.4892 51.3268 10.3124C51.3268 9.61051 50.5554 8.68124 49.627 8.26461C49.0796 8.01903 48.8015 7.96693 47.8626 7.93377C47.0889 7.90651 46.5781 7.9424 46.1931 8.05093ZM75.9609 8.06345C74.8226 8.36935 73.8594 9.18482 73.3676 10.2589C72.7923 11.5158 72.795 13.4372 73.3739 14.7018C74.1314 16.3565 75.9243 17.209 78.0782 16.9385C79.6381 16.7427 80.7649 15.9217 81.195 14.6675L81.3091 14.3348L80.2163 14.2603L79.1234 14.1859L78.844 14.5178C78.451 14.9849 78.0586 15.1579 77.3914 15.1579C76.7274 15.1579 76.3266 15.0297 75.9708 14.7035C75.6581 14.4169 75.332 13.7252 75.3291 13.3421L75.3268 13.0526H78.3268H81.3268V12.3046C81.3268 10.9637 80.9323 9.85188 80.1824 9.07903C79.1866 8.05303 77.5051 7.64851 75.9609 8.06345ZM86.6984 8.06135C86.1935 8.2803 85.9805 8.49409 85.6575 9.10524L85.3794 9.63156L85.3487 8.81577L85.3179 7.99998H84.1645H83.011V12.421V16.8421H84.2215H85.432V14.0948C85.432 11.0301 85.4643 10.8585 86.1386 10.3442C86.5508 10.0298 87.464 9.89703 87.8379 10.0971C87.9619 10.1636 88.0636 10.199 88.0636 10.1759C88.0636 10.1528 88.2259 9.69724 88.4243 9.16366L88.7851 8.19335L88.4276 8.04398C87.9672 7.85156 87.1634 7.85966 86.6984 8.06135ZM93.6952 8.04209C93.2657 8.23145 92.8076 8.70693 92.5889 9.19072C92.42 9.56356 92.4028 9.57472 92.3422 9.34861C92.3064 9.21472 92.2763 8.85661 92.2756 8.55261L92.2742 7.99998H91.1163H89.9584V12.421V16.8421H91.1689H92.3794V14.1385C92.3794 11.6087 92.3935 11.4056 92.6001 10.9791C92.751 10.6673 92.9695 10.436 93.2918 10.2471C93.7091 10.0027 93.8386 9.97798 94.4196 10.0323L95.0763 10.0936L95.412 9.16566C95.5967 8.65535 95.7478 8.21261 95.7478 8.18177C95.7478 8.15103 95.5986 8.07388 95.4163 8.0103C94.9699 7.85472 94.0832 7.87114 93.6952 8.04209ZM33.9167 9.23682C33.8811 9.91714 33.8893 11.4468 33.9348 12.6363C34.0144 14.7129 34.0295 14.8231 34.315 15.4066C34.7941 16.3857 35.7478 16.9483 36.9259 16.9467C37.9285 16.9455 38.928 16.4238 39.3527 15.6802C39.4832 15.4517 39.6253 15.2644 39.6689 15.264C39.7122 15.2635 39.7478 15.6184 39.7478 16.0526V16.8421H40.9057H42.0636V12.421V7.99998H40.8531H39.6426L39.64 10.5526C39.6373 13.2093 39.579 13.7529 39.2482 14.1959C38.8695 14.7032 38.5158 14.8872 37.919 14.8872C37.2744 14.8872 36.8941 14.6851 36.5853 14.1785C36.395 13.8664 36.38 13.6307 36.3798 10.921L36.3794 7.99998H35.1805H33.9815L33.9167 9.23682ZM77.9929 9.82777C78.1819 9.90672 78.4628 10.1213 78.6171 10.3047C78.9015 10.6428 79.1537 11.3278 79.0533 11.4901C79.0232 11.5389 78.1661 11.5789 77.1489 11.5789H75.2992L75.3605 11.2007C75.5388 10.1029 76.9232 9.38082 77.9929 9.82777ZM68.2508 10.173C68.7091 10.5226 69.0007 11.1736 69.08 12.0241C69.2419 13.7563 68.4464 15.0526 67.2215 15.0526C65.9967 15.0526 65.2011 13.7563 65.3628 12.0241C65.4666 10.9123 65.9489 10.1169 66.655 9.89293C67.1375 9.73988 67.8459 9.8643 68.2508 10.173Z" fill="black"/>
<path d="M105.222 8H103.924H102.627L101.701 11.2632C101.191 13.0579 100.745 14.5263 100.709 14.5263C100.672 14.5263 100.234 13.0697 99.735 11.2895L98.8275 8.05263L97.5508 8.02305C96.8487 8.00684 96.2744 8.00684 96.2744 8.02305C96.2744 8.03937 96.9849 10.0883 97.8536 12.5764C99.6064 17.5971 99.5822 17.4675 98.8767 18.0611C98.5816 18.3094 98.4866 18.3326 97.9993 18.2754L97.4525 18.2111L97.2258 18.974C97.1009 19.3936 96.9759 19.816 96.9479 19.9126C96.9073 20.0534 97.0167 20.1134 97.4957 20.2127C99.1146 20.5488 100.764 19.8368 101.441 18.5093C101.562 18.2714 102.411 15.9398 103.328 13.3279C104.245 10.716 105.043 8.46053 105.102 8.31579L105.222 8Z" fill="black"/>
<path fill-rule="evenodd" clip-rule="evenodd" d="M55.856 7.99994C54.7177 8.30584 53.7545 9.12131 53.2627 10.1954C52.6874 11.4523 52.6901 13.3737 53.269 14.6383C54.0265 16.293 55.8194 17.1455 57.9733 16.875C59.5333 16.6792 60.66 15.8582 61.0901 14.6039L61.2042 14.2713L60.1114 14.1968L59.0185 14.1224L58.7392 14.4543C58.3461 14.9214 57.9537 15.0944 57.2865 15.0944C56.6225 15.0944 56.2217 14.9662 55.8659 14.6399C55.5533 14.3534 55.2271 13.6617 55.2242 13.2786L55.2219 12.9891H58.2219H61.2219V12.2411C61.2219 10.9002 60.8274 9.78836 60.0775 9.01552C59.0817 7.98952 57.4002 7.585 55.856 7.99994ZM58.5122 10.2412C58.3579 10.0578 58.077 9.84321 57.888 9.76426C56.8183 9.31731 55.4339 10.0394 55.2556 11.1372L55.1943 11.5154H57.044C58.0613 11.5154 58.9183 11.4754 58.9484 11.4266C59.0488 11.2643 58.7966 10.5793 58.5122 10.2412Z" fill="black"/>
<path d="M0 0H12V24C5.37259 24 0 18.6274 0 12V0Z" fill="black"/>
<path d="M24 12H12V24C18.6274 24 24 18.6274 24 12Z" fill="black"/>
<path d="M18 12C21.3137 12 24 9.31371 24 6C24 2.68629 21.3137 0 18 0C14.6863 0 12 2.68629 12 6C12 9.31371 14.6863 12 18 12Z" fill="black"/>
</g>
<defs>
<clipPath id="clip0_1358_224840">
<rect width="105.263" height="24" fill="white"/>
</clipPath>
</defs>
</svg>
