<svg width="94" height="24" viewBox="0 0 94 24" fill="none" xmlns="http://www.w3.org/2000/svg">
<g clip-path="url(#clip0_1358_224841)">
<path d="M88.6833 6.22514C88.5057 7.32259 89.0333 8.31571 89.8451 8.74122C89.2775 11.7709 86.9975 16.6166 85.7143 16.6166C84.4311 16.6166 85.4183 12.1209 86.817 6.77423C87.113 5.62942 84.1025 5.8862 83.509 6.90152C82.4908 12.3303 80.2433 16.4871 78.8469 16.4871C78.2948 16.4871 78.2105 15.8085 78.2105 15.2142C78.2105 12.7973 79.5255 7.96198 79.695 6.9437C79.8659 5.94393 78.4761 6.16297 77.5659 6.60773C77.2825 6.75943 75.1616 7.81989 74.13 8.30979C73.5009 5.98315 70.8887 6.28656 70.364 8.04856C69.9829 9.31918 70.9331 10.1377 71.8973 10.3086C71.847 13.1266 70.1856 16.7009 68.2853 16.7009C65.9105 16.7009 67.0131 9.10901 70.0672 7.24267C69.897 6.26732 68.6249 6.14003 67.4372 6.65065C65.1616 7.6223 63.7474 11.2839 63.9494 14.3255C63.0614 15.7063 62.1734 16.5751 61.6265 16.5751C61.3719 16.5751 61.0752 16.3213 61.0752 15.6871C61.0752 13.9059 61.9632 8.94325 62.4746 5.63534C62.8142 3.25985 62.3902 0.375977 59.1667 0.375977C56.9074 0.375977 55.6471 2.53463 54.7317 5.8899H53.356C52.764 5.8899 52.4228 7.41732 53.06 7.4595C53.2657 7.478 53.7593 7.48022 54.3417 7.47726C54.1744 8.22246 54.0176 9.01133 53.8659 9.83498C53.7864 10.2573 53.71 10.6932 53.6365 11.1426C52.482 13.5573 49.7824 16.8756 47.3766 16.8756C46.2614 16.8756 45.8728 15.5265 45.9409 13.857C52.4813 14.1478 54.4904 5.93357 48.6487 5.97501C45.1706 5.99795 43.0186 9.66773 42.7603 13.0667C41.7183 14.7976 39.9845 16.9148 38.3845 16.9148C34.9915 16.9148 37.2819 7.626 39.5686 7.626C40.5439 7.626 40.3323 9.1956 39.738 10.2561C39.9504 11.6133 42.1135 11.7405 42.6241 9.45017C43.0052 7.71111 41.9455 6.01423 39.6973 6.01423C35.9595 6.01423 33.6106 10.1821 33.5892 13.7468C32.8721 15.3104 31.9397 16.1511 31.2574 16.1511C30.706 16.1511 30.6209 15.5154 31.2995 11.7849C31.469 10.8518 31.6385 9.79132 31.8087 8.68868C32.0603 7.09319 31.3972 6.16371 30.0267 6.14447C30.0267 6.14447 29.8683 6.14447 29.8128 6.15039C28.856 6.20367 27.5772 6.61365 26.2244 7.55644C25.4104 5.65014 23.0956 6.02829 22.605 7.71111C22.2239 9.04315 23.1741 9.87864 24.1383 10.054C24.0835 12.9601 22.4237 16.6602 20.5262 16.6602C18.1515 16.6602 19.2541 8.81596 22.3075 6.90522C22.138 5.88694 20.8659 5.75966 19.6782 6.2688C15.5644 8.00786 14.2915 18.7382 20.06 18.7382C24.6341 18.7382 26.4161 12.2504 26.5042 9.38356C27.2442 8.83298 28.0664 8.40007 28.5259 8.38897H28.5429C28.7546 8.38897 28.839 8.47407 28.7968 8.7279C28.5415 10.6786 27.8658 13.9865 27.8658 15.7678C27.8658 17.5919 28.375 18.7367 29.9445 18.7367C31.4187 18.7367 32.8728 17.4299 33.8667 15.7766C34.3847 17.4891 35.6568 18.7367 37.834 18.7367C39.9911 18.7367 41.7109 17.0088 42.8928 15.3326C43.3035 17.2715 44.5208 18.7367 46.6987 18.7367C49.7143 18.7367 51.9263 16.328 53.2021 14.0835C53.1236 14.6755 53.0481 15.283 52.9756 15.895C52.5516 19.331 52.2126 20.7304 51.6606 21.9633C51.4341 22.4719 51.1794 22.9675 50.8976 23.4477C50.6852 23.8296 50.9398 23.9991 51.2795 23.9991C52.0424 23.9991 53.2724 23.5328 54.0361 22.26C54.7569 21.076 55.4784 19.8853 56.2413 13.0563C56.4101 11.5903 56.6387 9.47533 56.968 7.45802H57.8109C58.5746 7.45802 59.2954 6.01571 58.403 5.93135C58.2461 5.91655 57.8146 5.90766 57.247 5.901C57.7288 3.50036 58.3852 1.56224 59.2939 1.56224C60.142 1.56224 60.3115 2.87726 59.9304 4.99817C59.2939 8.30609 58.7004 12.4628 58.4459 14.8405C58.1499 17.6393 59.0816 18.7419 60.6512 18.7419C61.8877 18.7419 63.2568 17.6097 64.3039 16.1518C64.836 17.6681 65.9594 18.7419 67.819 18.7419C72.0165 18.7419 73.8628 13.4441 74.2062 10.4255C74.8179 10.2223 75.4162 9.9811 75.9978 9.70325C75.5945 11.796 75.2837 14.1012 75.2837 15.434C75.2837 17.3847 76.259 18.6997 77.7435 18.6997C79.9303 18.6997 81.4296 16.6395 82.3317 14.9256C82.3258 17.1834 83.1916 18.7427 85.2496 18.7427C89.7031 18.7427 92.8415 9.70917 92.8415 6.82456C92.84 3.68093 89.0659 3.80747 88.6833 6.22514ZM48.7301 7.58234C50.5128 7.58234 49.1985 12.1897 46.0808 12.4887C46.476 10.0829 47.586 7.58234 48.7301 7.58234Z" fill="black"/>
<path fill-rule="evenodd" clip-rule="evenodd" d="M30.831 4.69838C33.3338 4.69838 33.8851 0.372192 31.2558 0.372192C28.7952 0.372192 28.2868 4.69838 30.831 4.69838Z" fill="black"/>
<path fill-rule="evenodd" clip-rule="evenodd" d="M11.6593 0.668968C12.4652 1.13518 13.6522 2.78914 13.186 6.35236C12.4223 12.0358 9.36897 16.7009 8.35069 16.7009C7.75867 16.7009 7.79937 15.8128 8.56308 12.502C9.58061 8.17579 10.9807 2.02617 5.46682 2.02617C-0.386042 2.02617 -1.10757 8.30307 2.6673 9.06678C2.11598 6.13998 3.85504 3.38338 5.509 3.38338C7.29024 3.38338 6.52727 6.81858 5.80501 10.5091C4.95694 14.7924 3.98159 19.6699 7.3746 19.6699C12.0826 19.6699 15.6029 10.9753 16.2394 6.3494C17.0475 0.498763 13.4842 -1.07009 11.6593 0.668968Z" fill="black"/>
</g>
<defs>
<clipPath id="clip0_1358_224841">
<rect width="92.7805" height="24" fill="white" transform="translate(0.263184)"/>
</clipPath>
</defs>
</svg>
