<svg width="97" height="24" viewBox="0 0 97 24" fill="none" xmlns="http://www.w3.org/2000/svg">
<g clip-path="url(#clip0_1358_224842)">
<path fill-rule="evenodd" clip-rule="evenodd" d="M14.1701 18.4901L1.66324 11.9979L0.0439525 13.1589L0.043457 13.8691L14.1701 24L28.2961 13.8696L28.2971 13.1597L26.6771 11.9979L14.1701 18.4901Z" fill="black"/>
<path fill-rule="evenodd" clip-rule="evenodd" d="M14.1701 0L0.0442002 10.1303L0.043457 10.8406L14.1701 20.9717L28.2961 10.8411L28.2969 10.1309L14.1701 0ZM16.0183 9.99812L14.296 7.62305L15.7644 6.54848L18.8259 11.0793L17.5931 11.9818L14.3007 10.6198L14.2865 10.63L16.1615 13.0291L14.9286 13.9313L8.73613 11.691L10.2092 10.6129L13.4463 11.8736L13.4647 11.8599L11.6683 9.54531L12.8273 8.69737L15.9998 10.0118L16.0183 9.99812Z" fill="black"/>
<path fill-rule="evenodd" clip-rule="evenodd" d="M14.1701 0L0.0442002 10.1303L0.043457 10.8406L14.1701 20.9717L28.2961 10.8411L28.2969 10.1309L14.1701 0ZM16.0183 9.99812L14.296 7.62305L15.7644 6.54848L18.8259 11.0793L17.5931 11.9818L14.3007 10.6198L14.2865 10.63L16.1615 13.0291L14.9286 13.9313L8.73613 11.691L10.2092 10.6129L13.4463 11.8736L13.4647 11.8599L11.6683 9.54531L12.8273 8.69737L15.9998 10.0118L16.0183 9.99812Z" fill="black"/>
<path fill-rule="evenodd" clip-rule="evenodd" d="M16.018 10.0014L14.2957 7.62633L15.7641 6.55176L18.8256 11.0826L17.5928 11.985L14.3004 10.6231L14.2863 10.6333L16.1612 13.0324L14.9283 13.9345L8.73584 11.6943L10.209 10.6162L13.446 11.8768L13.4644 11.8632L11.668 9.54858L12.827 8.70065L15.9995 10.015L16.018 10.0014Z" fill="white"/>
<path fill-rule="evenodd" clip-rule="evenodd" d="M16.018 10.0014L14.2957 7.62633L15.7641 6.55176L18.8256 11.0826L17.5928 11.985L14.3004 10.6231L14.2863 10.6333L16.1612 13.0324L14.9283 13.9345L8.73584 11.6943L10.209 10.6162L13.446 11.8768L13.4644 11.8632L11.668 9.54858L12.827 8.70065L15.9995 10.015L16.018 10.0014Z" fill="white"/>
<path fill-rule="evenodd" clip-rule="evenodd" d="M47.326 13.0444C47.9848 13.0444 48.5199 12.5206 48.5199 11.7148C48.5199 10.9377 48.0074 10.3744 47.3316 10.3744C46.6445 10.3744 46.1206 10.9095 46.1206 11.7148C46.1206 12.5089 46.622 13.0439 47.326 13.0439V13.0444ZM50.2547 8.88191V14.5253H48.5425V13.9169H48.5199C48.1595 14.39 47.6301 14.6323 46.9542 14.6323C45.3997 14.6323 44.2959 13.4552 44.2959 11.7093C44.2959 9.98576 45.4109 8.7749 46.8697 8.7749C47.478 8.7749 48.0243 9.01147 48.4243 9.47893H48.4468V8.88191H50.2547Z" fill="black"/>
<path fill-rule="evenodd" clip-rule="evenodd" d="M55.5879 11.7149C55.5879 10.9097 55.064 10.3747 54.3771 10.3747C53.656 10.3747 53.1378 10.9377 53.1378 11.7149C53.1378 12.5203 53.6728 13.0442 54.3826 13.0442C55.0865 13.0442 55.5879 12.5092 55.5879 11.7149ZM57.4128 11.7093C57.4128 13.4554 56.3033 14.6325 54.7543 14.6325C54.1067 14.6325 53.5998 14.396 53.2337 13.9734H53.2054V16.8065H51.4033V8.88191H53.2111V9.4903H53.2337C53.6392 9.01717 54.2024 8.7749 54.8389 8.7749C56.2976 8.7749 57.4128 9.98593 57.4128 11.7093Z" fill="black"/>
<path fill-rule="evenodd" clip-rule="evenodd" d="M62.5044 11.7149C62.5044 10.9097 61.9804 10.3747 61.2936 10.3747C60.5725 10.3747 60.0543 10.9377 60.0543 11.7149C60.0543 12.5203 60.5894 13.0442 61.2991 13.0442C62.003 13.0442 62.5044 12.5092 62.5044 11.7149ZM64.3293 11.7093C64.3293 13.4554 63.2198 14.6325 61.6709 14.6325C61.0231 14.6325 60.5162 14.396 60.1502 13.9734H60.122V16.8065H58.3198V8.88191H60.1276V9.4903H60.1502C60.5557 9.01717 61.119 8.7749 61.7554 8.7749C63.2141 8.7749 64.3293 9.98593 64.3293 11.7093Z" fill="black"/>
<path fill-rule="evenodd" clip-rule="evenodd" d="M67.9782 13.0444C68.6371 13.0444 69.1722 12.5206 69.1722 11.7148C69.1722 10.9377 68.6597 10.3744 67.9839 10.3744C67.2968 10.3744 66.7729 10.9095 66.7729 11.7148C66.7729 12.5089 67.2742 13.0439 67.9782 13.0439V13.0444ZM70.9069 8.88191V14.5253H69.1947V13.9169H69.1722C68.8117 14.39 68.2824 14.6323 67.6064 14.6323C66.052 14.6323 64.9482 13.4552 64.9482 11.7093C64.9482 9.98576 66.0631 8.7749 67.5219 8.7749C68.1304 8.7749 68.6765 9.01147 69.0765 9.47893H69.0991V8.88191H70.9069Z" fill="black"/>
<path fill-rule="evenodd" clip-rule="evenodd" d="M72.1191 14.5275H73.9158V6.03418H72.1191V14.5275Z" fill="black"/>
<path fill-rule="evenodd" clip-rule="evenodd" d="M80.5783 8.88074L77.6157 16.8053H75.8305L76.8047 14.1411L74.6025 8.88074H76.4725L77.6214 11.9389H77.6496L78.7309 8.88074H80.5783Z" fill="black"/>
<path fill-rule="evenodd" clip-rule="evenodd" d="M83.3375 13.0485V13.071H85.7368V14.5241H80.9775V13.3188L83.4163 10.3506V10.3281H81.1915V8.88074H85.8324V10.0747L83.3375 13.0485Z" fill="black"/>
<path fill-rule="evenodd" clip-rule="evenodd" d="M88.0467 11.1123L90.1586 11.1012C90.0405 10.5547 89.6744 10.2168 89.1336 10.2168C88.5929 10.2168 88.1648 10.5321 88.0467 11.1123ZM91.9273 11.6531C91.9273 11.8106 91.899 12.0643 91.8822 12.1881H88.041C88.1705 12.8244 88.7281 13.1624 89.3759 13.1624C89.8995 13.1624 90.3558 12.9315 90.7449 12.4809L91.7019 13.5567C91.2235 14.1594 90.3563 14.6325 89.1848 14.6325C87.5121 14.6325 86.2505 13.4497 86.2505 11.7036C86.2505 9.99143 87.4613 8.7749 89.1173 8.7749C90.7618 8.7749 91.9275 9.97459 91.9275 11.6531H91.9273Z" fill="black"/>
<path fill-rule="evenodd" clip-rule="evenodd" d="M96.3433 8.7806V10.7237C96.1795 10.7125 96.0111 10.7125 95.9207 10.7125C95.0644 10.7125 94.625 11.253 94.625 11.9909V14.5255H92.8228V8.88191H94.625V9.6367H94.6476C95.0757 9.0734 95.662 8.7749 96.2812 8.7749C96.2981 8.7749 96.3263 8.7749 96.3433 8.7806Z" fill="black"/>
<path fill-rule="evenodd" clip-rule="evenodd" d="M44.6779 6.32825L42.1153 14.523H40.3525L38.9781 9.13308H38.9613L37.5364 14.523H35.7735L33.2109 6.32825H35.2667L36.6521 11.3578H36.669L37.9362 6.32825H39.9695L41.2199 11.3578H41.2367L42.6222 6.32825H44.6779Z" fill="black"/>
</g>
<defs>
<clipPath id="clip0_1358_224842">
<rect width="96.2997" height="24" fill="white" transform="translate(0.043457)"/>
</clipPath>
</defs>
</svg>
