<svg width="97" height="24" viewBox="0 0 97 24" fill="none" xmlns="http://www.w3.org/2000/svg">
<g clip-path="url(#clip0_1358_224843)">
<path d="M31.3417 9.38515C31.3417 7.67339 29.667 5.85539 26.7691 5.85539C23.5149 5.85539 19.9399 8.22823 19.3936 12.9621C18.8354 17.7432 21.8284 19.8682 24.8451 19.8682C27.8618 19.8682 29.4414 18.6995 31.0566 17.1412C29.667 15.4058 27.8736 16.2086 27.5292 16.3856C27.1491 16.5745 26.6622 16.8342 25.6646 16.8342C24.5006 16.8342 23.313 16.3148 23.313 14.1545C30.7716 13.4225 31.3417 11.0969 31.3417 9.38515ZM27.648 9.66847C27.6005 10.1997 27.3867 11.1087 23.6099 11.6163C24.4056 8.80669 25.9258 8.5942 26.6266 8.5942C27.2798 8.5942 27.6955 9.10182 27.648 9.66847ZM15.0111 10.1289C15.0111 10.1289 13.4077 15.1343 13.2771 15.5475C13.2296 15.1225 12.0538 6.13871 12.0538 6.13871C9.32211 6.13871 7.86126 8.07477 7.08927 10.1171C7.08927 10.1171 5.14148 15.1343 4.97521 15.5593C4.96333 15.1697 4.67829 10.1761 4.67829 10.1761C4.51201 7.67339 2.20792 6.15052 0.343262 6.15052L2.59985 19.7619C5.46215 19.7501 7.00613 17.8259 7.81376 15.7836C7.81376 15.7836 9.53589 11.3566 9.60715 11.1559C9.61903 11.3448 10.8423 19.7619 10.8423 19.7619C13.7165 19.7619 15.2605 17.9557 16.0919 15.9843L20.1181 6.15052C17.2795 6.15052 15.7831 8.07477 15.0111 10.1289ZM41.8882 5.83178C40.1186 5.83178 38.7646 6.788 37.6245 8.19282V8.18101L38.6459 0C36.2943 0 34.3821 2.0305 34.0139 5.05263L32.2324 19.6557C33.5864 19.6557 35.0235 19.2661 35.7954 18.2745C36.4843 19.1599 37.5176 19.8682 39.0497 19.8682C43.0165 19.8682 45.7363 15.2878 45.7363 10.9907C45.7126 7.07132 43.8004 5.83178 41.8882 5.83178ZM41.5201 12.8559C41.1044 15.2523 39.7623 16.8815 38.4677 16.8815C37.1613 16.8815 36.6031 16.303 36.6031 16.303C36.8525 14.2017 37.0069 12.9149 37.4819 11.8052C37.957 10.6955 39.0853 8.92474 40.2611 8.92474C41.4132 8.92474 41.9357 10.4476 41.5201 12.8559ZM55.6415 6.15052H52.8743L52.8861 6.00885C53.0762 4.21446 53.5037 3.27004 54.9171 3.11658C55.8791 3.02213 56.3066 2.52632 56.4135 1.98328C56.4967 1.55829 56.758 0.0826365 56.758 0.0826365C51.1996 0.0472209 49.4537 2.43187 49.0024 6.06788L48.9905 6.15052H48.9312C48.0285 6.15052 47.0309 7.16576 46.8646 8.45253L46.8052 8.92474H48.658L47.1021 21.698L46.6271 23.9882C46.6865 23.9882 46.7577 24 46.8171 24C49.4181 23.9056 51.0809 21.8633 51.449 18.9001L52.6605 8.92474H53.5275C54.3826 8.92474 55.3803 8.07477 55.5584 6.65814L55.6415 6.15052ZM70.0362 5.91441C66.8413 5.91441 63.8246 8.25184 62.8983 11.9233C61.9719 15.5947 63.3733 19.939 68.0765 19.939C72.7679 19.939 75.4758 15.4176 75.4758 11.6517C75.4758 7.90949 72.9222 5.91441 70.0362 5.91441ZM71.3308 12.7378C71.1645 14.4024 70.4281 16.9287 68.4091 16.9287C66.3781 16.9287 66.6632 13.9774 66.8651 12.5726C67.0789 11.0733 67.9221 8.93655 69.7393 8.93655C71.3664 8.93655 71.5208 10.8608 71.3308 12.7378ZM91.26 10.1289C91.26 10.1289 89.6566 15.1343 89.526 15.5475C89.4785 15.1225 88.3027 6.13871 88.3027 6.13871C85.571 6.13871 84.1102 8.07477 83.3382 10.1171C83.3382 10.1171 81.3904 15.1343 81.2241 15.5593C81.2122 15.1697 80.9272 10.1761 80.9272 10.1761C80.7609 7.67339 78.4568 6.15052 76.5922 6.15052L78.8369 19.7619C81.6992 19.7501 83.2432 17.8259 84.0508 15.7836C84.0508 15.7836 85.7729 11.3566 85.8323 11.1559C85.8561 11.3448 87.0675 19.7619 87.0675 19.7619C89.9417 19.7619 91.4857 17.9557 92.317 15.9843L96.3433 6.15052C93.5166 6.15052 92.0201 8.07477 91.26 10.1289ZM58.2544 0.0826365L55.9266 18.7467L55.4515 21.0487C55.5109 21.0487 55.5822 21.0605 55.6415 21.0605C58.1475 21.0251 59.9291 18.8411 60.2616 16.0905L61.6037 5.38318C62.0075 2.11313 60.0478 0.0826365 58.2544 0.0826365Z" fill="black"/>
</g>
<defs>
<clipPath id="clip0_1358_224843">
<rect width="96" height="24" fill="white" transform="translate(0.343262)"/>
</clipPath>
</defs>
</svg>
