<svg width="119" height="24" viewBox="0 0 119 24" fill="none" xmlns="http://www.w3.org/2000/svg">
<g clip-path="url(#clip0_1358_224845)">
<path fill-rule="evenodd" clip-rule="evenodd" d="M36.6355 0H4.05779C1.99611 0 0.327136 1.68533 0.343379 3.73065V16.1662C0.343379 18.2278 2.01247 19.8968 4.07415 19.8968H19.504L26.5563 23.8238L24.9527 19.8968H36.6355C38.6973 19.8968 40.3662 18.2278 40.3662 16.1662V3.73065C40.3662 1.66897 38.6973 0 36.6355 0ZM3.37064 2.8798C2.91248 2.91252 2.56886 3.07615 2.33979 3.38703C2.11072 3.68156 2.02891 4.05789 2.07799 4.48332C3.04338 10.6193 3.94332 14.759 4.77781 16.9025C5.10506 17.6878 5.4814 18.0643 5.92319 18.0315C6.6104 17.9824 7.42853 17.0334 8.39392 15.1844C8.90116 14.1372 9.68657 12.5664 10.7501 10.472C11.6337 13.5645 12.8445 15.888 14.3663 17.4424C14.7917 17.8842 15.2335 18.0806 15.6588 18.0478C16.0353 18.0151 16.3297 17.8188 16.5261 17.4587C16.6897 17.1479 16.7552 16.7879 16.7224 16.3788C16.6242 14.8899 16.7716 12.8119 17.1806 10.1448C17.606 7.39586 18.1296 5.41598 18.7677 4.23789C18.8987 3.99245 18.9477 3.747 18.9314 3.45249C18.8987 3.07614 18.735 2.76526 18.4242 2.51982C18.1133 2.27439 17.7696 2.15985 17.3933 2.19257C16.9188 2.2253 16.5588 2.45437 16.3134 2.91252C15.2989 4.76149 14.5789 7.75583 14.1536 11.9119C13.5318 10.3411 13.0081 8.49214 12.5991 6.31592C12.4191 5.35054 11.9773 4.89239 11.2573 4.94148C10.7665 4.97419 10.3574 5.30145 10.0302 5.92322L6.44679 12.7464C5.85773 10.3738 5.30141 7.47766 4.79417 4.05789C4.67964 3.20705 4.20512 2.81434 3.37064 2.8798ZM34.9012 4.05795C36.063 4.30339 36.9302 4.92517 37.5192 5.956C38.0428 6.83958 38.3045 7.90314 38.3045 9.17941C38.3045 10.8647 37.8792 12.4028 37.0283 13.81C36.0465 15.4463 34.7703 16.2643 33.1831 16.2643C32.905 16.2643 32.6105 16.2316 32.2995 16.1662C31.1378 15.9208 30.2706 15.299 29.6815 14.2682C29.158 13.3682 28.8961 12.2883 28.8961 11.0284C28.8961 9.34304 29.3216 7.80496 30.1724 6.41415C31.1706 4.7779 32.4468 3.95977 34.0176 3.95977C34.2958 3.95977 34.5903 3.9925 34.9012 4.05795ZM34.214 12.91C34.8194 12.3701 35.2285 11.5683 35.4575 10.4884C35.523 10.1121 35.572 9.70301 35.572 9.27759C35.572 8.80308 35.4739 8.29584 35.2775 7.7886C35.0321 7.15046 34.7048 6.80685 34.3121 6.72504C33.7231 6.6105 33.1504 6.93775 32.6105 7.73952C32.1687 8.36129 31.8905 9.01579 31.7432 9.68665C31.6614 10.063 31.6286 10.4721 31.6286 10.8811C31.6286 11.3556 31.7268 11.8629 31.9232 12.3701C32.1687 13.0082 32.4959 13.3518 32.8886 13.4337C33.2976 13.5154 33.7394 13.3355 34.214 12.91ZM27.2599 5.956C26.6708 4.92517 25.7872 4.30339 24.6419 4.05795C24.3309 3.9925 24.0365 3.95977 23.7582 3.95977C22.1875 3.95977 20.9112 4.7779 19.9131 6.41415C19.0622 7.80496 18.6368 9.34304 18.6368 11.0284C18.6368 12.2883 18.8987 13.3682 19.4222 14.2682C20.0113 15.299 20.8785 15.9208 22.0402 16.1662C22.351 16.2316 22.6456 16.2643 22.9238 16.2643C24.511 16.2643 25.7872 15.4463 26.769 13.81C27.6199 12.4028 28.0452 10.8647 28.0452 9.17941C28.0452 7.90314 27.7834 6.83958 27.2599 5.956ZM25.1981 10.4884C24.9691 11.5683 24.56 12.3701 23.9546 12.91C23.4801 13.3355 23.0383 13.5154 22.6293 13.4337C22.2366 13.3518 21.9093 13.0082 21.6639 12.3701C21.4675 11.8629 21.3693 11.3556 21.3693 10.8811C21.3693 10.4721 21.4021 10.063 21.4839 9.68665C21.6311 9.01579 21.9093 8.36129 22.351 7.73952C22.8911 6.93775 23.4638 6.6105 24.0528 6.72504C24.4455 6.80685 24.7728 7.15046 25.0182 7.7886C25.2146 8.29584 25.3127 8.80308 25.3127 9.27759C25.3127 9.70301 25.28 10.1121 25.1981 10.4884Z" fill="black"/>
<path fill-rule="evenodd" clip-rule="evenodd" d="M44.5059 5.80862C43.4096 6.88855 42.8696 8.26299 42.8696 9.93197C42.8696 11.7155 43.4096 13.1717 44.4896 14.268C45.5695 15.3644 46.9767 15.9206 48.7274 15.9206C49.2347 15.9206 49.8073 15.8389 50.4292 15.6588V13.0081C49.8565 13.1717 49.3656 13.2536 48.9401 13.2536C48.0729 13.2536 47.3857 12.959 46.8621 12.3864C46.3385 11.7973 46.0767 11.0119 46.0767 10.0138C46.0767 9.08112 46.3385 8.31208 46.8458 7.72303C47.3693 7.11762 48.0074 6.82309 48.7929 6.82309C49.3001 6.82309 49.8401 6.9049 50.4292 7.06853V4.4178C49.8892 4.27054 49.2838 4.20508 48.6456 4.20508C46.9767 4.18872 45.6022 4.72869 44.5059 5.80862ZM55.8615 4.18872C54.3562 4.18872 53.1781 4.69597 52.3272 5.69407C51.4764 6.69219 51.0673 8.09937 51.0673 9.89924C51.0673 11.8464 51.4927 13.3354 52.3272 14.3662C53.1617 15.3971 54.3889 15.9206 55.9924 15.9206C57.5468 15.9206 58.7412 15.3971 59.5757 14.3662C60.4102 13.3354 60.8357 11.8791 60.8357 10.0138C60.8357 8.14845 60.4102 6.70856 59.5594 5.69407C58.6922 4.69597 57.465 4.18872 55.8615 4.18872ZM57.1541 12.6972C56.8596 13.1554 56.4178 13.3845 55.8615 13.3845C55.3379 13.3845 54.9452 13.1554 54.667 12.6972C54.3889 12.239 54.258 11.3228 54.258 9.93197C54.258 7.78848 54.7979 6.72491 55.8943 6.72491C57.0396 6.72491 57.6286 7.80485 57.6286 9.98106C57.6123 11.3228 57.4487 12.239 57.1541 12.6972ZM68.9188 4.49961L68.3297 7.00308C68.1825 7.64122 68.0352 8.29572 67.9043 8.96658L67.5771 10.701C67.2662 8.96658 66.8407 6.9049 66.3008 4.49961H62.5047L61.0811 15.6425H63.9282L64.6972 7.96846L66.6444 15.6425H68.6734L70.5386 7.98483L71.3404 15.6425H74.3184L72.8131 4.49961H68.9188ZM82.5487 4.49961L81.9597 7.00308C81.8124 7.64122 81.6652 8.29572 81.5343 8.96658L81.207 10.701C80.8961 8.96658 80.4707 6.9049 79.9307 4.49961H76.1346L74.7111 15.6425H77.5581L78.3272 7.96846L80.2743 15.6425H82.3033L84.1523 7.98483L84.954 15.6425H87.932L86.4267 4.49961H82.5487ZM91.8099 11.241H94.477V8.93385H91.8099V6.88854H94.8861V4.51598H88.7993V15.6588H94.9025V13.2863H91.8099V11.241ZM103.378 9.47381C103.689 8.96658 103.853 8.44298 103.853 7.90302C103.853 6.85582 103.444 6.02133 102.626 5.41591C101.807 4.8105 100.678 4.49961 99.2712 4.49961H95.7696V15.6425H98.7803V10.5701H98.8295L101.267 15.6425H104.442L102.036 10.6192C102.609 10.3574 103.067 9.98105 103.378 9.47381ZM98.764 9.29382V6.6431C99.4839 6.65946 99.9912 6.774 100.302 7.00308C100.613 7.23215 100.76 7.59213 100.76 8.11573C100.76 8.88476 100.089 9.27747 98.764 9.29382ZM105.619 5.80862C104.524 6.88855 103.984 8.26299 103.984 9.93197C103.984 11.7155 104.524 13.1717 105.604 14.268C106.684 15.3644 108.09 15.9206 109.842 15.9206C110.349 15.9206 110.922 15.8389 111.543 15.6588V13.0081C110.971 13.1717 110.479 13.2536 110.054 13.2536C109.187 13.2536 108.5 12.959 107.976 12.3864C107.452 11.7973 107.191 11.0119 107.191 10.0138C107.191 9.08112 107.452 8.31208 107.96 7.72303C108.483 7.11762 109.121 6.82309 109.906 6.82309C110.414 6.82309 110.954 6.9049 111.543 7.06853V4.4178C111.003 4.27054 110.398 4.20508 109.76 4.20508C108.107 4.18872 106.716 4.72869 105.619 5.80862ZM115.389 13.2536V11.2246H118.055V8.91749H115.389V6.87218H118.48V4.49961H112.394V15.6425H118.497V13.2699H115.389V13.2536Z" fill="black"/>
</g>
<defs>
<clipPath id="clip0_1358_224845">
<rect width="118.154" height="24" fill="white" transform="translate(0.343262)"/>
</clipPath>
</defs>
</svg>
