<svg width="54" height="24" viewBox="0 0 54 24" fill="none" xmlns="http://www.w3.org/2000/svg">
<g clip-path="url(#clip0_1358_224847)">
<path d="M25.5746 8.5959C26.1784 8.5959 26.7389 8.69641 27.2561 8.89733C27.7725 9.09815 28.2152 9.40923 28.5845 9.83067C28.9536 10.2528 29.2422 10.7884 29.4505 11.4373C29.6585 12.0874 29.7624 12.8532 29.7624 13.737C29.7624 15.5043 29.2825 16.887 28.323 17.8842C27.3629 18.8817 26.004 19.3806 24.2455 19.3806C23.9502 19.3806 23.6483 19.3604 23.3395 19.3202C23.0304 19.28 22.7623 19.2262 22.5341 19.1596V23.879C22.3639 23.9065 22.1927 23.9265 22.0207 23.9391C21.8566 23.9517 21.692 23.9584 21.5273 23.9592C21.3795 23.9592 21.2154 23.9522 21.0342 23.9391C20.8689 23.9274 20.7043 23.9073 20.5411 23.879V8.83661C20.6775 8.80985 20.8152 8.78983 20.9536 8.77662C21.0975 8.76318 21.2419 8.75647 21.3864 8.75651C21.5204 8.75651 21.6616 8.76338 21.8094 8.77662C21.9567 8.79015 22.098 8.81026 22.2322 8.83661C22.2455 8.864 22.2625 8.94718 22.2823 9.088C22.3025 9.22851 22.3227 9.37908 22.3428 9.53969C22.363 9.70031 22.3831 9.85456 22.4033 10.0017C22.4235 10.1491 22.4333 10.2428 22.4333 10.283C22.5676 10.0686 22.7285 9.86123 22.9166 9.66041C23.1044 9.45959 23.3298 9.27846 23.5913 9.11826C23.8528 8.95723 24.1481 8.83036 24.4775 8.73672C24.8057 8.64297 25.1715 8.5959 25.5746 8.5959ZM14.2587 8.5959C15.6008 8.5959 16.6212 8.90082 17.3191 9.50954C18.0171 10.119 18.3663 11.093 18.3663 12.4316V18.8784C17.8965 18.9855 17.3261 19.0958 16.6549 19.2096C15.9762 19.3238 15.2892 19.3808 14.601 19.3802C13.943 19.3802 13.3494 19.3202 12.819 19.1995C12.2887 19.0788 11.839 18.8852 11.4701 18.6168C11.1007 18.3497 10.8155 18.0077 10.6142 17.5928C10.4128 17.1781 10.3123 16.6761 10.3123 16.0864C10.3123 15.5113 10.4295 15.0056 10.6645 14.5703C10.8955 14.1399 11.2228 13.7688 11.621 13.4859C12.0237 13.1985 12.4869 12.9837 13.0103 12.8436C13.5341 12.7028 14.0842 12.6323 14.6616 12.6323C15.091 12.6323 15.4433 12.6428 15.7183 12.6625C15.9935 12.683 16.225 12.7063 16.4132 12.7329V12.3514C16.4132 11.5612 16.2118 11.0125 15.8092 10.7045C15.4064 10.3968 14.8225 10.2428 14.0574 10.2428C13.5872 10.2428 13.148 10.2799 12.7387 10.3531C12.3338 10.4257 11.9337 10.5228 11.5406 10.6441C11.2853 10.2023 11.1581 9.67385 11.1581 9.05754C11.614 8.91046 12.1173 8.79672 12.6681 8.7162C13.2183 8.63579 13.7483 8.5959 14.2588 8.5959H14.2587ZM9.12444 8.83651L9.22495 9.09805L3.74834 17.5528H8.8829C8.9229 17.8209 8.94341 18.095 8.94341 18.3759C8.94341 18.6444 8.9229 18.8983 8.8829 19.1397H0.828848L0.728027 18.8584L6.16464 10.4234H1.37244C1.33213 10.1824 1.31192 9.91487 1.31192 9.62C1.31192 9.33897 1.33213 9.07754 1.37244 8.83641H9.12444V8.83651ZM14.8629 14.1787C14.0303 14.1787 13.3959 14.333 12.9602 14.6407C12.5234 14.949 12.3058 15.4176 12.3058 16.0465C12.3058 16.4482 12.3791 16.7632 12.5273 16.9904C12.6747 17.2183 12.8594 17.392 13.081 17.5127C13.3025 17.633 13.5472 17.7066 13.8157 17.7336C14.0699 17.7598 14.3253 17.7733 14.5808 17.7738C14.8896 17.7738 15.2085 17.7573 15.5372 17.7233C15.8662 17.6899 16.1579 17.64 16.4132 17.573V14.2995C16.2118 14.2728 15.957 14.2464 15.648 14.2194C15.3393 14.1927 15.0775 14.1788 14.8629 14.1788V14.1787ZM25.1316 10.3229C24.8009 10.3219 24.4731 10.3834 24.1652 10.504C23.856 10.624 23.5813 10.8046 23.3395 11.0457C23.0979 11.2868 22.9035 11.5917 22.7559 11.9597C22.6078 12.3285 22.5341 12.7662 22.5341 13.2754V17.4523C22.7882 17.5462 23.0513 17.6135 23.3193 17.6532C23.5878 17.6931 23.9367 17.7135 24.3665 17.7135C24.8499 17.7135 25.2926 17.6365 25.6953 17.4825C26.0981 17.3292 26.4437 17.0909 26.732 16.7693C27.0206 16.4482 27.2487 16.0434 27.4167 15.5543C27.5843 15.0658 27.6685 14.487 27.6685 13.8175C27.6685 12.7465 27.4703 11.8963 27.0745 11.2668C26.6785 10.6378 26.0305 10.3229 25.1316 10.3229ZM41.2396 8.59569C41.9508 8.59569 42.575 8.71641 43.112 8.95744C43.649 9.19846 44.0987 9.52974 44.4614 9.95149C44.8234 10.3733 45.0985 10.8752 45.2866 11.4576C45.4744 12.04 45.5686 12.6723 45.5686 13.3553C45.5686 13.543 45.5617 13.7403 45.5481 13.9478C45.5371 14.1253 45.5237 14.3026 45.5081 14.4798H38.4809C38.5079 15.6047 38.7997 16.4282 39.3568 16.9503C39.914 17.4723 40.736 17.7338 41.8234 17.7338C42.7767 17.7338 43.6824 17.5663 44.5417 17.2315C44.6492 17.4324 44.7361 17.6766 44.8035 17.9644C44.8695 18.2447 44.9099 18.5304 44.9242 18.8181C44.4812 19.0057 43.9943 19.1458 43.4646 19.2399C42.934 19.3332 42.3469 19.3804 41.7029 19.3804C40.7628 19.3804 39.9575 19.2499 39.2866 18.9887C38.6154 18.7275 38.0614 18.3595 37.6253 17.8843C37.1893 17.4091 36.8703 16.8466 36.6688 16.1971C36.4676 15.5479 36.3668 14.8351 36.3668 14.0581C36.3668 13.2953 36.464 12.5825 36.6589 11.9193C36.8533 11.2567 37.1522 10.6813 37.5547 10.1923C37.9575 9.7039 38.4641 9.31579 39.0748 9.02749C39.6855 8.73959 40.4071 8.59569 41.2396 8.59569ZM34.1926 8.83651V19.1397C34.0292 19.1679 33.8645 19.1878 33.6991 19.1994C33.5349 19.212 33.3703 19.2187 33.2057 19.2195C33.0713 19.2195 32.9135 19.2125 32.7326 19.1994C32.5673 19.1879 32.4026 19.1679 32.2392 19.1397V10.4033H30.9301C30.9034 10.2961 30.8831 10.1723 30.87 10.0318C30.8566 9.89493 30.8499 9.75751 30.8498 9.62C30.8498 9.48646 30.8563 9.34882 30.87 9.20831C30.8831 9.06779 30.9033 8.944 30.9301 8.83651H34.1925H34.1926ZM43.5954 12.9942C43.5954 12.6193 43.545 12.2613 43.4444 11.9193C43.3436 11.5779 43.1958 11.2803 43.0014 11.0258C42.8063 10.7715 42.5584 10.5673 42.2561 10.4135C41.9543 10.2596 41.595 10.1823 41.1791 10.1823C40.3601 10.1823 39.7327 10.4302 39.2963 10.9255C38.8602 11.4209 38.5952 12.1105 38.501 12.9943H43.5954V12.9942ZM48.61 8.75651C48.7575 8.75651 48.905 8.76349 49.0531 8.77662C49.1884 8.78838 49.3229 8.80842 49.4558 8.83661C49.4958 9.03744 49.5361 9.30246 49.5764 9.62995C49.6164 9.95836 49.637 10.2359 49.637 10.4638C49.9187 10.0087 50.2914 9.61323 50.7544 9.27846C51.2176 8.9441 51.8112 8.77662 52.5363 8.77662C52.6434 8.77662 52.7543 8.77969 52.8684 8.78667C52.9662 8.79198 53.0637 8.8019 53.1605 8.81641C53.188 8.94245 53.2081 9.06998 53.2206 9.19836C53.2343 9.33231 53.2409 9.47272 53.2409 9.6202C53.2409 9.78072 53.2308 9.94841 53.211 10.1221C53.1917 10.2899 53.1681 10.4573 53.1403 10.624C53.0315 10.5974 52.9199 10.584 52.8079 10.5841H52.5363C52.174 10.5841 51.8282 10.6344 51.4992 10.7347C51.17 10.8352 50.875 11.0125 50.6131 11.2668C50.3515 11.5213 50.1433 11.8695 49.9893 12.3115C49.8348 12.753 49.7576 13.3223 49.7576 14.0182V19.1395C49.6099 19.1658 49.4454 19.1859 49.2642 19.1995C49.0833 19.2128 48.9185 19.2196 48.7713 19.2196C48.6232 19.2196 48.459 19.2127 48.2779 19.1995C48.1059 19.187 47.9345 19.167 47.7642 19.1395V8.83661C47.9044 8.81126 48.0454 8.79124 48.1871 8.77662C48.3277 8.76303 48.4688 8.75632 48.61 8.75651ZM32.7988 0C32.9876 0.000307692 33.1734 0.0163077 33.3539 0.0464615V1.99241L34.7334 0.616308C35.038 0.832594 35.3044 1.09827 35.5215 1.40236L34.142 2.77836H36.0928C36.1231 2.95836 36.1392 3.14287 36.1392 3.33159V3.3361C36.1392 3.52482 36.1231 3.70964 36.0928 3.88974H34.1416L35.5215 5.26533C35.4131 5.41701 35.2924 5.55948 35.1605 5.69128C35.0285 5.82284 34.8858 5.94325 34.7339 6.05128L33.3539 4.67538V6.62123C33.1706 6.65187 32.9851 6.66745 32.7992 6.66779H32.7943C32.6085 6.66744 32.4231 6.65186 32.2399 6.62123V4.67538L30.8604 6.05128C30.5558 5.83501 30.2894 5.56933 30.0723 5.26523L31.4519 3.88964H29.501C29.4699 3.70638 29.4543 3.52084 29.4544 3.33497V3.33251C29.4544 3.27938 29.4581 3.21231 29.4633 3.14328L29.4671 3.09713C29.4809 2.93559 29.501 2.77826 29.501 2.77826H31.4519L30.0723 1.40226C30.1803 1.25059 30.301 1.10833 30.433 0.977026C30.5651 0.844996 30.7081 0.724298 30.8604 0.616205L32.2399 1.99231V0.0464615C32.4204 0.0163077 32.6059 0.000307692 32.795 0H32.7988ZM32.7985 2.50051H32.7954C32.547 2.50051 32.3093 2.54595 32.0894 2.62851C32.0047 2.8535 31.9612 3.09191 31.9611 3.33231V3.33538C31.9612 3.57582 32.0047 3.81425 32.0897 4.03918C32.3153 4.124 32.5543 4.16737 32.7953 4.16718H32.7985C33.0468 4.16718 33.2846 4.12174 33.5041 4.03918C33.5891 3.81427 33.6326 3.57581 33.6324 3.33538V3.33231C33.6324 3.08462 33.5869 2.84738 33.5041 2.62851C33.2785 2.54369 33.0395 2.50033 32.7985 2.50051Z" fill="black"/>
</g>
<defs>
<clipPath id="clip0_1358_224847">
<rect width="52.5128" height="24" fill="white" transform="translate(0.728027)"/>
</clipPath>
</defs>
</svg>
