<svg width="125" height="24" viewBox="0 0 125 24" fill="none" xmlns="http://www.w3.org/2000/svg">
<g clip-path="url(#clip0_1358_224848)">
<path d="M83.5297 20.6368C85.1359 20.6368 86.7423 20.0189 87.9778 18.9069L90.202 21.2548C88.4722 22.9847 86.1245 23.9734 83.6532 23.8498C78.34 23.8498 74.7565 20.2662 74.7565 15.4467C74.633 10.8745 78.2164 7.16727 82.7882 7.0437C82.9117 7.0437 83.0355 7.0437 83.159 7.0437C88.4723 7.0437 91.5613 11.1216 91.3142 16.806H78.5871C78.9578 19.2775 81.1819 20.8839 83.5297 20.6368ZM87.3601 14.0874C87.2365 11.8631 85.383 10.1331 83.159 10.2566C80.8113 10.1331 78.8342 11.7395 78.5871 14.0874H87.3601Z" fill="black"/>
<path d="M0 20.5134L9.76158 10.6274H0.247129V7.53809H14.2099V10.751L4.44832 20.6369H14.3335V23.7264H0V20.5134Z" fill="black"/>
<path d="M25.9485 20.637C27.5549 20.637 29.1612 20.019 30.3969 18.9068L32.6211 21.2548C30.8911 23.1084 28.4198 24.0971 25.9485 23.9733C20.5117 23.9733 17.0519 20.3897 17.0519 15.5704C16.9284 10.9981 20.5117 7.29093 25.0836 7.16736C25.2072 7.16736 25.3308 7.16736 25.4543 7.16736C30.7676 7.16736 33.8566 11.2453 33.486 16.9297H21.006C21.3766 19.2777 23.6008 20.8841 25.9485 20.637ZM29.7791 14.0875C29.6556 11.8632 27.802 10.1331 25.5779 10.2567C23.3537 10.1331 21.3766 11.7396 21.006 14.0875H29.7791Z" fill="black"/>
<path d="M54.6153 15.5703C54.3682 11.1217 57.8281 7.29086 62.2763 7.16729C62.3999 7.16729 62.5236 7.16729 62.6471 7.16729C64.7476 7.16729 66.7247 8.0323 67.9604 9.63877V0H71.4201V23.6027H67.9604V21.3783C66.6011 22.9847 64.624 23.9733 62.5234 23.9733C58.0752 23.9733 54.3682 20.2661 54.4918 15.8175C54.6153 15.6939 54.6153 15.5703 54.6153 15.5703ZM68.2075 15.5703C68.2075 12.7281 65.8598 10.5038 63.1414 10.5038C60.2994 10.5038 58.0752 12.8517 58.0752 15.5703C58.0752 18.4124 60.423 20.6368 63.1414 20.6368C65.9833 20.6368 68.2075 18.4124 68.2075 15.5703Z" fill="black"/>
<path d="M93.4146 20.2659L96.5036 18.536C97.3685 20.0188 98.9749 20.8839 100.581 20.8839C102.558 20.8839 103.547 19.8953 103.547 18.7831C103.547 17.671 101.693 17.1767 99.5927 16.8059C96.8743 16.1881 94.0323 15.323 94.0323 11.9866C94.0323 9.39149 96.5036 7.0436 100.334 7.0436C102.929 6.92003 105.4 8.03219 106.883 10.133L104.041 11.863C103.176 10.6272 101.817 10.0094 100.458 10.0094C98.6042 10.0094 97.7393 10.8744 97.7393 11.9866C97.7393 13.0987 99.222 13.4694 101.57 13.9637C104.288 14.5816 107.254 15.4466 107.254 18.7831C107.254 21.0075 105.277 23.9731 100.705 23.9731C97.6158 24.2204 94.7737 22.7374 93.4146 20.2659Z" fill="black"/>
<path d="M115.903 16.4353L113.185 19.4011V23.6027H109.725V0H113.185V15.4468L120.475 7.41444H124.676L118.375 14.3346L124.8 23.6027H120.969L115.903 16.4353Z" fill="black"/>
<path d="M44.3597 7.16736C40.282 7.16736 36.8223 9.88597 36.8223 14.2111V23.7262H40.282V14.7054C40.0349 12.6046 41.5177 10.751 43.6184 10.5039C43.8655 10.5039 44.1126 10.5039 44.3597 10.5039C46.9545 10.5039 48.1903 12.1103 48.1903 14.7054V23.7262H51.8971V14.2111C51.8971 9.7624 48.4374 7.16736 44.3597 7.16736Z" fill="black"/>
</g>
<defs>
<clipPath id="clip0_1358_224848">
<rect width="124.8" height="24" fill="white"/>
</clipPath>
</defs>
</svg>
