<svg width="79" height="24" viewBox="0 0 79 24" fill="none" xmlns="http://www.w3.org/2000/svg">
<path fill-rule="evenodd" clip-rule="evenodd" d="M4.32655 16.8918L1.25879 13.4612L10.6491 10.0433L12.1103 14.0598L4.32655 16.8918Z" fill="black"/>
<path fill-rule="evenodd" clip-rule="evenodd" d="M4.30416 16.8283L4.16016 21.4307L13.5505 18.0128L12.0893 13.9963L4.30416 16.8283Z" fill="black"/>
<path fill-rule="evenodd" clip-rule="evenodd" d="M30.4 7.40833C31.7398 11.2907 27.4226 16.3914 20.7068 18.8366C13.9911 21.2817 7.40449 20.1495 5.93555 16.313L30.4 7.40833Z" fill="black"/>
<path fill-rule="evenodd" clip-rule="evenodd" d="M30.4001 7.40835C28.9404 3.56338 22.3474 2.42621 15.6246 4.8728C8.90179 7.31941 4.58176 12.4293 5.93494 16.306L30.4001 7.40835Z" fill="black"/>
<path fill-rule="evenodd" clip-rule="evenodd" d="M30.3996 7.40833C31.2346 10.006 26.5476 14.0436 19.8523 16.4874C13.157 18.9311 6.9657 18.838 5.93652 16.3123L30.3996 7.40833Z" fill="black"/>
<path fill-rule="evenodd" clip-rule="evenodd" d="M30.3995 7.4084C29.3851 4.87001 23.1854 4.77966 16.4795 7.22063C9.77358 9.66157 5.0816 13.7147 5.93642 16.3124L30.3995 7.4084Z" fill="black"/>
<path d="M19.1139 3.88525C18.4751 1.67584 17.7481 0.450421 16.9215 0.473715C15.3233 0.518891 14.7862 5.58642 15.3036 12.0798C15.8259 18.6424 17.1812 23.5716 18.8725 23.5271C19.8805 23.501 20.4481 21.8881 20.6478 19.0871C20.6521 19.0306 20.5878 19.0695 20.5913 19.0109C20.5913 19.0109 20.5829 18.9085 20.5455 18.9064L20.3309 18.8923C20.1544 21.6099 19.6236 23.177 18.8626 23.1982C17.4735 23.2335 16.1309 18.3579 15.6297 12.0537C15.1356 5.85254 15.6678 0.837247 16.9299 0.801953C17.5271 0.785012 18.197 1.91372 18.7892 3.94878L19.1139 3.87819V3.88525Z" fill="black"/>
<path d="M11.1939 2.30824C9.83156 3.14683 11.9012 7.80353 15.5958 13.1689C19.3299 18.5901 22.9687 22.1817 24.4102 21.2979C25.2149 20.8038 24.989 19.3045 23.9513 17.0414C23.928 16.9849 23.8765 16.9475 23.8102 16.9405C23.7438 16.9334 23.6916 16.9617 23.6577 17.0111C23.6238 17.0605 23.6189 17.124 23.6464 17.1784C24.6106 19.2819 24.8182 20.6584 24.2309 21.0184C23.045 21.7454 19.4464 18.192 15.8591 12.9826C12.3311 7.8593 10.284 3.2513 11.3591 2.58848C11.9309 2.23695 13.2876 3.08542 15.0826 4.91789C15.1024 4.93906 15.2167 5.05695 15.2429 5.06471C15.2993 5.08165 15.2711 4.96377 15.3149 4.92C15.3459 4.88965 15.3643 4.84801 15.3643 4.80424C15.3643 4.76048 15.348 4.71953 15.317 4.68777C13.3998 2.72965 11.9612 1.83036 11.1861 2.30753L11.1939 2.30824Z" fill="black"/>
<path fill-rule="evenodd" clip-rule="evenodd" d="M45.2074 13.9462H48.8003V15.7412H43.1123V8.25886H48.8003V10.0546H45.2074V10.9532H47.4521V12.7497H45.2074V13.9462ZM61.5224 13.9462H64.8154V15.7412H59.4274V8.25886H61.5238L61.5224 13.9462ZM66.9111 8.25815H69.0076V15.7412H66.9111V8.25815ZM71.4003 8.25815V15.7412H73.3464V11.5497L76.0407 15.7412H77.9869V8.25745H76.0407V12.5111L73.3464 8.26874L71.4003 8.25815Z" fill="black"/>
<path d="M52.9903 11.7007H54.4896C54.6074 11.7007 54.7241 11.6775 54.833 11.6323C54.9418 11.5872 55.0407 11.5211 55.124 11.4377C55.2073 11.3543 55.2733 11.2553 55.3183 11.1463C55.3632 11.0374 55.3862 10.9207 55.3861 10.8029C55.3864 10.685 55.3634 10.5682 55.3185 10.4592C55.2735 10.3501 55.2075 10.2511 55.1243 10.1676C55.041 10.0841 54.942 10.0179 54.8332 9.97274C54.7243 9.92749 54.6075 9.90427 54.4896 9.90427H52.9896V11.7007H52.9903ZM54.7889 8.25815C55.4637 8.25815 56.1103 8.52639 56.5875 9.00356C57.0647 9.48074 57.3322 10.128 57.3322 10.8036C57.3322 11.4791 57.064 12.1257 56.5875 12.6036C56.111 13.0814 55.4637 13.349 54.7889 13.349H53.2007V15.7412H51.0449V8.25745H54.7882L54.7889 8.25815Z" fill="black"/>
<path fill-rule="evenodd" clip-rule="evenodd" d="M40.7175 10.0538V8.25879H34.5806V10.0545H38.0232L34.5806 13.9467V15.7433H40.7175V13.9467H37.4246L40.7175 10.0538Z" fill="black"/>
</svg>
