<svg width="70" height="24" viewBox="0 0 70 24" fill="none" xmlns="http://www.w3.org/2000/svg">
<g clip-path="url(#clip0_1358_224850)">
<path d="M69.8712 5.11182V21.5728L67.5933 23.7966V7.68809L69.8712 5.11182Z" fill="black"/>
<path d="M54.9423 5.12538L52.583 7.68809L52.705 7.8508L67.4983 7.79656L67.6339 7.68809L69.8711 5.11182L54.9423 5.12538Z" fill="black"/>
<path d="M67.6339 7.68811H52.583V23.8101H67.6339V7.68811Z" fill="black"/>
<path d="M65.3422 13.4915C65.0439 12.7457 64.5964 12.0678 64.0134 11.4847C63.4575 10.9152 62.8337 10.4813 62.1286 10.1966C61.4371 9.91185 60.6914 9.7627 59.8778 9.7627C59.0642 9.7627 58.3049 9.91185 57.6134 10.1966C56.9083 10.4813 56.2846 10.9152 55.7286 11.4847C55.1456 12.0678 54.7117 12.7457 54.4134 13.4915C54.1151 14.2373 53.9795 15.0508 53.9795 15.9457C53.9795 16.8135 54.1286 17.6271 54.4269 18.3864C54.7253 19.1457 55.1592 19.8237 55.7422 20.4203C56.2846 20.9763 56.9083 21.3966 57.5998 21.6813C58.2914 21.9661 59.0642 22.1152 59.8914 22.1152C60.6914 22.1152 61.4371 21.9661 62.1286 21.6813C62.8202 21.3966 63.4575 20.9763 64.0134 20.4203C64.5964 19.8237 65.0439 19.1457 65.3422 18.4C65.6405 17.6542 65.7897 16.8271 65.7897 15.9593C65.7897 15.0508 65.6405 14.2373 65.3422 13.4915ZM62.2371 18.8068C61.6541 19.4983 60.8812 19.8508 59.8778 19.8508C58.8744 19.8508 58.088 19.4983 57.5049 18.8068C56.9219 18.1152 56.6371 17.1525 56.6371 15.9322C56.6371 14.6847 56.9354 13.722 57.5049 13.0169C58.088 12.3118 58.8608 11.9729 59.8778 11.9729C60.8812 11.9729 61.6541 12.3254 62.2371 13.0169C62.8066 13.722 63.1049 14.6847 63.1049 15.9322C63.1049 17.1525 62.8202 18.1152 62.2371 18.8068Z" fill="white"/>
<path d="M51.1052 3.76953V3.85089L53.0306 18.6441L51.9052 21.7628L51.756 21.6543L49.7764 7.47123L49.817 7.2814L51.0509 3.85089L51.1052 3.76953Z" fill="black"/>
<path d="M36.2847 5.83055L51.1051 3.76953L49.8576 7.32207L49.6814 7.5119L35.8237 9.5458L35.8915 7.01021L36.2847 5.83055Z" fill="black"/>
<path d="M49.8575 7.32202L51.9049 21.7627L37.3016 23.8102L35.3354 9.85762L36.1897 9.19321L49.8575 7.32202Z" fill="black"/>
<path d="M47.3762 10.0882C47.3085 9.64073 47.1593 9.30174 46.9152 9.07124C46.7118 8.89496 46.4678 8.80005 46.183 8.80005C46.1152 8.80005 46.0339 8.80005 45.9525 8.81361C45.5729 8.86785 45.2881 9.04412 45.1118 9.32886C44.9763 9.53225 44.922 9.78988 44.922 10.0882C44.922 10.1967 44.9356 10.3187 44.9491 10.4407L45.4779 14.1967L41.2746 14.8204L40.7457 11.0645C40.6779 10.6306 40.5288 10.2916 40.2847 10.0611C40.0813 9.87124 39.8373 9.77632 39.5661 9.77632C39.4983 9.77632 39.4305 9.77632 39.3627 9.78988C38.9695 9.84412 38.6712 10.0204 38.4813 10.3051C38.3457 10.5085 38.2915 10.7661 38.2915 11.0645C38.2915 11.1729 38.3051 11.295 38.3186 11.4306L39.7559 21.2068C39.8237 21.6543 39.9729 21.9933 40.244 22.2238C40.4474 22.4 40.6915 22.4814 40.9898 22.4814C41.0712 22.4814 41.1525 22.4814 41.2339 22.4678C41.6 22.4136 41.8712 22.2373 42.0474 21.9526C42.1695 21.7492 42.2237 21.5051 42.2237 21.2204C42.2237 21.1119 42.2101 20.9899 42.1966 20.8678L41.6135 17.0034L45.8169 16.3797L46.4 20.2441C46.4678 20.6916 46.6169 21.0306 46.8746 21.2475C47.0779 21.4238 47.322 21.5187 47.6068 21.5187C47.6746 21.5187 47.7559 21.5187 47.8373 21.5051C48.2169 21.4509 48.5017 21.2746 48.6779 20.9899C48.8 20.7865 48.8678 20.5424 48.8678 20.2441C48.8678 20.1356 48.8542 20.0136 48.8407 19.8916L47.3762 10.0882Z" fill="white"/>
<path d="M22.4132 0L17.1387 12.5288L17.8573 18.0339L17.898 18.0203L23.8234 4.69153L23.7963 4.40678L22.5217 0.176271L22.4132 0Z" fill="black"/>
<path d="M22.4131 0L23.7826 4.59661L23.8097 4.69152L36.8538 10.5356L36.8944 10.5085L35.7826 6.11525L22.4131 0Z" fill="black"/>
<path d="M23.7828 4.59656L36.8947 10.5084L30.9693 23.9457L17.8574 18.0338L23.7828 4.59656Z" fill="black"/>
<path d="M32.9219 11.5932C32.6372 10.8339 32.2439 10.183 31.7287 9.64063C31.2134 9.09826 30.5897 8.66436 29.8575 8.3525C29.1253 8.04063 28.3931 7.89148 27.6473 7.89148H27.6067C26.8473 7.89148 26.1016 8.06775 25.3694 8.39317C24.5965 8.73216 23.9321 9.19317 23.3626 9.80334C22.7931 10.4 22.3321 11.1322 21.9795 11.9728C21.627 12.8 21.4372 13.6406 21.3965 14.4678V14.7525C21.3965 15.4847 21.5185 16.2033 21.7761 16.9084C22.0473 17.6542 22.4406 18.2915 22.9558 18.8339C23.4711 19.3762 24.1083 19.8101 24.8677 20.122C25.5863 20.4339 26.3185 20.583 27.0643 20.583H27.0778C27.8236 20.583 28.5694 20.4203 29.3016 20.1084C30.0744 19.7694 30.7524 19.2949 31.3219 18.6847C31.8914 18.0881 32.366 17.3694 32.7185 16.5288C33.0711 15.6881 33.2609 14.861 33.3016 14.0339V13.7898C33.3151 13.044 33.1931 12.3118 32.9219 11.5932ZM30.305 15.4983C29.8168 16.6644 29.1524 17.4644 28.3524 17.8983C27.9185 18.1288 27.4711 18.2508 27.0236 18.2508C26.6304 18.2508 26.21 18.1559 25.7897 17.9796C24.8677 17.5864 24.2982 16.9627 24.0541 16.0678C23.9728 15.7694 23.9321 15.4576 23.9321 15.1322C23.9321 14.4813 24.0948 13.7627 24.4202 12.9898C24.9219 11.7966 25.5863 10.983 26.3863 10.5355C26.8202 10.2915 27.2677 10.183 27.7151 10.183C28.1219 10.183 28.5287 10.2779 28.9626 10.4542C29.8711 10.8474 30.4405 11.4711 30.6846 12.3661C30.766 12.6508 30.8067 12.9627 30.8067 13.2881C30.8067 13.9661 30.6439 14.6983 30.305 15.4983Z" fill="white"/>
<path d="M16.0947 2.12878L18.2371 16.4745L17.2608 21.5186L17.1252 21.3423L15.0371 7.48472V7.21353L15.9591 2.37285L16.0947 2.12878Z" fill="black"/>
<path d="M0.447266 9.54573L1.46421 4.47455L16.0947 2.12878L15.1049 7.29489V7.63387L0.623537 9.68133L0.447266 9.54573Z" fill="black"/>
<path d="M15.1049 7.29492L17.2608 21.5187L2.77947 23.7831L0.447266 9.54577L15.1049 7.29492Z" fill="black"/>
<path d="M13.5455 19.2542C13.4371 19.1186 13.2744 19.0237 13.0845 18.9559C12.8947 18.8881 12.6642 18.861 12.3794 18.861C12.1218 18.861 11.8235 18.8881 11.4981 18.9424L7.67435 19.5932C7.71503 19.2949 7.86418 18.9152 8.12181 18.4407C8.40655 17.9119 8.84045 17.2746 9.39638 16.5424C9.58622 16.2847 9.73537 16.0949 9.84384 15.9593C9.91164 15.8644 10.0201 15.7424 10.1557 15.5661C11.0371 14.4135 11.5659 13.478 11.7828 12.7458C11.9049 12.3254 11.9727 11.9051 11.9998 11.4847C12.0133 11.3627 12.0133 11.2542 12.0133 11.1458C12.0133 10.8474 11.9862 10.5491 11.932 10.2508C11.8913 9.97965 11.8235 9.7627 11.7286 9.58643C11.6337 9.41016 11.5252 9.27457 11.3896 9.19321C11.2405 9.0983 11.0099 9.05762 10.7252 9.05762C10.4947 9.05762 10.2099 9.08474 9.87096 9.13897L5.45062 9.8983C4.92181 9.99321 4.51503 10.1424 4.27096 10.3864C4.06757 10.5763 3.97266 10.8203 3.97266 11.0915C3.97266 11.1593 3.97266 11.2407 3.98622 11.322C4.05401 11.7017 4.24384 11.9729 4.55571 12.1085C4.74554 12.1898 4.96249 12.2305 5.23367 12.2305C5.40994 12.2305 5.61333 12.2169 5.83028 12.1763L9.51842 11.5254C9.51842 11.5932 9.53198 11.661 9.53198 11.7152C9.53198 11.9458 9.4913 12.1763 9.40994 12.3932C9.30147 12.7051 9.03028 13.139 8.58283 13.6949C8.46079 13.8441 8.27096 14.0881 8.01333 14.4C7.00994 15.6068 6.30486 16.6373 5.87096 17.4915C5.5591 18.0881 5.35571 18.6576 5.23367 19.2407C5.16588 19.5797 5.1252 19.8915 5.1252 20.2034C5.1252 20.4203 5.13876 20.6373 5.17944 20.8407C5.23367 21.139 5.30147 21.383 5.39638 21.5729C5.4913 21.7627 5.62689 21.9119 5.77605 21.9932C5.9252 22.0746 6.12859 22.1017 6.42689 22.1017C6.79299 22.1017 7.29469 22.0474 7.93198 21.939L11.9455 21.2474C12.6506 21.1254 13.1523 20.9491 13.4371 20.7186C13.6676 20.5288 13.7896 20.2712 13.7896 19.9729C13.7896 19.8915 13.776 19.8102 13.7625 19.7288C13.7354 19.5525 13.6676 19.3898 13.5455 19.2542Z" fill="white"/>
</g>
<defs>
<clipPath id="clip0_1358_224850">
<rect width="69.4237" height="24" fill="white" transform="translate(0.447266)"/>
</clipPath>
</defs>
</svg>
