<svg width="24" height="24" viewBox="0 0 24 24" fill="none" xmlns="http://www.w3.org/2000/svg">
    <path d="M1.5 8.96667C1.5 6.35309 1.5 5.0463 2.00864 4.04804C2.45605 3.16995 3.16995 2.45605 4.04804 2.00864C5.0463 1.5 6.35309 1.5 8.96667 1.5H15.0333C17.6469 1.5 18.9537 1.5 19.952 2.00864C20.83 2.45605 21.544 3.16995 21.9914 4.04804C22.5 5.0463 22.5 6.35309 22.5 8.96667V15.0333C22.5 17.6469 22.5 18.9537 21.9914 19.952C21.544 20.83 20.83 21.544 19.952 21.9914C18.9537 22.5 17.6469 22.5 15.0333 22.5H8.96667C6.35309 22.5 5.0463 22.5 4.04804 21.9914C3.16995 21.544 2.45605 20.83 2.00864 19.952C1.5 18.9537 1.5 17.6469 1.5 15.0333V8.96667Z"
          fill="url(#paint0_linear_10259_261015)"/>
    <path d="M4.73356 8.63402C4.5 9.0783 4.5 9.65989 4.5 10.8231V13.1769C4.5 14.3401 4.5 14.9217 4.73356 15.366C4.939 15.7568 5.26682 16.0745 5.67002 16.2736C6.1284 16.5 6.72846 16.5 7.92857 16.5H11.5476C12.7477 16.5 13.3478 16.5 13.8062 16.2736C14.2094 16.0745 14.5372 15.7568 14.7426 15.366C14.9762 14.9217 14.9762 14.3401 14.9762 13.1769V10.8231C14.9762 9.65989 14.9762 9.0783 14.7426 8.63402C14.5372 8.24322 14.2094 7.92549 13.8062 7.72637C13.3478 7.5 12.7477 7.5 11.5476 7.5H7.92857C6.72846 7.5 6.1284 7.5 5.67002 7.72637C5.26682 7.92549 4.939 8.24322 4.73356 8.63402Z"
          fill="white"/>
    <path d="M15.793 10.0502L18.1313 8.15042C18.6737 7.70981 19.5 8.08353 19.5 8.76941V15.25C19.5 15.9326 18.6806 16.3075 18.1369 15.8735L15.7993 14.0077C15.5796 13.8323 15.4524 13.571 15.4524 13.2951V10.7576C15.4524 10.4846 15.5771 10.2256 15.793 10.0502Z"
          fill="white"/>
    <defs>
        <linearGradient id="paint0_linear_10259_261015" x1="12" y1="1.5" x2="12" y2="22.5"
                        gradientUnits="userSpaceOnUse">
            <stop stop-color="#61F677"/>
            <stop offset="1" stop-color="#10BC2B"/>
        </linearGradient>
    </defs>
</svg>
