<svg width="24" height="24" viewBox="0 0 24 24" fill="none" xmlns="http://www.w3.org/2000/svg">
    <path d="M22.5 10.8734C22.5 6.11844 17.7899 2.25 11.9999 2.25C6.2107 2.25 1.5 6.11844 1.5 10.8734C1.5 15.1362 5.23547 18.7062 10.2813 19.3813C10.6233 19.4559 11.0887 19.6095 11.2064 19.9053C11.3123 20.174 11.2757 20.5948 11.2402 20.8662C11.2402 20.8662 11.1171 21.616 11.0905 21.7757C11.0448 22.0444 10.8795 22.8265 11.9999 22.3486C13.1207 21.8707 18.0469 18.7452 20.2498 16.179C21.7715 14.4903 22.5 12.7765 22.5 10.8734Z"
          fill="#2CCF54"/>
    <path d="M9.86651 8.56829H9.13C9.01708 8.56829 8.92529 8.66087 8.92529 8.77461V13.3995C8.92529 13.5135 9.01708 13.6058 9.13 13.6058H9.86651C9.97943 13.6058 10.071 13.5135 10.071 13.3995V8.77461C10.071 8.66087 9.97943 8.56829 9.86651 8.56829Z"
          fill="white"/>
    <path d="M14.936 8.56829H14.1995C14.0866 8.56829 13.995 8.66087 13.995 8.77461V11.5223L11.8984 8.66005C11.8596 8.60126 11.7967 8.57214 11.7281 8.56829H10.9918C10.8789 8.56829 10.7871 8.66087 10.7871 8.77461V13.3995C10.7871 13.5135 10.8789 13.6058 10.9918 13.6058H11.7281C11.8412 13.6058 11.9328 13.5135 11.9328 13.3995V10.6527L14.032 13.5185C14.0697 13.5725 14.1337 13.6058 14.1995 13.6058H14.936C15.0491 13.6058 15.1405 13.5135 15.1405 13.3995V8.77461C15.1405 8.66087 15.0491 8.56829 14.936 8.56829Z"
          fill="white"/>
    <path d="M8.09105 12.4478H6.08986V8.77494C6.08986 8.66079 5.99827 8.56821 5.88555 8.56821H5.14884C5.03592 8.56821 4.94434 8.66079 4.94434 8.77494V13.399C4.94434 13.5113 5.03552 13.606 5.14864 13.606H8.09105C8.20397 13.606 8.29515 13.5132 8.29515 13.399V12.6545C8.29515 12.5404 8.20397 12.4478 8.09105 12.4478Z"
          fill="white"/>
    <path d="M19.0032 9.72637C19.1161 9.72637 19.2073 9.63399 19.2073 9.51964V8.77514C19.2073 8.66099 19.1161 8.56821 19.0032 8.56821H16.061C15.948 8.56821 15.8564 8.66271 15.8564 8.77494V13.3992C15.8564 13.5112 15.9477 13.606 16.0605 13.606H19.0032C19.1161 13.606 19.2073 13.5132 19.2073 13.3992V12.6545C19.2073 12.5406 19.1161 12.4478 19.0032 12.4478H17.0022V11.6661H19.0032C19.1161 11.6661 19.2073 11.5735 19.2073 11.4593V10.7148C19.2073 10.6007 19.1161 10.5079 19.0032 10.5079H17.0022V9.72637H19.0032Z"
          fill="white"/>
</svg>
