<svg width="24" height="24" viewBox="0 0 24 24" fill="none" xmlns="http://www.w3.org/2000/svg">
    <ellipse cx="7.875" cy="7.5" rx="6.375" ry="6" fill="#184AA9"/>
    <circle cx="16.5" cy="16.5" r="6" fill="#2173F0"/>
    <circle cx="12" cy="12" r="9.75" fill="url(#paint0_linear_10259_260986)"/>
    <path d="M12.0516 6.75C13.6366 6.75 15.75 7.5 15.2217 8.5C14.4995 9.8668 13.1083 8.5 12.0516 8.5C10.9949 8.5 10.4665 9 10.4665 9.5C10.4665 10 10.7307 10.5 12.0516 11C13.3724 11.5 15.75 12.25 15.75 14.25C15.75 16.25 13.9008 17.25 11.5232 17.25C9.39339 17.25 7.8248 16.25 8.35315 15.25C8.96075 14.1 10.4665 15.5 11.5232 15.5C12.5799 15.5 13.6366 15.25 13.6366 14.25C13.6366 13.25 12.0516 13 10.9949 12.5C9.67398 11.875 8.35313 11.25 8.35313 9.5C8.35313 7.75 10.4665 6.75 12.0516 6.75Z"
          fill="white"/>
    <defs>
        <linearGradient id="paint0_linear_10259_260986" x1="4.41667" y1="6.04167" x2="19.0417" y2="18.2292"
                        gradientUnits="userSpaceOnUse">
            <stop stop-color="#297AC0"/>
            <stop offset="1" stop-color="#48B0F9"/>
        </linearGradient>
    </defs>
</svg>
