<svg width="24" height="24" viewBox="0 0 24 24" fill="none" xmlns="http://www.w3.org/2000/svg">
    <path fill-rule="evenodd" clip-rule="evenodd"
          d="M22.5 11.5338C22.5 4.65524 20.0769 1.5 12 1.5C3.92308 1.5 1.5 4.65524 1.5 11.5338C1.5 16.4291 2.72722 19.4386 6.34615 20.7671V23.0831C6.34615 23.9355 7.41577 24.3249 7.96982 23.6742L9.83728 21.4808C10.5085 21.5389 11.2284 21.5677 12 21.5677C20.0769 21.5677 22.5 18.4124 22.5 11.5338ZM10.2834 19.8987C10.8189 19.9412 11.3904 19.9623 12 19.9623C18.8343 19.9623 20.8846 17.3119 20.8846 11.5338C20.8846 5.75582 18.8343 3.10541 12 3.10541C5.16568 3.10541 3.11538 5.75582 3.11538 11.5338C3.11538 15.6179 4.13974 18.1394 7.15385 19.2669V22.6979C7.15385 22.997 7.52915 23.1336 7.72356 22.9053L10.2834 19.8987Z"
          fill="#BFC8D0"/>
    <path d="M12 19.3911C11.3825 19.3911 10.8035 19.3696 10.2611 19.3264L7.66802 22.3837C7.47109 22.6159 7.09091 22.477 7.09091 22.1729V18.6839C4.03766 17.5375 3 14.9735 3 10.8205C3 4.94509 5.07692 2.25 12 2.25C18.9231 2.25 21 4.94509 21 10.8205C21 16.696 18.9231 19.3911 12 19.3911Z"
          fill="#9179EE"/>
    <path fill-rule="evenodd" clip-rule="evenodd"
          d="M22.5 10.7838C22.5 3.90524 20.0769 0.75 12 0.75C3.92308 0.75 1.5 3.90524 1.5 10.7838C1.5 15.6791 2.72722 18.6886 6.34615 20.0171V22.3331C6.34615 23.1855 7.41577 23.5749 7.96982 22.9242L9.83728 20.7308C10.5085 20.7889 11.2284 20.8177 12 20.8177C20.0769 20.8177 22.5 17.6624 22.5 10.7838ZM10.2834 19.1487C10.8189 19.1912 11.3904 19.2123 12 19.2123C18.8343 19.2123 20.8846 16.5619 20.8846 10.7838C20.8846 5.00582 18.8343 2.35541 12 2.35541C5.16568 2.35541 3.11538 5.00582 3.11538 10.7838C3.11538 14.8679 4.13974 17.3894 7.15385 18.5169V21.9479C7.15385 22.247 7.52915 22.3836 7.72356 22.1553L10.2834 19.1487Z"
          fill="white"/>
    <path d="M8.59685 8.99152L8.5562 9.01403L8.52039 9.04365C8.28457 9.23873 7.93673 9.76773 8.24084 10.4177C8.46963 10.9067 8.98474 11.9181 9.89497 12.6827C10.7791 13.4254 11.7257 13.8276 12.3561 13.9605L12.4072 13.9713H12.4477C12.4481 13.9713 12.4486 13.9714 12.449 13.9715L12.4707 13.9749L12.5043 13.9807L12.5905 13.4881L12.5043 13.9807C12.5097 13.9816 12.5154 13.9826 12.5213 13.9837C12.7116 14.0175 13.2194 14.1078 13.6429 13.6859C13.8819 13.4477 14.1003 13.2 14.2008 13.0809C14.2075 13.0755 14.219 13.0669 14.2357 13.0567C14.2632 13.0399 14.2983 13.0228 14.339 13.0101C14.4169 12.9857 14.5147 12.9767 14.6319 13.0163C15.1354 13.1865 15.7425 13.5749 16.0427 13.7768C16.2726 13.9316 16.7957 14.3063 17.0328 14.4775C17.0325 14.4773 17.0324 14.4772 17.0324 14.4772C17.0323 14.4773 17.0407 14.484 17.0518 14.498C17.0639 14.5131 17.0738 14.53 17.0802 14.5466C17.0862 14.5621 17.089 14.5768 17.0887 14.5924C17.0884 14.6071 17.0851 14.6336 17.0663 14.6739C16.987 14.8437 16.7293 15.1936 16.3715 15.5039C16.0047 15.822 15.6455 16 15.3804 16C15.3886 16 15.3882 15.9999 15.3773 15.9982C15.3599 15.9954 15.3158 15.9884 15.2368 15.9707C15.1255 15.9457 14.9734 15.9061 14.7862 15.8497C14.4122 15.7372 13.9088 15.5613 13.3266 15.3108C12.1609 14.8093 10.6944 14.0156 9.32238 12.8477C8.46401 12.1171 7.65019 11.1029 7.01435 10.1494C6.37135 9.18521 5.94858 8.34085 5.83667 7.96356L5.82571 7.92663L5.80923 7.89181C5.78718 7.84524 5.75073 7.73125 5.75001 7.60133C5.74933 7.4782 5.77994 7.37132 5.85196 7.28501C6.16123 6.91439 6.48134 6.55815 7.19481 6.21299C7.24734 6.18757 7.33685 6.16275 7.42382 6.16135C7.50019 6.16012 7.52732 6.17658 7.52843 6.17693C7.80583 6.42041 8.23525 6.8496 8.5228 7.2138C8.67341 7.40456 8.85587 7.64747 9.0079 7.85854C9.08393 7.96409 9.15053 8.05916 9.20083 8.13417C9.23943 8.19171 9.25964 8.22462 9.26789 8.23813C9.26922 8.24384 9.27104 8.25255 9.27286 8.26443C9.27792 8.29735 9.28041 8.33879 9.27693 8.38171C9.2697 8.47085 9.24188 8.52488 9.20744 8.55641C8.99755 8.74863 8.7088 8.92952 8.59685 8.99152Z"
          fill="white" stroke="white" stroke-linecap="round"/>
</svg>
