<svg width="24" height="24" viewBox="0 0 24 24" fill="none" xmlns="http://www.w3.org/2000/svg">
    <g clip-path="url(#clip0_10259_261055)">
        <rect x="2" y="2" width="28" height="28" fill="#D097F9"/>
        <rect x="3" y="3" width="26" height="26" fill="#1F063E"/>
        <path d="M7.48743 14.2897L6.78248 17.1406C6.7679 17.2187 6.73875 17.2489 6.65024 17.2489H5.34342C5.25491 17.2489 5.24034 17.2176 5.25491 17.1071L7.78108 7.62658C7.82481 7.4535 7.85501 7.31727 7.86959 6.84492C7.86959 6.78238 7.89874 6.75 7.94352 6.75H9.80847C9.86678 6.75 9.89593 6.76563 9.91155 6.84492L12.7459 17.1227C12.7605 17.202 12.7459 17.2489 12.672 17.2489H11.2038C11.1309 17.2489 11.0861 17.2187 11.0715 17.1562L10.3374 14.2897H7.48743ZM8.91192 8.25303L7.85709 12.7398L9.98548 12.7409L8.91192 8.25303ZM14.7556 13.7169C14.7702 15.0077 15.3429 15.8743 16.6945 15.8743C17.2235 15.8743 17.6764 15.7994 18.1461 15.5783C18.2044 15.5471 18.2491 15.5627 18.2491 15.6409V16.8379C18.2491 16.9329 18.22 16.9798 18.1606 17.0267C17.691 17.279 16.875 17.2489 16.5 17.2489C14.1509 17.2489 13.1406 15.5303 13.1406 13.4511C13.1406 11.1988 14.2277 9.35629 16.1364 9.35629C18.0742 9.35629 18.75 11.1039 18.75 12.522C18.75 12.9788 18.7208 13.3562 18.6771 13.5304C18.6625 13.6086 18.6334 13.6365 18.5594 13.6521C18.3835 13.6834 17.8545 13.7146 17.0767 13.7146L14.7556 13.7169ZM16.5623 12.4048C17.0173 12.4048 17.1787 12.4048 17.2235 12.3892C17.2235 11.6542 16.9894 10.751 16.0781 10.751C15.2263 10.751 14.8587 11.5539 14.7712 12.4048H16.5623Z"
              fill="#D097F9"/>
    </g>
    <defs>
        <clipPath id="clip0_10259_261055">
            <rect width="24" height="24" fill="white"/>
        </clipPath>
    </defs>
</svg>
