<svg width="24" height="24" viewBox="0 0 24 24" fill="none" xmlns="http://www.w3.org/2000/svg">
    <g clip-path="url(#clip0_10259_261060)">
        <rect x="2" y="2" width="28" height="28" fill="#32CAFA"/>
        <rect x="3" y="3" width="26" height="26" fill="#021D25"/>
        <path d="M6 6.90695C6 6.84462 6.13454 6.79675 6.21238 6.79675C6.82394 6.76558 7.72128 6.75 8.66308 6.75C11.2973 6.75 12.3236 8.19482 12.3236 10.0459C12.3236 12.4636 10.5723 13.4999 8.42402 13.4999C8.06375 13.4999 7.9381 13.4843 7.68681 13.4843V17.1398C7.68681 17.2188 7.65567 17.25 7.57672 17.25H6.11008C6.03113 17.25 6 17.2188 6 17.1398V6.90695ZM7.68681 11.9616C7.90586 11.9772 8.07932 11.9772 8.45515 11.9772C9.5682 11.9772 10.6145 11.5843 10.6145 10.0782C10.6145 8.86937 9.86731 8.25716 8.59637 8.25716C8.22053 8.25716 7.85916 8.27274 7.68681 8.28832V11.9616ZM15.8673 10.8307C15.1145 10.8307 14.8632 11.208 14.8632 11.5219C14.8632 11.867 15.0356 12.103 16.0397 12.6206C17.5297 13.343 18 14.0331 18 15.0538C18 16.5766 16.8391 17.25 15.2713 17.25C14.4407 17.25 13.7324 17.0819 13.3254 16.8459C13.2632 16.8147 13.2465 16.768 13.2465 16.6889V15.4301C13.2465 15.3354 13.2932 15.3043 13.3566 15.351C13.9526 15.744 14.6442 15.9165 15.2713 15.9165C16.0241 15.9165 16.3377 15.6026 16.3377 15.1785C16.3377 14.8334 16.1186 14.5351 15.1612 14.0331C13.8125 13.3897 13.2476 12.7296 13.2476 11.631C13.2476 10.4066 14.2039 9.48353 15.8662 9.48353C16.6812 9.48353 17.2572 9.51164 17.5708 9.653C17.6497 9.69975 17.6653 9.77878 17.6653 9.84112V11.1446C17.6653 11.2225 17.6186 11.2704 17.5241 11.2392C17.2217 11.0596 16.6201 10.8307 15.8673 10.8307Z"
              fill="#32CAFA"/>
    </g>
    <defs>
        <clipPath id="clip0_10259_261060">
            <rect width="24" height="24" fill="white"/>
        </clipPath>
    </defs>
</svg>
