<svg width="24" height="24" viewBox="0 0 24 24" fill="none" xmlns="http://www.w3.org/2000/svg">
    <g clip-path="url(#clip0_10259_261045)">
        <rect x="2" y="2" width="28" height="28" fill="#ADD5EC"/>
        <rect x="3" y="3" width="26" height="26" fill="#022326"/>
        <path fill-rule="evenodd" clip-rule="evenodd"
              d="M7.6176 17.2405C7.52352 17.2405 7.5 17.1929 7.5 17.0978V6.87364C7.5 6.79755 7.52352 6.75 7.59408 6.75H8.83275C8.89547 6.75 8.91115 6.77853 8.91115 6.86413V15.6712H12.1411C12.2038 15.6712 12.2274 15.6997 12.2117 15.7853L12.0157 17.1359C12 17.212 11.9608 17.25 11.8981 17.25L7.6176 17.2405ZM13.4582 10.1549C13.4582 10.0788 13.4739 10.0598 13.5209 10.0312C13.9991 9.79348 15.1359 9.375 16.4059 9.375C16.4686 9.375 16.5 9.39402 16.5 9.47011V10.8397C16.5 10.9158 16.4765 10.9348 16.4059 10.9348C15.912 10.9062 15.1829 10.9823 14.9085 11.125V17.1264C14.9085 17.2024 14.885 17.2405 14.8145 17.2405H13.5836C13.5209 17.2405 13.4895 17.212 13.4895 17.1264L13.4582 10.1549Z"
              fill="#ADD5EC"/>
    </g>
    <defs>
        <clipPath id="clip0_10259_261045">
            <rect width="24" height="24" fill="white"/>
        </clipPath>
    </defs>
</svg>
