<svg width="24" height="24" viewBox="0 0 24 24" fill="none" xmlns="http://www.w3.org/2000/svg">
    <g clip-path="url(#clip0_10259_261050)">
        <rect x="2" y="2" width="28" height="28" fill="#FB7C33"/>
        <rect x="3" y="3" width="26" height="26" fill="#261302"/>
        <path d="M8.97755 14.3705L8.27539 17.1555C8.26087 17.2315 8.23183 17.25 8.14367 17.25H6.84203C6.75491 17.25 6.74039 17.2196 6.75491 17.112L9.27107 7.87574C9.31463 7.70731 9.34471 7.56171 9.35923 7.10207C9.35923 7.04121 9.38827 7.0097 9.43287 7.0097H11.2904C11.3485 7.0097 11.3786 7.02492 11.3931 7.10207L14.2163 17.1272C14.2308 17.2033 14.2163 17.25 14.1426 17.25H12.6802C12.6076 17.25 12.563 17.2315 12.5485 17.1707L11.8173 14.3705H8.97755ZM11.4491 12.8611L10.3964 8.4962L9.35819 12.8611H11.4491ZM15.437 7.69971C15.437 7.10206 15.8322 6.75 16.3435 6.75C16.8849 6.75 17.25 7.13358 17.25 7.69971C17.25 8.31256 16.8694 8.64941 16.329 8.64941C15.8021 8.64941 15.437 8.31256 15.437 7.69971ZM15.5366 9.81101C15.5366 9.73386 15.5656 9.70343 15.6393 9.70343H17.0301C17.1038 9.70343 17.1328 9.73386 17.1328 9.81101V17.1424C17.1328 17.2196 17.1183 17.25 17.0301 17.25H15.6538C15.5656 17.25 15.5366 17.2044 15.5366 17.1272V9.81101Z"
              fill="#FB7C33"/>
    </g>
    <defs>
        <clipPath id="clip0_10259_261050">
            <rect width="24" height="24" fill="white"/>
        </clipPath>
    </defs>
</svg>
