<svg width="24" height="24" viewBox="0 0 24 24" fill="none" xmlns="http://www.w3.org/2000/svg">
    <g clip-path="url(#clip0_10259_261065)">
        <rect x="2" y="2" width="28" height="28" fill="#F9488E"/>
        <rect x="3" y="3" width="26" height="26" fill="#2C0213"/>
        <path d="M9.10834 17.1238C9.10834 17.2176 9.09371 17.25 8.99025 17.25H7.61809C7.52926 17.25 7.5 17.2031 7.5 17.1238V6.8762C7.5 6.78127 7.54389 6.75 7.61809 6.75H9.00488C9.07908 6.75 9.10834 6.78127 9.10834 6.86056V17.1238ZM10.6641 13.348C10.6641 11.0641 12.0982 9.36439 14.3535 9.36439C14.5447 9.36439 14.6482 9.36439 14.8248 9.38003V6.84493C14.8248 6.78239 14.8687 6.75 14.9136 6.75H16.3673C16.4404 6.75 16.4561 6.78127 16.4561 6.82929V15.758C16.4561 16.026 16.4561 16.3566 16.5 16.7184C16.5 16.7809 16.4812 16.7977 16.4227 16.829C15.6566 17.2232 14.7737 17.25 14.0077 17.25C11.5529 17.25 10.6716 15.5209 10.6641 13.348ZM14.8248 10.9223C14.6921 10.8598 14.5154 10.8274 14.2939 10.8274C13.1443 10.8274 12.3386 11.7722 12.3386 13.348C12.3386 15.1437 13.159 15.8674 14.1904 15.8674C14.412 15.8674 14.6471 15.8362 14.8237 15.7569L14.8248 10.9223Z"
              fill="#F9488E"/>
    </g>
    <defs>
        <clipPath id="clip0_10259_261065">
            <rect width="24" height="24" fill="white"/>
        </clipPath>
    </defs>
</svg>
