<svg width="24" height="24" viewBox="0 0 24 24" fill="none" xmlns="http://www.w3.org/2000/svg">
    <circle cx="12" cy="12" r="10.5" fill="#105DFB"/>
    <path fill-rule="evenodd" clip-rule="evenodd"
          d="M5.15674 16.4696V7.30762H9.39219C10.7526 7.30762 11.8555 8.41047 11.8555 9.7709C11.8555 10.6354 11.5897 11.1709 10.615 11.7203C11.7813 12.2517 12.1052 12.9883 12.1052 14.0156C12.1052 15.4054 10.8706 16.4696 9.48078 16.4696H5.15674ZM6.949 8.82423V11.0274H9.04665C9.04665 11.0274 10.0662 11.0274 10.0662 9.9258C10.0662 8.82423 9.04665 8.82423 9.04665 8.82423H6.949ZM6.949 14.918V12.5391H9.199C9.56228 12.5391 10.324 12.7266 10.324 13.8516C10.324 14.686 9.574 14.9102 9.199 14.918H6.949Z"
          fill="white"/>
    <path fill-rule="evenodd" clip-rule="evenodd"
          d="M15.9373 9.83205C14.6482 9.83205 12.7381 10.7578 12.7381 13.2188C12.7381 14.7173 13.5584 16.6406 16.0193 16.6406C17.9881 16.6406 18.8943 15.1953 19.1013 14.4727H17.2498C17.156 14.8008 16.7927 15.1641 16.0193 15.1641C14.8943 15.1641 14.4959 14.2031 14.4373 13.7227H19.1013V13.2188C19.1013 10.7578 17.2263 9.83205 15.9373 9.83205ZM15.9373 11.2383C14.8873 11.2383 14.4998 12.1055 14.4373 12.5391H17.2498C17.2498 12.1055 16.9873 11.2383 15.9373 11.2383Z"
          fill="white"/>
    <path d="M13.699 7.82814V8.96486H18.117V7.82814H13.699Z" fill="white"/>
</svg>
