<svg width="24" height="24" viewBox="0 0 24 24" fill="none" xmlns="http://www.w3.org/2000/svg">
    <path fill-rule="evenodd" clip-rule="evenodd"
          d="M4.73667 15.1262L3.63809 15.5207L3.5791 18.7332L7.38203 17.3676C6.07767 16.9369 5.12515 16.1792 4.73667 15.1262Z"
          fill="#FDBD39"/>
    <path fill-rule="evenodd" clip-rule="evenodd"
          d="M5.31172 11.7285L1.5 13.0972L3.63822 15.5207L4.7368 15.1263C4.34947 14.0763 4.58833 12.8895 5.31172 11.7285Z"
          fill="#F69833"/>
    <path fill-rule="evenodd" clip-rule="evenodd"
          d="M11.7262 7.09307C6.87231 8.83601 3.74305 12.4326 4.73681 15.1262L22.3142 8.81448C21.3205 6.12081 16.5801 5.35012 11.7262 7.09307Z"
          fill="#FECF33"/>
    <path fill-rule="evenodd" clip-rule="evenodd"
          d="M15.3249 16.8476C20.1787 15.1047 23.3139 11.524 22.3142 8.81445L4.73682 15.1262C5.73644 17.8358 10.471 18.5906 15.3249 16.8476Z"
          fill="#EE6723"/>
    <path fill-rule="evenodd" clip-rule="evenodd"
          d="M22.3142 8.81445L4.73682 15.1262C5.08101 16.0592 6.39354 16.5188 8.23518 16.5188C10.0306 16.5188 12.329 16.0823 14.7251 15.2218C19.579 13.4789 22.994 10.657 22.3142 8.81445Z"
          fill="#F69833"/>
    <path fill-rule="evenodd" clip-rule="evenodd"
          d="M18.8157 7.42188C17.0202 7.42188 14.7219 7.85843 12.3257 8.71884C7.47188 10.4618 4.05685 13.2837 4.73661 15.1262L22.314 8.81448C21.9698 7.88151 20.6573 7.42188 18.8157 7.42188Z"
          fill="#FDBD39"/>
    <path fill-rule="evenodd" clip-rule="evenodd"
          d="M17.8452 18.9033H17.8451C17.3279 18.9033 16.565 18.4441 15.5774 17.5385C14.409 16.4672 13.0706 14.8979 11.8087 13.12C10.5468 11.3421 9.50995 9.56456 8.88905 8.1149C8.21257 6.53512 8.11612 5.56377 8.60237 5.22781C8.70899 5.15422 8.83751 5.11694 8.98433 5.11694C9.37986 5.11694 10.1505 5.4064 11.5756 6.78544L11.6068 6.81558L11.6026 6.85844C11.5929 6.95751 11.5839 7.05747 11.5759 7.15558L11.56 7.35039L11.4202 7.21193C9.88466 5.69136 9.20874 5.5272 8.98937 5.5272C8.92682 5.5272 8.877 5.5397 8.84129 5.56438C8.63037 5.71005 8.6168 6.42353 9.27265 7.95495C9.88247 9.37878 10.9043 11.1294 12.1498 12.8843C13.3954 14.6393 14.7133 16.1854 15.8608 17.2376C17.0983 18.3722 17.6559 18.4947 17.8382 18.4947C17.9011 18.4947 17.9523 18.4814 17.9902 18.4552C18.2127 18.3015 18.213 17.5372 17.4816 15.8889L17.448 15.8132L17.5215 15.7737C17.595 15.7341 17.6661 15.6951 17.7328 15.6579L17.8208 15.6087L17.8614 15.7001C18.38 16.8681 18.8648 18.3525 18.2291 18.7918C18.122 18.8658 17.9928 18.9033 17.8452 18.9033ZM17.8451 18.7231H17.8452L17.8451 18.8132L17.8451 18.7231Z"
          fill="#EE6723"/>
    <path fill-rule="evenodd" clip-rule="evenodd"
          d="M15.4425 16.7985L15.4351 16.8883C15.3124 18.3808 14.9893 20.1751 14.1469 20.2477C14.1299 20.2492 14.1123 20.25 14.0948 20.25C13.5225 20.25 12.981 19.444 12.4855 17.8544C12.0167 16.3505 11.6529 14.3313 11.4611 12.1687C11.2693 10.0066 11.2722 7.95578 11.4692 6.39402C11.6839 4.69217 12.0927 3.80342 12.6841 3.7524C12.7016 3.75082 12.7197 3.75 12.7376 3.75C13.1528 3.75 13.7785 4.21209 14.419 6.3644L14.0008 6.44375C13.7869 5.7245 13.5539 5.13952 13.3225 4.73756C13.1084 4.36575 12.9003 4.161 12.7364 4.161C12.7311 4.161 12.7256 4.16122 12.7203 4.16167C12.4639 4.1838 12.0906 4.79502 11.8825 6.44476C11.689 7.97851 11.6866 9.99862 11.8759 12.133C12.0653 14.2676 12.4231 16.2567 12.8835 17.7336C13.0897 18.3951 13.3159 18.9402 13.5376 19.3102C13.742 19.6513 13.9399 19.8392 14.0946 19.8392C14.1 19.8392 14.1053 19.8389 14.1106 19.8385C14.3558 19.8174 14.8181 19.1813 15.0126 16.9435L15.4425 16.7985Z"
          fill="#EE6723"/>
</svg>
