<svg width="24" height="24" viewBox="0 0 24 24" fill="none" xmlns="http://www.w3.org/2000/svg">
    <path d="M12.0004 1.50284C12.0004 1.50284 18.1895 1.22609 21.4708 7.42489H11.4737C11.4737 7.42489 9.5871 7.3643 7.97548 9.64493C7.51252 10.6022 7.0149 11.5882 7.57333 13.5315C6.76888 12.1735 3.30249 6.15923 3.30249 6.15923C3.30249 6.15923 5.74749 1.7479 12.0003 1.50284H12.0004Z"
          fill="#EF3F36"/>
    <path d="M21.1495 17.2391C21.1495 17.2391 18.2936 22.72 11.2683 22.449C12.1364 20.9526 16.2682 13.8225 16.2682 13.8225C16.2682 13.8225 17.2665 12.2253 16.0888 9.69386C15.4898 8.81449 14.8793 7.89476 12.9118 7.40456C14.4946 7.39023 21.4534 7.40456 21.4534 7.40456C21.4534 7.40456 24.0603 11.7207 21.1495 17.2391Z"
          fill="#FCD900"/>
    <path d="M2.89448 17.2824C2.89448 17.2824 -0.441744 12.0782 3.30821 6.15039C4.17339 7.64679 8.30528 14.7769 8.30528 14.7769C8.30528 14.7769 9.19651 16.4376 11.9829 16.6855C13.0449 16.6077 14.1502 16.5414 15.5623 15.0911C14.7838 16.4636 11.2913 22.4606 11.2913 22.4606C11.2913 22.4606 6.2335 22.5528 2.8944 17.2824H2.89448Z"
          fill="#61BC5B"/>
    <path d="M11.2656 22.501L12.6718 16.6539C12.6718 16.6539 14.217 16.5328 15.5134 15.1172C14.7089 16.5271 11.2656 22.501 11.2656 22.501Z"
          fill="#5AB055"/>
    <path d="M7.28979 12.0667C7.28979 9.48924 9.38762 7.39893 11.9744 7.39893C14.5611 7.39893 16.6589 9.48924 16.6589 12.0667C16.6589 14.6443 14.5611 16.7345 11.9744 16.7345C9.38762 16.7317 7.28979 14.6443 7.28979 12.0667Z"
          fill="white"/>
    <path d="M8.07397 12.0667C8.07397 9.92164 9.81881 8.18018 11.9745 8.18018C14.1272 8.18018 15.8749 9.91878 15.8749 12.0667C15.8749 14.2118 14.1302 15.9533 11.9745 15.9533C9.82168 15.9533 8.07397 14.2118 8.07397 12.0667Z"
          fill="url(#paint0_linear_10259_260829)"/>
    <path d="M21.4505 7.40767L15.6606 9.1001C15.6606 9.1001 14.7868 7.82279 12.9089 7.40767C14.538 7.39899 21.4505 7.40767 21.4505 7.40767Z"
          fill="#EACA05"/>
    <path d="M7.46051 13.3182C6.64734 11.914 3.30249 6.15918 3.30249 6.15918L7.59067 10.3859C7.59067 10.3859 7.15081 11.2884 7.31581 12.58L7.46043 13.3182H7.46051Z"
          fill="#DF3A32"/>
    <defs>
        <linearGradient id="paint0_linear_10259_260829" x1="11.9743" y1="8.23505" x2="11.9743" y2="15.7193"
                        gradientUnits="userSpaceOnUse">
            <stop stop-color="#86BBE5"/>
            <stop offset="1" stop-color="#1072BA"/>
        </linearGradient>
    </defs>
</svg>
