<svg width="24" height="24" viewBox="0 0 24 24" fill="none" xmlns="http://www.w3.org/2000/svg">
    <path d="M7.63768 10.077H15.0735C15.0735 7.43709 13.9216 5.63727 10.7808 5.63727C7.06903 5.63725 3.29445 8.05358 1.5 11.0664C2.05583 5.837 5.80539 1.61499 11.4504 1.61499C16.2889 1.61499 20.8731 5.31439 20.8731 11.464V13.802H7.6773C7.6773 16.9842 10.4533 18.245 13.3607 18.245C16.8988 18.245 19.0899 16.6551 19.0899 16.6551V21.1125C19.0899 21.1125 16.6164 22.615 12.6738 22.615C7.55039 22.615 3.93388 18.9432 3.93388 14.3773C3.93388 10.7934 6.10173 7.93195 9.10447 6.75124C7.64282 8.35649 7.63766 10.077 7.63766 10.077H7.63768Z"
          fill="#137AD4"/>
</svg>
