<svg width="24" height="24" viewBox="0 0 24 24" fill="none" xmlns="http://www.w3.org/2000/svg">
    <path d="M21.3185 7.84104C24.5278 0.43851 17.8799 1.5227 17.5097 1.59655C16.1013 1.87747 14.7983 2.32841 13.5964 2.90011C9.01611 2.63644 4.86207 5.8894 3.85983 10.3476C6.22404 7.64442 7.87854 6.55371 8.86937 6.11732C5.95968 8.77049 3.082 12.2398 2.02185 16.1009C-0.644575 25.812 7.71623 21.7523 8.88546 21.1356C10.1444 21.7695 11.5617 22.1262 13.0611 22.1262C17.1657 22.1262 20.6579 19.4559 21.9578 15.7269H16.9979C16.264 16.9905 14.851 17.8465 13.2278 17.8465C10.8495 17.8465 8.92156 16.01 8.92156 13.7444H22.4231C22.6784 11.7217 22.295 9.63294 21.3185 7.84104ZM20.7374 3.03768C21.5504 3.59693 22.2023 4.47505 21.0826 7.4325C20.0087 5.67223 18.393 4.2914 16.4726 3.53245C17.3462 3.1025 19.5095 2.19301 20.7374 3.03768ZM3.46211 21.1159C2.79991 20.4239 2.6829 18.7384 4.14399 15.667C4.88127 17.8276 6.35262 19.638 8.25436 20.7869C7.30858 21.3175 4.79765 22.5121 3.46211 21.1159ZM8.90072 11.1135C8.97621 8.9116 10.8564 7.14857 13.1666 7.14857C15.4767 7.14857 17.357 8.9116 17.4325 11.1135H8.90072Z"
          fill="#1EBBEE"/>
</svg>
