<svg width="24" height="24" viewBox="0 0 24 24" fill="none" xmlns="http://www.w3.org/2000/svg">
    <path d="M8.54648 17.9145C7.38164 16.5445 6.63516 14.5184 6.58594 12.2461V11.7539C6.63516 9.48164 7.38984 7.45547 8.54648 6.08555C10.0559 4.1332 12.2707 3.25547 14.7727 3.25547C16.3148 3.25547 17.7668 3.36211 18.9973 4.18242C17.1516 2.51719 14.7152 1.5082 12.041 1.5H12C6.20039 1.5 1.5 6.20039 1.5 12C1.5 17.6273 5.92969 22.2293 11.4996 22.4918C11.6637 22.5 11.8359 22.5 12 22.5C14.6906 22.5 17.1434 21.491 18.9973 19.8258C17.7668 20.6461 16.3969 20.6789 14.8547 20.6789C12.3609 20.6871 10.0477 19.875 8.54648 17.9145Z"
          fill="url(#paint0_linear_10259_260843)"/>
    <path d="M8.54639 6.08545C9.50615 4.94521 10.753 4.26436 12.1147 4.26436C15.1745 4.26436 17.6519 7.72607 17.6519 12.0081C17.6519 16.2901 15.1745 19.7519 12.1147 19.7519C10.753 19.7519 9.51436 19.0628 8.54639 17.9308C10.0558 19.8831 12.2952 21.13 14.789 21.13C16.3229 21.13 17.7667 20.6624 18.9972 19.8421C21.1464 17.9062 22.4999 15.1089 22.4999 11.9999C22.4999 8.89092 21.1464 6.09365 18.9972 4.17412C17.7667 3.35381 16.3312 2.88623 14.789 2.88623C12.287 2.88623 10.0476 4.1249 8.54639 6.08545Z"
          fill="url(#paint1_linear_10259_260843)"/>
    <defs>
        <linearGradient id="paint0_linear_10259_260843" x1="10.2492" y1="1.8423" x2="10.2492" y2="22.1945"
                        gradientUnits="userSpaceOnUse">
            <stop offset="0.3" stop-color="#FF1B2D"/>
            <stop offset="0.4381" stop-color="#FA1A2C"/>
            <stop offset="0.5939" stop-color="#ED1528"/>
            <stop offset="0.7581" stop-color="#D60E21"/>
            <stop offset="0.9272" stop-color="#B70519"/>
            <stop offset="1" stop-color="#A70014"/>
        </linearGradient>
        <linearGradient id="paint1_linear_10259_260843" x1="15.5217" y1="3.04185" x2="15.5217" y2="21.0422"
                        gradientUnits="userSpaceOnUse">
            <stop stop-color="#9C0000"/>
            <stop offset="0.7" stop-color="#FF4B4B"/>
        </linearGradient>
    </defs>
</svg>
