<svg width="24" height="24" viewBox="0 0 24 24" fill="none" xmlns="http://www.w3.org/2000/svg">
    <path d="M12 22.5C17.799 22.5 22.5 17.799 22.5 12C22.5 6.20101 17.799 1.5 12 1.5C6.20101 1.5 1.5 6.20101 1.5 12C1.5 17.799 6.20101 22.5 12 22.5Z"
          fill="url(#paint0_linear_10259_260692)"/>
    <path d="M12.0001 21.7126C17.3642 21.7126 21.7126 17.3642 21.7126 12.0001C21.7126 6.63603 17.3642 2.2876 12.0001 2.2876C6.63603 2.2876 2.2876 6.63603 2.2876 12.0001C2.2876 17.3642 6.63603 21.7126 12.0001 21.7126Z"
          fill="url(#paint1_radial_10259_260692)"/>
    <path d="M12.0163 4.64993C11.9507 4.64993 11.8933 4.60073 11.8933 4.53511V2.82063C11.8933 2.75501 11.9507 2.70581 12.0163 2.70581C12.082 2.70581 12.1394 2.75501 12.1394 2.82063V4.53511C12.1312 4.60073 12.082 4.64993 12.0163 4.64993Z"
          fill="#F3F3F3"/>
    <path d="M12.0165 4.65828C11.9427 4.65828 11.8853 4.60087 11.8853 4.53524V2.82079C11.8853 2.75516 11.9427 2.69775 12.0165 2.69775C12.0903 2.69775 12.1477 2.75516 12.1477 2.82079V4.53524C12.1477 4.60087 12.0821 4.65828 12.0165 4.65828ZM12.0165 2.7141C11.9591 2.7141 11.9017 2.76338 11.9017 2.82079V4.53524C11.9017 4.59265 11.9509 4.64194 12.0165 4.64194C12.0739 4.64194 12.1313 4.59265 12.1313 4.53524V2.82079C12.1232 2.76338 12.0739 2.7141 12.0165 2.7141Z"
          fill="white"/>
    <path d="M12.8367 3.73129C12.7711 3.72308 12.7219 3.67388 12.7219 3.60826L12.7793 2.8453C12.7875 2.77976 12.845 2.73047 12.9106 2.73869C12.9762 2.7469 13.0254 2.79619 13.0254 2.86181L12.968 3.62468C12.9598 3.69031 12.9024 3.73951 12.8367 3.73138V3.73129Z"
          fill="#F3F3F3"/>
    <path d="M12.8367 3.73953C12.7628 3.73132 12.7136 3.6739 12.7136 3.60828L12.771 2.84533C12.7792 2.77979 12.8367 2.72238 12.9105 2.73051C12.9843 2.73872 13.0335 2.79622 13.0335 2.86176L12.9761 3.62471C12.9679 3.69854 12.9105 3.74774 12.8367 3.73953ZM12.9105 2.74693C12.8531 2.74693 12.7956 2.788 12.7956 2.84541L12.7382 3.60836C12.7382 3.66569 12.7792 3.71497 12.8449 3.7231C12.9023 3.7231 12.9597 3.68212 12.9597 3.62471L13.0171 2.86176C13.0171 2.80435 12.9679 2.75515 12.9104 2.74693H12.9105Z"
          fill="white"/>
    <path d="M13.4521 4.79779C13.3864 4.78136 13.3454 4.72395 13.3536 4.65832L13.6899 2.97662C13.7063 2.91108 13.7637 2.87001 13.8294 2.88644C13.895 2.90286 13.936 2.96027 13.9277 3.0259L13.5914 4.7076C13.5832 4.76493 13.5176 4.806 13.452 4.79779H13.4521Z"
          fill="#F3F3F3"/>
    <path d="M13.452 4.80594C13.378 4.78951 13.3371 4.72389 13.3453 4.65826L13.6816 2.97658C13.698 2.91104 13.7636 2.86176 13.8374 2.87818C13.9112 2.89461 13.9523 2.96024 13.9441 3.02586L13.6078 4.70754C13.5913 4.77308 13.5257 4.81415 13.452 4.80594ZM13.8374 2.89461C13.78 2.8864 13.7226 2.91917 13.7061 2.97666L13.3699 4.65835C13.3617 4.71567 13.3945 4.77308 13.4601 4.7896C13.5175 4.79773 13.5749 4.76487 13.5913 4.70746L13.9276 3.02586C13.9359 2.96024 13.8949 2.91104 13.8374 2.89461Z"
          fill="white"/>
    <path d="M14.4364 4.05954C14.4208 4.05577 14.406 4.04896 14.3931 4.0395C14.3801 4.03004 14.3691 4.01811 14.3607 4.00439C14.3523 3.99068 14.3467 3.97544 14.3442 3.95957C14.3418 3.94369 14.3424 3.92748 14.3462 3.91186L14.5513 3.17364C14.5677 3.10802 14.6333 3.07516 14.6989 3.09159C14.7645 3.10802 14.8056 3.17364 14.7892 3.23927L14.5841 3.97757C14.5677 4.04311 14.502 4.07596 14.4364 4.05954Z"
          fill="#F3F3F3"/>
    <path d="M14.4365 4.06758C14.3709 4.05115 14.3217 3.97731 14.3463 3.91177L14.5514 3.17339C14.5677 3.10785 14.6415 3.06679 14.7072 3.08321C14.7728 3.09964 14.822 3.17348 14.7974 3.23902L14.5923 3.9774C14.5759 4.04294 14.5103 4.084 14.4366 4.06758H14.4365ZM14.7072 3.10785C14.6498 3.09143 14.5841 3.12428 14.5677 3.18169L14.3627 3.9199C14.3463 3.97731 14.3791 4.03481 14.4447 4.05115C14.5021 4.06758 14.5677 4.03481 14.5841 3.9774L14.7892 3.23902C14.7974 3.18169 14.7646 3.12428 14.7072 3.10777V3.10785Z"
          fill="white"/>
    <path d="M14.8384 5.21605C14.7728 5.19141 14.7482 5.11757 14.7728 5.06016L15.429 3.47696C15.4535 3.41955 15.5275 3.38669 15.5848 3.41955C15.6505 3.4441 15.6751 3.51803 15.6505 3.57535L14.9943 5.15856C14.9697 5.21605 14.8958 5.24882 14.8385 5.21605H14.8384Z"
          fill="#F3F3F3"/>
    <path d="M14.8384 5.22443C14.8069 5.21242 14.7814 5.1884 14.7676 5.15764C14.7537 5.12687 14.7526 5.09188 14.7646 5.06032L15.4208 3.4771C15.4455 3.41147 15.5193 3.38683 15.5932 3.41147C15.6247 3.42349 15.6501 3.44751 15.664 3.47827C15.6778 3.50903 15.6789 3.54402 15.667 3.57558L15.0107 5.1588C14.9779 5.22443 14.904 5.2572 14.8384 5.22443ZM15.5849 3.4279C15.5275 3.40334 15.4619 3.4279 15.4373 3.48531L14.781 5.06854C14.7564 5.12595 14.7892 5.18336 14.8466 5.208C14.904 5.23256 14.9697 5.208 14.9943 5.15059L15.6506 3.56737C15.667 3.51808 15.6423 3.45246 15.5849 3.4279Z"
          fill="white"/>
    <path d="M15.9457 4.69096C15.8882 4.65811 15.8635 4.59248 15.8882 4.53507L16.2327 3.85428C16.2654 3.79678 16.3311 3.77214 16.3968 3.805C16.4542 3.83785 16.4787 3.90348 16.4542 3.9608L16.1096 4.64168C16.0768 4.69909 16.0112 4.72382 15.9456 4.69096H15.9457Z"
          fill="#F3F3F3"/>
    <path d="M15.9457 4.69924C15.88 4.66638 15.8555 4.59254 15.8882 4.52692L16.2328 3.84612C16.2656 3.78041 16.3395 3.75585 16.405 3.78862C16.4707 3.82148 16.4953 3.89531 16.4625 3.96094L16.118 4.64174C16.0851 4.70737 16.0113 4.73201 15.9456 4.69915L15.9457 4.69924ZM16.3969 3.80505C16.3394 3.78049 16.2738 3.79684 16.2492 3.85425L15.9047 4.53513C15.8801 4.58433 15.9047 4.64996 15.9539 4.68281C16.0113 4.70737 16.0769 4.69102 16.1015 4.63361L16.4461 3.95273C16.4707 3.90353 16.4461 3.8379 16.3969 3.80505Z"
          fill="white"/>
    <path d="M16.1098 5.90524C16.0524 5.86425 16.036 5.79041 16.077 5.74121L17.0286 4.32201C17.0613 4.2646 17.1353 4.25639 17.1926 4.28924C17.2501 4.33023 17.2664 4.40406 17.2254 4.45326L16.2738 5.87247C16.2411 5.92988 16.1672 5.94631 16.1098 5.90524Z"
          fill="#F3F3F3"/>
    <path d="M16.1097 5.91325C16.0523 5.87227 16.0359 5.79022 16.0688 5.73281L17.0203 4.31364C17.0613 4.25623 17.1351 4.23981 17.2007 4.28087C17.2581 4.32186 17.2746 4.40391 17.2418 4.46132L16.2902 5.88048C16.2492 5.93789 16.1671 5.95423 16.1097 5.91325ZM17.1925 4.2973C17.1434 4.26445 17.0695 4.27266 17.0367 4.32186L16.0851 5.74102C16.0523 5.79013 16.0687 5.85584 16.1179 5.88861C16.1671 5.92146 16.241 5.91325 16.2738 5.86405L17.2254 4.4531C17.2581 4.40391 17.2418 4.33007 17.1925 4.2973Z"
          fill="white"/>
    <path d="M17.3075 5.6017C17.2584 5.56064 17.242 5.4868 17.283 5.4376L17.7587 4.83876C17.7997 4.78965 17.8736 4.78135 17.9228 4.82242C17.972 4.8634 17.9884 4.93724 17.9473 4.98644L17.4716 5.58528C17.4306 5.63447 17.3568 5.64269 17.3076 5.6017H17.3075Z"
          fill="#F3F3F3"/>
    <path d="M17.2993 5.60983C17.2418 5.56877 17.2336 5.48671 17.2747 5.4293L17.7504 4.83053C17.7914 4.77303 17.8734 4.76482 17.9308 4.8141C17.9882 4.85508 17.9965 4.93714 17.9554 4.99455L17.4797 5.59341C17.4387 5.65082 17.3567 5.65903 17.2993 5.60983ZM17.9144 4.83044C17.8653 4.78946 17.7996 4.79767 17.7586 4.84687L17.2828 5.44573C17.2501 5.49492 17.2583 5.56055 17.3074 5.60154C17.3567 5.64261 17.4223 5.63439 17.4633 5.58519L17.939 4.98634C17.9719 4.93714 17.9636 4.8633 17.9145 4.83053L17.9144 4.83044Z"
          fill="white"/>
    <path d="M17.2254 6.83203C17.1762 6.78283 17.1762 6.709 17.2254 6.66793L18.4393 5.46214C18.4886 5.41294 18.5624 5.42107 18.6034 5.46214C18.6444 5.50312 18.6526 5.58517 18.6034 5.62616L17.3977 6.83203C17.3484 6.88123 17.2746 6.88123 17.2254 6.83203Z"
          fill="#F3F3F3"/>
    <path d="M17.2171 6.84028C17.1934 6.81621 17.1802 6.78381 17.1802 6.75006C17.1802 6.7163 17.1934 6.6839 17.2171 6.65983L18.4311 5.45395C18.4552 5.43027 18.4876 5.41699 18.5214 5.41699C18.5552 5.41699 18.5876 5.43027 18.6117 5.45395C18.6353 5.47802 18.6486 5.51042 18.6486 5.54417C18.6486 5.57793 18.6353 5.61033 18.6117 5.6344L17.3975 6.84019C17.3735 6.86385 17.3411 6.87711 17.3073 6.87711C17.2736 6.87711 17.2412 6.86385 17.2171 6.84019V6.84028ZM18.6035 5.46216C18.5625 5.4211 18.4886 5.4211 18.4477 5.46216L17.2335 6.66796C17.1925 6.70903 17.1925 6.78287 17.2335 6.82385C17.2745 6.86492 17.3483 6.86492 17.3893 6.82385L18.6035 5.61805C18.6445 5.57699 18.6445 5.51136 18.6035 5.46216Z"
          fill="white"/>
    <path d="M18.4558 6.76647C18.4148 6.71728 18.4148 6.64344 18.464 6.60237L19.0464 6.11024C19.0956 6.06926 19.1694 6.07739 19.2105 6.12667C19.2515 6.17587 19.2515 6.2497 19.2023 6.29069L18.6199 6.7829C18.5706 6.82388 18.4968 6.81567 18.4558 6.76647Z"
          fill="#F3F3F3"/>
    <path d="M18.4476 6.77455C18.3984 6.71714 18.4066 6.63509 18.4558 6.5941L19.0382 6.10188C19.0874 6.05268 19.1694 6.06089 19.2186 6.1183C19.2679 6.17571 19.2597 6.25777 19.2105 6.29875L18.628 6.79098C18.5789 6.84009 18.4968 6.83196 18.4477 6.77455H18.4476ZM19.2023 6.12652C19.1612 6.07732 19.0956 6.07732 19.0465 6.11009L18.464 6.60232C18.423 6.6433 18.4148 6.70892 18.4558 6.75812C18.4968 6.80732 18.5625 6.80732 18.6116 6.77455L19.1941 6.28232C19.2433 6.24134 19.2433 6.17571 19.2023 6.12652Z"
          fill="white"/>
    <path d="M18.1277 7.94767C18.0868 7.89026 18.1032 7.81642 18.1606 7.78356L19.5878 6.83203C19.6452 6.79918 19.7191 6.81561 19.7519 6.86489C19.7929 6.9223 19.7765 6.99614 19.7191 7.02891L18.2918 7.98044C18.2426 8.0133 18.1687 7.99687 18.1277 7.94767Z"
          fill="#F3F3F3"/>
    <path d="M18.1194 7.94759C18.0784 7.89018 18.0949 7.80812 18.1523 7.76714L19.5796 6.81554C19.637 6.77456 19.7191 6.79099 19.7601 6.85661C19.8011 6.91402 19.7846 6.99607 19.7273 7.03697L18.3 7.98865C18.2425 8.02972 18.1605 8.01329 18.1194 7.94767V7.94759ZM19.7436 6.87304C19.7109 6.82376 19.6452 6.80733 19.596 6.84018L18.1686 7.7917C18.1195 7.82455 18.103 7.89018 18.1441 7.94759C18.1768 7.99678 18.2425 8.01321 18.2918 7.98044L19.7191 7.02884C19.7683 6.98786 19.7765 6.92215 19.7436 6.87304Z"
          fill="white"/>
    <path d="M19.3502 8.1201C19.3174 8.0626 19.3338 7.98885 19.3912 7.956L20.0557 7.57869C20.1131 7.54583 20.187 7.57047 20.2197 7.6278C20.2526 7.68529 20.2362 7.75904 20.1787 7.7919L19.5143 8.16929C19.4569 8.20206 19.383 8.17751 19.3502 8.12001L19.3502 8.1201Z"
          fill="#F3F3F3"/>
    <path d="M19.3419 8.12826C19.3091 8.06263 19.3255 7.98879 19.3829 7.95602L20.0474 7.57869C20.1048 7.54583 20.1869 7.57047 20.2196 7.6278C20.2525 7.69351 20.2361 7.76735 20.1787 7.80013L19.5142 8.17755C19.4568 8.21032 19.3747 8.18568 19.3419 8.12826ZM20.2114 7.6361C20.1787 7.57869 20.113 7.56226 20.0638 7.59503L19.3994 7.97245C19.3502 8.00522 19.3337 8.07085 19.3583 8.12005C19.3911 8.17746 19.4568 8.19389 19.506 8.16112L20.1704 7.7837C20.2196 7.75914 20.2361 7.69351 20.2114 7.6361Z"
          fill="white"/>
    <path d="M18.8004 9.21096C18.7758 9.14533 18.8004 9.07971 18.866 9.05515L20.4492 8.39891C20.5066 8.37427 20.5804 8.40704 20.605 8.46445C20.6296 8.53008 20.605 8.5957 20.5394 8.62026L18.9562 9.27649C18.8987 9.30113 18.825 9.27649 18.8004 9.21096Z"
          fill="#F3F3F3"/>
    <path d="M18.7923 9.21921C18.7677 9.15367 18.7923 9.07983 18.8579 9.04698L20.4411 8.39076C20.4727 8.37887 20.5076 8.37996 20.5384 8.3938C20.5691 8.40764 20.5931 8.43309 20.6051 8.46459C20.6298 8.53021 20.6051 8.60405 20.5395 8.63682L18.9564 9.29304C18.9249 9.30496 18.8899 9.30389 18.8591 9.29007C18.8284 9.27624 18.8043 9.25079 18.7923 9.21929V9.21921ZM20.5888 8.47281C20.5642 8.4154 20.4985 8.39076 20.4493 8.40718L18.8661 9.06341C18.8087 9.08796 18.7841 9.15367 18.8087 9.21108C18.8333 9.26849 18.8989 9.29313 18.9482 9.2767L20.5313 8.62048C20.5888 8.59592 20.6134 8.53021 20.5888 8.47281Z"
          fill="white"/>
    <path d="M19.9571 9.62107C19.9326 9.55536 19.9653 9.48982 20.031 9.46518L20.7528 9.22723C20.8102 9.20268 20.884 9.24366 20.9004 9.30107C20.925 9.3667 20.8922 9.43232 20.8266 9.45696L20.1048 9.69491C20.0474 9.71946 19.9818 9.68669 19.9571 9.62098V9.62107Z"
          fill="#F3F3F3"/>
    <path d="M19.9487 9.62939C19.9242 9.56376 19.9569 9.48992 20.0309 9.46536L20.7526 9.22741C20.8182 9.20285 20.892 9.24384 20.9167 9.30955C20.9412 9.37509 20.9084 9.44893 20.8345 9.47357L20.1128 9.71153C20.0472 9.72787 19.9734 9.69501 19.9487 9.62939ZM20.9002 9.31776C20.8838 9.26027 20.8182 9.22741 20.7608 9.24384L20.039 9.48179C19.9816 9.49813 19.9569 9.56376 19.9734 9.62126C19.9898 9.67867 20.0554 9.71144 20.1128 9.69501L20.8346 9.45715C20.892 9.43259 20.9167 9.37509 20.9002 9.31768V9.31776Z"
          fill="white"/>
    <path d="M19.219 10.5972C19.2025 10.5316 19.2435 10.466 19.3091 10.4577L20.9907 10.1297C21.0563 10.1132 21.1137 10.1624 21.1301 10.228C21.1465 10.2937 21.1055 10.3593 21.0399 10.3675L19.3583 10.6956C19.2927 10.7038 19.2271 10.6628 19.2189 10.5972H19.219Z"
          fill="#F3F3F3"/>
    <path d="M19.2024 10.5973C19.186 10.5235 19.2352 10.4579 19.3008 10.4414L20.9825 10.1133C21.0481 10.0968 21.1137 10.1461 21.1301 10.22C21.1465 10.2937 21.0973 10.3594 21.0317 10.3758L19.35 10.7039C19.2845 10.7204 19.2187 10.6712 19.2024 10.5972V10.5973ZM21.1137 10.2281C21.1055 10.1707 21.0481 10.1297 20.9907 10.1379L19.309 10.4661C19.2516 10.4743 19.2106 10.5398 19.227 10.5973C19.2352 10.6547 19.2926 10.6957 19.3501 10.6875L21.0317 10.3594C21.0891 10.3429 21.1301 10.2855 21.1137 10.2281Z"
          fill="white"/>
    <path d="M20.2689 11.229C20.2607 11.1634 20.3016 11.106 20.3673 11.0978L21.1219 11.0075C21.1875 10.9993 21.245 11.0485 21.2531 11.1142C21.2614 11.1798 21.2204 11.2372 21.1548 11.2454L20.4 11.3356C20.3426 11.3439 20.277 11.2947 20.2688 11.229H20.2689Z"
          fill="#F3F3F3"/>
    <path d="M20.2607 11.229C20.2524 11.1551 20.3016 11.0895 20.3673 11.0813L21.1219 10.9911C21.1875 10.9829 21.2531 11.0321 21.2613 11.1059C21.2695 11.1798 21.2203 11.2454 21.1547 11.2536L20.4 11.3438C20.3345 11.352 20.2688 11.3028 20.2607 11.229ZM21.2531 11.1142C21.245 11.0567 21.1876 11.0075 21.1301 11.0157L20.3755 11.1059C20.3181 11.1142 20.277 11.1716 20.2852 11.229C20.2934 11.2864 20.3508 11.3357 20.4082 11.3274L21.1629 11.2372C21.2203 11.229 21.2613 11.1716 21.2532 11.1142H21.2531Z"
          fill="white"/>
    <path d="M19.3501 12.0246C19.3501 11.959 19.3992 11.9016 19.4649 11.9016H21.1794C21.245 11.9016 21.2942 11.959 21.2942 12.0246C21.2942 12.0903 21.245 12.1477 21.1794 12.1477H19.4649C19.3993 12.1477 19.3501 12.0903 19.3501 12.0246Z"
          fill="#F3F3F3"/>
    <path d="M19.342 12.0246C19.342 11.9507 19.3995 11.8933 19.4651 11.8933H21.1795C21.2452 11.8933 21.3026 11.9507 21.3026 12.0246C21.3026 12.0984 21.2452 12.1558 21.1795 12.1558H19.4651C19.3995 12.1558 19.342 12.0984 19.342 12.0246ZM21.2862 12.0328C21.2862 11.9754 21.237 11.918 21.1795 11.918H19.4652C19.4078 11.918 19.3585 11.9671 19.3585 12.0328C19.3585 12.0902 19.4078 12.1476 19.4652 12.1476H21.1796C21.237 12.1394 21.2862 12.0902 21.2862 12.0328H21.2862Z"
          fill="white"/>
    <path d="M20.2606 12.8531C20.2687 12.7875 20.318 12.7383 20.3836 12.7383L21.1465 12.7957C21.2121 12.8039 21.2612 12.8613 21.253 12.9269C21.2449 12.9926 21.1956 13.0418 21.13 13.0418L20.3672 12.9844C20.3098 12.9761 20.2605 12.9187 20.2605 12.8531H20.2606Z"
          fill="#F3F3F3"/>
    <path d="M20.2524 12.8533C20.2607 12.7794 20.3181 12.7302 20.3837 12.7302L21.1467 12.7876C21.2123 12.7958 21.2697 12.8533 21.2615 12.9271C21.2533 13.0009 21.1958 13.0501 21.1302 13.0501L20.3673 12.9927C20.3016 12.9845 20.2524 12.9189 20.2524 12.8533ZM21.2533 12.9271C21.2615 12.8697 21.2123 12.8123 21.1548 12.8123L20.3918 12.7549C20.3345 12.7549 20.2852 12.7958 20.277 12.8616C20.2689 12.9189 20.3181 12.9763 20.3755 12.9763L21.1385 13.0337C21.1958 13.0337 21.2451 12.9846 21.2533 12.9271Z"
          fill="white"/>
    <path d="M19.2025 13.452C19.2189 13.3864 19.2763 13.3453 19.3419 13.3536L21.0236 13.6899C21.0892 13.7063 21.1303 13.7637 21.1138 13.8293C21.0974 13.8949 21.04 13.936 20.9744 13.9278L19.2926 13.5915C19.2352 13.5832 19.1943 13.5176 19.2025 13.452Z"
          fill="#F3F3F3"/>
    <path d="M19.1942 13.4519C19.2106 13.3781 19.2762 13.3371 19.3418 13.3453L21.0236 13.6816C21.0892 13.698 21.1384 13.7636 21.122 13.8374C21.1056 13.9113 21.04 13.9523 20.9744 13.9441L19.2926 13.6078C19.2269 13.5914 19.1859 13.5258 19.1942 13.452V13.4519ZM21.1056 13.8374C21.1138 13.78 21.0811 13.7226 21.0236 13.7062L19.3418 13.3699C19.2844 13.3618 19.2269 13.3945 19.2105 13.4602C19.2024 13.5176 19.2351 13.575 19.2926 13.5914L20.9744 13.9277C21.04 13.9359 21.0892 13.8948 21.1056 13.8374Z"
          fill="white"/>
    <path d="M19.9408 14.4364C19.9445 14.4208 19.9513 14.406 19.9608 14.3931C19.9702 14.3801 19.9822 14.3691 19.9959 14.3607C20.0096 14.3523 20.0248 14.3467 20.0407 14.3443C20.0565 14.3418 20.0727 14.3424 20.0884 14.3462L20.8266 14.5512C20.8923 14.5676 20.925 14.6334 20.9087 14.6989C20.9049 14.7145 20.8981 14.7293 20.8887 14.7423C20.8792 14.7553 20.8673 14.7663 20.8536 14.7747C20.8399 14.7831 20.8246 14.7887 20.8087 14.7911C20.7929 14.7936 20.7766 14.793 20.761 14.7892L20.0227 14.5841C19.9571 14.5676 19.9243 14.502 19.9407 14.4364H19.9408Z"
          fill="#F3F3F3"/>
    <path d="M19.9325 14.4362C19.949 14.3706 20.0228 14.3214 20.0884 14.3461L20.8267 14.551C20.8923 14.5675 20.9334 14.6413 20.917 14.7069C20.9005 14.7725 20.8267 14.8217 20.7611 14.7972L20.0228 14.5921C19.9572 14.5757 19.9161 14.5101 19.9326 14.4363L19.9325 14.4362ZM20.8923 14.7069C20.9088 14.6495 20.8759 14.5839 20.8185 14.5675L20.0802 14.3624C20.0228 14.346 19.9654 14.3788 19.949 14.4444C19.9326 14.5018 19.9654 14.5675 20.0228 14.5839L20.7611 14.7889C20.8185 14.7972 20.8759 14.7644 20.8923 14.7069Z"
          fill="white"/>
    <path d="M18.784 14.8301C18.8086 14.7645 18.8825 14.7399 18.9398 14.7645L20.5231 15.4207C20.5805 15.4453 20.6133 15.5192 20.5887 15.5765C20.5641 15.6422 20.4902 15.6668 20.4328 15.6422L18.8497 14.986C18.784 14.9615 18.7594 14.8875 18.784 14.8302V14.8301Z"
          fill="#F3F3F3"/>
    <path d="M18.7757 14.8218C18.7877 14.7903 18.8117 14.7648 18.8425 14.751C18.8732 14.7371 18.9082 14.736 18.9398 14.748L20.523 15.4042C20.5886 15.4289 20.6131 15.5027 20.5886 15.5766C20.5766 15.6081 20.5526 15.6336 20.5218 15.6474C20.491 15.6612 20.456 15.6623 20.4245 15.6504L18.8413 14.9941C18.7757 14.9613 18.7511 14.8874 18.7757 14.8218ZM20.5722 15.5684C20.5967 15.5109 20.5722 15.4453 20.5147 15.4207L18.9316 14.7644C18.8742 14.7398 18.8168 14.7726 18.7921 14.83C18.7676 14.8874 18.7921 14.9531 18.8495 14.9777L20.4327 15.634C20.4901 15.6504 20.5557 15.6258 20.5722 15.5684Z"
          fill="white"/>
    <path d="M19.3172 15.9375C19.3501 15.8801 19.4156 15.8555 19.473 15.8801L20.1538 16.2247C20.2112 16.2493 20.2358 16.3231 20.2031 16.3887C20.1702 16.4461 20.1046 16.4709 20.0472 16.4461L19.3665 16.1017C19.309 16.0688 19.2844 15.995 19.3172 15.9375Z"
          fill="#F3F3F3"/>
    <path d="M19.3089 15.9293C19.3417 15.8637 19.4156 15.8391 19.4812 15.8719L20.162 16.2164C20.2277 16.2493 20.2523 16.3231 20.2194 16.3887C20.1867 16.4543 20.1127 16.4789 20.0472 16.4461L19.3664 16.1016C19.3007 16.0771 19.2761 15.9949 19.3089 15.9293ZM20.1949 16.3805C20.2194 16.323 20.203 16.2574 20.1456 16.2329L19.4648 15.8883C19.4155 15.8637 19.35 15.8883 19.3171 15.9375C19.2925 15.9949 19.3089 16.0605 19.3663 16.0852L20.0471 16.4297C20.1046 16.4543 20.1702 16.438 20.1949 16.3805Z"
          fill="white"/>
    <path d="M18.1114 16.0935C18.1524 16.036 18.2181 16.0196 18.2755 16.0606L19.7028 17.0122C19.7603 17.045 19.7685 17.1189 19.7357 17.1762C19.6946 17.2337 19.629 17.2501 19.5716 17.2091L18.1442 16.2575C18.0868 16.2165 18.0704 16.1426 18.1114 16.0935Z"
          fill="#F3F3F3"/>
    <path d="M18.1032 16.0851C18.1442 16.0277 18.2263 16.0112 18.2837 16.0441L19.7111 16.9956C19.7685 17.0366 19.7849 17.1104 19.7439 17.176C19.7029 17.2335 19.6208 17.2499 19.5635 17.2171L18.136 16.2655C18.0704 16.2245 18.0622 16.1425 18.1032 16.0851ZM19.7193 17.1678C19.7521 17.1187 19.7439 17.0448 19.6947 17.012L18.2673 16.0604C18.2181 16.0277 18.1525 16.0441 18.1196 16.0933C18.0868 16.1425 18.095 16.2163 18.1442 16.2491L19.5716 17.2007C19.6208 17.2335 19.6864 17.2171 19.7193 17.1679V17.1678Z"
          fill="white"/>
    <path d="M18.4149 17.283C18.4559 17.2337 18.5298 17.2173 18.579 17.2584L19.1778 17.7259C19.227 17.7669 19.2352 17.8408 19.1943 17.89C19.1533 17.9392 19.0794 17.9557 19.0301 17.9146L18.4313 17.447C18.3822 17.406 18.3739 17.3322 18.4149 17.283Z"
          fill="#F3F3F3"/>
    <path d="M18.4067 17.2746C18.4477 17.2172 18.5298 17.209 18.5872 17.25L19.186 17.7176C19.2434 17.7585 19.2516 17.8406 19.2105 17.898C19.1696 17.9555 19.0875 17.9636 19.0302 17.9226L18.4313 17.455C18.3739 17.4141 18.3658 17.332 18.4067 17.2746ZM19.1942 17.8899C19.2352 17.8406 19.227 17.775 19.1778 17.734L18.579 17.2664C18.5298 17.2336 18.4641 17.2418 18.4232 17.2909C18.3821 17.3402 18.3903 17.4058 18.4395 17.4468L19.0383 17.9144C19.0875 17.9473 19.1531 17.939 19.1941 17.8899H19.1942Z"
          fill="white"/>
    <path d="M17.1926 17.2007C17.2419 17.1515 17.3157 17.1515 17.3567 17.2007L18.5708 18.4065C18.62 18.4558 18.6118 18.5296 18.5708 18.5706C18.5216 18.6198 18.4477 18.6198 18.4067 18.5706L17.1926 17.3648C17.1516 17.3238 17.1516 17.2417 17.1926 17.2007Z"
          fill="#F3F3F3"/>
    <path d="M17.1925 17.1925C17.2165 17.1688 17.249 17.1555 17.2827 17.1555C17.3165 17.1555 17.3489 17.1688 17.373 17.1925L18.5871 18.3983C18.6108 18.4223 18.624 18.4547 18.624 18.4885C18.624 18.5223 18.6108 18.5547 18.5871 18.5788C18.563 18.6024 18.5306 18.6157 18.4969 18.6157C18.4631 18.6157 18.4307 18.6024 18.4066 18.5788L17.1925 17.373C17.1351 17.3237 17.1351 17.2418 17.1925 17.1925ZM18.5707 18.5624C18.6117 18.5214 18.6117 18.4475 18.5707 18.4065L17.3566 17.2007C17.3156 17.1597 17.2418 17.1597 17.2008 17.2007C17.1597 17.2417 17.1597 17.3155 17.2008 17.3565L18.4148 18.5624C18.4558 18.6116 18.5215 18.6116 18.5707 18.5624Z"
          fill="white"/>
    <path d="M17.2663 18.4231C17.3156 18.3821 17.3893 18.3821 17.4304 18.4313L17.9309 19.0055C17.9718 19.0548 17.9636 19.1286 17.9144 19.1696C17.8652 19.2106 17.7913 19.2106 17.7503 19.1614L17.2499 18.5872C17.2089 18.5462 17.2171 18.4724 17.2663 18.4231Z"
          fill="#F3F3F3"/>
    <path d="M17.2583 18.4231C17.3158 18.374 17.3896 18.3822 17.4387 18.4314L17.9392 19.0056C17.9883 19.0548 17.9801 19.1368 17.9227 19.1861C17.8653 19.2353 17.7915 19.2271 17.7423 19.1779L17.2418 18.6037C17.2008 18.5463 17.2008 18.4642 17.2583 18.4231H17.2583ZM17.9146 19.1697C17.9637 19.1287 17.9637 19.063 17.9309 19.0139L17.4305 18.4396C17.3895 18.3986 17.3239 18.3904 17.2747 18.4314C17.2255 18.4724 17.2255 18.5381 17.2583 18.5872L17.7587 19.1614C17.7997 19.2106 17.8654 19.2106 17.9145 19.1697H17.9146Z"
          fill="white"/>
    <path d="M16.0851 18.1114C16.1425 18.0704 16.2164 18.0868 16.2492 18.1442L17.2007 19.5633C17.2336 19.6207 17.2172 19.6946 17.168 19.7274C17.1105 19.7684 17.0367 19.752 17.0038 19.6946L16.0523 18.2754C16.0194 18.2181 16.0358 18.1441 16.085 18.1114H16.0851Z"
          fill="#F3F3F3"/>
    <path d="M16.0853 18.1031C16.1427 18.0621 16.2247 18.0785 16.2657 18.1359L17.2173 19.555C17.2582 19.6124 17.2418 19.6944 17.1763 19.7354C17.1188 19.7764 17.0368 19.76 16.9958 19.7026L16.0443 18.2835C16.0033 18.218 16.0198 18.1441 16.0853 18.1032V18.1031ZM17.1681 19.719C17.2173 19.6862 17.2337 19.6206 17.2008 19.5714L16.2494 18.1523C16.2165 18.1032 16.1509 18.0949 16.0936 18.1277C16.0443 18.1605 16.0279 18.2261 16.0607 18.2754L17.0122 19.6944C17.045 19.7354 17.1189 19.7518 17.168 19.719L17.1681 19.719Z"
          fill="white"/>
    <path d="M15.9128 19.3253C15.9702 19.2925 16.0441 19.3089 16.0768 19.3664L16.4542 20.0308C16.487 20.0882 16.4624 20.1621 16.4049 20.1948C16.3475 20.2277 16.2737 20.2113 16.2409 20.1539L15.8636 19.4894C15.839 19.432 15.8554 19.3581 15.9127 19.3254L15.9128 19.3253Z"
          fill="#F3F3F3"/>
    <path d="M15.9128 19.3173C15.9784 19.2844 16.0523 19.3009 16.085 19.3583L16.4624 20.0228C16.4952 20.0802 16.4788 20.1623 16.4132 20.1951C16.3475 20.2279 16.2737 20.2115 16.2409 20.1541L15.8636 19.4895C15.8307 19.4321 15.8472 19.3583 15.9127 19.3173H15.9128ZM16.4049 20.1869C16.4542 20.1541 16.4788 20.0884 16.446 20.0392L16.0687 19.3747C16.0358 19.3255 15.9702 19.3091 15.921 19.3336C15.8717 19.3665 15.8472 19.4321 15.8799 19.4813L16.2574 20.1459C16.2819 20.1951 16.3557 20.2197 16.4049 20.1868V20.1869Z"
          fill="white"/>
    <path d="M14.8219 18.7841C14.8875 18.7596 14.9531 18.7841 14.9778 18.8415L15.6422 20.4247C15.6668 20.4821 15.634 20.556 15.5766 20.5805C15.5192 20.6052 15.4454 20.5805 15.4208 20.5231L14.7563 18.94C14.7317 18.8825 14.7645 18.8088 14.8219 18.7841Z"
          fill="#F3F3F3"/>
    <path d="M14.8219 18.7757C14.8875 18.7511 14.9614 18.7757 14.9942 18.8413L15.6587 20.4245C15.6706 20.4561 15.6695 20.4911 15.6556 20.5218C15.6418 20.5525 15.6163 20.5765 15.5848 20.5886C15.5192 20.6132 15.4454 20.5886 15.4126 20.5229L14.7482 18.9398C14.7235 18.8823 14.7564 18.8086 14.8219 18.7757ZM15.5684 20.5722C15.6258 20.5476 15.6505 20.4819 15.6258 20.4327L14.9614 18.8495C14.9368 18.7921 14.8712 18.7675 14.8138 18.7921C14.7564 18.8167 14.7317 18.8823 14.7564 18.9316L15.4207 20.5148C15.4536 20.5722 15.511 20.5968 15.5684 20.5722Z"
          fill="white"/>
    <path d="M14.4198 19.9488C14.4855 19.9243 14.551 19.957 14.5757 20.0227L14.8136 20.7445C14.8382 20.802 14.7972 20.8758 14.7398 20.8922C14.6742 20.9168 14.6085 20.884 14.584 20.8184L14.346 20.0965C14.3215 20.0391 14.3543 19.9735 14.4199 19.9488H14.4198Z"
          fill="#F3F3F3"/>
    <path d="M14.4119 19.9408C14.4435 19.9289 14.4785 19.93 14.5092 19.9438C14.54 19.9577 14.564 19.9831 14.576 20.0146L14.814 20.7365C14.8385 20.8021 14.7975 20.8759 14.7318 20.9006C14.7003 20.9125 14.6653 20.9114 14.6345 20.8975C14.6038 20.8837 14.5798 20.8582 14.5678 20.8267L14.3299 20.1049C14.3134 20.0393 14.3463 19.9654 14.4119 19.9408ZM14.7319 20.8841C14.7893 20.8677 14.8221 20.8021 14.8057 20.7447L14.5678 20.0229C14.5514 19.9654 14.4858 19.9408 14.4284 19.9572C14.3709 19.9737 14.3381 20.0393 14.3545 20.0967L14.5924 20.8185C14.5966 20.8325 14.6037 20.8453 14.6131 20.8564C14.6226 20.8674 14.6343 20.8763 14.6475 20.8824C14.6607 20.8886 14.675 20.892 14.6895 20.8923C14.7041 20.8926 14.7185 20.8898 14.7319 20.8842V20.8841Z"
          fill="white"/>
    <path d="M13.4521 19.2024C13.5177 19.1859 13.5834 19.2269 13.5915 19.2925L13.9361 20.9743C13.9526 21.0398 13.9033 21.0973 13.8376 21.1137C13.7721 21.1301 13.7064 21.0891 13.6982 21.0235L13.3536 19.3417C13.3454 19.2843 13.3864 19.2187 13.4521 19.2023L13.4521 19.2024Z"
          fill="#F3F3F3"/>
    <path d="M13.452 19.1941C13.5257 19.1777 13.5913 19.2269 13.6078 19.2926L13.9523 20.9744C13.9687 21.0399 13.9194 21.1138 13.8538 21.122C13.78 21.1384 13.7143 21.0892 13.698 21.0236L13.3534 19.3418C13.3371 19.2761 13.3781 19.2105 13.4519 19.1942L13.452 19.1941ZM13.8374 21.1056C13.8948 21.0974 13.9358 21.0399 13.9276 20.9743L13.5831 19.2926C13.575 19.2351 13.5094 19.1942 13.4519 19.2105C13.3945 19.2187 13.3535 19.2761 13.3617 19.3418L13.7062 21.0236C13.7226 21.081 13.78 21.1138 13.8374 21.1057L13.8374 21.1056Z"
          fill="white"/>
    <path d="M12.8287 20.2689C12.8943 20.2607 12.9517 20.3017 12.9681 20.3673L13.0665 21.122C13.0748 21.1876 13.0256 21.245 12.9599 21.2532C12.8943 21.2614 12.8369 21.2204 12.8205 21.1548L12.7221 20.4001C12.7139 20.3345 12.7631 20.2771 12.8287 20.2689Z"
          fill="#F3F3F3"/>
    <path d="M12.8284 20.2606C12.9023 20.2525 12.9679 20.3017 12.9762 20.3673L13.0746 21.122C13.0828 21.1877 13.0336 21.2533 12.9597 21.2615C12.8859 21.2697 12.8202 21.2205 12.812 21.1548L12.7135 20.4001C12.7053 20.3345 12.7545 20.2689 12.8284 20.2606ZM12.9515 21.2451C13.0089 21.2369 13.0583 21.1794 13.05 21.122L12.9515 20.3673C12.9433 20.3099 12.8859 20.2689 12.8284 20.2771C12.771 20.2853 12.7217 20.3427 12.7299 20.4001L12.8284 21.1549C12.8366 21.2123 12.8941 21.2533 12.9515 21.2451Z"
          fill="white"/>
    <path d="M11.9836 19.3499C12.0492 19.3499 12.1067 19.3991 12.1067 19.4648V21.1792C12.1067 21.2448 12.0492 21.2941 11.9836 21.2941C11.918 21.2941 11.8606 21.2448 11.8606 21.1792V19.4648C11.8688 19.3991 11.918 19.3499 11.9836 19.3499Z"
          fill="#F3F3F3"/>
    <path d="M11.9835 19.3418C12.0574 19.3418 12.1148 19.3992 12.1148 19.4648V21.1793C12.1148 21.2449 12.0574 21.3023 11.9835 21.3023C11.9097 21.3023 11.8523 21.2449 11.8523 21.1793V19.4649C11.8523 19.3993 11.9179 19.3418 11.9835 19.3418ZM11.9835 21.286C12.0409 21.286 12.0984 21.2368 12.0984 21.1793V19.4649C12.0984 19.4074 12.0492 19.3582 11.9835 19.3582C11.9261 19.3582 11.8687 19.4074 11.8687 19.4649V21.1793C11.8769 21.2368 11.9261 21.286 11.9835 21.286Z"
          fill="white"/>
    <path d="M11.1633 20.2687C11.2289 20.2769 11.2781 20.3261 11.2781 20.3918L11.2207 21.1547C11.2126 21.2203 11.1551 21.2695 11.0894 21.2614C11.0238 21.2531 10.9746 21.2039 10.9746 21.1383L11.032 20.3753C11.0402 20.3098 11.0976 20.2605 11.1633 20.2687Z"
          fill="#F3F3F3"/>
    <path d="M11.1632 20.2606C11.237 20.2689 11.2862 20.3263 11.2862 20.3919L11.2288 21.1549C11.2206 21.2205 11.1632 21.2779 11.0893 21.2697C11.0156 21.2615 10.9663 21.2041 10.9663 21.1384L11.0237 20.3755C11.0319 20.3017 11.0893 20.2525 11.1632 20.2606ZM11.0893 21.2533C11.1468 21.2533 11.2043 21.2123 11.2043 21.1549L11.2617 20.3919C11.2617 20.3345 11.2206 20.2853 11.155 20.2771C11.0976 20.2771 11.0401 20.3181 11.0401 20.3756L10.9827 21.1384C10.9827 21.1959 11.0319 21.2451 11.0894 21.2533H11.0893Z"
          fill="white"/>
    <path d="M10.5481 19.2022C10.6137 19.2186 10.6547 19.276 10.6465 19.3416L10.3102 21.0234C10.2938 21.0891 10.2363 21.1302 10.1707 21.1136C10.1051 21.0973 10.0641 21.0399 10.0723 20.9742L10.4087 19.2924C10.4169 19.235 10.4825 19.194 10.5481 19.2022Z"
          fill="#F3F3F3"/>
    <path d="M10.5482 19.1941C10.622 19.2105 10.663 19.2762 10.6548 19.3418L10.3185 21.0235C10.302 21.0892 10.2364 21.1384 10.1627 21.1219C10.0888 21.1055 10.0478 21.0399 10.056 20.9742L10.3923 19.2926C10.4087 19.2269 10.4744 19.1859 10.5481 19.1942L10.5482 19.1941ZM10.1627 21.1055C10.2201 21.1137 10.2775 21.0809 10.2939 21.0235L10.6302 19.3418C10.6384 19.2844 10.6056 19.2269 10.54 19.2105C10.4826 19.2024 10.4252 19.2352 10.4087 19.2927L10.0724 20.9742C10.0642 21.0399 10.1052 21.0892 10.1627 21.1055Z"
          fill="white"/>
    <path d="M9.56364 19.9407C9.62935 19.9571 9.67034 20.0227 9.65391 20.0883L9.44882 20.8266C9.43248 20.8922 9.36685 20.9249 9.30122 20.9086C9.28559 20.9049 9.27086 20.898 9.25786 20.8886C9.24486 20.8791 9.23385 20.8672 9.22547 20.8535C9.21708 20.8398 9.21148 20.8245 9.20899 20.8087C9.20651 20.7928 9.20717 20.7766 9.21096 20.7609L9.41605 20.0227C9.43248 19.9571 9.4981 19.9243 9.56373 19.9407H9.56364Z"
          fill="#F3F3F3"/>
    <path d="M9.5636 19.9327C9.62931 19.949 9.6785 20.0228 9.65386 20.0885L9.44878 20.8268C9.43244 20.8924 9.3586 20.9334 9.29298 20.9169C9.22736 20.9006 9.17816 20.8268 9.20271 20.7611L9.4078 20.0228C9.42422 19.9572 9.48985 19.9162 9.5636 19.9326V19.9327ZM9.29298 20.8924C9.35039 20.9088 9.41601 20.876 9.43244 20.8185L9.63744 20.0803C9.65386 20.0228 9.62109 19.9654 9.55547 19.949C9.49806 19.9326 9.43244 19.9654 9.41601 20.0228L9.21093 20.7611C9.20272 20.8185 9.23548 20.876 9.29298 20.8924Z"
          fill="white"/>
    <path d="M9.16171 18.784C9.22733 18.8086 9.25189 18.8824 9.22733 18.9399L8.5711 20.5231C8.54654 20.5806 8.47262 20.6133 8.41529 20.5806C8.3578 20.5477 8.32495 20.4821 8.34959 20.4247L9.00582 18.8415C9.03038 18.784 9.1043 18.7512 9.16162 18.784H9.16171Z"
          fill="#F3F3F3"/>
    <path d="M9.16172 18.7758C9.19325 18.7878 9.21872 18.8118 9.23256 18.8426C9.2464 18.8733 9.24748 18.9083 9.23556 18.9399L8.5793 20.523C8.55466 20.5886 8.48082 20.6133 8.40698 20.5886C8.37548 20.5766 8.35002 20.5526 8.33618 20.5219C8.32234 20.4911 8.32125 20.4562 8.33314 20.4246L8.9894 18.8414C9.02226 18.7758 9.0961 18.743 9.16172 18.7758ZM8.41519 20.5723C8.47261 20.5968 8.53823 20.5723 8.56287 20.5149L9.21914 18.9317C9.24369 18.8743 9.21092 18.8168 9.15351 18.7922C9.0961 18.7677 9.03047 18.7922 9.00583 18.8496L8.34957 20.4328C8.33314 20.482 8.35778 20.5476 8.41519 20.5723Z"
          fill="white"/>
    <path d="M8.05426 19.3091C8.11167 19.3419 8.13623 19.4075 8.11167 19.4649L7.76712 20.1457C7.73427 20.2031 7.66865 20.2277 7.60302 20.1949C7.54561 20.1621 7.52106 20.0965 7.54561 20.0391L7.89024 19.3584C7.92301 19.3009 7.98864 19.2763 8.05426 19.3091Z"
          fill="#F3F3F3"/>
    <path d="M8.05447 19.3008C8.12009 19.3336 8.14465 19.4075 8.11188 19.473L7.76733 20.1539C7.73447 20.2195 7.66064 20.2441 7.5951 20.2113C7.52947 20.1785 7.50483 20.1046 7.53768 20.0391L7.88215 19.3583C7.915 19.2926 7.98884 19.2681 8.05447 19.3008ZM7.60331 20.195C7.66072 20.2195 7.72634 20.2031 7.7509 20.1457L8.09545 19.4649C8.12001 19.4156 8.09545 19.35 8.04625 19.3173C7.98884 19.2927 7.92322 19.309 7.89858 19.3664L7.55403 20.0472C7.52947 20.0965 7.55403 20.1621 7.60331 20.1949V20.195Z"
          fill="white"/>
    <path d="M7.89032 18.0951C7.94773 18.1361 7.96416 18.2099 7.92317 18.2591L6.97158 19.6784C6.93881 19.7358 6.86489 19.744 6.80756 19.7112C6.75015 19.6701 6.73372 19.5964 6.77471 19.5471L7.7263 18.1278C7.75907 18.0705 7.83291 18.054 7.89032 18.095V18.0951Z"
          fill="#F3F3F3"/>
    <path d="M7.89023 18.0867C7.94764 18.1278 7.96407 18.2098 7.93121 18.2673L6.97967 19.6865C6.93868 19.7438 6.86484 19.7602 6.79921 19.7192C6.7418 19.6782 6.72537 19.5962 6.75814 19.5387L7.70978 18.1196C7.75076 18.0622 7.83282 18.0457 7.89023 18.0867ZM6.80743 19.7028C6.85654 19.7356 6.93047 19.7274 6.96324 19.6783L7.91487 18.259C7.94764 18.2098 7.9313 18.1442 7.88202 18.1114C7.83282 18.0786 7.75898 18.0868 7.7262 18.1359L6.77457 19.5469C6.7418 19.5962 6.75814 19.67 6.80743 19.7027V19.7028Z"
          fill="white"/>
    <path d="M6.69255 18.3986C6.74183 18.4396 6.75817 18.5134 6.71719 18.5626L6.2414 19.1614C6.20041 19.2106 6.12658 19.2188 6.07738 19.1778C6.02818 19.1369 6.01175 19.063 6.05282 19.0137L6.52853 18.4149C6.56952 18.3658 6.64335 18.3575 6.69255 18.3986Z"
          fill="#F3F3F3"/>
    <path d="M6.70089 18.3902C6.7583 18.4312 6.76652 18.5133 6.72545 18.5707L6.24972 19.1696C6.20874 19.227 6.12669 19.2352 6.06927 19.186C6.01186 19.1449 6.00365 19.0629 6.04472 19.0054L6.52044 18.4067C6.56143 18.3492 6.64348 18.341 6.70089 18.3902ZM6.0857 19.1696C6.13482 19.2105 6.20053 19.2024 6.24151 19.1531L6.71732 18.5543C6.75018 18.5051 6.74188 18.4394 6.69276 18.3985C6.64348 18.3574 6.57785 18.3656 6.53687 18.4149L6.06106 19.0137C6.02829 19.0629 6.0365 19.1367 6.08562 19.1696H6.0857Z"
          fill="white"/>
    <path d="M6.77452 17.1681C6.82371 17.2172 6.82371 17.2911 6.77452 17.3321L5.56054 18.5379C5.51125 18.5872 5.4375 18.579 5.39644 18.5379C5.35545 18.4969 5.34724 18.4149 5.39644 18.3739L6.6022 17.1681C6.65148 17.1188 6.72532 17.1188 6.77452 17.1681Z"
          fill="#F3F3F3"/>
    <path d="M6.78294 17.1597C6.80658 17.1838 6.81982 17.2162 6.81982 17.2499C6.81982 17.2836 6.80658 17.316 6.78294 17.3401L5.56888 18.5461C5.54481 18.5697 5.51243 18.583 5.4787 18.583C5.44497 18.583 5.41259 18.5697 5.38852 18.5461C5.36484 18.522 5.35156 18.4896 5.35156 18.4558C5.35156 18.4221 5.36484 18.3896 5.38852 18.3656L6.6025 17.1597C6.62657 17.1361 6.65897 17.1228 6.69272 17.1228C6.72647 17.1228 6.75887 17.1361 6.78294 17.1597ZM5.39665 18.5378C5.43763 18.5788 5.51147 18.5788 5.55245 18.5378L6.76652 17.3319C6.80758 17.2909 6.80758 17.217 6.76652 17.1761C6.72553 17.135 6.6517 17.135 6.61071 17.1761L5.39665 18.3819C5.35567 18.4229 5.35567 18.4886 5.39665 18.5377V18.5378Z"
          fill="white"/>
    <path d="M5.54428 17.2336C5.58526 17.2828 5.58526 17.3567 5.53606 17.3977L4.95365 17.89C4.90445 17.9309 4.83062 17.9227 4.78955 17.8735C4.74856 17.8242 4.74856 17.7505 4.79776 17.7094L5.38017 17.2172C5.42945 17.1761 5.50321 17.1844 5.54428 17.2336Z"
          fill="#F3F3F3"/>
    <path d="M5.55224 17.2254C5.60144 17.2829 5.59323 17.3648 5.54403 17.4059L4.96161 17.898C4.91242 17.9473 4.83036 17.9391 4.78117 17.8817C4.73188 17.8242 4.7401 17.7422 4.78929 17.7012L5.37179 17.2091C5.42091 17.1599 5.50305 17.1681 5.55216 17.2255L5.55224 17.2254ZM4.79751 17.8735C4.83858 17.9227 4.9042 17.9227 4.95332 17.8899L5.53582 17.3977C5.5768 17.3567 5.58501 17.291 5.54403 17.2419C5.50296 17.1926 5.43734 17.1926 5.38822 17.2255L4.80572 17.7176C4.75652 17.7586 4.75652 17.8243 4.79751 17.8734V17.8735Z"
          fill="white"/>
    <path d="M5.87235 16.0523C5.91333 16.1098 5.8969 16.1835 5.83949 16.2164L4.41218 17.1679C4.35477 17.2007 4.28093 17.1843 4.24816 17.1351C4.20709 17.0777 4.22352 17.0038 4.28093 16.971L5.70833 16.0195C5.75761 15.9867 5.83136 16.0031 5.87243 16.0523H5.87235Z"
          fill="#F3F3F3"/>
    <path d="M5.88043 16.0523C5.92141 16.1098 5.90498 16.1918 5.84757 16.2329L4.42028 17.1844C4.36287 17.2254 4.28082 17.2089 4.23984 17.1434C4.19877 17.086 4.21528 17.0039 4.27261 16.9629L5.69998 16.0113C5.75739 15.9704 5.83936 15.9868 5.88034 16.0523H5.88043ZM4.25626 17.127C4.28903 17.1761 4.35466 17.1926 4.40385 17.1598L5.83115 16.2082C5.88043 16.1754 5.89677 16.1098 5.85579 16.0524C5.82302 16.0031 5.75739 15.9868 5.70811 16.0196L4.28082 16.9711C4.23162 17.0121 4.22341 17.0778 4.25626 17.127Z"
          fill="white"/>
    <path d="M4.65014 15.8801C4.683 15.9375 4.66657 16.0113 4.60916 16.0442L3.94469 16.4214C3.88727 16.4542 3.81344 16.4297 3.78066 16.3723C3.74781 16.3148 3.76424 16.241 3.82165 16.2082L4.48612 15.8309C4.54353 15.798 4.61737 15.8227 4.65023 15.8801H4.65014Z"
          fill="#F3F3F3"/>
    <path d="M4.65842 15.8718C4.69119 15.9374 4.67476 16.0112 4.61735 16.0441L3.9529 16.4214C3.89549 16.4541 3.81343 16.4296 3.78066 16.3722C3.74781 16.3065 3.76424 16.2327 3.82165 16.1999L4.4861 15.8226C4.54351 15.7897 4.62556 15.8144 4.65833 15.8718H4.65842ZM3.78879 16.364C3.82165 16.4214 3.88727 16.4378 3.93647 16.4049L4.60092 16.0276C4.65012 15.9948 4.66655 15.9292 4.64199 15.88C4.60914 15.8226 4.54351 15.8062 4.49432 15.839L3.82986 16.2163C3.78066 16.2408 3.76424 16.3065 3.78888 16.364H3.78879Z"
          fill="white"/>
    <path d="M5.19952 14.7891C5.22407 14.8547 5.19952 14.9203 5.13389 14.9449L3.55068 15.6011C3.49327 15.6258 3.41943 15.593 3.39487 15.5355C3.37023 15.4699 3.39487 15.4043 3.4605 15.3797L5.04371 14.7234C5.10112 14.6989 5.17496 14.7234 5.19952 14.7891Z"
          fill="#F3F3F3"/>
    <path d="M5.20773 14.781C5.23229 14.8466 5.20773 14.9205 5.14211 14.9532L3.55889 15.6095C3.52735 15.6214 3.49237 15.6203 3.46163 15.6064C3.43089 15.5926 3.40689 15.5671 3.39487 15.5356C3.37023 15.47 3.39487 15.3962 3.4605 15.3634L5.04371 14.7072C5.07526 14.6953 5.11023 14.6964 5.14097 14.7102C5.17171 14.724 5.19572 14.7495 5.20773 14.781ZM3.41122 15.5274C3.43586 15.5849 3.50148 15.6096 3.55068 15.5931L5.13389 14.9368C5.1913 14.9123 5.21594 14.8466 5.1913 14.7892C5.16675 14.7318 5.10112 14.7072 5.05184 14.7236L3.46863 15.3798C3.41122 15.4044 3.38666 15.47 3.41122 15.5275V15.5274Z"
          fill="white"/>
    <path d="M4.0431 14.3789C4.06765 14.4445 4.03488 14.5101 3.96926 14.5347L3.24738 14.7726C3.18997 14.7972 3.11613 14.7562 3.0997 14.6988C3.07514 14.6331 3.10791 14.5675 3.17354 14.543L3.89542 14.305C3.95283 14.2805 4.01846 14.3132 4.0431 14.3789Z"
          fill="#F3F3F3"/>
    <path d="M4.05094 14.3706C4.07558 14.4363 4.04281 14.5101 3.96898 14.5348L3.24711 14.7727C3.18149 14.7972 3.10765 14.7562 3.08301 14.6906C3.05845 14.625 3.09122 14.5511 3.16514 14.5266L3.88692 14.2886C3.95255 14.2722 4.02639 14.305 4.05103 14.3707L4.05094 14.3706ZM3.09952 14.6825C3.11595 14.7399 3.18157 14.7727 3.23898 14.7563L3.96085 14.5183C4.01826 14.502 4.0429 14.4364 4.02647 14.3789C4.01004 14.3215 3.94442 14.2887 3.88701 14.3051L3.16514 14.5431C3.10773 14.5676 3.08309 14.625 3.09952 14.6825Z"
          fill="white"/>
    <path d="M4.78141 13.4027C4.79775 13.4683 4.75677 13.534 4.69114 13.5422L3.00946 13.8703C2.94384 13.8867 2.88643 13.8374 2.87008 13.7718C2.85366 13.7062 2.89464 13.6406 2.96026 13.6324L4.64195 13.3042C4.70757 13.2961 4.7732 13.3371 4.78132 13.4027H4.78141Z"
          fill="#F3F3F3"/>
    <path d="M4.79757 13.4027C4.814 13.4766 4.7648 13.5422 4.69917 13.5586L3.01748 13.8867C2.95186 13.9031 2.88623 13.8539 2.86989 13.7801C2.85346 13.7062 2.90266 13.6406 2.96828 13.6243L4.64998 13.2961C4.71552 13.2797 4.78123 13.3289 4.79757 13.4027ZM2.88623 13.7719C2.89444 13.8293 2.95186 13.8703 3.00927 13.8621L4.69096 13.534C4.74837 13.5258 4.78936 13.4602 4.77301 13.4027C4.7648 13.3453 4.70739 13.3043 4.64989 13.3125L2.96828 13.6406C2.91087 13.657 2.86989 13.7144 2.88623 13.7719V13.7719Z"
          fill="white"/>
    <path d="M3.73127 12.7712C3.7394 12.8367 3.69841 12.8943 3.63279 12.9025L2.87814 12.9927C2.81243 13.0009 2.75502 12.9517 2.74689 12.8859C2.73868 12.8204 2.77966 12.763 2.84529 12.7547L3.60002 12.6645C3.65743 12.6563 3.72305 12.7055 3.73127 12.7712Z"
          fill="#F3F3F3"/>
    <path d="M3.73949 12.7711C3.74762 12.8448 3.69842 12.9104 3.6328 12.9186L2.87815 13.0089C2.81244 13.0171 2.7469 12.9679 2.73869 12.8941C2.73048 12.8203 2.77967 12.7546 2.8453 12.7464L3.60003 12.6562C3.66557 12.648 3.73128 12.6972 3.73941 12.771L3.73949 12.7711ZM2.74682 12.8859C2.75503 12.9433 2.81253 12.9925 2.86994 12.9843L3.62459 12.8941C3.682 12.8859 3.72307 12.8285 3.71485 12.7711C3.70664 12.7136 3.64923 12.6644 3.59182 12.6726L2.83709 12.7628C2.77967 12.7711 2.73869 12.8285 2.74682 12.8859Z"
          fill="white"/>
    <path d="M4.65007 11.9753C4.65007 12.041 4.60095 12.0984 4.53525 12.0984H2.82088C2.75525 12.0984 2.70605 12.041 2.70605 11.9754C2.70605 11.9098 2.75525 11.8523 2.82088 11.8523H4.53533C4.60095 11.8523 4.65024 11.9098 4.65024 11.9754L4.65007 11.9753Z"
          fill="#F3F3F3"/>
    <path d="M4.65829 11.9752C4.65829 12.0492 4.60079 12.1065 4.53517 12.1065H2.82079C2.75517 12.1065 2.69775 12.0491 2.69775 11.9752C2.69775 11.9015 2.75517 11.844 2.82079 11.844H4.53525C4.60088 11.844 4.65829 11.9015 4.65829 11.9752ZM2.7141 11.9671C2.7141 12.0245 2.76329 12.0819 2.82079 12.0819H4.53517C4.59258 12.0819 4.64186 12.0327 4.64186 11.9671C4.64186 11.9097 4.59258 11.8522 4.53517 11.8522H2.82079C2.76338 11.8604 2.71418 11.9097 2.71418 11.9671H2.7141Z"
          fill="white"/>
    <path d="M3.73966 11.1469C3.73136 11.2125 3.68216 11.2617 3.61654 11.2617L2.85358 11.2043C2.78804 11.1961 2.73884 11.1387 2.74697 11.0731C2.75519 11.0074 2.80447 10.9583 2.8701 10.9583L3.63296 11.0157C3.69038 11.0239 3.73966 11.0813 3.73966 11.1469Z"
          fill="#E2E2E2"/>
    <path d="M3.7475 11.1468C3.73929 11.2207 3.68188 11.2699 3.61626 11.2699L2.85332 11.2125C2.78778 11.2042 2.73037 11.1468 2.73858 11.073C2.74671 10.9992 2.8042 10.95 2.86983 10.95L3.63268 11.0074C3.69831 11.0156 3.7475 11.0812 3.7475 11.1468ZM2.74671 11.073C2.73858 11.1304 2.78778 11.1879 2.84519 11.1879L3.60813 11.2453C3.66545 11.2453 3.71473 11.2042 3.72295 11.1386C3.73116 11.0812 3.68188 11.0238 3.62447 11.0238L2.86153 10.9664C2.8042 10.9664 2.75492 11.0156 2.74671 11.0731V11.073Z"
          fill="white"/>
    <path d="M4.79753 10.548C4.7811 10.6136 4.72369 10.6546 4.65807 10.6464L2.97646 10.3019C2.91083 10.2855 2.86976 10.2281 2.88619 10.1624C2.90262 10.0968 2.96003 10.0558 3.02565 10.064L4.70735 10.4004C4.76476 10.4167 4.80574 10.4823 4.79753 10.548Z"
          fill="#F3F3F3"/>
    <path d="M4.80586 10.5481C4.78943 10.6219 4.72381 10.663 4.65818 10.6548L2.97658 10.3185C2.91096 10.302 2.86176 10.2364 2.87819 10.1627C2.89453 10.0887 2.96016 10.0478 3.02578 10.056L4.70746 10.3923C4.77309 10.4087 4.81407 10.4744 4.80586 10.5481ZM2.89453 10.1626C2.88632 10.22 2.91909 10.2774 2.97658 10.2938L4.65827 10.6302C4.71568 10.6384 4.77309 10.6056 4.78952 10.5399C4.79764 10.4825 4.76487 10.4251 4.70738 10.4086L3.02586 10.0724C2.96024 10.0642 2.91104 10.1052 2.89462 10.1626H2.89453Z"
          fill="white"/>
    <path d="M4.0596 9.56371C4.05584 9.57933 4.04903 9.59406 4.03957 9.60705C4.0301 9.62003 4.01817 9.63103 4.00446 9.63941C3.99074 9.64778 3.97551 9.65337 3.95963 9.65585C3.94375 9.65834 3.92754 9.65767 3.91192 9.65388L3.17361 9.44881C3.10799 9.43238 3.07522 9.36676 3.09156 9.30114C3.09532 9.28551 3.10213 9.27079 3.1116 9.2578C3.12106 9.24481 3.13299 9.23381 3.1467 9.22544C3.16042 9.21706 3.17565 9.21147 3.19153 9.20899C3.20741 9.20651 3.22362 9.20718 3.23924 9.21096L3.97755 9.41604C4.04318 9.43238 4.07595 9.498 4.0596 9.56362V9.56371Z"
          fill="#F3F3F3"/>
    <path d="M4.06761 9.56371C4.05126 9.62925 3.97742 9.67852 3.9118 9.65388L3.17348 9.44881C3.10785 9.43238 3.06678 9.35855 3.08321 9.29301C3.09964 9.22731 3.17348 9.17811 3.23911 9.20275L3.97742 9.40783C4.04305 9.42425 4.08412 9.48988 4.06761 9.56362V9.56371ZM3.10785 9.29284C3.09143 9.35034 3.12428 9.41596 3.18169 9.4323L3.92001 9.63737C3.97742 9.6538 4.03483 9.62095 4.05126 9.55533C4.06761 9.49792 4.03483 9.4323 3.97742 9.41596L3.23911 9.21088C3.18169 9.20267 3.12428 9.23544 3.10785 9.29293V9.29284Z"
          fill="white"/>
    <path d="M5.21605 9.16989C5.19149 9.23543 5.11757 9.26007 5.06024 9.23543L3.47695 8.57919C3.41953 8.55463 3.38676 8.4808 3.41132 8.42339C3.43596 8.35776 3.5098 8.33312 3.56721 8.35776L5.15042 9.014C5.21605 9.03856 5.24069 9.11239 5.21605 9.1698V9.16989Z"
          fill="#F3F3F3"/>
    <path d="M5.22415 9.17824C5.21214 9.20976 5.18812 9.23523 5.15736 9.24907C5.12659 9.26291 5.0916 9.26399 5.06004 9.25208L3.47682 8.59584C3.41119 8.57128 3.38664 8.49744 3.41119 8.42361C3.42321 8.39209 3.44723 8.36662 3.47799 8.35277C3.50875 8.33893 3.54374 8.33785 3.5753 8.34977L5.15852 9.00601C5.22415 9.03878 5.24871 9.1127 5.22415 9.17824ZM3.42762 8.43182C3.40306 8.48923 3.42762 8.55485 3.48503 8.57941L5.06826 9.23565C5.12567 9.26029 5.18308 9.22743 5.20772 9.17002C5.23228 9.11261 5.20772 9.04699 5.15031 9.02243L3.56709 8.3662C3.50967 8.34977 3.44405 8.37441 3.42762 8.43182Z"
          fill="white"/>
    <path d="M4.68284 8.06255C4.65007 8.11997 4.58444 8.14461 4.52703 8.11997L3.84614 7.77548C3.78873 7.75084 3.76409 7.67699 3.79694 7.61136C3.82971 7.55395 3.89534 7.52931 3.95275 7.55395L4.63356 7.89852C4.69105 7.9313 4.71569 8.00522 4.68284 8.06255Z"
          fill="#F3F3F3"/>
    <path d="M4.69114 8.07084C4.65828 8.13646 4.58444 8.16111 4.51882 8.12825L3.83802 7.78369C3.77239 7.75092 3.74775 7.67708 3.7806 7.61145C3.81337 7.54583 3.8873 7.52119 3.95284 7.55404L4.63364 7.8986C4.69935 7.92316 4.72391 8.0053 4.69114 8.07084ZM3.80516 7.61967C3.7806 7.67708 3.79703 7.74271 3.85444 7.76735L4.53525 8.11191C4.58453 8.13647 4.65015 8.11191 4.68292 8.06262C4.70748 8.00521 4.69114 7.93959 4.63372 7.91494L3.94454 7.57056C3.89534 7.546 3.82972 7.56234 3.80508 7.61975L3.80516 7.61967Z"
          fill="white"/>
    <path d="M5.8886 7.90653C5.84761 7.96403 5.78199 7.98046 5.72457 7.93939L4.30535 6.99608C4.24802 6.96323 4.23981 6.88939 4.27258 6.83198C4.30544 6.77456 4.37928 6.75814 4.43669 6.79912L5.86404 7.75073C5.91324 7.78358 5.92967 7.85742 5.8886 7.90653Z"
          fill="#F3F3F3"/>
    <path d="M5.89685 7.91483C5.85587 7.97232 5.77382 7.98867 5.71649 7.9559L4.29731 7.00429C4.2399 6.96331 4.22347 6.88947 4.26445 6.82393C4.30552 6.76643 4.38757 6.75 4.44498 6.78286L5.86408 7.73438C5.92971 7.77545 5.93792 7.85742 5.89685 7.91483ZM4.28088 6.83206C4.24811 6.88125 4.25632 6.95509 4.30544 6.98786L5.73283 7.93955C5.78203 7.97241 5.84765 7.95598 5.88051 7.90678C5.91328 7.8575 5.90507 7.78366 5.85595 7.75089L4.42847 6.79929C4.37927 6.76643 4.31365 6.78286 4.2808 6.83206H4.28088Z"
          fill="white"/>
    <path d="M5.58507 6.71713C5.54409 6.76633 5.47025 6.78275 5.42105 6.74169L4.8222 6.27419C4.773 6.23313 4.76479 6.15929 4.80577 6.11009C4.84676 6.0609 4.9206 6.04447 4.96988 6.08554L5.56864 6.55303C5.61793 6.5941 5.62614 6.66785 5.58507 6.71713Z"
          fill="#F3F3F3"/>
    <path d="M5.59342 6.72528C5.55243 6.78278 5.47038 6.79099 5.41297 6.74992L4.81415 6.28243C4.75674 6.24144 4.74852 6.15939 4.78959 6.10207C4.83057 6.04457 4.91262 6.03636 4.96995 6.07743L5.56877 6.54492C5.62627 6.58599 5.63448 6.66796 5.59342 6.72545V6.72528ZM4.80593 6.11011C4.76495 6.15931 4.77316 6.22493 4.82236 6.26591L5.42118 6.73358C5.47038 6.76635 5.53601 6.75814 5.57699 6.70894C5.61806 6.65974 5.60984 6.59412 5.56065 6.55314L4.96182 6.08547C4.91262 6.0527 4.84691 6.06091 4.80602 6.11011H4.80593Z"
          fill="white"/>
    <path d="M6.80733 6.79934C6.75822 6.84862 6.68429 6.84862 6.64331 6.79934L5.42113 5.59352C5.37193 5.54432 5.38006 5.47048 5.42113 5.42941C5.47032 5.3803 5.54417 5.3803 5.58515 5.42941L6.79929 6.63531C6.84848 6.6763 6.84848 6.75835 6.8075 6.79942L6.80733 6.79934Z"
          fill="#F3F3F3"/>
    <path d="M6.80748 6.80745C6.78341 6.83108 6.75103 6.84432 6.7173 6.84432C6.68357 6.84432 6.65118 6.83108 6.62712 6.80745L5.41294 5.60148C5.38925 5.57741 5.37598 5.54499 5.37598 5.51122C5.37598 5.47744 5.38925 5.44502 5.41294 5.42095C5.43701 5.39729 5.46941 5.38403 5.50316 5.38403C5.53691 5.38403 5.56931 5.39729 5.59338 5.42095L6.80748 6.62683C6.86489 6.67603 6.86489 6.75808 6.80748 6.80728V6.80745ZM5.42953 5.43738C5.38846 5.47845 5.38846 5.55228 5.42953 5.59318L6.64354 6.79906C6.68461 6.84013 6.75836 6.84013 6.79935 6.79906C6.84042 6.75808 6.84042 6.68424 6.79935 6.64326L5.58534 5.42925C5.54435 5.38826 5.47864 5.38826 5.42953 5.43746V5.43738Z"
          fill="white"/>
    <path d="M6.7337 5.57707C6.6845 5.61814 6.61066 5.61814 6.56959 5.56885L6.06916 4.99466C6.02826 4.94546 6.03639 4.87162 6.08567 4.83064C6.13478 4.78957 6.20871 4.78957 6.24969 4.83876L6.75012 5.41305C6.79111 5.45403 6.78289 5.52787 6.7337 5.57707Z"
          fill="#F3F3F3"/>
    <path d="M6.74175 5.57698C6.68434 5.62618 6.6105 5.61805 6.56122 5.56877L6.06086 4.99457C6.01166 4.94537 6.01988 4.86331 6.07729 4.81412C6.1347 4.76483 6.20854 4.77305 6.25774 4.82233L6.75818 5.39645C6.79916 5.45394 6.79916 5.536 6.74175 5.57698ZM6.0855 4.83054C6.03622 4.87153 6.03622 4.93715 6.06908 4.98635L6.56952 5.56055C6.6105 5.60162 6.67613 5.60984 6.72533 5.56877C6.77452 5.52778 6.77452 5.46207 6.74175 5.41296L6.24131 4.83867C6.20033 4.78956 6.13462 4.78956 6.0855 4.83054Z"
          fill="white"/>
    <path d="M7.91485 5.88881C7.85744 5.92979 7.7836 5.91337 7.75075 5.85596L6.79102 4.43677C6.75817 4.37936 6.77459 4.30552 6.82379 4.27275C6.8812 4.23177 6.95504 4.2482 6.9879 4.30561L7.93941 5.72471C7.98047 5.78212 7.96405 5.85596 7.91485 5.88873V5.88881Z"
          fill="#F3F3F3"/>
    <path d="M7.91483 5.89686C7.85742 5.93792 7.77537 5.92141 7.73431 5.86408L6.78283 4.44488C6.74185 4.38747 6.75828 4.3055 6.82381 4.26452C6.88122 4.22345 6.96327 4.23988 7.00434 4.29729L7.95581 5.71641C7.99679 5.78203 7.98037 5.85587 7.91483 5.89686ZM6.83194 4.28086C6.78275 4.31363 6.76632 4.37926 6.79917 4.42854L7.75065 5.84766C7.7835 5.89685 7.84912 5.90507 7.90645 5.87221C7.95573 5.83944 7.97215 5.77382 7.9393 5.72462L6.98791 4.31363C6.95506 4.26452 6.88122 4.248 6.83211 4.28086H6.83194Z"
          fill="white"/>
    <path d="M8.08708 4.67459C8.02967 4.70736 7.95584 4.69102 7.92307 4.63361L7.54568 3.96914C7.51291 3.91173 7.53747 3.83789 7.59496 3.80504C7.65237 3.77227 7.7262 3.78861 7.75897 3.84611L8.13627 4.51048C8.16091 4.5679 8.14449 4.64173 8.08716 4.67459H8.08708Z"
          fill="#F3F3F3"/>
    <path d="M8.087 4.68281C8.02138 4.71558 7.94754 4.69924 7.91477 4.64174L7.53737 3.97736C7.5046 3.91986 7.52102 3.83789 7.58665 3.80504C7.65227 3.77227 7.72611 3.78861 7.75888 3.84611L8.1362 4.51049C8.16905 4.5679 8.15263 4.64174 8.08709 4.68281H8.087ZM7.59486 3.81325C7.54558 3.84602 7.52102 3.91165 7.55379 3.96093L7.9312 4.6254C7.96397 4.67451 8.02959 4.69102 8.07879 4.66638C8.12807 4.63361 8.15263 4.5679 8.11986 4.5187L7.74245 3.85424C7.7179 3.80512 7.64406 3.7804 7.59486 3.81325Z"
          fill="white"/>
    <path d="M9.17809 5.21599C9.11255 5.24055 9.04684 5.21599 9.02229 5.15858L8.35785 3.57528C8.3333 3.51787 8.36607 3.44403 8.42347 3.41939C8.4891 3.39484 8.55472 3.41939 8.57927 3.4768L9.24371 5.06002C9.26835 5.11743 9.23558 5.19127 9.17809 5.21582V5.21599Z"
          fill="#F3F3F3"/>
    <path d="M9.17818 5.22437C9.11264 5.24893 9.0388 5.22437 9.00594 5.15866L8.34147 3.57554C8.32955 3.54399 8.33063 3.50899 8.34447 3.47823C8.35832 3.44747 8.38379 3.42345 8.41531 3.41144C8.48093 3.38688 8.55477 3.41144 8.58763 3.47706L9.25202 5.06027C9.27666 5.11768 9.24389 5.19152 9.17826 5.22437H9.17818ZM8.43174 3.42787C8.37432 3.45242 8.34968 3.51813 8.37432 3.56733L9.03871 5.15045C9.06327 5.20786 9.12889 5.23241 9.18631 5.20786C9.24372 5.1833 9.26844 5.11759 9.24372 5.0684L8.57933 3.48519C8.54648 3.42778 8.48906 3.40314 8.43165 3.42778L8.43174 3.42787Z"
          fill="white"/>
    <path d="M9.57993 4.05134C9.51431 4.07589 9.44869 4.04304 9.42414 3.9775L9.18622 3.25555C9.16166 3.19814 9.20264 3.1243 9.26005 3.10796C9.31745 3.09153 9.39129 3.11617 9.41584 3.18179L9.65376 3.90366C9.67831 3.96107 9.64555 4.0267 9.57993 4.05125V4.05134Z"
          fill="#F3F3F3"/>
    <path d="M9.58838 4.05948C9.55683 4.07137 9.52186 4.07027 9.49111 4.05643C9.46037 4.04259 9.43636 4.01714 9.42435 3.98564L9.1864 3.26376C9.16184 3.19814 9.20282 3.12438 9.26854 3.09974C9.30008 3.08785 9.33506 3.08895 9.3658 3.10279C9.39654 3.11662 9.42055 3.14208 9.43256 3.17358L9.67043 3.89546C9.68686 3.96108 9.65401 4.03492 9.58838 4.05948ZM9.26845 3.11617C9.21104 3.13251 9.17818 3.19814 9.19461 3.25555L9.43256 3.97751C9.44891 4.03492 9.51454 4.05948 9.57203 4.04305C9.62945 4.02671 9.66222 3.96108 9.64579 3.90367L9.40792 3.18171C9.40374 3.16778 9.39667 3.1549 9.38718 3.14388C9.37769 3.13287 9.36598 3.12398 9.35283 3.11779C9.33967 3.1116 9.32536 3.10825 9.31082 3.10795C9.29628 3.10766 9.28185 3.11043 9.26845 3.11608V3.11617Z"
          fill="white"/>
    <path d="M10.548 4.79777C10.4823 4.81419 10.4167 4.77321 10.4085 4.7075L10.064 3.0259C10.0475 2.96028 10.0968 2.90287 10.1624 2.88644C10.2281 2.87001 10.2936 2.911 10.3018 2.97671L10.6464 4.65839C10.6546 4.71572 10.6136 4.78134 10.548 4.79777Z"
          fill="#F3F3F3"/>
    <path d="M10.5481 4.80595C10.4742 4.82238 10.4086 4.77309 10.3922 4.70747L10.0476 3.02586C10.0312 2.96024 10.0805 2.8864 10.1461 2.87818C10.2199 2.86176 10.2856 2.91104 10.3019 2.97666L10.6465 4.65836C10.6629 4.7239 10.6219 4.78961 10.5481 4.80595ZM10.1625 2.89461C10.105 2.90283 10.064 2.96024 10.0723 3.02586L10.4168 4.70755C10.425 4.76488 10.4906 4.80595 10.5481 4.78952C10.6055 4.78131 10.6465 4.7239 10.6382 4.65827L10.2937 2.97658C10.2774 2.91925 10.2199 2.8864 10.1624 2.89461H10.1625Z"
          fill="white"/>
    <path d="M11.1716 3.73128C11.106 3.73949 11.0486 3.69851 11.0321 3.63288L10.9338 2.87814C10.9255 2.81252 10.9747 2.7551 11.0404 2.74689C11.106 2.73868 11.1634 2.77975 11.1798 2.84537L11.2782 3.60003C11.2864 3.66565 11.2372 3.72306 11.1716 3.73128Z"
          fill="#F3F3F3"/>
    <path d="M11.1715 3.73948C11.0977 3.74769 11.0321 3.6985 11.0238 3.63279L10.9255 2.87814C10.9172 2.81251 10.9664 2.74689 11.0403 2.73867C11.1141 2.73054 11.1797 2.77974 11.1879 2.84537L11.2863 3.60002C11.2945 3.66564 11.2453 3.73127 11.1715 3.73948ZM11.0485 2.7551C10.9911 2.76331 10.9418 2.82073 10.95 2.87814L11.0485 3.63287C11.0567 3.69028 11.1141 3.73127 11.1715 3.72305C11.2289 3.71492 11.2782 3.65743 11.27 3.60002L11.1715 2.84537C11.1633 2.78796 11.1059 2.74689 11.0485 2.7551Z"
          fill="white"/>
    <path d="M12.0575 21.7043C17.4215 21.7043 21.77 17.3559 21.77 11.9918C21.77 6.62773 17.4215 2.2793 12.0575 2.2793C6.6934 2.2793 2.34497 6.62773 2.34497 11.9918C2.34497 17.3559 6.6934 21.7043 12.0575 21.7043Z"
          fill="url(#paint2_linear_10259_260692)" fill-opacity="0.2"/>
    <path d="M18.7841 5.8313L10.95 10.8517H10.9418V10.8598L10.9336 10.868L6.04468 18.9317L13.2306 13.1485L13.2388 13.1404V13.1322L18.7841 5.83138L18.7841 5.8313Z"
          fill="black" fill-opacity="0.05"/>
    <path d="M18.6363 5.36377L10.8926 10.868L13.1895 13.1485L18.6363 5.36377Z" fill="#CD151E"/>
    <path d="M10.9009 10.8517L12.0576 11.9919L18.6364 5.36377L10.9009 10.8517Z" fill="#FA5153"/>
    <path d="M10.9007 10.8516L13.1976 13.132L5.45386 18.6364L10.9007 10.8516V10.8516Z" fill="#ACACAC"/>
    <path d="M5.45386 18.6364L12.0573 11.9918L10.9006 10.8516L5.45386 18.6364Z" fill="#EEEEEE"/>
    <defs>
        <linearGradient id="paint0_linear_10259_260692" x1="12" y1="22.5" x2="12" y2="1.5"
                        gradientUnits="userSpaceOnUse">
            <stop offset="0.25" stop-color="#DBDBDA"/>
            <stop offset="1" stop-color="white"/>
        </linearGradient>
        <radialGradient id="paint1_radial_10259_260692" cx="0" cy="0" r="1" gradientUnits="userSpaceOnUse"
                        gradientTransform="translate(13.3647 9.86665) scale(11.8555)">
            <stop stop-color="#2ABCE1"/>
            <stop offset="0.11363" stop-color="#2ABBE1"/>
            <stop offset="1" stop-color="#3375F8"/>
        </radialGradient>
        <linearGradient id="paint2_linear_10259_260692" x1="11.8729" y1="9.2146" x2="7.33972" y2="17.3477"
                        gradientUnits="userSpaceOnUse">
            <stop stop-opacity="0"/>
            <stop offset="1"/>
        </linearGradient>
    </defs>
</svg>
