<svg width="24" height="24" viewBox="0 0 24 24" fill="none" xmlns="http://www.w3.org/2000/svg">
    <path d="M1.5 12C1.5 6.20101 6.20101 1.5 12 1.5C17.799 1.5 22.5 6.20101 22.5 12C22.5 17.799 17.799 22.5 12 22.5C6.20101 22.5 1.5 17.799 1.5 12Z"
          fill="#59316B"/>
    <path d="M12.7753 4.23172L12.3469 5.97554C12.9538 4.74391 13.9176 3.81713 15.0244 3C14.2152 3.96339 13.4775 4.92687 13.0252 5.89026C13.7869 4.79266 14.8102 4.18297 15.9645 3.78052C14.4294 5.18297 13.2109 6.68786 12.2827 8.20006L11.5449 7.87083C11.6757 6.66349 12.1208 5.42692 12.7753 4.23172Z"
          fill="#ABCD03"/>
    <path d="M10.8055 7.55029L12.2097 8.14731C12.2097 8.51323 12.1807 9.62932 12.404 9.95855C14.7394 13.0409 14.3465 19.2195 11.9309 19.378C8.25248 19.378 6.84961 16.8171 6.84961 14.4634C6.84961 12.3171 9.36041 10.8903 10.8599 9.62202C11.2406 9.28056 11.1745 8.52592 10.8055 7.55029Z"
          fill="#FFFCDB"/>
    <path d="M12.21 8.12573L12.716 8.39029C12.6685 8.73166 12.7398 9.48789 13.0729 9.68291C14.5486 10.6219 15.9408 11.6463 16.4882 12.6707C18.4398 16.2805 15.1197 19.6219 12.2519 19.3048C13.8108 18.1218 14.263 15.6951 13.6799 13.0487C13.4419 12.0121 13.0729 11.073 12.4184 10.0121C12.1348 9.49125 12.2338 8.84535 12.21 8.12573Z"
          fill="white"/>
    <path d="M11.9664 8.03664L13.0135 8.18299C12.7041 9.23175 13.6205 9.96342 13.918 10.1342C14.5844 10.5123 15.227 10.9025 15.7387 11.3781C16.7026 12.2805 17.25 13.5488 17.25 14.8903C17.25 16.2195 16.655 17.5 15.6554 18.3537C14.7153 19.1586 13.4183 19.5 12.1569 19.5C11.3715 19.5 10.6693 19.4635 9.9078 19.2073C8.17048 18.6097 6.87334 17.0854 6.76625 15.256C6.67102 13.8292 6.98042 12.7439 8.06339 11.6097C8.6226 11.0122 9.75314 10.3293 10.5267 9.78046C10.9076 9.51213 11.3121 8.75599 10.5386 7.32925L10.6933 7.20728L11.8397 7.99414L10.8718 7.58535C10.9551 7.70732 11.1812 8.25612 11.2289 8.41462C11.336 8.86582 11.2884 9.30497 11.1932 9.49999C10.7053 10.4025 9.87234 10.6463 9.26547 11.1585C8.19444 12.0609 7.02826 12.7805 7.15913 15.256C7.21864 16.4755 8.14686 17.9634 9.53906 18.6585C10.3245 19.0488 11.2289 19.2073 12.1452 19.2561C12.9662 19.2927 14.5371 18.7926 15.3938 18.0609C16.3101 17.2805 16.8218 16.0976 16.8218 14.8903C16.8218 13.6707 16.3458 12.5122 15.4533 11.6951C14.9416 11.2195 14.0968 10.6463 13.5732 10.3414C13.0496 10.0366 12.3951 9.1829 12.6093 8.36586L11.9664 8.03664Z"
          fill="black"/>
    <path d="M11.6453 9.84155C11.5382 10.4026 11.4192 11.4147 10.9432 11.7928C10.7408 11.9391 10.5385 12.0855 10.3244 12.2318C9.46758 12.8294 8.61072 13.3903 8.21811 14.8293C8.13481 15.1343 8.20626 15.4635 8.27771 15.7683C8.49188 16.6464 9.09875 17.5976 9.57476 18.1587C9.57476 18.183 9.66999 18.244 9.66999 18.2684C10.0627 18.7441 10.1817 18.8782 11.6692 19.2196L11.6334 19.3904C10.7409 19.1465 10.0032 18.927 9.53903 18.3781C9.53903 18.366 9.45573 18.2805 9.45573 18.2805C8.95594 17.6951 8.34898 16.7196 8.12296 15.805C8.03966 15.439 7.9683 15.1586 8.06345 14.7805C8.468 13.2928 9.34865 12.7074 10.2411 12.0854C10.4435 11.9513 10.6814 11.8292 10.8718 11.6707C11.2406 11.3904 11.4429 10.5366 11.6453 9.84155Z"
          fill="black"/>
    <path d="M12.0256 12.1584C12.0375 12.7926 11.9771 13.1107 12.1318 13.562C12.2269 13.8303 12.5485 14.1962 12.6437 14.5499C12.7746 15.0255 12.9171 15.5499 12.9051 15.8669C12.9051 16.2329 12.8828 16.9155 12.7281 17.6472C12.6102 18.2518 12.3383 18.7707 11.8813 19.0648C11.4131 18.966 10.8634 18.7973 10.5389 18.5123C9.90824 17.9513 9.34965 17.0133 9.27821 16.1962C9.21878 15.5255 9.82476 14.5364 10.6696 14.0364C11.3836 13.6096 11.5496 13.1231 11.7043 12.3426C11.4901 13.0255 11.289 13.598 10.5988 13.9639C9.59922 14.5004 9.08632 15.4012 9.13389 16.2548C9.20525 17.3523 9.63416 18.096 10.479 18.6936C10.836 18.9497 11.5029 19.2204 11.9194 19.2936V19.2378C12.2352 19.1772 12.6442 18.6455 12.8479 17.9263C13.0264 17.28 13.0968 16.4527 13.0848 15.9283C13.0729 15.6235 12.9416 14.9632 12.7036 14.3657C12.5727 14.0365 12.3717 13.7073 12.2407 13.4755C12.0981 13.2436 12.097 12.7438 12.0256 12.1584Z"
          fill="black"/>
    <path d="M11.9549 14.5498C11.9667 14.9766 12.134 15.5235 12.2054 16.0845C12.265 16.4992 12.2391 16.9157 12.2272 17.2816C12.2154 17.7052 12.0777 18.4641 11.8895 18.8331C11.7121 18.7497 11.6427 18.6546 11.5274 18.5011C11.3847 18.2937 11.2877 18.0864 11.1925 17.8425C11.1211 17.6596 11.0377 17.4502 11.0019 17.2063C10.9543 16.8405 10.9676 16.2681 11.3722 15.6827C11.6816 15.2193 11.7525 15.184 11.8596 14.6475C11.7167 15.1231 11.6102 15.1715 11.2769 15.5739C10.9081 16.013 10.8467 16.6596 10.8467 17.184C10.8467 17.4036 10.9321 17.6472 11.0155 17.8788C11.1106 18.1227 11.1923 18.3656 11.3232 18.5485C11.5199 18.845 11.7717 19.0137 11.895 19.0452C11.8958 19.0454 11.8969 19.045 11.8977 19.0452C11.9003 19.0458 11.9034 19.0475 11.9059 19.048V19.034C12.1368 18.7702 12.2757 18.5082 12.3225 18.2443C12.382 17.9273 12.3957 17.6095 12.4314 17.2314C12.467 16.9143 12.4412 16.4872 12.3579 16.0483C12.2389 15.4995 12.0382 14.9399 11.9549 14.5498L11.9549 14.5498Z"
          fill="black"/>
    <path d="M11.9903 9.32935C12.0023 9.96342 12.0498 11.1465 12.2164 11.6098C12.264 11.7683 12.7043 12.4635 13.0136 13.3049C13.2279 13.8903 13.2754 14.4269 13.3112 14.5854C13.454 15.2805 13.2754 16.4512 13.0374 17.561C12.9184 18.1585 12.5138 18.9025 12.0497 19.1952L11.9546 19.3659C12.2164 19.3537 12.8589 18.7073 13.085 17.9025C13.4659 16.5366 13.6206 15.9024 13.4421 14.3903C13.4183 14.2438 13.3588 13.7439 13.1327 13.2073C12.7995 12.3902 12.3235 11.6097 12.2641 11.4511C12.1569 11.1951 12.0141 10.0854 11.9903 9.32935Z"
          fill="black"/>
    <path d="M12.2134 8.46191C12.1781 9.11359 12.1687 9.35358 12.2876 9.82916C12.4185 10.3536 13.0849 11.1096 13.3586 11.9755C13.8822 13.6341 13.7513 15.8048 13.3705 17.4999C13.2277 18.0973 12.5493 18.9633 11.8711 19.2437L12.3709 19.3657C12.6446 19.3534 13.3466 18.6827 13.6204 17.9145C14.0606 16.7071 14.1439 15.2681 13.9654 13.7559C13.9535 13.6096 13.7154 12.3047 13.4894 11.7559C13.1681 10.9389 12.5968 10.2071 12.5374 10.0487C12.4304 9.7804 12.1953 9.22333 12.2134 8.46191Z"
          fill="black"/>
    <rect x="11.835" y="8.00342" width="0.369004" height="11.2527" fill="black"/>
</svg>
