<svg width="24" height="24" viewBox="0 0 24 24" fill="none" xmlns="http://www.w3.org/2000/svg">
    <path d="M1.5 5.72069C2.11379 4.31379 4.26205 1.5 7.94479 1.5C12.6373 1.5 12.8155 5.03705 12.8155 6.28543C12.8155 9.03497 10.8835 10.3582 8.94118 11.6886C6.97811 13.0331 5.00454 14.3848 5.00454 17.2235C5.00454 20.7309 7.89529 22.4152 9.34067 22.4548C2.30189 22.4548 1.5891 17.4316 1.5891 16.4507C1.5891 13.6636 2.90188 12.1635 4.0877 10.8085C5.06438 9.69249 5.95492 8.67488 5.95492 7.11767C5.95492 4.02647 2.21279 4.59121 1.5 5.72069Z"
          fill="white"/>
    <path d="M1.5 5.72069C2.11379 4.31379 4.26205 1.5 7.94479 1.5C12.6373 1.5 12.8155 5.03705 12.8155 6.28543C12.8155 9.03497 10.8835 10.3582 8.94118 11.6886C6.97811 13.0331 5.00454 14.3848 5.00454 17.2235C5.00454 20.7309 7.89529 22.4152 9.34067 22.4548C2.30189 22.4548 1.5891 17.4316 1.5891 16.4507C1.5891 13.6636 2.90188 12.1635 4.0877 10.8085C5.06438 9.69249 5.95492 8.67488 5.95492 7.11767C5.95492 4.02647 2.21279 4.59121 1.5 5.72069Z"
          fill="url(#paint0_linear_10259_260847)"/>
    <path d="M12.4294 10.4764C13.36 10.1494 15.5419 9.22802 16.8249 8.15798C16.7061 6.90961 17.1813 5.69096 17.6862 5.21539C18.3099 5.75041 18.6366 6.72136 18.7257 7.29601C19.8246 7.59324 22.0877 8.84756 22.349 11.487C22.4203 11.9625 22.3787 12.4976 22.349 12.7056C22.0323 12.8542 21.1314 13.092 19.9434 12.9731C19.2029 12.899 18.6912 12.5921 18.0403 12.2016C17.3859 11.809 16.5906 11.332 15.2806 10.9222C13.855 10.4764 12.667 10.4764 12.4294 10.4764Z"
          fill="white"/>
    <path d="M12.4294 10.4764C13.36 10.1494 15.5419 9.22802 16.8249 8.15798C16.7061 6.90961 17.1813 5.69096 17.6862 5.21539C18.3099 5.75041 18.6366 6.72136 18.7257 7.29601C19.8246 7.59324 22.0877 8.84756 22.349 11.487C22.4203 11.9625 22.3787 12.4976 22.349 12.7056C22.0323 12.8542 21.1314 13.092 19.9434 12.9731C19.2029 12.899 18.6912 12.5921 18.0403 12.2016C17.3859 11.809 16.5906 11.332 15.2806 10.9222C13.855 10.4764 12.667 10.4764 12.4294 10.4764Z"
          fill="url(#paint1_linear_10259_260847)"/>
    <path d="M13.5283 11.4572C11.6275 11.1243 10.1228 11.596 9.60796 11.8734C13.8134 11.4216 16.2111 14.4593 16.8843 16.0346C16.815 16.203 17.7456 16.2724 18.1614 16.2724C18.605 16.2724 19.2599 16.0187 19.8827 15.7774C20.4273 15.5663 20.9473 15.3649 21.2799 15.351C21.8501 15.3272 22.3292 15.559 22.4975 15.6779C22.5173 15.4501 22.4263 14.8814 21.9036 14.4296C21.5529 14.1265 21.0826 14.0974 20.5108 14.0619C20.0171 14.0313 19.4479 13.996 18.8148 13.7757C18.3185 13.6029 17.7987 13.3046 17.224 12.9748C16.2168 12.3968 15.0411 11.7222 13.5283 11.4572Z"
          fill="white"/>
    <path d="M13.5283 11.4572C11.6275 11.1243 10.1228 11.596 9.60796 11.8734C13.8134 11.4216 16.2111 14.4593 16.8843 16.0346C16.815 16.203 17.7456 16.2724 18.1614 16.2724C18.605 16.2724 19.2599 16.0187 19.8827 15.7774C20.4273 15.5663 20.9473 15.3649 21.2799 15.351C21.8501 15.3272 22.3292 15.559 22.4975 15.6779C22.5173 15.4501 22.4263 14.8814 21.9036 14.4296C21.5529 14.1265 21.0826 14.0974 20.5108 14.0619C20.0171 14.0313 19.4479 13.996 18.8148 13.7757C18.3185 13.6029 17.7987 13.3046 17.224 12.9748C16.2168 12.3968 15.0411 11.7222 13.5283 11.4572Z"
          fill="url(#paint2_linear_10259_260847)"/>
    <path fill-rule="evenodd" clip-rule="evenodd"
          d="M9.66736 21.4442C11.3896 21.4442 12.7858 20.0469 12.7858 18.3233C12.7858 16.5997 11.3896 15.2024 9.66736 15.2024C7.94509 15.2024 6.54891 16.5997 6.54891 18.3233C6.54891 20.0469 7.94509 21.4442 9.66736 21.4442ZM9.66736 19.7203C10.4383 19.7203 11.0632 19.0948 11.0632 18.3233C11.0632 17.5518 10.4383 16.9263 9.66736 16.9263C8.89644 16.9263 8.27148 17.5518 8.27148 18.3233C8.27148 19.0948 8.89644 19.7203 9.66736 19.7203Z"
          fill="white"/>
    <path fill-rule="evenodd" clip-rule="evenodd"
          d="M9.66736 21.4442C11.3896 21.4442 12.7858 20.0469 12.7858 18.3233C12.7858 16.5997 11.3896 15.2024 9.66736 15.2024C7.94509 15.2024 6.54891 16.5997 6.54891 18.3233C6.54891 20.0469 7.94509 21.4442 9.66736 21.4442ZM9.66736 19.7203C10.4383 19.7203 11.0632 19.0948 11.0632 18.3233C11.0632 17.5518 10.4383 16.9263 9.66736 16.9263C8.89644 16.9263 8.27148 17.5518 8.27148 18.3233C8.27148 19.0948 8.89644 19.7203 9.66736 19.7203Z"
          fill="url(#paint3_linear_10259_260847)"/>
    <path d="M6.37072 15.5501C6.7874 14.5316 8.1151 12.7651 10.6178 12.7651C13.9144 12.7651 16.1122 15.6185 16.1122 18.5611C16.1122 19.3636 15.637 20.6417 15.637 20.6417C17.0031 20.6417 18.5475 21.4739 18.5475 22.2468C17.0567 22.4223 14.2135 22.5402 10.7827 22.4872C12.6204 21.9954 13.9738 20.3175 13.9738 18.3233C13.9738 15.943 12.0457 14.0134 9.66737 14.0134C8.34435 14.0134 7.16068 14.6105 6.37072 15.5501Z"
          fill="white"/>
    <path d="M6.37072 15.5501C6.7874 14.5316 8.1151 12.7651 10.6178 12.7651C13.9144 12.7651 16.1122 15.6185 16.1122 18.5611C16.1122 19.3636 15.637 20.6417 15.637 20.6417C17.0031 20.6417 18.5475 21.4739 18.5475 22.2468C17.0567 22.4223 14.2135 22.5402 10.7827 22.4872C12.6204 21.9954 13.9738 20.3175 13.9738 18.3233C13.9738 15.943 12.0457 14.0134 9.66737 14.0134C8.34435 14.0134 7.16068 14.6105 6.37072 15.5501Z"
          fill="url(#paint4_linear_10259_260847)"/>
    <defs>
        <linearGradient id="paint0_linear_10259_260847" x1="20.2941" y1="1.94118" x2="2.07353" y2="22.2794"
                        gradientUnits="userSpaceOnUse">
            <stop stop-color="#FCA336"/>
            <stop offset="1" stop-color="#FC7625"/>
        </linearGradient>
        <linearGradient id="paint1_linear_10259_260847" x1="20.2941" y1="1.94118" x2="2.07353" y2="22.2794"
                        gradientUnits="userSpaceOnUse">
            <stop stop-color="#FCA336"/>
            <stop offset="1" stop-color="#FC7625"/>
        </linearGradient>
        <linearGradient id="paint2_linear_10259_260847" x1="20.2941" y1="1.94118" x2="2.07353" y2="22.2794"
                        gradientUnits="userSpaceOnUse">
            <stop stop-color="#FCA336"/>
            <stop offset="1" stop-color="#FC7625"/>
        </linearGradient>
        <linearGradient id="paint3_linear_10259_260847" x1="20.2941" y1="1.94118" x2="2.07353" y2="22.2794"
                        gradientUnits="userSpaceOnUse">
            <stop stop-color="#FCA336"/>
            <stop offset="1" stop-color="#FC7625"/>
        </linearGradient>
        <linearGradient id="paint4_linear_10259_260847" x1="20.2941" y1="1.94118" x2="2.07353" y2="22.2794"
                        gradientUnits="userSpaceOnUse">
            <stop stop-color="#FCA336"/>
            <stop offset="1" stop-color="#FC7625"/>
        </linearGradient>
    </defs>
</svg>
