<svg width="25" height="24" viewBox="0 0 25 24" fill="none" xmlns="http://www.w3.org/2000/svg">
    <rect x="1.72217" y="1.5" width="21" height="21" fill="#1271CD"/>
    <path d="M6.61523 12.4199L9.97418 4.91235H13.1744L14.3117 7.4586V4.91235H18.3054L18.9666 6.8811L19.6543 4.91235H22.7223V5.8049H20.2891L18.9931 9.3749L17.6443 5.8049H15.1581V11.5537L12.6191 5.8049H10.5297L7.96417 11.5537H9.73621L10.1858 10.4249H12.8836L13.3596 11.5537H15.1581H16.745V7.56365L18.2261 11.5537H19.6543L21.1884 7.56365V11.5537H22.7223V12.4199H20.6594L18.9402 14.2574L17.2475 12.4199H15.1846H10.2123V18.1949H15.1846H17.2475L18.9402 16.3574L20.6594 18.1949H22.7223V19.0611H20.2361L18.9666 17.6436L17.6178 19.0611H9.28652V12.4199H6.61523Z"
          fill="white"/>
    <path d="M22.7223 18.1949V17.0124L21.1618 15.3336L22.7223 13.6988V12.4199L19.9717 15.3337L22.7223 18.1949Z"
          fill="white"/>
    <path d="M15.1846 18.1949V16.9087H11.7727V15.9899H15.0788V14.7037H11.7727V13.7849H15.1846V12.4199L17.9352 15.3337L15.1846 18.1949Z"
          fill="white"/>
    <path d="M11.5611 7.2224L10.7413 9.13865H12.3546L11.5611 7.2224Z" fill="white"/>
</svg>
