<svg width="41" height="24" viewBox="0 0 41 24" fill="none" xmlns="http://www.w3.org/2000/svg">
    <g clip-path="url(#clip0_10270_257884)">
        <path d="M6.22835 6.60688C6.97835 6.67202 7.72835 6.21602 8.19835 5.63487V5.63316C8.66002 5.04002 8.96502 4.23773 8.89002 3.42859C8.22169 3.46116 7.40335 3.88459 6.93502 4.47945C6.50169 4.98687 6.13335 5.82345 6.22835 6.60688ZM4.37169 17.2217C5.20169 17.1892 5.52835 16.6612 6.52835 16.6612C7.53502 16.6612 7.82835 17.2217 8.70335 17.2097C9.61002 17.1909 10.1784 16.3629 10.7334 15.5126C11.3634 14.5474 11.6267 13.6132 11.64 13.5617C11.6217 13.5429 9.89002 12.8503 9.87002 10.7623C9.85169 9.01373 11.24 8.18402 11.3 8.13259C10.5184 6.91888 9.30002 6.78859 8.87502 6.75602L8.87835 6.75773C7.79002 6.69088 6.86002 7.4023 6.34669 7.4023C5.82169 7.4023 5.03502 6.78859 4.17169 6.80745C3.05502 6.82802 2.01669 7.48802 1.44835 8.53716C0.273353 10.644 1.14169 13.7572 2.27835 15.4732C2.83502 16.32 3.49669 17.2543 4.37169 17.2217ZM24.6384 10.6063H26.345C26.4884 9.82288 27.1817 9.30688 28.1334 9.30688C29.29 9.30688 29.94 9.86745 29.94 10.9046V11.6092L27.5784 11.76C25.385 11.8972 24.1967 12.8366 24.1967 14.4669C24.2034 16.1109 25.4267 17.2063 27.1834 17.208C28.3717 17.208 29.4717 16.5823 29.97 15.5846H30.0067V17.112H31.7567V10.7829C31.7567 8.9503 30.35 7.7623 28.1884 7.7623C26.1817 7.7623 24.6967 8.96059 24.6384 10.6063ZM29.9467 13.668C29.9467 14.856 28.9767 15.7029 27.6967 15.7029C26.69 15.7029 26.0467 15.1937 26.0467 14.424C26.0467 13.62 26.665 13.1589 27.8467 13.0869L29.9467 12.9497V13.668ZM15.1517 4.39373V17.1103H17.045V12.7646H19.6634C22.0567 12.7646 23.7317 11.0486 23.7317 8.56973C23.7317 6.09087 22.0834 4.39373 19.725 4.39373H15.1517ZM21.8084 8.57659C21.8084 10.1812 20.8717 11.1086 19.22 11.1086H17.045V6.0583H19.2267C20.87 6.0583 21.8084 6.9703 21.8084 8.57659Z"
              fill="#212121"/>
        <path d="M36.7005 15.3943L34.4755 7.88574H32.5005L35.7005 17.1446L35.5255 17.7052C35.2372 18.6566 34.7688 19.0303 33.9322 19.0303C33.7822 19.0303 33.4955 19.0115 33.3755 18.9977V20.5252C33.4888 20.5526 33.9588 20.5715 34.1022 20.5715L34.1005 20.568C35.9438 20.568 36.8122 19.8309 37.5705 17.6057L40.8888 7.88574H38.9638L36.7388 15.3943H36.7005Z"
              fill="#212121"/>
    </g>
    <defs>
        <clipPath id="clip0_10270_257884">
            <rect width="40" height="17.1429" fill="white" transform="translate(0.888672 3.42859)"/>
        </clipPath>
    </defs>
</svg>
