<svg width="25" height="24" viewBox="0 0 25 24" fill="none" xmlns="http://www.w3.org/2000/svg">
    <path d="M23.3613 16.9238C23.3613 18.7571 21.7935 20.25 19.8681 20.25H0.861328V7.07619C0.861328 5.24286 2.42918 3.75 4.3546 3.75H23.3613V16.9238Z"
          fill="white"/>
    <path d="M18.4514 4.86316C17.0761 4.86316 15.9483 5.92387 15.9483 7.24649V9.72149H19.4829C19.5654 9.72149 19.6616 9.72149 19.7304 9.73459C20.5281 9.77387 21.1195 10.1667 21.1195 10.8477C21.1195 11.3846 20.7206 11.8429 19.978 11.9346V11.9608C20.7894 12.0132 21.4083 12.4453 21.4083 13.1132C21.4083 13.8334 20.7206 14.3048 19.8129 14.3048H15.9346V19.1501H19.6066C20.9819 19.1501 22.1097 18.0893 22.1097 16.7667V4.86316H18.4514Z"
          fill="url(#paint0_linear_10259_262097)"/>
    <path d="M17.1724 13.5453H18.6164C18.6371 13.5453 18.6714 13.542 18.7058 13.5388C18.7402 13.5355 18.7746 13.5322 18.7952 13.5322C19.0703 13.4798 19.3041 13.2441 19.3041 12.9167C19.3041 12.6024 19.0703 12.3667 18.7952 12.3013C18.754 12.2882 18.6714 12.2882 18.6164 12.2882H17.1724V13.5453Z"
          fill="url(#paint1_linear_10259_262097)"/>
    <path d="M18.6164 10.4417C18.8915 10.4809 19.1253 10.6905 19.1253 11.0048C19.1253 11.319 18.8915 11.5286 18.6164 11.5679C18.6027 11.5809 18.5202 11.5809 18.4789 11.5809H17.1724V10.4286H18.4789C18.5016 10.4286 18.5327 10.4325 18.5606 10.4361C18.5834 10.439 18.6041 10.4417 18.6164 10.4417Z"
          fill="url(#paint2_linear_10259_262097)"/>
    <path d="M4.61593 4.86316C3.24062 4.86316 2.11287 5.92387 2.11287 7.24649V13.1263C2.81428 13.4536 3.54319 13.6632 4.2721 13.6632C5.13855 13.6632 5.60615 13.1655 5.60615 12.4846V9.7084H7.75163V12.4715C7.75163 13.5453 7.05022 14.4227 4.67094 14.4227C3.22687 14.4227 2.09912 14.1215 2.09912 14.1215V19.137H5.77119C7.14649 19.137 8.27424 18.0763 8.27424 16.7536V4.86316H4.61593Z"
          fill="url(#paint3_linear_10259_262097)"/>
    <path d="M11.5338 4.86316C10.1585 4.86316 9.03076 5.92387 9.03076 7.24649V10.3632C9.6634 9.85244 10.7636 9.52506 12.5378 9.60364C13.4868 9.64292 14.5045 9.89173 14.5045 9.89173V10.9001C13.9956 10.6513 13.3905 10.4286 12.6066 10.3763C11.2588 10.2846 10.4473 10.9132 10.4473 12.0132C10.4473 13.1263 11.2588 13.7548 12.6066 13.6501C13.3905 13.5977 13.9956 13.362 14.5045 13.1263V14.1346C14.5045 14.1346 13.5005 14.3834 12.5378 14.4227C10.7636 14.5013 9.6634 14.1739 9.03076 13.6632V19.1632H12.7028C14.0781 19.1632 15.2059 18.1024 15.2059 16.7798V4.86316H11.5338Z"
          fill="url(#paint4_linear_10259_262097)"/>
    <defs>
        <linearGradient id="paint0_linear_10259_262097" x1="15.9456" y1="11.0028" x2="22.1261" y2="11.0028"
                        gradientUnits="userSpaceOnUse">
            <stop stop-color="#007940"/>
            <stop offset="0.2285" stop-color="#00873F"/>
            <stop offset="0.7433" stop-color="#40A737"/>
            <stop offset="1" stop-color="#5CB531"/>
        </linearGradient>
        <linearGradient id="paint1_linear_10259_262097" x1="15.9456" y1="11.0028" x2="22.1261" y2="11.0028"
                        gradientUnits="userSpaceOnUse">
            <stop stop-color="#007940"/>
            <stop offset="0.2285" stop-color="#00873F"/>
            <stop offset="0.7433" stop-color="#40A737"/>
            <stop offset="1" stop-color="#5CB531"/>
        </linearGradient>
        <linearGradient id="paint2_linear_10259_262097" x1="15.9456" y1="11.0028" x2="22.1261" y2="11.0028"
                        gradientUnits="userSpaceOnUse">
            <stop stop-color="#007940"/>
            <stop offset="0.2285" stop-color="#00873F"/>
            <stop offset="0.7433" stop-color="#40A737"/>
            <stop offset="1" stop-color="#5CB531"/>
        </linearGradient>
        <linearGradient id="paint3_linear_10259_262097" x1="2.10975" y1="12.0007" x2="8.38584" y2="12.0007"
                        gradientUnits="userSpaceOnUse">
            <stop stop-color="#1F286F"/>
            <stop offset="0.4751" stop-color="#004E94"/>
            <stop offset="0.8261" stop-color="#0066B1"/>
            <stop offset="1" stop-color="#006FBC"/>
        </linearGradient>
        <linearGradient id="paint4_linear_10259_262097" x1="8.99502" y1="12.0007" x2="15.0903" y2="12.0007"
                        gradientUnits="userSpaceOnUse">
            <stop stop-color="#6C2C2F"/>
            <stop offset="0.1735" stop-color="#882730"/>
            <stop offset="0.5731" stop-color="#BE1833"/>
            <stop offset="0.8585" stop-color="#DC0436"/>
            <stop offset="1" stop-color="#E60039"/>
        </linearGradient>
    </defs>
</svg>
