<svg width="71" height="24" viewBox="0 0 71 24" fill="none" xmlns="http://www.w3.org/2000/svg">
    <g clip-path="url(#clip0_10270_257872)">
        <path d="M26.531 6.49536H22.6703C22.4061 6.49536 22.1814 6.6873 22.1402 6.9481L20.5788 16.848C20.5477 17.0433 20.699 17.2195 20.8971 17.2195H22.7403C23.0045 17.2195 23.2292 17.0275 23.2704 16.7662L23.6915 14.096C23.7321 13.8346 23.9574 13.6427 24.221 13.6427H25.4432C27.9863 13.6427 29.4541 12.4121 29.8374 9.97335C30.0101 8.90641 29.8447 8.0681 29.3451 7.48101C28.7964 6.83633 27.8232 6.49536 26.531 6.49536ZM26.9764 10.1111C26.7653 11.4964 25.7068 11.4964 24.6834 11.4964H24.1008L24.5095 8.90923C24.5338 8.75286 24.6692 8.6377 24.8273 8.6377H25.0943C25.7915 8.6377 26.4492 8.6377 26.789 9.03512C26.9917 9.27222 27.0538 9.62447 26.9764 10.1111Z"
              fill="#253B80"/>
        <path d="M38.0715 10.0664H36.2227C36.0652 10.0664 35.9291 10.1816 35.9049 10.338L35.823 10.8551L35.6937 10.6677C35.2935 10.0868 34.401 9.89258 33.5102 9.89258C31.4672 9.89258 29.7223 11.4399 29.3825 13.6105C29.2058 14.6932 29.457 15.7285 30.0712 16.4506C30.6345 17.1144 31.4407 17.391 32.3998 17.391C34.0459 17.391 34.9587 16.3326 34.9587 16.3326L34.8763 16.8463C34.8453 17.0427 34.9966 17.2189 35.1936 17.2189H36.8589C37.1237 17.2189 37.3472 17.0269 37.389 16.7656L38.3882 10.4379C38.4198 10.2431 38.2691 10.0664 38.0715 10.0664ZM35.4945 13.6647C35.3161 14.7209 34.4778 15.4299 33.4086 15.4299C32.8717 15.4299 32.4427 15.2577 32.1672 14.9315C31.894 14.6074 31.7901 14.1462 31.877 13.6325C32.0436 12.5853 32.896 11.8531 33.9488 11.8531C34.4738 11.8531 34.9006 12.0276 35.1817 12.3567C35.4634 12.6892 35.5752 13.1532 35.4945 13.6647Z"
              fill="#253B80"/>
        <path d="M47.9179 10.0665H46.0601C45.8829 10.0665 45.7163 10.1546 45.6158 10.3019L43.0535 14.0763L41.9674 10.4493C41.8991 10.2223 41.6896 10.0665 41.4525 10.0665H39.6269C39.405 10.0665 39.2509 10.2833 39.3215 10.4922L41.3679 16.4975L39.444 19.2134C39.2927 19.4273 39.4451 19.7214 39.7065 19.7214H41.5621C41.7382 19.7214 41.903 19.6356 42.0029 19.4911L48.1821 10.5718C48.33 10.3584 48.1782 10.0665 47.9179 10.0665Z"
              fill="#253B80"/>
        <path d="M54.0691 6.49536H50.2078C49.9442 6.49536 49.7195 6.6873 49.6783 6.9481L48.1168 16.848C48.0858 17.0433 48.2371 17.2195 48.4341 17.2195H50.4156C50.5996 17.2195 50.7571 17.0851 50.7859 16.9022L51.229 14.096C51.2697 13.8346 51.4949 13.6427 51.7585 13.6427H52.9802C55.5239 13.6427 56.991 12.4121 57.3749 9.97335C57.5482 8.90641 57.3817 8.0681 56.8821 7.48101C56.3339 6.83633 55.3613 6.49536 54.0691 6.49536ZM54.5145 10.1111C54.3039 11.4964 53.2455 11.4964 52.2214 11.4964H51.6394L52.0487 8.90923C52.073 8.75286 52.2073 8.6377 52.366 8.6377H52.633C53.3296 8.6377 53.9878 8.6377 54.3277 9.03512C54.5303 9.27222 54.5918 9.62447 54.5145 10.1111Z"
              fill="#179BD7"/>
        <path d="M65.6086 10.0664H63.761C63.6023 10.0664 63.4674 10.1816 63.4437 10.338L63.3619 10.8551L63.232 10.6677C62.8318 10.0868 61.9398 9.89258 61.049 9.89258C59.006 9.89258 57.2617 11.4399 56.9218 13.6105C56.7457 14.6932 56.9958 15.7285 57.61 16.4506C58.1745 17.1144 58.9795 17.391 59.9386 17.391C61.5848 17.391 62.4976 16.3326 62.4976 16.3326L62.4152 16.8463C62.3841 17.0427 62.5354 17.2189 62.7335 17.2189H64.3983C64.6619 17.2189 64.8866 17.0269 64.9278 16.7656L65.9276 10.4379C65.9581 10.2431 65.8068 10.0664 65.6086 10.0664ZM63.0316 13.6647C62.8544 14.7209 62.0149 15.4299 60.9457 15.4299C60.41 15.4299 59.9798 15.2577 59.7043 14.9315C59.4311 14.6074 59.3284 14.1462 59.4142 13.6325C59.5818 12.5853 60.4331 11.8531 61.486 11.8531C62.011 11.8531 62.4377 12.0276 62.7189 12.3567C63.0017 12.6892 63.1135 13.1532 63.0316 13.6647Z"
              fill="#179BD7"/>
        <path d="M67.7884 6.76685L66.2038 16.848C66.1727 17.0433 66.324 17.2194 66.521 17.2194H68.1141C68.3788 17.2194 68.6035 17.0275 68.6442 16.7661L70.2067 6.86677C70.2378 6.67144 70.0865 6.49475 69.8895 6.49475H68.1056C67.9481 6.49532 67.8126 6.61048 67.7884 6.76685Z"
              fill="#179BD7"/>
        <path d="M4.54628 19.1434L4.84152 17.2681L4.18386 17.2528H1.04346L3.22588 3.41484C3.23265 3.37307 3.25467 3.33411 3.28684 3.30645C3.31902 3.27879 3.36023 3.26355 3.40313 3.26355H8.6983C10.4562 3.26355 11.6693 3.62936 12.3027 4.35137C12.5997 4.69008 12.7888 5.04403 12.8802 5.43355C12.9762 5.84226 12.9779 6.33057 12.8842 6.92613L12.8774 6.9696V7.35121L13.1743 7.51944C13.4244 7.6521 13.6231 7.80395 13.7756 7.97782C14.0296 8.26742 14.1939 8.63549 14.2633 9.07186C14.335 9.52065 14.3113 10.0547 14.1939 10.6593C14.0584 11.3548 13.8393 11.9605 13.5435 12.4561C13.2714 12.9128 12.9248 13.2916 12.5133 13.5852C12.1204 13.864 11.6535 14.0757 11.1257 14.2112C10.6143 14.3444 10.0311 14.4116 9.39152 14.4116H8.97942C8.68475 14.4116 8.39854 14.5177 8.17386 14.708C7.94862 14.9022 7.79959 15.1675 7.75386 15.4577L7.72281 15.6265L7.2012 18.9317L7.17749 19.0531C7.17128 19.0915 7.16055 19.1106 7.14475 19.1236C7.13063 19.1355 7.11031 19.1434 7.09055 19.1434H4.54628Z"
              fill="#253B80"/>
        <path d="M13.4551 7.01355C13.4392 7.1146 13.4212 7.2179 13.4009 7.32403C12.7026 10.9093 10.3135 12.1478 7.26231 12.1478H5.70876C5.33562 12.1478 5.02118 12.4188 4.96304 12.7869L4.16763 17.8314L3.94239 19.2613C3.90457 19.5029 4.09086 19.7208 4.33473 19.7208H7.09013C7.41642 19.7208 7.6936 19.4837 7.74497 19.1619L7.77207 19.0219L8.29086 15.7297L8.32417 15.549C8.37497 15.2261 8.65272 14.989 8.97901 14.989H9.3911C12.0607 14.989 14.1505 13.9052 14.7613 10.7687C15.0165 9.45847 14.8844 8.36444 14.2092 7.595C14.0049 7.36299 13.7514 7.17049 13.4551 7.01355Z"
              fill="#179BD7"/>
        <path d="M12.7249 6.72232C12.6182 6.69128 12.5081 6.66305 12.3952 6.63765C12.2818 6.61281 12.1655 6.59079 12.0458 6.5716C11.6269 6.50386 11.168 6.47168 10.6763 6.47168H6.52596C6.42378 6.47168 6.32669 6.49482 6.23975 6.5366C6.04838 6.62862 5.90612 6.80982 5.87169 7.03168L4.98878 12.6238L4.96338 12.7869C5.02152 12.4189 5.33596 12.1479 5.7091 12.1479H7.26265C10.3139 12.1479 12.7029 10.9088 13.4012 7.3241C13.4221 7.21797 13.4396 7.11466 13.4554 7.01362C13.2787 6.91991 13.0873 6.83974 12.8813 6.77144C12.8305 6.7545 12.778 6.73813 12.7249 6.72232Z"
              fill="#222D65"/>
        <path d="M5.87159 7.03163C5.90602 6.80978 6.04828 6.62857 6.23965 6.53712C6.32715 6.49534 6.42368 6.4722 6.52586 6.4722H10.6762C11.1679 6.4722 11.6268 6.50438 12.0457 6.57212C12.1654 6.59131 12.2817 6.61333 12.3951 6.63817C12.508 6.66357 12.6181 6.6918 12.7248 6.72284C12.7779 6.73865 12.8304 6.75502 12.8817 6.77139C13.0878 6.8397 13.2792 6.92042 13.4559 7.01357C13.6636 5.68865 13.4542 4.78655 12.7378 3.9697C11.948 3.07042 10.5226 2.68542 8.69868 2.68542H3.40352C3.03094 2.68542 2.71312 2.95639 2.65554 3.32502L0.449975 17.3053C0.406507 17.5819 0.619894 17.8314 0.898765 17.8314H4.16788L4.98868 12.6237L5.87159 7.03163Z"
              fill="#253B80"/>
    </g>
    <defs>
        <clipPath id="clip0_10270_257872">
            <rect width="70" height="18.629" fill="white" transform="translate(0.444336 2.68542)"/>
        </clipPath>
    </defs>
</svg>
