<svg width="24" height="24" viewBox="0 0 24 24" fill="none" xmlns="http://www.w3.org/2000/svg">
    <path fill-rule="evenodd" clip-rule="evenodd"
          d="M9.89128 8.72949C9.88016 8.72949 9.85863 8.72949 9.8475 8.72949C9.66279 8.70697 9.51074 8.5377 9.51074 8.34592C9.49961 8.16535 9.40165 3.94554 11.7821 2.98653C12.38 2.74957 12.9349 2.79467 13.4022 3.14451C13.9779 3.56197 14.3911 4.39688 14.641 5.61544C14.8146 6.47294 14.8473 7.21757 14.8473 7.25145C14.8584 7.43194 14.7175 7.5674 14.532 7.53352C14.3473 7.51093 14.1952 7.34174 14.1952 7.16117C14.1626 6.39395 13.9126 4.28408 13.087 3.67476C12.8259 3.48298 12.4994 3.46039 12.1085 3.61836C10.0648 4.44198 10.1628 8.40232 10.1628 8.44742C10.1628 8.6054 10.0545 8.72949 9.89128 8.72949Z"
          fill="#595961"/>
    <path opacity="0.46" fill-rule="evenodd" clip-rule="evenodd"
          d="M13.2822 3.16703C12.8475 2.85108 12.3371 2.80597 11.7822 3.02035C10.8149 3.41522 10.1303 4.45328 9.79348 6.0329C9.54349 7.19499 9.5761 8.24435 9.5761 8.28945C9.5761 8.34585 9.59763 8.40232 9.64139 8.44743C9.68442 8.49253 9.72819 8.52642 9.78234 8.52642C9.79346 8.52642 9.8046 8.52642 9.81498 8.52642C9.9129 8.52642 9.9893 8.44743 9.9893 8.34585C9.9893 8.30075 9.89141 4.27272 11.9892 3.42651C12.4128 3.25731 12.7822 3.27983 13.0871 3.5055C13.9669 4.14862 14.228 6.32626 14.2606 7.10478C14.2606 7.21758 14.3586 7.33045 14.478 7.34167C14.587 7.35296 14.6738 7.27397 14.6738 7.16118C14.6627 7.02579 14.5433 4.09223 13.2822 3.16703Z"
          fill="#B2B2C2"/>
    <path opacity="0.46" fill-rule="evenodd" clip-rule="evenodd"
          d="M9.79362 8.39101C9.78249 8.39101 9.7825 8.39101 9.77211 8.39101C9.70683 8.37971 9.65192 8.31202 9.64153 8.24433C9.64153 8.19915 9.60892 7.17245 9.85891 6.01029C10.1846 4.46456 10.87 3.43779 11.815 3.05414C12.3476 2.83976 12.8261 2.88494 13.2393 3.17831C14.4566 4.06962 14.5761 6.95808 14.5761 7.08217C14.5761 7.14986 14.5219 7.19497 14.4566 7.18375C14.3913 7.17245 14.3372 7.11605 14.326 7.03706C14.326 7.00318 14.2066 4.1712 13.1087 3.3588C12.7824 3.12191 12.3803 3.08802 11.9241 3.26852C9.79362 4.1599 9.89155 8.24433 9.89155 8.28943C9.90193 8.34583 9.8589 8.39101 9.79362 8.39101Z"
          fill="#B2B2C2"/>
    <path opacity="0.62" fill-rule="evenodd" clip-rule="evenodd"
          d="M10.6742 5.16422C10.761 4.99503 10.8477 4.82576 10.9241 4.64526C10.8915 4.70166 10.6741 5.28839 10.011 5.19811C9.99984 5.19811 10.4019 5.3222 10.6742 5.16422Z"
          fill="#595961"/>
    <path opacity="0.62" fill-rule="evenodd" clip-rule="evenodd"
          d="M10.4343 5.8861C10.4996 5.70553 10.5648 5.51374 10.6086 5.33325C10.5871 5.40095 10.478 6.01019 9.78223 6.01019C9.78223 6.01019 10.1843 6.08918 10.4343 5.8861Z"
          fill="#595961"/>
    <path opacity="0.62" fill-rule="evenodd" clip-rule="evenodd"
          d="M14.2496 4.43079C14.1628 4.22763 14.0648 4.03584 13.9669 3.83276C13.9996 3.90046 14.326 4.54358 13.9565 5.00614C13.9565 5.00614 14.2392 4.78055 14.2496 4.43079Z"
          fill="#595961"/>
    <path opacity="0.62" fill-rule="evenodd" clip-rule="evenodd"
          d="M13.6526 3.41532C13.4783 3.26864 13.3047 3.13325 13.1304 3.00916C13.1957 3.06555 13.772 3.48301 13.7394 4.11492C13.7283 4.11492 13.8262 3.74256 13.6526 3.41532Z"
          fill="#595961"/>
    <path opacity="0.62" fill-rule="evenodd" clip-rule="evenodd"
          d="M10.9894 4.54344C11.1199 4.40805 11.2282 4.26137 11.3476 4.10339C11.3046 4.1485 10.9456 4.61113 10.3047 4.44186C10.3047 4.44186 10.6741 4.64502 10.9894 4.54344Z"
          fill="#595961"/>
    <path opacity="0.62" fill-rule="evenodd" clip-rule="evenodd"
          d="M11.3912 4.02457C11.5433 3.91177 11.6842 3.7989 11.8259 3.6748C11.7718 3.70869 11.326 4.08097 10.7065 3.81019C10.7065 3.81019 11.0648 4.06967 11.3912 4.02457Z"
          fill="#595961"/>
    <path opacity="0.62" fill-rule="evenodd" clip-rule="evenodd"
          d="M11.9782 3.65202C12.1629 3.59562 12.3373 3.52793 12.5108 3.46023C12.4456 3.48275 11.8914 3.68583 11.3477 3.25708C11.3588 3.25708 11.6414 3.59562 11.9782 3.65202Z"
          fill="#595961"/>
    <path opacity="0.62" fill-rule="evenodd" clip-rule="evenodd"
          d="M12.5105 3.44914C12.6626 3.47173 12.8147 3.48303 12.9668 3.49432C12.9126 3.48303 12.4341 3.44914 12.1626 2.9978C12.1626 2.9978 12.2717 3.30246 12.5105 3.44914Z"
          fill="#595961"/>
    <path opacity="0.62" fill-rule="evenodd" clip-rule="evenodd"
          d="M13.1413 3.69718C13.2496 3.82135 13.3698 3.94544 13.4996 4.05824C13.4566 4.01314 13.0872 3.64078 13.174 3.17822C13.1628 3.17822 13.0434 3.4377 13.1413 3.69718Z"
          fill="#595961"/>
    <path opacity="0.74" fill-rule="evenodd" clip-rule="evenodd"
          d="M14.4566 7.02577C14.4566 6.90161 14.3372 4.04703 13.1525 3.17831C12.9241 3.00904 12.6741 2.93005 12.4129 2.93005C12.2171 2.93005 12.0109 2.97516 11.7935 3.06544C10.8477 3.43779 10.1846 4.44198 9.85891 5.97641C9.60892 7.12728 9.64153 8.15405 9.64153 8.19915C9.64153 8.23304 9.67418 8.26685 9.70682 8.26685H9.71719C9.74983 8.26685 9.77211 8.24433 9.77211 8.21045C9.77211 8.16535 9.66305 4.04703 11.8477 3.16702C12.3261 2.97516 12.7393 3.00904 13.0872 3.26852C14.217 4.09221 14.3372 6.96938 14.3372 7.00319C14.3372 7.03707 14.3698 7.07088 14.4025 7.07088C14.4025 7.07088 14.4025 7.07088 14.4128 7.07088C14.4351 7.08217 14.4566 7.05958 14.4566 7.02577Z"
          fill="url(#paint0_linear_10259_262014)"/>
    <path fill-rule="evenodd" clip-rule="evenodd"
          d="M14.6414 5.61558C14.3914 4.39702 13.9782 3.57333 13.4026 3.14458C13.0873 2.91899 12.7498 2.81741 12.3804 2.84C12.6741 2.86251 12.9456 2.96409 13.1956 3.14458C13.772 3.56211 14.1852 4.39702 14.4352 5.61558C14.6088 6.47308 14.6414 7.21771 14.6414 7.2516C14.6414 7.38698 14.5761 7.48856 14.4671 7.52237C14.4893 7.53366 14.5109 7.53367 14.522 7.53367C14.7067 7.55625 14.8476 7.43209 14.8372 7.2516C14.8476 7.21771 14.815 6.48438 14.6414 5.61558Z"
          fill="url(#paint1_linear_10259_262014)"/>
    <path fill-rule="evenodd" clip-rule="evenodd"
          d="M11.9023 3.6184C9.85866 4.44202 9.95654 8.40235 9.95654 8.44745C9.95654 8.58284 9.89127 8.68442 9.78223 8.71823C9.80448 8.72952 9.81489 8.72952 9.83715 8.72952C9.84753 8.72952 9.86977 8.72952 9.88016 8.72952C10.0434 8.72952 10.1516 8.60543 10.1516 8.44745C10.1516 8.40235 10.0545 4.45331 12.0974 3.62969C12.2391 3.5733 12.3696 3.53941 12.4891 3.52812C12.3147 3.49431 12.1197 3.52812 11.9023 3.6184Z"
          fill="url(#paint2_linear_10259_262014)"/>
    <path fill-rule="evenodd" clip-rule="evenodd"
          d="M14.9995 4.59982L5.78259 7.55589C5.78259 7.55589 5.39166 7.66877 5.29374 7.79286C5.19582 7.91695 5.1743 8.26671 5.1743 8.26671L3.75 19.6625L14.4454 21.7386L15.2718 4.58852C15.1523 4.56593 15.0322 4.58852 14.9995 4.59982Z"
          fill="url(#paint3_linear_10259_262014)"/>
    <path fill-rule="evenodd" clip-rule="evenodd"
          d="M18.1849 6.06666C18.1849 6.06666 18.1738 5.97638 18.1196 5.94257C18.0758 5.90868 18.0217 5.90869 18.0217 5.90869L16.5106 5.79589L15.4023 4.65632C15.3586 4.62243 15.3148 4.59992 15.2607 4.58862L14.4351 21.7387L20.2278 20.4411L18.1849 6.06666Z"
          fill="url(#paint4_linear_10259_262014)"/>
    <path fill-rule="evenodd" clip-rule="evenodd"
          d="M11.1957 14.1226C11.0325 13.8969 10.8374 13.6939 10.6416 13.5133C10.4458 13.3328 10.2396 13.1861 10.0326 13.0507C9.89165 12.9605 9.76109 12.8702 9.65204 12.7799C9.54374 12.6897 9.45694 12.5994 9.39166 12.5204C9.32638 12.4301 9.27221 12.3511 9.23957 12.2609C9.20694 12.1706 9.19579 12.0804 9.19579 11.9901C9.19579 11.866 9.22845 11.7419 9.27222 11.6403C9.31524 11.5388 9.39165 11.4485 9.46731 11.3695C9.55485 11.2906 9.65203 11.2342 9.77221 11.189C9.89164 11.1439 10.0326 11.1214 10.1846 11.1101C10.3478 11.0988 10.511 11.1101 10.6631 11.1214C10.8152 11.1326 10.9569 11.1665 11.0978 11.2003C11.2284 11.2342 11.3589 11.2793 11.4672 11.3244C11.5763 11.3695 11.6846 11.4146 11.761 11.4598L12.4783 9.24838C12.37 9.19198 12.2395 9.13551 12.0978 9.1017C11.9457 9.05652 11.7825 9.02271 11.5978 9.00012C11.4131 8.9776 11.2172 8.96631 11.011 8.96631C10.8048 8.96631 10.5875 8.9776 10.359 9.01141C9.87014 9.07911 9.43469 9.21449 9.04375 9.41757C8.67433 9.60943 8.34793 9.85762 8.07643 10.1623C7.81531 10.4556 7.60907 10.7941 7.457 11.1778C7.31532 11.5501 7.22854 11.9676 7.20703 12.4188C7.1959 12.6897 7.21741 12.9379 7.28269 13.1635C7.33684 13.3892 7.42436 13.6036 7.5438 13.8067C7.6521 14.0097 7.79378 14.1903 7.94585 14.3595C8.09792 14.5288 8.28263 14.6867 8.46734 14.8334C8.61941 14.9462 8.74998 15.059 8.85903 15.1606C8.96733 15.2622 9.05487 15.3637 9.11941 15.4766C9.18469 15.5781 9.22844 15.6796 9.26108 15.7924C9.29372 15.894 9.30485 16.0068 9.29373 16.1197C9.29373 16.2325 9.26111 16.3453 9.21734 16.4356C9.17432 16.5258 9.11941 16.6161 9.03262 16.6838C8.95695 16.7515 8.85905 16.7966 8.75 16.8192C8.6417 16.8417 8.51114 16.853 8.36945 16.8305C8.207 16.8079 8.04377 16.7628 7.8917 16.695C7.73963 16.6386 7.58685 16.5597 7.44591 16.4807C7.30497 16.4018 7.17441 16.3115 7.06536 16.2325C6.94593 16.1535 6.848 16.0632 6.77233 15.9955L6.28271 17.6767C6.35912 17.7895 6.46745 17.8911 6.58688 17.9926C6.70705 18.0942 6.84801 18.1957 7.01121 18.2972C7.17441 18.3875 7.34799 18.4777 7.5327 18.5567C7.71741 18.6357 7.92435 18.7034 8.13058 18.7599H8.14171H8.15208H8.16322H8.17436C8.61944 18.8614 9.04375 18.884 9.44581 18.8276C9.85899 18.7711 10.2395 18.6244 10.5652 18.3988C10.902 18.1619 11.1742 17.8459 11.3804 17.4285C11.5874 17.011 11.7068 16.5033 11.7283 15.9278C11.7394 15.5668 11.6957 15.2509 11.5978 14.9575C11.4999 14.6191 11.3589 14.3595 11.1957 14.1226Z"
          fill="url(#paint5_linear_10259_262014)"/>
    <path opacity="0.226763" fill-rule="evenodd" clip-rule="evenodd"
          d="M6.35311 17.7686C6.32789 17.7387 6.30413 17.7082 6.28262 17.6768L6.77224 15.9956C6.77891 16.0019 6.78632 16.0084 6.79374 16.015C6.86644 16.08 6.95696 16.1609 7.06526 16.2326C7.17431 16.3115 7.30487 16.4018 7.44581 16.4808C7.58675 16.5597 7.73953 16.6387 7.8916 16.6952C8.04367 16.7629 8.2069 16.808 8.36936 16.8306C8.51104 16.8531 8.6416 16.8419 8.7499 16.8193C8.85895 16.7967 8.95685 16.7516 9.03252 16.6839C9.11931 16.6162 9.17422 16.5259 9.21725 16.4356C9.26101 16.3454 9.29363 16.2326 9.29363 16.1198C9.30475 16.0069 9.29362 15.8941 9.26098 15.7925C9.22834 15.6797 9.18459 15.5781 9.11931 15.4766C9.05774 15.3694 8.97613 15.2724 8.8745 15.1758C8.92792 15.2361 8.97318 15.2981 9.01101 15.3638C9.07629 15.4653 9.11932 15.5668 9.15196 15.6797C9.1846 15.7812 9.19573 15.8941 9.1846 16.0069C9.1846 16.1198 9.15197 16.2326 9.10895 16.3228C9.06518 16.4131 9.01101 16.5033 8.92422 16.571C8.84781 16.6387 8.74991 16.6839 8.6416 16.7064C8.53256 16.729 8.402 16.7403 8.26106 16.7177C8.09786 16.6952 7.93465 16.65 7.78258 16.5823C7.63051 16.5259 7.47843 16.4469 7.33674 16.3679C7.1958 16.289 7.06527 16.1987 6.95696 16.1198C6.84792 16.0481 6.75741 15.9672 6.68472 15.9022C6.6773 15.8956 6.67058 15.8891 6.66316 15.8828L6.17432 17.5639C6.22253 17.6357 6.28412 17.703 6.35311 17.7686ZM7.95467 14.3698C7.91387 14.3295 7.87456 14.2885 7.83673 14.2468C7.68466 14.0775 7.54372 13.897 7.43467 13.6939C7.31524 13.4908 7.22844 13.2764 7.17429 13.0508C7.10901 12.8251 7.08674 12.5769 7.09786 12.3061C7.11937 11.8548 7.20694 11.4373 7.34788 11.065C7.49995 10.6814 7.70693 10.3429 7.9673 10.0496C8.23955 9.7449 8.56517 9.49664 8.93459 9.30486C9.32626 9.10178 9.76097 8.96639 10.2498 8.89869C10.4783 8.86481 10.6957 8.85352 10.9019 8.85352C11.1089 8.85352 11.3047 8.86481 11.4894 8.8874C11.6741 8.90999 11.8373 8.9438 11.9894 8.98898C12.1303 9.02279 12.2609 9.07918 12.3699 9.13558L12.3529 9.18836C12.2742 9.15419 12.1882 9.1234 12.0977 9.10177C11.9456 9.05667 11.7824 9.02279 11.5977 9.0002C11.413 8.97768 11.2171 8.96639 11.0109 8.96639C10.8047 8.96639 10.5874 8.97768 10.3589 9.01149C9.87004 9.07919 9.43459 9.21457 9.04366 9.41773C8.67424 9.60951 8.34783 9.8577 8.07633 10.1624C7.81521 10.4557 7.60897 10.7942 7.4569 11.1778C7.31522 11.5502 7.22845 11.9676 7.20693 12.4189C7.19581 12.6898 7.21731 12.9379 7.28259 13.1636C7.33674 13.3893 7.42427 13.6037 7.5437 13.8067C7.652 14.0098 7.79368 14.1904 7.94575 14.3596C7.94872 14.363 7.9517 14.3664 7.95467 14.3698ZM9.43086 12.5667C9.4902 12.6338 9.56441 12.7069 9.65194 12.78C9.76099 12.8702 9.89155 12.9605 10.0325 13.0508C10.2395 13.1862 10.4457 13.3329 10.6415 13.5134C10.6986 13.5659 10.755 13.6203 10.8114 13.6767C10.7209 13.5794 10.6266 13.4874 10.5324 13.4006C10.3373 13.22 10.1304 13.0733 9.92419 12.9379C9.78251 12.8477 9.65195 12.7574 9.54364 12.6672C9.50284 12.6335 9.46573 12.5998 9.43086 12.5667Z"
          fill="black"/>
    <path opacity="0.41" fill-rule="evenodd" clip-rule="evenodd"
          d="M16.8799 18.5457L16.5105 5.79594L16.4452 5.72825L16.6196 18.3651C16.6196 18.3651 15.087 20.7796 14.8585 20.7119C14.5217 20.6104 15.5217 4.78047 15.5217 4.78047L15.4126 4.66767C15.3696 4.63379 15.3147 4.61127 15.2717 4.59998L14.4565 21.513L14.4453 21.75L14.7279 21.3777L16.8799 18.5457Z"
          fill="url(#paint6_linear_10259_262014)"/>
    <path fill-rule="evenodd" clip-rule="evenodd"
          d="M12.7168 5.33333C12.587 5.86359 12.4239 6.36003 12.3044 6.66469C12.228 6.84526 12.3148 7.01445 12.478 7.03704C12.6523 7.05963 12.8474 6.93547 12.9127 6.75497C12.9238 6.72109 13.2168 5.98775 13.4023 5.11896V5.10767L12.7168 5.33333Z"
          fill="url(#paint7_linear_10259_262014)"/>
    <path fill-rule="evenodd" clip-rule="evenodd"
          d="M7.81501 6.91287C7.66294 7.25134 7.51087 7.54471 7.40182 7.74779C7.30465 7.91706 7.35879 8.09755 7.52199 8.14265C7.68444 8.19912 7.90178 8.09755 7.9997 7.92828C8.01082 7.90576 8.32612 7.35292 8.60875 6.65332L7.81501 6.91287Z"
          fill="url(#paint8_linear_10259_262014)"/>
    <path opacity="0.32" fill-rule="evenodd" clip-rule="evenodd"
          d="M14.4453 21.7385L16.8799 18.5454L20.25 20.441L14.4453 21.7385Z" fill="url(#paint9_linear_10259_262014)"/>
    <path opacity="0.19" fill-rule="evenodd" clip-rule="evenodd"
          d="M14.4453 21.7385L16.8584 18.5454L20.25 20.441L14.4453 21.7385Z" fill="url(#paint10_linear_10259_262014)"/>
    <path opacity="0.19" fill-rule="evenodd" clip-rule="evenodd"
          d="M14.4453 21.7385L16.8584 18.5454L20.25 20.441L14.4453 21.7385Z" fill="url(#paint11_linear_10259_262014)"/>
    <path opacity="0.6" fill-rule="evenodd" clip-rule="evenodd"
          d="M12.0763 12.8026C13.3373 14.574 14.1852 16.4921 14.6088 18.3538L15.272 4.57738C15.1525 4.55487 15.0324 4.57738 14.9997 4.58868L5.78278 7.55612C5.78278 7.55612 5.69596 7.57864 5.58691 7.62382C7.92435 8.45873 10.2611 10.2527 12.0763 12.8026Z"
          fill="url(#paint12_linear_10259_262014)"/>
    <path fill-rule="evenodd" clip-rule="evenodd"
          d="M18.1296 5.95386C18.1845 5.99904 18.1845 6.06674 18.1845 6.06674L20.2059 20.4298L16.8797 18.5343L16.5103 5.78467L17.9998 5.89746C18.0102 5.90876 18.0755 5.90876 18.1296 5.95386Z"
          fill="url(#paint13_linear_10259_262014)"/>
    <path fill-rule="evenodd" clip-rule="evenodd"
          d="M17.8909 5.98786C17.8909 5.98786 17.9562 5.98786 18.0103 6.04426C18.0645 6.08944 18.0755 6.15714 18.0755 6.15714L20.0651 20.3623L20.2172 20.4526L18.195 6.07815C18.195 6.07815 18.1846 6.01045 18.1408 5.96535C18.0867 5.92017 18.0103 5.92017 18.0103 5.92017L16.5215 5.80737L17.8909 5.98786Z"
          fill="url(#paint14_linear_10259_262014)"/>
    <path fill-rule="evenodd" clip-rule="evenodd"
          d="M3.75 19.6625L14.4454 21.7385L14.9676 9.98169L5.08004 10.2628L3.75 19.6625Z"
          fill="url(#paint15_linear_10259_262014)"/>
    <path opacity="0.3" fill-rule="evenodd" clip-rule="evenodd"
          d="M7.26111 7.72031C7.16393 7.99455 7.25961 8.28267 7.47622 8.36402C7.69208 8.4453 7.94579 8.28895 8.04371 8.01478C8.14089 7.74061 8.04447 7.45241 7.8286 7.37113C7.61274 7.28978 7.35829 7.44614 7.26111 7.72031Z"
          fill="white"/>
    <path opacity="0.89" fill-rule="evenodd" clip-rule="evenodd"
          d="M7.24928 7.59025C7.1521 7.86442 7.24852 8.15262 7.46438 8.2339C7.68025 8.31525 7.9347 8.15889 8.03188 7.88472C8.12905 7.61048 8.03338 7.32228 7.81677 7.24101C7.6009 7.15966 7.34719 7.31601 7.24928 7.59025Z"
          fill="black"/>
    <path fill-rule="evenodd" clip-rule="evenodd"
          d="M16.5216 5.79589L15.4126 4.65632C15.3696 4.62243 15.3147 4.59992 15.2717 4.58862L14.4453 21.7387L16.891 18.5342L16.5216 5.79589Z"
          fill="url(#paint16_linear_10259_262014)"/>
    <path fill-rule="evenodd" clip-rule="evenodd"
          d="M14.9993 4.60017L5.78237 7.55625C5.78237 7.55625 5.39144 7.66912 5.29352 7.79321C5.2824 7.80451 5.28236 7.8158 5.27197 7.8271L14.5646 5.16431C14.641 5.14172 14.8257 5.07403 14.8042 5.62687L14.2389 21.7163L14.4348 21.7502L15.2604 4.60017C15.1521 4.56629 15.032 4.58888 14.9993 4.60017Z"
          fill="url(#paint17_linear_10259_262014)"/>
    <path fill-rule="evenodd" clip-rule="evenodd"
          d="M14.9993 4.60017L5.78237 7.55625C5.78237 7.55625 5.39144 7.66912 5.29352 7.79321C5.2824 7.80451 5.28236 7.8158 5.27197 7.8271L7.42396 7.20649L14.8257 4.82584C14.8584 4.81455 14.9778 4.79196 15.0972 4.81455L14.282 21.7163L14.4348 21.7502L15.2604 4.60017C15.1521 4.56629 15.032 4.58888 14.9993 4.60017Z"
          fill="url(#paint18_linear_10259_262014)"/>
    <path opacity="0.32" fill-rule="evenodd" clip-rule="evenodd"
          d="M17.3696 18.8164L16.88 18.5343L14.4351 21.7386L14.5649 21.7048C14.5649 21.7048 16.7176 18.8277 16.9127 18.7374C17.0544 18.681 17.3696 18.8164 17.3696 18.8164Z"
          fill="url(#paint19_linear_10259_262014)"/>
    <path opacity="0.57" fill-rule="evenodd" clip-rule="evenodd"
          d="M14.4453 21.7386L16.891 18.5343C16.8799 18.5456 15.337 20.2944 14.4453 21.7386Z"
          fill="url(#paint20_linear_10259_262014)"/>
    <path opacity="0.46" fill-rule="evenodd" clip-rule="evenodd"
          d="M20.2498 20.441L16.8909 18.5454C16.8797 18.5454 17.2714 18.6131 20.2498 20.441Z"
          fill="url(#paint21_linear_10259_262014)"/>
    <path opacity="0.3" fill-rule="evenodd" clip-rule="evenodd"
          d="M12.2302 6.59528C12.1323 6.86952 12.2287 7.15772 12.4446 7.23907C12.6612 7.32042 12.9149 7.16407 13.0121 6.8899C13.11 6.61565 13.0135 6.32746 12.7977 6.24611C12.5818 6.16483 12.3274 6.32111 12.2302 6.59528Z"
          fill="white"/>
    <path opacity="0.89" fill-rule="evenodd" clip-rule="evenodd"
          d="M12.2185 6.46567C12.1213 6.73991 12.2178 7.0281 12.4337 7.10945C12.6495 7.19073 12.9039 7.03445 13.0011 6.76021C13.0983 6.48604 13.0026 6.19785 12.7867 6.11649C12.5701 6.03514 12.3164 6.1915 12.2185 6.46567Z"
          fill="black"/>
    <path fill-rule="evenodd" clip-rule="evenodd"
          d="M7.64149 8.14282C7.63037 8.14282 7.60884 8.14282 7.59771 8.14282C7.42413 8.1203 7.30472 7.95103 7.32623 7.75925C7.34775 7.57868 7.96713 3.35887 10.5108 2.39986C11.1517 2.1629 11.6954 2.208 12.1086 2.55784C12.6086 2.9753 12.8801 3.81021 12.9239 5.02877C12.9565 5.88627 12.8586 6.6309 12.8586 6.66478C12.8371 6.84527 12.6739 6.98073 12.4996 6.94685C12.326 6.92426 12.1954 6.75507 12.2281 6.5745C12.326 5.80728 12.4343 3.69741 11.7066 3.08809C11.4781 2.89631 11.1629 2.87372 10.7393 3.03169C8.55468 3.85531 7.97826 7.81565 7.97826 7.84945C7.93449 8.01873 7.80469 8.14282 7.64149 8.14282Z"
          fill="#595961"/>
    <path opacity="0.46" fill-rule="evenodd" clip-rule="evenodd"
          d="M11.9783 2.58029C11.5977 2.26441 11.0977 2.21931 10.4999 2.43368C9.46726 2.82855 8.59782 3.86655 7.99992 5.43487C7.55484 6.59703 7.40205 7.64631 7.40205 7.69149C7.39166 7.74789 7.41319 7.80429 7.44583 7.84947C7.47847 7.89457 7.52221 7.92846 7.57636 7.92846C7.58675 7.92846 7.59788 7.92846 7.609 7.92846C7.70692 7.92846 7.7937 7.84947 7.80482 7.74789C7.81521 7.70279 8.39162 3.67476 10.6415 2.82855C11.0977 2.65928 11.4671 2.68187 11.7282 2.90754C12.4997 3.55067 12.3914 5.72823 12.2935 6.50674C12.2824 6.61961 12.3588 6.73241 12.4671 6.74371C12.5762 6.755 12.6844 6.67601 12.6956 6.56322C12.7067 6.43905 13.0873 3.50556 11.9783 2.58029Z"
          fill="#B2B2C2"/>
    <path opacity="0.81" fill-rule="evenodd" clip-rule="evenodd"
          d="M7.59773 7.80434C7.5866 7.80434 7.58661 7.80434 7.57622 7.80434C7.51094 7.79304 7.46716 7.72535 7.47829 7.65766C7.48942 7.61248 7.63038 6.58578 8.07621 5.42362C8.67411 3.87789 9.52197 2.85112 10.5323 2.46747C11.1087 2.25309 11.576 2.29827 11.9343 2.59164C12.9996 3.48295 12.6302 6.37141 12.6086 6.4955C12.5975 6.56319 12.5434 6.6083 12.467 6.59707C12.4024 6.58578 12.3587 6.52938 12.3587 6.45039C12.3587 6.41651 12.7281 3.58452 11.7719 2.77213C11.4893 2.55775 11.0976 2.53524 10.6199 2.71573C8.32621 3.58452 7.72831 7.65766 7.72831 7.70276C7.71718 7.75916 7.66301 7.80434 7.59773 7.80434Z"
          fill="#B2B2C2"/>
    <path opacity="0.42" fill-rule="evenodd" clip-rule="evenodd"
          d="M9.03221 4.57731C9.15164 4.40811 9.26067 4.23884 9.36898 4.05835C9.32595 4.11475 9.01069 4.70148 8.35864 4.61119C8.34751 4.61119 8.72807 4.73528 9.03221 4.57731Z"
          fill="#595961"/>
    <path opacity="0.42" fill-rule="evenodd" clip-rule="evenodd"
          d="M8.66321 5.2993C8.76113 5.11874 8.85902 4.92695 8.93468 4.74646C8.90204 4.81415 8.68469 5.4234 8 5.4234C8 5.4234 8.38058 5.50238 8.66321 5.2993Z"
          fill="#595961"/>
    <path opacity="0.42" fill-rule="evenodd" clip-rule="evenodd"
          d="M8.38054 6.04418C8.46733 5.85232 8.53263 5.66054 8.59791 5.46875C8.56527 5.53644 8.44584 6.15698 7.72852 6.23597C7.72852 6.22467 8.11942 6.26985 8.38054 6.04418Z"
          fill="#595961"/>
    <path opacity="0.62" fill-rule="evenodd" clip-rule="evenodd"
          d="M12.7278 3.84387C12.6737 3.64071 12.6195 3.44893 12.5431 3.24585C12.5646 3.31354 12.782 3.95667 12.3369 4.41923C12.3369 4.41923 12.6626 4.19363 12.7278 3.84387Z"
          fill="#595961"/>
    <path opacity="0.62" fill-rule="evenodd" clip-rule="evenodd"
          d="M12.3046 2.82852C12.1526 2.68184 11.9997 2.54646 11.8477 2.42236C11.9025 2.47876 12.4129 2.89622 12.272 3.52805C12.2609 3.52805 12.4241 3.1557 12.3046 2.82852Z"
          fill="#595961"/>
    <path opacity="0.62" fill-rule="evenodd" clip-rule="evenodd"
          d="M12.8372 4.88208C12.8261 4.679 12.7935 4.46463 12.7608 4.26147C12.7608 4.34046 12.8699 5.00618 12.3477 5.36723C12.3477 5.36723 12.7067 5.20926 12.8372 4.88208Z"
          fill="#595961"/>
    <path opacity="0.62" fill-rule="evenodd" clip-rule="evenodd"
          d="M12.8914 5.94268C12.9026 5.7396 12.9026 5.52522 12.8914 5.32214C12.8914 5.40113 12.9025 6.06685 12.3477 6.37143C12.3477 6.36021 12.7282 6.24734 12.8914 5.94268Z"
          fill="#595961"/>
    <path opacity="0.42" fill-rule="evenodd" clip-rule="evenodd"
          d="M8.13052 6.8678C8.1958 6.66472 8.23958 6.46164 8.2826 6.26978C8.26109 6.33747 8.16317 6.98059 7.5 7.13857C7.51113 7.13857 7.90204 7.12728 8.13052 6.8678Z"
          fill="#595961"/>
    <path opacity="0.42" fill-rule="evenodd" clip-rule="evenodd"
          d="M9.44555 3.95665C9.59762 3.82126 9.73927 3.67458 9.86983 3.5166C9.81494 3.56171 9.38025 4.02434 8.77197 3.85507C8.78236 3.85507 9.11915 4.05822 9.44555 3.95665Z"
          fill="#595961"/>
    <path opacity="0.42" fill-rule="evenodd" clip-rule="evenodd"
          d="M9.93439 3.4379C10.1087 3.3251 10.2719 3.21223 10.4344 3.08813C10.3698 3.12202 9.86984 3.4943 9.29346 3.22352C9.29346 3.22352 9.59761 3.483 9.93439 3.4379Z"
          fill="#595961"/>
    <path opacity="0.62" fill-rule="evenodd" clip-rule="evenodd"
          d="M10.5975 3.0656C10.7933 3.00912 10.978 2.94143 11.1627 2.87374C11.0975 2.89632 10.5107 3.09941 10.0322 2.67065C10.0322 2.67065 10.2607 3.00912 10.5975 3.0656Z"
          fill="#595961"/>
    <path opacity="0.62" fill-rule="evenodd" clip-rule="evenodd"
          d="M11.1519 2.86247C11.3047 2.88506 11.4568 2.89636 11.6089 2.90765C11.5547 2.89636 11.0873 2.86247 10.8804 2.41113C10.8915 2.41113 10.9457 2.71579 11.1519 2.86247Z"
          fill="#595961"/>
    <path opacity="0.62" fill-rule="evenodd" clip-rule="evenodd"
          d="M11.7394 3.11058C11.8373 3.23468 11.9345 3.35877 12.0324 3.47164C11.9998 3.42646 11.6956 3.05419 11.8477 2.59155C11.8588 2.59155 11.6956 2.85111 11.7394 3.11058Z"
          fill="#595961"/>
    <path fill-rule="evenodd" clip-rule="evenodd"
          d="M12.4889 6.43903C12.4993 6.31494 12.8695 3.46037 11.8369 2.59157C11.6411 2.42237 11.4022 2.34338 11.1411 2.34338C10.9453 2.34338 10.7279 2.38849 10.4995 2.47877C9.4995 2.85112 8.66272 3.85531 8.07595 5.38974C7.63012 6.54061 7.48915 7.56738 7.47803 7.61248C7.47803 7.64629 7.49958 7.68018 7.53222 7.68018H7.54332C7.57596 7.68018 7.59747 7.65759 7.59747 7.62378C7.60859 7.5786 8.19536 3.46037 10.5321 2.58027C11.032 2.38849 11.4563 2.42237 11.7605 2.68185C12.7493 3.50547 12.3799 6.38263 12.3695 6.41652C12.3695 6.45033 12.3911 6.48421 12.4237 6.48421C12.4237 6.48421 12.4237 6.48421 12.4341 6.48421C12.4667 6.49551 12.4889 6.47291 12.4889 6.43903Z"
          fill="url(#paint22_linear_10259_262014)"/>
    <path fill-rule="evenodd" clip-rule="evenodd"
          d="M12.9241 5.02867C12.8804 3.81011 12.6089 2.98642 12.1089 2.55767C11.8374 2.33207 11.511 2.23049 11.1416 2.25308C11.4242 2.2756 11.6846 2.37718 11.9027 2.55767C12.4027 2.9752 12.6741 3.81011 12.7172 5.02867C12.7498 5.88617 12.6527 6.6308 12.6527 6.66468C12.6304 6.80007 12.5436 6.90165 12.4346 6.93546C12.4568 6.94675 12.4672 6.94675 12.4894 6.94675C12.663 6.96934 12.8262 6.84517 12.8477 6.66468C12.8589 6.6308 12.9568 5.89746 12.9241 5.02867Z"
          fill="url(#paint23_linear_10259_262014)"/>
    <path fill-rule="evenodd" clip-rule="evenodd"
          d="M10.5218 3.0316C8.3372 3.85522 7.76083 7.81555 7.76083 7.86066C7.73932 7.99604 7.65176 8.09762 7.54346 8.13143C7.56497 8.14273 7.5761 8.14272 7.59761 8.14272C7.60873 8.14272 7.63026 8.14272 7.64139 8.14272C7.80459 8.14272 7.93439 8.01863 7.95665 7.86066C7.96703 7.81555 8.5323 3.86651 10.7169 3.04282C10.8697 2.98642 10.9996 2.95261 11.1197 2.94132C10.9565 2.91873 10.7496 2.95261 10.5218 3.0316Z"
          fill="url(#paint24_linear_10259_262014)"/>
    <defs>
        <linearGradient id="paint0_linear_10259_262014" x1="10.2083" y1="2.95552" x2="9.8674" y2="7.59665"
                        gradientUnits="userSpaceOnUse">
            <stop stop-color="white" stop-opacity="0.65"/>
            <stop offset="1" stop-color="white" stop-opacity="0.01"/>
        </linearGradient>
        <linearGradient id="paint1_linear_10259_262014" x1="12.6993" y1="5.61219" x2="15.0994" y2="7.71429"
                        gradientUnits="userSpaceOnUse">
            <stop stop-opacity="0.01"/>
            <stop offset="1" stop-opacity="0.4"/>
        </linearGradient>
        <linearGradient id="paint2_linear_10259_262014" x1="11.7369" y1="8.04388" x2="14.2772" y2="5.67771"
                        gradientUnits="userSpaceOnUse">
            <stop stop-opacity="0.01"/>
            <stop offset="1" stop-opacity="0.4"/>
        </linearGradient>
        <linearGradient id="paint3_linear_10259_262014" x1="8.50351" y1="1.13873" x2="-1.36336" y2="12.5075"
                        gradientUnits="userSpaceOnUse">
            <stop stop-color="#B8D26E"/>
            <stop offset="1" stop-color="#7FB525"/>
        </linearGradient>
        <linearGradient id="paint4_linear_10259_262014" x1="22.0007" y1="3.98506" x2="16.5856" y2="4.08562"
                        gradientUnits="userSpaceOnUse">
            <stop stop-color="#B4E034"/>
            <stop offset="1" stop-color="#60A927"/>
        </linearGradient>
        <linearGradient id="paint5_linear_10259_262014" x1="5.89401" y1="11.5658" x2="1.45431" y2="22.3773"
                        gradientUnits="userSpaceOnUse">
            <stop stop-color="white"/>
            <stop offset="1" stop-color="#CECEEB"/>
        </linearGradient>
        <linearGradient id="paint6_linear_10259_262014" x1="12.2592" y1="38.1913" x2="19.2908" y2="38.177"
                        gradientUnits="userSpaceOnUse">
            <stop stop-color="#1D1D1B" stop-opacity="0.5"/>
            <stop offset="0.038033" stop-color="#1D1D1B" stop-opacity="0.4837"/>
            <stop offset="0.4243" stop-color="#1D1D1B" stop-opacity="0.3185"/>
            <stop offset="1" stop-color="#1D1D1B" stop-opacity="0.01"/>
        </linearGradient>
        <linearGradient id="paint7_linear_10259_262014" x1="13.0759" y1="4.35041" x2="11.9094" y2="4.97824"
                        gradientUnits="userSpaceOnUse">
            <stop stop-opacity="0.01"/>
            <stop offset="1" stop-opacity="0.4"/>
        </linearGradient>
        <linearGradient id="paint8_linear_10259_262014" x1="8.18518" y1="6.21254" x2="7.36516" y2="6.91727"
                        gradientUnits="userSpaceOnUse">
            <stop stop-opacity="0.01"/>
            <stop offset="1" stop-opacity="0.4"/>
        </linearGradient>
        <linearGradient id="paint9_linear_10259_262014" x1="16.1841" y1="20.4494" x2="16.2671" y2="21.5438"
                        gradientUnits="userSpaceOnUse">
            <stop stop-opacity="0.01"/>
            <stop offset="1" stop-opacity="0.4"/>
        </linearGradient>
        <linearGradient id="paint10_linear_10259_262014" x1="14.2458" y1="18.8473" x2="14.4382" y2="21.6926"
                        gradientUnits="userSpaceOnUse">
            <stop stop-color="white" stop-opacity="0.5"/>
            <stop offset="0.0896271" stop-color="white" stop-opacity="0.4552"/>
            <stop offset="1" stop-color="white" stop-opacity="0.01"/>
        </linearGradient>
        <linearGradient id="paint11_linear_10259_262014" x1="13.8756" y1="19.2898" x2="14.218" y2="22.3292"
                        gradientUnits="userSpaceOnUse">
            <stop stop-opacity="0.01"/>
            <stop offset="1" stop-opacity="0.4"/>
        </linearGradient>
        <linearGradient id="paint12_linear_10259_262014" x1="12.5325" y1="1.8029" x2="3.75154" y2="6.88144"
                        gradientUnits="userSpaceOnUse">
            <stop stop-color="white" stop-opacity="0.5"/>
            <stop offset="1" stop-color="white" stop-opacity="0.01"/>
        </linearGradient>
        <linearGradient id="paint13_linear_10259_262014" x1="14.2262" y1="28.3451" x2="21.9766" y2="28.3607"
                        gradientUnits="userSpaceOnUse">
            <stop stop-color="#1D1D1B" stop-opacity="0.5"/>
            <stop offset="0.0896271" stop-color="#1D1D1B" stop-opacity="0.4552"/>
            <stop offset="1" stop-color="#1D1D1B" stop-opacity="0.01"/>
        </linearGradient>
        <linearGradient id="paint14_linear_10259_262014" x1="19.7765" y1="5.3798" x2="18.6756" y2="5.64957"
                        gradientUnits="userSpaceOnUse">
            <stop stop-color="white" stop-opacity="0.4"/>
            <stop offset="1" stop-color="white" stop-opacity="0.01"/>
        </linearGradient>
        <linearGradient id="paint15_linear_10259_262014" x1="9.89884" y1="21.8641" x2="10.4713" y2="19.104"
                        gradientUnits="userSpaceOnUse">
            <stop stop-color="#1D1D1B" stop-opacity="0.5"/>
            <stop offset="0.0896271" stop-color="#1D1D1B" stop-opacity="0.4552"/>
            <stop offset="1" stop-color="#1D1D1B" stop-opacity="0.01"/>
        </linearGradient>
        <linearGradient id="paint16_linear_10259_262014" x1="13.2087" y1="37.8399" x2="20.2655" y2="37.846"
                        gradientUnits="userSpaceOnUse">
            <stop stop-color="#1D1D1B" stop-opacity="0.5"/>
            <stop offset="1" stop-color="#1D1D1B" stop-opacity="0.01"/>
        </linearGradient>
        <linearGradient id="paint17_linear_10259_262014" x1="6.76004" y1="3.60588" x2="3.33751" y2="16.7552"
                        gradientUnits="userSpaceOnUse">
            <stop stop-color="white" stop-opacity="0.5"/>
            <stop offset="1" stop-color="white" stop-opacity="0.01"/>
        </linearGradient>
        <linearGradient id="paint18_linear_10259_262014" x1="6.76004" y1="3.60588" x2="3.33751" y2="16.7552"
                        gradientUnits="userSpaceOnUse">
            <stop stop-color="white" stop-opacity="0.5"/>
            <stop offset="1" stop-color="white" stop-opacity="0.01"/>
        </linearGradient>
        <linearGradient id="paint19_linear_10259_262014" x1="15.0663" y1="17.3896" x2="12.3612" y2="21.113"
                        gradientUnits="userSpaceOnUse">
            <stop stop-color="white" stop-opacity="0.5"/>
            <stop offset="0.0896271" stop-color="white" stop-opacity="0.4552"/>
            <stop offset="1" stop-color="white" stop-opacity="0.01"/>
        </linearGradient>
        <linearGradient id="paint20_linear_10259_262014" x1="15.8822" y1="18.2457" x2="15.6144" y2="18.8461"
                        gradientUnits="userSpaceOnUse">
            <stop stop-opacity="0.01"/>
            <stop offset="1" stop-opacity="0.4"/>
        </linearGradient>
        <linearGradient id="paint21_linear_10259_262014" x1="18.5384" y1="19.0394" x2="18.5252" y2="19.2008"
                        gradientUnits="userSpaceOnUse">
            <stop stop-opacity="0.01"/>
            <stop offset="1" stop-opacity="0.4"/>
        </linearGradient>
        <linearGradient id="paint22_linear_10259_262014" x1="8.79696" y1="1.96358" x2="7.62749" y2="6.58356"
                        gradientUnits="userSpaceOnUse">
            <stop stop-color="white" stop-opacity="0.65"/>
            <stop offset="1" stop-color="white" stop-opacity="0.01"/>
        </linearGradient>
        <linearGradient id="paint23_linear_10259_262014" x1="11.4146" y1="4.62863" x2="13.4489" y2="6.69691"
                        gradientUnits="userSpaceOnUse">
            <stop stop-opacity="0.01"/>
            <stop offset="1" stop-opacity="0.4"/>
        </linearGradient>
        <linearGradient id="paint24_linear_10259_262014" x1="10.1138" y1="7.67441" x2="12.9246" y2="4.78776"
                        gradientUnits="userSpaceOnUse">
            <stop stop-opacity="0.01"/>
            <stop offset="1" stop-opacity="0.4"/>
        </linearGradient>
    </defs>
</svg>
