<svg width="25" height="24" viewBox="0 0 25 24" fill="none" xmlns="http://www.w3.org/2000/svg">
    <path d="M2.82046 4.77606C2.1665 6.05953 2.1665 7.73969 2.1665 11.1V12.9C2.1665 16.2603 2.1665 17.9405 2.82046 19.2239C3.3957 20.3529 4.31359 21.2708 5.44256 21.846C6.72603 22.5 8.40619 22.5 11.7665 22.5H13.5665C16.9268 22.5 18.607 22.5 19.8904 21.846C21.0194 21.2708 21.9373 20.3529 22.5125 19.2239C23.1665 17.9405 23.1665 16.2603 23.1665 12.9V11.1C23.1665 7.73969 23.1665 6.05953 22.5125 4.77606C21.9373 3.64708 21.0194 2.7292 19.8904 2.15396C18.607 1.5 16.9268 1.5 13.5665 1.5H11.7665C8.40619 1.5 6.72603 1.5 5.44256 2.15396C4.31359 2.7292 3.3957 3.64708 2.82046 4.77606Z"
          fill="url(#paint0_linear_10259_261994)"/>
    <path d="M2.36542 6.20965C2.1665 7.34011 2.1665 8.84008 2.1665 11.1V12.9C2.1665 16.2603 2.1665 17.9404 2.82046 19.2239C3.3957 20.3529 4.31359 21.2708 5.44256 21.846C6.72603 22.5 8.40619 22.5 11.7665 22.5H13.5665C16.9268 22.5 18.607 22.5 19.8904 21.846C21.0194 21.2708 21.9373 20.3529 22.5125 19.2239C23.1665 17.9404 23.1665 16.2603 23.1665 12.9V11.1C23.1665 7.73965 23.1665 6.05949 22.5125 4.77602C21.9573 3.68633 21.0829 2.7933 20.0075 2.21521L2.36542 6.20965Z"
          fill="url(#paint1_linear_10259_261994)"/>
    <path d="M22.9493 17.8905C22.8528 18.3973 22.7136 18.8293 22.5126 19.2239C21.9373 20.3529 21.0194 21.2708 19.8905 21.846C18.6454 22.4804 17.027 22.4994 13.8637 22.4999H12.7104V20.1276L22.9493 17.8905Z"
          fill="url(#paint2_linear_10259_261994)"/>
    <path d="M13.5667 1.5H11.7667C11.113 1.5 10.5228 1.5 9.98682 1.50482V4.47789L20.0058 2.21419C19.9677 2.19372 19.9293 2.17364 19.8907 2.15396C19.1782 1.79091 18.3434 1.62941 17.1667 1.55757C16.2239 1.5 15.0616 1.5 13.5667 1.5Z"
          fill="url(#paint3_linear_10259_261994)"/>
    <path d="M23.1664 13.03C23.1664 15.2841 23.1624 16.77 22.9492 17.8905L19.3882 18.6685V13.3618L23.1664 12.4832V13.03Z"
          fill="url(#paint4_linear_10259_261994)"/>
    <path fill-rule="evenodd" clip-rule="evenodd"
          d="M11.8721 10.0334C11.8721 9.55141 12.2661 9.36603 12.9188 9.36603C13.8548 9.36603 15.037 9.65029 15.973 10.157V7.2526C14.9508 6.84475 13.941 6.68408 12.9188 6.68408C10.4189 6.68408 8.75635 7.99416 8.75635 10.1817C8.75635 13.5929 13.4361 13.0491 13.4361 14.5198C13.4361 15.0883 12.9435 15.2737 12.2538 15.2737C11.2317 15.2737 9.92628 14.8535 8.89181 14.285V17.2265C10.0371 17.7208 11.1947 17.9309 12.2538 17.9309C14.8154 17.9309 16.5764 16.6579 16.5764 14.4457C16.5641 10.7626 11.8721 11.4177 11.8721 10.0334Z"
          fill="white"/>
    <defs>
        <linearGradient id="paint0_linear_10259_261994" x1="2.1665" y1="1.5" x2="9.06399" y2="6.37657"
                        gradientUnits="userSpaceOnUse">
            <stop stop-color="#392993"/>
            <stop offset="1" stop-color="#4B47B9"/>
        </linearGradient>
        <linearGradient id="paint1_linear_10259_261994" x1="2.9573" y1="6.43082" x2="18.184" y2="18.9907"
                        gradientUnits="userSpaceOnUse">
            <stop stop-color="#594BB9"/>
            <stop offset="1" stop-color="#60A8F2"/>
        </linearGradient>
        <linearGradient id="paint2_linear_10259_261994" x1="12.7104" y1="20.2155" x2="23.1665" y2="22.5"
                        gradientUnits="userSpaceOnUse">
            <stop stop-color="#61A2EF"/>
            <stop offset="1" stop-color="#58E6FD"/>
        </linearGradient>
        <linearGradient id="paint3_linear_10259_261994" x1="9.98682" y1="2.99372" x2="23.1667" y2="1.5"
                        gradientUnits="userSpaceOnUse">
            <stop stop-color="#534EBE"/>
            <stop offset="1" stop-color="#6875E2"/>
        </linearGradient>
        <linearGradient id="paint4_linear_10259_261994" x1="19.3882" y1="13.4057" x2="23.1664" y2="17.9309"
                        gradientUnits="userSpaceOnUse">
            <stop stop-color="#71A5F3"/>
            <stop offset="1" stop-color="#6CC3FA"/>
        </linearGradient>
    </defs>
</svg>
