<svg width="25" height="24" viewBox="0 0 25 24" fill="none" xmlns="http://www.w3.org/2000/svg">
    <path d="M2.27783 12C2.27783 6.20101 6.97884 1.5 12.7778 1.5C18.5768 1.5 23.2778 6.20101 23.2778 12C23.2778 17.799 18.5768 22.5 12.7778 22.5C6.97884 22.5 2.27783 17.799 2.27783 12Z"
          fill="#172A73"/>
    <path d="M4.9585 7.30847V7.75528L6.59195 8.01245C7.74936 8.19468 8.68217 9.06464 8.95185 10.2133L10.864 18.3581C10.9113 18.5597 11.0899 18.7021 11.2955 18.7021H13.9788C14.1558 18.7021 14.3158 18.596 14.3859 18.4323L19.0146 7.62036C19.0777 7.47289 18.9704 7.30847 18.811 7.30847H16.3388C16.1602 7.30847 15.9991 7.41633 15.93 7.58216L12.8293 15.0159L11.5924 8.40072C11.474 7.76727 10.9248 7.30847 10.2851 7.30847H4.9585Z"
          fill="white"/>
</svg>
