<svg width="25" height="24" viewBox="0 0 25 24" fill="none" xmlns="http://www.w3.org/2000/svg">
    <circle cx="12.5557" cy="12" r="10.5" fill="#F11E15"/>
    <path fill-rule="evenodd" clip-rule="evenodd"
          d="M14.8185 18.9075C15.5405 18.5799 16.3353 18.1761 17.1054 17.6988C16.3613 18.5554 15.5639 18.7824 14.8185 18.9075ZM13.052 20.4208C12.9791 20.4208 12.3573 20.4208 12.3573 20.1937C12.3573 20.0686 12.5563 19.6635 12.7306 19.6145C13.1027 19.4623 13.8988 19.2597 13.9482 19.2597C14.0224 19.2597 14.6702 19.3371 14.7431 19.3371C14.7925 19.3371 15.266 19.31 15.5405 19.2365C15.8618 19.1591 16.2612 19.0095 16.6332 18.7824C17.0066 18.5554 17.5529 18.0755 17.8014 17.6717C17.9497 17.4447 18.0251 17.1428 18.2007 16.9402C18.4231 16.6396 18.8459 16.3855 19.1933 16.0591C19.5419 15.7044 19.8918 15.3277 20.2131 14.9252C19.5419 18.1013 15.4651 20.4208 13.052 20.4208ZM14.5713 3.15224C15.8384 3.4296 17.281 3.98175 18.522 5.2447C18.9214 5.6472 19.27 6.20318 19.4183 6.63018C19.4912 6.80563 19.4912 7.08428 19.6174 7.25973C19.8164 7.56418 20.1637 7.81445 20.4122 8.14341C20.7361 8.49559 20.9338 8.87486 21.1094 9.27736C21.1823 9.40249 21.2083 9.57925 21.2825 9.73148C21.3813 9.93143 21.5557 10.8899 21.5557 11.2447C21.5557 11.9762 21.3085 12.883 20.9833 13.5887C20.9833 13.6145 21.0106 13.6145 21.0106 13.6893V14.3189C20.7361 18.2032 16.1362 21 13.2509 21C12.9036 21 11.9097 20.9497 11.9097 20.244C11.9097 20.1666 11.9605 19.9409 12.0099 19.7641C11.461 19.8415 10.3917 20.0428 9.76984 20.0428C9.30023 20.0428 7.13561 20.0183 7.13561 18.8327C7.13561 17.722 9.07521 17.6472 9.44856 17.6472C10.4918 17.6472 11.5858 17.949 12.6551 18.4535C12.4795 18.5051 12.1582 18.6057 12.1088 18.6057C12.0333 18.6057 11.9345 18.5283 11.8343 18.5051C11.1397 18.2509 10.3422 18.1013 9.62156 18.1013C9.20009 18.1013 9.12463 18.0755 8.6277 18.2032C8.57827 18.2032 7.70799 18.4302 7.70799 18.7824C7.70799 19.0327 8.40397 19.1849 8.55227 19.2094C8.85017 19.2597 9.47197 19.31 9.5214 19.31C13.9482 19.31 20.8115 15.5792 20.8115 11.117C20.8115 10.2862 20.4382 9.10191 19.6902 8.34336C19.6408 8.67233 19.568 9.02452 19.4418 9.37928C19.3689 9.60633 19.1699 10.0088 19.1699 10.0591C19.1699 10.0591 20.4122 11.4447 20.4122 11.7491C20.4122 11.9258 20.1403 12.705 20.1403 12.7308C19.8918 12.051 19.5419 11.3698 18.846 10.69C18.7471 10.7906 18.6482 10.9402 18.5481 11.0679C18.4232 11.2447 18.2736 11.4214 18.1253 11.5969C17.8014 11.9761 17.056 12.6302 17.056 12.705C17.056 12.705 17.9497 13.6145 18.2502 14.6723C18.2996 14.8246 18.3738 15.1251 18.3738 15.1767C18.3738 15.3277 17.8768 15.6567 17.8768 15.6812C17.8508 14.8246 17.5035 13.9164 16.5825 13.0598C15.5145 13.8661 14.3957 14.5227 13.3264 15.0503C13.973 15.6063 14.3463 16.4126 14.3463 16.9918C14.3463 17.2692 14.1967 17.8755 14.0718 17.9491C13.9222 18.051 13.7505 18.1013 13.5749 18.1529C13.7739 17.8987 13.9482 17.3195 13.9482 17.0692C13.9482 16.6151 13.6503 15.9082 13.1521 15.5289C13.0285 15.4541 12.8542 15.2774 12.8048 15.2774C12.7306 15.2774 12.1088 15.5547 11.7615 15.6812C11.3621 15.8334 10.9407 15.9585 10.5179 16.0836C9.24955 16.4629 8.05531 16.69 6.83771 16.69C6.36549 16.69 4.29974 16.6396 4.29974 15.5044C4.29974 13.8157 8.13208 13.6635 8.65112 13.6635C9.79588 13.6635 10.8912 13.7912 12.0594 14.3189C11.8344 14.3937 11.4116 14.5704 11.3621 14.5704C11.288 14.5704 9.99492 14.1937 8.82675 14.1937C8.3038 14.1937 7.65858 14.2453 7.16165 14.3434C6.76229 14.4208 6.36552 14.5227 6.01689 14.6723C5.89201 14.6981 4.97229 15.1019 4.97229 15.4541C4.97229 15.5044 5.1206 15.6063 5.22076 15.6566C5.71899 15.9082 6.16646 15.8837 6.66339 15.8837C11.3621 15.8837 18.5715 12.1258 18.9955 8.21825V7.5887C18.7705 5.04215 14.8926 3.40251 13.0025 3.40251C12.9531 3.40251 12.6317 3.42958 12.4301 3.47731C12.5563 3.52891 12.7046 3.52893 12.8308 3.57924C12.9296 3.60633 13.0519 3.65666 13.1781 3.70439C13.3772 3.78179 13.7245 3.95852 13.9482 4.15847C14.1212 4.3107 14.2201 4.53774 14.3957 4.66287C14.5206 4.79058 14.769 4.76479 14.9681 4.8422C15.6133 5.04215 16.4107 5.34401 17.082 5.64717C17.3539 5.79682 17.7012 5.94905 18.0017 6.12578C18.1019 6.20319 18.1747 6.35285 18.2502 6.47798C18.3737 6.68052 18.5221 7.00946 18.5715 7.28682C17.281 6.30122 15.9867 5.79682 14.6936 5.36982H14.6208C14.6702 6.05096 14.3957 6.73083 13.9222 7.41197C15.3414 7.79124 16.831 8.34338 18.2996 9.37928C18.2242 9.55473 18.1253 9.75599 18.0017 9.93143C17.3799 9.47734 16.7086 9.12514 16.0868 8.82327C15.9372 8.74974 13.8493 7.96668 13.5254 7.96668C13.45 7.96668 12.9531 8.47107 12.6812 8.69812C12.0099 9.25155 11.3387 9.68114 10.6661 10.0836C12.4795 10.3378 14.2968 10.7403 16.1102 11.9491C15.9866 12.0742 15.7122 12.3283 15.6393 12.3283C15.5899 12.3283 15.1164 11.9761 14.8432 11.8484C13.5748 11.2176 11.1631 10.6152 9.69699 10.6152C9.57211 10.6152 8.13207 11.2447 7.78084 11.344C6.76226 11.6472 5.64352 12.0239 4.60154 12.0239C4.2503 12.0239 3.55566 12.0007 3.55566 11.4214C3.55566 10.2862 7.50896 10.0088 7.78084 10.0088H8.65112C8.02931 10.2604 7.28522 10.5377 6.68943 10.69C6.11705 10.8422 5.52125 10.9402 4.97229 11.117C4.87212 11.1428 4.77325 11.2176 4.67438 11.2692C4.67438 11.2692 4.65096 11.295 4.72381 11.295C4.77324 11.295 5.59412 11.1673 6.04031 11.0679C8.30381 10.5132 10.739 9.60631 12.9791 7.51386C13.5254 6.98236 13.9222 6.32833 14.0484 5.7491V5.2447C13.973 4.68999 13.1781 4.11074 12.6812 3.95852C12.3573 3.8566 11.7354 3.73148 11.6626 3.73148C11.5364 3.73148 11.3621 3.80629 11.2385 4.00883C12.0333 4.18557 12.953 4.00881 13.6503 5.01762C13.6503 5.01762 13.675 5.04215 13.6503 5.09246C13.45 5.01764 11.0135 4.43583 10.6167 4.43583C10.4684 4.43583 9.30024 5.26921 9.02576 5.44466C8.28037 5.89876 7.50897 6.32833 6.76228 6.70502L9.32366 6.73081C10.4411 6.80563 11.712 6.95788 12.8542 7.18493C12.8047 7.20944 12.3572 7.68933 12.2584 7.68933C12.2089 7.68933 11.4116 7.53708 11.0135 7.48677C10.2928 7.38486 9.5474 7.36165 8.80071 7.31004L5.57067 7.38488C5.39505 7.36166 5.04775 7.33714 5.04775 7.03269C5.04775 6.80564 5.31961 6.65601 5.52124 6.57861C5.66954 6.5283 5.84255 6.43025 5.99085 6.37865C7.5831 5.6988 9.22349 4.79058 10.8418 3.75596C10.7923 3.73145 10.6896 3.73148 10.6402 3.73148C10.5673 3.73148 10.3683 3.75597 10.22 3.80628C10.2434 3.83337 10.2694 3.83336 10.2928 3.83336C10.0703 3.9585 9.69701 4.20879 9.62156 4.20879C9.44855 4.20879 9.20008 3.98172 9.20008 3.83336C9.20008 3.37927 10.2199 3.3522 10.2928 3.3522C11.3114 3.32768 11.3881 3.37928 11.461 3.37928C11.5104 3.37928 11.9345 3.15224 12.209 3.10193C12.6058 3.00001 12.8048 3 13.1781 3C13.6009 3 14.0978 3.05033 14.5713 3.15224Z"
          fill="white"/>
</svg>
