<svg width="24" height="24" viewBox="0 0 24 24" fill="none" xmlns="http://www.w3.org/2000/svg">
    <path d="M4.3481 5.24684L1.53418 7.79748L2.50782 9.02344C2.94141 8.75391 3.8086 8.05078 4.19532 8.05078C5.06251 8.05078 5.84208 10.4004 6.58595 12.9844C7.25391 15.3047 7.94532 21.0703 11.1328 21.0703C14.8008 21.0703 22.5117 11.168 22.5117 6.76076C22.5117 5.16605 22.1953 2.87109 19.0195 2.87109C15.6164 2.87109 13.9421 6.15535 13.5304 7.79748C13.8266 7.6 14.6329 7.46835 15.0772 7.46835C16.8873 7.46835 16.5007 9.3446 16.2539 10.1016C16.0071 10.8585 14.1094 14.5443 13.0861 14.5443C11.8355 14.5443 11.0949 9.11392 10.7329 6.76076C10.3709 4.4076 9.43292 3.12405 8.00127 3.12405C6.85596 3.12405 5.08861 4.53925 4.3481 5.24684Z"
          fill="#3CB9E6"/>
</svg>
